<?xml version="1.0" encoding="utf-8" standalone="no"?>
<!DOCTYPE svg PUBLIC "-//W3C//DTD SVG 1.1//EN"
  "http://www.w3.org/Graphics/SVG/1.1/DTD/svg11.dtd">
<svg xmlns:xlink="http://www.w3.org/1999/xlink" width="457.92pt" height="489.555991pt" viewBox="0 0 457.92 489.555991" xmlns="http://www.w3.org/2000/svg" version="1.1">
 <metadata>
  <rdf:RDF xmlns:dc="http://purl.org/dc/elements/1.1/" xmlns:cc="http://creativecommons.org/ns#" xmlns:rdf="http://www.w3.org/1999/02/22-rdf-syntax-ns#">
   <cc:Work>
    <dc:type rdf:resource="http://purl.org/dc/dcmitype/StillImage"/>
    <dc:date>2026-05-01T09:55:51.825126</dc:date>
    <dc:format>image/svg+xml</dc:format>
    <dc:creator>
     <cc:Agent>
      <dc:title>Matplotlib v3.10.7+dfsg1, https://matplotlib.org/</dc:title>
     </cc:Agent>
    </dc:creator>
   </cc:Work>
  </rdf:RDF>
 </metadata>
 <defs>
  <style type="text/css">*{stroke-linejoin: round; stroke-linecap: butt}</style>
 </defs>
 <g id="figure_1">
  <g id="patch_1">
   <path d="M 0 489.555991 
L 457.92 489.555991 
L 457.92 0 
L 0 0 
z
" style="fill: #ffffff"/>
  </g>
  <g id="axes_1">
   <g id="patch_2">
    <path d="M 228.96 408.46604 
C 268.175595 408.46604 305.790301 392.885518 333.519914 365.155905 
C 361.249528 337.426292 376.830049 299.811586 376.830049 260.595991 
C 376.830049 221.380396 361.249528 183.76569 333.519914 156.036077 
C 305.790301 128.306463 268.175595 112.725942 228.96 112.725942 
C 189.744405 112.725942 152.129699 128.306463 124.400086 156.036077 
C 96.670472 183.76569 81.089951 221.380396 81.089951 260.595991 
C 81.089951 299.811586 96.670472 337.426292 124.400086 365.155905 
C 152.129699 392.885518 189.744405 408.46604 228.96 408.46604 
z
" clip-path="url(#p752ce50534)" style="fill: #f0f4fa; stroke: #f0f4fa; stroke-linejoin: miter"/>
   </g>
   <g id="patch_3">
    <path d="M 262.477633 279.947405 
Q 309.880765 285.747748 330.29162 312.857341 
" clip-path="url(#p752ce50534)" style="fill: none; opacity: 0.88; stroke: #7b2d8b; stroke-width: 3.6; stroke-linejoin: miter"/>
   </g>
   <g id="patch_4">
    <path d="M 228.96 221.893162 
Q 210.281678 177.940674 223.553847 146.709559 
" clip-path="url(#p752ce50534)" style="fill: none; opacity: 0.6; stroke: #49a62d; stroke-width: 1.68; stroke-linejoin: miter"/>
   </g>
   <g id="patch_5">
    <path d="M 339.818011 324.599893 
Q 292.414879 318.799551 272.004024 291.689958 
" clip-path="url(#p752ce50534)" style="fill: none; opacity: 0.45; stroke: #999999; stroke-width: 0.96; stroke-linejoin: miter"/>
   </g>
   <g id="patch_6">
    <path d="M 230.041756 300.380576 
C 240.305866 300.380576 250.150967 296.302602 257.408789 289.04478 
C 264.666611 281.786958 268.744585 271.941857 268.744585 261.677747 
C 268.744585 251.413637 264.666611 241.568536 257.408789 234.310714 
C 250.150967 227.052892 240.305866 222.974918 230.041756 222.974918 
C 219.777646 222.974918 209.932545 227.052892 202.674723 234.310714 
C 195.416901 241.568536 191.338927 251.413637 191.338927 261.677747 
C 191.338927 271.941857 195.416901 281.786958 202.674723 289.04478 
C 209.932545 296.302602 219.777646 300.380576 230.041756 300.380576 
z
" clip-path="url(#p752ce50534)" style="fill-opacity: 0.133333"/>
   </g>
   <g id="patch_7">
    <path d="M 364.840934 367.148966 
C 372.172441 367.148966 379.204656 364.236128 384.388814 359.051969 
C 389.572973 353.867811 392.485812 346.835596 392.485812 339.504088 
C 392.485812 332.172581 389.572973 325.140366 384.388814 319.956208 
C 379.204656 314.772049 372.172441 311.85921 364.840934 311.85921 
C 357.509426 311.85921 350.477212 314.772049 345.293053 319.956208 
C 340.108894 325.140366 337.196056 332.172581 337.196056 339.504088 
C 337.196056 346.835596 340.108894 353.867811 345.293053 359.051969 
C 350.477212 364.236128 357.509426 367.148966 364.840934 367.148966 
z
" clip-path="url(#p752ce50534)" style="fill-opacity: 0.133333"/>
   </g>
   <g id="patch_8">
    <path d="M 230.041756 133.669942 
C 237.373263 133.669942 244.405478 130.757103 249.589637 125.572945 
C 254.773795 120.388786 257.686634 113.356571 257.686634 106.025064 
C 257.686634 98.693557 254.773795 91.661342 249.589637 86.477183 
C 244.405478 81.293025 237.373263 78.380186 230.041756 78.380186 
C 222.710249 78.380186 215.678034 81.293025 210.493875 86.477183 
C 205.309717 91.661342 202.396878 98.693557 202.396878 106.025064 
C 202.396878 113.356571 205.309717 120.388786 210.493875 125.572945 
C 215.678034 130.757103 222.710249 133.669942 230.041756 133.669942 
z
" clip-path="url(#p752ce50534)" style="fill-opacity: 0.133333"/>
   </g>
   <g id="patch_9">
    <path d="M 95.242579 367.148966 
C 102.574086 367.148966 109.606301 364.236128 114.790459 359.051969 
C 119.974618 353.867811 122.887457 346.835596 122.887457 339.504088 
C 122.887457 332.172581 119.974618 325.140366 114.790459 319.956208 
C 109.606301 314.772049 102.574086 311.85921 95.242579 311.85921 
C 87.911071 311.85921 80.878856 314.772049 75.694698 319.956208 
C 70.510539 325.140366 67.5977 332.172581 67.5977 339.504088 
C 67.5977 346.835596 70.510539 353.867811 75.694698 359.051969 
C 80.878856 364.236128 87.911071 367.148966 95.242579 367.148966 
z
" clip-path="url(#p752ce50534)" style="fill-opacity: 0.133333"/>
   </g>
   <g id="patch_10">
    <path d="M 228.96 299.29882 
C 239.22411 299.29882 249.069211 295.220846 256.327033 287.963024 
C 263.584855 280.705202 267.662829 270.860101 267.662829 260.595991 
C 267.662829 250.331881 263.584855 240.48678 256.327033 233.228958 
C 249.069211 225.971136 239.22411 221.893162 228.96 221.893162 
C 218.69589 221.893162 208.850789 225.971136 201.592967 233.228958 
C 194.335145 240.48678 190.257171 250.331881 190.257171 260.595991 
C 190.257171 270.860101 194.335145 280.705202 201.592967 287.963024 
C 208.850789 295.220846 218.69589 299.29882 228.96 299.29882 
z
" clip-path="url(#p752ce50534)" style="fill: #911eb4; stroke: #ffffff; stroke-width: 2.8; stroke-linejoin: miter"/>
   </g>
   <g id="patch_11">
    <path d="M 363.759178 366.06721 
C 371.090685 366.06721 378.1229 363.154372 383.307058 357.970213 
C 388.491217 352.786054 391.404056 345.75384 391.404056 338.422332 
C 391.404056 331.090825 388.491217 324.05861 383.307058 318.874452 
C 378.1229 313.690293 371.090685 310.777454 363.759178 310.777454 
C 356.42767 310.777454 349.395455 313.690293 344.211297 318.874452 
C 339.027138 324.05861 336.1143 331.090825 336.1143 338.422332 
C 336.1143 345.75384 339.027138 352.786054 344.211297 357.970213 
C 349.395455 363.154372 356.42767 366.06721 363.759178 366.06721 
z
" clip-path="url(#p752ce50534)" style="fill: #45b7d1; stroke: #ffffff; stroke-width: 2.8; stroke-linejoin: miter"/>
   </g>
   <g id="patch_12">
    <path d="M 228.96 132.588186 
C 236.291507 132.588186 243.323722 129.675347 248.507881 124.491189 
C 253.692039 119.30703 256.604878 112.274815 256.604878 104.943308 
C 256.604878 97.611801 253.692039 90.579586 248.507881 85.395427 
C 243.323722 80.211269 236.291507 77.29843 228.96 77.29843 
C 221.628493 77.29843 214.596278 80.211269 209.412119 85.395427 
C 204.227961 90.579586 201.315122 97.611801 201.315122 104.943308 
C 201.315122 112.274815 204.227961 119.30703 209.412119 124.491189 
C 214.596278 129.675347 221.628493 132.588186 228.96 132.588186 
z
" clip-path="url(#p752ce50534)" style="fill: #4ecdc4; stroke: #ffffff; stroke-width: 2.8; stroke-linejoin: miter"/>
   </g>
   <g id="patch_13">
    <path d="M 94.160822 366.06721 
C 101.49233 366.06721 108.524545 363.154372 113.708703 357.970213 
C 118.892862 352.786054 121.8057 345.75384 121.8057 338.422332 
C 121.8057 331.090825 118.892862 324.05861 113.708703 318.874452 
C 108.524545 313.690293 101.49233 310.777454 94.160822 310.777454 
C 86.829315 310.777454 79.7971 313.690293 74.612942 318.874452 
C 69.428783 324.05861 66.515944 331.090825 66.515944 338.422332 
C 66.515944 345.75384 69.428783 352.786054 74.612942 357.970213 
C 79.7971 363.154372 86.829315 366.06721 94.160822 366.06721 
z
" clip-path="url(#p752ce50534)" style="fill: #45b7d1; stroke: #ffffff; stroke-width: 2.8; stroke-linejoin: miter"/>
   </g>
   <g id="text_1">
    <!-- Mac-A1 + Mac-A2 -&gt; Macrophage -->
    <g transform="translate(123.750039 47.491016) scale(0.125 -0.125)">
     <defs>
      <path id="DejaVuSans-4d" d="M 628 4666 
L 1569 4666 
L 2759 1491 
L 3956 4666 
L 4897 4666 
L 4897 0 
L 4281 0 
L 4281 4097 
L 3078 897 
L 2444 897 
L 1241 4097 
L 1241 0 
L 628 0 
L 628 4666 
z
" transform="scale(0.015625)"/>
      <path id="DejaVuSans-61" d="M 2194 1759 
Q 1497 1759 1228 1600 
Q 959 1441 959 1056 
Q 959 750 1161 570 
Q 1363 391 1709 391 
Q 2188 391 2477 730 
Q 2766 1069 2766 1631 
L 2766 1759 
L 2194 1759 
z
M 3341 1997 
L 3341 0 
L 2766 0 
L 2766 531 
Q 2569 213 2275 61 
Q 1981 -91 1556 -91 
Q 1019 -91 701 211 
Q 384 513 384 1019 
Q 384 1609 779 1909 
Q 1175 2209 1959 2209 
L 2766 2209 
L 2766 2266 
Q 2766 2663 2505 2880 
Q 2244 3097 1772 3097 
Q 1472 3097 1187 3025 
Q 903 2953 641 2809 
L 641 3341 
Q 956 3463 1253 3523 
Q 1550 3584 1831 3584 
Q 2591 3584 2966 3190 
Q 3341 2797 3341 1997 
z
" transform="scale(0.015625)"/>
      <path id="DejaVuSans-63" d="M 3122 3366 
L 3122 2828 
Q 2878 2963 2633 3030 
Q 2388 3097 2138 3097 
Q 1578 3097 1268 2742 
Q 959 2388 959 1747 
Q 959 1106 1268 751 
Q 1578 397 2138 397 
Q 2388 397 2633 464 
Q 2878 531 3122 666 
L 3122 134 
Q 2881 22 2623 -34 
Q 2366 -91 2075 -91 
Q 1284 -91 818 406 
Q 353 903 353 1747 
Q 353 2603 823 3093 
Q 1294 3584 2113 3584 
Q 2378 3584 2631 3529 
Q 2884 3475 3122 3366 
z
" transform="scale(0.015625)"/>
      <path id="DejaVuSans-2d" d="M 313 2009 
L 1997 2009 
L 1997 1497 
L 313 1497 
L 313 2009 
z
" transform="scale(0.015625)"/>
      <path id="DejaVuSans-41" d="M 2188 4044 
L 1331 1722 
L 3047 1722 
L 2188 4044 
z
M 1831 4666 
L 2547 4666 
L 4325 0 
L 3669 0 
L 3244 1197 
L 1141 1197 
L 716 0 
L 50 0 
L 1831 4666 
z
" transform="scale(0.015625)"/>
      <path id="DejaVuSans-31" d="M 794 531 
L 1825 531 
L 1825 4091 
L 703 3866 
L 703 4441 
L 1819 4666 
L 2450 4666 
L 2450 531 
L 3481 531 
L 3481 0 
L 794 0 
L 794 531 
z
" transform="scale(0.015625)"/>
      <path id="DejaVuSans-20" transform="scale(0.015625)"/>
      <path id="DejaVuSans-2b" d="M 2944 4013 
L 2944 2272 
L 4684 2272 
L 4684 1741 
L 2944 1741 
L 2944 0 
L 2419 0 
L 2419 1741 
L 678 1741 
L 678 2272 
L 2419 2272 
L 2419 4013 
L 2944 4013 
z
" transform="scale(0.015625)"/>
      <path id="DejaVuSans-32" d="M 1228 531 
L 3431 531 
L 3431 0 
L 469 0 
L 469 531 
Q 828 903 1448 1529 
Q 2069 2156 2228 2338 
Q 2531 2678 2651 2914 
Q 2772 3150 2772 3378 
Q 2772 3750 2511 3984 
Q 2250 4219 1831 4219 
Q 1534 4219 1204 4116 
Q 875 4013 500 3803 
L 500 4441 
Q 881 4594 1212 4672 
Q 1544 4750 1819 4750 
Q 2544 4750 2975 4387 
Q 3406 4025 3406 3419 
Q 3406 3131 3298 2873 
Q 3191 2616 2906 2266 
Q 2828 2175 2409 1742 
Q 1991 1309 1228 531 
z
" transform="scale(0.015625)"/>
      <path id="DejaVuSans-3e" d="M 678 3150 
L 678 3719 
L 4684 2266 
L 4684 1747 
L 678 294 
L 678 863 
L 3897 2003 
L 678 3150 
z
" transform="scale(0.015625)"/>
      <path id="DejaVuSans-72" d="M 2631 2963 
Q 2534 3019 2420 3045 
Q 2306 3072 2169 3072 
Q 1681 3072 1420 2755 
Q 1159 2438 1159 1844 
L 1159 0 
L 581 0 
L 581 3500 
L 1159 3500 
L 1159 2956 
Q 1341 3275 1631 3429 
Q 1922 3584 2338 3584 
Q 2397 3584 2469 3576 
Q 2541 3569 2628 3553 
L 2631 2963 
z
" transform="scale(0.015625)"/>
      <path id="DejaVuSans-6f" d="M 1959 3097 
Q 1497 3097 1228 2736 
Q 959 2375 959 1747 
Q 959 1119 1226 758 
Q 1494 397 1959 397 
Q 2419 397 2687 759 
Q 2956 1122 2956 1747 
Q 2956 2369 2687 2733 
Q 2419 3097 1959 3097 
z
M 1959 3584 
Q 2709 3584 3137 3096 
Q 3566 2609 3566 1747 
Q 3566 888 3137 398 
Q 2709 -91 1959 -91 
Q 1206 -91 779 398 
Q 353 888 353 1747 
Q 353 2609 779 3096 
Q 1206 3584 1959 3584 
z
" transform="scale(0.015625)"/>
      <path id="DejaVuSans-70" d="M 1159 525 
L 1159 -1331 
L 581 -1331 
L 581 3500 
L 1159 3500 
L 1159 2969 
Q 1341 3281 1617 3432 
Q 1894 3584 2278 3584 
Q 2916 3584 3314 3078 
Q 3713 2572 3713 1747 
Q 3713 922 3314 415 
Q 2916 -91 2278 -91 
Q 1894 -91 1617 61 
Q 1341 213 1159 525 
z
M 3116 1747 
Q 3116 2381 2855 2742 
Q 2594 3103 2138 3103 
Q 1681 3103 1420 2742 
Q 1159 2381 1159 1747 
Q 1159 1113 1420 752 
Q 1681 391 2138 391 
Q 2594 391 2855 752 
Q 3116 1113 3116 1747 
z
" transform="scale(0.015625)"/>
      <path id="DejaVuSans-68" d="M 3513 2113 
L 3513 0 
L 2938 0 
L 2938 2094 
Q 2938 2591 2744 2837 
Q 2550 3084 2163 3084 
Q 1697 3084 1428 2787 
Q 1159 2491 1159 1978 
L 1159 0 
L 581 0 
L 581 4863 
L 1159 4863 
L 1159 2956 
Q 1366 3272 1645 3428 
Q 1925 3584 2291 3584 
Q 2894 3584 3203 3211 
Q 3513 2838 3513 2113 
z
" transform="scale(0.015625)"/>
      <path id="DejaVuSans-67" d="M 2906 1791 
Q 2906 2416 2648 2759 
Q 2391 3103 1925 3103 
Q 1463 3103 1205 2759 
Q 947 2416 947 1791 
Q 947 1169 1205 825 
Q 1463 481 1925 481 
Q 2391 481 2648 825 
Q 2906 1169 2906 1791 
z
M 3481 434 
Q 3481 -459 3084 -895 
Q 2688 -1331 1869 -1331 
Q 1566 -1331 1297 -1286 
Q 1028 -1241 775 -1147 
L 775 -588 
Q 1028 -725 1275 -790 
Q 1522 -856 1778 -856 
Q 2344 -856 2625 -561 
Q 2906 -266 2906 331 
L 2906 616 
Q 2728 306 2450 153 
Q 2172 0 1784 0 
Q 1141 0 747 490 
Q 353 981 353 1791 
Q 353 2603 747 3093 
Q 1141 3584 1784 3584 
Q 2172 3584 2450 3431 
Q 2728 3278 2906 2969 
L 2906 3500 
L 3481 3500 
L 3481 434 
z
" transform="scale(0.015625)"/>
      <path id="DejaVuSans-65" d="M 3597 1894 
L 3597 1613 
L 953 1613 
Q 991 1019 1311 708 
Q 1631 397 2203 397 
Q 2534 397 2845 478 
Q 3156 559 3463 722 
L 3463 178 
Q 3153 47 2828 -22 
Q 2503 -91 2169 -91 
Q 1331 -91 842 396 
Q 353 884 353 1716 
Q 353 2575 817 3079 
Q 1281 3584 2069 3584 
Q 2775 3584 3186 3129 
Q 3597 2675 3597 1894 
z
M 3022 2063 
Q 3016 2534 2758 2815 
Q 2500 3097 2075 3097 
Q 1594 3097 1305 2825 
Q 1016 2553 972 2059 
L 3022 2063 
z
" transform="scale(0.015625)"/>
     </defs>
     <use xlink:href="#DejaVuSans-4d"/>
     <use xlink:href="#DejaVuSans-61" transform="translate(86.279297 0)"/>
     <use xlink:href="#DejaVuSans-63" transform="translate(147.558594 0)"/>
     <use xlink:href="#DejaVuSans-2d" transform="translate(202.539062 0)"/>
     <use xlink:href="#DejaVuSans-41" transform="translate(236.373047 0)"/>
     <use xlink:href="#DejaVuSans-31" transform="translate(304.78125 0)"/>
     <use xlink:href="#DejaVuSans-20" transform="translate(368.404297 0)"/>
     <use xlink:href="#DejaVuSans-2b" transform="translate(400.191406 0)"/>
     <use xlink:href="#DejaVuSans-20" transform="translate(483.980469 0)"/>
     <use xlink:href="#DejaVuSans-4d" transform="translate(515.767578 0)"/>
     <use xlink:href="#DejaVuSans-61" transform="translate(602.046875 0)"/>
     <use xlink:href="#DejaVuSans-63" transform="translate(663.326172 0)"/>
     <use xlink:href="#DejaVuSans-2d" transform="translate(718.306641 0)"/>
     <use xlink:href="#DejaVuSans-41" transform="translate(752.140625 0)"/>
     <use xlink:href="#DejaVuSans-32" transform="translate(820.548828 0)"/>
     <use xlink:href="#DejaVuSans-20" transform="translate(884.171875 0)"/>
     <use xlink:href="#DejaVuSans-2d" transform="translate(915.958984 0)"/>
     <use xlink:href="#DejaVuSans-3e" transform="translate(952.042969 0)"/>
     <use xlink:href="#DejaVuSans-20" transform="translate(1035.832031 0)"/>
     <use xlink:href="#DejaVuSans-4d" transform="translate(1067.619141 0)"/>
     <use xlink:href="#DejaVuSans-61" transform="translate(1153.898438 0)"/>
     <use xlink:href="#DejaVuSans-63" transform="translate(1215.177734 0)"/>
     <use xlink:href="#DejaVuSans-72" transform="translate(1270.158203 0)"/>
     <use xlink:href="#DejaVuSans-6f" transform="translate(1309.021484 0)"/>
     <use xlink:href="#DejaVuSans-70" transform="translate(1370.203125 0)"/>
     <use xlink:href="#DejaVuSans-68" transform="translate(1433.679688 0)"/>
     <use xlink:href="#DejaVuSans-61" transform="translate(1497.058594 0)"/>
     <use xlink:href="#DejaVuSans-67" transform="translate(1558.337891 0)"/>
     <use xlink:href="#DejaVuSans-65" transform="translate(1621.814453 0)"/>
    </g>
   </g>
   <g id="text_2">
    <!-- After merge_nodes() -->
    <g transform="translate(83.758828 26.196094) scale(0.25 -0.25)">
     <defs>
      <path id="DejaVuSans-Bold-41" d="M 3419 850 
L 1538 850 
L 1241 0 
L 31 0 
L 1759 4666 
L 3194 4666 
L 4922 0 
L 3713 0 
L 3419 850 
z
M 1838 1716 
L 3116 1716 
L 2478 3572 
L 1838 1716 
z
" transform="scale(0.015625)"/>
      <path id="DejaVuSans-Bold-66" d="M 2841 4863 
L 2841 4128 
L 2222 4128 
Q 1984 4128 1890 4042 
Q 1797 3956 1797 3744 
L 1797 3500 
L 2753 3500 
L 2753 2700 
L 1797 2700 
L 1797 0 
L 678 0 
L 678 2700 
L 122 2700 
L 122 3500 
L 678 3500 
L 678 3744 
Q 678 4316 997 4589 
Q 1316 4863 1984 4863 
L 2841 4863 
z
" transform="scale(0.015625)"/>
      <path id="DejaVuSans-Bold-74" d="M 1759 4494 
L 1759 3500 
L 2913 3500 
L 2913 2700 
L 1759 2700 
L 1759 1216 
Q 1759 972 1856 886 
Q 1953 800 2241 800 
L 2816 800 
L 2816 0 
L 1856 0 
Q 1194 0 917 276 
Q 641 553 641 1216 
L 641 2700 
L 84 2700 
L 84 3500 
L 641 3500 
L 641 4494 
L 1759 4494 
z
" transform="scale(0.015625)"/>
      <path id="DejaVuSans-Bold-65" d="M 4031 1759 
L 4031 1441 
L 1416 1441 
Q 1456 1047 1700 850 
Q 1944 653 2381 653 
Q 2734 653 3104 758 
Q 3475 863 3866 1075 
L 3866 213 
Q 3469 63 3072 -14 
Q 2675 -91 2278 -91 
Q 1328 -91 801 392 
Q 275 875 275 1747 
Q 275 2603 792 3093 
Q 1309 3584 2216 3584 
Q 3041 3584 3536 3087 
Q 4031 2591 4031 1759 
z
M 2881 2131 
Q 2881 2450 2695 2645 
Q 2509 2841 2209 2841 
Q 1884 2841 1681 2658 
Q 1478 2475 1428 2131 
L 2881 2131 
z
" transform="scale(0.015625)"/>
      <path id="DejaVuSans-Bold-72" d="M 3138 2547 
Q 2991 2616 2845 2648 
Q 2700 2681 2553 2681 
Q 2122 2681 1889 2404 
Q 1656 2128 1656 1613 
L 1656 0 
L 538 0 
L 538 3500 
L 1656 3500 
L 1656 2925 
Q 1872 3269 2151 3426 
Q 2431 3584 2822 3584 
Q 2878 3584 2943 3579 
Q 3009 3575 3134 3559 
L 3138 2547 
z
" transform="scale(0.015625)"/>
      <path id="DejaVuSans-Bold-20" transform="scale(0.015625)"/>
      <path id="DejaVuSans-Bold-6d" d="M 3781 2919 
Q 3994 3244 4286 3414 
Q 4578 3584 4928 3584 
Q 5531 3584 5847 3212 
Q 6163 2841 6163 2131 
L 6163 0 
L 5038 0 
L 5038 1825 
Q 5041 1866 5042 1909 
Q 5044 1953 5044 2034 
Q 5044 2406 4934 2573 
Q 4825 2741 4581 2741 
Q 4263 2741 4089 2478 
Q 3916 2216 3909 1719 
L 3909 0 
L 2784 0 
L 2784 1825 
Q 2784 2406 2684 2573 
Q 2584 2741 2328 2741 
Q 2006 2741 1831 2477 
Q 1656 2213 1656 1722 
L 1656 0 
L 531 0 
L 531 3500 
L 1656 3500 
L 1656 2988 
Q 1863 3284 2130 3434 
Q 2397 3584 2719 3584 
Q 3081 3584 3359 3409 
Q 3638 3234 3781 2919 
z
" transform="scale(0.015625)"/>
      <path id="DejaVuSans-Bold-67" d="M 2919 594 
Q 2688 288 2409 144 
Q 2131 0 1766 0 
Q 1125 0 706 504 
Q 288 1009 288 1791 
Q 288 2575 706 3076 
Q 1125 3578 1766 3578 
Q 2131 3578 2409 3434 
Q 2688 3291 2919 2981 
L 2919 3500 
L 4044 3500 
L 4044 353 
Q 4044 -491 3511 -936 
Q 2978 -1381 1966 -1381 
Q 1638 -1381 1331 -1331 
Q 1025 -1281 716 -1178 
L 716 -306 
Q 1009 -475 1290 -558 
Q 1572 -641 1856 -641 
Q 2406 -641 2662 -400 
Q 2919 -159 2919 353 
L 2919 594 
z
M 2181 2772 
Q 1834 2772 1640 2515 
Q 1447 2259 1447 1791 
Q 1447 1309 1634 1061 
Q 1822 813 2181 813 
Q 2531 813 2725 1069 
Q 2919 1325 2919 1791 
Q 2919 2259 2725 2515 
Q 2531 2772 2181 2772 
z
" transform="scale(0.015625)"/>
      <path id="DejaVuSans-Bold-5f" d="M 3200 -916 
L 3200 -1509 
L 0 -1509 
L 0 -916 
L 3200 -916 
z
" transform="scale(0.015625)"/>
      <path id="DejaVuSans-Bold-6e" d="M 4056 2131 
L 4056 0 
L 2931 0 
L 2931 347 
L 2931 1631 
Q 2931 2084 2911 2256 
Q 2891 2428 2841 2509 
Q 2775 2619 2662 2680 
Q 2550 2741 2406 2741 
Q 2056 2741 1856 2470 
Q 1656 2200 1656 1722 
L 1656 0 
L 538 0 
L 538 3500 
L 1656 3500 
L 1656 2988 
Q 1909 3294 2193 3439 
Q 2478 3584 2822 3584 
Q 3428 3584 3742 3212 
Q 4056 2841 4056 2131 
z
" transform="scale(0.015625)"/>
      <path id="DejaVuSans-Bold-6f" d="M 2203 2784 
Q 1831 2784 1636 2517 
Q 1441 2250 1441 1747 
Q 1441 1244 1636 976 
Q 1831 709 2203 709 
Q 2569 709 2762 976 
Q 2956 1244 2956 1747 
Q 2956 2250 2762 2517 
Q 2569 2784 2203 2784 
z
M 2203 3584 
Q 3106 3584 3614 3096 
Q 4122 2609 4122 1747 
Q 4122 884 3614 396 
Q 3106 -91 2203 -91 
Q 1297 -91 786 396 
Q 275 884 275 1747 
Q 275 2609 786 3096 
Q 1297 3584 2203 3584 
z
" transform="scale(0.015625)"/>
      <path id="DejaVuSans-Bold-64" d="M 2919 2988 
L 2919 4863 
L 4044 4863 
L 4044 0 
L 2919 0 
L 2919 506 
Q 2688 197 2409 53 
Q 2131 -91 1766 -91 
Q 1119 -91 703 423 
Q 288 938 288 1747 
Q 288 2556 703 3070 
Q 1119 3584 1766 3584 
Q 2128 3584 2408 3439 
Q 2688 3294 2919 2988 
z
M 2181 722 
Q 2541 722 2730 984 
Q 2919 1247 2919 1747 
Q 2919 2247 2730 2509 
Q 2541 2772 2181 2772 
Q 1825 2772 1636 2509 
Q 1447 2247 1447 1747 
Q 1447 1247 1636 984 
Q 1825 722 2181 722 
z
" transform="scale(0.015625)"/>
      <path id="DejaVuSans-Bold-73" d="M 3272 3391 
L 3272 2541 
Q 2913 2691 2578 2766 
Q 2244 2841 1947 2841 
Q 1628 2841 1473 2761 
Q 1319 2681 1319 2516 
Q 1319 2381 1436 2309 
Q 1553 2238 1856 2203 
L 2053 2175 
Q 2913 2066 3209 1816 
Q 3506 1566 3506 1031 
Q 3506 472 3093 190 
Q 2681 -91 1863 -91 
Q 1516 -91 1145 -36 
Q 775 19 384 128 
L 384 978 
Q 719 816 1070 734 
Q 1422 653 1784 653 
Q 2113 653 2278 743 
Q 2444 834 2444 1013 
Q 2444 1163 2330 1236 
Q 2216 1309 1875 1350 
L 1678 1375 
Q 931 1469 631 1722 
Q 331 1975 331 2491 
Q 331 3047 712 3315 
Q 1094 3584 1881 3584 
Q 2191 3584 2531 3537 
Q 2872 3491 3272 3391 
z
" transform="scale(0.015625)"/>
      <path id="DejaVuSans-Bold-28" d="M 2413 -844 
L 1484 -844 
Q 1006 -72 778 623 
Q 550 1319 550 2003 
Q 550 2688 779 3389 
Q 1009 4091 1484 4856 
L 2413 4856 
Q 2013 4116 1813 3408 
Q 1613 2700 1613 2009 
Q 1613 1319 1811 609 
Q 2009 -100 2413 -844 
z
" transform="scale(0.015625)"/>
      <path id="DejaVuSans-Bold-29" d="M 513 -844 
Q 913 -100 1113 609 
Q 1313 1319 1313 2009 
Q 1313 2700 1113 3408 
Q 913 4116 513 4856 
L 1441 4856 
Q 1916 4091 2145 3389 
Q 2375 2688 2375 2003 
Q 2375 1319 2147 623 
Q 1919 -72 1441 -844 
L 513 -844 
z
" transform="scale(0.015625)"/>
     </defs>
     <use xlink:href="#DejaVuSans-Bold-41"/>
     <use xlink:href="#DejaVuSans-Bold-66" transform="translate(77.392578 0)"/>
     <use xlink:href="#DejaVuSans-Bold-74" transform="translate(120.898438 0)"/>
     <use xlink:href="#DejaVuSans-Bold-65" transform="translate(168.701172 0)"/>
     <use xlink:href="#DejaVuSans-Bold-72" transform="translate(236.523438 0)"/>
     <use xlink:href="#DejaVuSans-Bold-20" transform="translate(285.839844 0)"/>
     <use xlink:href="#DejaVuSans-Bold-6d" transform="translate(320.654297 0)"/>
     <use xlink:href="#DejaVuSans-Bold-65" transform="translate(424.853516 0)"/>
     <use xlink:href="#DejaVuSans-Bold-72" transform="translate(492.675781 0)"/>
     <use xlink:href="#DejaVuSans-Bold-67" transform="translate(541.992188 0)"/>
     <use xlink:href="#DejaVuSans-Bold-65" transform="translate(613.574219 0)"/>
     <use xlink:href="#DejaVuSans-Bold-5f" transform="translate(681.396484 0)"/>
     <use xlink:href="#DejaVuSans-Bold-6e" transform="translate(731.396484 0)"/>
     <use xlink:href="#DejaVuSans-Bold-6f" transform="translate(802.587891 0)"/>
     <use xlink:href="#DejaVuSans-Bold-64" transform="translate(871.289062 0)"/>
     <use xlink:href="#DejaVuSans-Bold-65" transform="translate(942.871094 0)"/>
     <use xlink:href="#DejaVuSans-Bold-73" transform="translate(1010.693359 0)"/>
     <use xlink:href="#DejaVuSans-Bold-28" transform="translate(1070.214844 0)"/>
     <use xlink:href="#DejaVuSans-Bold-29" transform="translate(1115.917969 0)"/>
    </g>
   </g>
   <g id="patch_14">
    <path d="M 218.123208 266.014387 
C 222.434134 266.014387 226.569076 264.301638 229.617362 261.253353 
C 232.665647 258.205067 234.378396 254.070125 234.378396 249.759199 
C 234.378396 245.448272 232.665647 241.31333 229.617362 238.265045 
C 226.569076 235.21676 222.434134 233.50401 218.123208 233.50401 
C 213.812281 233.50401 209.677339 235.21676 206.629054 238.265045 
C 203.580769 241.31333 201.86802 245.448272 201.86802 249.759199 
C 201.86802 254.070125 203.580769 258.205067 206.629054 261.253353 
C 209.677339 264.301638 213.812281 266.014387 218.123208 266.014387 
z
" clip-path="url(#p752ce50534)" style="fill: #ffffff; opacity: 0.22"/>
   </g>
   <g id="patch_15">
    <path d="M 356.018612 342.292615 
C 359.097845 342.292615 362.051375 341.069223 364.228722 338.891876 
C 366.406068 336.71453 367.629461 333.761 367.629461 330.681766 
C 367.629461 327.602533 366.406068 324.649003 364.228722 322.471657 
C 362.051375 320.29431 359.097845 319.070918 356.018612 319.070918 
C 352.939379 319.070918 349.985848 320.29431 347.808502 322.471657 
C 345.631155 324.649003 344.407763 327.602533 344.407763 330.681766 
C 344.407763 333.761 345.631155 336.71453 347.808502 338.891876 
C 349.985848 341.069223 352.939379 342.292615 356.018612 342.292615 
z
" clip-path="url(#p752ce50534)" style="fill: #ffffff; opacity: 0.22"/>
   </g>
   <g id="patch_16">
    <path d="M 221.219434 108.813591 
C 224.298667 108.813591 227.252197 107.590199 229.429544 105.412852 
C 231.606891 103.235505 232.830283 100.281975 232.830283 97.202742 
C 232.830283 94.123509 231.606891 91.169979 229.429544 88.992632 
C 227.252197 86.815286 224.298667 85.591893 221.219434 85.591893 
C 218.140201 85.591893 215.186671 86.815286 213.009324 88.992632 
C 210.831978 91.169979 209.608585 94.123509 209.608585 97.202742 
C 209.608585 100.281975 210.831978 103.235505 213.009324 105.412852 
C 215.186671 107.590199 218.140201 108.813591 221.219434 108.813591 
z
" clip-path="url(#p752ce50534)" style="fill: #ffffff; opacity: 0.22"/>
   </g>
   <g id="patch_17">
    <path d="M 86.420257 342.292615 
C 89.49949 342.292615 92.45302 341.069223 94.630366 338.891876 
C 96.807713 336.71453 98.031105 333.761 98.031105 330.681766 
C 98.031105 327.602533 96.807713 324.649003 94.630366 322.471657 
C 92.45302 320.29431 89.49949 319.070918 86.420257 319.070918 
C 83.341023 319.070918 80.387493 320.29431 78.210147 322.471657 
C 76.0328 324.649003 74.809408 327.602533 74.809408 330.681766 
C 74.809408 333.761 76.0328 336.71453 78.210147 338.891876 
C 80.387493 341.069223 83.341023 342.292615 86.420257 342.292615 
z
" clip-path="url(#p752ce50534)" style="fill: #ffffff; opacity: 0.22"/>
   </g>
   <g id="patch_18">
    <path d="M 338.605575 323.899893 
L 326.930843 315.387675 
L 333.652397 310.327006 
z
" clip-path="url(#p752ce50534)" style="fill: #7b2d8b; opacity: 0.88"/>
   </g>
   <g id="patch_19">
    <path d="M 228.96 133.988186 
L 227.425569 148.35491 
L 219.682124 145.064208 
z
" clip-path="url(#p752ce50534)" style="fill: #49a62d; opacity: 0.6"/>
   </g>
   <g id="patch_20">
    <path d="M 263.690069 280.647405 
L 275.364801 289.159624 
L 268.643247 294.220292 
z
" clip-path="url(#p752ce50534)" style="fill: #999999; opacity: 0.45"/>
   </g>
   <g id="text_3">
    <!-- MACs -->
    <g transform="translate(210.37125 263.907241) scale(0.12 -0.12)">
     <defs>
      <path id="DejaVuSans-Bold-4d" d="M 588 4666 
L 2119 4666 
L 3181 2169 
L 4250 4666 
L 5778 4666 
L 5778 0 
L 4641 0 
L 4641 3413 
L 3566 897 
L 2803 897 
L 1728 3413 
L 1728 0 
L 588 0 
L 588 4666 
z
" transform="scale(0.015625)"/>
      <path id="DejaVuSans-Bold-43" d="M 4288 256 
Q 3956 84 3597 -3 
Q 3238 -91 2847 -91 
Q 1681 -91 1000 561 
Q 319 1213 319 2328 
Q 319 3447 1000 4098 
Q 1681 4750 2847 4750 
Q 3238 4750 3597 4662 
Q 3956 4575 4288 4403 
L 4288 3438 
Q 3953 3666 3628 3772 
Q 3303 3878 2944 3878 
Q 2300 3878 1931 3465 
Q 1563 3053 1563 2328 
Q 1563 1606 1931 1193 
Q 2300 781 2944 781 
Q 3303 781 3628 887 
Q 3953 994 4288 1222 
L 4288 256 
z
" transform="scale(0.015625)"/>
     </defs>
     <use xlink:href="#DejaVuSans-Bold-4d"/>
     <use xlink:href="#DejaVuSans-Bold-41" transform="translate(99.511719 0)"/>
     <use xlink:href="#DejaVuSans-Bold-43" transform="translate(176.904297 0)"/>
     <use xlink:href="#DejaVuSans-Bold-73" transform="translate(250.292969 0)"/>
    </g>
   </g>
   <g id="text_4">
    <!-- T cell -->
    <g transform="translate(391.864025 363.766799) scale(0.12 -0.12)">
     <defs>
      <path id="DejaVuSans-Bold-54" d="M 31 4666 
L 4331 4666 
L 4331 3756 
L 2784 3756 
L 2784 0 
L 1581 0 
L 1581 3756 
L 31 3756 
L 31 4666 
z
" transform="scale(0.015625)"/>
      <path id="DejaVuSans-Bold-63" d="M 3366 3391 
L 3366 2478 
Q 3138 2634 2908 2709 
Q 2678 2784 2431 2784 
Q 1963 2784 1702 2511 
Q 1441 2238 1441 1747 
Q 1441 1256 1702 982 
Q 1963 709 2431 709 
Q 2694 709 2930 787 
Q 3166 866 3366 1019 
L 3366 103 
Q 3103 6 2833 -42 
Q 2563 -91 2291 -91 
Q 1344 -91 809 395 
Q 275 881 275 1747 
Q 275 2613 809 3098 
Q 1344 3584 2291 3584 
Q 2566 3584 2833 3536 
Q 3100 3488 3366 3391 
z
" transform="scale(0.015625)"/>
      <path id="DejaVuSans-Bold-6c" d="M 538 4863 
L 1656 4863 
L 1656 0 
L 538 0 
L 538 4863 
z
" transform="scale(0.015625)"/>
     </defs>
     <use xlink:href="#DejaVuSans-Bold-54"/>
     <use xlink:href="#DejaVuSans-Bold-20" transform="translate(68.212891 0)"/>
     <use xlink:href="#DejaVuSans-Bold-63" transform="translate(103.027344 0)"/>
     <use xlink:href="#DejaVuSans-Bold-65" transform="translate(162.304688 0)"/>
     <use xlink:href="#DejaVuSans-Bold-6c" transform="translate(230.126953 0)"/>
     <use xlink:href="#DejaVuSans-Bold-6c" transform="translate(264.404297 0)"/>
    </g>
   </g>
   <g id="text_5">
    <!-- B cell -->
    <g transform="translate(210.557813 69.995) scale(0.12 -0.12)">
     <defs>
      <path id="DejaVuSans-Bold-42" d="M 2456 2859 
Q 2741 2859 2887 2984 
Q 3034 3109 3034 3353 
Q 3034 3594 2887 3720 
Q 2741 3847 2456 3847 
L 1791 3847 
L 1791 2859 
L 2456 2859 
z
M 2497 819 
Q 2859 819 3042 972 
Q 3225 1125 3225 1434 
Q 3225 1738 3044 1889 
Q 2863 2041 2497 2041 
L 1791 2041 
L 1791 819 
L 2497 819 
z
M 3616 2497 
Q 4003 2384 4215 2081 
Q 4428 1778 4428 1338 
Q 4428 663 3972 331 
Q 3516 0 2584 0 
L 588 0 
L 588 4666 
L 2394 4666 
Q 3366 4666 3802 4372 
Q 4238 4078 4238 3431 
Q 4238 3091 4078 2852 
Q 3919 2613 3616 2497 
z
" transform="scale(0.015625)"/>
     </defs>
     <use xlink:href="#DejaVuSans-Bold-42"/>
     <use xlink:href="#DejaVuSans-Bold-20" transform="translate(76.220703 0)"/>
     <use xlink:href="#DejaVuSans-Bold-63" transform="translate(111.035156 0)"/>
     <use xlink:href="#DejaVuSans-Bold-65" transform="translate(170.3125 0)"/>
     <use xlink:href="#DejaVuSans-Bold-6c" transform="translate(238.134766 0)"/>
     <use xlink:href="#DejaVuSans-Bold-6c" transform="translate(272.412109 0)"/>
    </g>
   </g>
   <g id="text_6">
    <!-- NK cell -->
    <g transform="translate(19.057225 363.766799) scale(0.12 -0.12)">
     <defs>
      <path id="DejaVuSans-Bold-4e" d="M 588 4666 
L 1931 4666 
L 3628 1466 
L 3628 4666 
L 4769 4666 
L 4769 0 
L 3425 0 
L 1728 3200 
L 1728 0 
L 588 0 
L 588 4666 
z
" transform="scale(0.015625)"/>
      <path id="DejaVuSans-Bold-4b" d="M 588 4666 
L 1791 4666 
L 1791 2963 
L 3525 4666 
L 4922 4666 
L 2675 2456 
L 5153 0 
L 3647 0 
L 1791 1838 
L 1791 0 
L 588 0 
L 588 4666 
z
" transform="scale(0.015625)"/>
     </defs>
     <use xlink:href="#DejaVuSans-Bold-4e"/>
     <use xlink:href="#DejaVuSans-Bold-4b" transform="translate(83.691406 0)"/>
     <use xlink:href="#DejaVuSans-Bold-20" transform="translate(161.181641 0)"/>
     <use xlink:href="#DejaVuSans-Bold-63" transform="translate(195.996094 0)"/>
     <use xlink:href="#DejaVuSans-Bold-65" transform="translate(255.273438 0)"/>
     <use xlink:href="#DejaVuSans-Bold-6c" transform="translate(323.095703 0)"/>
     <use xlink:href="#DejaVuSans-Bold-6c" transform="translate(357.373047 0)"/>
    </g>
   </g>
  </g>
 </g>
 <defs>
  <clipPath id="p752ce50534">
   <rect x="7.2" y="38.835991" width="443.52" height="443.52"/>
  </clipPath>
 </defs>
</svg>
