<?xml version="1.0" encoding="utf-8" standalone="no"?>
<!DOCTYPE svg PUBLIC "-//W3C//DTD SVG 1.1//EN"
  "http://www.w3.org/Graphics/SVG/1.1/DTD/svg11.dtd">
<svg xmlns:xlink="http://www.w3.org/1999/xlink" width="670.221418pt" height="485.260678pt" viewBox="0 0 670.221418 485.260678" xmlns="http://www.w3.org/2000/svg" version="1.1">
 <metadata>
  <rdf:RDF xmlns:dc="http://purl.org/dc/elements/1.1/" xmlns:cc="http://creativecommons.org/ns#" xmlns:rdf="http://www.w3.org/1999/02/22-rdf-syntax-ns#">
   <cc:Work>
    <dc:type rdf:resource="http://purl.org/dc/dcmitype/StillImage"/>
    <dc:date>2026-04-30T21:00:32.663663</dc:date>
    <dc:format>image/svg+xml</dc:format>
    <dc:creator>
     <cc:Agent>
      <dc:title>Matplotlib v3.10.7+dfsg1, https://matplotlib.org/</dc:title>
     </cc:Agent>
    </dc:creator>
   </cc:Work>
  </rdf:RDF>
 </metadata>
 <defs>
  <style type="text/css">*{stroke-linejoin: round; stroke-linecap: butt}</style>
 </defs>
 <g id="figure_1">
  <g id="patch_1">
   <path d="M 0 485.260678 
L 670.221418 485.260678 
L 670.221418 0 
L 0 0 
z
" style="fill: #ffffff"/>
  </g>
  <g id="axes_1">
   <g id="patch_2">
    <path d="M 332.971803 404.170727 
C 372.187398 404.170727 409.802104 388.590206 437.531717 360.860593 
C 465.26133 333.130979 480.841851 295.516274 480.841851 256.300678 
C 480.841851 217.085083 465.26133 179.470378 437.531717 151.740764 
C 409.802104 124.011151 372.187398 108.43063 332.971803 108.43063 
C 293.756207 108.43063 256.141502 124.011151 228.411888 151.740764 
C 200.682275 179.470378 185.101754 217.085083 185.101754 256.300678 
C 185.101754 295.516274 200.682275 333.130979 228.411888 360.860593 
C 256.141502 388.590206 293.756207 404.170727 332.971803 404.170727 
z
" clip-path="url(#pbcbdbe977a)" style="fill: #f0f4fa; stroke: #f0f4fa; stroke-linejoin: miter"/>
   </g>
   <g id="patch_3">
    <path d="M 454.182594 297.712101 
Q 361.537938 344.135791 272.239329 356.789293 
" clip-path="url(#pbcbdbe977a)" style="fill: none; opacity: 0.45; stroke: #999999; stroke-width: 0.96; stroke-linejoin: miter"/>
   </g>
   <g id="patch_4">
    <path d="M 455.374416 294.044049 
Q 348.283706 236.664033 271.5013 160.97195 
" clip-path="url(#pbcbdbe977a)" style="fill: none; opacity: 0.45; stroke: #999999; stroke-width: 0.96; stroke-linejoin: miter"/>
   </g>
   <g id="patch_5">
    <path d="M 457.065134 290.577564 
Q 377.238781 224.367966 342.405559 142.137805 
" clip-path="url(#pbcbdbe977a)" style="fill: none; opacity: 0.45; stroke: #999999; stroke-width: 0.96; stroke-linejoin: miter"/>
   </g>
   <g id="patch_6">
    <path d="M 336.819226 384.577521 
Q 378.645491 321.08909 438.770789 304.947857 
" clip-path="url(#pbcbdbe977a)" style="fill: none; opacity: 0.45; stroke: #999999; stroke-width: 0.96; stroke-linejoin: miter"/>
   </g>
   <g id="patch_7">
    <path d="M 325.351842 385.379399 
Q 291.06245 381.093592 273.130292 369.042934 
" clip-path="url(#pbcbdbe977a)" style="fill: none; opacity: 0.45; stroke: #999999; stroke-width: 0.96; stroke-linejoin: miter"/>
   </g>
   <g id="patch_8">
    <path d="M 329.124379 384.577521 
Q 310.285366 263.870942 264.436171 166.381018 
" clip-path="url(#pbcbdbe977a)" style="fill: none; opacity: 0.45; stroke: #999999; stroke-width: 0.96; stroke-linejoin: miter"/>
   </g>
   <g id="patch_9">
    <path d="M 212.162195 299.59952 
Q 250.166705 316.101769 253.439263 342.861022 
" clip-path="url(#pbcbdbe977a)" style="fill: none; opacity: 0.45; stroke: #999999; stroke-width: 0.96; stroke-linejoin: miter"/>
   </g>
   <g id="patch_10">
    <path d="M 209.784356 292.281286 
Q 202.251981 256.592195 207.734146 234.354428 
" clip-path="url(#pbcbdbe977a)" style="fill: none; opacity: 0.45; stroke: #999999; stroke-width: 0.96; stroke-linejoin: miter"/>
   </g>
   <g id="patch_11">
    <path d="M 403.918006 363.72831 
Q 374.889711 381.592027 354.764408 383.041012 
" clip-path="url(#pbcbdbe977a)" style="fill: none; opacity: 0.45; stroke: #999999; stroke-width: 0.96; stroke-linejoin: miter"/>
   </g>
   <g id="patch_12">
    <path d="M 413.217969 356.971491 
Q 416.056802 319.048853 439.056303 310.318826 
" clip-path="url(#pbcbdbe977a)" style="fill: none; opacity: 0.45; stroke: #999999; stroke-width: 0.96; stroke-linejoin: miter"/>
   </g>
   <g id="patch_13">
    <path d="M 406.692369 361.049139 
Q 382.478806 241.20949 338.580335 142.326329 
" clip-path="url(#pbcbdbe977a)" style="fill: none; opacity: 0.45; stroke: #999999; stroke-width: 0.96; stroke-linejoin: miter"/>
   </g>
   <g id="patch_14">
    <path d="M 408.212903 152.740189 
Q 448.785165 214.759963 456.335783 272.81121 
" clip-path="url(#pbcbdbe977a)" style="fill: none; opacity: 0.45; stroke: #999999; stroke-width: 0.96; stroke-linejoin: miter"/>
   </g>
   <g id="patch_15">
    <path d="M 405.258408 150.261074 
Q 319.067779 236.841453 224.671862 288.762978 
" clip-path="url(#pbcbdbe977a)" style="fill: none; opacity: 0.45; stroke: #999999; stroke-width: 0.96; stroke-linejoin: miter"/>
   </g>
   <g id="patch_16">
    <path d="M 212.162195 213.001837 
Q 227.045896 179.701337 244.552092 164.932941 
" clip-path="url(#pbcbdbe977a)" style="fill: none; opacity: 0.45; stroke: #999999; stroke-width: 0.96; stroke-linejoin: miter"/>
   </g>
   <g id="patch_17">
    <path d="M 211.229146 216.744091 
Q 260.47448 159.690167 316.288548 135.001742 
" clip-path="url(#pbcbdbe977a)" style="fill: none; opacity: 0.45; stroke: #999999; stroke-width: 0.96; stroke-linejoin: miter"/>
   </g>
   <g id="patch_18">
    <path d="M 454.71446 216.744091 
Q 374.202134 285.591267 338.363973 370.181177 
" clip-path="url(#pbcbdbe977a)" style="fill: none; opacity: 0.45; stroke: #999999; stroke-width: 0.96; stroke-linejoin: miter"/>
   </g>
   <g id="patch_19">
    <path d="M 456.159249 220.320071 
Q 407.003723 280.62184 408.699668 343.777433 
" clip-path="url(#pbcbdbe977a)" style="fill: none; opacity: 0.45; stroke: #999999; stroke-width: 0.96; stroke-linejoin: miter"/>
   </g>
   <g id="patch_20">
    <path d="M 453.781411 213.001837 
Q 415.776901 196.499588 412.504342 169.740335 
" clip-path="url(#pbcbdbe977a)" style="fill: none; opacity: 0.45; stroke: #999999; stroke-width: 0.96; stroke-linejoin: miter"/>
   </g>
   <g id="patch_21">
    <path d="M 482.088057 333.126637 
C 489.419565 333.126637 496.451779 330.213798 501.635938 325.029639 
C 506.820096 319.845481 509.732935 312.813266 509.732935 305.481759 
C 509.732935 298.150251 506.820096 291.118037 501.635938 285.933878 
C 496.451779 280.749719 489.419565 277.836881 482.088057 277.836881 
C 474.75655 277.836881 467.724335 280.749719 462.540176 285.933878 
C 457.356018 291.118037 454.443179 298.150251 454.443179 305.481759 
C 454.443179 312.813266 457.356018 319.845481 462.540176 325.029639 
C 467.724335 330.213798 474.75655 333.126637 482.088057 333.126637 
z
" clip-path="url(#pbcbdbe977a)" style="fill-opacity: 0.133333"/>
   </g>
   <g id="patch_22">
    <path d="M 242.563207 410.952978 
C 249.894715 410.952978 256.926929 408.040139 262.111088 402.855981 
C 267.295247 397.671822 270.208085 390.639608 270.208085 383.3081 
C 270.208085 375.976593 267.295247 368.944378 262.111088 363.760219 
C 256.926929 358.576061 249.894715 355.663222 242.563207 355.663222 
C 235.2317 355.663222 228.199485 358.576061 223.015327 363.760219 
C 217.831168 368.944378 214.918329 375.976593 214.918329 383.3081 
C 214.918329 390.639608 217.831168 397.671822 223.015327 402.855981 
C 228.199485 408.040139 235.2317 410.952978 242.563207 410.952978 
z
" clip-path="url(#pbcbdbe977a)" style="fill-opacity: 0.133333"/>
   </g>
   <g id="patch_23">
    <path d="M 334.053559 440.679995 
C 341.385066 440.679995 348.417281 437.767157 353.60144 432.582998 
C 358.785598 427.39884 361.698437 420.366625 361.698437 413.035117 
C 361.698437 405.70361 358.785598 398.671395 353.60144 393.487237 
C 348.417281 388.303078 341.385066 385.390239 334.053559 385.390239 
C 326.722051 385.390239 319.689837 388.303078 314.505678 393.487237 
C 309.321519 398.671395 306.408681 405.70361 306.408681 413.035117 
C 306.408681 420.366625 309.321519 427.39884 314.505678 432.582998 
C 319.689837 437.767157 326.722051 440.679995 334.053559 440.679995 
z
" clip-path="url(#pbcbdbe977a)" style="fill-opacity: 0.133333"/>
   </g>
   <g id="patch_24">
    <path d="M 186.01906 333.126637 
C 193.350568 333.126637 200.382783 330.213798 205.566941 325.029639 
C 210.7511 319.845481 213.663938 312.813266 213.663938 305.481759 
C 213.663938 298.150251 210.7511 291.118037 205.566941 285.933878 
C 200.382783 280.749719 193.350568 277.836881 186.01906 277.836881 
C 178.687553 277.836881 171.655338 280.749719 166.47118 285.933878 
C 161.287021 291.118037 158.374182 298.150251 158.374182 305.481759 
C 158.374182 312.813266 161.287021 319.845481 166.47118 325.029639 
C 171.655338 330.213798 178.687553 333.126637 186.01906 333.126637 
z
" clip-path="url(#pbcbdbe977a)" style="fill-opacity: 0.133333"/>
   </g>
   <g id="patch_25">
    <path d="M 242.563207 159.101647 
C 249.894715 159.101647 256.926929 156.188808 262.111088 151.004649 
C 267.295247 145.820491 270.208085 138.788276 270.208085 131.456769 
C 270.208085 124.125261 267.295247 117.093047 262.111088 111.908888 
C 256.926929 106.724729 249.894715 103.811891 242.563207 103.811891 
C 235.2317 103.811891 228.199485 106.724729 223.015327 111.908888 
C 217.831168 117.093047 214.918329 124.125261 214.918329 131.456769 
C 214.918329 138.788276 217.831168 145.820491 223.015327 151.004649 
C 228.199485 156.188808 235.2317 159.101647 242.563207 159.101647 
z
" clip-path="url(#pbcbdbe977a)" style="fill-opacity: 0.133333"/>
   </g>
   <g id="patch_26">
    <path d="M 425.54391 410.952978 
C 432.875418 410.952978 439.907632 408.040139 445.091791 402.855981 
C 450.27595 397.671822 453.188788 390.639608 453.188788 383.3081 
C 453.188788 375.976593 450.27595 368.944378 445.091791 363.760219 
C 439.907632 358.576061 432.875418 355.663222 425.54391 355.663222 
C 418.212403 355.663222 411.180188 358.576061 405.99603 363.760219 
C 400.811871 368.944378 397.899032 375.976593 397.899032 383.3081 
C 397.899032 390.639608 400.811871 397.671822 405.99603 402.855981 
C 411.180188 408.040139 418.212403 410.952978 425.54391 410.952978 
z
" clip-path="url(#pbcbdbe977a)" style="fill-opacity: 0.133333"/>
   </g>
   <g id="patch_27">
    <path d="M 334.053559 129.37463 
C 341.385066 129.37463 348.417281 126.461791 353.60144 121.277632 
C 358.785598 116.093474 361.698437 109.061259 361.698437 101.729752 
C 361.698437 94.398244 358.785598 87.366029 353.60144 82.181871 
C 348.417281 76.997712 341.385066 74.084873 334.053559 74.084873 
C 326.722051 74.084873 319.689837 76.997712 314.505678 82.181871 
C 309.321519 87.366029 306.408681 94.398244 306.408681 101.729752 
C 306.408681 109.061259 309.321519 116.093474 314.505678 121.277632 
C 319.689837 126.461791 326.722051 129.37463 334.053559 129.37463 
z
" clip-path="url(#pbcbdbe977a)" style="fill-opacity: 0.133333"/>
   </g>
   <g id="patch_28">
    <path d="M 425.54391 159.101647 
C 432.875418 159.101647 439.907632 156.188808 445.091791 151.004649 
C 450.27595 145.820491 453.188788 138.788276 453.188788 131.456769 
C 453.188788 124.125261 450.27595 117.093047 445.091791 111.908888 
C 439.907632 106.724729 432.875418 103.811891 425.54391 103.811891 
C 418.212403 103.811891 411.180188 106.724729 405.99603 111.908888 
C 400.811871 117.093047 397.899032 124.125261 397.899032 131.456769 
C 397.899032 138.788276 400.811871 145.820491 405.99603 151.004649 
C 411.180188 156.188808 418.212403 159.101647 425.54391 159.101647 
z
" clip-path="url(#pbcbdbe977a)" style="fill-opacity: 0.133333"/>
   </g>
   <g id="patch_29">
    <path d="M 186.01906 236.927988 
C 193.350568 236.927988 200.382783 234.01515 205.566941 228.830991 
C 210.7511 223.646832 213.663938 216.614618 213.663938 209.28311 
C 213.663938 201.951603 210.7511 194.919388 205.566941 189.735229 
C 200.382783 184.551071 193.350568 181.638232 186.01906 181.638232 
C 178.687553 181.638232 171.655338 184.551071 166.47118 189.735229 
C 161.287021 194.919388 158.374182 201.951603 158.374182 209.28311 
C 158.374182 216.614618 161.287021 223.646832 166.47118 228.830991 
C 171.655338 234.01515 178.687553 236.927988 186.01906 236.927988 
z
" clip-path="url(#pbcbdbe977a)" style="fill-opacity: 0.133333"/>
   </g>
   <g id="patch_30">
    <path d="M 482.088057 236.927988 
C 489.419565 236.927988 496.451779 234.01515 501.635938 228.830991 
C 506.820096 223.646832 509.732935 216.614618 509.732935 209.28311 
C 509.732935 201.951603 506.820096 194.919388 501.635938 189.735229 
C 496.451779 184.551071 489.419565 181.638232 482.088057 181.638232 
C 474.75655 181.638232 467.724335 184.551071 462.540176 189.735229 
C 457.356018 194.919388 454.443179 201.951603 454.443179 209.28311 
C 454.443179 216.614618 457.356018 223.646832 462.540176 228.830991 
C 467.724335 234.01515 474.75655 236.927988 482.088057 236.927988 
z
" clip-path="url(#pbcbdbe977a)" style="fill-opacity: 0.133333"/>
   </g>
   <g id="patch_31">
    <path d="M 481.006301 332.044881 
C 488.337808 332.044881 495.370023 329.132042 500.554182 323.947883 
C 505.73834 318.763725 508.651179 311.73151 508.651179 304.400003 
C 508.651179 297.068495 505.73834 290.03628 500.554182 284.852122 
C 495.370023 279.667963 488.337808 276.755125 481.006301 276.755125 
C 473.674794 276.755125 466.642579 279.667963 461.45842 284.852122 
C 456.274262 290.03628 453.361423 297.068495 453.361423 304.400003 
C 453.361423 311.73151 456.274262 318.763725 461.45842 323.947883 
C 466.642579 329.132042 473.674794 332.044881 481.006301 332.044881 
z
" clip-path="url(#pbcbdbe977a)" style="fill: #377eb8; stroke: #ffffff; stroke-width: 2.8; stroke-linejoin: miter"/>
   </g>
   <g id="patch_32">
    <path d="M 241.481451 409.871222 
C 248.812959 409.871222 255.845173 406.958383 261.029332 401.774225 
C 266.21349 396.590066 269.126329 389.557851 269.126329 382.226344 
C 269.126329 374.894837 266.21349 367.862622 261.029332 362.678463 
C 255.845173 357.494305 248.812959 354.581466 241.481451 354.581466 
C 234.149944 354.581466 227.117729 357.494305 221.93357 362.678463 
C 216.749412 367.862622 213.836573 374.894837 213.836573 382.226344 
C 213.836573 389.557851 216.749412 396.590066 221.93357 401.774225 
C 227.117729 406.958383 234.149944 409.871222 241.481451 409.871222 
z
" clip-path="url(#pbcbdbe977a)" style="fill: #377eb8; stroke: #ffffff; stroke-width: 2.8; stroke-linejoin: miter"/>
   </g>
   <g id="patch_33">
    <path d="M 332.971803 439.598239 
C 340.30331 439.598239 347.335525 436.685401 352.519683 431.501242 
C 357.703842 426.317083 360.616681 419.284869 360.616681 411.953361 
C 360.616681 404.621854 357.703842 397.589639 352.519683 392.405481 
C 347.335525 387.221322 340.30331 384.308483 332.971803 384.308483 
C 325.640295 384.308483 318.608081 387.221322 313.423922 392.405481 
C 308.239763 397.589639 305.326925 404.621854 305.326925 411.953361 
C 305.326925 419.284869 308.239763 426.317083 313.423922 431.501242 
C 318.608081 436.685401 325.640295 439.598239 332.971803 439.598239 
z
" clip-path="url(#pbcbdbe977a)" style="fill: #377eb8; stroke: #ffffff; stroke-width: 2.8; stroke-linejoin: miter"/>
   </g>
   <g id="patch_34">
    <path d="M 184.937304 332.044881 
C 192.268812 332.044881 199.301026 329.132042 204.485185 323.947883 
C 209.669344 318.763725 212.582182 311.73151 212.582182 304.400003 
C 212.582182 297.068495 209.669344 290.03628 204.485185 284.852122 
C 199.301026 279.667963 192.268812 276.755125 184.937304 276.755125 
C 177.605797 276.755125 170.573582 279.667963 165.389424 284.852122 
C 160.205265 290.03628 157.292426 297.068495 157.292426 304.400003 
C 157.292426 311.73151 160.205265 318.763725 165.389424 323.947883 
C 170.573582 329.132042 177.605797 332.044881 184.937304 332.044881 
z
" clip-path="url(#pbcbdbe977a)" style="fill: #377eb8; stroke: #ffffff; stroke-width: 2.8; stroke-linejoin: miter"/>
   </g>
   <g id="patch_35">
    <path d="M 241.481451 158.019891 
C 248.812959 158.019891 255.845173 155.107052 261.029332 149.922893 
C 266.21349 144.738735 269.126329 137.70652 269.126329 130.375013 
C 269.126329 123.043505 266.21349 116.01129 261.029332 110.827132 
C 255.845173 105.642973 248.812959 102.730135 241.481451 102.730135 
C 234.149944 102.730135 227.117729 105.642973 221.93357 110.827132 
C 216.749412 116.01129 213.836573 123.043505 213.836573 130.375013 
C 213.836573 137.70652 216.749412 144.738735 221.93357 149.922893 
C 227.117729 155.107052 234.149944 158.019891 241.481451 158.019891 
z
" clip-path="url(#pbcbdbe977a)" style="fill: #e41a1c; stroke: #ffffff; stroke-width: 2.8; stroke-linejoin: miter"/>
   </g>
   <g id="patch_36">
    <path d="M 424.462154 409.871222 
C 431.793662 409.871222 438.825876 406.958383 444.010035 401.774225 
C 449.194194 396.590066 452.107032 389.557851 452.107032 382.226344 
C 452.107032 374.894837 449.194194 367.862622 444.010035 362.678463 
C 438.825876 357.494305 431.793662 354.581466 424.462154 354.581466 
C 417.130647 354.581466 410.098432 357.494305 404.914273 362.678463 
C 399.730115 367.862622 396.817276 374.894837 396.817276 382.226344 
C 396.817276 389.557851 399.730115 396.590066 404.914273 401.774225 
C 410.098432 406.958383 417.130647 409.871222 424.462154 409.871222 
z
" clip-path="url(#pbcbdbe977a)" style="fill: #4daf4a; stroke: #ffffff; stroke-width: 2.8; stroke-linejoin: miter"/>
   </g>
   <g id="patch_37">
    <path d="M 332.971803 128.292873 
C 340.30331 128.292873 347.335525 125.380035 352.519683 120.195876 
C 357.703842 115.011718 360.616681 107.979503 360.616681 100.647995 
C 360.616681 93.316488 357.703842 86.284273 352.519683 81.100115 
C 347.335525 75.915956 340.30331 73.003117 332.971803 73.003117 
C 325.640295 73.003117 318.608081 75.915956 313.423922 81.100115 
C 308.239763 86.284273 305.326925 93.316488 305.326925 100.647995 
C 305.326925 107.979503 308.239763 115.011718 313.423922 120.195876 
C 318.608081 125.380035 325.640295 128.292873 332.971803 128.292873 
z
" clip-path="url(#pbcbdbe977a)" style="fill: #377eb8; stroke: #ffffff; stroke-width: 2.8; stroke-linejoin: miter"/>
   </g>
   <g id="patch_38">
    <path d="M 424.462154 158.019891 
C 431.793662 158.019891 438.825876 155.107052 444.010035 149.922893 
C 449.194194 144.738735 452.107032 137.70652 452.107032 130.375013 
C 452.107032 123.043505 449.194194 116.01129 444.010035 110.827132 
C 438.825876 105.642973 431.793662 102.730135 424.462154 102.730135 
C 417.130647 102.730135 410.098432 105.642973 404.914273 110.827132 
C 399.730115 116.01129 396.817276 123.043505 396.817276 130.375013 
C 396.817276 137.70652 399.730115 144.738735 404.914273 149.922893 
C 410.098432 155.107052 417.130647 158.019891 424.462154 158.019891 
z
" clip-path="url(#pbcbdbe977a)" style="fill: #377eb8; stroke: #ffffff; stroke-width: 2.8; stroke-linejoin: miter"/>
   </g>
   <g id="patch_39">
    <path d="M 184.937304 235.846232 
C 192.268812 235.846232 199.301026 232.933393 204.485185 227.749235 
C 209.669344 222.565076 212.582182 215.532861 212.582182 208.201354 
C 212.582182 200.869847 209.669344 193.837632 204.485185 188.653473 
C 199.301026 183.469315 192.268812 180.556476 184.937304 180.556476 
C 177.605797 180.556476 170.573582 183.469315 165.389424 188.653473 
C 160.205265 193.837632 157.292426 200.869847 157.292426 208.201354 
C 157.292426 215.532861 160.205265 222.565076 165.389424 227.749235 
C 170.573582 232.933393 177.605797 235.846232 184.937304 235.846232 
z
" clip-path="url(#pbcbdbe977a)" style="fill: #377eb8; stroke: #ffffff; stroke-width: 2.8; stroke-linejoin: miter"/>
   </g>
   <g id="patch_40">
    <path d="M 481.006301 235.846232 
C 488.337808 235.846232 495.370023 232.933393 500.554182 227.749235 
C 505.73834 222.565076 508.651179 215.532861 508.651179 208.201354 
C 508.651179 200.869847 505.73834 193.837632 500.554182 188.653473 
C 495.370023 183.469315 488.337808 180.556476 481.006301 180.556476 
C 473.674794 180.556476 466.642579 183.469315 461.45842 188.653473 
C 456.274262 193.837632 453.361423 200.869847 453.361423 208.201354 
C 453.361423 215.532861 456.274262 222.565076 461.45842 227.749235 
C 466.642579 232.933393 473.674794 235.846232 481.006301 235.846232 
z
" clip-path="url(#pbcbdbe977a)" style="fill: #4daf4a; stroke: #ffffff; stroke-width: 2.8; stroke-linejoin: miter"/>
   </g>
   <g id="text_1">
    <!-- 10 papers, color by year -->
    <g transform="translate(256.648561 46.795703) scale(0.125 -0.125)">
     <defs>
      <path id="DejaVuSans-31" d="M 794 531 
L 1825 531 
L 1825 4091 
L 703 3866 
L 703 4441 
L 1819 4666 
L 2450 4666 
L 2450 531 
L 3481 531 
L 3481 0 
L 794 0 
L 794 531 
z
" transform="scale(0.015625)"/>
      <path id="DejaVuSans-30" d="M 2034 4250 
Q 1547 4250 1301 3770 
Q 1056 3291 1056 2328 
Q 1056 1369 1301 889 
Q 1547 409 2034 409 
Q 2525 409 2770 889 
Q 3016 1369 3016 2328 
Q 3016 3291 2770 3770 
Q 2525 4250 2034 4250 
z
M 2034 4750 
Q 2819 4750 3233 4129 
Q 3647 3509 3647 2328 
Q 3647 1150 3233 529 
Q 2819 -91 2034 -91 
Q 1250 -91 836 529 
Q 422 1150 422 2328 
Q 422 3509 836 4129 
Q 1250 4750 2034 4750 
z
" transform="scale(0.015625)"/>
      <path id="DejaVuSans-20" transform="scale(0.015625)"/>
      <path id="DejaVuSans-70" d="M 1159 525 
L 1159 -1331 
L 581 -1331 
L 581 3500 
L 1159 3500 
L 1159 2969 
Q 1341 3281 1617 3432 
Q 1894 3584 2278 3584 
Q 2916 3584 3314 3078 
Q 3713 2572 3713 1747 
Q 3713 922 3314 415 
Q 2916 -91 2278 -91 
Q 1894 -91 1617 61 
Q 1341 213 1159 525 
z
M 3116 1747 
Q 3116 2381 2855 2742 
Q 2594 3103 2138 3103 
Q 1681 3103 1420 2742 
Q 1159 2381 1159 1747 
Q 1159 1113 1420 752 
Q 1681 391 2138 391 
Q 2594 391 2855 752 
Q 3116 1113 3116 1747 
z
" transform="scale(0.015625)"/>
      <path id="DejaVuSans-61" d="M 2194 1759 
Q 1497 1759 1228 1600 
Q 959 1441 959 1056 
Q 959 750 1161 570 
Q 1363 391 1709 391 
Q 2188 391 2477 730 
Q 2766 1069 2766 1631 
L 2766 1759 
L 2194 1759 
z
M 3341 1997 
L 3341 0 
L 2766 0 
L 2766 531 
Q 2569 213 2275 61 
Q 1981 -91 1556 -91 
Q 1019 -91 701 211 
Q 384 513 384 1019 
Q 384 1609 779 1909 
Q 1175 2209 1959 2209 
L 2766 2209 
L 2766 2266 
Q 2766 2663 2505 2880 
Q 2244 3097 1772 3097 
Q 1472 3097 1187 3025 
Q 903 2953 641 2809 
L 641 3341 
Q 956 3463 1253 3523 
Q 1550 3584 1831 3584 
Q 2591 3584 2966 3190 
Q 3341 2797 3341 1997 
z
" transform="scale(0.015625)"/>
      <path id="DejaVuSans-65" d="M 3597 1894 
L 3597 1613 
L 953 1613 
Q 991 1019 1311 708 
Q 1631 397 2203 397 
Q 2534 397 2845 478 
Q 3156 559 3463 722 
L 3463 178 
Q 3153 47 2828 -22 
Q 2503 -91 2169 -91 
Q 1331 -91 842 396 
Q 353 884 353 1716 
Q 353 2575 817 3079 
Q 1281 3584 2069 3584 
Q 2775 3584 3186 3129 
Q 3597 2675 3597 1894 
z
M 3022 2063 
Q 3016 2534 2758 2815 
Q 2500 3097 2075 3097 
Q 1594 3097 1305 2825 
Q 1016 2553 972 2059 
L 3022 2063 
z
" transform="scale(0.015625)"/>
      <path id="DejaVuSans-72" d="M 2631 2963 
Q 2534 3019 2420 3045 
Q 2306 3072 2169 3072 
Q 1681 3072 1420 2755 
Q 1159 2438 1159 1844 
L 1159 0 
L 581 0 
L 581 3500 
L 1159 3500 
L 1159 2956 
Q 1341 3275 1631 3429 
Q 1922 3584 2338 3584 
Q 2397 3584 2469 3576 
Q 2541 3569 2628 3553 
L 2631 2963 
z
" transform="scale(0.015625)"/>
      <path id="DejaVuSans-73" d="M 2834 3397 
L 2834 2853 
Q 2591 2978 2328 3040 
Q 2066 3103 1784 3103 
Q 1356 3103 1142 2972 
Q 928 2841 928 2578 
Q 928 2378 1081 2264 
Q 1234 2150 1697 2047 
L 1894 2003 
Q 2506 1872 2764 1633 
Q 3022 1394 3022 966 
Q 3022 478 2636 193 
Q 2250 -91 1575 -91 
Q 1294 -91 989 -36 
Q 684 19 347 128 
L 347 722 
Q 666 556 975 473 
Q 1284 391 1588 391 
Q 1994 391 2212 530 
Q 2431 669 2431 922 
Q 2431 1156 2273 1281 
Q 2116 1406 1581 1522 
L 1381 1569 
Q 847 1681 609 1914 
Q 372 2147 372 2553 
Q 372 3047 722 3315 
Q 1072 3584 1716 3584 
Q 2034 3584 2315 3537 
Q 2597 3491 2834 3397 
z
" transform="scale(0.015625)"/>
      <path id="DejaVuSans-2c" d="M 750 794 
L 1409 794 
L 1409 256 
L 897 -744 
L 494 -744 
L 750 256 
L 750 794 
z
" transform="scale(0.015625)"/>
      <path id="DejaVuSans-63" d="M 3122 3366 
L 3122 2828 
Q 2878 2963 2633 3030 
Q 2388 3097 2138 3097 
Q 1578 3097 1268 2742 
Q 959 2388 959 1747 
Q 959 1106 1268 751 
Q 1578 397 2138 397 
Q 2388 397 2633 464 
Q 2878 531 3122 666 
L 3122 134 
Q 2881 22 2623 -34 
Q 2366 -91 2075 -91 
Q 1284 -91 818 406 
Q 353 903 353 1747 
Q 353 2603 823 3093 
Q 1294 3584 2113 3584 
Q 2378 3584 2631 3529 
Q 2884 3475 3122 3366 
z
" transform="scale(0.015625)"/>
      <path id="DejaVuSans-6f" d="M 1959 3097 
Q 1497 3097 1228 2736 
Q 959 2375 959 1747 
Q 959 1119 1226 758 
Q 1494 397 1959 397 
Q 2419 397 2687 759 
Q 2956 1122 2956 1747 
Q 2956 2369 2687 2733 
Q 2419 3097 1959 3097 
z
M 1959 3584 
Q 2709 3584 3137 3096 
Q 3566 2609 3566 1747 
Q 3566 888 3137 398 
Q 2709 -91 1959 -91 
Q 1206 -91 779 398 
Q 353 888 353 1747 
Q 353 2609 779 3096 
Q 1206 3584 1959 3584 
z
" transform="scale(0.015625)"/>
      <path id="DejaVuSans-6c" d="M 603 4863 
L 1178 4863 
L 1178 0 
L 603 0 
L 603 4863 
z
" transform="scale(0.015625)"/>
      <path id="DejaVuSans-62" d="M 3116 1747 
Q 3116 2381 2855 2742 
Q 2594 3103 2138 3103 
Q 1681 3103 1420 2742 
Q 1159 2381 1159 1747 
Q 1159 1113 1420 752 
Q 1681 391 2138 391 
Q 2594 391 2855 752 
Q 3116 1113 3116 1747 
z
M 1159 2969 
Q 1341 3281 1617 3432 
Q 1894 3584 2278 3584 
Q 2916 3584 3314 3078 
Q 3713 2572 3713 1747 
Q 3713 922 3314 415 
Q 2916 -91 2278 -91 
Q 1894 -91 1617 61 
Q 1341 213 1159 525 
L 1159 0 
L 581 0 
L 581 4863 
L 1159 4863 
L 1159 2969 
z
" transform="scale(0.015625)"/>
      <path id="DejaVuSans-79" d="M 2059 -325 
Q 1816 -950 1584 -1140 
Q 1353 -1331 966 -1331 
L 506 -1331 
L 506 -850 
L 844 -850 
Q 1081 -850 1212 -737 
Q 1344 -625 1503 -206 
L 1606 56 
L 191 3500 
L 800 3500 
L 1894 763 
L 2988 3500 
L 3597 3500 
L 2059 -325 
z
" transform="scale(0.015625)"/>
     </defs>
     <use xlink:href="#DejaVuSans-31"/>
     <use xlink:href="#DejaVuSans-30" transform="translate(63.623047 0)"/>
     <use xlink:href="#DejaVuSans-20" transform="translate(127.246094 0)"/>
     <use xlink:href="#DejaVuSans-70" transform="translate(159.033203 0)"/>
     <use xlink:href="#DejaVuSans-61" transform="translate(222.509766 0)"/>
     <use xlink:href="#DejaVuSans-70" transform="translate(283.789062 0)"/>
     <use xlink:href="#DejaVuSans-65" transform="translate(347.265625 0)"/>
     <use xlink:href="#DejaVuSans-72" transform="translate(408.789062 0)"/>
     <use xlink:href="#DejaVuSans-73" transform="translate(449.902344 0)"/>
     <use xlink:href="#DejaVuSans-2c" transform="translate(502.001953 0)"/>
     <use xlink:href="#DejaVuSans-20" transform="translate(533.789062 0)"/>
     <use xlink:href="#DejaVuSans-63" transform="translate(565.576172 0)"/>
     <use xlink:href="#DejaVuSans-6f" transform="translate(620.556641 0)"/>
     <use xlink:href="#DejaVuSans-6c" transform="translate(681.738281 0)"/>
     <use xlink:href="#DejaVuSans-6f" transform="translate(709.521484 0)"/>
     <use xlink:href="#DejaVuSans-72" transform="translate(770.703125 0)"/>
     <use xlink:href="#DejaVuSans-20" transform="translate(811.816406 0)"/>
     <use xlink:href="#DejaVuSans-62" transform="translate(843.603516 0)"/>
     <use xlink:href="#DejaVuSans-79" transform="translate(907.080078 0)"/>
     <use xlink:href="#DejaVuSans-20" transform="translate(966.259766 0)"/>
     <use xlink:href="#DejaVuSans-79" transform="translate(998.046875 0)"/>
     <use xlink:href="#DejaVuSans-65" transform="translate(1057.226562 0)"/>
     <use xlink:href="#DejaVuSans-61" transform="translate(1118.75 0)"/>
     <use xlink:href="#DejaVuSans-72" transform="translate(1180.029297 0)"/>
    </g>
   </g>
   <g id="text_2">
    <!-- Citation Network -->
    <g transform="translate(213.477662 26.196094) scale(0.25 -0.25)">
     <defs>
      <path id="DejaVuSans-Bold-43" d="M 4288 256 
Q 3956 84 3597 -3 
Q 3238 -91 2847 -91 
Q 1681 -91 1000 561 
Q 319 1213 319 2328 
Q 319 3447 1000 4098 
Q 1681 4750 2847 4750 
Q 3238 4750 3597 4662 
Q 3956 4575 4288 4403 
L 4288 3438 
Q 3953 3666 3628 3772 
Q 3303 3878 2944 3878 
Q 2300 3878 1931 3465 
Q 1563 3053 1563 2328 
Q 1563 1606 1931 1193 
Q 2300 781 2944 781 
Q 3303 781 3628 887 
Q 3953 994 4288 1222 
L 4288 256 
z
" transform="scale(0.015625)"/>
      <path id="DejaVuSans-Bold-69" d="M 538 3500 
L 1656 3500 
L 1656 0 
L 538 0 
L 538 3500 
z
M 538 4863 
L 1656 4863 
L 1656 3950 
L 538 3950 
L 538 4863 
z
" transform="scale(0.015625)"/>
      <path id="DejaVuSans-Bold-74" d="M 1759 4494 
L 1759 3500 
L 2913 3500 
L 2913 2700 
L 1759 2700 
L 1759 1216 
Q 1759 972 1856 886 
Q 1953 800 2241 800 
L 2816 800 
L 2816 0 
L 1856 0 
Q 1194 0 917 276 
Q 641 553 641 1216 
L 641 2700 
L 84 2700 
L 84 3500 
L 641 3500 
L 641 4494 
L 1759 4494 
z
" transform="scale(0.015625)"/>
      <path id="DejaVuSans-Bold-61" d="M 2106 1575 
Q 1756 1575 1579 1456 
Q 1403 1338 1403 1106 
Q 1403 894 1545 773 
Q 1688 653 1941 653 
Q 2256 653 2472 879 
Q 2688 1106 2688 1447 
L 2688 1575 
L 2106 1575 
z
M 3816 1997 
L 3816 0 
L 2688 0 
L 2688 519 
Q 2463 200 2181 54 
Q 1900 -91 1497 -91 
Q 953 -91 614 226 
Q 275 544 275 1050 
Q 275 1666 698 1953 
Q 1122 2241 2028 2241 
L 2688 2241 
L 2688 2328 
Q 2688 2594 2478 2717 
Q 2269 2841 1825 2841 
Q 1466 2841 1156 2769 
Q 847 2697 581 2553 
L 581 3406 
Q 941 3494 1303 3539 
Q 1666 3584 2028 3584 
Q 2975 3584 3395 3211 
Q 3816 2838 3816 1997 
z
" transform="scale(0.015625)"/>
      <path id="DejaVuSans-Bold-6f" d="M 2203 2784 
Q 1831 2784 1636 2517 
Q 1441 2250 1441 1747 
Q 1441 1244 1636 976 
Q 1831 709 2203 709 
Q 2569 709 2762 976 
Q 2956 1244 2956 1747 
Q 2956 2250 2762 2517 
Q 2569 2784 2203 2784 
z
M 2203 3584 
Q 3106 3584 3614 3096 
Q 4122 2609 4122 1747 
Q 4122 884 3614 396 
Q 3106 -91 2203 -91 
Q 1297 -91 786 396 
Q 275 884 275 1747 
Q 275 2609 786 3096 
Q 1297 3584 2203 3584 
z
" transform="scale(0.015625)"/>
      <path id="DejaVuSans-Bold-6e" d="M 4056 2131 
L 4056 0 
L 2931 0 
L 2931 347 
L 2931 1631 
Q 2931 2084 2911 2256 
Q 2891 2428 2841 2509 
Q 2775 2619 2662 2680 
Q 2550 2741 2406 2741 
Q 2056 2741 1856 2470 
Q 1656 2200 1656 1722 
L 1656 0 
L 538 0 
L 538 3500 
L 1656 3500 
L 1656 2988 
Q 1909 3294 2193 3439 
Q 2478 3584 2822 3584 
Q 3428 3584 3742 3212 
Q 4056 2841 4056 2131 
z
" transform="scale(0.015625)"/>
      <path id="DejaVuSans-Bold-20" transform="scale(0.015625)"/>
      <path id="DejaVuSans-Bold-4e" d="M 588 4666 
L 1931 4666 
L 3628 1466 
L 3628 4666 
L 4769 4666 
L 4769 0 
L 3425 0 
L 1728 3200 
L 1728 0 
L 588 0 
L 588 4666 
z
" transform="scale(0.015625)"/>
      <path id="DejaVuSans-Bold-65" d="M 4031 1759 
L 4031 1441 
L 1416 1441 
Q 1456 1047 1700 850 
Q 1944 653 2381 653 
Q 2734 653 3104 758 
Q 3475 863 3866 1075 
L 3866 213 
Q 3469 63 3072 -14 
Q 2675 -91 2278 -91 
Q 1328 -91 801 392 
Q 275 875 275 1747 
Q 275 2603 792 3093 
Q 1309 3584 2216 3584 
Q 3041 3584 3536 3087 
Q 4031 2591 4031 1759 
z
M 2881 2131 
Q 2881 2450 2695 2645 
Q 2509 2841 2209 2841 
Q 1884 2841 1681 2658 
Q 1478 2475 1428 2131 
L 2881 2131 
z
" transform="scale(0.015625)"/>
      <path id="DejaVuSans-Bold-77" d="M 225 3500 
L 1313 3500 
L 1900 1088 
L 2491 3500 
L 3425 3500 
L 4013 1113 
L 4603 3500 
L 5691 3500 
L 4769 0 
L 3547 0 
L 2956 2406 
L 2369 0 
L 1147 0 
L 225 3500 
z
" transform="scale(0.015625)"/>
      <path id="DejaVuSans-Bold-72" d="M 3138 2547 
Q 2991 2616 2845 2648 
Q 2700 2681 2553 2681 
Q 2122 2681 1889 2404 
Q 1656 2128 1656 1613 
L 1656 0 
L 538 0 
L 538 3500 
L 1656 3500 
L 1656 2925 
Q 1872 3269 2151 3426 
Q 2431 3584 2822 3584 
Q 2878 3584 2943 3579 
Q 3009 3575 3134 3559 
L 3138 2547 
z
" transform="scale(0.015625)"/>
      <path id="DejaVuSans-Bold-6b" d="M 538 4863 
L 1656 4863 
L 1656 2216 
L 2944 3500 
L 4244 3500 
L 2534 1894 
L 4378 0 
L 3022 0 
L 1656 1459 
L 1656 0 
L 538 0 
L 538 4863 
z
" transform="scale(0.015625)"/>
     </defs>
     <use xlink:href="#DejaVuSans-Bold-43"/>
     <use xlink:href="#DejaVuSans-Bold-69" transform="translate(73.388672 0)"/>
     <use xlink:href="#DejaVuSans-Bold-74" transform="translate(107.666016 0)"/>
     <use xlink:href="#DejaVuSans-Bold-61" transform="translate(155.46875 0)"/>
     <use xlink:href="#DejaVuSans-Bold-74" transform="translate(222.949219 0)"/>
     <use xlink:href="#DejaVuSans-Bold-69" transform="translate(270.751953 0)"/>
     <use xlink:href="#DejaVuSans-Bold-6f" transform="translate(305.029297 0)"/>
     <use xlink:href="#DejaVuSans-Bold-6e" transform="translate(373.730469 0)"/>
     <use xlink:href="#DejaVuSans-Bold-20" transform="translate(444.921875 0)"/>
     <use xlink:href="#DejaVuSans-Bold-4e" transform="translate(479.736328 0)"/>
     <use xlink:href="#DejaVuSans-Bold-65" transform="translate(563.427734 0)"/>
     <use xlink:href="#DejaVuSans-Bold-74" transform="translate(631.25 0)"/>
     <use xlink:href="#DejaVuSans-Bold-77" transform="translate(679.052734 0)"/>
     <use xlink:href="#DejaVuSans-Bold-6f" transform="translate(771.435547 0)"/>
     <use xlink:href="#DejaVuSans-Bold-72" transform="translate(840.136719 0)"/>
     <use xlink:href="#DejaVuSans-Bold-6b" transform="translate(889.453125 0)"/>
    </g>
   </g>
   <g id="patch_41">
    <path d="M 473.265735 308.270286 
C 476.344968 308.270286 479.298499 307.046893 481.475845 304.869547 
C 483.653192 302.6922 484.876584 299.73867 484.876584 296.659437 
C 484.876584 293.580204 483.653192 290.626673 481.475845 288.449327 
C 479.298499 286.27198 476.344968 285.048588 473.265735 285.048588 
C 470.186502 285.048588 467.232972 286.27198 465.055625 288.449327 
C 462.878279 290.626673 461.654886 293.580204 461.654886 296.659437 
C 461.654886 299.73867 462.878279 302.6922 465.055625 304.869547 
C 467.232972 307.046893 470.186502 308.270286 473.265735 308.270286 
z
" clip-path="url(#pbcbdbe977a)" style="fill: #ffffff; opacity: 0.22"/>
   </g>
   <g id="patch_42">
    <path d="M 233.740885 386.096627 
C 236.820118 386.096627 239.773649 384.873235 241.950995 382.695888 
C 244.128342 380.518542 245.351734 377.565011 245.351734 374.485778 
C 245.351734 371.406545 244.128342 368.453015 241.950995 366.275668 
C 239.773649 364.098322 236.820118 362.874929 233.740885 362.874929 
C 230.661652 362.874929 227.708122 364.098322 225.530775 366.275668 
C 223.353429 368.453015 222.130037 371.406545 222.130037 374.485778 
C 222.130037 377.565011 223.353429 380.518542 225.530775 382.695888 
C 227.708122 384.873235 230.661652 386.096627 233.740885 386.096627 
z
" clip-path="url(#pbcbdbe977a)" style="fill: #ffffff; opacity: 0.22"/>
   </g>
   <g id="patch_43">
    <path d="M 325.231237 415.823644 
C 328.31047 415.823644 331.264 414.600252 333.441347 412.422905 
C 335.618693 410.245559 336.842086 407.292029 336.842086 404.212795 
C 336.842086 401.133562 335.618693 398.180032 333.441347 396.002686 
C 331.264 393.825339 328.31047 392.601947 325.231237 392.601947 
C 322.152004 392.601947 319.198474 393.825339 317.021127 396.002686 
C 314.84378 398.180032 313.620388 401.133562 313.620388 404.212795 
C 313.620388 407.292029 314.84378 410.245559 317.021127 412.422905 
C 319.198474 414.600252 322.152004 415.823644 325.231237 415.823644 
z
" clip-path="url(#pbcbdbe977a)" style="fill: #ffffff; opacity: 0.22"/>
   </g>
   <g id="patch_44">
    <path d="M 177.196738 308.270286 
C 180.275972 308.270286 183.229502 307.046893 185.406848 304.869547 
C 187.584195 302.6922 188.807587 299.73867 188.807587 296.659437 
C 188.807587 293.580204 187.584195 290.626673 185.406848 288.449327 
C 183.229502 286.27198 180.275972 285.048588 177.196738 285.048588 
C 174.117505 285.048588 171.163975 286.27198 168.986629 288.449327 
C 166.809282 290.626673 165.58589 293.580204 165.58589 296.659437 
C 165.58589 299.73867 166.809282 302.6922 168.986629 304.869547 
C 171.163975 307.046893 174.117505 308.270286 177.196738 308.270286 
z
" clip-path="url(#pbcbdbe977a)" style="fill: #ffffff; opacity: 0.22"/>
   </g>
   <g id="patch_45">
    <path d="M 233.740885 134.245296 
C 236.820118 134.245296 239.773649 133.021903 241.950995 130.844557 
C 244.128342 128.66721 245.351734 125.71368 245.351734 122.634447 
C 245.351734 119.555214 244.128342 116.601683 241.950995 114.424337 
C 239.773649 112.24699 236.820118 111.023598 233.740885 111.023598 
C 230.661652 111.023598 227.708122 112.24699 225.530775 114.424337 
C 223.353429 116.601683 222.130037 119.555214 222.130037 122.634447 
C 222.130037 125.71368 223.353429 128.66721 225.530775 130.844557 
C 227.708122 133.021903 230.661652 134.245296 233.740885 134.245296 
z
" clip-path="url(#pbcbdbe977a)" style="fill: #ffffff; opacity: 0.22"/>
   </g>
   <g id="patch_46">
    <path d="M 416.721588 386.096627 
C 419.800821 386.096627 422.754352 384.873235 424.931698 382.695888 
C 427.109045 380.518542 428.332437 377.565011 428.332437 374.485778 
C 428.332437 371.406545 427.109045 368.453015 424.931698 366.275668 
C 422.754352 364.098322 419.800821 362.874929 416.721588 362.874929 
C 413.642355 362.874929 410.688825 364.098322 408.511478 366.275668 
C 406.334132 368.453015 405.11074 371.406545 405.11074 374.485778 
C 405.11074 377.565011 406.334132 380.518542 408.511478 382.695888 
C 410.688825 384.873235 413.642355 386.096627 416.721588 386.096627 
z
" clip-path="url(#pbcbdbe977a)" style="fill: #ffffff; opacity: 0.22"/>
   </g>
   <g id="patch_47">
    <path d="M 325.231237 104.518278 
C 328.31047 104.518278 331.264 103.294886 333.441347 101.117539 
C 335.618693 98.940193 336.842086 95.986663 336.842086 92.90743 
C 336.842086 89.828196 335.618693 86.874666 333.441347 84.69732 
C 331.264 82.519973 328.31047 81.296581 325.231237 81.296581 
C 322.152004 81.296581 319.198474 82.519973 317.021127 84.69732 
C 314.84378 86.874666 313.620388 89.828196 313.620388 92.90743 
C 313.620388 95.986663 314.84378 98.940193 317.021127 101.117539 
C 319.198474 103.294886 322.152004 104.518278 325.231237 104.518278 
z
" clip-path="url(#pbcbdbe977a)" style="fill: #ffffff; opacity: 0.22"/>
   </g>
   <g id="patch_48">
    <path d="M 416.721588 134.245296 
C 419.800821 134.245296 422.754352 133.021903 424.931698 130.844557 
C 427.109045 128.66721 428.332437 125.71368 428.332437 122.634447 
C 428.332437 119.555214 427.109045 116.601683 424.931698 114.424337 
C 422.754352 112.24699 419.800821 111.023598 416.721588 111.023598 
C 413.642355 111.023598 410.688825 112.24699 408.511478 114.424337 
C 406.334132 116.601683 405.11074 119.555214 405.11074 122.634447 
C 405.11074 125.71368 406.334132 128.66721 408.511478 130.844557 
C 410.688825 133.021903 413.642355 134.245296 416.721588 134.245296 
z
" clip-path="url(#pbcbdbe977a)" style="fill: #ffffff; opacity: 0.22"/>
   </g>
   <g id="patch_49">
    <path d="M 177.196738 212.071637 
C 180.275972 212.071637 183.229502 210.848245 185.406848 208.670898 
C 187.584195 206.493552 188.807587 203.540021 188.807587 200.460788 
C 188.807587 197.381555 187.584195 194.428025 185.406848 192.250678 
C 183.229502 190.073332 180.275972 188.849939 177.196738 188.849939 
C 174.117505 188.849939 171.163975 190.073332 168.986629 192.250678 
C 166.809282 194.428025 165.58589 197.381555 165.58589 200.460788 
C 165.58589 203.540021 166.809282 206.493552 168.986629 208.670898 
C 171.163975 210.848245 174.117505 212.071637 177.196738 212.071637 
z
" clip-path="url(#pbcbdbe977a)" style="fill: #ffffff; opacity: 0.22"/>
   </g>
   <g id="patch_50">
    <path d="M 473.265735 212.071637 
C 476.344968 212.071637 479.298499 210.848245 481.475845 208.670898 
C 483.653192 206.493552 484.876584 203.540021 484.876584 200.460788 
C 484.876584 197.381555 483.653192 194.428025 481.475845 192.250678 
C 479.298499 190.073332 476.344968 188.849939 473.265735 188.849939 
C 470.186502 188.849939 467.232972 190.073332 465.055625 192.250678 
C 462.878279 194.428025 461.654886 197.381555 461.654886 200.460788 
C 461.654886 203.540021 462.878279 206.493552 465.055625 208.670898 
C 467.232972 210.848245 470.186502 212.071637 473.265735 212.071637 
z
" clip-path="url(#pbcbdbe977a)" style="fill: #ffffff; opacity: 0.22"/>
   </g>
   <g id="patch_51">
    <path d="M 258.553602 358.728544 
L 271.649123 352.624072 
L 272.829536 360.954515 
z
" clip-path="url(#pbcbdbe977a)" style="fill: #999999; opacity: 0.45"/>
   </g>
   <g id="patch_52">
    <path d="M 261.657719 151.268149 
L 274.45463 157.976077 
L 268.547969 163.967822 
z
" clip-path="url(#pbcbdbe977a)" style="fill: #999999; opacity: 0.45"/>
   </g>
   <g id="patch_53">
    <path d="M 337.014068 129.410211 
L 346.279174 140.496917 
L 338.531943 143.778693 
z
" clip-path="url(#pbcbdbe977a)" style="fill: #999999; opacity: 0.45"/>
   </g>
   <g id="patch_54">
    <path d="M 452.120534 301.363986 
L 439.861533 309.010823 
L 437.680046 300.884892 
z
" clip-path="url(#pbcbdbe977a)" style="fill: #999999; opacity: 0.45"/>
   </g>
   <g id="patch_55">
    <path d="M 261.657719 361.333207 
L 275.47673 365.551282 
L 270.783853 372.534587 
z
" clip-path="url(#pbcbdbe977a)" style="fill: #999999; opacity: 0.45"/>
   </g>
   <g id="patch_56">
    <path d="M 258.553602 153.872813 
L 268.243016 164.590671 
L 260.629326 168.171365 
z
" clip-path="url(#pbcbdbe977a)" style="fill: #999999; opacity: 0.45"/>
   </g>
   <g id="patch_57">
    <path d="M 255.117195 356.581239 
L 249.263545 343.371697 
L 257.614981 342.350347 
z
" clip-path="url(#pbcbdbe977a)" style="fill: #999999; opacity: 0.45"/>
   </g>
   <g id="patch_58">
    <path d="M 211.042668 220.933791 
L 211.818688 235.361369 
L 203.649604 233.347486 
z
" clip-path="url(#pbcbdbe977a)" style="fill: #999999; opacity: 0.45"/>
   </g>
   <g id="patch_59">
    <path d="M 340.977656 384.033633 
L 354.462306 378.845044 
L 355.06651 387.23698 
z
" clip-path="url(#pbcbdbe977a)" style="fill: #999999; opacity: 0.45"/>
   </g>
   <g id="patch_60">
    <path d="M 451.979116 305.413654 
L 440.549181 314.251856 
L 437.563424 306.385796 
z
" clip-path="url(#pbcbdbe977a)" style="fill: #999999; opacity: 0.45"/>
   </g>
   <g id="patch_61">
    <path d="M 332.971803 129.692873 
L 342.425299 140.619384 
L 334.73537 144.033273 
z
" clip-path="url(#pbcbdbe977a)" style="fill: #999999; opacity: 0.45"/>
   </g>
   <g id="patch_62">
    <path d="M 458.118625 286.51819 
L 452.164094 273.353814 
L 460.507473 272.268606 
z
" clip-path="url(#pbcbdbe977a)" style="fill: #999999; opacity: 0.45"/>
   </g>
   <g id="patch_63">
    <path d="M 212.560625 295.424642 
L 222.644399 285.076949 
L 226.699324 292.449006 
z
" clip-path="url(#pbcbdbe977a)" style="fill: #999999; opacity: 0.45"/>
   </g>
   <g id="patch_64">
    <path d="M 255.117195 156.020118 
L 247.264691 168.148407 
L 241.839494 161.717475 
z
" clip-path="url(#pbcbdbe977a)" style="fill: #999999; opacity: 0.45"/>
   </g>
   <g id="patch_65">
    <path d="M 328.929537 129.410211 
L 317.990318 138.848999 
L 314.586778 131.154484 
z
" clip-path="url(#pbcbdbe977a)" style="fill: #999999; opacity: 0.45"/>
   </g>
   <g id="patch_66">
    <path d="M 332.971803 382.908483 
L 334.490446 368.540082 
L 342.237501 371.822273 
z
" clip-path="url(#pbcbdbe977a)" style="fill: #999999; opacity: 0.45"/>
   </g>
   <g id="patch_67">
    <path d="M 409.070714 357.594891 
L 404.494354 343.89036 
L 412.904981 343.664505 
z
" clip-path="url(#pbcbdbe977a)" style="fill: #999999; opacity: 0.45"/>
   </g>
   <g id="patch_68">
    <path d="M 410.82641 156.020118 
L 416.680061 169.22966 
L 408.328624 170.25101 
z
" clip-path="url(#pbcbdbe977a)" style="fill: #999999; opacity: 0.45"/>
   </g>
   <g id="text_3">
    <!-- Deep Learning for Genomics -->
    <g transform="translate(511.870637 316.876714) scale(0.09 -0.09)">
     <defs>
      <path id="DejaVuSans-Bold-44" d="M 1791 3756 
L 1791 909 
L 2222 909 
Q 2959 909 3348 1275 
Q 3738 1641 3738 2338 
Q 3738 3031 3350 3393 
Q 2963 3756 2222 3756 
L 1791 3756 
z
M 588 4666 
L 1856 4666 
Q 2919 4666 3439 4514 
Q 3959 4363 4331 4000 
Q 4659 3684 4818 3271 
Q 4978 2859 4978 2338 
Q 4978 1809 4818 1395 
Q 4659 981 4331 666 
Q 3956 303 3431 151 
Q 2906 0 1856 0 
L 588 0 
L 588 4666 
z
" transform="scale(0.015625)"/>
      <path id="DejaVuSans-Bold-70" d="M 1656 506 
L 1656 -1331 
L 538 -1331 
L 538 3500 
L 1656 3500 
L 1656 2988 
Q 1888 3294 2169 3439 
Q 2450 3584 2816 3584 
Q 3463 3584 3878 3070 
Q 4294 2556 4294 1747 
Q 4294 938 3878 423 
Q 3463 -91 2816 -91 
Q 2450 -91 2169 54 
Q 1888 200 1656 506 
z
M 2400 2772 
Q 2041 2772 1848 2508 
Q 1656 2244 1656 1747 
Q 1656 1250 1848 986 
Q 2041 722 2400 722 
Q 2759 722 2948 984 
Q 3138 1247 3138 1747 
Q 3138 2247 2948 2509 
Q 2759 2772 2400 2772 
z
" transform="scale(0.015625)"/>
      <path id="DejaVuSans-Bold-4c" d="M 588 4666 
L 1791 4666 
L 1791 909 
L 3903 909 
L 3903 0 
L 588 0 
L 588 4666 
z
" transform="scale(0.015625)"/>
      <path id="DejaVuSans-Bold-67" d="M 2919 594 
Q 2688 288 2409 144 
Q 2131 0 1766 0 
Q 1125 0 706 504 
Q 288 1009 288 1791 
Q 288 2575 706 3076 
Q 1125 3578 1766 3578 
Q 2131 3578 2409 3434 
Q 2688 3291 2919 2981 
L 2919 3500 
L 4044 3500 
L 4044 353 
Q 4044 -491 3511 -936 
Q 2978 -1381 1966 -1381 
Q 1638 -1381 1331 -1331 
Q 1025 -1281 716 -1178 
L 716 -306 
Q 1009 -475 1290 -558 
Q 1572 -641 1856 -641 
Q 2406 -641 2662 -400 
Q 2919 -159 2919 353 
L 2919 594 
z
M 2181 2772 
Q 1834 2772 1640 2515 
Q 1447 2259 1447 1791 
Q 1447 1309 1634 1061 
Q 1822 813 2181 813 
Q 2531 813 2725 1069 
Q 2919 1325 2919 1791 
Q 2919 2259 2725 2515 
Q 2531 2772 2181 2772 
z
" transform="scale(0.015625)"/>
      <path id="DejaVuSans-Bold-66" d="M 2841 4863 
L 2841 4128 
L 2222 4128 
Q 1984 4128 1890 4042 
Q 1797 3956 1797 3744 
L 1797 3500 
L 2753 3500 
L 2753 2700 
L 1797 2700 
L 1797 0 
L 678 0 
L 678 2700 
L 122 2700 
L 122 3500 
L 678 3500 
L 678 3744 
Q 678 4316 997 4589 
Q 1316 4863 1984 4863 
L 2841 4863 
z
" transform="scale(0.015625)"/>
      <path id="DejaVuSans-Bold-47" d="M 4781 347 
Q 4331 128 3847 18 
Q 3363 -91 2847 -91 
Q 1681 -91 1000 561 
Q 319 1213 319 2328 
Q 319 3456 1012 4103 
Q 1706 4750 2913 4750 
Q 3378 4750 3804 4662 
Q 4231 4575 4609 4403 
L 4609 3438 
Q 4219 3659 3833 3768 
Q 3447 3878 3059 3878 
Q 2341 3878 1952 3476 
Q 1563 3075 1563 2328 
Q 1563 1588 1938 1184 
Q 2313 781 3003 781 
Q 3191 781 3352 804 
Q 3513 828 3641 878 
L 3641 1784 
L 2906 1784 
L 2906 2591 
L 4781 2591 
L 4781 347 
z
" transform="scale(0.015625)"/>
      <path id="DejaVuSans-Bold-6d" d="M 3781 2919 
Q 3994 3244 4286 3414 
Q 4578 3584 4928 3584 
Q 5531 3584 5847 3212 
Q 6163 2841 6163 2131 
L 6163 0 
L 5038 0 
L 5038 1825 
Q 5041 1866 5042 1909 
Q 5044 1953 5044 2034 
Q 5044 2406 4934 2573 
Q 4825 2741 4581 2741 
Q 4263 2741 4089 2478 
Q 3916 2216 3909 1719 
L 3909 0 
L 2784 0 
L 2784 1825 
Q 2784 2406 2684 2573 
Q 2584 2741 2328 2741 
Q 2006 2741 1831 2477 
Q 1656 2213 1656 1722 
L 1656 0 
L 531 0 
L 531 3500 
L 1656 3500 
L 1656 2988 
Q 1863 3284 2130 3434 
Q 2397 3584 2719 3584 
Q 3081 3584 3359 3409 
Q 3638 3234 3781 2919 
z
" transform="scale(0.015625)"/>
      <path id="DejaVuSans-Bold-63" d="M 3366 3391 
L 3366 2478 
Q 3138 2634 2908 2709 
Q 2678 2784 2431 2784 
Q 1963 2784 1702 2511 
Q 1441 2238 1441 1747 
Q 1441 1256 1702 982 
Q 1963 709 2431 709 
Q 2694 709 2930 787 
Q 3166 866 3366 1019 
L 3366 103 
Q 3103 6 2833 -42 
Q 2563 -91 2291 -91 
Q 1344 -91 809 395 
Q 275 881 275 1747 
Q 275 2613 809 3098 
Q 1344 3584 2291 3584 
Q 2566 3584 2833 3536 
Q 3100 3488 3366 3391 
z
" transform="scale(0.015625)"/>
      <path id="DejaVuSans-Bold-73" d="M 3272 3391 
L 3272 2541 
Q 2913 2691 2578 2766 
Q 2244 2841 1947 2841 
Q 1628 2841 1473 2761 
Q 1319 2681 1319 2516 
Q 1319 2381 1436 2309 
Q 1553 2238 1856 2203 
L 2053 2175 
Q 2913 2066 3209 1816 
Q 3506 1566 3506 1031 
Q 3506 472 3093 190 
Q 2681 -91 1863 -91 
Q 1516 -91 1145 -36 
Q 775 19 384 128 
L 384 978 
Q 719 816 1070 734 
Q 1422 653 1784 653 
Q 2113 653 2278 743 
Q 2444 834 2444 1013 
Q 2444 1163 2330 1236 
Q 2216 1309 1875 1350 
L 1678 1375 
Q 931 1469 631 1722 
Q 331 1975 331 2491 
Q 331 3047 712 3315 
Q 1094 3584 1881 3584 
Q 2191 3584 2531 3537 
Q 2872 3491 3272 3391 
z
" transform="scale(0.015625)"/>
     </defs>
     <use xlink:href="#DejaVuSans-Bold-44"/>
     <use xlink:href="#DejaVuSans-Bold-65" transform="translate(83.007812 0)"/>
     <use xlink:href="#DejaVuSans-Bold-65" transform="translate(150.830078 0)"/>
     <use xlink:href="#DejaVuSans-Bold-70" transform="translate(218.652344 0)"/>
     <use xlink:href="#DejaVuSans-Bold-20" transform="translate(290.234375 0)"/>
     <use xlink:href="#DejaVuSans-Bold-4c" transform="translate(325.048828 0)"/>
     <use xlink:href="#DejaVuSans-Bold-65" transform="translate(388.769531 0)"/>
     <use xlink:href="#DejaVuSans-Bold-61" transform="translate(456.591797 0)"/>
     <use xlink:href="#DejaVuSans-Bold-72" transform="translate(524.072266 0)"/>
     <use xlink:href="#DejaVuSans-Bold-6e" transform="translate(573.388672 0)"/>
     <use xlink:href="#DejaVuSans-Bold-69" transform="translate(644.580078 0)"/>
     <use xlink:href="#DejaVuSans-Bold-6e" transform="translate(678.857422 0)"/>
     <use xlink:href="#DejaVuSans-Bold-67" transform="translate(750.048828 0)"/>
     <use xlink:href="#DejaVuSans-Bold-20" transform="translate(821.630859 0)"/>
     <use xlink:href="#DejaVuSans-Bold-66" transform="translate(856.445312 0)"/>
     <use xlink:href="#DejaVuSans-Bold-6f" transform="translate(899.951172 0)"/>
     <use xlink:href="#DejaVuSans-Bold-72" transform="translate(968.652344 0)"/>
     <use xlink:href="#DejaVuSans-Bold-20" transform="translate(1017.96875 0)"/>
     <use xlink:href="#DejaVuSans-Bold-47" transform="translate(1052.783203 0)"/>
     <use xlink:href="#DejaVuSans-Bold-65" transform="translate(1134.863281 0)"/>
     <use xlink:href="#DejaVuSans-Bold-6e" transform="translate(1202.685547 0)"/>
     <use xlink:href="#DejaVuSans-Bold-6f" transform="translate(1273.876953 0)"/>
     <use xlink:href="#DejaVuSans-Bold-6d" transform="translate(1342.578125 0)"/>
     <use xlink:href="#DejaVuSans-Bold-69" transform="translate(1446.777344 0)"/>
     <use xlink:href="#DejaVuSans-Bold-63" transform="translate(1481.054688 0)"/>
     <use xlink:href="#DejaVuSans-Bold-73" transform="translate(1540.332031 0)"/>
    </g>
   </g>
   <g id="text_4">
    <!-- Neural Networks in Biology -->
    <g transform="translate(83.952493 415.31971) scale(0.09 -0.09)">
     <defs>
      <path id="DejaVuSans-Bold-75" d="M 500 1363 
L 500 3500 
L 1625 3500 
L 1625 3150 
Q 1625 2866 1622 2436 
Q 1619 2006 1619 1863 
Q 1619 1441 1641 1255 
Q 1663 1069 1716 984 
Q 1784 875 1895 815 
Q 2006 756 2150 756 
Q 2500 756 2700 1025 
Q 2900 1294 2900 1772 
L 2900 3500 
L 4019 3500 
L 4019 0 
L 2900 0 
L 2900 506 
Q 2647 200 2364 54 
Q 2081 -91 1741 -91 
Q 1134 -91 817 281 
Q 500 653 500 1363 
z
" transform="scale(0.015625)"/>
      <path id="DejaVuSans-Bold-6c" d="M 538 4863 
L 1656 4863 
L 1656 0 
L 538 0 
L 538 4863 
z
" transform="scale(0.015625)"/>
      <path id="DejaVuSans-Bold-42" d="M 2456 2859 
Q 2741 2859 2887 2984 
Q 3034 3109 3034 3353 
Q 3034 3594 2887 3720 
Q 2741 3847 2456 3847 
L 1791 3847 
L 1791 2859 
L 2456 2859 
z
M 2497 819 
Q 2859 819 3042 972 
Q 3225 1125 3225 1434 
Q 3225 1738 3044 1889 
Q 2863 2041 2497 2041 
L 1791 2041 
L 1791 819 
L 2497 819 
z
M 3616 2497 
Q 4003 2384 4215 2081 
Q 4428 1778 4428 1338 
Q 4428 663 3972 331 
Q 3516 0 2584 0 
L 588 0 
L 588 4666 
L 2394 4666 
Q 3366 4666 3802 4372 
Q 4238 4078 4238 3431 
Q 4238 3091 4078 2852 
Q 3919 2613 3616 2497 
z
" transform="scale(0.015625)"/>
      <path id="DejaVuSans-Bold-79" d="M 78 3500 
L 1197 3500 
L 2138 1125 
L 2938 3500 
L 4056 3500 
L 2584 -331 
Q 2363 -916 2067 -1148 
Q 1772 -1381 1288 -1381 
L 641 -1381 
L 641 -647 
L 991 -647 
Q 1275 -647 1404 -556 
Q 1534 -466 1606 -231 
L 1638 -134 
L 78 3500 
z
" transform="scale(0.015625)"/>
     </defs>
     <use xlink:href="#DejaVuSans-Bold-4e"/>
     <use xlink:href="#DejaVuSans-Bold-65" transform="translate(83.691406 0)"/>
     <use xlink:href="#DejaVuSans-Bold-75" transform="translate(151.513672 0)"/>
     <use xlink:href="#DejaVuSans-Bold-72" transform="translate(222.705078 0)"/>
     <use xlink:href="#DejaVuSans-Bold-61" transform="translate(272.021484 0)"/>
     <use xlink:href="#DejaVuSans-Bold-6c" transform="translate(339.501953 0)"/>
     <use xlink:href="#DejaVuSans-Bold-20" transform="translate(373.779297 0)"/>
     <use xlink:href="#DejaVuSans-Bold-4e" transform="translate(408.59375 0)"/>
     <use xlink:href="#DejaVuSans-Bold-65" transform="translate(492.285156 0)"/>
     <use xlink:href="#DejaVuSans-Bold-74" transform="translate(560.107422 0)"/>
     <use xlink:href="#DejaVuSans-Bold-77" transform="translate(607.910156 0)"/>
     <use xlink:href="#DejaVuSans-Bold-6f" transform="translate(700.292969 0)"/>
     <use xlink:href="#DejaVuSans-Bold-72" transform="translate(768.994141 0)"/>
     <use xlink:href="#DejaVuSans-Bold-6b" transform="translate(818.310547 0)"/>
     <use xlink:href="#DejaVuSans-Bold-73" transform="translate(884.814453 0)"/>
     <use xlink:href="#DejaVuSans-Bold-20" transform="translate(944.335938 0)"/>
     <use xlink:href="#DejaVuSans-Bold-69" transform="translate(979.150391 0)"/>
     <use xlink:href="#DejaVuSans-Bold-6e" transform="translate(1013.427734 0)"/>
     <use xlink:href="#DejaVuSans-Bold-20" transform="translate(1084.619141 0)"/>
     <use xlink:href="#DejaVuSans-Bold-42" transform="translate(1119.433594 0)"/>
     <use xlink:href="#DejaVuSans-Bold-69" transform="translate(1195.654297 0)"/>
     <use xlink:href="#DejaVuSans-Bold-6f" transform="translate(1229.931641 0)"/>
     <use xlink:href="#DejaVuSans-Bold-6c" transform="translate(1298.632812 0)"/>
     <use xlink:href="#DejaVuSans-Bold-6f" transform="translate(1332.910156 0)"/>
     <use xlink:href="#DejaVuSans-Bold-67" transform="translate(1401.611328 0)"/>
     <use xlink:href="#DejaVuSans-Bold-79" transform="translate(1473.193359 0)"/>
    </g>
   </g>
   <g id="text_5">
    <!-- Transformer Models for Proteins -->
    <g transform="translate(250.762428 451.244638) scale(0.09 -0.09)">
     <defs>
      <path id="DejaVuSans-Bold-54" d="M 31 4666 
L 4331 4666 
L 4331 3756 
L 2784 3756 
L 2784 0 
L 1581 0 
L 1581 3756 
L 31 3756 
L 31 4666 
z
" transform="scale(0.015625)"/>
      <path id="DejaVuSans-Bold-4d" d="M 588 4666 
L 2119 4666 
L 3181 2169 
L 4250 4666 
L 5778 4666 
L 5778 0 
L 4641 0 
L 4641 3413 
L 3566 897 
L 2803 897 
L 1728 3413 
L 1728 0 
L 588 0 
L 588 4666 
z
" transform="scale(0.015625)"/>
      <path id="DejaVuSans-Bold-64" d="M 2919 2988 
L 2919 4863 
L 4044 4863 
L 4044 0 
L 2919 0 
L 2919 506 
Q 2688 197 2409 53 
Q 2131 -91 1766 -91 
Q 1119 -91 703 423 
Q 288 938 288 1747 
Q 288 2556 703 3070 
Q 1119 3584 1766 3584 
Q 2128 3584 2408 3439 
Q 2688 3294 2919 2988 
z
M 2181 722 
Q 2541 722 2730 984 
Q 2919 1247 2919 1747 
Q 2919 2247 2730 2509 
Q 2541 2772 2181 2772 
Q 1825 2772 1636 2509 
Q 1447 2247 1447 1747 
Q 1447 1247 1636 984 
Q 1825 722 2181 722 
z
" transform="scale(0.015625)"/>
      <path id="DejaVuSans-Bold-50" d="M 588 4666 
L 2584 4666 
Q 3475 4666 3951 4270 
Q 4428 3875 4428 3144 
Q 4428 2409 3951 2014 
Q 3475 1619 2584 1619 
L 1791 1619 
L 1791 0 
L 588 0 
L 588 4666 
z
M 1791 3794 
L 1791 2491 
L 2456 2491 
Q 2806 2491 2997 2661 
Q 3188 2831 3188 3144 
Q 3188 3456 2997 3625 
Q 2806 3794 2456 3794 
L 1791 3794 
z
" transform="scale(0.015625)"/>
     </defs>
     <use xlink:href="#DejaVuSans-Bold-54"/>
     <use xlink:href="#DejaVuSans-Bold-72" transform="translate(57.212891 0)"/>
     <use xlink:href="#DejaVuSans-Bold-61" transform="translate(106.529297 0)"/>
     <use xlink:href="#DejaVuSans-Bold-6e" transform="translate(174.009766 0)"/>
     <use xlink:href="#DejaVuSans-Bold-73" transform="translate(245.201172 0)"/>
     <use xlink:href="#DejaVuSans-Bold-66" transform="translate(304.722656 0)"/>
     <use xlink:href="#DejaVuSans-Bold-6f" transform="translate(348.228516 0)"/>
     <use xlink:href="#DejaVuSans-Bold-72" transform="translate(416.929688 0)"/>
     <use xlink:href="#DejaVuSans-Bold-6d" transform="translate(466.246094 0)"/>
     <use xlink:href="#DejaVuSans-Bold-65" transform="translate(570.445312 0)"/>
     <use xlink:href="#DejaVuSans-Bold-72" transform="translate(638.267578 0)"/>
     <use xlink:href="#DejaVuSans-Bold-20" transform="translate(687.583984 0)"/>
     <use xlink:href="#DejaVuSans-Bold-4d" transform="translate(722.398438 0)"/>
     <use xlink:href="#DejaVuSans-Bold-6f" transform="translate(821.910156 0)"/>
     <use xlink:href="#DejaVuSans-Bold-64" transform="translate(890.611328 0)"/>
     <use xlink:href="#DejaVuSans-Bold-65" transform="translate(962.193359 0)"/>
     <use xlink:href="#DejaVuSans-Bold-6c" transform="translate(1030.015625 0)"/>
     <use xlink:href="#DejaVuSans-Bold-73" transform="translate(1064.292969 0)"/>
     <use xlink:href="#DejaVuSans-Bold-20" transform="translate(1123.814453 0)"/>
     <use xlink:href="#DejaVuSans-Bold-66" transform="translate(1158.628906 0)"/>
     <use xlink:href="#DejaVuSans-Bold-6f" transform="translate(1202.134766 0)"/>
     <use xlink:href="#DejaVuSans-Bold-72" transform="translate(1270.835938 0)"/>
     <use xlink:href="#DejaVuSans-Bold-20" transform="translate(1320.152344 0)"/>
     <use xlink:href="#DejaVuSans-Bold-50" transform="translate(1354.966797 0)"/>
     <use xlink:href="#DejaVuSans-Bold-72" transform="translate(1428.257812 0)"/>
     <use xlink:href="#DejaVuSans-Bold-6f" transform="translate(1477.574219 0)"/>
     <use xlink:href="#DejaVuSans-Bold-74" transform="translate(1546.275391 0)"/>
     <use xlink:href="#DejaVuSans-Bold-65" transform="translate(1594.078125 0)"/>
     <use xlink:href="#DejaVuSans-Bold-69" transform="translate(1661.900391 0)"/>
     <use xlink:href="#DejaVuSans-Bold-6e" transform="translate(1696.177734 0)"/>
     <use xlink:href="#DejaVuSans-Bold-73" transform="translate(1767.369141 0)"/>
    </g>
   </g>
   <g id="text_6">
    <!-- Single-Cell RNA-Seq Analysis -->
    <g transform="translate(7.2 316.876714) scale(0.09 -0.09)">
     <defs>
      <path id="DejaVuSans-Bold-53" d="M 3834 4519 
L 3834 3531 
Q 3450 3703 3084 3790 
Q 2719 3878 2394 3878 
Q 1963 3878 1756 3759 
Q 1550 3641 1550 3391 
Q 1550 3203 1689 3098 
Q 1828 2994 2194 2919 
L 2706 2816 
Q 3484 2659 3812 2340 
Q 4141 2022 4141 1434 
Q 4141 663 3683 286 
Q 3225 -91 2284 -91 
Q 1841 -91 1394 -6 
Q 947 78 500 244 
L 500 1259 
Q 947 1022 1364 901 
Q 1781 781 2169 781 
Q 2563 781 2772 912 
Q 2981 1044 2981 1288 
Q 2981 1506 2839 1625 
Q 2697 1744 2272 1838 
L 1806 1941 
Q 1106 2091 782 2419 
Q 459 2747 459 3303 
Q 459 4000 909 4375 
Q 1359 4750 2203 4750 
Q 2588 4750 2994 4692 
Q 3400 4634 3834 4519 
z
" transform="scale(0.015625)"/>
      <path id="DejaVuSans-Bold-2d" d="M 347 2297 
L 2309 2297 
L 2309 1388 
L 347 1388 
L 347 2297 
z
" transform="scale(0.015625)"/>
      <path id="DejaVuSans-Bold-52" d="M 2297 2597 
Q 2675 2597 2839 2737 
Q 3003 2878 3003 3200 
Q 3003 3519 2839 3656 
Q 2675 3794 2297 3794 
L 1791 3794 
L 1791 2597 
L 2297 2597 
z
M 1791 1766 
L 1791 0 
L 588 0 
L 588 4666 
L 2425 4666 
Q 3347 4666 3776 4356 
Q 4206 4047 4206 3378 
Q 4206 2916 3982 2619 
Q 3759 2322 3309 2181 
Q 3556 2125 3751 1926 
Q 3947 1728 4147 1325 
L 4800 0 
L 3519 0 
L 2950 1159 
Q 2778 1509 2601 1637 
Q 2425 1766 2131 1766 
L 1791 1766 
z
" transform="scale(0.015625)"/>
      <path id="DejaVuSans-Bold-41" d="M 3419 850 
L 1538 850 
L 1241 0 
L 31 0 
L 1759 4666 
L 3194 4666 
L 4922 0 
L 3713 0 
L 3419 850 
z
M 1838 1716 
L 3116 1716 
L 2478 3572 
L 1838 1716 
z
" transform="scale(0.015625)"/>
      <path id="DejaVuSans-Bold-71" d="M 2181 2772 
Q 1825 2772 1636 2509 
Q 1447 2247 1447 1747 
Q 1447 1247 1636 984 
Q 1825 722 2181 722 
Q 2541 722 2730 984 
Q 2919 1247 2919 1747 
Q 2919 2247 2730 2509 
Q 2541 2772 2181 2772 
z
M 2919 506 
Q 2688 197 2409 53 
Q 2131 -91 1766 -91 
Q 1119 -91 703 423 
Q 288 938 288 1747 
Q 288 2556 703 3067 
Q 1119 3578 1766 3578 
Q 2131 3578 2409 3434 
Q 2688 3291 2919 2981 
L 2919 3500 
L 4044 3500 
L 4044 -1331 
L 2919 -1331 
L 2919 506 
z
" transform="scale(0.015625)"/>
     </defs>
     <use xlink:href="#DejaVuSans-Bold-53"/>
     <use xlink:href="#DejaVuSans-Bold-69" transform="translate(72.021484 0)"/>
     <use xlink:href="#DejaVuSans-Bold-6e" transform="translate(106.298828 0)"/>
     <use xlink:href="#DejaVuSans-Bold-67" transform="translate(177.490234 0)"/>
     <use xlink:href="#DejaVuSans-Bold-6c" transform="translate(249.072266 0)"/>
     <use xlink:href="#DejaVuSans-Bold-65" transform="translate(283.349609 0)"/>
     <use xlink:href="#DejaVuSans-Bold-2d" transform="translate(351.171875 0)"/>
     <use xlink:href="#DejaVuSans-Bold-43" transform="translate(392.675781 0)"/>
     <use xlink:href="#DejaVuSans-Bold-65" transform="translate(466.064453 0)"/>
     <use xlink:href="#DejaVuSans-Bold-6c" transform="translate(533.886719 0)"/>
     <use xlink:href="#DejaVuSans-Bold-6c" transform="translate(568.164062 0)"/>
     <use xlink:href="#DejaVuSans-Bold-20" transform="translate(602.441406 0)"/>
     <use xlink:href="#DejaVuSans-Bold-52" transform="translate(637.255859 0)"/>
     <use xlink:href="#DejaVuSans-Bold-4e" transform="translate(714.257812 0)"/>
     <use xlink:href="#DejaVuSans-Bold-41" transform="translate(797.949219 0)"/>
     <use xlink:href="#DejaVuSans-Bold-2d" transform="translate(875.341797 0)"/>
     <use xlink:href="#DejaVuSans-Bold-53" transform="translate(916.845703 0)"/>
     <use xlink:href="#DejaVuSans-Bold-65" transform="translate(988.867188 0)"/>
     <use xlink:href="#DejaVuSans-Bold-71" transform="translate(1056.689453 0)"/>
     <use xlink:href="#DejaVuSans-Bold-20" transform="translate(1128.271484 0)"/>
     <use xlink:href="#DejaVuSans-Bold-41" transform="translate(1163.085938 0)"/>
     <use xlink:href="#DejaVuSans-Bold-6e" transform="translate(1240.478516 0)"/>
     <use xlink:href="#DejaVuSans-Bold-61" transform="translate(1311.669922 0)"/>
     <use xlink:href="#DejaVuSans-Bold-6c" transform="translate(1379.150391 0)"/>
     <use xlink:href="#DejaVuSans-Bold-79" transform="translate(1413.427734 0)"/>
     <use xlink:href="#DejaVuSans-Bold-73" transform="translate(1478.613281 0)"/>
     <use xlink:href="#DejaVuSans-Bold-69" transform="translate(1538.134766 0)"/>
     <use xlink:href="#DejaVuSans-Bold-73" transform="translate(1572.412109 0)"/>
    </g>
   </g>
   <g id="text_7">
    <!-- Graph Neural Networks Survey -->
    <g transform="translate(65.238118 102.178209) scale(0.09 -0.09)">
     <defs>
      <path id="DejaVuSans-Bold-68" d="M 4056 2131 
L 4056 0 
L 2931 0 
L 2931 347 
L 2931 1625 
Q 2931 2084 2911 2256 
Q 2891 2428 2841 2509 
Q 2775 2619 2662 2680 
Q 2550 2741 2406 2741 
Q 2056 2741 1856 2470 
Q 1656 2200 1656 1722 
L 1656 0 
L 538 0 
L 538 4863 
L 1656 4863 
L 1656 2988 
Q 1909 3294 2193 3439 
Q 2478 3584 2822 3584 
Q 3428 3584 3742 3212 
Q 4056 2841 4056 2131 
z
" transform="scale(0.015625)"/>
      <path id="DejaVuSans-Bold-76" d="M 97 3500 
L 1216 3500 
L 2088 1081 
L 2956 3500 
L 4078 3500 
L 2700 0 
L 1472 0 
L 97 3500 
z
" transform="scale(0.015625)"/>
     </defs>
     <use xlink:href="#DejaVuSans-Bold-47"/>
     <use xlink:href="#DejaVuSans-Bold-72" transform="translate(82.080078 0)"/>
     <use xlink:href="#DejaVuSans-Bold-61" transform="translate(131.396484 0)"/>
     <use xlink:href="#DejaVuSans-Bold-70" transform="translate(198.876953 0)"/>
     <use xlink:href="#DejaVuSans-Bold-68" transform="translate(270.458984 0)"/>
     <use xlink:href="#DejaVuSans-Bold-20" transform="translate(341.650391 0)"/>
     <use xlink:href="#DejaVuSans-Bold-4e" transform="translate(376.464844 0)"/>
     <use xlink:href="#DejaVuSans-Bold-65" transform="translate(460.15625 0)"/>
     <use xlink:href="#DejaVuSans-Bold-75" transform="translate(527.978516 0)"/>
     <use xlink:href="#DejaVuSans-Bold-72" transform="translate(599.169922 0)"/>
     <use xlink:href="#DejaVuSans-Bold-61" transform="translate(648.486328 0)"/>
     <use xlink:href="#DejaVuSans-Bold-6c" transform="translate(715.966797 0)"/>
     <use xlink:href="#DejaVuSans-Bold-20" transform="translate(750.244141 0)"/>
     <use xlink:href="#DejaVuSans-Bold-4e" transform="translate(785.058594 0)"/>
     <use xlink:href="#DejaVuSans-Bold-65" transform="translate(868.75 0)"/>
     <use xlink:href="#DejaVuSans-Bold-74" transform="translate(936.572266 0)"/>
     <use xlink:href="#DejaVuSans-Bold-77" transform="translate(984.375 0)"/>
     <use xlink:href="#DejaVuSans-Bold-6f" transform="translate(1076.757812 0)"/>
     <use xlink:href="#DejaVuSans-Bold-72" transform="translate(1145.458984 0)"/>
     <use xlink:href="#DejaVuSans-Bold-6b" transform="translate(1194.775391 0)"/>
     <use xlink:href="#DejaVuSans-Bold-73" transform="translate(1261.279297 0)"/>
     <use xlink:href="#DejaVuSans-Bold-20" transform="translate(1320.800781 0)"/>
     <use xlink:href="#DejaVuSans-Bold-53" transform="translate(1355.615234 0)"/>
     <use xlink:href="#DejaVuSans-Bold-75" transform="translate(1427.636719 0)"/>
     <use xlink:href="#DejaVuSans-Bold-72" transform="translate(1498.828125 0)"/>
     <use xlink:href="#DejaVuSans-Bold-76" transform="translate(1548.144531 0)"/>
     <use xlink:href="#DejaVuSans-Bold-65" transform="translate(1613.330078 0)"/>
     <use xlink:href="#DejaVuSans-Bold-79" transform="translate(1681.152344 0)"/>
    </g>
   </g>
   <g id="text_8">
    <!-- Attention in Bioinformatics -->
    <g transform="translate(443.537363 415.31971) scale(0.09 -0.09)">
     <use xlink:href="#DejaVuSans-Bold-41"/>
     <use xlink:href="#DejaVuSans-Bold-74" transform="translate(77.392578 0)"/>
     <use xlink:href="#DejaVuSans-Bold-74" transform="translate(125.195312 0)"/>
     <use xlink:href="#DejaVuSans-Bold-65" transform="translate(172.998047 0)"/>
     <use xlink:href="#DejaVuSans-Bold-6e" transform="translate(240.820312 0)"/>
     <use xlink:href="#DejaVuSans-Bold-74" transform="translate(312.011719 0)"/>
     <use xlink:href="#DejaVuSans-Bold-69" transform="translate(359.814453 0)"/>
     <use xlink:href="#DejaVuSans-Bold-6f" transform="translate(394.091797 0)"/>
     <use xlink:href="#DejaVuSans-Bold-6e" transform="translate(462.792969 0)"/>
     <use xlink:href="#DejaVuSans-Bold-20" transform="translate(533.984375 0)"/>
     <use xlink:href="#DejaVuSans-Bold-69" transform="translate(568.798828 0)"/>
     <use xlink:href="#DejaVuSans-Bold-6e" transform="translate(603.076172 0)"/>
     <use xlink:href="#DejaVuSans-Bold-20" transform="translate(674.267578 0)"/>
     <use xlink:href="#DejaVuSans-Bold-42" transform="translate(709.082031 0)"/>
     <use xlink:href="#DejaVuSans-Bold-69" transform="translate(785.302734 0)"/>
     <use xlink:href="#DejaVuSans-Bold-6f" transform="translate(819.580078 0)"/>
     <use xlink:href="#DejaVuSans-Bold-69" transform="translate(888.28125 0)"/>
     <use xlink:href="#DejaVuSans-Bold-6e" transform="translate(922.558594 0)"/>
     <use xlink:href="#DejaVuSans-Bold-66" transform="translate(993.75 0)"/>
     <use xlink:href="#DejaVuSans-Bold-6f" transform="translate(1037.255859 0)"/>
     <use xlink:href="#DejaVuSans-Bold-72" transform="translate(1105.957031 0)"/>
     <use xlink:href="#DejaVuSans-Bold-6d" transform="translate(1155.273438 0)"/>
     <use xlink:href="#DejaVuSans-Bold-61" transform="translate(1259.472656 0)"/>
     <use xlink:href="#DejaVuSans-Bold-74" transform="translate(1326.953125 0)"/>
     <use xlink:href="#DejaVuSans-Bold-69" transform="translate(1374.755859 0)"/>
     <use xlink:href="#DejaVuSans-Bold-63" transform="translate(1409.033203 0)"/>
     <use xlink:href="#DejaVuSans-Bold-73" transform="translate(1468.310547 0)"/>
    </g>
   </g>
   <g id="text_9">
    <!-- Transfer Learning Benchmarks -->
    <g transform="translate(255.379146 66.253281) scale(0.09 -0.09)">
     <use xlink:href="#DejaVuSans-Bold-54"/>
     <use xlink:href="#DejaVuSans-Bold-72" transform="translate(57.212891 0)"/>
     <use xlink:href="#DejaVuSans-Bold-61" transform="translate(106.529297 0)"/>
     <use xlink:href="#DejaVuSans-Bold-6e" transform="translate(174.009766 0)"/>
     <use xlink:href="#DejaVuSans-Bold-73" transform="translate(245.201172 0)"/>
     <use xlink:href="#DejaVuSans-Bold-66" transform="translate(304.722656 0)"/>
     <use xlink:href="#DejaVuSans-Bold-65" transform="translate(348.228516 0)"/>
     <use xlink:href="#DejaVuSans-Bold-72" transform="translate(416.050781 0)"/>
     <use xlink:href="#DejaVuSans-Bold-20" transform="translate(465.367188 0)"/>
     <use xlink:href="#DejaVuSans-Bold-4c" transform="translate(500.181641 0)"/>
     <use xlink:href="#DejaVuSans-Bold-65" transform="translate(563.902344 0)"/>
     <use xlink:href="#DejaVuSans-Bold-61" transform="translate(631.724609 0)"/>
     <use xlink:href="#DejaVuSans-Bold-72" transform="translate(699.205078 0)"/>
     <use xlink:href="#DejaVuSans-Bold-6e" transform="translate(748.521484 0)"/>
     <use xlink:href="#DejaVuSans-Bold-69" transform="translate(819.712891 0)"/>
     <use xlink:href="#DejaVuSans-Bold-6e" transform="translate(853.990234 0)"/>
     <use xlink:href="#DejaVuSans-Bold-67" transform="translate(925.181641 0)"/>
     <use xlink:href="#DejaVuSans-Bold-20" transform="translate(996.763672 0)"/>
     <use xlink:href="#DejaVuSans-Bold-42" transform="translate(1031.578125 0)"/>
     <use xlink:href="#DejaVuSans-Bold-65" transform="translate(1107.798828 0)"/>
     <use xlink:href="#DejaVuSans-Bold-6e" transform="translate(1175.621094 0)"/>
     <use xlink:href="#DejaVuSans-Bold-63" transform="translate(1246.8125 0)"/>
     <use xlink:href="#DejaVuSans-Bold-68" transform="translate(1306.089844 0)"/>
     <use xlink:href="#DejaVuSans-Bold-6d" transform="translate(1377.28125 0)"/>
     <use xlink:href="#DejaVuSans-Bold-61" transform="translate(1481.480469 0)"/>
     <use xlink:href="#DejaVuSans-Bold-72" transform="translate(1548.960938 0)"/>
     <use xlink:href="#DejaVuSans-Bold-6b" transform="translate(1598.277344 0)"/>
     <use xlink:href="#DejaVuSans-Bold-73" transform="translate(1664.78125 0)"/>
    </g>
   </g>
   <g id="text_10">
    <!-- Multi-Omics Integration -->
    <g transform="translate(443.537363 102.178209) scale(0.09 -0.09)">
     <defs>
      <path id="DejaVuSans-Bold-4f" d="M 2719 3878 
Q 2169 3878 1866 3472 
Q 1563 3066 1563 2328 
Q 1563 1594 1866 1187 
Q 2169 781 2719 781 
Q 3272 781 3575 1187 
Q 3878 1594 3878 2328 
Q 3878 3066 3575 3472 
Q 3272 3878 2719 3878 
z
M 2719 4750 
Q 3844 4750 4481 4106 
Q 5119 3463 5119 2328 
Q 5119 1197 4481 553 
Q 3844 -91 2719 -91 
Q 1597 -91 958 553 
Q 319 1197 319 2328 
Q 319 3463 958 4106 
Q 1597 4750 2719 4750 
z
" transform="scale(0.015625)"/>
      <path id="DejaVuSans-Bold-49" d="M 588 4666 
L 1791 4666 
L 1791 0 
L 588 0 
L 588 4666 
z
" transform="scale(0.015625)"/>
     </defs>
     <use xlink:href="#DejaVuSans-Bold-4d"/>
     <use xlink:href="#DejaVuSans-Bold-75" transform="translate(99.511719 0)"/>
     <use xlink:href="#DejaVuSans-Bold-6c" transform="translate(170.703125 0)"/>
     <use xlink:href="#DejaVuSans-Bold-74" transform="translate(204.980469 0)"/>
     <use xlink:href="#DejaVuSans-Bold-69" transform="translate(252.783203 0)"/>
     <use xlink:href="#DejaVuSans-Bold-2d" transform="translate(287.060547 0)"/>
     <use xlink:href="#DejaVuSans-Bold-4f" transform="translate(328.564453 0)"/>
     <use xlink:href="#DejaVuSans-Bold-6d" transform="translate(413.574219 0)"/>
     <use xlink:href="#DejaVuSans-Bold-69" transform="translate(517.773438 0)"/>
     <use xlink:href="#DejaVuSans-Bold-63" transform="translate(552.050781 0)"/>
     <use xlink:href="#DejaVuSans-Bold-73" transform="translate(611.328125 0)"/>
     <use xlink:href="#DejaVuSans-Bold-20" transform="translate(670.849609 0)"/>
     <use xlink:href="#DejaVuSans-Bold-49" transform="translate(705.664062 0)"/>
     <use xlink:href="#DejaVuSans-Bold-6e" transform="translate(742.871094 0)"/>
     <use xlink:href="#DejaVuSans-Bold-74" transform="translate(814.0625 0)"/>
     <use xlink:href="#DejaVuSans-Bold-65" transform="translate(861.865234 0)"/>
     <use xlink:href="#DejaVuSans-Bold-67" transform="translate(929.6875 0)"/>
     <use xlink:href="#DejaVuSans-Bold-72" transform="translate(1001.269531 0)"/>
     <use xlink:href="#DejaVuSans-Bold-61" transform="translate(1050.585938 0)"/>
     <use xlink:href="#DejaVuSans-Bold-74" transform="translate(1118.066406 0)"/>
     <use xlink:href="#DejaVuSans-Bold-69" transform="translate(1165.869141 0)"/>
     <use xlink:href="#DejaVuSans-Bold-6f" transform="translate(1200.146484 0)"/>
     <use xlink:href="#DejaVuSans-Bold-6e" transform="translate(1268.847656 0)"/>
    </g>
   </g>
   <g id="text_11">
    <!-- Drug Discovery with ML -->
    <g transform="translate(33.406875 200.621205) scale(0.09 -0.09)">
     <use xlink:href="#DejaVuSans-Bold-44"/>
     <use xlink:href="#DejaVuSans-Bold-72" transform="translate(83.007812 0)"/>
     <use xlink:href="#DejaVuSans-Bold-75" transform="translate(132.324219 0)"/>
     <use xlink:href="#DejaVuSans-Bold-67" transform="translate(203.515625 0)"/>
     <use xlink:href="#DejaVuSans-Bold-20" transform="translate(275.097656 0)"/>
     <use xlink:href="#DejaVuSans-Bold-44" transform="translate(309.912109 0)"/>
     <use xlink:href="#DejaVuSans-Bold-69" transform="translate(392.919922 0)"/>
     <use xlink:href="#DejaVuSans-Bold-73" transform="translate(427.197266 0)"/>
     <use xlink:href="#DejaVuSans-Bold-63" transform="translate(486.71875 0)"/>
     <use xlink:href="#DejaVuSans-Bold-6f" transform="translate(545.996094 0)"/>
     <use xlink:href="#DejaVuSans-Bold-76" transform="translate(614.697266 0)"/>
     <use xlink:href="#DejaVuSans-Bold-65" transform="translate(679.882812 0)"/>
     <use xlink:href="#DejaVuSans-Bold-72" transform="translate(747.705078 0)"/>
     <use xlink:href="#DejaVuSans-Bold-79" transform="translate(797.021484 0)"/>
     <use xlink:href="#DejaVuSans-Bold-20" transform="translate(862.207031 0)"/>
     <use xlink:href="#DejaVuSans-Bold-77" transform="translate(897.021484 0)"/>
     <use xlink:href="#DejaVuSans-Bold-69" transform="translate(989.404297 0)"/>
     <use xlink:href="#DejaVuSans-Bold-74" transform="translate(1023.681641 0)"/>
     <use xlink:href="#DejaVuSans-Bold-68" transform="translate(1071.484375 0)"/>
     <use xlink:href="#DejaVuSans-Bold-20" transform="translate(1142.675781 0)"/>
     <use xlink:href="#DejaVuSans-Bold-4d" transform="translate(1177.490234 0)"/>
     <use xlink:href="#DejaVuSans-Bold-4c" transform="translate(1277.001953 0)"/>
    </g>
   </g>
   <g id="text_12">
    <!-- Foundation Models in Science -->
    <g transform="translate(511.870637 200.656361) scale(0.09 -0.09)">
     <defs>
      <path id="DejaVuSans-Bold-46" d="M 588 4666 
L 3834 4666 
L 3834 3756 
L 1791 3756 
L 1791 2888 
L 3713 2888 
L 3713 1978 
L 1791 1978 
L 1791 0 
L 588 0 
L 588 4666 
z
" transform="scale(0.015625)"/>
     </defs>
     <use xlink:href="#DejaVuSans-Bold-46"/>
     <use xlink:href="#DejaVuSans-Bold-6f" transform="translate(64.310547 0)"/>
     <use xlink:href="#DejaVuSans-Bold-75" transform="translate(133.011719 0)"/>
     <use xlink:href="#DejaVuSans-Bold-6e" transform="translate(204.203125 0)"/>
     <use xlink:href="#DejaVuSans-Bold-64" transform="translate(275.394531 0)"/>
     <use xlink:href="#DejaVuSans-Bold-61" transform="translate(346.976562 0)"/>
     <use xlink:href="#DejaVuSans-Bold-74" transform="translate(414.457031 0)"/>
     <use xlink:href="#DejaVuSans-Bold-69" transform="translate(462.259766 0)"/>
     <use xlink:href="#DejaVuSans-Bold-6f" transform="translate(496.537109 0)"/>
     <use xlink:href="#DejaVuSans-Bold-6e" transform="translate(565.238281 0)"/>
     <use xlink:href="#DejaVuSans-Bold-20" transform="translate(636.429688 0)"/>
     <use xlink:href="#DejaVuSans-Bold-4d" transform="translate(671.244141 0)"/>
     <use xlink:href="#DejaVuSans-Bold-6f" transform="translate(770.755859 0)"/>
     <use xlink:href="#DejaVuSans-Bold-64" transform="translate(839.457031 0)"/>
     <use xlink:href="#DejaVuSans-Bold-65" transform="translate(911.039062 0)"/>
     <use xlink:href="#DejaVuSans-Bold-6c" transform="translate(978.861328 0)"/>
     <use xlink:href="#DejaVuSans-Bold-73" transform="translate(1013.138672 0)"/>
     <use xlink:href="#DejaVuSans-Bold-20" transform="translate(1072.660156 0)"/>
     <use xlink:href="#DejaVuSans-Bold-69" transform="translate(1107.474609 0)"/>
     <use xlink:href="#DejaVuSans-Bold-6e" transform="translate(1141.751953 0)"/>
     <use xlink:href="#DejaVuSans-Bold-20" transform="translate(1212.943359 0)"/>
     <use xlink:href="#DejaVuSans-Bold-53" transform="translate(1247.757812 0)"/>
     <use xlink:href="#DejaVuSans-Bold-63" transform="translate(1319.779297 0)"/>
     <use xlink:href="#DejaVuSans-Bold-69" transform="translate(1379.056641 0)"/>
     <use xlink:href="#DejaVuSans-Bold-65" transform="translate(1413.333984 0)"/>
     <use xlink:href="#DejaVuSans-Bold-6e" transform="translate(1481.15625 0)"/>
     <use xlink:href="#DejaVuSans-Bold-63" transform="translate(1552.347656 0)"/>
     <use xlink:href="#DejaVuSans-Bold-65" transform="translate(1611.625 0)"/>
    </g>
   </g>
  </g>
 </g>
 <defs>
  <clipPath id="pbcbdbe977a">
   <rect x="111.211803" y="34.540678" width="443.52" height="443.52"/>
  </clipPath>
 </defs>
</svg>
