<?xml version="1.0" encoding="utf-8" standalone="no"?>
<!DOCTYPE svg PUBLIC "-//W3C//DTD SVG 1.1//EN"
  "http://www.w3.org/Graphics/SVG/1.1/DTD/svg11.dtd">
<svg xmlns:xlink="http://www.w3.org/1999/xlink" width="458.249459pt" height="488.860678pt" viewBox="0 0 458.249459 488.860678" xmlns="http://www.w3.org/2000/svg" version="1.1">
 <metadata>
  <rdf:RDF xmlns:dc="http://purl.org/dc/elements/1.1/" xmlns:cc="http://creativecommons.org/ns#" xmlns:rdf="http://www.w3.org/1999/02/22-rdf-syntax-ns#">
   <cc:Work>
    <dc:type rdf:resource="http://purl.org/dc/dcmitype/StillImage"/>
    <dc:date>2026-05-01T09:55:52.048713</dc:date>
    <dc:format>image/svg+xml</dc:format>
    <dc:creator>
     <cc:Agent>
      <dc:title>Matplotlib v3.10.7+dfsg1, https://matplotlib.org/</dc:title>
     </cc:Agent>
    </dc:creator>
   </cc:Work>
  </rdf:RDF>
 </metadata>
 <defs>
  <style type="text/css">*{stroke-linejoin: round; stroke-linecap: butt}</style>
 </defs>
 <g id="figure_1">
  <g id="patch_1">
   <path d="M 0 488.860678 
L 458.249459 488.860678 
L 458.249459 0 
L 0 0 
z
" style="fill: #ffffff"/>
  </g>
  <g id="axes_1">
   <g id="patch_2">
    <path d="M 229.289459 407.770727 
C 268.505054 407.770727 306.11976 392.190206 333.849373 364.460593 
C 361.578987 336.730979 377.159508 299.116274 377.159508 259.900678 
C 377.159508 220.685083 361.578987 183.070378 333.849373 155.340764 
C 306.11976 127.611151 268.505054 112.03063 229.289459 112.03063 
C 190.073864 112.03063 152.459158 127.611151 124.729545 155.340764 
C 96.999931 183.070378 81.41941 220.685083 81.41941 259.900678 
C 81.41941 299.116274 96.999931 336.730979 124.729545 364.460593 
C 152.459158 392.190206 190.073864 407.770727 229.289459 407.770727 
z
" clip-path="url(#pda9518ec2c)" style="fill: #f0f4fa; stroke: #f0f4fa; stroke-linejoin: miter"/>
   </g>
   <g id="patch_3">
    <path d="M 351.032116 316.54274 
Q 267.566433 375.439843 179.243548 376.660042 
" clip-path="url(#pda9518ec2c)" style="fill: none; opacity: 0.45; stroke: #999999; stroke-width: 0.96; stroke-linejoin: miter"/>
   </g>
   <g id="patch_4">
    <path d="M 354.958781 291.750751 
Q 237.244845 250.141939 169.705191 162.018061 
" clip-path="url(#pda9518ec2c)" style="fill: none; opacity: 0.45; stroke: #999999; stroke-width: 0.96; stroke-linejoin: miter"/>
   </g>
   <g id="patch_5">
    <path d="M 361.074706 285.634826 
Q 279.267917 224.454451 250.814167 140.831458 
" clip-path="url(#pda9518ec2c)" style="fill: none; opacity: 0.45; stroke: #999999; stroke-width: 0.96; stroke-linejoin: miter"/>
   </g>
   <g id="patch_6">
    <path d="M 251.654635 399.30411 
Q 289.833993 344.423992 340.595468 329.07324 
" clip-path="url(#pda9518ec2c)" style="fill: none; opacity: 0.45; stroke: #999999; stroke-width: 0.96; stroke-linejoin: miter"/>
   </g>
   <g id="patch_7">
    <path d="M 202.997618 407.010624 
Q 184.212429 400.732538 178.60384 398.962256 
" clip-path="url(#pda9518ec2c)" style="fill: none; opacity: 0.45; stroke: #999999; stroke-width: 0.96; stroke-linejoin: miter"/>
   </g>
   <g id="patch_8">
    <path d="M 220.746722 389.26152 
Q 217.549997 264.451084 154.610109 172.98528 
" clip-path="url(#pda9518ec2c)" style="fill: none; opacity: 0.45; stroke: #999999; stroke-width: 0.96; stroke-linejoin: miter"/>
   </g>
   <g id="patch_9">
    <path d="M 97.504212 330.365179 
Q 118.454745 339.561564 119.354256 348.574435 
" clip-path="url(#pda9518ec2c)" style="fill: none; opacity: 0.45; stroke: #999999; stroke-width: 0.96; stroke-linejoin: miter"/>
   </g>
   <g id="patch_10">
    <path d="M 81.254961 280.355125 
Q 81.420833 260.549313 81.371322 254.668181 
" clip-path="url(#pda9518ec2c)" style="fill: none; opacity: 0.45; stroke: #999999; stroke-width: 0.96; stroke-linejoin: miter"/>
   </g>
   <g id="patch_11">
    <path d="M 294.487969 394.369081 
Q 275.600266 400.33166 270.022277 402.196117 
" clip-path="url(#pda9518ec2c)" style="fill: none; opacity: 0.45; stroke: #999999; stroke-width: 0.96; stroke-linejoin: miter"/>
   </g>
   <g id="patch_12">
    <path d="M 337.029062 363.461168 
Q 339.301273 340.694188 347.595059 337.053571 
" clip-path="url(#pda9518ec2c)" style="fill: none; opacity: 0.45; stroke: #999999; stroke-width: 0.96; stroke-linejoin: miter"/>
   </g>
   <g id="patch_13">
    <path d="M 312.237073 359.534503 
Q 309.040348 234.724067 246.10046 143.258263 
" clip-path="url(#pda9518ec2c)" style="fill: none; opacity: 0.45; stroke: #999999; stroke-width: 0.96; stroke-linejoin: miter"/>
   </g>
   <g id="patch_14">
    <path d="M 329.322548 160.266854 
Q 369.704367 213.54116 368.628929 266.557086 
" clip-path="url(#pda9518ec2c)" style="fill: none; opacity: 0.45; stroke: #999999; stroke-width: 0.96; stroke-linejoin: miter"/>
   </g>
   <g id="patch_15">
    <path d="M 298.414634 150.224264 
Q 222.466696 249.31904 117.785006 286.321292 
" clip-path="url(#pda9518ec2c)" style="fill: none; opacity: 0.45; stroke: #999999; stroke-width: 0.96; stroke-linejoin: miter"/>
   </g>
   <g id="patch_16">
    <path d="M 97.504212 189.436178 
Q 109.27997 173.510437 112.696757 168.7234 
" clip-path="url(#pda9518ec2c)" style="fill: none; opacity: 0.45; stroke: #999999; stroke-width: 0.96; stroke-linejoin: miter"/>
   </g>
   <g id="patch_17">
    <path d="M 103.620137 195.552102 
Q 141.808344 140.684044 192.561815 125.324024 
" clip-path="url(#pda9518ec2c)" style="fill: none; opacity: 0.45; stroke: #999999; stroke-width: 0.96; stroke-linejoin: miter"/>
   </g>
   <g id="patch_18">
    <path d="M 361.074706 234.16653 
Q 279.267917 295.346906 250.814167 378.969899 
" clip-path="url(#pda9518ec2c)" style="fill: none; opacity: 0.45; stroke: #999999; stroke-width: 0.96; stroke-linejoin: miter"/>
   </g>
   <g id="patch_19">
    <path d="M 368.78122 238.093196 
Q 328.385197 291.362812 329.471923 344.383487 
" clip-path="url(#pda9518ec2c)" style="fill: none; opacity: 0.45; stroke: #999999; stroke-width: 0.96; stroke-linejoin: miter"/>
   </g>
   <g id="patch_20">
    <path d="M 361.074706 189.436178 
Q 340.124173 180.239793 339.224662 171.226922 
" clip-path="url(#pda9518ec2c)" style="fill: none; opacity: 0.45; stroke: #999999; stroke-width: 0.96; stroke-linejoin: miter"/>
   </g>
   <g id="patch_21">
    <path d="M 230.371215 132.97463 
C 237.702722 132.97463 244.734937 130.061791 249.919096 124.877632 
C 255.103254 119.693474 258.016093 112.661259 258.016093 105.329752 
C 258.016093 97.998244 255.103254 90.966029 249.919096 85.781871 
C 244.734937 80.597712 237.702722 77.684873 230.371215 77.684873 
C 223.039708 77.684873 216.007493 80.597712 210.823334 85.781871 
C 205.639176 90.966029 202.726337 97.998244 202.726337 105.329752 
C 202.726337 112.661259 205.639176 119.693474 210.823334 124.877632 
C 216.007493 130.061791 223.039708 132.97463 230.371215 132.97463 
z
" clip-path="url(#pda9518ec2c)" style="fill-opacity: 0.133333"/>
   </g>
   <g id="patch_22">
    <path d="M 138.880864 162.701647 
C 146.212371 162.701647 153.244586 159.788808 158.428744 154.604649 
C 163.612903 149.420491 166.525742 142.388276 166.525742 135.056769 
C 166.525742 127.725261 163.612903 120.693047 158.428744 115.508888 
C 153.244586 110.324729 146.212371 107.411891 138.880864 107.411891 
C 131.549356 107.411891 124.517141 110.324729 119.332983 115.508888 
C 114.148824 120.693047 111.235985 127.725261 111.235985 135.056769 
C 111.235985 142.388276 114.148824 149.420491 119.332983 154.604649 
C 124.517141 159.788808 131.549356 162.701647 138.880864 162.701647 
z
" clip-path="url(#pda9518ec2c)" style="fill-opacity: 0.133333"/>
   </g>
   <g id="patch_23">
    <path d="M 82.336717 240.527988 
C 89.668224 240.527988 96.700439 237.61515 101.884597 232.430991 
C 107.068756 227.246832 109.981595 220.214618 109.981595 212.88311 
C 109.981595 205.551603 107.068756 198.519388 101.884597 193.335229 
C 96.700439 188.151071 89.668224 185.238232 82.336717 185.238232 
C 75.005209 185.238232 67.972995 188.151071 62.788836 193.335229 
C 57.604677 198.519388 54.691839 205.551603 54.691839 212.88311 
C 54.691839 220.214618 57.604677 227.246832 62.788836 232.430991 
C 67.972995 237.61515 75.005209 240.527988 82.336717 240.527988 
z
" clip-path="url(#pda9518ec2c)" style="fill-opacity: 0.133333"/>
   </g>
   <g id="patch_24">
    <path d="M 82.336717 336.726637 
C 89.668224 336.726637 96.700439 333.813798 101.884597 328.629639 
C 107.068756 323.445481 109.981595 316.413266 109.981595 309.081759 
C 109.981595 301.750251 107.068756 294.718037 101.884597 289.533878 
C 96.700439 284.349719 89.668224 281.436881 82.336717 281.436881 
C 75.005209 281.436881 67.972995 284.349719 62.788836 289.533878 
C 57.604677 294.718037 54.691839 301.750251 54.691839 309.081759 
C 54.691839 316.413266 57.604677 323.445481 62.788836 328.629639 
C 67.972995 333.813798 75.005209 336.726637 82.336717 336.726637 
z
" clip-path="url(#pda9518ec2c)" style="fill-opacity: 0.133333"/>
   </g>
   <g id="patch_25">
    <path d="M 138.880864 414.552978 
C 146.212371 414.552978 153.244586 411.640139 158.428744 406.455981 
C 163.612903 401.271822 166.525742 394.239608 166.525742 386.9081 
C 166.525742 379.576593 163.612903 372.544378 158.428744 367.360219 
C 153.244586 362.176061 146.212371 359.263222 138.880864 359.263222 
C 131.549356 359.263222 124.517141 362.176061 119.332983 367.360219 
C 114.148824 372.544378 111.235985 379.576593 111.235985 386.9081 
C 111.235985 394.239608 114.148824 401.271822 119.332983 406.455981 
C 124.517141 411.640139 131.549356 414.552978 138.880864 414.552978 
z
" clip-path="url(#pda9518ec2c)" style="fill-opacity: 0.133333"/>
   </g>
   <g id="patch_26">
    <path d="M 230.371215 444.279995 
C 237.702722 444.279995 244.734937 441.367157 249.919096 436.182998 
C 255.103254 430.99884 258.016093 423.966625 258.016093 416.635117 
C 258.016093 409.30361 255.103254 402.271395 249.919096 397.087237 
C 244.734937 391.903078 237.702722 388.990239 230.371215 388.990239 
C 223.039708 388.990239 216.007493 391.903078 210.823334 397.087237 
C 205.639176 402.271395 202.726337 409.30361 202.726337 416.635117 
C 202.726337 423.966625 205.639176 430.99884 210.823334 436.182998 
C 216.007493 441.367157 223.039708 444.279995 230.371215 444.279995 
z
" clip-path="url(#pda9518ec2c)" style="fill-opacity: 0.133333"/>
   </g>
   <g id="patch_27">
    <path d="M 321.861567 414.552978 
C 329.193074 414.552978 336.225289 411.640139 341.409447 406.455981 
C 346.593606 401.271822 349.506445 394.239608 349.506445 386.9081 
C 349.506445 379.576593 346.593606 372.544378 341.409447 367.360219 
C 336.225289 362.176061 329.193074 359.263222 321.861567 359.263222 
C 314.530059 359.263222 307.497844 362.176061 302.313686 367.360219 
C 297.129527 372.544378 294.216688 379.576593 294.216688 386.9081 
C 294.216688 394.239608 297.129527 401.271822 302.313686 406.455981 
C 307.497844 411.640139 314.530059 414.552978 321.861567 414.552978 
z
" clip-path="url(#pda9518ec2c)" style="fill-opacity: 0.133333"/>
   </g>
   <g id="patch_28">
    <path d="M 378.405713 336.726637 
C 385.737221 336.726637 392.769436 333.813798 397.953594 328.629639 
C 403.137753 323.445481 406.050591 316.413266 406.050591 309.081759 
C 406.050591 301.750251 403.137753 294.718037 397.953594 289.533878 
C 392.769436 284.349719 385.737221 281.436881 378.405713 281.436881 
C 371.074206 281.436881 364.041991 284.349719 358.857833 289.533878 
C 353.673674 294.718037 350.760835 301.750251 350.760835 309.081759 
C 350.760835 316.413266 353.673674 323.445481 358.857833 328.629639 
C 364.041991 333.813798 371.074206 336.726637 378.405713 336.726637 
z
" clip-path="url(#pda9518ec2c)" style="fill-opacity: 0.133333"/>
   </g>
   <g id="patch_29">
    <path d="M 378.405713 240.527988 
C 385.737221 240.527988 392.769436 237.61515 397.953594 232.430991 
C 403.137753 227.246832 406.050591 220.214618 406.050591 212.88311 
C 406.050591 205.551603 403.137753 198.519388 397.953594 193.335229 
C 392.769436 188.151071 385.737221 185.238232 378.405713 185.238232 
C 371.074206 185.238232 364.041991 188.151071 358.857833 193.335229 
C 353.673674 198.519388 350.760835 205.551603 350.760835 212.88311 
C 350.760835 220.214618 353.673674 227.246832 358.857833 232.430991 
C 364.041991 237.61515 371.074206 240.527988 378.405713 240.527988 
z
" clip-path="url(#pda9518ec2c)" style="fill-opacity: 0.133333"/>
   </g>
   <g id="patch_30">
    <path d="M 321.861567 162.701647 
C 329.193074 162.701647 336.225289 159.788808 341.409447 154.604649 
C 346.593606 149.420491 349.506445 142.388276 349.506445 135.056769 
C 349.506445 127.725261 346.593606 120.693047 341.409447 115.508888 
C 336.225289 110.324729 329.193074 107.411891 321.861567 107.411891 
C 314.530059 107.411891 307.497844 110.324729 302.313686 115.508888 
C 297.129527 120.693047 294.216688 127.725261 294.216688 135.056769 
C 294.216688 142.388276 297.129527 149.420491 302.313686 154.604649 
C 307.497844 159.788808 314.530059 162.701647 321.861567 162.701647 
z
" clip-path="url(#pda9518ec2c)" style="fill-opacity: 0.133333"/>
   </g>
   <g id="patch_31">
    <path d="M 229.289459 131.892873 
C 236.620966 131.892873 243.653181 128.980035 248.83734 123.795876 
C 254.021498 118.611718 256.934337 111.579503 256.934337 104.247995 
C 256.934337 96.916488 254.021498 89.884273 248.83734 84.700115 
C 243.653181 79.515956 236.620966 76.603117 229.289459 76.603117 
C 221.957952 76.603117 214.925737 79.515956 209.741578 84.700115 
C 204.55742 89.884273 201.644581 96.916488 201.644581 104.247995 
C 201.644581 111.579503 204.55742 118.611718 209.741578 123.795876 
C 214.925737 128.980035 221.957952 131.892873 229.289459 131.892873 
z
" clip-path="url(#pda9518ec2c)" style="fill: #cccccc; stroke: #ffffff; stroke-width: 2.8; stroke-linejoin: miter"/>
   </g>
   <g id="patch_32">
    <path d="M 137.799107 161.619891 
C 145.130615 161.619891 152.16283 158.707052 157.346988 153.522893 
C 162.531147 148.338735 165.443985 141.30652 165.443985 133.975013 
C 165.443985 126.643505 162.531147 119.61129 157.346988 114.427132 
C 152.16283 109.242973 145.130615 106.330135 137.799107 106.330135 
C 130.4676 106.330135 123.435385 109.242973 118.251227 114.427132 
C 113.067068 119.61129 110.154229 126.643505 110.154229 133.975013 
C 110.154229 141.30652 113.067068 148.338735 118.251227 153.522893 
C 123.435385 158.707052 130.4676 161.619891 137.799107 161.619891 
z
" clip-path="url(#pda9518ec2c)" style="fill: #cccccc; stroke: #ffffff; stroke-width: 2.8; stroke-linejoin: miter"/>
   </g>
   <g id="patch_33">
    <path d="M 81.254961 239.446232 
C 88.586468 239.446232 95.618683 236.533393 100.802841 231.349235 
C 105.987 226.165076 108.899839 219.132861 108.899839 211.801354 
C 108.899839 204.469847 105.987 197.437632 100.802841 192.253473 
C 95.618683 187.069315 88.586468 184.156476 81.254961 184.156476 
C 73.923453 184.156476 66.891238 187.069315 61.70708 192.253473 
C 56.522921 197.437632 53.610083 204.469847 53.610083 211.801354 
C 53.610083 219.132861 56.522921 226.165076 61.70708 231.349235 
C 66.891238 236.533393 73.923453 239.446232 81.254961 239.446232 
z
" clip-path="url(#pda9518ec2c)" style="fill: #cccccc; stroke: #ffffff; stroke-width: 2.8; stroke-linejoin: miter"/>
   </g>
   <g id="patch_34">
    <path d="M 81.254961 335.644881 
C 88.586468 335.644881 95.618683 332.732042 100.802841 327.547883 
C 105.987 322.363725 108.899839 315.33151 108.899839 308.000003 
C 108.899839 300.668495 105.987 293.63628 100.802841 288.452122 
C 95.618683 283.267963 88.586468 280.355125 81.254961 280.355125 
C 73.923453 280.355125 66.891238 283.267963 61.70708 288.452122 
C 56.522921 293.63628 53.610083 300.668495 53.610083 308.000003 
C 53.610083 315.33151 56.522921 322.363725 61.70708 327.547883 
C 66.891238 332.732042 73.923453 335.644881 81.254961 335.644881 
z
" clip-path="url(#pda9518ec2c)" style="fill: #cccccc; stroke: #ffffff; stroke-width: 2.8; stroke-linejoin: miter"/>
   </g>
   <g id="patch_35">
    <path d="M 137.799107 413.471222 
C 145.130615 413.471222 152.16283 410.558383 157.346988 405.374225 
C 162.531147 400.190066 165.443985 393.157851 165.443985 385.826344 
C 165.443985 378.494837 162.531147 371.462622 157.346988 366.278463 
C 152.16283 361.094305 145.130615 358.181466 137.799107 358.181466 
C 130.4676 358.181466 123.435385 361.094305 118.251227 366.278463 
C 113.067068 371.462622 110.154229 378.494837 110.154229 385.826344 
C 110.154229 393.157851 113.067068 400.190066 118.251227 405.374225 
C 123.435385 410.558383 130.4676 413.471222 137.799107 413.471222 
z
" clip-path="url(#pda9518ec2c)" style="fill: #cccccc; stroke: #ffffff; stroke-width: 2.8; stroke-linejoin: miter"/>
   </g>
   <g id="patch_36">
    <path d="M 229.289459 443.198239 
C 236.620966 443.198239 243.653181 440.285401 248.83734 435.101242 
C 254.021498 429.917083 256.934337 422.884869 256.934337 415.553361 
C 256.934337 408.221854 254.021498 401.189639 248.83734 396.005481 
C 243.653181 390.821322 236.620966 387.908483 229.289459 387.908483 
C 221.957952 387.908483 214.925737 390.821322 209.741578 396.005481 
C 204.55742 401.189639 201.644581 408.221854 201.644581 415.553361 
C 201.644581 422.884869 204.55742 429.917083 209.741578 435.101242 
C 214.925737 440.285401 221.957952 443.198239 229.289459 443.198239 
z
" clip-path="url(#pda9518ec2c)" style="fill: #cccccc; stroke: #ffffff; stroke-width: 2.8; stroke-linejoin: miter"/>
   </g>
   <g id="patch_37">
    <path d="M 320.77981 413.471222 
C 328.111318 413.471222 335.143533 410.558383 340.327691 405.374225 
C 345.51185 400.190066 348.424688 393.157851 348.424688 385.826344 
C 348.424688 378.494837 345.51185 371.462622 340.327691 366.278463 
C 335.143533 361.094305 328.111318 358.181466 320.77981 358.181466 
C 313.448303 358.181466 306.416088 361.094305 301.23193 366.278463 
C 296.047771 371.462622 293.134932 378.494837 293.134932 385.826344 
C 293.134932 393.157851 296.047771 400.190066 301.23193 405.374225 
C 306.416088 410.558383 313.448303 413.471222 320.77981 413.471222 
z
" clip-path="url(#pda9518ec2c)" style="fill: #cccccc; stroke: #ffffff; stroke-width: 2.8; stroke-linejoin: miter"/>
   </g>
   <g id="patch_38">
    <path d="M 377.323957 335.644881 
C 384.655465 335.644881 391.687679 332.732042 396.871838 327.547883 
C 402.055997 322.363725 404.968835 315.33151 404.968835 308.000003 
C 404.968835 300.668495 402.055997 293.63628 396.871838 288.452122 
C 391.687679 283.267963 384.655465 280.355125 377.323957 280.355125 
C 369.99245 280.355125 362.960235 283.267963 357.776077 288.452122 
C 352.591918 293.63628 349.679079 300.668495 349.679079 308.000003 
C 349.679079 315.33151 352.591918 322.363725 357.776077 327.547883 
C 362.960235 332.732042 369.99245 335.644881 377.323957 335.644881 
z
" clip-path="url(#pda9518ec2c)" style="fill: #cccccc; stroke: #ffffff; stroke-width: 2.8; stroke-linejoin: miter"/>
   </g>
   <g id="patch_39">
    <path d="M 377.323957 239.446232 
C 384.655465 239.446232 391.687679 236.533393 396.871838 231.349235 
C 402.055997 226.165076 404.968835 219.132861 404.968835 211.801354 
C 404.968835 204.469847 402.055997 197.437632 396.871838 192.253473 
C 391.687679 187.069315 384.655465 184.156476 377.323957 184.156476 
C 369.99245 184.156476 362.960235 187.069315 357.776077 192.253473 
C 352.591918 197.437632 349.679079 204.469847 349.679079 211.801354 
C 349.679079 219.132861 352.591918 226.165076 357.776077 231.349235 
C 362.960235 236.533393 369.99245 239.446232 377.323957 239.446232 
z
" clip-path="url(#pda9518ec2c)" style="fill: #cccccc; stroke: #ffffff; stroke-width: 2.8; stroke-linejoin: miter"/>
   </g>
   <g id="patch_40">
    <path d="M 320.77981 161.619891 
C 328.111318 161.619891 335.143533 158.707052 340.327691 153.522893 
C 345.51185 148.338735 348.424688 141.30652 348.424688 133.975013 
C 348.424688 126.643505 345.51185 119.61129 340.327691 114.427132 
C 335.143533 109.242973 328.111318 106.330135 320.77981 106.330135 
C 313.448303 106.330135 306.416088 109.242973 301.23193 114.427132 
C 296.047771 119.61129 293.134932 126.643505 293.134932 133.975013 
C 293.134932 141.30652 296.047771 148.338735 301.23193 153.522893 
C 306.416088 158.707052 313.448303 161.619891 320.77981 161.619891 
z
" clip-path="url(#pda9518ec2c)" style="fill: #cccccc; stroke: #ffffff; stroke-width: 2.8; stroke-linejoin: miter"/>
   </g>
   <g id="text_1">
    <!-- Aggregated by first author -->
    <g transform="translate(146.30899 46.795703) scale(0.125 -0.125)">
     <defs>
      <path id="DejaVuSans-41" d="M 2188 4044 
L 1331 1722 
L 3047 1722 
L 2188 4044 
z
M 1831 4666 
L 2547 4666 
L 4325 0 
L 3669 0 
L 3244 1197 
L 1141 1197 
L 716 0 
L 50 0 
L 1831 4666 
z
" transform="scale(0.015625)"/>
      <path id="DejaVuSans-67" d="M 2906 1791 
Q 2906 2416 2648 2759 
Q 2391 3103 1925 3103 
Q 1463 3103 1205 2759 
Q 947 2416 947 1791 
Q 947 1169 1205 825 
Q 1463 481 1925 481 
Q 2391 481 2648 825 
Q 2906 1169 2906 1791 
z
M 3481 434 
Q 3481 -459 3084 -895 
Q 2688 -1331 1869 -1331 
Q 1566 -1331 1297 -1286 
Q 1028 -1241 775 -1147 
L 775 -588 
Q 1028 -725 1275 -790 
Q 1522 -856 1778 -856 
Q 2344 -856 2625 -561 
Q 2906 -266 2906 331 
L 2906 616 
Q 2728 306 2450 153 
Q 2172 0 1784 0 
Q 1141 0 747 490 
Q 353 981 353 1791 
Q 353 2603 747 3093 
Q 1141 3584 1784 3584 
Q 2172 3584 2450 3431 
Q 2728 3278 2906 2969 
L 2906 3500 
L 3481 3500 
L 3481 434 
z
" transform="scale(0.015625)"/>
      <path id="DejaVuSans-72" d="M 2631 2963 
Q 2534 3019 2420 3045 
Q 2306 3072 2169 3072 
Q 1681 3072 1420 2755 
Q 1159 2438 1159 1844 
L 1159 0 
L 581 0 
L 581 3500 
L 1159 3500 
L 1159 2956 
Q 1341 3275 1631 3429 
Q 1922 3584 2338 3584 
Q 2397 3584 2469 3576 
Q 2541 3569 2628 3553 
L 2631 2963 
z
" transform="scale(0.015625)"/>
      <path id="DejaVuSans-65" d="M 3597 1894 
L 3597 1613 
L 953 1613 
Q 991 1019 1311 708 
Q 1631 397 2203 397 
Q 2534 397 2845 478 
Q 3156 559 3463 722 
L 3463 178 
Q 3153 47 2828 -22 
Q 2503 -91 2169 -91 
Q 1331 -91 842 396 
Q 353 884 353 1716 
Q 353 2575 817 3079 
Q 1281 3584 2069 3584 
Q 2775 3584 3186 3129 
Q 3597 2675 3597 1894 
z
M 3022 2063 
Q 3016 2534 2758 2815 
Q 2500 3097 2075 3097 
Q 1594 3097 1305 2825 
Q 1016 2553 972 2059 
L 3022 2063 
z
" transform="scale(0.015625)"/>
      <path id="DejaVuSans-61" d="M 2194 1759 
Q 1497 1759 1228 1600 
Q 959 1441 959 1056 
Q 959 750 1161 570 
Q 1363 391 1709 391 
Q 2188 391 2477 730 
Q 2766 1069 2766 1631 
L 2766 1759 
L 2194 1759 
z
M 3341 1997 
L 3341 0 
L 2766 0 
L 2766 531 
Q 2569 213 2275 61 
Q 1981 -91 1556 -91 
Q 1019 -91 701 211 
Q 384 513 384 1019 
Q 384 1609 779 1909 
Q 1175 2209 1959 2209 
L 2766 2209 
L 2766 2266 
Q 2766 2663 2505 2880 
Q 2244 3097 1772 3097 
Q 1472 3097 1187 3025 
Q 903 2953 641 2809 
L 641 3341 
Q 956 3463 1253 3523 
Q 1550 3584 1831 3584 
Q 2591 3584 2966 3190 
Q 3341 2797 3341 1997 
z
" transform="scale(0.015625)"/>
      <path id="DejaVuSans-74" d="M 1172 4494 
L 1172 3500 
L 2356 3500 
L 2356 3053 
L 1172 3053 
L 1172 1153 
Q 1172 725 1289 603 
Q 1406 481 1766 481 
L 2356 481 
L 2356 0 
L 1766 0 
Q 1100 0 847 248 
Q 594 497 594 1153 
L 594 3053 
L 172 3053 
L 172 3500 
L 594 3500 
L 594 4494 
L 1172 4494 
z
" transform="scale(0.015625)"/>
      <path id="DejaVuSans-64" d="M 2906 2969 
L 2906 4863 
L 3481 4863 
L 3481 0 
L 2906 0 
L 2906 525 
Q 2725 213 2448 61 
Q 2172 -91 1784 -91 
Q 1150 -91 751 415 
Q 353 922 353 1747 
Q 353 2572 751 3078 
Q 1150 3584 1784 3584 
Q 2172 3584 2448 3432 
Q 2725 3281 2906 2969 
z
M 947 1747 
Q 947 1113 1208 752 
Q 1469 391 1925 391 
Q 2381 391 2643 752 
Q 2906 1113 2906 1747 
Q 2906 2381 2643 2742 
Q 2381 3103 1925 3103 
Q 1469 3103 1208 2742 
Q 947 2381 947 1747 
z
" transform="scale(0.015625)"/>
      <path id="DejaVuSans-20" transform="scale(0.015625)"/>
      <path id="DejaVuSans-62" d="M 3116 1747 
Q 3116 2381 2855 2742 
Q 2594 3103 2138 3103 
Q 1681 3103 1420 2742 
Q 1159 2381 1159 1747 
Q 1159 1113 1420 752 
Q 1681 391 2138 391 
Q 2594 391 2855 752 
Q 3116 1113 3116 1747 
z
M 1159 2969 
Q 1341 3281 1617 3432 
Q 1894 3584 2278 3584 
Q 2916 3584 3314 3078 
Q 3713 2572 3713 1747 
Q 3713 922 3314 415 
Q 2916 -91 2278 -91 
Q 1894 -91 1617 61 
Q 1341 213 1159 525 
L 1159 0 
L 581 0 
L 581 4863 
L 1159 4863 
L 1159 2969 
z
" transform="scale(0.015625)"/>
      <path id="DejaVuSans-79" d="M 2059 -325 
Q 1816 -950 1584 -1140 
Q 1353 -1331 966 -1331 
L 506 -1331 
L 506 -850 
L 844 -850 
Q 1081 -850 1212 -737 
Q 1344 -625 1503 -206 
L 1606 56 
L 191 3500 
L 800 3500 
L 1894 763 
L 2988 3500 
L 3597 3500 
L 2059 -325 
z
" transform="scale(0.015625)"/>
      <path id="DejaVuSans-66" d="M 2375 4863 
L 2375 4384 
L 1825 4384 
Q 1516 4384 1395 4259 
Q 1275 4134 1275 3809 
L 1275 3500 
L 2222 3500 
L 2222 3053 
L 1275 3053 
L 1275 0 
L 697 0 
L 697 3053 
L 147 3053 
L 147 3500 
L 697 3500 
L 697 3744 
Q 697 4328 969 4595 
Q 1241 4863 1831 4863 
L 2375 4863 
z
" transform="scale(0.015625)"/>
      <path id="DejaVuSans-69" d="M 603 3500 
L 1178 3500 
L 1178 0 
L 603 0 
L 603 3500 
z
M 603 4863 
L 1178 4863 
L 1178 4134 
L 603 4134 
L 603 4863 
z
" transform="scale(0.015625)"/>
      <path id="DejaVuSans-73" d="M 2834 3397 
L 2834 2853 
Q 2591 2978 2328 3040 
Q 2066 3103 1784 3103 
Q 1356 3103 1142 2972 
Q 928 2841 928 2578 
Q 928 2378 1081 2264 
Q 1234 2150 1697 2047 
L 1894 2003 
Q 2506 1872 2764 1633 
Q 3022 1394 3022 966 
Q 3022 478 2636 193 
Q 2250 -91 1575 -91 
Q 1294 -91 989 -36 
Q 684 19 347 128 
L 347 722 
Q 666 556 975 473 
Q 1284 391 1588 391 
Q 1994 391 2212 530 
Q 2431 669 2431 922 
Q 2431 1156 2273 1281 
Q 2116 1406 1581 1522 
L 1381 1569 
Q 847 1681 609 1914 
Q 372 2147 372 2553 
Q 372 3047 722 3315 
Q 1072 3584 1716 3584 
Q 2034 3584 2315 3537 
Q 2597 3491 2834 3397 
z
" transform="scale(0.015625)"/>
      <path id="DejaVuSans-75" d="M 544 1381 
L 544 3500 
L 1119 3500 
L 1119 1403 
Q 1119 906 1312 657 
Q 1506 409 1894 409 
Q 2359 409 2629 706 
Q 2900 1003 2900 1516 
L 2900 3500 
L 3475 3500 
L 3475 0 
L 2900 0 
L 2900 538 
Q 2691 219 2414 64 
Q 2138 -91 1772 -91 
Q 1169 -91 856 284 
Q 544 659 544 1381 
z
M 1991 3584 
L 1991 3584 
z
" transform="scale(0.015625)"/>
      <path id="DejaVuSans-68" d="M 3513 2113 
L 3513 0 
L 2938 0 
L 2938 2094 
Q 2938 2591 2744 2837 
Q 2550 3084 2163 3084 
Q 1697 3084 1428 2787 
Q 1159 2491 1159 1978 
L 1159 0 
L 581 0 
L 581 4863 
L 1159 4863 
L 1159 2956 
Q 1366 3272 1645 3428 
Q 1925 3584 2291 3584 
Q 2894 3584 3203 3211 
Q 3513 2838 3513 2113 
z
" transform="scale(0.015625)"/>
      <path id="DejaVuSans-6f" d="M 1959 3097 
Q 1497 3097 1228 2736 
Q 959 2375 959 1747 
Q 959 1119 1226 758 
Q 1494 397 1959 397 
Q 2419 397 2687 759 
Q 2956 1122 2956 1747 
Q 2956 2369 2687 2733 
Q 2419 3097 1959 3097 
z
M 1959 3584 
Q 2709 3584 3137 3096 
Q 3566 2609 3566 1747 
Q 3566 888 3137 398 
Q 2709 -91 1959 -91 
Q 1206 -91 779 398 
Q 353 888 353 1747 
Q 353 2609 779 3096 
Q 1206 3584 1959 3584 
z
" transform="scale(0.015625)"/>
     </defs>
     <use xlink:href="#DejaVuSans-41"/>
     <use xlink:href="#DejaVuSans-67" transform="translate(68.408203 0)"/>
     <use xlink:href="#DejaVuSans-67" transform="translate(131.884766 0)"/>
     <use xlink:href="#DejaVuSans-72" transform="translate(195.361328 0)"/>
     <use xlink:href="#DejaVuSans-65" transform="translate(234.224609 0)"/>
     <use xlink:href="#DejaVuSans-67" transform="translate(295.748047 0)"/>
     <use xlink:href="#DejaVuSans-61" transform="translate(359.224609 0)"/>
     <use xlink:href="#DejaVuSans-74" transform="translate(420.503906 0)"/>
     <use xlink:href="#DejaVuSans-65" transform="translate(459.712891 0)"/>
     <use xlink:href="#DejaVuSans-64" transform="translate(521.236328 0)"/>
     <use xlink:href="#DejaVuSans-20" transform="translate(584.712891 0)"/>
     <use xlink:href="#DejaVuSans-62" transform="translate(616.5 0)"/>
     <use xlink:href="#DejaVuSans-79" transform="translate(679.976562 0)"/>
     <use xlink:href="#DejaVuSans-20" transform="translate(739.15625 0)"/>
     <use xlink:href="#DejaVuSans-66" transform="translate(770.943359 0)"/>
     <use xlink:href="#DejaVuSans-69" transform="translate(806.148438 0)"/>
     <use xlink:href="#DejaVuSans-72" transform="translate(833.931641 0)"/>
     <use xlink:href="#DejaVuSans-73" transform="translate(875.044922 0)"/>
     <use xlink:href="#DejaVuSans-74" transform="translate(927.144531 0)"/>
     <use xlink:href="#DejaVuSans-20" transform="translate(966.353516 0)"/>
     <use xlink:href="#DejaVuSans-61" transform="translate(998.140625 0)"/>
     <use xlink:href="#DejaVuSans-75" transform="translate(1059.419922 0)"/>
     <use xlink:href="#DejaVuSans-74" transform="translate(1122.798828 0)"/>
     <use xlink:href="#DejaVuSans-68" transform="translate(1162.007812 0)"/>
     <use xlink:href="#DejaVuSans-6f" transform="translate(1225.386719 0)"/>
     <use xlink:href="#DejaVuSans-72" transform="translate(1286.568359 0)"/>
    </g>
   </g>
   <g id="text_2">
    <!-- Author Citation Network -->
    <g transform="translate(57.24649 26.196094) scale(0.25 -0.25)">
     <defs>
      <path id="DejaVuSans-Bold-41" d="M 3419 850 
L 1538 850 
L 1241 0 
L 31 0 
L 1759 4666 
L 3194 4666 
L 4922 0 
L 3713 0 
L 3419 850 
z
M 1838 1716 
L 3116 1716 
L 2478 3572 
L 1838 1716 
z
" transform="scale(0.015625)"/>
      <path id="DejaVuSans-Bold-75" d="M 500 1363 
L 500 3500 
L 1625 3500 
L 1625 3150 
Q 1625 2866 1622 2436 
Q 1619 2006 1619 1863 
Q 1619 1441 1641 1255 
Q 1663 1069 1716 984 
Q 1784 875 1895 815 
Q 2006 756 2150 756 
Q 2500 756 2700 1025 
Q 2900 1294 2900 1772 
L 2900 3500 
L 4019 3500 
L 4019 0 
L 2900 0 
L 2900 506 
Q 2647 200 2364 54 
Q 2081 -91 1741 -91 
Q 1134 -91 817 281 
Q 500 653 500 1363 
z
" transform="scale(0.015625)"/>
      <path id="DejaVuSans-Bold-74" d="M 1759 4494 
L 1759 3500 
L 2913 3500 
L 2913 2700 
L 1759 2700 
L 1759 1216 
Q 1759 972 1856 886 
Q 1953 800 2241 800 
L 2816 800 
L 2816 0 
L 1856 0 
Q 1194 0 917 276 
Q 641 553 641 1216 
L 641 2700 
L 84 2700 
L 84 3500 
L 641 3500 
L 641 4494 
L 1759 4494 
z
" transform="scale(0.015625)"/>
      <path id="DejaVuSans-Bold-68" d="M 4056 2131 
L 4056 0 
L 2931 0 
L 2931 347 
L 2931 1625 
Q 2931 2084 2911 2256 
Q 2891 2428 2841 2509 
Q 2775 2619 2662 2680 
Q 2550 2741 2406 2741 
Q 2056 2741 1856 2470 
Q 1656 2200 1656 1722 
L 1656 0 
L 538 0 
L 538 4863 
L 1656 4863 
L 1656 2988 
Q 1909 3294 2193 3439 
Q 2478 3584 2822 3584 
Q 3428 3584 3742 3212 
Q 4056 2841 4056 2131 
z
" transform="scale(0.015625)"/>
      <path id="DejaVuSans-Bold-6f" d="M 2203 2784 
Q 1831 2784 1636 2517 
Q 1441 2250 1441 1747 
Q 1441 1244 1636 976 
Q 1831 709 2203 709 
Q 2569 709 2762 976 
Q 2956 1244 2956 1747 
Q 2956 2250 2762 2517 
Q 2569 2784 2203 2784 
z
M 2203 3584 
Q 3106 3584 3614 3096 
Q 4122 2609 4122 1747 
Q 4122 884 3614 396 
Q 3106 -91 2203 -91 
Q 1297 -91 786 396 
Q 275 884 275 1747 
Q 275 2609 786 3096 
Q 1297 3584 2203 3584 
z
" transform="scale(0.015625)"/>
      <path id="DejaVuSans-Bold-72" d="M 3138 2547 
Q 2991 2616 2845 2648 
Q 2700 2681 2553 2681 
Q 2122 2681 1889 2404 
Q 1656 2128 1656 1613 
L 1656 0 
L 538 0 
L 538 3500 
L 1656 3500 
L 1656 2925 
Q 1872 3269 2151 3426 
Q 2431 3584 2822 3584 
Q 2878 3584 2943 3579 
Q 3009 3575 3134 3559 
L 3138 2547 
z
" transform="scale(0.015625)"/>
      <path id="DejaVuSans-Bold-20" transform="scale(0.015625)"/>
      <path id="DejaVuSans-Bold-43" d="M 4288 256 
Q 3956 84 3597 -3 
Q 3238 -91 2847 -91 
Q 1681 -91 1000 561 
Q 319 1213 319 2328 
Q 319 3447 1000 4098 
Q 1681 4750 2847 4750 
Q 3238 4750 3597 4662 
Q 3956 4575 4288 4403 
L 4288 3438 
Q 3953 3666 3628 3772 
Q 3303 3878 2944 3878 
Q 2300 3878 1931 3465 
Q 1563 3053 1563 2328 
Q 1563 1606 1931 1193 
Q 2300 781 2944 781 
Q 3303 781 3628 887 
Q 3953 994 4288 1222 
L 4288 256 
z
" transform="scale(0.015625)"/>
      <path id="DejaVuSans-Bold-69" d="M 538 3500 
L 1656 3500 
L 1656 0 
L 538 0 
L 538 3500 
z
M 538 4863 
L 1656 4863 
L 1656 3950 
L 538 3950 
L 538 4863 
z
" transform="scale(0.015625)"/>
      <path id="DejaVuSans-Bold-61" d="M 2106 1575 
Q 1756 1575 1579 1456 
Q 1403 1338 1403 1106 
Q 1403 894 1545 773 
Q 1688 653 1941 653 
Q 2256 653 2472 879 
Q 2688 1106 2688 1447 
L 2688 1575 
L 2106 1575 
z
M 3816 1997 
L 3816 0 
L 2688 0 
L 2688 519 
Q 2463 200 2181 54 
Q 1900 -91 1497 -91 
Q 953 -91 614 226 
Q 275 544 275 1050 
Q 275 1666 698 1953 
Q 1122 2241 2028 2241 
L 2688 2241 
L 2688 2328 
Q 2688 2594 2478 2717 
Q 2269 2841 1825 2841 
Q 1466 2841 1156 2769 
Q 847 2697 581 2553 
L 581 3406 
Q 941 3494 1303 3539 
Q 1666 3584 2028 3584 
Q 2975 3584 3395 3211 
Q 3816 2838 3816 1997 
z
" transform="scale(0.015625)"/>
      <path id="DejaVuSans-Bold-6e" d="M 4056 2131 
L 4056 0 
L 2931 0 
L 2931 347 
L 2931 1631 
Q 2931 2084 2911 2256 
Q 2891 2428 2841 2509 
Q 2775 2619 2662 2680 
Q 2550 2741 2406 2741 
Q 2056 2741 1856 2470 
Q 1656 2200 1656 1722 
L 1656 0 
L 538 0 
L 538 3500 
L 1656 3500 
L 1656 2988 
Q 1909 3294 2193 3439 
Q 2478 3584 2822 3584 
Q 3428 3584 3742 3212 
Q 4056 2841 4056 2131 
z
" transform="scale(0.015625)"/>
      <path id="DejaVuSans-Bold-4e" d="M 588 4666 
L 1931 4666 
L 3628 1466 
L 3628 4666 
L 4769 4666 
L 4769 0 
L 3425 0 
L 1728 3200 
L 1728 0 
L 588 0 
L 588 4666 
z
" transform="scale(0.015625)"/>
      <path id="DejaVuSans-Bold-65" d="M 4031 1759 
L 4031 1441 
L 1416 1441 
Q 1456 1047 1700 850 
Q 1944 653 2381 653 
Q 2734 653 3104 758 
Q 3475 863 3866 1075 
L 3866 213 
Q 3469 63 3072 -14 
Q 2675 -91 2278 -91 
Q 1328 -91 801 392 
Q 275 875 275 1747 
Q 275 2603 792 3093 
Q 1309 3584 2216 3584 
Q 3041 3584 3536 3087 
Q 4031 2591 4031 1759 
z
M 2881 2131 
Q 2881 2450 2695 2645 
Q 2509 2841 2209 2841 
Q 1884 2841 1681 2658 
Q 1478 2475 1428 2131 
L 2881 2131 
z
" transform="scale(0.015625)"/>
      <path id="DejaVuSans-Bold-77" d="M 225 3500 
L 1313 3500 
L 1900 1088 
L 2491 3500 
L 3425 3500 
L 4013 1113 
L 4603 3500 
L 5691 3500 
L 4769 0 
L 3547 0 
L 2956 2406 
L 2369 0 
L 1147 0 
L 225 3500 
z
" transform="scale(0.015625)"/>
      <path id="DejaVuSans-Bold-6b" d="M 538 4863 
L 1656 4863 
L 1656 2216 
L 2944 3500 
L 4244 3500 
L 2534 1894 
L 4378 0 
L 3022 0 
L 1656 1459 
L 1656 0 
L 538 0 
L 538 4863 
z
" transform="scale(0.015625)"/>
     </defs>
     <use xlink:href="#DejaVuSans-Bold-41"/>
     <use xlink:href="#DejaVuSans-Bold-75" transform="translate(77.392578 0)"/>
     <use xlink:href="#DejaVuSans-Bold-74" transform="translate(148.583984 0)"/>
     <use xlink:href="#DejaVuSans-Bold-68" transform="translate(196.386719 0)"/>
     <use xlink:href="#DejaVuSans-Bold-6f" transform="translate(267.578125 0)"/>
     <use xlink:href="#DejaVuSans-Bold-72" transform="translate(336.279297 0)"/>
     <use xlink:href="#DejaVuSans-Bold-20" transform="translate(385.595703 0)"/>
     <use xlink:href="#DejaVuSans-Bold-43" transform="translate(420.410156 0)"/>
     <use xlink:href="#DejaVuSans-Bold-69" transform="translate(493.798828 0)"/>
     <use xlink:href="#DejaVuSans-Bold-74" transform="translate(528.076172 0)"/>
     <use xlink:href="#DejaVuSans-Bold-61" transform="translate(575.878906 0)"/>
     <use xlink:href="#DejaVuSans-Bold-74" transform="translate(643.359375 0)"/>
     <use xlink:href="#DejaVuSans-Bold-69" transform="translate(691.162109 0)"/>
     <use xlink:href="#DejaVuSans-Bold-6f" transform="translate(725.439453 0)"/>
     <use xlink:href="#DejaVuSans-Bold-6e" transform="translate(794.140625 0)"/>
     <use xlink:href="#DejaVuSans-Bold-20" transform="translate(865.332031 0)"/>
     <use xlink:href="#DejaVuSans-Bold-4e" transform="translate(900.146484 0)"/>
     <use xlink:href="#DejaVuSans-Bold-65" transform="translate(983.837891 0)"/>
     <use xlink:href="#DejaVuSans-Bold-74" transform="translate(1051.660156 0)"/>
     <use xlink:href="#DejaVuSans-Bold-77" transform="translate(1099.462891 0)"/>
     <use xlink:href="#DejaVuSans-Bold-6f" transform="translate(1191.845703 0)"/>
     <use xlink:href="#DejaVuSans-Bold-72" transform="translate(1260.546875 0)"/>
     <use xlink:href="#DejaVuSans-Bold-6b" transform="translate(1309.863281 0)"/>
    </g>
   </g>
   <g id="patch_41">
    <path d="M 221.548893 108.118278 
C 224.628126 108.118278 227.581656 106.894886 229.759003 104.717539 
C 231.93635 102.540193 233.159742 99.586663 233.159742 96.50743 
C 233.159742 93.428196 231.93635 90.474666 229.759003 88.29732 
C 227.581656 86.119973 224.628126 84.896581 221.548893 84.896581 
C 218.46966 84.896581 215.51613 86.119973 213.338783 88.29732 
C 211.161437 90.474666 209.938044 93.428196 209.938044 96.50743 
C 209.938044 99.586663 211.161437 102.540193 213.338783 104.717539 
C 215.51613 106.894886 218.46966 108.118278 221.548893 108.118278 
z
" clip-path="url(#pda9518ec2c)" style="fill: #ffffff; opacity: 0.22"/>
   </g>
   <g id="patch_42">
    <path d="M 130.058542 137.845296 
C 133.137775 137.845296 136.091305 136.621903 138.268651 134.444557 
C 140.445998 132.26721 141.66939 129.31368 141.66939 126.234447 
C 141.66939 123.155214 140.445998 120.201683 138.268651 118.024337 
C 136.091305 115.84699 133.137775 114.623598 130.058542 114.623598 
C 126.979308 114.623598 124.025778 115.84699 121.848432 118.024337 
C 119.671085 120.201683 118.447693 123.155214 118.447693 126.234447 
C 118.447693 129.31368 119.671085 132.26721 121.848432 134.444557 
C 124.025778 136.621903 126.979308 137.845296 130.058542 137.845296 
z
" clip-path="url(#pda9518ec2c)" style="fill: #ffffff; opacity: 0.22"/>
   </g>
   <g id="patch_43">
    <path d="M 73.514395 215.671637 
C 76.593628 215.671637 79.547158 214.448245 81.724505 212.270898 
C 83.901851 210.093552 85.125243 207.140021 85.125243 204.060788 
C 85.125243 200.981555 83.901851 198.028025 81.724505 195.850678 
C 79.547158 193.673332 76.593628 192.449939 73.514395 192.449939 
C 70.435162 192.449939 67.481631 193.673332 65.304285 195.850678 
C 63.126938 198.028025 61.903546 200.981555 61.903546 204.060788 
C 61.903546 207.140021 63.126938 210.093552 65.304285 212.270898 
C 67.481631 214.448245 70.435162 215.671637 73.514395 215.671637 
z
" clip-path="url(#pda9518ec2c)" style="fill: #ffffff; opacity: 0.22"/>
   </g>
   <g id="patch_44">
    <path d="M 73.514395 311.870286 
C 76.593628 311.870286 79.547158 310.646893 81.724505 308.469547 
C 83.901851 306.2922 85.125243 303.33867 85.125243 300.259437 
C 85.125243 297.180204 83.901851 294.226673 81.724505 292.049327 
C 79.547158 289.87198 76.593628 288.648588 73.514395 288.648588 
C 70.435162 288.648588 67.481631 289.87198 65.304285 292.049327 
C 63.126938 294.226673 61.903546 297.180204 61.903546 300.259437 
C 61.903546 303.33867 63.126938 306.2922 65.304285 308.469547 
C 67.481631 310.646893 70.435162 311.870286 73.514395 311.870286 
z
" clip-path="url(#pda9518ec2c)" style="fill: #ffffff; opacity: 0.22"/>
   </g>
   <g id="patch_45">
    <path d="M 130.058542 389.696627 
C 133.137775 389.696627 136.091305 388.473235 138.268651 386.295888 
C 140.445998 384.118542 141.66939 381.165011 141.66939 378.085778 
C 141.66939 375.006545 140.445998 372.053015 138.268651 369.875668 
C 136.091305 367.698322 133.137775 366.474929 130.058542 366.474929 
C 126.979308 366.474929 124.025778 367.698322 121.848432 369.875668 
C 119.671085 372.053015 118.447693 375.006545 118.447693 378.085778 
C 118.447693 381.165011 119.671085 384.118542 121.848432 386.295888 
C 124.025778 388.473235 126.979308 389.696627 130.058542 389.696627 
z
" clip-path="url(#pda9518ec2c)" style="fill: #ffffff; opacity: 0.22"/>
   </g>
   <g id="patch_46">
    <path d="M 221.548893 419.423644 
C 224.628126 419.423644 227.581656 418.200252 229.759003 416.022905 
C 231.93635 413.845559 233.159742 410.892029 233.159742 407.812795 
C 233.159742 404.733562 231.93635 401.780032 229.759003 399.602686 
C 227.581656 397.425339 224.628126 396.201947 221.548893 396.201947 
C 218.46966 396.201947 215.51613 397.425339 213.338783 399.602686 
C 211.161437 401.780032 209.938044 404.733562 209.938044 407.812795 
C 209.938044 410.892029 211.161437 413.845559 213.338783 416.022905 
C 215.51613 418.200252 218.46966 419.423644 221.548893 419.423644 
z
" clip-path="url(#pda9518ec2c)" style="fill: #ffffff; opacity: 0.22"/>
   </g>
   <g id="patch_47">
    <path d="M 313.039245 389.696627 
C 316.118478 389.696627 319.072008 388.473235 321.249355 386.295888 
C 323.426701 384.118542 324.650093 381.165011 324.650093 378.085778 
C 324.650093 375.006545 323.426701 372.053015 321.249355 369.875668 
C 319.072008 367.698322 316.118478 366.474929 313.039245 366.474929 
C 309.960012 366.474929 307.006481 367.698322 304.829135 369.875668 
C 302.651788 372.053015 301.428396 375.006545 301.428396 378.085778 
C 301.428396 381.165011 302.651788 384.118542 304.829135 386.295888 
C 307.006481 388.473235 309.960012 389.696627 313.039245 389.696627 
z
" clip-path="url(#pda9518ec2c)" style="fill: #ffffff; opacity: 0.22"/>
   </g>
   <g id="patch_48">
    <path d="M 369.583391 311.870286 
C 372.662625 311.870286 375.616155 310.646893 377.793501 308.469547 
C 379.970848 306.2922 381.19424 303.33867 381.19424 300.259437 
C 381.19424 297.180204 379.970848 294.226673 377.793501 292.049327 
C 375.616155 289.87198 372.662625 288.648588 369.583391 288.648588 
C 366.504158 288.648588 363.550628 289.87198 361.373282 292.049327 
C 359.195935 294.226673 357.972543 297.180204 357.972543 300.259437 
C 357.972543 303.33867 359.195935 306.2922 361.373282 308.469547 
C 363.550628 310.646893 366.504158 311.870286 369.583391 311.870286 
z
" clip-path="url(#pda9518ec2c)" style="fill: #ffffff; opacity: 0.22"/>
   </g>
   <g id="patch_49">
    <path d="M 369.583391 215.671637 
C 372.662625 215.671637 375.616155 214.448245 377.793501 212.270898 
C 379.970848 210.093552 381.19424 207.140021 381.19424 204.060788 
C 381.19424 200.981555 379.970848 198.028025 377.793501 195.850678 
C 375.616155 193.673332 372.662625 192.449939 369.583391 192.449939 
C 366.504158 192.449939 363.550628 193.673332 361.373282 195.850678 
C 359.195935 198.028025 357.972543 200.981555 357.972543 204.060788 
C 357.972543 207.140021 359.195935 210.093552 361.373282 212.270898 
C 363.550628 214.448245 366.504158 215.671637 369.583391 215.671637 
z
" clip-path="url(#pda9518ec2c)" style="fill: #ffffff; opacity: 0.22"/>
   </g>
   <g id="patch_50">
    <path d="M 313.039245 137.845296 
C 316.118478 137.845296 319.072008 136.621903 321.249355 134.444557 
C 323.426701 132.26721 324.650093 129.31368 324.650093 126.234447 
C 324.650093 123.155214 323.426701 120.201683 321.249355 118.024337 
C 319.072008 115.84699 316.118478 114.623598 313.039245 114.623598 
C 309.960012 114.623598 307.006481 115.84699 304.829135 118.024337 
C 302.651788 120.201683 301.428396 123.155214 301.428396 126.234447 
C 301.428396 129.31368 302.651788 132.26721 304.829135 134.444557 
C 307.006481 136.621903 309.960012 137.845296 313.039245 137.845296 
z
" clip-path="url(#pda9518ec2c)" style="fill: #ffffff; opacity: 0.22"/>
   </g>
   <g id="patch_51">
    <path d="M 165.422428 376.850983 
L 179.185435 372.453614 
L 179.301661 380.866469 
z
" clip-path="url(#pda9518ec2c)" style="fill: #999999; opacity: 0.45"/>
   </g>
   <g id="patch_52">
    <path d="M 161.296907 151.047164 
L 173.04416 159.459018 
L 166.366223 164.577104 
z
" clip-path="url(#pda9518ec2c)" style="fill: #999999; opacity: 0.45"/>
   </g>
   <g id="patch_53">
    <path d="M 246.36161 127.745795 
L 254.79676 139.476331 
L 246.831574 142.186584 
z
" clip-path="url(#pda9518ec2c)" style="fill: #999999; opacity: 0.45"/>
   </g>
   <g id="patch_54">
    <path d="M 353.826157 325.072154 
L 341.81319 333.099971 
L 339.377747 325.046508 
z
" clip-path="url(#pda9518ec2c)" style="fill: #999999; opacity: 0.45"/>
   </g>
   <g id="patch_55">
    <path d="M 165.422428 394.801705 
L 179.870095 394.950522 
L 177.337586 402.97399 
z
" clip-path="url(#pda9518ec2c)" style="fill: #999999; opacity: 0.45"/>
   </g>
   <g id="patch_56">
    <path d="M 146.774468 161.598333 
L 158.075701 170.60052 
L 151.144516 175.37004 
z
" clip-path="url(#pda9518ec2c)" style="fill: #999999; opacity: 0.45"/>
   </g>
   <g id="patch_57">
    <path d="M 120.726956 362.328544 
L 115.168223 348.992213 
L 123.540289 348.156657 
z
" clip-path="url(#pda9518ec2c)" style="fill: #999999; opacity: 0.45"/>
   </g>
   <g id="patch_58">
    <path d="M 81.254961 240.846232 
L 85.578002 254.632767 
L 77.164642 254.703596 
z
" clip-path="url(#pda9518ec2c)" style="fill: #999999; opacity: 0.45"/>
   </g>
   <g id="patch_59">
    <path d="M 256.912779 406.578 
L 268.68866 398.20627 
L 271.355893 406.185964 
z
" clip-path="url(#pda9518ec2c)" style="fill: #999999; opacity: 0.45"/>
   </g>
   <g id="patch_60">
    <path d="M 360.251806 331.497803 
L 349.285945 340.905625 
L 345.904173 333.201518 
z
" clip-path="url(#pda9518ec2c)" style="fill: #999999; opacity: 0.45"/>
   </g>
   <g id="patch_61">
    <path d="M 238.26482 131.871316 
L 249.566053 140.873503 
L 242.634868 145.643023 
z
" clip-path="url(#pda9518ec2c)" style="fill: #999999; opacity: 0.45"/>
   </g>
   <g id="patch_62">
    <path d="M 368.348596 280.376682 
L 364.422965 266.471767 
L 372.834893 266.642405 
z
" clip-path="url(#pda9518ec2c)" style="fill: #999999; opacity: 0.45"/>
   </g>
   <g id="patch_63">
    <path d="M 104.752761 290.927852 
L 116.38301 282.354956 
L 119.187003 290.287628 
z
" clip-path="url(#pda9518ec2c)" style="fill: #999999; opacity: 0.45"/>
   </g>
   <g id="patch_64">
    <path d="M 120.726956 157.472813 
L 116.120849 171.167374 
L 109.272665 166.279426 
z
" clip-path="url(#pda9518ec2c)" style="fill: #999999; opacity: 0.45"/>
   </g>
   <g id="patch_65">
    <path d="M 205.791659 121.320146 
L 193.780386 129.350498 
L 191.343243 121.29755 
z
" clip-path="url(#pda9518ec2c)" style="fill: #999999; opacity: 0.45"/>
   </g>
   <g id="patch_66">
    <path d="M 246.36161 392.055561 
L 246.831574 377.614773 
L 254.79676 380.325025 
z
" clip-path="url(#pda9518ec2c)" style="fill: #999999; opacity: 0.45"/>
   </g>
   <g id="patch_67">
    <path d="M 329.755171 358.203024 
L 325.265977 344.469693 
L 333.677868 344.297281 
z
" clip-path="url(#pda9518ec2c)" style="fill: #999999; opacity: 0.45"/>
   </g>
   <g id="patch_68">
    <path d="M 337.851961 157.472813 
L 343.410695 170.809143 
L 335.038629 171.6447 
z
" clip-path="url(#pda9518ec2c)" style="fill: #999999; opacity: 0.45"/>
   </g>
   <g id="text_3">
    <!-- Brown -->
    <g transform="translate(207.820709 69.299687) scale(0.12 -0.12)">
     <defs>
      <path id="DejaVuSans-Bold-42" d="M 2456 2859 
Q 2741 2859 2887 2984 
Q 3034 3109 3034 3353 
Q 3034 3594 2887 3720 
Q 2741 3847 2456 3847 
L 1791 3847 
L 1791 2859 
L 2456 2859 
z
M 2497 819 
Q 2859 819 3042 972 
Q 3225 1125 3225 1434 
Q 3225 1738 3044 1889 
Q 2863 2041 2497 2041 
L 1791 2041 
L 1791 819 
L 2497 819 
z
M 3616 2497 
Q 4003 2384 4215 2081 
Q 4428 1778 4428 1338 
Q 4428 663 3972 331 
Q 3516 0 2584 0 
L 588 0 
L 588 4666 
L 2394 4666 
Q 3366 4666 3802 4372 
Q 4238 4078 4238 3431 
Q 4238 3091 4078 2852 
Q 3919 2613 3616 2497 
z
" transform="scale(0.015625)"/>
     </defs>
     <use xlink:href="#DejaVuSans-Bold-42"/>
     <use xlink:href="#DejaVuSans-Bold-72" transform="translate(76.220703 0)"/>
     <use xlink:href="#DejaVuSans-Bold-6f" transform="translate(125.537109 0)"/>
     <use xlink:href="#DejaVuSans-Bold-77" transform="translate(194.238281 0)"/>
     <use xlink:href="#DejaVuSans-Bold-6e" transform="translate(286.621094 0)"/>
    </g>
   </g>
   <g id="text_4">
    <!-- Chen -->
    <g transform="translate(84.692649 105.224616) scale(0.12 -0.12)">
     <use xlink:href="#DejaVuSans-Bold-43"/>
     <use xlink:href="#DejaVuSans-Bold-68" transform="translate(73.388672 0)"/>
     <use xlink:href="#DejaVuSans-Bold-65" transform="translate(144.580078 0)"/>
     <use xlink:href="#DejaVuSans-Bold-6e" transform="translate(212.402344 0)"/>
    </g>
   </g>
   <g id="text_5">
    <!-- Davis -->
    <g transform="translate(13.2525 205.084174) scale(0.12 -0.12)">
     <defs>
      <path id="DejaVuSans-Bold-44" d="M 1791 3756 
L 1791 909 
L 2222 909 
Q 2959 909 3348 1275 
Q 3738 1641 3738 2338 
Q 3738 3031 3350 3393 
Q 2963 3756 2222 3756 
L 1791 3756 
z
M 588 4666 
L 1856 4666 
Q 2919 4666 3439 4514 
Q 3959 4363 4331 4000 
Q 4659 3684 4818 3271 
Q 4978 2859 4978 2338 
Q 4978 1809 4818 1395 
Q 4659 981 4331 666 
Q 3956 303 3431 151 
Q 2906 0 1856 0 
L 588 0 
L 588 4666 
z
" transform="scale(0.015625)"/>
      <path id="DejaVuSans-Bold-76" d="M 97 3500 
L 1216 3500 
L 2088 1081 
L 2956 3500 
L 4078 3500 
L 2700 0 
L 1472 0 
L 97 3500 
z
" transform="scale(0.015625)"/>
      <path id="DejaVuSans-Bold-73" d="M 3272 3391 
L 3272 2541 
Q 2913 2691 2578 2766 
Q 2244 2841 1947 2841 
Q 1628 2841 1473 2761 
Q 1319 2681 1319 2516 
Q 1319 2381 1436 2309 
Q 1553 2238 1856 2203 
L 2053 2175 
Q 2913 2066 3209 1816 
Q 3506 1566 3506 1031 
Q 3506 472 3093 190 
Q 2681 -91 1863 -91 
Q 1516 -91 1145 -36 
Q 775 19 384 128 
L 384 978 
Q 719 816 1070 734 
Q 1422 653 1784 653 
Q 2113 653 2278 743 
Q 2444 834 2444 1013 
Q 2444 1163 2330 1236 
Q 2216 1309 1875 1350 
L 1678 1375 
Q 931 1469 631 1722 
Q 331 1975 331 2491 
Q 331 3047 712 3315 
Q 1094 3584 1881 3584 
Q 2191 3584 2531 3537 
Q 2872 3491 3272 3391 
z
" transform="scale(0.015625)"/>
     </defs>
     <use xlink:href="#DejaVuSans-Bold-44"/>
     <use xlink:href="#DejaVuSans-Bold-61" transform="translate(83.007812 0)"/>
     <use xlink:href="#DejaVuSans-Bold-76" transform="translate(150.488281 0)"/>
     <use xlink:href="#DejaVuSans-Bold-69" transform="translate(215.673828 0)"/>
     <use xlink:href="#DejaVuSans-Bold-73" transform="translate(249.951172 0)"/>
    </g>
   </g>
   <g id="text_6">
    <!-- Garcia -->
    <g transform="translate(7.2 321.339683) scale(0.12 -0.12)">
     <defs>
      <path id="DejaVuSans-Bold-47" d="M 4781 347 
Q 4331 128 3847 18 
Q 3363 -91 2847 -91 
Q 1681 -91 1000 561 
Q 319 1213 319 2328 
Q 319 3456 1012 4103 
Q 1706 4750 2913 4750 
Q 3378 4750 3804 4662 
Q 4231 4575 4609 4403 
L 4609 3438 
Q 4219 3659 3833 3768 
Q 3447 3878 3059 3878 
Q 2341 3878 1952 3476 
Q 1563 3075 1563 2328 
Q 1563 1588 1938 1184 
Q 2313 781 3003 781 
Q 3191 781 3352 804 
Q 3513 828 3641 878 
L 3641 1784 
L 2906 1784 
L 2906 2591 
L 4781 2591 
L 4781 347 
z
" transform="scale(0.015625)"/>
      <path id="DejaVuSans-Bold-63" d="M 3366 3391 
L 3366 2478 
Q 3138 2634 2908 2709 
Q 2678 2784 2431 2784 
Q 1963 2784 1702 2511 
Q 1441 2238 1441 1747 
Q 1441 1256 1702 982 
Q 1963 709 2431 709 
Q 2694 709 2930 787 
Q 3166 866 3366 1019 
L 3366 103 
Q 3103 6 2833 -42 
Q 2563 -91 2291 -91 
Q 1344 -91 809 395 
Q 275 881 275 1747 
Q 275 2613 809 3098 
Q 1344 3584 2291 3584 
Q 2566 3584 2833 3536 
Q 3100 3488 3366 3391 
z
" transform="scale(0.015625)"/>
     </defs>
     <use xlink:href="#DejaVuSans-Bold-47"/>
     <use xlink:href="#DejaVuSans-Bold-61" transform="translate(82.080078 0)"/>
     <use xlink:href="#DejaVuSans-Bold-72" transform="translate(149.560547 0)"/>
     <use xlink:href="#DejaVuSans-Bold-63" transform="translate(198.876953 0)"/>
     <use xlink:href="#DejaVuSans-Bold-69" transform="translate(258.154297 0)"/>
     <use xlink:href="#DejaVuSans-Bold-61" transform="translate(292.431641 0)"/>
    </g>
   </g>
   <g id="text_7">
    <!-- Jones -->
    <g transform="translate(82.191399 421.199241) scale(0.12 -0.12)">
     <defs>
      <path id="DejaVuSans-Bold-4a" d="M 588 4666 
L 1791 4666 
L 1791 453 
Q 1791 -419 1317 -850 
Q 844 -1281 -116 -1281 
L -359 -1281 
L -359 -372 
L -172 -372 
Q 203 -372 395 -162 
Q 588 47 588 453 
L 588 4666 
z
" transform="scale(0.015625)"/>
     </defs>
     <use xlink:href="#DejaVuSans-Bold-4a"/>
     <use xlink:href="#DejaVuSans-Bold-6f" transform="translate(37.207031 0)"/>
     <use xlink:href="#DejaVuSans-Bold-6e" transform="translate(105.908203 0)"/>
     <use xlink:href="#DejaVuSans-Bold-65" transform="translate(177.099609 0)"/>
     <use xlink:href="#DejaVuSans-Bold-73" transform="translate(244.921875 0)"/>
    </g>
   </g>
   <g id="text_8">
    <!-- Lee -->
    <g transform="translate(217.326959 457.124169) scale(0.12 -0.12)">
     <defs>
      <path id="DejaVuSans-Bold-4c" d="M 588 4666 
L 1791 4666 
L 1791 909 
L 3903 909 
L 3903 0 
L 588 0 
L 588 4666 
z
" transform="scale(0.015625)"/>
     </defs>
     <use xlink:href="#DejaVuSans-Bold-4c"/>
     <use xlink:href="#DejaVuSans-Bold-65" transform="translate(63.720703 0)"/>
     <use xlink:href="#DejaVuSans-Bold-65" transform="translate(131.542969 0)"/>
    </g>
   </g>
   <g id="text_9">
    <!-- Park -->
    <g transform="translate(339.855019 421.199241) scale(0.12 -0.12)">
     <defs>
      <path id="DejaVuSans-Bold-50" d="M 588 4666 
L 2584 4666 
Q 3475 4666 3951 4270 
Q 4428 3875 4428 3144 
Q 4428 2409 3951 2014 
Q 3475 1619 2584 1619 
L 1791 1619 
L 1791 0 
L 588 0 
L 588 4666 
z
M 1791 3794 
L 1791 2491 
L 2456 2491 
Q 2806 2491 2997 2661 
Q 3188 2831 3188 3144 
Q 3188 3456 2997 3625 
Q 2806 3794 2456 3794 
L 1791 3794 
z
" transform="scale(0.015625)"/>
     </defs>
     <use xlink:href="#DejaVuSans-Bold-50"/>
     <use xlink:href="#DejaVuSans-Bold-61" transform="translate(70.666016 0)"/>
     <use xlink:href="#DejaVuSans-Bold-72" transform="translate(138.146484 0)"/>
     <use xlink:href="#DejaVuSans-Bold-6b" transform="translate(187.462891 0)"/>
    </g>
   </g>
   <g id="text_10">
    <!-- Smith -->
    <g transform="translate(408.188293 321.339683) scale(0.12 -0.12)">
     <defs>
      <path id="DejaVuSans-Bold-53" d="M 3834 4519 
L 3834 3531 
Q 3450 3703 3084 3790 
Q 2719 3878 2394 3878 
Q 1963 3878 1756 3759 
Q 1550 3641 1550 3391 
Q 1550 3203 1689 3098 
Q 1828 2994 2194 2919 
L 2706 2816 
Q 3484 2659 3812 2340 
Q 4141 2022 4141 1434 
Q 4141 663 3683 286 
Q 3225 -91 2284 -91 
Q 1841 -91 1394 -6 
Q 947 78 500 244 
L 500 1259 
Q 947 1022 1364 901 
Q 1781 781 2169 781 
Q 2563 781 2772 912 
Q 2981 1044 2981 1288 
Q 2981 1506 2839 1625 
Q 2697 1744 2272 1838 
L 1806 1941 
Q 1106 2091 782 2419 
Q 459 2747 459 3303 
Q 459 4000 909 4375 
Q 1359 4750 2203 4750 
Q 2588 4750 2994 4692 
Q 3400 4634 3834 4519 
z
" transform="scale(0.015625)"/>
      <path id="DejaVuSans-Bold-6d" d="M 3781 2919 
Q 3994 3244 4286 3414 
Q 4578 3584 4928 3584 
Q 5531 3584 5847 3212 
Q 6163 2841 6163 2131 
L 6163 0 
L 5038 0 
L 5038 1825 
Q 5041 1866 5042 1909 
Q 5044 1953 5044 2034 
Q 5044 2406 4934 2573 
Q 4825 2741 4581 2741 
Q 4263 2741 4089 2478 
Q 3916 2216 3909 1719 
L 3909 0 
L 2784 0 
L 2784 1825 
Q 2784 2406 2684 2573 
Q 2584 2741 2328 2741 
Q 2006 2741 1831 2477 
Q 1656 2213 1656 1722 
L 1656 0 
L 531 0 
L 531 3500 
L 1656 3500 
L 1656 2988 
Q 1863 3284 2130 3434 
Q 2397 3584 2719 3584 
Q 3081 3584 3359 3409 
Q 3638 3234 3781 2919 
z
" transform="scale(0.015625)"/>
     </defs>
     <use xlink:href="#DejaVuSans-Bold-53"/>
     <use xlink:href="#DejaVuSans-Bold-6d" transform="translate(72.021484 0)"/>
     <use xlink:href="#DejaVuSans-Bold-69" transform="translate(176.220703 0)"/>
     <use xlink:href="#DejaVuSans-Bold-74" transform="translate(210.498047 0)"/>
     <use xlink:href="#DejaVuSans-Bold-68" transform="translate(258.300781 0)"/>
    </g>
   </g>
   <g id="text_11">
    <!-- Taylor -->
    <g transform="translate(408.188293 205.037299) scale(0.12 -0.12)">
     <defs>
      <path id="DejaVuSans-Bold-54" d="M 31 4666 
L 4331 4666 
L 4331 3756 
L 2784 3756 
L 2784 0 
L 1581 0 
L 1581 3756 
L 31 3756 
L 31 4666 
z
" transform="scale(0.015625)"/>
      <path id="DejaVuSans-Bold-79" d="M 78 3500 
L 1197 3500 
L 2138 1125 
L 2938 3500 
L 4056 3500 
L 2584 -331 
Q 2363 -916 2067 -1148 
Q 1772 -1381 1288 -1381 
L 641 -1381 
L 641 -647 
L 991 -647 
Q 1275 -647 1404 -556 
Q 1534 -466 1606 -231 
L 1638 -134 
L 78 3500 
z
" transform="scale(0.015625)"/>
      <path id="DejaVuSans-Bold-6c" d="M 538 4863 
L 1656 4863 
L 1656 0 
L 538 0 
L 538 4863 
z
" transform="scale(0.015625)"/>
     </defs>
     <use xlink:href="#DejaVuSans-Bold-54"/>
     <use xlink:href="#DejaVuSans-Bold-61" transform="translate(55.337891 0)"/>
     <use xlink:href="#DejaVuSans-Bold-79" transform="translate(119.693359 0)"/>
     <use xlink:href="#DejaVuSans-Bold-6c" transform="translate(184.878906 0)"/>
     <use xlink:href="#DejaVuSans-Bold-6f" transform="translate(219.15625 0)"/>
     <use xlink:href="#DejaVuSans-Bold-72" transform="translate(287.857422 0)"/>
    </g>
   </g>
   <g id="text_12">
    <!-- Wilson -->
    <g transform="translate(339.855019 105.224616) scale(0.12 -0.12)">
     <defs>
      <path id="DejaVuSans-Bold-57" d="M 191 4666 
L 1344 4666 
L 2150 1275 
L 2950 4666 
L 4109 4666 
L 4909 1275 
L 5716 4666 
L 6859 4666 
L 5759 0 
L 4372 0 
L 3525 3547 
L 2688 0 
L 1300 0 
L 191 4666 
z
" transform="scale(0.015625)"/>
     </defs>
     <use xlink:href="#DejaVuSans-Bold-57"/>
     <use xlink:href="#DejaVuSans-Bold-69" transform="translate(110.302734 0)"/>
     <use xlink:href="#DejaVuSans-Bold-6c" transform="translate(144.580078 0)"/>
     <use xlink:href="#DejaVuSans-Bold-73" transform="translate(178.857422 0)"/>
     <use xlink:href="#DejaVuSans-Bold-6f" transform="translate(238.378906 0)"/>
     <use xlink:href="#DejaVuSans-Bold-6e" transform="translate(307.080078 0)"/>
    </g>
   </g>
  </g>
 </g>
 <defs>
  <clipPath id="pda9518ec2c">
   <rect x="7.529459" y="38.140678" width="443.52" height="443.52"/>
  </clipPath>
 </defs>
</svg>
