<?xml version="1.0" encoding="utf-8" standalone="no"?>
<!DOCTYPE svg PUBLIC "-//W3C//DTD SVG 1.1//EN"
  "http://www.w3.org/Graphics/SVG/1.1/DTD/svg11.dtd">
<svg xmlns:xlink="http://www.w3.org/1999/xlink" width="509.235551pt" height="488.860678pt" viewBox="0 0 509.235551 488.860678" xmlns="http://www.w3.org/2000/svg" version="1.1">
 <metadata>
  <rdf:RDF xmlns:dc="http://purl.org/dc/elements/1.1/" xmlns:cc="http://creativecommons.org/ns#" xmlns:rdf="http://www.w3.org/1999/02/22-rdf-syntax-ns#">
   <cc:Work>
    <dc:type rdf:resource="http://purl.org/dc/dcmitype/StillImage"/>
    <dc:date>2026-05-01T09:52:41.218805</dc:date>
    <dc:format>image/svg+xml</dc:format>
    <dc:creator>
     <cc:Agent>
      <dc:title>Matplotlib v3.8.2, https://matplotlib.org/</dc:title>
     </cc:Agent>
    </dc:creator>
   </cc:Work>
  </rdf:RDF>
 </metadata>
 <defs>
  <style type="text/css">*{stroke-linejoin: round; stroke-linecap: butt}</style>
 </defs>
 <g id="figure_1">
  <g id="patch_1">
   <path d="M 0 488.860678 
L 509.235551 488.860678 
L 509.235551 0 
L 0 0 
z
" style="fill: #ffffff"/>
  </g>
  <g id="axes_1">
   <g id="patch_2">
    <path d="M 258.900275 407.770727 
C 298.115871 407.770727 335.730576 392.190206 363.46019 364.460593 
C 391.189803 336.730979 406.770324 299.116274 406.770324 259.900678 
C 406.770324 220.685083 391.189803 183.070378 363.46019 155.340764 
C 335.730576 127.611151 298.115871 112.03063 258.900275 112.03063 
C 219.68468 112.03063 182.069975 127.611151 154.340361 155.340764 
C 126.610748 183.070378 111.030227 220.685083 111.030227 259.900678 
C 111.030227 299.116274 126.610748 336.730979 154.340361 364.460593 
C 182.069975 392.190206 219.68468 407.770727 258.900275 407.770727 
z
" clip-path="url(#p9f3690d289)" style="fill: #f0f4fa; stroke: #f0f4fa; stroke-linejoin: miter"/>
   </g>
   <g id="patch_3">
    <path d="M 160.039439 182.074337 
Q 262.174671 167.093769 350.977495 180.075014 
" clip-path="url(#p9f3690d289)" style="fill: none; opacity: 0.45; stroke: #999999; stroke-width: 0.96; stroke-linejoin: miter"/>
   </g>
   <g id="patch_4">
    <path d="M 142.070269 213.197854 
Q 212.851395 290.267957 240.226738 377.215367 
" clip-path="url(#p9f3690d289)" style="fill: none; opacity: 0.45; stroke: #999999; stroke-width: 0.96; stroke-linejoin: miter"/>
   </g>
   <g id="patch_5">
    <path d="M 155.224615 164.105166 
Q 187.81018 130.240547 220.335976 122.119019 
" clip-path="url(#p9f3690d289)" style="fill: none; opacity: 0.45; stroke: #999999; stroke-width: 0.96; stroke-linejoin: miter"/>
   </g>
   <g id="patch_6">
    <path d="M 124.101098 218.012678 
Q 151.075905 263.175073 131.149291 296.791692 
" clip-path="url(#p9f3690d289)" style="fill: none; opacity: 0.45; stroke: #999999; stroke-width: 0.96; stroke-linejoin: miter"/>
   </g>
   <g id="patch_7">
    <path d="M 393.699453 209.719215 
Q 406.768837 259.237586 397.231743 295.318656 
" clip-path="url(#p9f3690d289)" style="fill: none; opacity: 0.45; stroke: #999999; stroke-width: 0.96; stroke-linejoin: miter"/>
   </g>
   <g id="patch_8">
    <path d="M 282.841442 401.730922 
Q 312.236553 353.611822 354.727456 352.583785 
" clip-path="url(#p9f3690d289)" style="fill: none; opacity: 0.45; stroke: #999999; stroke-width: 0.96; stroke-linejoin: miter"/>
   </g>
   <g id="patch_9">
    <path d="M 259.982032 132.97463 
C 267.313539 132.97463 274.345754 130.061791 279.529912 124.877632 
C 284.714071 119.693474 287.62691 112.661259 287.62691 105.329752 
C 287.62691 97.998244 284.714071 90.966029 279.529912 85.781871 
C 274.345754 80.597712 267.313539 77.684873 259.982032 77.684873 
C 252.650524 77.684873 245.618309 80.597712 240.434151 85.781871 
C 235.249992 90.966029 232.337153 97.998244 232.337153 105.329752 
C 232.337153 112.661259 235.249992 119.693474 240.434151 124.877632 
C 245.618309 130.061791 252.650524 132.97463 259.982032 132.97463 
z
" clip-path="url(#p9f3690d289)" style="fill-opacity: 0.133333"/>
   </g>
   <g id="patch_10">
    <path d="M 125.182854 219.094434 
C 134.713813 219.094434 143.855693 215.307744 150.595099 208.568338 
C 157.334505 201.828932 161.121195 192.687053 161.121195 183.156093 
C 161.121195 173.625133 157.334505 164.483254 150.595099 157.743848 
C 143.855693 151.004442 134.713813 147.217752 125.182854 147.217752 
C 115.651894 147.217752 106.510015 151.004442 99.770609 157.743848 
C 93.031203 164.483254 89.244512 173.625133 89.244512 183.156093 
C 89.244512 192.687053 93.031203 201.828932 99.770609 208.568338 
C 106.510015 215.307744 115.651894 219.094434 125.182854 219.094434 
z
" clip-path="url(#p9f3690d289)" style="fill-opacity: 0.133333"/>
   </g>
   <g id="patch_11">
    <path d="M 125.182854 366.453654 
C 132.514361 366.453654 139.546576 363.540815 144.730735 358.356657 
C 149.914893 353.172498 152.827732 346.140283 152.827732 338.808776 
C 152.827732 331.477269 149.914893 324.445054 144.730735 319.260895 
C 139.546576 314.076737 132.514361 311.163898 125.182854 311.163898 
C 117.851347 311.163898 110.819132 314.076737 105.634973 319.260895 
C 100.450815 324.445054 97.537976 331.477269 97.537976 338.808776 
C 97.537976 346.140283 100.450815 353.172498 105.634973 358.356657 
C 110.819132 363.540815 117.851347 366.453654 125.182854 366.453654 
z
" clip-path="url(#p9f3690d289)" style="fill-opacity: 0.133333"/>
   </g>
   <g id="patch_12">
    <path d="M 259.982032 444.279995 
C 267.313539 444.279995 274.345754 441.367157 279.529912 436.182998 
C 284.714071 430.99884 287.62691 423.966625 287.62691 416.635117 
C 287.62691 409.30361 284.714071 402.271395 279.529912 397.087237 
C 274.345754 391.903078 267.313539 388.990239 259.982032 388.990239 
C 252.650524 388.990239 245.618309 391.903078 240.434151 397.087237 
C 235.249992 402.271395 232.337153 409.30361 232.337153 416.635117 
C 232.337153 423.966625 235.249992 430.99884 240.434151 436.182998 
C 245.618309 441.367157 252.650524 444.279995 259.982032 444.279995 
z
" clip-path="url(#p9f3690d289)" style="fill-opacity: 0.133333"/>
   </g>
   <g id="patch_13">
    <path d="M 394.781209 366.453654 
C 402.112716 366.453654 409.144931 363.540815 414.32909 358.356657 
C 419.513248 353.172498 422.426087 346.140283 422.426087 338.808776 
C 422.426087 331.477269 419.513248 324.445054 414.32909 319.260895 
C 409.144931 314.076737 402.112716 311.163898 394.781209 311.163898 
C 387.449702 311.163898 380.417487 314.076737 375.233328 319.260895 
C 370.04917 324.445054 367.136331 331.477269 367.136331 338.808776 
C 367.136331 346.140283 370.04917 353.172498 375.233328 358.356657 
C 380.417487 363.540815 387.449702 366.453654 394.781209 366.453654 
z
" clip-path="url(#p9f3690d289)" style="fill-opacity: 0.133333"/>
   </g>
   <g id="patch_14">
    <path d="M 394.781209 210.800971 
C 402.112716 210.800971 409.144931 207.888132 414.32909 202.703974 
C 419.513248 197.519815 422.426087 190.4876 422.426087 183.156093 
C 422.426087 175.824586 419.513248 168.792371 414.32909 163.608212 
C 409.144931 158.424054 402.112716 155.511215 394.781209 155.511215 
C 387.449702 155.511215 380.417487 158.424054 375.233328 163.608212 
C 370.04917 168.792371 367.136331 175.824586 367.136331 183.156093 
C 367.136331 190.4876 370.04917 197.519815 375.233328 202.703974 
C 380.417487 207.888132 387.449702 210.800971 394.781209 210.800971 
z
" clip-path="url(#p9f3690d289)" style="fill-opacity: 0.133333"/>
   </g>
   <g id="patch_15">
    <path d="M 258.900275 131.892873 
C 266.231783 131.892873 273.263998 128.980035 278.448156 123.795876 
C 283.632315 118.611718 286.545153 111.579503 286.545153 104.247995 
C 286.545153 96.916488 283.632315 89.884273 278.448156 84.700115 
C 273.263998 79.515956 266.231783 76.603117 258.900275 76.603117 
C 251.568768 76.603117 244.536553 79.515956 239.352395 84.700115 
C 234.168236 89.884273 231.255397 96.916488 231.255397 104.247995 
C 231.255397 111.579503 234.168236 118.611718 239.352395 123.795876 
C 244.536553 128.980035 251.568768 131.892873 258.900275 131.892873 
z
" clip-path="url(#p9f3690d289)" style="fill: #377eb8; stroke: #ffffff; stroke-width: 2.8; stroke-linejoin: miter"/>
   </g>
   <g id="patch_16">
    <path d="M 124.101098 218.012678 
C 133.632057 218.012678 142.773937 214.225988 149.513343 207.486582 
C 156.252749 200.747176 160.039439 191.605296 160.039439 182.074337 
C 160.039439 172.543377 156.252749 163.401498 149.513343 156.662092 
C 142.773937 149.922686 133.632057 146.135995 124.101098 146.135995 
C 114.570138 146.135995 105.428259 149.922686 98.688853 156.662092 
C 91.949447 163.401498 88.162756 172.543377 88.162756 182.074337 
C 88.162756 191.605296 91.949447 200.747176 98.688853 207.486582 
C 105.428259 214.225988 114.570138 218.012678 124.101098 218.012678 
z
" clip-path="url(#p9f3690d289)" style="fill: #e41a1c; stroke: #ffffff; stroke-width: 2.8; stroke-linejoin: miter"/>
   </g>
   <g id="patch_17">
    <path d="M 124.101098 365.371898 
C 131.432605 365.371898 138.46482 362.459059 143.648979 357.274901 
C 148.833137 352.090742 151.745976 345.058527 151.745976 337.72702 
C 151.745976 330.395512 148.833137 323.363298 143.648979 318.179139 
C 138.46482 312.994981 131.432605 310.082142 124.101098 310.082142 
C 116.76959 310.082142 109.737376 312.994981 104.553217 318.179139 
C 99.369059 323.363298 96.45622 330.395512 96.45622 337.72702 
C 96.45622 345.058527 99.369059 352.090742 104.553217 357.274901 
C 109.737376 362.459059 116.76959 365.371898 124.101098 365.371898 
z
" clip-path="url(#p9f3690d289)" style="fill: #377eb8; stroke: #ffffff; stroke-width: 2.8; stroke-linejoin: miter"/>
   </g>
   <g id="patch_18">
    <path d="M 258.900275 443.198239 
C 266.231783 443.198239 273.263998 440.285401 278.448156 435.101242 
C 283.632315 429.917083 286.545153 422.884869 286.545153 415.553361 
C 286.545153 408.221854 283.632315 401.189639 278.448156 396.005481 
C 273.263998 390.821322 266.231783 387.908483 258.900275 387.908483 
C 251.568768 387.908483 244.536553 390.821322 239.352395 396.005481 
C 234.168236 401.189639 231.255397 408.221854 231.255397 415.553361 
C 231.255397 422.884869 234.168236 429.917083 239.352395 435.101242 
C 244.536553 440.285401 251.568768 443.198239 258.900275 443.198239 
z
" clip-path="url(#p9f3690d289)" style="fill: #377eb8; stroke: #ffffff; stroke-width: 2.8; stroke-linejoin: miter"/>
   </g>
   <g id="patch_19">
    <path d="M 393.699453 365.371898 
C 401.03096 365.371898 408.063175 362.459059 413.247334 357.274901 
C 418.431492 352.090742 421.344331 345.058527 421.344331 337.72702 
C 421.344331 330.395512 418.431492 323.363298 413.247334 318.179139 
C 408.063175 312.994981 401.03096 310.082142 393.699453 310.082142 
C 386.367946 310.082142 379.335731 312.994981 374.151572 318.179139 
C 368.967414 323.363298 366.054575 330.395512 366.054575 337.72702 
C 366.054575 345.058527 368.967414 352.090742 374.151572 357.274901 
C 379.335731 362.459059 386.367946 365.371898 393.699453 365.371898 
z
" clip-path="url(#p9f3690d289)" style="fill: #4daf4a; stroke: #ffffff; stroke-width: 2.8; stroke-linejoin: miter"/>
   </g>
   <g id="patch_20">
    <path d="M 393.699453 209.719215 
C 401.03096 209.719215 408.063175 206.806376 413.247334 201.622218 
C 418.431492 196.438059 421.344331 189.405844 421.344331 182.074337 
C 421.344331 174.74283 418.431492 167.710615 413.247334 162.526456 
C 408.063175 157.342298 401.03096 154.429459 393.699453 154.429459 
C 386.367946 154.429459 379.335731 157.342298 374.151572 162.526456 
C 368.967414 167.710615 366.054575 174.74283 366.054575 182.074337 
C 366.054575 189.405844 368.967414 196.438059 374.151572 201.622218 
C 379.335731 206.806376 386.367946 209.719215 393.699453 209.719215 
z
" clip-path="url(#p9f3690d289)" style="fill: #377eb8; stroke: #ffffff; stroke-width: 2.8; stroke-linejoin: miter"/>
   </g>
   <g id="text_1">
    <!-- Flask dependency tree -->
    <g transform="translate(187.823127 46.795703) scale(0.125 -0.125)">
     <defs>
      <path id="DejaVuSans-46" d="M 628 4666 
L 3309 4666 
L 3309 4134 
L 1259 4134 
L 1259 2759 
L 3109 2759 
L 3109 2228 
L 1259 2228 
L 1259 0 
L 628 0 
L 628 4666 
z
" transform="scale(0.015625)"/>
      <path id="DejaVuSans-6c" d="M 603 4863 
L 1178 4863 
L 1178 0 
L 603 0 
L 603 4863 
z
" transform="scale(0.015625)"/>
      <path id="DejaVuSans-61" d="M 2194 1759 
Q 1497 1759 1228 1600 
Q 959 1441 959 1056 
Q 959 750 1161 570 
Q 1363 391 1709 391 
Q 2188 391 2477 730 
Q 2766 1069 2766 1631 
L 2766 1759 
L 2194 1759 
z
M 3341 1997 
L 3341 0 
L 2766 0 
L 2766 531 
Q 2569 213 2275 61 
Q 1981 -91 1556 -91 
Q 1019 -91 701 211 
Q 384 513 384 1019 
Q 384 1609 779 1909 
Q 1175 2209 1959 2209 
L 2766 2209 
L 2766 2266 
Q 2766 2663 2505 2880 
Q 2244 3097 1772 3097 
Q 1472 3097 1187 3025 
Q 903 2953 641 2809 
L 641 3341 
Q 956 3463 1253 3523 
Q 1550 3584 1831 3584 
Q 2591 3584 2966 3190 
Q 3341 2797 3341 1997 
z
" transform="scale(0.015625)"/>
      <path id="DejaVuSans-73" d="M 2834 3397 
L 2834 2853 
Q 2591 2978 2328 3040 
Q 2066 3103 1784 3103 
Q 1356 3103 1142 2972 
Q 928 2841 928 2578 
Q 928 2378 1081 2264 
Q 1234 2150 1697 2047 
L 1894 2003 
Q 2506 1872 2764 1633 
Q 3022 1394 3022 966 
Q 3022 478 2636 193 
Q 2250 -91 1575 -91 
Q 1294 -91 989 -36 
Q 684 19 347 128 
L 347 722 
Q 666 556 975 473 
Q 1284 391 1588 391 
Q 1994 391 2212 530 
Q 2431 669 2431 922 
Q 2431 1156 2273 1281 
Q 2116 1406 1581 1522 
L 1381 1569 
Q 847 1681 609 1914 
Q 372 2147 372 2553 
Q 372 3047 722 3315 
Q 1072 3584 1716 3584 
Q 2034 3584 2315 3537 
Q 2597 3491 2834 3397 
z
" transform="scale(0.015625)"/>
      <path id="DejaVuSans-6b" d="M 581 4863 
L 1159 4863 
L 1159 1991 
L 2875 3500 
L 3609 3500 
L 1753 1863 
L 3688 0 
L 2938 0 
L 1159 1709 
L 1159 0 
L 581 0 
L 581 4863 
z
" transform="scale(0.015625)"/>
      <path id="DejaVuSans-20" transform="scale(0.015625)"/>
      <path id="DejaVuSans-64" d="M 2906 2969 
L 2906 4863 
L 3481 4863 
L 3481 0 
L 2906 0 
L 2906 525 
Q 2725 213 2448 61 
Q 2172 -91 1784 -91 
Q 1150 -91 751 415 
Q 353 922 353 1747 
Q 353 2572 751 3078 
Q 1150 3584 1784 3584 
Q 2172 3584 2448 3432 
Q 2725 3281 2906 2969 
z
M 947 1747 
Q 947 1113 1208 752 
Q 1469 391 1925 391 
Q 2381 391 2643 752 
Q 2906 1113 2906 1747 
Q 2906 2381 2643 2742 
Q 2381 3103 1925 3103 
Q 1469 3103 1208 2742 
Q 947 2381 947 1747 
z
" transform="scale(0.015625)"/>
      <path id="DejaVuSans-65" d="M 3597 1894 
L 3597 1613 
L 953 1613 
Q 991 1019 1311 708 
Q 1631 397 2203 397 
Q 2534 397 2845 478 
Q 3156 559 3463 722 
L 3463 178 
Q 3153 47 2828 -22 
Q 2503 -91 2169 -91 
Q 1331 -91 842 396 
Q 353 884 353 1716 
Q 353 2575 817 3079 
Q 1281 3584 2069 3584 
Q 2775 3584 3186 3129 
Q 3597 2675 3597 1894 
z
M 3022 2063 
Q 3016 2534 2758 2815 
Q 2500 3097 2075 3097 
Q 1594 3097 1305 2825 
Q 1016 2553 972 2059 
L 3022 2063 
z
" transform="scale(0.015625)"/>
      <path id="DejaVuSans-70" d="M 1159 525 
L 1159 -1331 
L 581 -1331 
L 581 3500 
L 1159 3500 
L 1159 2969 
Q 1341 3281 1617 3432 
Q 1894 3584 2278 3584 
Q 2916 3584 3314 3078 
Q 3713 2572 3713 1747 
Q 3713 922 3314 415 
Q 2916 -91 2278 -91 
Q 1894 -91 1617 61 
Q 1341 213 1159 525 
z
M 3116 1747 
Q 3116 2381 2855 2742 
Q 2594 3103 2138 3103 
Q 1681 3103 1420 2742 
Q 1159 2381 1159 1747 
Q 1159 1113 1420 752 
Q 1681 391 2138 391 
Q 2594 391 2855 752 
Q 3116 1113 3116 1747 
z
" transform="scale(0.015625)"/>
      <path id="DejaVuSans-6e" d="M 3513 2113 
L 3513 0 
L 2938 0 
L 2938 2094 
Q 2938 2591 2744 2837 
Q 2550 3084 2163 3084 
Q 1697 3084 1428 2787 
Q 1159 2491 1159 1978 
L 1159 0 
L 581 0 
L 581 3500 
L 1159 3500 
L 1159 2956 
Q 1366 3272 1645 3428 
Q 1925 3584 2291 3584 
Q 2894 3584 3203 3211 
Q 3513 2838 3513 2113 
z
" transform="scale(0.015625)"/>
      <path id="DejaVuSans-63" d="M 3122 3366 
L 3122 2828 
Q 2878 2963 2633 3030 
Q 2388 3097 2138 3097 
Q 1578 3097 1268 2742 
Q 959 2388 959 1747 
Q 959 1106 1268 751 
Q 1578 397 2138 397 
Q 2388 397 2633 464 
Q 2878 531 3122 666 
L 3122 134 
Q 2881 22 2623 -34 
Q 2366 -91 2075 -91 
Q 1284 -91 818 406 
Q 353 903 353 1747 
Q 353 2603 823 3093 
Q 1294 3584 2113 3584 
Q 2378 3584 2631 3529 
Q 2884 3475 3122 3366 
z
" transform="scale(0.015625)"/>
      <path id="DejaVuSans-79" d="M 2059 -325 
Q 1816 -950 1584 -1140 
Q 1353 -1331 966 -1331 
L 506 -1331 
L 506 -850 
L 844 -850 
Q 1081 -850 1212 -737 
Q 1344 -625 1503 -206 
L 1606 56 
L 191 3500 
L 800 3500 
L 1894 763 
L 2988 3500 
L 3597 3500 
L 2059 -325 
z
" transform="scale(0.015625)"/>
      <path id="DejaVuSans-74" d="M 1172 4494 
L 1172 3500 
L 2356 3500 
L 2356 3053 
L 1172 3053 
L 1172 1153 
Q 1172 725 1289 603 
Q 1406 481 1766 481 
L 2356 481 
L 2356 0 
L 1766 0 
Q 1100 0 847 248 
Q 594 497 594 1153 
L 594 3053 
L 172 3053 
L 172 3500 
L 594 3500 
L 594 4494 
L 1172 4494 
z
" transform="scale(0.015625)"/>
      <path id="DejaVuSans-72" d="M 2631 2963 
Q 2534 3019 2420 3045 
Q 2306 3072 2169 3072 
Q 1681 3072 1420 2755 
Q 1159 2438 1159 1844 
L 1159 0 
L 581 0 
L 581 3500 
L 1159 3500 
L 1159 2956 
Q 1341 3275 1631 3429 
Q 1922 3584 2338 3584 
Q 2397 3584 2469 3576 
Q 2541 3569 2628 3553 
L 2631 2963 
z
" transform="scale(0.015625)"/>
     </defs>
     <use xlink:href="#DejaVuSans-46"/>
     <use xlink:href="#DejaVuSans-6c" x="57.519531"/>
     <use xlink:href="#DejaVuSans-61" x="85.302734"/>
     <use xlink:href="#DejaVuSans-73" x="146.582031"/>
     <use xlink:href="#DejaVuSans-6b" x="198.681641"/>
     <use xlink:href="#DejaVuSans-20" x="256.591797"/>
     <use xlink:href="#DejaVuSans-64" x="288.378906"/>
     <use xlink:href="#DejaVuSans-65" x="351.855469"/>
     <use xlink:href="#DejaVuSans-70" x="413.378906"/>
     <use xlink:href="#DejaVuSans-65" x="476.855469"/>
     <use xlink:href="#DejaVuSans-6e" x="538.378906"/>
     <use xlink:href="#DejaVuSans-64" x="601.757812"/>
     <use xlink:href="#DejaVuSans-65" x="665.234375"/>
     <use xlink:href="#DejaVuSans-6e" x="726.757812"/>
     <use xlink:href="#DejaVuSans-63" x="790.136719"/>
     <use xlink:href="#DejaVuSans-79" x="845.117188"/>
     <use xlink:href="#DejaVuSans-20" x="904.296875"/>
     <use xlink:href="#DejaVuSans-74" x="936.083984"/>
     <use xlink:href="#DejaVuSans-72" x="975.292969"/>
     <use xlink:href="#DejaVuSans-65" x="1014.15625"/>
     <use xlink:href="#DejaVuSans-65" x="1075.679688"/>
    </g>
   </g>
   <g id="text_2">
    <!-- Software Dependencies -->
    <g transform="translate(91.802619 26.196094) scale(0.25 -0.25)">
     <defs>
      <path id="DejaVuSans-Bold-53" d="M 3834 4519 
L 3834 3531 
Q 3450 3703 3084 3790 
Q 2719 3878 2394 3878 
Q 1963 3878 1756 3759 
Q 1550 3641 1550 3391 
Q 1550 3203 1689 3098 
Q 1828 2994 2194 2919 
L 2706 2816 
Q 3484 2659 3812 2340 
Q 4141 2022 4141 1434 
Q 4141 663 3683 286 
Q 3225 -91 2284 -91 
Q 1841 -91 1394 -6 
Q 947 78 500 244 
L 500 1259 
Q 947 1022 1364 901 
Q 1781 781 2169 781 
Q 2563 781 2772 912 
Q 2981 1044 2981 1288 
Q 2981 1506 2839 1625 
Q 2697 1744 2272 1838 
L 1806 1941 
Q 1106 2091 782 2419 
Q 459 2747 459 3303 
Q 459 4000 909 4375 
Q 1359 4750 2203 4750 
Q 2588 4750 2994 4692 
Q 3400 4634 3834 4519 
z
" transform="scale(0.015625)"/>
      <path id="DejaVuSans-Bold-6f" d="M 2203 2784 
Q 1831 2784 1636 2517 
Q 1441 2250 1441 1747 
Q 1441 1244 1636 976 
Q 1831 709 2203 709 
Q 2569 709 2762 976 
Q 2956 1244 2956 1747 
Q 2956 2250 2762 2517 
Q 2569 2784 2203 2784 
z
M 2203 3584 
Q 3106 3584 3614 3096 
Q 4122 2609 4122 1747 
Q 4122 884 3614 396 
Q 3106 -91 2203 -91 
Q 1297 -91 786 396 
Q 275 884 275 1747 
Q 275 2609 786 3096 
Q 1297 3584 2203 3584 
z
" transform="scale(0.015625)"/>
      <path id="DejaVuSans-Bold-66" d="M 2841 4863 
L 2841 4128 
L 2222 4128 
Q 1984 4128 1890 4042 
Q 1797 3956 1797 3744 
L 1797 3500 
L 2753 3500 
L 2753 2700 
L 1797 2700 
L 1797 0 
L 678 0 
L 678 2700 
L 122 2700 
L 122 3500 
L 678 3500 
L 678 3744 
Q 678 4316 997 4589 
Q 1316 4863 1984 4863 
L 2841 4863 
z
" transform="scale(0.015625)"/>
      <path id="DejaVuSans-Bold-74" d="M 1759 4494 
L 1759 3500 
L 2913 3500 
L 2913 2700 
L 1759 2700 
L 1759 1216 
Q 1759 972 1856 886 
Q 1953 800 2241 800 
L 2816 800 
L 2816 0 
L 1856 0 
Q 1194 0 917 276 
Q 641 553 641 1216 
L 641 2700 
L 84 2700 
L 84 3500 
L 641 3500 
L 641 4494 
L 1759 4494 
z
" transform="scale(0.015625)"/>
      <path id="DejaVuSans-Bold-77" d="M 225 3500 
L 1313 3500 
L 1900 1088 
L 2491 3500 
L 3425 3500 
L 4013 1113 
L 4603 3500 
L 5691 3500 
L 4769 0 
L 3547 0 
L 2956 2406 
L 2369 0 
L 1147 0 
L 225 3500 
z
" transform="scale(0.015625)"/>
      <path id="DejaVuSans-Bold-61" d="M 2106 1575 
Q 1756 1575 1579 1456 
Q 1403 1338 1403 1106 
Q 1403 894 1545 773 
Q 1688 653 1941 653 
Q 2256 653 2472 879 
Q 2688 1106 2688 1447 
L 2688 1575 
L 2106 1575 
z
M 3816 1997 
L 3816 0 
L 2688 0 
L 2688 519 
Q 2463 200 2181 54 
Q 1900 -91 1497 -91 
Q 953 -91 614 226 
Q 275 544 275 1050 
Q 275 1666 698 1953 
Q 1122 2241 2028 2241 
L 2688 2241 
L 2688 2328 
Q 2688 2594 2478 2717 
Q 2269 2841 1825 2841 
Q 1466 2841 1156 2769 
Q 847 2697 581 2553 
L 581 3406 
Q 941 3494 1303 3539 
Q 1666 3584 2028 3584 
Q 2975 3584 3395 3211 
Q 3816 2838 3816 1997 
z
" transform="scale(0.015625)"/>
      <path id="DejaVuSans-Bold-72" d="M 3138 2547 
Q 2991 2616 2845 2648 
Q 2700 2681 2553 2681 
Q 2122 2681 1889 2404 
Q 1656 2128 1656 1613 
L 1656 0 
L 538 0 
L 538 3500 
L 1656 3500 
L 1656 2925 
Q 1872 3269 2151 3426 
Q 2431 3584 2822 3584 
Q 2878 3584 2943 3579 
Q 3009 3575 3134 3559 
L 3138 2547 
z
" transform="scale(0.015625)"/>
      <path id="DejaVuSans-Bold-65" d="M 4031 1759 
L 4031 1441 
L 1416 1441 
Q 1456 1047 1700 850 
Q 1944 653 2381 653 
Q 2734 653 3104 758 
Q 3475 863 3866 1075 
L 3866 213 
Q 3469 63 3072 -14 
Q 2675 -91 2278 -91 
Q 1328 -91 801 392 
Q 275 875 275 1747 
Q 275 2603 792 3093 
Q 1309 3584 2216 3584 
Q 3041 3584 3536 3087 
Q 4031 2591 4031 1759 
z
M 2881 2131 
Q 2881 2450 2695 2645 
Q 2509 2841 2209 2841 
Q 1884 2841 1681 2658 
Q 1478 2475 1428 2131 
L 2881 2131 
z
" transform="scale(0.015625)"/>
      <path id="DejaVuSans-Bold-20" transform="scale(0.015625)"/>
      <path id="DejaVuSans-Bold-44" d="M 1791 3756 
L 1791 909 
L 2222 909 
Q 2959 909 3348 1275 
Q 3738 1641 3738 2338 
Q 3738 3031 3350 3393 
Q 2963 3756 2222 3756 
L 1791 3756 
z
M 588 4666 
L 1856 4666 
Q 2919 4666 3439 4514 
Q 3959 4363 4331 4000 
Q 4659 3684 4818 3271 
Q 4978 2859 4978 2338 
Q 4978 1809 4818 1395 
Q 4659 981 4331 666 
Q 3956 303 3431 151 
Q 2906 0 1856 0 
L 588 0 
L 588 4666 
z
" transform="scale(0.015625)"/>
      <path id="DejaVuSans-Bold-70" d="M 1656 506 
L 1656 -1331 
L 538 -1331 
L 538 3500 
L 1656 3500 
L 1656 2988 
Q 1888 3294 2169 3439 
Q 2450 3584 2816 3584 
Q 3463 3584 3878 3070 
Q 4294 2556 4294 1747 
Q 4294 938 3878 423 
Q 3463 -91 2816 -91 
Q 2450 -91 2169 54 
Q 1888 200 1656 506 
z
M 2400 2772 
Q 2041 2772 1848 2508 
Q 1656 2244 1656 1747 
Q 1656 1250 1848 986 
Q 2041 722 2400 722 
Q 2759 722 2948 984 
Q 3138 1247 3138 1747 
Q 3138 2247 2948 2509 
Q 2759 2772 2400 2772 
z
" transform="scale(0.015625)"/>
      <path id="DejaVuSans-Bold-6e" d="M 4056 2131 
L 4056 0 
L 2931 0 
L 2931 347 
L 2931 1631 
Q 2931 2084 2911 2256 
Q 2891 2428 2841 2509 
Q 2775 2619 2662 2680 
Q 2550 2741 2406 2741 
Q 2056 2741 1856 2470 
Q 1656 2200 1656 1722 
L 1656 0 
L 538 0 
L 538 3500 
L 1656 3500 
L 1656 2988 
Q 1909 3294 2193 3439 
Q 2478 3584 2822 3584 
Q 3428 3584 3742 3212 
Q 4056 2841 4056 2131 
z
" transform="scale(0.015625)"/>
      <path id="DejaVuSans-Bold-64" d="M 2919 2988 
L 2919 4863 
L 4044 4863 
L 4044 0 
L 2919 0 
L 2919 506 
Q 2688 197 2409 53 
Q 2131 -91 1766 -91 
Q 1119 -91 703 423 
Q 288 938 288 1747 
Q 288 2556 703 3070 
Q 1119 3584 1766 3584 
Q 2128 3584 2408 3439 
Q 2688 3294 2919 2988 
z
M 2181 722 
Q 2541 722 2730 984 
Q 2919 1247 2919 1747 
Q 2919 2247 2730 2509 
Q 2541 2772 2181 2772 
Q 1825 2772 1636 2509 
Q 1447 2247 1447 1747 
Q 1447 1247 1636 984 
Q 1825 722 2181 722 
z
" transform="scale(0.015625)"/>
      <path id="DejaVuSans-Bold-63" d="M 3366 3391 
L 3366 2478 
Q 3138 2634 2908 2709 
Q 2678 2784 2431 2784 
Q 1963 2784 1702 2511 
Q 1441 2238 1441 1747 
Q 1441 1256 1702 982 
Q 1963 709 2431 709 
Q 2694 709 2930 787 
Q 3166 866 3366 1019 
L 3366 103 
Q 3103 6 2833 -42 
Q 2563 -91 2291 -91 
Q 1344 -91 809 395 
Q 275 881 275 1747 
Q 275 2613 809 3098 
Q 1344 3584 2291 3584 
Q 2566 3584 2833 3536 
Q 3100 3488 3366 3391 
z
" transform="scale(0.015625)"/>
      <path id="DejaVuSans-Bold-69" d="M 538 3500 
L 1656 3500 
L 1656 0 
L 538 0 
L 538 3500 
z
M 538 4863 
L 1656 4863 
L 1656 3950 
L 538 3950 
L 538 4863 
z
" transform="scale(0.015625)"/>
      <path id="DejaVuSans-Bold-73" d="M 3272 3391 
L 3272 2541 
Q 2913 2691 2578 2766 
Q 2244 2841 1947 2841 
Q 1628 2841 1473 2761 
Q 1319 2681 1319 2516 
Q 1319 2381 1436 2309 
Q 1553 2238 1856 2203 
L 2053 2175 
Q 2913 2066 3209 1816 
Q 3506 1566 3506 1031 
Q 3506 472 3093 190 
Q 2681 -91 1863 -91 
Q 1516 -91 1145 -36 
Q 775 19 384 128 
L 384 978 
Q 719 816 1070 734 
Q 1422 653 1784 653 
Q 2113 653 2278 743 
Q 2444 834 2444 1013 
Q 2444 1163 2330 1236 
Q 2216 1309 1875 1350 
L 1678 1375 
Q 931 1469 631 1722 
Q 331 1975 331 2491 
Q 331 3047 712 3315 
Q 1094 3584 1881 3584 
Q 2191 3584 2531 3537 
Q 2872 3491 3272 3391 
z
" transform="scale(0.015625)"/>
     </defs>
     <use xlink:href="#DejaVuSans-Bold-53"/>
     <use xlink:href="#DejaVuSans-Bold-6f" x="72.021484"/>
     <use xlink:href="#DejaVuSans-Bold-66" x="140.722656"/>
     <use xlink:href="#DejaVuSans-Bold-74" x="184.228516"/>
     <use xlink:href="#DejaVuSans-Bold-77" x="232.03125"/>
     <use xlink:href="#DejaVuSans-Bold-61" x="324.414062"/>
     <use xlink:href="#DejaVuSans-Bold-72" x="391.894531"/>
     <use xlink:href="#DejaVuSans-Bold-65" x="441.210938"/>
     <use xlink:href="#DejaVuSans-Bold-20" x="509.033203"/>
     <use xlink:href="#DejaVuSans-Bold-44" x="543.847656"/>
     <use xlink:href="#DejaVuSans-Bold-65" x="626.855469"/>
     <use xlink:href="#DejaVuSans-Bold-70" x="694.677734"/>
     <use xlink:href="#DejaVuSans-Bold-65" x="766.259766"/>
     <use xlink:href="#DejaVuSans-Bold-6e" x="834.082031"/>
     <use xlink:href="#DejaVuSans-Bold-64" x="905.273438"/>
     <use xlink:href="#DejaVuSans-Bold-65" x="976.855469"/>
     <use xlink:href="#DejaVuSans-Bold-6e" x="1044.677734"/>
     <use xlink:href="#DejaVuSans-Bold-63" x="1115.869141"/>
     <use xlink:href="#DejaVuSans-Bold-69" x="1175.146484"/>
     <use xlink:href="#DejaVuSans-Bold-65" x="1209.423828"/>
     <use xlink:href="#DejaVuSans-Bold-73" x="1277.246094"/>
    </g>
   </g>
   <g id="patch_21">
    <path d="M 251.15971 108.118278 
C 254.238943 108.118278 257.192473 106.894886 259.369819 104.717539 
C 261.547166 102.540193 262.770558 99.586663 262.770558 96.50743 
C 262.770558 93.428196 261.547166 90.474666 259.369819 88.29732 
C 257.192473 86.119973 254.238943 84.896581 251.15971 84.896581 
C 248.080476 84.896581 245.126946 86.119973 242.9496 88.29732 
C 240.772253 90.474666 239.548861 93.428196 239.548861 96.50743 
C 239.548861 99.586663 240.772253 102.540193 242.9496 104.717539 
C 245.126946 106.894886 248.080476 108.118278 251.15971 108.118278 
z
" clip-path="url(#p9f3690d289)" style="fill: #ffffff; opacity: 0.22"/>
   </g>
   <g id="patch_22">
    <path d="M 114.038362 187.105705 
C 118.041365 187.105705 121.880955 185.515295 124.711505 182.684744 
C 127.542056 179.854194 129.132466 176.014604 129.132466 172.011601 
C 129.132466 168.008598 127.542056 164.169009 124.711505 161.338458 
C 121.880955 158.507908 118.041365 156.917498 114.038362 156.917498 
C 110.035359 156.917498 106.19577 158.507908 103.365219 161.338458 
C 100.534669 164.169009 98.944259 168.008598 98.944259 172.011601 
C 98.944259 176.014604 100.534669 179.854194 103.365219 182.684744 
C 106.19577 185.515295 110.035359 187.105705 114.038362 187.105705 
z
" clip-path="url(#p9f3690d289)" style="fill: #ffffff; opacity: 0.22"/>
   </g>
   <g id="patch_23">
    <path d="M 116.360532 341.597303 
C 119.439765 341.597303 122.393295 340.37391 124.570642 338.196564 
C 126.747988 336.019217 127.971381 333.065687 127.971381 329.986454 
C 127.971381 326.907221 126.747988 323.953691 124.570642 321.776344 
C 122.393295 319.598997 119.439765 318.375605 116.360532 318.375605 
C 113.281299 318.375605 110.327769 319.598997 108.150422 321.776344 
C 105.973075 323.953691 104.749683 326.907221 104.749683 329.986454 
C 104.749683 333.065687 105.973075 336.019217 108.150422 338.196564 
C 110.327769 340.37391 113.281299 341.597303 116.360532 341.597303 
z
" clip-path="url(#p9f3690d289)" style="fill: #ffffff; opacity: 0.22"/>
   </g>
   <g id="patch_24">
    <path d="M 251.15971 419.423644 
C 254.238943 419.423644 257.192473 418.200252 259.369819 416.022905 
C 261.547166 413.845559 262.770558 410.892029 262.770558 407.812795 
C 262.770558 404.733562 261.547166 401.780032 259.369819 399.602686 
C 257.192473 397.425339 254.238943 396.201947 251.15971 396.201947 
C 248.080476 396.201947 245.126946 397.425339 242.9496 399.602686 
C 240.772253 401.780032 239.548861 404.733562 239.548861 407.812795 
C 239.548861 410.892029 240.772253 413.845559 242.9496 416.022905 
C 245.126946 418.200252 248.080476 419.423644 251.15971 419.423644 
z
" clip-path="url(#p9f3690d289)" style="fill: #ffffff; opacity: 0.22"/>
   </g>
   <g id="patch_25">
    <path d="M 385.958887 341.597303 
C 389.03812 341.597303 391.99165 340.37391 394.168997 338.196564 
C 396.346344 336.019217 397.569736 333.065687 397.569736 329.986454 
C 397.569736 326.907221 396.346344 323.953691 394.168997 321.776344 
C 391.99165 319.598997 389.03812 318.375605 385.958887 318.375605 
C 382.879654 318.375605 379.926124 319.598997 377.748777 321.776344 
C 375.571431 323.953691 374.348038 326.907221 374.348038 329.986454 
C 374.348038 333.065687 375.571431 336.019217 377.748777 338.196564 
C 379.926124 340.37391 382.879654 341.597303 385.958887 341.597303 
z
" clip-path="url(#p9f3690d289)" style="fill: #ffffff; opacity: 0.22"/>
   </g>
   <g id="patch_26">
    <path d="M 385.958887 185.94462 
C 389.03812 185.94462 391.99165 184.721228 394.168997 182.543881 
C 396.346344 180.366534 397.569736 177.413004 397.569736 174.333771 
C 397.569736 171.254538 396.346344 168.301008 394.168997 166.123661 
C 391.99165 163.946315 389.03812 162.722922 385.958887 162.722922 
C 382.879654 162.722922 379.926124 163.946315 377.748777 166.123661 
C 375.571431 168.301008 374.348038 171.254538 374.348038 174.333771 
C 374.348038 177.413004 375.571431 180.366534 377.748777 182.543881 
C 379.926124 184.721228 382.879654 185.94462 385.958887 185.94462 
z
" clip-path="url(#p9f3690d289)" style="fill: #ffffff; opacity: 0.22"/>
   </g>
   <g id="patch_27">
    <path d="M 364.654575 182.074337 
L 350.369005 184.237604 
L 351.585984 175.912424 
z
" clip-path="url(#p9f3690d289)" style="fill: #999999; opacity: 0.45"/>
   </g>
   <g id="patch_28">
    <path d="M 244.377836 390.399759 
L 236.214097 378.478744 
L 244.239379 375.951989 
z
" clip-path="url(#p9f3690d289)" style="fill: #999999; opacity: 0.45"/>
   </g>
   <g id="patch_29">
    <path d="M 233.746673 118.770434 
L 221.35511 126.200535 
L 219.316841 118.037502 
z
" clip-path="url(#p9f3690d289)" style="fill: #999999; opacity: 0.45"/>
   </g>
   <g id="patch_30">
    <path d="M 124.101098 308.682142 
L 127.530458 294.64659 
L 134.768123 298.936794 
z
" clip-path="url(#p9f3690d289)" style="fill: #999999; opacity: 0.45"/>
   </g>
   <g id="patch_31">
    <path d="M 393.699453 308.682142 
L 393.164596 294.243611 
L 401.298891 296.393701 
z
" clip-path="url(#p9f3690d289)" style="fill: #999999; opacity: 0.45"/>
   </g>
   <g id="patch_32">
    <path d="M 368.545851 352.249459 
L 354.829207 356.789384 
L 354.625704 348.378186 
z
" clip-path="url(#p9f3690d289)" style="fill: #999999; opacity: 0.45"/>
   </g>
   <g id="text_3">
    <!-- click -->
    <g transform="translate(243.682775 69.299687) scale(0.12 -0.12)">
     <defs>
      <path id="DejaVuSans-Bold-6c" d="M 538 4863 
L 1656 4863 
L 1656 0 
L 538 0 
L 538 4863 
z
" transform="scale(0.015625)"/>
      <path id="DejaVuSans-Bold-6b" d="M 538 4863 
L 1656 4863 
L 1656 2216 
L 2944 3500 
L 4244 3500 
L 2534 1894 
L 4378 0 
L 3022 0 
L 1656 1459 
L 1656 0 
L 538 0 
L 538 4863 
z
" transform="scale(0.015625)"/>
     </defs>
     <use xlink:href="#DejaVuSans-Bold-63"/>
     <use xlink:href="#DejaVuSans-Bold-6c" x="59.277344"/>
     <use xlink:href="#DejaVuSans-Bold-69" x="93.554688"/>
     <use xlink:href="#DejaVuSans-Bold-63" x="127.832031"/>
     <use xlink:href="#DejaVuSans-Bold-6b" x="187.109375"/>
    </g>
   </g>
   <g id="text_4">
    <!-- flask -->
    <g transform="translate(107.824223 185.385587) scale(0.12 -0.12)">
     <use xlink:href="#DejaVuSans-Bold-66"/>
     <use xlink:href="#DejaVuSans-Bold-6c" x="43.505859"/>
     <use xlink:href="#DejaVuSans-Bold-61" x="77.783203"/>
     <use xlink:href="#DejaVuSans-Bold-73" x="145.263672"/>
     <use xlink:href="#DejaVuSans-Bold-6b" x="204.785156"/>
    </g>
   </g>
   <g id="text_5">
    <!-- itsdangerous -->
    <g transform="translate(7.2 363.071486) scale(0.12 -0.12)">
     <defs>
      <path id="DejaVuSans-Bold-67" d="M 2919 594 
Q 2688 288 2409 144 
Q 2131 0 1766 0 
Q 1125 0 706 504 
Q 288 1009 288 1791 
Q 288 2575 706 3076 
Q 1125 3578 1766 3578 
Q 2131 3578 2409 3434 
Q 2688 3291 2919 2981 
L 2919 3500 
L 4044 3500 
L 4044 353 
Q 4044 -491 3511 -936 
Q 2978 -1381 1966 -1381 
Q 1638 -1381 1331 -1331 
Q 1025 -1281 716 -1178 
L 716 -306 
Q 1009 -475 1290 -558 
Q 1572 -641 1856 -641 
Q 2406 -641 2662 -400 
Q 2919 -159 2919 353 
L 2919 594 
z
M 2181 2772 
Q 1834 2772 1640 2515 
Q 1447 2259 1447 1791 
Q 1447 1309 1634 1061 
Q 1822 813 2181 813 
Q 2531 813 2725 1069 
Q 2919 1325 2919 1791 
Q 2919 2259 2725 2515 
Q 2531 2772 2181 2772 
z
" transform="scale(0.015625)"/>
      <path id="DejaVuSans-Bold-75" d="M 500 1363 
L 500 3500 
L 1625 3500 
L 1625 3150 
Q 1625 2866 1622 2436 
Q 1619 2006 1619 1863 
Q 1619 1441 1641 1255 
Q 1663 1069 1716 984 
Q 1784 875 1895 815 
Q 2006 756 2150 756 
Q 2500 756 2700 1025 
Q 2900 1294 2900 1772 
L 2900 3500 
L 4019 3500 
L 4019 0 
L 2900 0 
L 2900 506 
Q 2647 200 2364 54 
Q 2081 -91 1741 -91 
Q 1134 -91 817 281 
Q 500 653 500 1363 
z
" transform="scale(0.015625)"/>
     </defs>
     <use xlink:href="#DejaVuSans-Bold-69"/>
     <use xlink:href="#DejaVuSans-Bold-74" x="34.277344"/>
     <use xlink:href="#DejaVuSans-Bold-73" x="82.080078"/>
     <use xlink:href="#DejaVuSans-Bold-64" x="141.601562"/>
     <use xlink:href="#DejaVuSans-Bold-61" x="213.183594"/>
     <use xlink:href="#DejaVuSans-Bold-6e" x="280.664062"/>
     <use xlink:href="#DejaVuSans-Bold-67" x="351.855469"/>
     <use xlink:href="#DejaVuSans-Bold-65" x="423.4375"/>
     <use xlink:href="#DejaVuSans-Bold-72" x="491.259766"/>
     <use xlink:href="#DejaVuSans-Bold-6f" x="540.576172"/>
     <use xlink:href="#DejaVuSans-Bold-75" x="609.277344"/>
     <use xlink:href="#DejaVuSans-Bold-73" x="680.46875"/>
    </g>
   </g>
   <g id="text_6">
    <!-- jinja2 -->
    <g transform="translate(240.23465 457.124169) scale(0.12 -0.12)">
     <defs>
      <path id="DejaVuSans-Bold-6a" d="M 538 3500 
L 1656 3500 
L 1656 63 
Q 1656 -641 1318 -1011 
Q 981 -1381 341 -1381 
L -213 -1381 
L -213 -647 
L -19 -647 
Q 300 -647 419 -503 
Q 538 -359 538 63 
L 538 3500 
z
M 538 4863 
L 1656 4863 
L 1656 3950 
L 538 3950 
L 538 4863 
z
" transform="scale(0.015625)"/>
      <path id="DejaVuSans-Bold-32" d="M 1844 884 
L 3897 884 
L 3897 0 
L 506 0 
L 506 884 
L 2209 2388 
Q 2438 2594 2547 2791 
Q 2656 2988 2656 3200 
Q 2656 3528 2436 3728 
Q 2216 3928 1850 3928 
Q 1569 3928 1234 3808 
Q 900 3688 519 3450 
L 519 4475 
Q 925 4609 1322 4679 
Q 1719 4750 2100 4750 
Q 2938 4750 3402 4381 
Q 3866 4013 3866 3353 
Q 3866 2972 3669 2642 
Q 3472 2313 2841 1759 
L 1844 884 
z
" transform="scale(0.015625)"/>
     </defs>
     <use xlink:href="#DejaVuSans-Bold-6a"/>
     <use xlink:href="#DejaVuSans-Bold-69" x="34.277344"/>
     <use xlink:href="#DejaVuSans-Bold-6e" x="68.554688"/>
     <use xlink:href="#DejaVuSans-Bold-6a" x="139.746094"/>
     <use xlink:href="#DejaVuSans-Bold-61" x="174.023438"/>
     <use xlink:href="#DejaVuSans-Bold-32" x="241.503906"/>
    </g>
   </g>
   <g id="text_7">
    <!-- markupsafe -->
    <g transform="translate(421.804301 363.071486) scale(0.12 -0.12)">
     <defs>
      <path id="DejaVuSans-Bold-6d" d="M 3781 2919 
Q 3994 3244 4286 3414 
Q 4578 3584 4928 3584 
Q 5531 3584 5847 3212 
Q 6163 2841 6163 2131 
L 6163 0 
L 5038 0 
L 5038 1825 
Q 5041 1866 5042 1909 
Q 5044 1953 5044 2034 
Q 5044 2406 4934 2573 
Q 4825 2741 4581 2741 
Q 4263 2741 4089 2478 
Q 3916 2216 3909 1719 
L 3909 0 
L 2784 0 
L 2784 1825 
Q 2784 2406 2684 2573 
Q 2584 2741 2328 2741 
Q 2006 2741 1831 2477 
Q 1656 2213 1656 1722 
L 1656 0 
L 531 0 
L 531 3500 
L 1656 3500 
L 1656 2988 
Q 1863 3284 2130 3434 
Q 2397 3584 2719 3584 
Q 3081 3584 3359 3409 
Q 3638 3234 3781 2919 
z
" transform="scale(0.015625)"/>
     </defs>
     <use xlink:href="#DejaVuSans-Bold-6d"/>
     <use xlink:href="#DejaVuSans-Bold-61" x="104.199219"/>
     <use xlink:href="#DejaVuSans-Bold-72" x="171.679688"/>
     <use xlink:href="#DejaVuSans-Bold-6b" x="220.996094"/>
     <use xlink:href="#DejaVuSans-Bold-75" x="287.5"/>
     <use xlink:href="#DejaVuSans-Bold-70" x="358.691406"/>
     <use xlink:href="#DejaVuSans-Bold-73" x="430.273438"/>
     <use xlink:href="#DejaVuSans-Bold-61" x="489.794922"/>
     <use xlink:href="#DejaVuSans-Bold-66" x="557.275391"/>
     <use xlink:href="#DejaVuSans-Bold-65" x="600.78125"/>
    </g>
   </g>
   <g id="text_8">
    <!-- werkzeug -->
    <g transform="translate(421.804301 163.25862) scale(0.12 -0.12)">
     <defs>
      <path id="DejaVuSans-Bold-7a" d="M 366 3500 
L 3419 3500 
L 3419 2719 
L 1575 800 
L 3419 800 
L 3419 0 
L 288 0 
L 288 781 
L 2131 2700 
L 366 2700 
L 366 3500 
z
" transform="scale(0.015625)"/>
     </defs>
     <use xlink:href="#DejaVuSans-Bold-77"/>
     <use xlink:href="#DejaVuSans-Bold-65" x="92.382812"/>
     <use xlink:href="#DejaVuSans-Bold-72" x="160.205078"/>
     <use xlink:href="#DejaVuSans-Bold-6b" x="209.521484"/>
     <use xlink:href="#DejaVuSans-Bold-7a" x="276.025391"/>
     <use xlink:href="#DejaVuSans-Bold-65" x="334.228516"/>
     <use xlink:href="#DejaVuSans-Bold-75" x="402.050781"/>
     <use xlink:href="#DejaVuSans-Bold-67" x="473.242188"/>
    </g>
   </g>
  </g>
 </g>
 <defs>
  <clipPath id="p9f3690d289">
   <rect x="37.140275" y="38.140678" width="443.52" height="443.52"/>
  </clipPath>
 </defs>
</svg>
