<?xml version="1.0" encoding="utf-8" standalone="no"?>
<!DOCTYPE svg PUBLIC "-//W3C//DTD SVG 1.1//EN"
  "http://www.w3.org/Graphics/SVG/1.1/DTD/svg11.dtd">
<svg xmlns:xlink="http://www.w3.org/1999/xlink" width="457.92pt" height="469.652873pt" viewBox="0 0 457.92 469.652873" xmlns="http://www.w3.org/2000/svg" version="1.1">
 <metadata>
  <rdf:RDF xmlns:dc="http://purl.org/dc/elements/1.1/" xmlns:cc="http://creativecommons.org/ns#" xmlns:rdf="http://www.w3.org/1999/02/22-rdf-syntax-ns#">
   <cc:Work>
    <dc:type rdf:resource="http://purl.org/dc/dcmitype/StillImage"/>
    <dc:date>2026-05-01T09:01:53.445498</dc:date>
    <dc:format>image/svg+xml</dc:format>
    <dc:creator>
     <cc:Agent>
      <dc:title>Matplotlib v3.8.2, https://matplotlib.org/</dc:title>
     </cc:Agent>
    </dc:creator>
   </cc:Work>
  </rdf:RDF>
 </metadata>
 <defs>
  <style type="text/css">*{stroke-linejoin: round; stroke-linecap: butt}</style>
 </defs>
 <g id="figure_1">
  <g id="patch_1">
   <path d="M 0 469.652873 
L 457.92 469.652873 
L 457.92 0 
L 0 0 
z
" style="fill: #ffffff"/>
  </g>
  <g id="axes_1">
   <g id="patch_2">
    <path d="M 228.96 388.562922 
C 268.175595 388.562922 305.790301 372.982401 333.519914 345.252788 
C 361.249528 317.523174 376.830049 279.908469 376.830049 240.692873 
C 376.830049 201.477278 361.249528 163.862573 333.519914 136.132959 
C 305.790301 108.403346 268.175595 92.822825 228.96 92.822825 
C 189.744405 92.822825 152.129699 108.403346 124.400086 136.132959 
C 96.670472 163.862573 81.089951 201.477278 81.089951 240.692873 
C 81.089951 279.908469 96.670472 317.523174 124.400086 345.252788 
C 152.129699 372.982401 189.744405 388.562922 228.96 388.562922 
z
" clip-path="url(#p595aca837e)" style="fill: #f0f4fa; stroke: #f0f4fa; stroke-linejoin: miter"/>
   </g>
   <g id="patch_3">
    <path d="M 139.760787 332.619269 
Q 190.72066 333.601619 218.589826 358.161788 
" clip-path="url(#p595aca837e)" style="fill: none; opacity: 0.45; stroke: #999999; stroke-width: 0.96; stroke-linejoin: miter"/>
   </g>
   <g id="patch_4">
    <path d="M 140.975114 147.266909 
Q 181.6008 121.748704 215.315056 116.293085 
" clip-path="url(#p595aca837e)" style="fill: none; opacity: 0.45; stroke: #999999; stroke-width: 0.96; stroke-linejoin: miter"/>
   </g>
   <g id="patch_5">
    <path d="M 135.534035 152.707987 
Q 123.35702 240.955517 135.687482 315.199827 
" clip-path="url(#p595aca837e)" style="fill: none; opacity: 0.45; stroke: #999999; stroke-width: 0.96; stroke-linejoin: miter"/>
   </g>
   <g id="patch_6">
    <path d="M 318.159213 332.619269 
Q 239.052169 231.792405 150.179126 159.863524 
" clip-path="url(#p595aca837e)" style="fill: none; opacity: 0.45; stroke: #999999; stroke-width: 0.96; stroke-linejoin: miter"/>
   </g>
   <g id="patch_7">
    <path d="M 320.886396 151.49366 
Q 298.437023 240.050686 316.710303 315.402408 
" clip-path="url(#p595aca837e)" style="fill: none; opacity: 0.45; stroke: #999999; stroke-width: 0.96; stroke-linejoin: miter"/>
   </g>
   <g id="patch_8">
    <path d="M 100.884854 238.764464 
Q 204.491218 183.295996 303.857557 153.638204 
" clip-path="url(#p595aca837e)" style="fill: none; opacity: 0.45; stroke: #999999; stroke-width: 0.96; stroke-linejoin: miter"/>
   </g>
   <g id="patch_9">
    <path d="M 356.967805 240.692873 
Q 229.705667 251.893362 116.068194 243.711574 
" clip-path="url(#p595aca837e)" style="fill: none; opacity: 0.45; stroke: #999999; stroke-width: 0.96; stroke-linejoin: miter"/>
   </g>
   <g id="patch_10">
    <path d="M 385.694439 269.419508 
C 393.025946 269.419508 400.058161 266.506669 405.24232 261.32251 
C 410.426478 256.138352 413.339317 249.106137 413.339317 241.77463 
C 413.339317 234.443122 410.426478 227.410907 405.24232 222.226749 
C 400.058161 217.04259 393.025946 214.129752 385.694439 214.129752 
C 378.362932 214.129752 371.330717 217.04259 366.146558 222.226749 
C 360.9624 227.410907 358.049561 234.443122 358.049561 241.77463 
C 358.049561 249.106137 360.9624 256.138352 366.146558 261.32251 
C 371.330717 266.506669 378.362932 269.419508 385.694439 269.419508 
z
" clip-path="url(#p595aca837e)" style="fill-opacity: 0.133333"/>
   </g>
   <g id="patch_11">
    <path d="M 74.389073 269.419508 
C 81.720581 269.419508 88.752795 266.506669 93.936954 261.32251 
C 99.121112 256.138352 102.033951 249.106137 102.033951 241.77463 
C 102.033951 234.443122 99.121112 227.410907 93.936954 222.226749 
C 88.752795 217.04259 81.720581 214.129752 74.389073 214.129752 
C 67.057566 214.129752 60.025351 217.04259 54.841192 222.226749 
C 49.657034 227.410907 46.744195 234.443122 46.744195 241.77463 
C 46.744195 249.106137 49.657034 256.138352 54.841192 261.32251 
C 60.025351 266.506669 67.057566 269.419508 74.389073 269.419508 
z
" clip-path="url(#p595aca837e)" style="fill-opacity: 0.133333"/>
   </g>
   <g id="patch_12">
    <path d="M 340.104824 159.35644 
C 347.436331 159.35644 354.468546 156.443601 359.652704 151.259443 
C 364.836863 146.075284 367.749702 139.043069 367.749702 131.711562 
C 367.749702 124.380055 364.836863 117.34784 359.652704 112.163681 
C 354.468546 106.979523 347.436331 104.066684 340.104824 104.066684 
C 332.773316 104.066684 325.741102 106.979523 320.556943 112.163681 
C 315.372784 117.34784 312.459946 124.380055 312.459946 131.711562 
C 312.459946 139.043069 315.372784 146.075284 320.556943 151.259443 
C 325.741102 156.443601 332.773316 159.35644 340.104824 159.35644 
z
" clip-path="url(#p595aca837e)" style="fill-opacity: 0.133333"/>
   </g>
   <g id="patch_13">
    <path d="M 340.104824 379.482575 
C 347.436331 379.482575 354.468546 376.569736 359.652704 371.385578 
C 364.836863 366.201419 367.749702 359.169205 367.749702 351.837697 
C 367.749702 344.50619 364.836863 337.473975 359.652704 332.289816 
C 354.468546 327.105658 347.436331 324.192819 340.104824 324.192819 
C 332.773316 324.192819 325.741102 327.105658 320.556943 332.289816 
C 315.372784 337.473975 312.459946 344.50619 312.459946 351.837697 
C 312.459946 359.169205 315.372784 366.201419 320.556943 371.385578 
C 325.741102 376.569736 332.773316 379.482575 340.104824 379.482575 
z
" clip-path="url(#p595aca837e)" style="fill-opacity: 0.133333"/>
   </g>
   <g id="patch_14">
    <path d="M 119.978688 159.35644 
C 127.310196 159.35644 134.342411 156.443601 139.526569 151.259443 
C 144.710728 146.075284 147.623567 139.043069 147.623567 131.711562 
C 147.623567 124.380055 144.710728 117.34784 139.526569 112.163681 
C 134.342411 106.979523 127.310196 104.066684 119.978688 104.066684 
C 112.647181 104.066684 105.614966 106.979523 100.430808 112.163681 
C 95.246649 117.34784 92.33381 124.380055 92.33381 131.711562 
C 92.33381 139.043069 95.246649 146.075284 100.430808 151.259443 
C 105.614966 156.443601 112.647181 159.35644 119.978688 159.35644 
z
" clip-path="url(#p595aca837e)" style="fill-opacity: 0.133333"/>
   </g>
   <g id="patch_15">
    <path d="M 119.978688 379.482575 
C 127.310196 379.482575 134.342411 376.569736 139.526569 371.385578 
C 144.710728 366.201419 147.623567 359.169205 147.623567 351.837697 
C 147.623567 344.50619 144.710728 337.473975 139.526569 332.289816 
C 134.342411 327.105658 127.310196 324.192819 119.978688 324.192819 
C 112.647181 324.192819 105.614966 327.105658 100.430808 332.289816 
C 95.246649 337.473975 92.33381 344.50619 92.33381 351.837697 
C 92.33381 359.169205 95.246649 366.201419 100.430808 371.385578 
C 105.614966 376.569736 112.647181 379.482575 119.978688 379.482575 
z
" clip-path="url(#p595aca837e)" style="fill-opacity: 0.133333"/>
   </g>
   <g id="patch_16">
    <path d="M 230.041756 113.766825 
C 237.373263 113.766825 244.405478 110.853986 249.589637 105.669827 
C 254.773795 100.485669 257.686634 93.453454 257.686634 86.121947 
C 257.686634 78.790439 254.773795 71.758224 249.589637 66.574066 
C 244.405478 61.389907 237.373263 58.477069 230.041756 58.477069 
C 222.710249 58.477069 215.678034 61.389907 210.493875 66.574066 
C 205.309717 71.758224 202.396878 78.790439 202.396878 86.121947 
C 202.396878 93.453454 205.309717 100.485669 210.493875 105.669827 
C 215.678034 110.853986 222.710249 113.766825 230.041756 113.766825 
z
" clip-path="url(#p595aca837e)" style="fill-opacity: 0.133333"/>
   </g>
   <g id="patch_17">
    <path d="M 230.041756 425.072191 
C 237.373263 425.072191 244.405478 422.159352 249.589637 416.975193 
C 254.773795 411.791035 257.686634 404.75882 257.686634 397.427312 
C 257.686634 390.095805 254.773795 383.06359 249.589637 377.879432 
C 244.405478 372.695273 237.373263 369.782434 230.041756 369.782434 
C 222.710249 369.782434 215.678034 372.695273 210.493875 377.879432 
C 205.309717 383.06359 202.396878 390.095805 202.396878 397.427312 
C 202.396878 404.75882 205.309717 411.791035 210.493875 416.975193 
C 215.678034 422.159352 222.710249 425.072191 230.041756 425.072191 
z
" clip-path="url(#p595aca837e)" style="fill-opacity: 0.133333"/>
   </g>
   <g id="patch_18">
    <path d="M 384.612683 268.337752 
C 391.94419 268.337752 398.976405 265.424913 404.160564 260.240754 
C 409.344722 255.056596 412.257561 248.024381 412.257561 240.692873 
C 412.257561 233.361366 409.344722 226.329151 404.160564 221.144993 
C 398.976405 215.960834 391.94419 213.047995 384.612683 213.047995 
C 377.281176 213.047995 370.248961 215.960834 365.064802 221.144993 
C 359.880644 226.329151 356.967805 233.361366 356.967805 240.692873 
C 356.967805 248.024381 359.880644 255.056596 365.064802 260.240754 
C 370.248961 265.424913 377.281176 268.337752 384.612683 268.337752 
z
" clip-path="url(#p595aca837e)" style="fill: #e41a1c; stroke: #ffffff; stroke-width: 2.8; stroke-linejoin: miter"/>
   </g>
   <g id="patch_19">
    <path d="M 73.307317 268.337752 
C 80.638824 268.337752 87.671039 265.424913 92.855198 260.240754 
C 98.039356 255.056596 100.952195 248.024381 100.952195 240.692873 
C 100.952195 233.361366 98.039356 226.329151 92.855198 221.144993 
C 87.671039 215.960834 80.638824 213.047995 73.307317 213.047995 
C 65.97581 213.047995 58.943595 215.960834 53.759436 221.144993 
C 48.575278 226.329151 45.662439 233.361366 45.662439 240.692873 
C 45.662439 248.024381 48.575278 255.056596 53.759436 260.240754 
C 58.943595 265.424913 65.97581 268.337752 73.307317 268.337752 
z
" clip-path="url(#p595aca837e)" style="fill: #377eb8; stroke: #ffffff; stroke-width: 2.8; stroke-linejoin: miter"/>
   </g>
   <g id="patch_20">
    <path d="M 339.023068 158.274684 
C 346.354575 158.274684 353.38679 155.361845 358.570948 150.177687 
C 363.755107 144.993528 366.667946 137.961313 366.667946 130.629806 
C 366.667946 123.298299 363.755107 116.266084 358.570948 111.081925 
C 353.38679 105.897767 346.354575 102.984928 339.023068 102.984928 
C 331.69156 102.984928 324.659345 105.897767 319.475187 111.081925 
C 314.291028 116.266084 311.37819 123.298299 311.37819 130.629806 
C 311.37819 137.961313 314.291028 144.993528 319.475187 150.177687 
C 324.659345 155.361845 331.69156 158.274684 339.023068 158.274684 
z
" clip-path="url(#p595aca837e)" style="fill: #ff7f00; stroke: #ffffff; stroke-width: 2.8; stroke-linejoin: miter"/>
   </g>
   <g id="patch_21">
    <path d="M 339.023068 378.400819 
C 346.354575 378.400819 353.38679 375.48798 358.570948 370.303822 
C 363.755107 365.119663 366.667946 358.087448 366.667946 350.755941 
C 366.667946 343.424434 363.755107 336.392219 358.570948 331.20806 
C 353.38679 326.023902 346.354575 323.111063 339.023068 323.111063 
C 331.69156 323.111063 324.659345 326.023902 319.475187 331.20806 
C 314.291028 336.392219 311.37819 343.424434 311.37819 350.755941 
C 311.37819 358.087448 314.291028 365.119663 319.475187 370.303822 
C 324.659345 375.48798 331.69156 378.400819 339.023068 378.400819 
z
" clip-path="url(#p595aca837e)" style="fill: #377eb8; stroke: #ffffff; stroke-width: 2.8; stroke-linejoin: miter"/>
   </g>
   <g id="patch_22">
    <path d="M 118.896932 158.274684 
C 126.22844 158.274684 133.260655 155.361845 138.444813 150.177687 
C 143.628972 144.993528 146.54181 137.961313 146.54181 130.629806 
C 146.54181 123.298299 143.628972 116.266084 138.444813 111.081925 
C 133.260655 105.897767 126.22844 102.984928 118.896932 102.984928 
C 111.565425 102.984928 104.53321 105.897767 99.349052 111.081925 
C 94.164893 116.266084 91.252054 123.298299 91.252054 130.629806 
C 91.252054 137.961313 94.164893 144.993528 99.349052 150.177687 
C 104.53321 155.361845 111.565425 158.274684 118.896932 158.274684 
z
" clip-path="url(#p595aca837e)" style="fill: #984ea3; stroke: #ffffff; stroke-width: 2.8; stroke-linejoin: miter"/>
   </g>
   <g id="patch_23">
    <path d="M 118.896932 378.400819 
C 126.22844 378.400819 133.260655 375.48798 138.444813 370.303822 
C 143.628972 365.119663 146.54181 358.087448 146.54181 350.755941 
C 146.54181 343.424434 143.628972 336.392219 138.444813 331.20806 
C 133.260655 326.023902 126.22844 323.111063 118.896932 323.111063 
C 111.565425 323.111063 104.53321 326.023902 99.349052 331.20806 
C 94.164893 336.392219 91.252054 343.424434 91.252054 350.755941 
C 91.252054 358.087448 94.164893 365.119663 99.349052 370.303822 
C 104.53321 375.48798 111.565425 378.400819 118.896932 378.400819 
z
" clip-path="url(#p595aca837e)" style="fill: #4daf4a; stroke: #ffffff; stroke-width: 2.8; stroke-linejoin: miter"/>
   </g>
   <g id="patch_24">
    <path d="M 228.96 112.685069 
C 236.291507 112.685069 243.323722 109.77223 248.507881 104.588071 
C 253.692039 99.403913 256.604878 92.371698 256.604878 85.040191 
C 256.604878 77.708683 253.692039 70.676468 248.507881 65.49231 
C 243.323722 60.308151 236.291507 57.395312 228.96 57.395312 
C 221.628493 57.395312 214.596278 60.308151 209.412119 65.49231 
C 204.227961 70.676468 201.315122 77.708683 201.315122 85.040191 
C 201.315122 92.371698 204.227961 99.403913 209.412119 104.588071 
C 214.596278 109.77223 221.628493 112.685069 228.96 112.685069 
z
" clip-path="url(#p595aca837e)" style="fill: #4daf4a; stroke: #ffffff; stroke-width: 2.8; stroke-linejoin: miter"/>
   </g>
   <g id="patch_25">
    <path d="M 228.96 423.990434 
C 236.291507 423.990434 243.323722 421.077596 248.507881 415.893437 
C 253.692039 410.709279 256.604878 403.677064 256.604878 396.345556 
C 256.604878 389.014049 253.692039 381.981834 248.507881 376.797676 
C 243.323722 371.613517 236.291507 368.700678 228.96 368.700678 
C 221.628493 368.700678 214.596278 371.613517 209.412119 376.797676 
C 204.227961 381.981834 201.315122 389.014049 201.315122 396.345556 
C 201.315122 403.677064 204.227961 410.709279 209.412119 415.893437 
C 214.596278 421.077596 221.628493 423.990434 228.96 423.990434 
z
" clip-path="url(#p595aca837e)" style="fill: #4daf4a; stroke: #ffffff; stroke-width: 2.8; stroke-linejoin: miter"/>
   </g>
   <g id="text_1">
    <!-- ETL flow: extract -&gt; transform -&gt; load -->
    <g transform="translate(110.005898 46.795703) scale(0.125 -0.125)">
     <defs>
      <path id="DejaVuSans-45" d="M 628 4666 
L 3578 4666 
L 3578 4134 
L 1259 4134 
L 1259 2753 
L 3481 2753 
L 3481 2222 
L 1259 2222 
L 1259 531 
L 3634 531 
L 3634 0 
L 628 0 
L 628 4666 
z
" transform="scale(0.015625)"/>
      <path id="DejaVuSans-54" d="M -19 4666 
L 3928 4666 
L 3928 4134 
L 2272 4134 
L 2272 0 
L 1638 0 
L 1638 4134 
L -19 4134 
L -19 4666 
z
" transform="scale(0.015625)"/>
      <path id="DejaVuSans-4c" d="M 628 4666 
L 1259 4666 
L 1259 531 
L 3531 531 
L 3531 0 
L 628 0 
L 628 4666 
z
" transform="scale(0.015625)"/>
      <path id="DejaVuSans-20" transform="scale(0.015625)"/>
      <path id="DejaVuSans-66" d="M 2375 4863 
L 2375 4384 
L 1825 4384 
Q 1516 4384 1395 4259 
Q 1275 4134 1275 3809 
L 1275 3500 
L 2222 3500 
L 2222 3053 
L 1275 3053 
L 1275 0 
L 697 0 
L 697 3053 
L 147 3053 
L 147 3500 
L 697 3500 
L 697 3744 
Q 697 4328 969 4595 
Q 1241 4863 1831 4863 
L 2375 4863 
z
" transform="scale(0.015625)"/>
      <path id="DejaVuSans-6c" d="M 603 4863 
L 1178 4863 
L 1178 0 
L 603 0 
L 603 4863 
z
" transform="scale(0.015625)"/>
      <path id="DejaVuSans-6f" d="M 1959 3097 
Q 1497 3097 1228 2736 
Q 959 2375 959 1747 
Q 959 1119 1226 758 
Q 1494 397 1959 397 
Q 2419 397 2687 759 
Q 2956 1122 2956 1747 
Q 2956 2369 2687 2733 
Q 2419 3097 1959 3097 
z
M 1959 3584 
Q 2709 3584 3137 3096 
Q 3566 2609 3566 1747 
Q 3566 888 3137 398 
Q 2709 -91 1959 -91 
Q 1206 -91 779 398 
Q 353 888 353 1747 
Q 353 2609 779 3096 
Q 1206 3584 1959 3584 
z
" transform="scale(0.015625)"/>
      <path id="DejaVuSans-77" d="M 269 3500 
L 844 3500 
L 1563 769 
L 2278 3500 
L 2956 3500 
L 3675 769 
L 4391 3500 
L 4966 3500 
L 4050 0 
L 3372 0 
L 2619 2869 
L 1863 0 
L 1184 0 
L 269 3500 
z
" transform="scale(0.015625)"/>
      <path id="DejaVuSans-3a" d="M 750 794 
L 1409 794 
L 1409 0 
L 750 0 
L 750 794 
z
M 750 3309 
L 1409 3309 
L 1409 2516 
L 750 2516 
L 750 3309 
z
" transform="scale(0.015625)"/>
      <path id="DejaVuSans-65" d="M 3597 1894 
L 3597 1613 
L 953 1613 
Q 991 1019 1311 708 
Q 1631 397 2203 397 
Q 2534 397 2845 478 
Q 3156 559 3463 722 
L 3463 178 
Q 3153 47 2828 -22 
Q 2503 -91 2169 -91 
Q 1331 -91 842 396 
Q 353 884 353 1716 
Q 353 2575 817 3079 
Q 1281 3584 2069 3584 
Q 2775 3584 3186 3129 
Q 3597 2675 3597 1894 
z
M 3022 2063 
Q 3016 2534 2758 2815 
Q 2500 3097 2075 3097 
Q 1594 3097 1305 2825 
Q 1016 2553 972 2059 
L 3022 2063 
z
" transform="scale(0.015625)"/>
      <path id="DejaVuSans-78" d="M 3513 3500 
L 2247 1797 
L 3578 0 
L 2900 0 
L 1881 1375 
L 863 0 
L 184 0 
L 1544 1831 
L 300 3500 
L 978 3500 
L 1906 2253 
L 2834 3500 
L 3513 3500 
z
" transform="scale(0.015625)"/>
      <path id="DejaVuSans-74" d="M 1172 4494 
L 1172 3500 
L 2356 3500 
L 2356 3053 
L 1172 3053 
L 1172 1153 
Q 1172 725 1289 603 
Q 1406 481 1766 481 
L 2356 481 
L 2356 0 
L 1766 0 
Q 1100 0 847 248 
Q 594 497 594 1153 
L 594 3053 
L 172 3053 
L 172 3500 
L 594 3500 
L 594 4494 
L 1172 4494 
z
" transform="scale(0.015625)"/>
      <path id="DejaVuSans-72" d="M 2631 2963 
Q 2534 3019 2420 3045 
Q 2306 3072 2169 3072 
Q 1681 3072 1420 2755 
Q 1159 2438 1159 1844 
L 1159 0 
L 581 0 
L 581 3500 
L 1159 3500 
L 1159 2956 
Q 1341 3275 1631 3429 
Q 1922 3584 2338 3584 
Q 2397 3584 2469 3576 
Q 2541 3569 2628 3553 
L 2631 2963 
z
" transform="scale(0.015625)"/>
      <path id="DejaVuSans-61" d="M 2194 1759 
Q 1497 1759 1228 1600 
Q 959 1441 959 1056 
Q 959 750 1161 570 
Q 1363 391 1709 391 
Q 2188 391 2477 730 
Q 2766 1069 2766 1631 
L 2766 1759 
L 2194 1759 
z
M 3341 1997 
L 3341 0 
L 2766 0 
L 2766 531 
Q 2569 213 2275 61 
Q 1981 -91 1556 -91 
Q 1019 -91 701 211 
Q 384 513 384 1019 
Q 384 1609 779 1909 
Q 1175 2209 1959 2209 
L 2766 2209 
L 2766 2266 
Q 2766 2663 2505 2880 
Q 2244 3097 1772 3097 
Q 1472 3097 1187 3025 
Q 903 2953 641 2809 
L 641 3341 
Q 956 3463 1253 3523 
Q 1550 3584 1831 3584 
Q 2591 3584 2966 3190 
Q 3341 2797 3341 1997 
z
" transform="scale(0.015625)"/>
      <path id="DejaVuSans-63" d="M 3122 3366 
L 3122 2828 
Q 2878 2963 2633 3030 
Q 2388 3097 2138 3097 
Q 1578 3097 1268 2742 
Q 959 2388 959 1747 
Q 959 1106 1268 751 
Q 1578 397 2138 397 
Q 2388 397 2633 464 
Q 2878 531 3122 666 
L 3122 134 
Q 2881 22 2623 -34 
Q 2366 -91 2075 -91 
Q 1284 -91 818 406 
Q 353 903 353 1747 
Q 353 2603 823 3093 
Q 1294 3584 2113 3584 
Q 2378 3584 2631 3529 
Q 2884 3475 3122 3366 
z
" transform="scale(0.015625)"/>
      <path id="DejaVuSans-2d" d="M 313 2009 
L 1997 2009 
L 1997 1497 
L 313 1497 
L 313 2009 
z
" transform="scale(0.015625)"/>
      <path id="DejaVuSans-3e" d="M 678 3150 
L 678 3719 
L 4684 2266 
L 4684 1747 
L 678 294 
L 678 863 
L 3897 2003 
L 678 3150 
z
" transform="scale(0.015625)"/>
      <path id="DejaVuSans-6e" d="M 3513 2113 
L 3513 0 
L 2938 0 
L 2938 2094 
Q 2938 2591 2744 2837 
Q 2550 3084 2163 3084 
Q 1697 3084 1428 2787 
Q 1159 2491 1159 1978 
L 1159 0 
L 581 0 
L 581 3500 
L 1159 3500 
L 1159 2956 
Q 1366 3272 1645 3428 
Q 1925 3584 2291 3584 
Q 2894 3584 3203 3211 
Q 3513 2838 3513 2113 
z
" transform="scale(0.015625)"/>
      <path id="DejaVuSans-73" d="M 2834 3397 
L 2834 2853 
Q 2591 2978 2328 3040 
Q 2066 3103 1784 3103 
Q 1356 3103 1142 2972 
Q 928 2841 928 2578 
Q 928 2378 1081 2264 
Q 1234 2150 1697 2047 
L 1894 2003 
Q 2506 1872 2764 1633 
Q 3022 1394 3022 966 
Q 3022 478 2636 193 
Q 2250 -91 1575 -91 
Q 1294 -91 989 -36 
Q 684 19 347 128 
L 347 722 
Q 666 556 975 473 
Q 1284 391 1588 391 
Q 1994 391 2212 530 
Q 2431 669 2431 922 
Q 2431 1156 2273 1281 
Q 2116 1406 1581 1522 
L 1381 1569 
Q 847 1681 609 1914 
Q 372 2147 372 2553 
Q 372 3047 722 3315 
Q 1072 3584 1716 3584 
Q 2034 3584 2315 3537 
Q 2597 3491 2834 3397 
z
" transform="scale(0.015625)"/>
      <path id="DejaVuSans-6d" d="M 3328 2828 
Q 3544 3216 3844 3400 
Q 4144 3584 4550 3584 
Q 5097 3584 5394 3201 
Q 5691 2819 5691 2113 
L 5691 0 
L 5113 0 
L 5113 2094 
Q 5113 2597 4934 2840 
Q 4756 3084 4391 3084 
Q 3944 3084 3684 2787 
Q 3425 2491 3425 1978 
L 3425 0 
L 2847 0 
L 2847 2094 
Q 2847 2600 2669 2842 
Q 2491 3084 2119 3084 
Q 1678 3084 1418 2786 
Q 1159 2488 1159 1978 
L 1159 0 
L 581 0 
L 581 3500 
L 1159 3500 
L 1159 2956 
Q 1356 3278 1631 3431 
Q 1906 3584 2284 3584 
Q 2666 3584 2933 3390 
Q 3200 3197 3328 2828 
z
" transform="scale(0.015625)"/>
      <path id="DejaVuSans-64" d="M 2906 2969 
L 2906 4863 
L 3481 4863 
L 3481 0 
L 2906 0 
L 2906 525 
Q 2725 213 2448 61 
Q 2172 -91 1784 -91 
Q 1150 -91 751 415 
Q 353 922 353 1747 
Q 353 2572 751 3078 
Q 1150 3584 1784 3584 
Q 2172 3584 2448 3432 
Q 2725 3281 2906 2969 
z
M 947 1747 
Q 947 1113 1208 752 
Q 1469 391 1925 391 
Q 2381 391 2643 752 
Q 2906 1113 2906 1747 
Q 2906 2381 2643 2742 
Q 2381 3103 1925 3103 
Q 1469 3103 1208 2742 
Q 947 2381 947 1747 
z
" transform="scale(0.015625)"/>
     </defs>
     <use xlink:href="#DejaVuSans-45"/>
     <use xlink:href="#DejaVuSans-54" x="63.183594"/>
     <use xlink:href="#DejaVuSans-4c" x="124.267578"/>
     <use xlink:href="#DejaVuSans-20" x="179.980469"/>
     <use xlink:href="#DejaVuSans-66" x="211.767578"/>
     <use xlink:href="#DejaVuSans-6c" x="246.972656"/>
     <use xlink:href="#DejaVuSans-6f" x="274.755859"/>
     <use xlink:href="#DejaVuSans-77" x="335.9375"/>
     <use xlink:href="#DejaVuSans-3a" x="412.224609"/>
     <use xlink:href="#DejaVuSans-20" x="445.916016"/>
     <use xlink:href="#DejaVuSans-65" x="477.703125"/>
     <use xlink:href="#DejaVuSans-78" x="537.476562"/>
     <use xlink:href="#DejaVuSans-74" x="596.65625"/>
     <use xlink:href="#DejaVuSans-72" x="635.865234"/>
     <use xlink:href="#DejaVuSans-61" x="676.978516"/>
     <use xlink:href="#DejaVuSans-63" x="738.257812"/>
     <use xlink:href="#DejaVuSans-74" x="793.238281"/>
     <use xlink:href="#DejaVuSans-20" x="832.447266"/>
     <use xlink:href="#DejaVuSans-2d" x="864.234375"/>
     <use xlink:href="#DejaVuSans-3e" x="900.318359"/>
     <use xlink:href="#DejaVuSans-20" x="984.107422"/>
     <use xlink:href="#DejaVuSans-74" x="1015.894531"/>
     <use xlink:href="#DejaVuSans-72" x="1055.103516"/>
     <use xlink:href="#DejaVuSans-61" x="1096.216797"/>
     <use xlink:href="#DejaVuSans-6e" x="1157.496094"/>
     <use xlink:href="#DejaVuSans-73" x="1220.875"/>
     <use xlink:href="#DejaVuSans-66" x="1272.974609"/>
     <use xlink:href="#DejaVuSans-6f" x="1308.179688"/>
     <use xlink:href="#DejaVuSans-72" x="1369.361328"/>
     <use xlink:href="#DejaVuSans-6d" x="1408.724609"/>
     <use xlink:href="#DejaVuSans-20" x="1506.136719"/>
     <use xlink:href="#DejaVuSans-2d" x="1537.923828"/>
     <use xlink:href="#DejaVuSans-3e" x="1574.007812"/>
     <use xlink:href="#DejaVuSans-20" x="1657.796875"/>
     <use xlink:href="#DejaVuSans-6c" x="1689.583984"/>
     <use xlink:href="#DejaVuSans-6f" x="1717.367188"/>
     <use xlink:href="#DejaVuSans-61" x="1778.548828"/>
     <use xlink:href="#DejaVuSans-64" x="1839.828125"/>
    </g>
   </g>
   <g id="text_2">
    <!-- Data Pipeline -->
    <g transform="translate(134.565469 26.196094) scale(0.25 -0.25)">
     <defs>
      <path id="DejaVuSans-Bold-44" d="M 1791 3756 
L 1791 909 
L 2222 909 
Q 2959 909 3348 1275 
Q 3738 1641 3738 2338 
Q 3738 3031 3350 3393 
Q 2963 3756 2222 3756 
L 1791 3756 
z
M 588 4666 
L 1856 4666 
Q 2919 4666 3439 4514 
Q 3959 4363 4331 4000 
Q 4659 3684 4818 3271 
Q 4978 2859 4978 2338 
Q 4978 1809 4818 1395 
Q 4659 981 4331 666 
Q 3956 303 3431 151 
Q 2906 0 1856 0 
L 588 0 
L 588 4666 
z
" transform="scale(0.015625)"/>
      <path id="DejaVuSans-Bold-61" d="M 2106 1575 
Q 1756 1575 1579 1456 
Q 1403 1338 1403 1106 
Q 1403 894 1545 773 
Q 1688 653 1941 653 
Q 2256 653 2472 879 
Q 2688 1106 2688 1447 
L 2688 1575 
L 2106 1575 
z
M 3816 1997 
L 3816 0 
L 2688 0 
L 2688 519 
Q 2463 200 2181 54 
Q 1900 -91 1497 -91 
Q 953 -91 614 226 
Q 275 544 275 1050 
Q 275 1666 698 1953 
Q 1122 2241 2028 2241 
L 2688 2241 
L 2688 2328 
Q 2688 2594 2478 2717 
Q 2269 2841 1825 2841 
Q 1466 2841 1156 2769 
Q 847 2697 581 2553 
L 581 3406 
Q 941 3494 1303 3539 
Q 1666 3584 2028 3584 
Q 2975 3584 3395 3211 
Q 3816 2838 3816 1997 
z
" transform="scale(0.015625)"/>
      <path id="DejaVuSans-Bold-74" d="M 1759 4494 
L 1759 3500 
L 2913 3500 
L 2913 2700 
L 1759 2700 
L 1759 1216 
Q 1759 972 1856 886 
Q 1953 800 2241 800 
L 2816 800 
L 2816 0 
L 1856 0 
Q 1194 0 917 276 
Q 641 553 641 1216 
L 641 2700 
L 84 2700 
L 84 3500 
L 641 3500 
L 641 4494 
L 1759 4494 
z
" transform="scale(0.015625)"/>
      <path id="DejaVuSans-Bold-20" transform="scale(0.015625)"/>
      <path id="DejaVuSans-Bold-50" d="M 588 4666 
L 2584 4666 
Q 3475 4666 3951 4270 
Q 4428 3875 4428 3144 
Q 4428 2409 3951 2014 
Q 3475 1619 2584 1619 
L 1791 1619 
L 1791 0 
L 588 0 
L 588 4666 
z
M 1791 3794 
L 1791 2491 
L 2456 2491 
Q 2806 2491 2997 2661 
Q 3188 2831 3188 3144 
Q 3188 3456 2997 3625 
Q 2806 3794 2456 3794 
L 1791 3794 
z
" transform="scale(0.015625)"/>
      <path id="DejaVuSans-Bold-69" d="M 538 3500 
L 1656 3500 
L 1656 0 
L 538 0 
L 538 3500 
z
M 538 4863 
L 1656 4863 
L 1656 3950 
L 538 3950 
L 538 4863 
z
" transform="scale(0.015625)"/>
      <path id="DejaVuSans-Bold-70" d="M 1656 506 
L 1656 -1331 
L 538 -1331 
L 538 3500 
L 1656 3500 
L 1656 2988 
Q 1888 3294 2169 3439 
Q 2450 3584 2816 3584 
Q 3463 3584 3878 3070 
Q 4294 2556 4294 1747 
Q 4294 938 3878 423 
Q 3463 -91 2816 -91 
Q 2450 -91 2169 54 
Q 1888 200 1656 506 
z
M 2400 2772 
Q 2041 2772 1848 2508 
Q 1656 2244 1656 1747 
Q 1656 1250 1848 986 
Q 2041 722 2400 722 
Q 2759 722 2948 984 
Q 3138 1247 3138 1747 
Q 3138 2247 2948 2509 
Q 2759 2772 2400 2772 
z
" transform="scale(0.015625)"/>
      <path id="DejaVuSans-Bold-65" d="M 4031 1759 
L 4031 1441 
L 1416 1441 
Q 1456 1047 1700 850 
Q 1944 653 2381 653 
Q 2734 653 3104 758 
Q 3475 863 3866 1075 
L 3866 213 
Q 3469 63 3072 -14 
Q 2675 -91 2278 -91 
Q 1328 -91 801 392 
Q 275 875 275 1747 
Q 275 2603 792 3093 
Q 1309 3584 2216 3584 
Q 3041 3584 3536 3087 
Q 4031 2591 4031 1759 
z
M 2881 2131 
Q 2881 2450 2695 2645 
Q 2509 2841 2209 2841 
Q 1884 2841 1681 2658 
Q 1478 2475 1428 2131 
L 2881 2131 
z
" transform="scale(0.015625)"/>
      <path id="DejaVuSans-Bold-6c" d="M 538 4863 
L 1656 4863 
L 1656 0 
L 538 0 
L 538 4863 
z
" transform="scale(0.015625)"/>
      <path id="DejaVuSans-Bold-6e" d="M 4056 2131 
L 4056 0 
L 2931 0 
L 2931 347 
L 2931 1631 
Q 2931 2084 2911 2256 
Q 2891 2428 2841 2509 
Q 2775 2619 2662 2680 
Q 2550 2741 2406 2741 
Q 2056 2741 1856 2470 
Q 1656 2200 1656 1722 
L 1656 0 
L 538 0 
L 538 3500 
L 1656 3500 
L 1656 2988 
Q 1909 3294 2193 3439 
Q 2478 3584 2822 3584 
Q 3428 3584 3742 3212 
Q 4056 2841 4056 2131 
z
" transform="scale(0.015625)"/>
     </defs>
     <use xlink:href="#DejaVuSans-Bold-44"/>
     <use xlink:href="#DejaVuSans-Bold-61" x="83.007812"/>
     <use xlink:href="#DejaVuSans-Bold-74" x="150.488281"/>
     <use xlink:href="#DejaVuSans-Bold-61" x="198.291016"/>
     <use xlink:href="#DejaVuSans-Bold-20" x="265.771484"/>
     <use xlink:href="#DejaVuSans-Bold-50" x="300.585938"/>
     <use xlink:href="#DejaVuSans-Bold-69" x="373.876953"/>
     <use xlink:href="#DejaVuSans-Bold-70" x="408.154297"/>
     <use xlink:href="#DejaVuSans-Bold-65" x="479.736328"/>
     <use xlink:href="#DejaVuSans-Bold-6c" x="547.558594"/>
     <use xlink:href="#DejaVuSans-Bold-69" x="581.835938"/>
     <use xlink:href="#DejaVuSans-Bold-6e" x="616.113281"/>
     <use xlink:href="#DejaVuSans-Bold-65" x="687.304688"/>
    </g>
   </g>
   <g id="patch_26">
    <path d="M 376.872117 244.563156 
C 379.95135 244.563156 382.90488 243.339764 385.082227 241.162418 
C 387.259574 238.985071 388.482966 236.031541 388.482966 232.952308 
C 388.482966 229.873075 387.259574 226.919544 385.082227 224.742198 
C 382.90488 222.564851 379.95135 221.341459 376.872117 221.341459 
C 373.792884 221.341459 370.839354 222.564851 368.662007 224.742198 
C 366.484661 226.919544 365.261268 229.873075 365.261268 232.952308 
C 365.261268 236.031541 366.484661 238.985071 368.662007 241.162418 
C 370.839354 243.339764 373.792884 244.563156 376.872117 244.563156 
z
" clip-path="url(#p595aca837e)" style="fill: #ffffff; opacity: 0.22"/>
   </g>
   <g id="patch_27">
    <path d="M 65.566751 244.563156 
C 68.645984 244.563156 71.599515 243.339764 73.776861 241.162418 
C 75.954208 238.985071 77.1776 236.031541 77.1776 232.952308 
C 77.1776 229.873075 75.954208 226.919544 73.776861 224.742198 
C 71.599515 222.564851 68.645984 221.341459 65.566751 221.341459 
C 62.487518 221.341459 59.533988 222.564851 57.356641 224.742198 
C 55.179295 226.919544 53.955902 229.873075 53.955902 232.952308 
C 53.955902 236.031541 55.179295 238.985071 57.356641 241.162418 
C 59.533988 243.339764 62.487518 244.563156 65.566751 244.563156 
z
" clip-path="url(#p595aca837e)" style="fill: #ffffff; opacity: 0.22"/>
   </g>
   <g id="patch_28">
    <path d="M 331.282502 134.500089 
C 334.361735 134.500089 337.315265 133.276697 339.492612 131.09935 
C 341.669958 128.922003 342.893351 125.968473 342.893351 122.88924 
C 342.893351 119.810007 341.669958 116.856477 339.492612 114.67913 
C 337.315265 112.501784 334.361735 111.278391 331.282502 111.278391 
C 328.203269 111.278391 325.249738 112.501784 323.072392 114.67913 
C 320.895045 116.856477 319.671653 119.810007 319.671653 122.88924 
C 319.671653 125.968473 320.895045 128.922003 323.072392 131.09935 
C 325.249738 133.276697 328.203269 134.500089 331.282502 134.500089 
z
" clip-path="url(#p595aca837e)" style="fill: #ffffff; opacity: 0.22"/>
   </g>
   <g id="patch_29">
    <path d="M 331.282502 354.626224 
C 334.361735 354.626224 337.315265 353.402832 339.492612 351.225485 
C 341.669958 349.048139 342.893351 346.094608 342.893351 343.015375 
C 342.893351 339.936142 341.669958 336.982612 339.492612 334.805265 
C 337.315265 332.627919 334.361735 331.404526 331.282502 331.404526 
C 328.203269 331.404526 325.249738 332.627919 323.072392 334.805265 
C 320.895045 336.982612 319.671653 339.936142 319.671653 343.015375 
C 319.671653 346.094608 320.895045 349.048139 323.072392 351.225485 
C 325.249738 353.402832 328.203269 354.626224 331.282502 354.626224 
z
" clip-path="url(#p595aca837e)" style="fill: #ffffff; opacity: 0.22"/>
   </g>
   <g id="patch_30">
    <path d="M 111.156367 134.500089 
C 114.2356 134.500089 117.18913 133.276697 119.366476 131.09935 
C 121.543823 128.922003 122.767215 125.968473 122.767215 122.88924 
C 122.767215 119.810007 121.543823 116.856477 119.366476 114.67913 
C 117.18913 112.501784 114.2356 111.278391 111.156367 111.278391 
C 108.077133 111.278391 105.123603 112.501784 102.946257 114.67913 
C 100.76891 116.856477 99.545518 119.810007 99.545518 122.88924 
C 99.545518 125.968473 100.76891 128.922003 102.946257 131.09935 
C 105.123603 133.276697 108.077133 134.500089 111.156367 134.500089 
z
" clip-path="url(#p595aca837e)" style="fill: #ffffff; opacity: 0.22"/>
   </g>
   <g id="patch_31">
    <path d="M 111.156367 354.626224 
C 114.2356 354.626224 117.18913 353.402832 119.366476 351.225485 
C 121.543823 349.048139 122.767215 346.094608 122.767215 343.015375 
C 122.767215 339.936142 121.543823 336.982612 119.366476 334.805265 
C 117.18913 332.627919 114.2356 331.404526 111.156367 331.404526 
C 108.077133 331.404526 105.123603 332.627919 102.946257 334.805265 
C 100.76891 336.982612 99.545518 339.936142 99.545518 343.015375 
C 99.545518 346.094608 100.76891 349.048139 102.946257 351.225485 
C 105.123603 353.402832 108.077133 354.626224 111.156367 354.626224 
z
" clip-path="url(#p595aca837e)" style="fill: #ffffff; opacity: 0.22"/>
   </g>
   <g id="patch_32">
    <path d="M 221.219434 88.910473 
C 224.298667 88.910473 227.252197 87.687081 229.429544 85.509735 
C 231.606891 83.332388 232.830283 80.378858 232.830283 77.299625 
C 232.830283 74.220392 231.606891 71.266861 229.429544 69.089515 
C 227.252197 66.912168 224.298667 65.688776 221.219434 65.688776 
C 218.140201 65.688776 215.186671 66.912168 213.009324 69.089515 
C 210.831978 71.266861 209.608585 74.220392 209.608585 77.299625 
C 209.608585 80.378858 210.831978 83.332388 213.009324 85.509735 
C 215.186671 87.687081 218.140201 88.910473 221.219434 88.910473 
z
" clip-path="url(#p595aca837e)" style="fill: #ffffff; opacity: 0.22"/>
   </g>
   <g id="patch_33">
    <path d="M 221.219434 400.215839 
C 224.298667 400.215839 227.252197 398.992447 229.429544 396.8151 
C 231.606891 394.637754 232.830283 391.684224 232.830283 388.604991 
C 232.830283 385.525757 231.606891 382.572227 229.429544 380.394881 
C 227.252197 378.217534 224.298667 376.994142 221.219434 376.994142 
C 218.140201 376.994142 215.186671 378.217534 213.009324 380.394881 
C 210.831978 382.572227 209.608585 385.525757 209.608585 388.604991 
C 209.608585 391.684224 210.831978 394.637754 213.009324 396.8151 
C 215.186671 398.992447 218.140201 400.215839 221.219434 400.215839 
z
" clip-path="url(#p595aca837e)" style="fill: #ffffff; opacity: 0.22"/>
   </g>
   <g id="patch_34">
    <path d="M 228.96 367.300678 
L 215.808425 361.317928 
L 221.371227 355.005648 
z
" clip-path="url(#p595aca837e)" style="fill: #999999; opacity: 0.45"/>
   </g>
   <g id="patch_35">
    <path d="M 228.96 114.085069 
L 215.987061 120.445894 
L 214.643052 112.140276 
z
" clip-path="url(#p595aca837e)" style="fill: #999999; opacity: 0.45"/>
   </g>
   <g id="patch_36">
    <path d="M 137.952087 328.835493 
L 131.537496 315.889055 
L 139.837467 314.5106 
z
" clip-path="url(#p595aca837e)" style="fill: #999999; opacity: 0.45"/>
   </g>
   <g id="patch_37">
    <path d="M 139.434763 151.167636 
L 152.825701 156.593501 
L 147.532551 163.133548 
z
" clip-path="url(#p595aca837e)" style="fill: #999999; opacity: 0.45"/>
   </g>
   <g id="patch_38">
    <path d="M 319.967913 328.835493 
L 312.621972 316.393854 
L 320.798633 314.410961 
z
" clip-path="url(#p595aca837e)" style="fill: #999999; opacity: 0.45"/>
   </g>
   <g id="patch_39">
    <path d="M 317.10262 149.68496 
L 305.060718 157.66931 
L 302.654396 149.607098 
z
" clip-path="url(#p595aca837e)" style="fill: #999999; opacity: 0.45"/>
   </g>
   <g id="patch_40">
    <path d="M 102.281443 242.718942 
L 116.3703 239.515607 
L 115.766089 247.907542 
z
" clip-path="url(#p595aca837e)" style="fill: #999999; opacity: 0.45"/>
   </g>
   <g id="text_3">
    <!-- Raw Data -->
    <g transform="translate(352.364558 244.004123) scale(0.12 -0.12)">
     <defs>
      <path id="DejaVuSans-Bold-52" d="M 2297 2597 
Q 2675 2597 2839 2737 
Q 3003 2878 3003 3200 
Q 3003 3519 2839 3656 
Q 2675 3794 2297 3794 
L 1791 3794 
L 1791 2597 
L 2297 2597 
z
M 1791 1766 
L 1791 0 
L 588 0 
L 588 4666 
L 2425 4666 
Q 3347 4666 3776 4356 
Q 4206 4047 4206 3378 
Q 4206 2916 3982 2619 
Q 3759 2322 3309 2181 
Q 3556 2125 3751 1926 
Q 3947 1728 4147 1325 
L 4800 0 
L 3519 0 
L 2950 1159 
Q 2778 1509 2601 1637 
Q 2425 1766 2131 1766 
L 1791 1766 
z
" transform="scale(0.015625)"/>
      <path id="DejaVuSans-Bold-77" d="M 225 3500 
L 1313 3500 
L 1900 1088 
L 2491 3500 
L 3425 3500 
L 4013 1113 
L 4603 3500 
L 5691 3500 
L 4769 0 
L 3547 0 
L 2956 2406 
L 2369 0 
L 1147 0 
L 225 3500 
z
" transform="scale(0.015625)"/>
     </defs>
     <use xlink:href="#DejaVuSans-Bold-52"/>
     <use xlink:href="#DejaVuSans-Bold-61" x="77.001953"/>
     <use xlink:href="#DejaVuSans-Bold-77" x="144.482422"/>
     <use xlink:href="#DejaVuSans-Bold-20" x="236.865234"/>
     <use xlink:href="#DejaVuSans-Bold-44" x="271.679688"/>
     <use xlink:href="#DejaVuSans-Bold-61" x="354.6875"/>
     <use xlink:href="#DejaVuSans-Bold-74" x="422.167969"/>
     <use xlink:href="#DejaVuSans-Bold-61" x="469.970703"/>
    </g>
   </g>
   <g id="text_4">
    <!-- Clean -->
    <g transform="translate(54.457005 244.004123) scale(0.12 -0.12)">
     <defs>
      <path id="DejaVuSans-Bold-43" d="M 4288 256 
Q 3956 84 3597 -3 
Q 3238 -91 2847 -91 
Q 1681 -91 1000 561 
Q 319 1213 319 2328 
Q 319 3447 1000 4098 
Q 1681 4750 2847 4750 
Q 3238 4750 3597 4662 
Q 3956 4575 4288 4403 
L 4288 3438 
Q 3953 3666 3628 3772 
Q 3303 3878 2944 3878 
Q 2300 3878 1931 3465 
Q 1563 3053 1563 2328 
Q 1563 1606 1931 1193 
Q 2300 781 2944 781 
Q 3303 781 3628 887 
Q 3953 994 4288 1222 
L 4288 256 
z
" transform="scale(0.015625)"/>
     </defs>
     <use xlink:href="#DejaVuSans-Bold-43"/>
     <use xlink:href="#DejaVuSans-Bold-6c" x="73.388672"/>
     <use xlink:href="#DejaVuSans-Bold-65" x="107.666016"/>
     <use xlink:href="#DejaVuSans-Bold-61" x="175.488281"/>
     <use xlink:href="#DejaVuSans-Bold-6e" x="242.96875"/>
    </g>
   </g>
   <g id="text_5">
    <!-- Validate -->
    <g transform="translate(311.265568 133.941056) scale(0.12 -0.12)">
     <defs>
      <path id="DejaVuSans-Bold-56" d="M 31 4666 
L 1241 4666 
L 2478 1222 
L 3713 4666 
L 4922 4666 
L 3194 0 
L 1759 0 
L 31 4666 
z
" transform="scale(0.015625)"/>
      <path id="DejaVuSans-Bold-64" d="M 2919 2988 
L 2919 4863 
L 4044 4863 
L 4044 0 
L 2919 0 
L 2919 506 
Q 2688 197 2409 53 
Q 2131 -91 1766 -91 
Q 1119 -91 703 423 
Q 288 938 288 1747 
Q 288 2556 703 3070 
Q 1119 3584 1766 3584 
Q 2128 3584 2408 3439 
Q 2688 3294 2919 2988 
z
M 2181 722 
Q 2541 722 2730 984 
Q 2919 1247 2919 1747 
Q 2919 2247 2730 2509 
Q 2541 2772 2181 2772 
Q 1825 2772 1636 2509 
Q 1447 2247 1447 1747 
Q 1447 1247 1636 984 
Q 1825 722 2181 722 
z
" transform="scale(0.015625)"/>
     </defs>
     <use xlink:href="#DejaVuSans-Bold-56"/>
     <use xlink:href="#DejaVuSans-Bold-61" x="71.892578"/>
     <use xlink:href="#DejaVuSans-Bold-6c" x="139.373047"/>
     <use xlink:href="#DejaVuSans-Bold-69" x="173.650391"/>
     <use xlink:href="#DejaVuSans-Bold-64" x="207.927734"/>
     <use xlink:href="#DejaVuSans-Bold-61" x="279.509766"/>
     <use xlink:href="#DejaVuSans-Bold-74" x="346.990234"/>
     <use xlink:href="#DejaVuSans-Bold-65" x="394.792969"/>
    </g>
   </g>
   <g id="text_6">
    <!-- Feature Eng -->
    <g transform="translate(298.12463 353.973441) scale(0.12 -0.12)">
     <defs>
      <path id="DejaVuSans-Bold-46" d="M 588 4666 
L 3834 4666 
L 3834 3756 
L 1791 3756 
L 1791 2888 
L 3713 2888 
L 3713 1978 
L 1791 1978 
L 1791 0 
L 588 0 
L 588 4666 
z
" transform="scale(0.015625)"/>
      <path id="DejaVuSans-Bold-75" d="M 500 1363 
L 500 3500 
L 1625 3500 
L 1625 3150 
Q 1625 2866 1622 2436 
Q 1619 2006 1619 1863 
Q 1619 1441 1641 1255 
Q 1663 1069 1716 984 
Q 1784 875 1895 815 
Q 2006 756 2150 756 
Q 2500 756 2700 1025 
Q 2900 1294 2900 1772 
L 2900 3500 
L 4019 3500 
L 4019 0 
L 2900 0 
L 2900 506 
Q 2647 200 2364 54 
Q 2081 -91 1741 -91 
Q 1134 -91 817 281 
Q 500 653 500 1363 
z
" transform="scale(0.015625)"/>
      <path id="DejaVuSans-Bold-72" d="M 3138 2547 
Q 2991 2616 2845 2648 
Q 2700 2681 2553 2681 
Q 2122 2681 1889 2404 
Q 1656 2128 1656 1613 
L 1656 0 
L 538 0 
L 538 3500 
L 1656 3500 
L 1656 2925 
Q 1872 3269 2151 3426 
Q 2431 3584 2822 3584 
Q 2878 3584 2943 3579 
Q 3009 3575 3134 3559 
L 3138 2547 
z
" transform="scale(0.015625)"/>
      <path id="DejaVuSans-Bold-45" d="M 588 4666 
L 3834 4666 
L 3834 3756 
L 1791 3756 
L 1791 2888 
L 3713 2888 
L 3713 1978 
L 1791 1978 
L 1791 909 
L 3903 909 
L 3903 0 
L 588 0 
L 588 4666 
z
" transform="scale(0.015625)"/>
      <path id="DejaVuSans-Bold-67" d="M 2919 594 
Q 2688 288 2409 144 
Q 2131 0 1766 0 
Q 1125 0 706 504 
Q 288 1009 288 1791 
Q 288 2575 706 3076 
Q 1125 3578 1766 3578 
Q 2131 3578 2409 3434 
Q 2688 3291 2919 2981 
L 2919 3500 
L 4044 3500 
L 4044 353 
Q 4044 -491 3511 -936 
Q 2978 -1381 1966 -1381 
Q 1638 -1381 1331 -1331 
Q 1025 -1281 716 -1178 
L 716 -306 
Q 1009 -475 1290 -558 
Q 1572 -641 1856 -641 
Q 2406 -641 2662 -400 
Q 2919 -159 2919 353 
L 2919 594 
z
M 2181 2772 
Q 1834 2772 1640 2515 
Q 1447 2259 1447 1791 
Q 1447 1309 1634 1061 
Q 1822 813 2181 813 
Q 2531 813 2725 1069 
Q 2919 1325 2919 1791 
Q 2919 2259 2725 2515 
Q 2531 2772 2181 2772 
z
" transform="scale(0.015625)"/>
     </defs>
     <use xlink:href="#DejaVuSans-Bold-46"/>
     <use xlink:href="#DejaVuSans-Bold-65" x="64.310547"/>
     <use xlink:href="#DejaVuSans-Bold-61" x="132.132812"/>
     <use xlink:href="#DejaVuSans-Bold-74" x="199.613281"/>
     <use xlink:href="#DejaVuSans-Bold-75" x="247.416016"/>
     <use xlink:href="#DejaVuSans-Bold-72" x="318.607422"/>
     <use xlink:href="#DejaVuSans-Bold-65" x="367.923828"/>
     <use xlink:href="#DejaVuSans-Bold-20" x="435.746094"/>
     <use xlink:href="#DejaVuSans-Bold-45" x="470.560547"/>
     <use xlink:href="#DejaVuSans-Bold-6e" x="538.871094"/>
     <use xlink:href="#DejaVuSans-Bold-67" x="610.0625"/>
    </g>
   </g>
   <g id="text_7">
    <!-- Aggregate -->
    <g transform="translate(83.354432 133.847306) scale(0.12 -0.12)">
     <defs>
      <path id="DejaVuSans-Bold-41" d="M 3419 850 
L 1538 850 
L 1241 0 
L 31 0 
L 1759 4666 
L 3194 4666 
L 4922 0 
L 3713 0 
L 3419 850 
z
M 1838 1716 
L 3116 1716 
L 2478 3572 
L 1838 1716 
z
" transform="scale(0.015625)"/>
     </defs>
     <use xlink:href="#DejaVuSans-Bold-41"/>
     <use xlink:href="#DejaVuSans-Bold-67" x="77.392578"/>
     <use xlink:href="#DejaVuSans-Bold-67" x="148.974609"/>
     <use xlink:href="#DejaVuSans-Bold-72" x="220.556641"/>
     <use xlink:href="#DejaVuSans-Bold-65" x="269.873047"/>
     <use xlink:href="#DejaVuSans-Bold-67" x="337.695312"/>
     <use xlink:href="#DejaVuSans-Bold-61" x="409.277344"/>
     <use xlink:href="#DejaVuSans-Bold-74" x="476.757812"/>
     <use xlink:href="#DejaVuSans-Bold-65" x="524.560547"/>
    </g>
   </g>
   <g id="text_8">
    <!-- DB Write -->
    <g transform="translate(88.788182 354.067191) scale(0.12 -0.12)">
     <defs>
      <path id="DejaVuSans-Bold-42" d="M 2456 2859 
Q 2741 2859 2887 2984 
Q 3034 3109 3034 3353 
Q 3034 3594 2887 3720 
Q 2741 3847 2456 3847 
L 1791 3847 
L 1791 2859 
L 2456 2859 
z
M 2497 819 
Q 2859 819 3042 972 
Q 3225 1125 3225 1434 
Q 3225 1738 3044 1889 
Q 2863 2041 2497 2041 
L 1791 2041 
L 1791 819 
L 2497 819 
z
M 3616 2497 
Q 4003 2384 4215 2081 
Q 4428 1778 4428 1338 
Q 4428 663 3972 331 
Q 3516 0 2584 0 
L 588 0 
L 588 4666 
L 2394 4666 
Q 3366 4666 3802 4372 
Q 4238 4078 4238 3431 
Q 4238 3091 4078 2852 
Q 3919 2613 3616 2497 
z
" transform="scale(0.015625)"/>
      <path id="DejaVuSans-Bold-57" d="M 191 4666 
L 1344 4666 
L 2150 1275 
L 2950 4666 
L 4109 4666 
L 4909 1275 
L 5716 4666 
L 6859 4666 
L 5759 0 
L 4372 0 
L 3525 3547 
L 2688 0 
L 1300 0 
L 191 4666 
z
" transform="scale(0.015625)"/>
     </defs>
     <use xlink:href="#DejaVuSans-Bold-44"/>
     <use xlink:href="#DejaVuSans-Bold-42" x="83.007812"/>
     <use xlink:href="#DejaVuSans-Bold-20" x="159.228516"/>
     <use xlink:href="#DejaVuSans-Bold-57" x="194.042969"/>
     <use xlink:href="#DejaVuSans-Bold-72" x="302.595703"/>
     <use xlink:href="#DejaVuSans-Bold-69" x="351.912109"/>
     <use xlink:href="#DejaVuSans-Bold-74" x="386.189453"/>
     <use xlink:href="#DejaVuSans-Bold-65" x="433.992188"/>
    </g>
   </g>
   <g id="text_9">
    <!-- API Export -->
    <g transform="translate(193.385625 88.351441) scale(0.12 -0.12)">
     <defs>
      <path id="DejaVuSans-Bold-49" d="M 588 4666 
L 1791 4666 
L 1791 0 
L 588 0 
L 588 4666 
z
" transform="scale(0.015625)"/>
      <path id="DejaVuSans-Bold-78" d="M 1422 1791 
L 159 3500 
L 1344 3500 
L 2059 2463 
L 2784 3500 
L 3969 3500 
L 2706 1797 
L 4031 0 
L 2847 0 
L 2059 1106 
L 1281 0 
L 97 0 
L 1422 1791 
z
" transform="scale(0.015625)"/>
      <path id="DejaVuSans-Bold-6f" d="M 2203 2784 
Q 1831 2784 1636 2517 
Q 1441 2250 1441 1747 
Q 1441 1244 1636 976 
Q 1831 709 2203 709 
Q 2569 709 2762 976 
Q 2956 1244 2956 1747 
Q 2956 2250 2762 2517 
Q 2569 2784 2203 2784 
z
M 2203 3584 
Q 3106 3584 3614 3096 
Q 4122 2609 4122 1747 
Q 4122 884 3614 396 
Q 3106 -91 2203 -91 
Q 1297 -91 786 396 
Q 275 884 275 1747 
Q 275 2609 786 3096 
Q 1297 3584 2203 3584 
z
" transform="scale(0.015625)"/>
     </defs>
     <use xlink:href="#DejaVuSans-Bold-41"/>
     <use xlink:href="#DejaVuSans-Bold-50" x="77.392578"/>
     <use xlink:href="#DejaVuSans-Bold-49" x="150.683594"/>
     <use xlink:href="#DejaVuSans-Bold-20" x="187.890625"/>
     <use xlink:href="#DejaVuSans-Bold-45" x="222.705078"/>
     <use xlink:href="#DejaVuSans-Bold-78" x="291.015625"/>
     <use xlink:href="#DejaVuSans-Bold-70" x="355.517578"/>
     <use xlink:href="#DejaVuSans-Bold-6f" x="427.099609"/>
     <use xlink:href="#DejaVuSans-Bold-72" x="495.800781"/>
     <use xlink:href="#DejaVuSans-Bold-74" x="545.117188"/>
    </g>
   </g>
   <g id="text_10">
    <!-- Dashboard -->
    <g transform="translate(192.368437 399.656806) scale(0.12 -0.12)">
     <defs>
      <path id="DejaVuSans-Bold-73" d="M 3272 3391 
L 3272 2541 
Q 2913 2691 2578 2766 
Q 2244 2841 1947 2841 
Q 1628 2841 1473 2761 
Q 1319 2681 1319 2516 
Q 1319 2381 1436 2309 
Q 1553 2238 1856 2203 
L 2053 2175 
Q 2913 2066 3209 1816 
Q 3506 1566 3506 1031 
Q 3506 472 3093 190 
Q 2681 -91 1863 -91 
Q 1516 -91 1145 -36 
Q 775 19 384 128 
L 384 978 
Q 719 816 1070 734 
Q 1422 653 1784 653 
Q 2113 653 2278 743 
Q 2444 834 2444 1013 
Q 2444 1163 2330 1236 
Q 2216 1309 1875 1350 
L 1678 1375 
Q 931 1469 631 1722 
Q 331 1975 331 2491 
Q 331 3047 712 3315 
Q 1094 3584 1881 3584 
Q 2191 3584 2531 3537 
Q 2872 3491 3272 3391 
z
" transform="scale(0.015625)"/>
      <path id="DejaVuSans-Bold-68" d="M 4056 2131 
L 4056 0 
L 2931 0 
L 2931 347 
L 2931 1625 
Q 2931 2084 2911 2256 
Q 2891 2428 2841 2509 
Q 2775 2619 2662 2680 
Q 2550 2741 2406 2741 
Q 2056 2741 1856 2470 
Q 1656 2200 1656 1722 
L 1656 0 
L 538 0 
L 538 4863 
L 1656 4863 
L 1656 2988 
Q 1909 3294 2193 3439 
Q 2478 3584 2822 3584 
Q 3428 3584 3742 3212 
Q 4056 2841 4056 2131 
z
" transform="scale(0.015625)"/>
      <path id="DejaVuSans-Bold-62" d="M 2400 722 
Q 2759 722 2948 984 
Q 3138 1247 3138 1747 
Q 3138 2247 2948 2509 
Q 2759 2772 2400 2772 
Q 2041 2772 1848 2508 
Q 1656 2244 1656 1747 
Q 1656 1250 1848 986 
Q 2041 722 2400 722 
z
M 1656 2988 
Q 1888 3294 2169 3439 
Q 2450 3584 2816 3584 
Q 3463 3584 3878 3070 
Q 4294 2556 4294 1747 
Q 4294 938 3878 423 
Q 3463 -91 2816 -91 
Q 2450 -91 2169 54 
Q 1888 200 1656 506 
L 1656 0 
L 538 0 
L 538 4863 
L 1656 4863 
L 1656 2988 
z
" transform="scale(0.015625)"/>
     </defs>
     <use xlink:href="#DejaVuSans-Bold-44"/>
     <use xlink:href="#DejaVuSans-Bold-61" x="83.007812"/>
     <use xlink:href="#DejaVuSans-Bold-73" x="150.488281"/>
     <use xlink:href="#DejaVuSans-Bold-68" x="210.009766"/>
     <use xlink:href="#DejaVuSans-Bold-62" x="281.201172"/>
     <use xlink:href="#DejaVuSans-Bold-6f" x="352.783203"/>
     <use xlink:href="#DejaVuSans-Bold-61" x="421.484375"/>
     <use xlink:href="#DejaVuSans-Bold-72" x="488.964844"/>
     <use xlink:href="#DejaVuSans-Bold-64" x="538.28125"/>
    </g>
   </g>
  </g>
 </g>
 <defs>
  <clipPath id="p595aca837e">
   <rect x="7.2" y="18.932873" width="443.52" height="443.52"/>
  </clipPath>
 </defs>
</svg>
