<?xml version="1.0" encoding="utf-8" standalone="no"?>
<!DOCTYPE svg PUBLIC "-//W3C//DTD SVG 1.1//EN"
  "http://www.w3.org/Graphics/SVG/1.1/DTD/svg11.dtd">
<svg xmlns:xlink="http://www.w3.org/1999/xlink" width="480.289574pt" height="488.860678pt" viewBox="0 0 480.289574 488.860678" xmlns="http://www.w3.org/2000/svg" version="1.1">
 <metadata>
  <rdf:RDF xmlns:dc="http://purl.org/dc/elements/1.1/" xmlns:cc="http://creativecommons.org/ns#" xmlns:rdf="http://www.w3.org/1999/02/22-rdf-syntax-ns#">
   <cc:Work>
    <dc:type rdf:resource="http://purl.org/dc/dcmitype/StillImage"/>
    <dc:date>2026-04-30T20:53:04.318791</dc:date>
    <dc:format>image/svg+xml</dc:format>
    <dc:creator>
     <cc:Agent>
      <dc:title>Matplotlib v3.10.7+dfsg1, https://matplotlib.org/</dc:title>
     </cc:Agent>
    </dc:creator>
   </cc:Work>
  </rdf:RDF>
 </metadata>
 <defs>
  <style type="text/css">*{stroke-linejoin: round; stroke-linecap: butt}</style>
 </defs>
 <g id="figure_1">
  <g id="patch_1">
   <path d="M 0 488.860678 
L 480.289574 488.860678 
L 480.289574 0 
L 0 0 
z
" style="fill: #ffffff"/>
  </g>
  <g id="axes_1">
   <g id="patch_2">
    <path d="M 243.858224 407.770727 
C 283.07382 407.770727 320.688525 392.190206 348.418139 364.460593 
C 376.147752 336.730979 391.728273 299.116274 391.728273 259.900678 
C 391.728273 220.685083 376.147752 183.070378 348.418139 155.340764 
C 320.688525 127.611151 283.07382 112.03063 243.858224 112.03063 
C 204.642629 112.03063 167.027924 127.611151 139.29831 155.340764 
C 111.568697 183.070378 95.988176 220.685083 95.988176 259.900678 
C 95.988176 299.116274 111.568697 336.730979 139.29831 364.460593 
C 167.027924 392.190206 204.642629 407.770727 243.858224 407.770727 
z
" clip-path="url(#p6f13165502)" style="fill: #f0f4fa; stroke: #f0f4fa; stroke-linejoin: miter"/>
   </g>
   <g id="patch_3">
    <path d="M 294.959401 374.048618 
Q 255.18999 255.842919 245.130907 147.056598 
" clip-path="url(#p6f13165502)" style="fill: none; opacity: 0.45; stroke: #999999; stroke-width: 0.96; stroke-linejoin: miter"/>
   </g>
   <g id="patch_4">
    <path d="M 299.612218 443.158762 
Q 230.362895 275.835753 88.307974 189.026736 
" clip-path="url(#p6f13165502)" style="fill: none; opacity: 0.45; stroke: #999999; stroke-width: 0.96; stroke-linejoin: miter"/>
   </g>
   <g id="patch_5">
    <path d="M 312.267104 435.488476 
Q 246.213355 386.112738 191.635919 422.7511 
" clip-path="url(#p6f13165502)" style="fill: none; opacity: 0.45; stroke: #999999; stroke-width: 0.96; stroke-linejoin: miter"/>
   </g>
   <g id="patch_6">
    <path d="M 306.960838 439.596229 
Q 224.209002 336.018016 113.093388 370.010051 
" clip-path="url(#p6f13165502)" style="fill: none; opacity: 0.45; stroke: #999999; stroke-width: 0.96; stroke-linejoin: miter"/>
   </g>
   <g id="patch_7">
    <path d="M 218.111271 94.181533 
Q 324.230991 135.780697 396.384864 205.825104 
" clip-path="url(#p6f13165502)" style="fill: none; opacity: 0.45; stroke: #999999; stroke-width: 0.96; stroke-linejoin: miter"/>
   </g>
   <g id="patch_8">
    <path d="M 268.321575 91.372292 
Q 131.724292 163.508082 84.671408 296.388502 
" clip-path="url(#p6f13165502)" style="fill: none; opacity: 0.45; stroke: #999999; stroke-width: 0.96; stroke-linejoin: miter"/>
   </g>
   <g id="patch_9">
    <path d="M 76.016974 186.583672 
Q 250.130068 251.395137 371.475049 373.346522 
" clip-path="url(#p6f13165502)" style="fill: none; opacity: 0.45; stroke: #999999; stroke-width: 0.96; stroke-linejoin: miter"/>
   </g>
   <g id="patch_10">
    <path d="M 74.641638 194.331096 
Q 259.961428 207.463914 410.748761 290.288578 
" clip-path="url(#p6f13165502)" style="fill: none; opacity: 0.45; stroke: #999999; stroke-width: 0.96; stroke-linejoin: miter"/>
   </g>
   <g id="patch_11">
    <path d="M 77.755026 182.466078 
Q 231.215498 276.81971 294.824447 431.693733 
" clip-path="url(#p6f13165502)" style="fill: none; opacity: 0.45; stroke: #999999; stroke-width: 0.96; stroke-linejoin: miter"/>
   </g>
   <g id="patch_12">
    <path d="M 193.604928 436.14198 
Q 224.850209 261.975944 151.501923 116.090321 
" clip-path="url(#p6f13165502)" style="fill: none; opacity: 0.45; stroke: #999999; stroke-width: 0.96; stroke-linejoin: miter"/>
   </g>
   <g id="patch_13">
    <path d="M 182.599111 430.724986 
Q 294.032643 282.069467 330.182641 113.873384 
" clip-path="url(#p6f13165502)" style="fill: none; opacity: 0.45; stroke: #999999; stroke-width: 0.96; stroke-linejoin: miter"/>
   </g>
   <g id="patch_14">
    <path d="M 181.116218 429.433059 
Q 247.169967 386.112738 302.234628 428.126181 
" clip-path="url(#p6f13165502)" style="fill: none; opacity: 0.45; stroke: #999999; stroke-width: 0.96; stroke-linejoin: miter"/>
   </g>
   <g id="patch_15">
    <path d="M 101.145624 373.464461 
Q 225.218961 336.314567 299.144447 429.930481 
" clip-path="url(#p6f13165502)" style="fill: none; opacity: 0.45; stroke: #999999; stroke-width: 0.96; stroke-linejoin: miter"/>
   </g>
   <g id="patch_16">
    <path d="M 405.297333 214.47871 
Q 323.373677 135.229735 229.685242 98.693762 
" clip-path="url(#p6f13165502)" style="fill: none; opacity: 0.45; stroke: #999999; stroke-width: 0.96; stroke-linejoin: miter"/>
   </g>
   <g id="patch_17">
    <path d="M 80.526711 308.099118 
Q 132.488444 162.626205 257.320009 97.141395 
" clip-path="url(#p6f13165502)" style="fill: none; opacity: 0.45; stroke: #999999; stroke-width: 0.96; stroke-linejoin: miter"/>
   </g>
   <g id="patch_18">
    <path d="M 117.4346 281.964639 
Q 212.472901 305.894749 269.915664 363.028394 
" clip-path="url(#p6f13165502)" style="fill: none; opacity: 0.45; stroke: #999999; stroke-width: 0.96; stroke-linejoin: miter"/>
   </g>
   <g id="patch_19">
    <path d="M 380.273495 382.117465 
Q 248.989719 250.66228 87.650311 190.943438 
" clip-path="url(#p6f13165502)" style="fill: none; opacity: 0.45; stroke: #999999; stroke-width: 0.96; stroke-linejoin: miter"/>
   </g>
   <g id="patch_20">
    <path d="M 338.283867 346.811834 
Q 268.511118 339.809809 224.58649 375.041687 
" clip-path="url(#p6f13165502)" style="fill: none; opacity: 0.45; stroke: #999999; stroke-width: 0.96; stroke-linejoin: miter"/>
   </g>
   <g id="patch_21">
    <path d="M 421.661868 296.225429 
Q 258.660803 207.082016 87.032032 195.23677 
" clip-path="url(#p6f13165502)" style="fill: none; opacity: 0.45; stroke: #999999; stroke-width: 0.96; stroke-linejoin: miter"/>
   </g>
   <g id="patch_22">
    <path d="M 370.281849 281.964639 
Q 299.51383 346.489162 222.957971 376.913763 
" clip-path="url(#p6f13165502)" style="fill: none; opacity: 0.45; stroke: #999999; stroke-width: 0.96; stroke-linejoin: miter"/>
   </g>
   <g id="patch_23">
    <path d="M 145.987628 104.956378 
Q 225.035497 263.264653 195.759062 423.905483 
" clip-path="url(#p6f13165502)" style="fill: none; opacity: 0.45; stroke: #999999; stroke-width: 0.96; stroke-linejoin: miter"/>
   </g>
   <g id="patch_24">
    <path d="M 138.921102 110.730241 
Q 244.384523 184.064862 338.546017 117.764962 
" clip-path="url(#p6f13165502)" style="fill: none; opacity: 0.45; stroke: #999999; stroke-width: 0.96; stroke-linejoin: miter"/>
   </g>
   <g id="patch_25">
    <path d="M 332.842434 101.737998 
Q 293.469533 283.302505 190.02863 420.767861 
" clip-path="url(#p6f13165502)" style="fill: none; opacity: 0.45; stroke: #999999; stroke-width: 0.96; stroke-linejoin: miter"/>
   </g>
   <g id="patch_26">
    <path d="M 348.795347 110.730241 
Q 243.331926 184.064862 149.170432 117.764962 
" clip-path="url(#p6f13165502)" style="fill: none; opacity: 0.45; stroke: #999999; stroke-width: 0.96; stroke-linejoin: miter"/>
   </g>
   <g id="patch_27">
    <path d="M 244.939981 132.97463 
C 252.271488 132.97463 259.303703 130.061791 264.487861 124.877632 
C 269.67202 119.693474 272.584859 112.661259 272.584859 105.329752 
C 272.584859 97.998244 269.67202 90.966029 264.487861 85.781871 
C 259.303703 80.597712 252.271488 77.684873 244.939981 77.684873 
C 237.608473 77.684873 230.576258 80.597712 225.3921 85.781871 
C 220.207941 90.966029 217.295103 97.998244 217.295103 105.329752 
C 217.295103 112.661259 220.207941 119.693474 225.3921 124.877632 
C 230.576258 130.061791 237.608473 132.97463 244.939981 132.97463 
z
" clip-path="url(#p6f13165502)" style="fill-opacity: 0.133333"/>
   </g>
   <g id="patch_28">
    <path d="M 160.787787 157.683943 
C 168.119294 157.683943 175.151509 154.771104 180.335668 149.586946 
C 185.519826 144.402787 188.432665 137.370572 188.432665 130.039065 
C 188.432665 122.707558 185.519826 115.675343 180.335668 110.491184 
C 175.151509 105.307026 168.119294 102.394187 160.787787 102.394187 
C 153.456279 102.394187 146.424065 105.307026 141.239906 110.491184 
C 136.055748 115.675343 133.142909 122.707558 133.142909 130.039065 
C 133.142909 137.370572 136.055748 144.402787 141.239906 149.586946 
C 146.424065 154.771104 153.456279 157.683943 160.787787 157.683943 
z
" clip-path="url(#p6f13165502)" style="fill-opacity: 0.133333"/>
   </g>
   <g id="patch_29">
    <path d="M 103.35332 223.966851 
C 110.684827 223.966851 117.717042 221.054012 122.901201 215.869854 
C 128.085359 210.685695 130.998198 203.653481 130.998198 196.321973 
C 130.998198 188.990466 128.085359 181.958251 122.901201 176.774092 
C 117.717042 171.589934 110.684827 168.677095 103.35332 168.677095 
C 96.021813 168.677095 88.989598 171.589934 83.805439 176.774092 
C 78.621281 181.958251 75.708442 188.990466 75.708442 196.321973 
C 75.708442 203.653481 78.621281 210.685695 83.805439 215.869854 
C 88.989598 221.054012 96.021813 223.966851 103.35332 223.966851 
z
" clip-path="url(#p6f13165502)" style="fill-opacity: 0.133333"/>
   </g>
   <g id="patch_30">
    <path d="M 90.871618 310.778999 
C 98.203125 310.778999 105.23534 307.86616 110.419498 302.682002 
C 115.603657 297.497843 118.516496 290.465628 118.516496 283.134121 
C 118.516496 275.802613 115.603657 268.770399 110.419498 263.58624 
C 105.23534 258.402082 98.203125 255.489243 90.871618 255.489243 
C 83.54011 255.489243 76.507895 258.402082 71.323737 263.58624 
C 66.139578 268.770399 63.226739 275.802613 63.226739 283.134121 
C 63.226739 290.465628 66.139578 297.497843 71.323737 302.682002 
C 76.507895 307.86616 83.54011 310.778999 90.871618 310.778999 
z
" clip-path="url(#p6f13165502)" style="fill-opacity: 0.133333"/>
   </g>
   <g id="patch_31">
    <path d="M 127.305532 390.558143 
C 134.637039 390.558143 141.669254 387.645304 146.853412 382.461145 
C 152.037571 377.276987 154.95041 370.244772 154.95041 362.913265 
C 154.95041 355.581757 152.037571 348.549542 146.853412 343.365384 
C 141.669254 338.181225 134.637039 335.268387 127.305532 335.268387 
C 119.974024 335.268387 112.94181 338.181225 107.757651 343.365384 
C 102.573492 348.549542 99.660654 355.581757 99.660654 362.913265 
C 99.660654 370.244772 102.573492 377.276987 107.757651 382.461145 
C 112.94181 387.645304 119.974024 390.558143 127.305532 390.558143 
z
" clip-path="url(#p6f13165502)" style="fill-opacity: 0.133333"/>
   </g>
   <g id="patch_32">
    <path d="M 201.087552 437.974968 
C 208.41906 437.974968 215.451274 435.062129 220.635433 429.877971 
C 225.819592 424.693812 228.73243 417.661597 228.73243 410.33009 
C 228.73243 402.998583 225.819592 395.966368 220.635433 390.782209 
C 215.451274 385.598051 208.41906 382.685212 201.087552 382.685212 
C 193.756045 382.685212 186.72383 385.598051 181.539671 390.782209 
C 176.355513 395.966368 173.442674 402.998583 173.442674 410.33009 
C 173.442674 417.661597 176.355513 424.693812 181.539671 429.877971 
C 186.72383 435.062129 193.756045 437.974968 201.087552 437.974968 
z
" clip-path="url(#p6f13165502)" style="fill-opacity: 0.133333"/>
   </g>
   <g id="patch_33">
    <path d="M 288.792409 446.268432 
C 298.323368 446.268432 307.465248 442.481741 314.204654 435.742335 
C 320.94406 429.002929 324.73075 419.86105 324.73075 410.33009 
C 324.73075 400.79913 320.94406 391.657251 314.204654 384.917845 
C 307.465248 378.178439 298.323368 374.391749 288.792409 374.391749 
C 279.261449 374.391749 270.11957 378.178439 263.380164 384.917845 
C 256.640758 391.657251 252.854067 400.79913 252.854067 410.33009 
C 252.854067 419.86105 256.640758 429.002929 263.380164 435.742335 
C 270.11957 442.481741 279.261449 446.268432 288.792409 446.268432 
z
" clip-path="url(#p6f13165502)" style="fill-opacity: 0.133333"/>
   </g>
   <g id="patch_34">
    <path d="M 362.574429 390.558143 
C 369.905937 390.558143 376.938152 387.645304 382.12231 382.461145 
C 387.306469 377.276987 390.219307 370.244772 390.219307 362.913265 
C 390.219307 355.581757 387.306469 348.549542 382.12231 343.365384 
C 376.938152 338.181225 369.905937 335.268387 362.574429 335.268387 
C 355.242922 335.268387 348.210707 338.181225 343.026549 343.365384 
C 337.84239 348.549542 334.929551 355.581757 334.929551 362.913265 
C 334.929551 370.244772 337.84239 377.276987 343.026549 382.461145 
C 348.210707 387.645304 355.242922 390.558143 362.574429 390.558143 
z
" clip-path="url(#p6f13165502)" style="fill-opacity: 0.133333"/>
   </g>
   <g id="patch_35">
    <path d="M 399.008344 310.778999 
C 406.339851 310.778999 413.372066 307.86616 418.556224 302.682002 
C 423.740383 297.497843 426.653222 290.465628 426.653222 283.134121 
C 426.653222 275.802613 423.740383 268.770399 418.556224 263.58624 
C 413.372066 258.402082 406.339851 255.489243 399.008344 255.489243 
C 391.676836 255.489243 384.644621 258.402082 379.460463 263.58624 
C 374.276304 268.770399 371.363466 275.802613 371.363466 283.134121 
C 371.363466 290.465628 374.276304 297.497843 379.460463 302.682002 
C 384.644621 307.86616 391.676836 310.778999 399.008344 310.778999 
z
" clip-path="url(#p6f13165502)" style="fill-opacity: 0.133333"/>
   </g>
   <g id="patch_36">
    <path d="M 386.526641 223.966851 
C 393.858148 223.966851 400.890363 221.054012 406.074522 215.869854 
C 411.25868 210.685695 414.171519 203.653481 414.171519 196.321973 
C 414.171519 188.990466 411.25868 181.958251 406.074522 176.774092 
C 400.890363 171.589934 393.858148 168.677095 386.526641 168.677095 
C 379.195134 168.677095 372.162919 171.589934 366.97876 176.774092 
C 361.794602 181.958251 358.881763 188.990466 358.881763 196.321973 
C 358.881763 203.653481 361.794602 210.685695 366.97876 215.869854 
C 372.162919 221.054012 379.195134 223.966851 386.526641 223.966851 
z
" clip-path="url(#p6f13165502)" style="fill-opacity: 0.133333"/>
   </g>
   <g id="patch_37">
    <path d="M 329.092174 157.683943 
C 336.423682 157.683943 343.455896 154.771104 348.640055 149.586946 
C 353.824214 144.402787 356.737052 137.370572 356.737052 130.039065 
C 356.737052 122.707558 353.824214 115.675343 348.640055 110.491184 
C 343.455896 105.307026 336.423682 102.394187 329.092174 102.394187 
C 321.760667 102.394187 314.728452 105.307026 309.544294 110.491184 
C 304.360135 115.675343 301.447296 122.707558 301.447296 130.039065 
C 301.447296 137.370572 304.360135 144.402787 309.544294 149.586946 
C 314.728452 154.771104 321.760667 157.683943 329.092174 157.683943 
z
" clip-path="url(#p6f13165502)" style="fill-opacity: 0.133333"/>
   </g>
   <g id="patch_38">
    <path d="M 243.858224 131.892873 
C 251.189732 131.892873 258.221947 128.980035 263.406105 123.795876 
C 268.590264 118.611718 271.503103 111.579503 271.503103 104.247995 
C 271.503103 96.916488 268.590264 89.884273 263.406105 84.700115 
C 258.221947 79.515956 251.189732 76.603117 243.858224 76.603117 
C 236.526717 76.603117 229.494502 79.515956 224.310344 84.700115 
C 219.126185 89.884273 216.213346 96.916488 216.213346 104.247995 
C 216.213346 111.579503 219.126185 118.611718 224.310344 123.795876 
C 229.494502 128.980035 236.526717 131.892873 243.858224 131.892873 
z
" clip-path="url(#p6f13165502)" style="fill: #377eb8; stroke: #ffffff; stroke-width: 2.8; stroke-linejoin: miter"/>
   </g>
   <g id="patch_39">
    <path d="M 159.706031 156.602187 
C 167.037538 156.602187 174.069753 153.689348 179.253911 148.50519 
C 184.43807 143.321031 187.350909 136.288816 187.350909 128.957309 
C 187.350909 121.625802 184.43807 114.593587 179.253911 109.409428 
C 174.069753 104.22527 167.037538 101.312431 159.706031 101.312431 
C 152.374523 101.312431 145.342309 104.22527 140.15815 109.409428 
C 134.973991 114.593587 132.061153 121.625802 132.061153 128.957309 
C 132.061153 136.288816 134.973991 143.321031 140.15815 148.50519 
C 145.342309 153.689348 152.374523 156.602187 159.706031 156.602187 
z
" clip-path="url(#p6f13165502)" style="fill: #4daf4a; stroke: #ffffff; stroke-width: 2.8; stroke-linejoin: miter"/>
   </g>
   <g id="patch_40">
    <path d="M 102.271564 222.885095 
C 109.603071 222.885095 116.635286 219.972256 121.819445 214.788098 
C 127.003603 209.603939 129.916442 202.571724 129.916442 195.240217 
C 129.916442 187.90871 127.003603 180.876495 121.819445 175.692336 
C 116.635286 170.508178 109.603071 167.595339 102.271564 167.595339 
C 94.940057 167.595339 87.907842 170.508178 82.723683 175.692336 
C 77.539525 180.876495 74.626686 187.90871 74.626686 195.240217 
C 74.626686 202.571724 77.539525 209.603939 82.723683 214.788098 
C 87.907842 219.972256 94.940057 222.885095 102.271564 222.885095 
z
" clip-path="url(#p6f13165502)" style="fill: #377eb8; stroke: #ffffff; stroke-width: 2.8; stroke-linejoin: miter"/>
   </g>
   <g id="patch_41">
    <path d="M 89.789861 309.697243 
C 97.121369 309.697243 104.153584 306.784404 109.337742 301.600245 
C 114.521901 296.416087 117.434739 289.383872 117.434739 282.052365 
C 117.434739 274.720857 114.521901 267.688643 109.337742 262.504484 
C 104.153584 257.320325 97.121369 254.407487 89.789861 254.407487 
C 82.458354 254.407487 75.426139 257.320325 70.241981 262.504484 
C 65.057822 267.688643 62.144983 274.720857 62.144983 282.052365 
C 62.144983 289.383872 65.057822 296.416087 70.241981 301.600245 
C 75.426139 306.784404 82.458354 309.697243 89.789861 309.697243 
z
" clip-path="url(#p6f13165502)" style="fill: #4daf4a; stroke: #ffffff; stroke-width: 2.8; stroke-linejoin: miter"/>
   </g>
   <g id="patch_42">
    <path d="M 126.223776 389.476387 
C 133.555283 389.476387 140.587498 386.563548 145.771656 381.379389 
C 150.955815 376.195231 153.868654 369.163016 153.868654 361.831509 
C 153.868654 354.500001 150.955815 347.467786 145.771656 342.283628 
C 140.587498 337.099469 133.555283 334.18663 126.223776 334.18663 
C 118.892268 334.18663 111.860053 337.099469 106.675895 342.283628 
C 101.491736 347.467786 98.578898 354.500001 98.578898 361.831509 
C 98.578898 369.163016 101.491736 376.195231 106.675895 381.379389 
C 111.860053 386.563548 118.892268 389.476387 126.223776 389.476387 
z
" clip-path="url(#p6f13165502)" style="fill: #377eb8; stroke: #ffffff; stroke-width: 2.8; stroke-linejoin: miter"/>
   </g>
   <g id="patch_43">
    <path d="M 200.005796 436.893212 
C 207.337303 436.893212 214.369518 433.980373 219.553677 428.796215 
C 224.737835 423.612056 227.650674 416.579841 227.650674 409.248334 
C 227.650674 401.916827 224.737835 394.884612 219.553677 389.700453 
C 214.369518 384.516295 207.337303 381.603456 200.005796 381.603456 
C 192.674289 381.603456 185.642074 384.516295 180.457915 389.700453 
C 175.273757 394.884612 172.360918 401.916827 172.360918 409.248334 
C 172.360918 416.579841 175.273757 423.612056 180.457915 428.796215 
C 185.642074 433.980373 192.674289 436.893212 200.005796 436.893212 
z
" clip-path="url(#p6f13165502)" style="fill: #377eb8; stroke: #ffffff; stroke-width: 2.8; stroke-linejoin: miter"/>
   </g>
   <g id="patch_44">
    <path d="M 287.710653 445.186675 
C 297.241612 445.186675 306.383492 441.399985 313.122898 434.660579 
C 319.862304 427.921173 323.648994 418.779294 323.648994 409.248334 
C 323.648994 399.717374 319.862304 390.575495 313.122898 383.836089 
C 306.383492 377.096683 297.241612 373.309992 287.710653 373.309992 
C 278.179693 373.309992 269.037814 377.096683 262.298408 383.836089 
C 255.559002 390.575495 251.772311 399.717374 251.772311 409.248334 
C 251.772311 418.779294 255.559002 427.921173 262.298408 434.660579 
C 269.037814 441.399985 278.179693 445.186675 287.710653 445.186675 
z
" clip-path="url(#p6f13165502)" style="fill: #e41a1c; stroke: #ffffff; stroke-width: 2.8; stroke-linejoin: miter"/>
   </g>
   <g id="patch_45">
    <path d="M 361.492673 389.476387 
C 368.824181 389.476387 375.856395 386.563548 381.040554 381.379389 
C 386.224713 376.195231 389.137551 369.163016 389.137551 361.831509 
C 389.137551 354.500001 386.224713 347.467786 381.040554 342.283628 
C 375.856395 337.099469 368.824181 334.18663 361.492673 334.18663 
C 354.161166 334.18663 347.128951 337.099469 341.944793 342.283628 
C 336.760634 347.467786 333.847795 354.500001 333.847795 361.831509 
C 333.847795 369.163016 336.760634 376.195231 341.944793 381.379389 
C 347.128951 386.563548 354.161166 389.476387 361.492673 389.476387 
z
" clip-path="url(#p6f13165502)" style="fill: #4daf4a; stroke: #ffffff; stroke-width: 2.8; stroke-linejoin: miter"/>
   </g>
   <g id="patch_46">
    <path d="M 397.926588 309.697243 
C 405.258095 309.697243 412.29031 306.784404 417.474468 301.600245 
C 422.658627 296.416087 425.571466 289.383872 425.571466 282.052365 
C 425.571466 274.720857 422.658627 267.688643 417.474468 262.504484 
C 412.29031 257.320325 405.258095 254.407487 397.926588 254.407487 
C 390.59508 254.407487 383.562865 257.320325 378.378707 262.504484 
C 373.194548 267.688643 370.281709 274.720857 370.281709 282.052365 
C 370.281709 289.383872 373.194548 296.416087 378.378707 301.600245 
C 383.562865 306.784404 390.59508 309.697243 397.926588 309.697243 
z
" clip-path="url(#p6f13165502)" style="fill: #4daf4a; stroke: #ffffff; stroke-width: 2.8; stroke-linejoin: miter"/>
   </g>
   <g id="patch_47">
    <path d="M 385.444885 222.885095 
C 392.776392 222.885095 399.808607 219.972256 404.992766 214.788098 
C 410.176924 209.603939 413.089763 202.571724 413.089763 195.240217 
C 413.089763 187.90871 410.176924 180.876495 404.992766 175.692336 
C 399.808607 170.508178 392.776392 167.595339 385.444885 167.595339 
C 378.113378 167.595339 371.081163 170.508178 365.897004 175.692336 
C 360.712846 180.876495 357.800007 187.90871 357.800007 195.240217 
C 357.800007 202.571724 360.712846 209.603939 365.897004 214.788098 
C 371.081163 219.972256 378.113378 222.885095 385.444885 222.885095 
z
" clip-path="url(#p6f13165502)" style="fill: #4daf4a; stroke: #ffffff; stroke-width: 2.8; stroke-linejoin: miter"/>
   </g>
   <g id="patch_48">
    <path d="M 328.010418 156.602187 
C 335.341926 156.602187 342.37414 153.689348 347.558299 148.50519 
C 352.742457 143.321031 355.655296 136.288816 355.655296 128.957309 
C 355.655296 121.625802 352.742457 114.593587 347.558299 109.409428 
C 342.37414 104.22527 335.341926 101.312431 328.010418 101.312431 
C 320.678911 101.312431 313.646696 104.22527 308.462537 109.409428 
C 303.278379 114.593587 300.36554 121.625802 300.36554 128.957309 
C 300.36554 136.288816 303.278379 143.321031 308.462537 148.50519 
C 313.646696 153.689348 320.678911 156.602187 328.010418 156.602187 
z
" clip-path="url(#p6f13165502)" style="fill: #4daf4a; stroke: #ffffff; stroke-width: 2.8; stroke-linejoin: miter"/>
   </g>
   <g id="text_1">
    <!-- 11 pages, color by depth from home -->
    <g transform="translate(129.623849 46.795703) scale(0.125 -0.125)">
     <defs>
      <path id="DejaVuSans-31" d="M 794 531 
L 1825 531 
L 1825 4091 
L 703 3866 
L 703 4441 
L 1819 4666 
L 2450 4666 
L 2450 531 
L 3481 531 
L 3481 0 
L 794 0 
L 794 531 
z
" transform="scale(0.015625)"/>
      <path id="DejaVuSans-20" transform="scale(0.015625)"/>
      <path id="DejaVuSans-70" d="M 1159 525 
L 1159 -1331 
L 581 -1331 
L 581 3500 
L 1159 3500 
L 1159 2969 
Q 1341 3281 1617 3432 
Q 1894 3584 2278 3584 
Q 2916 3584 3314 3078 
Q 3713 2572 3713 1747 
Q 3713 922 3314 415 
Q 2916 -91 2278 -91 
Q 1894 -91 1617 61 
Q 1341 213 1159 525 
z
M 3116 1747 
Q 3116 2381 2855 2742 
Q 2594 3103 2138 3103 
Q 1681 3103 1420 2742 
Q 1159 2381 1159 1747 
Q 1159 1113 1420 752 
Q 1681 391 2138 391 
Q 2594 391 2855 752 
Q 3116 1113 3116 1747 
z
" transform="scale(0.015625)"/>
      <path id="DejaVuSans-61" d="M 2194 1759 
Q 1497 1759 1228 1600 
Q 959 1441 959 1056 
Q 959 750 1161 570 
Q 1363 391 1709 391 
Q 2188 391 2477 730 
Q 2766 1069 2766 1631 
L 2766 1759 
L 2194 1759 
z
M 3341 1997 
L 3341 0 
L 2766 0 
L 2766 531 
Q 2569 213 2275 61 
Q 1981 -91 1556 -91 
Q 1019 -91 701 211 
Q 384 513 384 1019 
Q 384 1609 779 1909 
Q 1175 2209 1959 2209 
L 2766 2209 
L 2766 2266 
Q 2766 2663 2505 2880 
Q 2244 3097 1772 3097 
Q 1472 3097 1187 3025 
Q 903 2953 641 2809 
L 641 3341 
Q 956 3463 1253 3523 
Q 1550 3584 1831 3584 
Q 2591 3584 2966 3190 
Q 3341 2797 3341 1997 
z
" transform="scale(0.015625)"/>
      <path id="DejaVuSans-67" d="M 2906 1791 
Q 2906 2416 2648 2759 
Q 2391 3103 1925 3103 
Q 1463 3103 1205 2759 
Q 947 2416 947 1791 
Q 947 1169 1205 825 
Q 1463 481 1925 481 
Q 2391 481 2648 825 
Q 2906 1169 2906 1791 
z
M 3481 434 
Q 3481 -459 3084 -895 
Q 2688 -1331 1869 -1331 
Q 1566 -1331 1297 -1286 
Q 1028 -1241 775 -1147 
L 775 -588 
Q 1028 -725 1275 -790 
Q 1522 -856 1778 -856 
Q 2344 -856 2625 -561 
Q 2906 -266 2906 331 
L 2906 616 
Q 2728 306 2450 153 
Q 2172 0 1784 0 
Q 1141 0 747 490 
Q 353 981 353 1791 
Q 353 2603 747 3093 
Q 1141 3584 1784 3584 
Q 2172 3584 2450 3431 
Q 2728 3278 2906 2969 
L 2906 3500 
L 3481 3500 
L 3481 434 
z
" transform="scale(0.015625)"/>
      <path id="DejaVuSans-65" d="M 3597 1894 
L 3597 1613 
L 953 1613 
Q 991 1019 1311 708 
Q 1631 397 2203 397 
Q 2534 397 2845 478 
Q 3156 559 3463 722 
L 3463 178 
Q 3153 47 2828 -22 
Q 2503 -91 2169 -91 
Q 1331 -91 842 396 
Q 353 884 353 1716 
Q 353 2575 817 3079 
Q 1281 3584 2069 3584 
Q 2775 3584 3186 3129 
Q 3597 2675 3597 1894 
z
M 3022 2063 
Q 3016 2534 2758 2815 
Q 2500 3097 2075 3097 
Q 1594 3097 1305 2825 
Q 1016 2553 972 2059 
L 3022 2063 
z
" transform="scale(0.015625)"/>
      <path id="DejaVuSans-73" d="M 2834 3397 
L 2834 2853 
Q 2591 2978 2328 3040 
Q 2066 3103 1784 3103 
Q 1356 3103 1142 2972 
Q 928 2841 928 2578 
Q 928 2378 1081 2264 
Q 1234 2150 1697 2047 
L 1894 2003 
Q 2506 1872 2764 1633 
Q 3022 1394 3022 966 
Q 3022 478 2636 193 
Q 2250 -91 1575 -91 
Q 1294 -91 989 -36 
Q 684 19 347 128 
L 347 722 
Q 666 556 975 473 
Q 1284 391 1588 391 
Q 1994 391 2212 530 
Q 2431 669 2431 922 
Q 2431 1156 2273 1281 
Q 2116 1406 1581 1522 
L 1381 1569 
Q 847 1681 609 1914 
Q 372 2147 372 2553 
Q 372 3047 722 3315 
Q 1072 3584 1716 3584 
Q 2034 3584 2315 3537 
Q 2597 3491 2834 3397 
z
" transform="scale(0.015625)"/>
      <path id="DejaVuSans-2c" d="M 750 794 
L 1409 794 
L 1409 256 
L 897 -744 
L 494 -744 
L 750 256 
L 750 794 
z
" transform="scale(0.015625)"/>
      <path id="DejaVuSans-63" d="M 3122 3366 
L 3122 2828 
Q 2878 2963 2633 3030 
Q 2388 3097 2138 3097 
Q 1578 3097 1268 2742 
Q 959 2388 959 1747 
Q 959 1106 1268 751 
Q 1578 397 2138 397 
Q 2388 397 2633 464 
Q 2878 531 3122 666 
L 3122 134 
Q 2881 22 2623 -34 
Q 2366 -91 2075 -91 
Q 1284 -91 818 406 
Q 353 903 353 1747 
Q 353 2603 823 3093 
Q 1294 3584 2113 3584 
Q 2378 3584 2631 3529 
Q 2884 3475 3122 3366 
z
" transform="scale(0.015625)"/>
      <path id="DejaVuSans-6f" d="M 1959 3097 
Q 1497 3097 1228 2736 
Q 959 2375 959 1747 
Q 959 1119 1226 758 
Q 1494 397 1959 397 
Q 2419 397 2687 759 
Q 2956 1122 2956 1747 
Q 2956 2369 2687 2733 
Q 2419 3097 1959 3097 
z
M 1959 3584 
Q 2709 3584 3137 3096 
Q 3566 2609 3566 1747 
Q 3566 888 3137 398 
Q 2709 -91 1959 -91 
Q 1206 -91 779 398 
Q 353 888 353 1747 
Q 353 2609 779 3096 
Q 1206 3584 1959 3584 
z
" transform="scale(0.015625)"/>
      <path id="DejaVuSans-6c" d="M 603 4863 
L 1178 4863 
L 1178 0 
L 603 0 
L 603 4863 
z
" transform="scale(0.015625)"/>
      <path id="DejaVuSans-72" d="M 2631 2963 
Q 2534 3019 2420 3045 
Q 2306 3072 2169 3072 
Q 1681 3072 1420 2755 
Q 1159 2438 1159 1844 
L 1159 0 
L 581 0 
L 581 3500 
L 1159 3500 
L 1159 2956 
Q 1341 3275 1631 3429 
Q 1922 3584 2338 3584 
Q 2397 3584 2469 3576 
Q 2541 3569 2628 3553 
L 2631 2963 
z
" transform="scale(0.015625)"/>
      <path id="DejaVuSans-62" d="M 3116 1747 
Q 3116 2381 2855 2742 
Q 2594 3103 2138 3103 
Q 1681 3103 1420 2742 
Q 1159 2381 1159 1747 
Q 1159 1113 1420 752 
Q 1681 391 2138 391 
Q 2594 391 2855 752 
Q 3116 1113 3116 1747 
z
M 1159 2969 
Q 1341 3281 1617 3432 
Q 1894 3584 2278 3584 
Q 2916 3584 3314 3078 
Q 3713 2572 3713 1747 
Q 3713 922 3314 415 
Q 2916 -91 2278 -91 
Q 1894 -91 1617 61 
Q 1341 213 1159 525 
L 1159 0 
L 581 0 
L 581 4863 
L 1159 4863 
L 1159 2969 
z
" transform="scale(0.015625)"/>
      <path id="DejaVuSans-79" d="M 2059 -325 
Q 1816 -950 1584 -1140 
Q 1353 -1331 966 -1331 
L 506 -1331 
L 506 -850 
L 844 -850 
Q 1081 -850 1212 -737 
Q 1344 -625 1503 -206 
L 1606 56 
L 191 3500 
L 800 3500 
L 1894 763 
L 2988 3500 
L 3597 3500 
L 2059 -325 
z
" transform="scale(0.015625)"/>
      <path id="DejaVuSans-64" d="M 2906 2969 
L 2906 4863 
L 3481 4863 
L 3481 0 
L 2906 0 
L 2906 525 
Q 2725 213 2448 61 
Q 2172 -91 1784 -91 
Q 1150 -91 751 415 
Q 353 922 353 1747 
Q 353 2572 751 3078 
Q 1150 3584 1784 3584 
Q 2172 3584 2448 3432 
Q 2725 3281 2906 2969 
z
M 947 1747 
Q 947 1113 1208 752 
Q 1469 391 1925 391 
Q 2381 391 2643 752 
Q 2906 1113 2906 1747 
Q 2906 2381 2643 2742 
Q 2381 3103 1925 3103 
Q 1469 3103 1208 2742 
Q 947 2381 947 1747 
z
" transform="scale(0.015625)"/>
      <path id="DejaVuSans-74" d="M 1172 4494 
L 1172 3500 
L 2356 3500 
L 2356 3053 
L 1172 3053 
L 1172 1153 
Q 1172 725 1289 603 
Q 1406 481 1766 481 
L 2356 481 
L 2356 0 
L 1766 0 
Q 1100 0 847 248 
Q 594 497 594 1153 
L 594 3053 
L 172 3053 
L 172 3500 
L 594 3500 
L 594 4494 
L 1172 4494 
z
" transform="scale(0.015625)"/>
      <path id="DejaVuSans-68" d="M 3513 2113 
L 3513 0 
L 2938 0 
L 2938 2094 
Q 2938 2591 2744 2837 
Q 2550 3084 2163 3084 
Q 1697 3084 1428 2787 
Q 1159 2491 1159 1978 
L 1159 0 
L 581 0 
L 581 4863 
L 1159 4863 
L 1159 2956 
Q 1366 3272 1645 3428 
Q 1925 3584 2291 3584 
Q 2894 3584 3203 3211 
Q 3513 2838 3513 2113 
z
" transform="scale(0.015625)"/>
      <path id="DejaVuSans-66" d="M 2375 4863 
L 2375 4384 
L 1825 4384 
Q 1516 4384 1395 4259 
Q 1275 4134 1275 3809 
L 1275 3500 
L 2222 3500 
L 2222 3053 
L 1275 3053 
L 1275 0 
L 697 0 
L 697 3053 
L 147 3053 
L 147 3500 
L 697 3500 
L 697 3744 
Q 697 4328 969 4595 
Q 1241 4863 1831 4863 
L 2375 4863 
z
" transform="scale(0.015625)"/>
      <path id="DejaVuSans-6d" d="M 3328 2828 
Q 3544 3216 3844 3400 
Q 4144 3584 4550 3584 
Q 5097 3584 5394 3201 
Q 5691 2819 5691 2113 
L 5691 0 
L 5113 0 
L 5113 2094 
Q 5113 2597 4934 2840 
Q 4756 3084 4391 3084 
Q 3944 3084 3684 2787 
Q 3425 2491 3425 1978 
L 3425 0 
L 2847 0 
L 2847 2094 
Q 2847 2600 2669 2842 
Q 2491 3084 2119 3084 
Q 1678 3084 1418 2786 
Q 1159 2488 1159 1978 
L 1159 0 
L 581 0 
L 581 3500 
L 1159 3500 
L 1159 2956 
Q 1356 3278 1631 3431 
Q 1906 3584 2284 3584 
Q 2666 3584 2933 3390 
Q 3200 3197 3328 2828 
z
" transform="scale(0.015625)"/>
     </defs>
     <use xlink:href="#DejaVuSans-31"/>
     <use xlink:href="#DejaVuSans-31" transform="translate(63.623047 0)"/>
     <use xlink:href="#DejaVuSans-20" transform="translate(127.246094 0)"/>
     <use xlink:href="#DejaVuSans-70" transform="translate(159.033203 0)"/>
     <use xlink:href="#DejaVuSans-61" transform="translate(222.509766 0)"/>
     <use xlink:href="#DejaVuSans-67" transform="translate(283.789062 0)"/>
     <use xlink:href="#DejaVuSans-65" transform="translate(347.265625 0)"/>
     <use xlink:href="#DejaVuSans-73" transform="translate(408.789062 0)"/>
     <use xlink:href="#DejaVuSans-2c" transform="translate(460.888672 0)"/>
     <use xlink:href="#DejaVuSans-20" transform="translate(492.675781 0)"/>
     <use xlink:href="#DejaVuSans-63" transform="translate(524.462891 0)"/>
     <use xlink:href="#DejaVuSans-6f" transform="translate(579.443359 0)"/>
     <use xlink:href="#DejaVuSans-6c" transform="translate(640.625 0)"/>
     <use xlink:href="#DejaVuSans-6f" transform="translate(668.408203 0)"/>
     <use xlink:href="#DejaVuSans-72" transform="translate(729.589844 0)"/>
     <use xlink:href="#DejaVuSans-20" transform="translate(770.703125 0)"/>
     <use xlink:href="#DejaVuSans-62" transform="translate(802.490234 0)"/>
     <use xlink:href="#DejaVuSans-79" transform="translate(865.966797 0)"/>
     <use xlink:href="#DejaVuSans-20" transform="translate(925.146484 0)"/>
     <use xlink:href="#DejaVuSans-64" transform="translate(956.933594 0)"/>
     <use xlink:href="#DejaVuSans-65" transform="translate(1020.410156 0)"/>
     <use xlink:href="#DejaVuSans-70" transform="translate(1081.933594 0)"/>
     <use xlink:href="#DejaVuSans-74" transform="translate(1145.410156 0)"/>
     <use xlink:href="#DejaVuSans-68" transform="translate(1184.619141 0)"/>
     <use xlink:href="#DejaVuSans-20" transform="translate(1247.998047 0)"/>
     <use xlink:href="#DejaVuSans-66" transform="translate(1279.785156 0)"/>
     <use xlink:href="#DejaVuSans-72" transform="translate(1314.990234 0)"/>
     <use xlink:href="#DejaVuSans-6f" transform="translate(1353.853516 0)"/>
     <use xlink:href="#DejaVuSans-6d" transform="translate(1415.035156 0)"/>
     <use xlink:href="#DejaVuSans-20" transform="translate(1512.447266 0)"/>
     <use xlink:href="#DejaVuSans-68" transform="translate(1544.234375 0)"/>
     <use xlink:href="#DejaVuSans-6f" transform="translate(1607.613281 0)"/>
     <use xlink:href="#DejaVuSans-6d" transform="translate(1668.794922 0)"/>
     <use xlink:href="#DejaVuSans-65" transform="translate(1766.207031 0)"/>
    </g>
   </g>
   <g id="text_2">
    <!-- Web Link Graph -->
    <g transform="translate(132.229318 26.196094) scale(0.25 -0.25)">
     <defs>
      <path id="DejaVuSans-Bold-57" d="M 191 4666 
L 1344 4666 
L 2150 1275 
L 2950 4666 
L 4109 4666 
L 4909 1275 
L 5716 4666 
L 6859 4666 
L 5759 0 
L 4372 0 
L 3525 3547 
L 2688 0 
L 1300 0 
L 191 4666 
z
" transform="scale(0.015625)"/>
      <path id="DejaVuSans-Bold-65" d="M 4031 1759 
L 4031 1441 
L 1416 1441 
Q 1456 1047 1700 850 
Q 1944 653 2381 653 
Q 2734 653 3104 758 
Q 3475 863 3866 1075 
L 3866 213 
Q 3469 63 3072 -14 
Q 2675 -91 2278 -91 
Q 1328 -91 801 392 
Q 275 875 275 1747 
Q 275 2603 792 3093 
Q 1309 3584 2216 3584 
Q 3041 3584 3536 3087 
Q 4031 2591 4031 1759 
z
M 2881 2131 
Q 2881 2450 2695 2645 
Q 2509 2841 2209 2841 
Q 1884 2841 1681 2658 
Q 1478 2475 1428 2131 
L 2881 2131 
z
" transform="scale(0.015625)"/>
      <path id="DejaVuSans-Bold-62" d="M 2400 722 
Q 2759 722 2948 984 
Q 3138 1247 3138 1747 
Q 3138 2247 2948 2509 
Q 2759 2772 2400 2772 
Q 2041 2772 1848 2508 
Q 1656 2244 1656 1747 
Q 1656 1250 1848 986 
Q 2041 722 2400 722 
z
M 1656 2988 
Q 1888 3294 2169 3439 
Q 2450 3584 2816 3584 
Q 3463 3584 3878 3070 
Q 4294 2556 4294 1747 
Q 4294 938 3878 423 
Q 3463 -91 2816 -91 
Q 2450 -91 2169 54 
Q 1888 200 1656 506 
L 1656 0 
L 538 0 
L 538 4863 
L 1656 4863 
L 1656 2988 
z
" transform="scale(0.015625)"/>
      <path id="DejaVuSans-Bold-20" transform="scale(0.015625)"/>
      <path id="DejaVuSans-Bold-4c" d="M 588 4666 
L 1791 4666 
L 1791 909 
L 3903 909 
L 3903 0 
L 588 0 
L 588 4666 
z
" transform="scale(0.015625)"/>
      <path id="DejaVuSans-Bold-69" d="M 538 3500 
L 1656 3500 
L 1656 0 
L 538 0 
L 538 3500 
z
M 538 4863 
L 1656 4863 
L 1656 3950 
L 538 3950 
L 538 4863 
z
" transform="scale(0.015625)"/>
      <path id="DejaVuSans-Bold-6e" d="M 4056 2131 
L 4056 0 
L 2931 0 
L 2931 347 
L 2931 1631 
Q 2931 2084 2911 2256 
Q 2891 2428 2841 2509 
Q 2775 2619 2662 2680 
Q 2550 2741 2406 2741 
Q 2056 2741 1856 2470 
Q 1656 2200 1656 1722 
L 1656 0 
L 538 0 
L 538 3500 
L 1656 3500 
L 1656 2988 
Q 1909 3294 2193 3439 
Q 2478 3584 2822 3584 
Q 3428 3584 3742 3212 
Q 4056 2841 4056 2131 
z
" transform="scale(0.015625)"/>
      <path id="DejaVuSans-Bold-6b" d="M 538 4863 
L 1656 4863 
L 1656 2216 
L 2944 3500 
L 4244 3500 
L 2534 1894 
L 4378 0 
L 3022 0 
L 1656 1459 
L 1656 0 
L 538 0 
L 538 4863 
z
" transform="scale(0.015625)"/>
      <path id="DejaVuSans-Bold-47" d="M 4781 347 
Q 4331 128 3847 18 
Q 3363 -91 2847 -91 
Q 1681 -91 1000 561 
Q 319 1213 319 2328 
Q 319 3456 1012 4103 
Q 1706 4750 2913 4750 
Q 3378 4750 3804 4662 
Q 4231 4575 4609 4403 
L 4609 3438 
Q 4219 3659 3833 3768 
Q 3447 3878 3059 3878 
Q 2341 3878 1952 3476 
Q 1563 3075 1563 2328 
Q 1563 1588 1938 1184 
Q 2313 781 3003 781 
Q 3191 781 3352 804 
Q 3513 828 3641 878 
L 3641 1784 
L 2906 1784 
L 2906 2591 
L 4781 2591 
L 4781 347 
z
" transform="scale(0.015625)"/>
      <path id="DejaVuSans-Bold-72" d="M 3138 2547 
Q 2991 2616 2845 2648 
Q 2700 2681 2553 2681 
Q 2122 2681 1889 2404 
Q 1656 2128 1656 1613 
L 1656 0 
L 538 0 
L 538 3500 
L 1656 3500 
L 1656 2925 
Q 1872 3269 2151 3426 
Q 2431 3584 2822 3584 
Q 2878 3584 2943 3579 
Q 3009 3575 3134 3559 
L 3138 2547 
z
" transform="scale(0.015625)"/>
      <path id="DejaVuSans-Bold-61" d="M 2106 1575 
Q 1756 1575 1579 1456 
Q 1403 1338 1403 1106 
Q 1403 894 1545 773 
Q 1688 653 1941 653 
Q 2256 653 2472 879 
Q 2688 1106 2688 1447 
L 2688 1575 
L 2106 1575 
z
M 3816 1997 
L 3816 0 
L 2688 0 
L 2688 519 
Q 2463 200 2181 54 
Q 1900 -91 1497 -91 
Q 953 -91 614 226 
Q 275 544 275 1050 
Q 275 1666 698 1953 
Q 1122 2241 2028 2241 
L 2688 2241 
L 2688 2328 
Q 2688 2594 2478 2717 
Q 2269 2841 1825 2841 
Q 1466 2841 1156 2769 
Q 847 2697 581 2553 
L 581 3406 
Q 941 3494 1303 3539 
Q 1666 3584 2028 3584 
Q 2975 3584 3395 3211 
Q 3816 2838 3816 1997 
z
" transform="scale(0.015625)"/>
      <path id="DejaVuSans-Bold-70" d="M 1656 506 
L 1656 -1331 
L 538 -1331 
L 538 3500 
L 1656 3500 
L 1656 2988 
Q 1888 3294 2169 3439 
Q 2450 3584 2816 3584 
Q 3463 3584 3878 3070 
Q 4294 2556 4294 1747 
Q 4294 938 3878 423 
Q 3463 -91 2816 -91 
Q 2450 -91 2169 54 
Q 1888 200 1656 506 
z
M 2400 2772 
Q 2041 2772 1848 2508 
Q 1656 2244 1656 1747 
Q 1656 1250 1848 986 
Q 2041 722 2400 722 
Q 2759 722 2948 984 
Q 3138 1247 3138 1747 
Q 3138 2247 2948 2509 
Q 2759 2772 2400 2772 
z
" transform="scale(0.015625)"/>
      <path id="DejaVuSans-Bold-68" d="M 4056 2131 
L 4056 0 
L 2931 0 
L 2931 347 
L 2931 1625 
Q 2931 2084 2911 2256 
Q 2891 2428 2841 2509 
Q 2775 2619 2662 2680 
Q 2550 2741 2406 2741 
Q 2056 2741 1856 2470 
Q 1656 2200 1656 1722 
L 1656 0 
L 538 0 
L 538 4863 
L 1656 4863 
L 1656 2988 
Q 1909 3294 2193 3439 
Q 2478 3584 2822 3584 
Q 3428 3584 3742 3212 
Q 4056 2841 4056 2131 
z
" transform="scale(0.015625)"/>
     </defs>
     <use xlink:href="#DejaVuSans-Bold-57"/>
     <use xlink:href="#DejaVuSans-Bold-65" transform="translate(106.677734 0)"/>
     <use xlink:href="#DejaVuSans-Bold-62" transform="translate(174.5 0)"/>
     <use xlink:href="#DejaVuSans-Bold-20" transform="translate(246.082031 0)"/>
     <use xlink:href="#DejaVuSans-Bold-4c" transform="translate(280.896484 0)"/>
     <use xlink:href="#DejaVuSans-Bold-69" transform="translate(344.617188 0)"/>
     <use xlink:href="#DejaVuSans-Bold-6e" transform="translate(378.894531 0)"/>
     <use xlink:href="#DejaVuSans-Bold-6b" transform="translate(450.085938 0)"/>
     <use xlink:href="#DejaVuSans-Bold-20" transform="translate(516.589844 0)"/>
     <use xlink:href="#DejaVuSans-Bold-47" transform="translate(551.404297 0)"/>
     <use xlink:href="#DejaVuSans-Bold-72" transform="translate(633.484375 0)"/>
     <use xlink:href="#DejaVuSans-Bold-61" transform="translate(682.800781 0)"/>
     <use xlink:href="#DejaVuSans-Bold-70" transform="translate(750.28125 0)"/>
     <use xlink:href="#DejaVuSans-Bold-68" transform="translate(821.863281 0)"/>
    </g>
   </g>
   <g id="patch_49">
    <path d="M 236.117659 108.118278 
C 239.196892 108.118278 242.150422 106.894886 244.327769 104.717539 
C 246.505115 102.540193 247.728507 99.586663 247.728507 96.50743 
C 247.728507 93.428196 246.505115 90.474666 244.327769 88.29732 
C 242.150422 86.119973 239.196892 84.896581 236.117659 84.896581 
C 233.038426 84.896581 230.084895 86.119973 227.907549 88.29732 
C 225.730202 90.474666 224.50681 93.428196 224.50681 96.50743 
C 224.50681 99.586663 225.730202 102.540193 227.907549 104.717539 
C 230.084895 106.894886 233.038426 108.118278 236.117659 108.118278 
z
" clip-path="url(#p6f13165502)" style="fill: #ffffff; opacity: 0.22"/>
   </g>
   <g id="patch_50">
    <path d="M 151.965465 132.827592 
C 155.044698 132.827592 157.998228 131.6042 160.175575 129.426853 
C 162.352921 127.249506 163.576314 124.295976 163.576314 121.216743 
C 163.576314 118.13751 162.352921 115.18398 160.175575 113.006633 
C 157.998228 110.829287 155.044698 109.605894 151.965465 109.605894 
C 148.886232 109.605894 145.932702 110.829287 143.755355 113.006633 
C 141.578008 115.18398 140.354616 118.13751 140.354616 121.216743 
C 140.354616 124.295976 141.578008 127.249506 143.755355 129.426853 
C 145.932702 131.6042 148.886232 132.827592 151.965465 132.827592 
z
" clip-path="url(#p6f13165502)" style="fill: #ffffff; opacity: 0.22"/>
   </g>
   <g id="patch_51">
    <path d="M 94.530998 199.1105 
C 97.610231 199.1105 100.563761 197.887108 102.741108 195.709761 
C 104.918455 193.532415 106.141847 190.578884 106.141847 187.499651 
C 106.141847 184.420418 104.918455 181.466888 102.741108 179.289541 
C 100.563761 177.112195 97.610231 175.888802 94.530998 175.888802 
C 91.451765 175.888802 88.498235 177.112195 86.320888 179.289541 
C 84.143542 181.466888 82.920149 184.420418 82.920149 187.499651 
C 82.920149 190.578884 84.143542 193.532415 86.320888 195.709761 
C 88.498235 197.887108 91.451765 199.1105 94.530998 199.1105 
z
" clip-path="url(#p6f13165502)" style="fill: #ffffff; opacity: 0.22"/>
   </g>
   <g id="patch_52">
    <path d="M 82.049296 285.922648 
C 85.128529 285.922648 88.082059 284.699255 90.259405 282.521909 
C 92.436752 280.344562 93.660144 277.391032 93.660144 274.311799 
C 93.660144 271.232566 92.436752 268.279036 90.259405 266.101689 
C 88.082059 263.924342 85.128529 262.70095 82.049296 262.70095 
C 78.970062 262.70095 76.016532 263.924342 73.839186 266.101689 
C 71.661839 268.279036 70.438447 271.232566 70.438447 274.311799 
C 70.438447 277.391032 71.661839 280.344562 73.839186 282.521909 
C 76.016532 284.699255 78.970062 285.922648 82.049296 285.922648 
z
" clip-path="url(#p6f13165502)" style="fill: #ffffff; opacity: 0.22"/>
   </g>
   <g id="patch_53">
    <path d="M 118.48321 365.701791 
C 121.562443 365.701791 124.515973 364.478399 126.69332 362.301053 
C 128.870666 360.123706 130.094059 357.170176 130.094059 354.090943 
C 130.094059 351.01171 128.870666 348.058179 126.69332 345.880833 
C 124.515973 343.703486 121.562443 342.480094 118.48321 342.480094 
C 115.403977 342.480094 112.450446 343.703486 110.2731 345.880833 
C 108.095753 348.058179 106.872361 351.01171 106.872361 354.090943 
C 106.872361 357.170176 108.095753 360.123706 110.2731 362.301053 
C 112.450446 364.478399 115.403977 365.701791 118.48321 365.701791 
z
" clip-path="url(#p6f13165502)" style="fill: #ffffff; opacity: 0.22"/>
   </g>
   <g id="patch_54">
    <path d="M 192.26523 413.118617 
C 195.344463 413.118617 198.297994 411.895225 200.47534 409.717878 
C 202.652687 407.540531 203.876079 404.587001 203.876079 401.507768 
C 203.876079 398.428535 202.652687 395.475005 200.47534 393.297658 
C 198.297994 391.120312 195.344463 389.896919 192.26523 389.896919 
C 189.185997 389.896919 186.232467 391.120312 184.05512 393.297658 
C 181.877774 395.475005 180.654381 398.428535 180.654381 401.507768 
C 180.654381 404.587001 181.877774 407.540531 184.05512 409.717878 
C 186.232467 411.895225 189.185997 413.118617 192.26523 413.118617 
z
" clip-path="url(#p6f13165502)" style="fill: #ffffff; opacity: 0.22"/>
   </g>
   <g id="patch_55">
    <path d="M 277.647917 414.279702 
C 281.65092 414.279702 285.490509 412.689292 288.32106 409.858741 
C 291.151611 407.028191 292.742021 403.188601 292.742021 399.185598 
C 292.742021 395.182595 291.151611 391.343006 288.32106 388.512455 
C 285.490509 385.681905 281.65092 384.091495 277.647917 384.091495 
C 273.644914 384.091495 269.805325 385.681905 266.974774 388.512455 
C 264.144224 391.343006 262.553814 395.182595 262.553814 399.185598 
C 262.553814 403.188601 264.144224 407.028191 266.974774 409.858741 
C 269.805325 412.689292 273.644914 414.279702 277.647917 414.279702 
z
" clip-path="url(#p6f13165502)" style="fill: #ffffff; opacity: 0.22"/>
   </g>
   <g id="patch_56">
    <path d="M 353.752107 365.701791 
C 356.831341 365.701791 359.784871 364.478399 361.962217 362.301053 
C 364.139564 360.123706 365.362956 357.170176 365.362956 354.090943 
C 365.362956 351.01171 364.139564 348.058179 361.962217 345.880833 
C 359.784871 343.703486 356.831341 342.480094 353.752107 342.480094 
C 350.672874 342.480094 347.719344 343.703486 345.541998 345.880833 
C 343.364651 348.058179 342.141259 351.01171 342.141259 354.090943 
C 342.141259 357.170176 343.364651 360.123706 345.541998 362.301053 
C 347.719344 364.478399 350.672874 365.701791 353.752107 365.701791 
z
" clip-path="url(#p6f13165502)" style="fill: #ffffff; opacity: 0.22"/>
   </g>
   <g id="patch_57">
    <path d="M 390.186022 285.922648 
C 393.265255 285.922648 396.218785 284.699255 398.396132 282.521909 
C 400.573478 280.344562 401.79687 277.391032 401.79687 274.311799 
C 401.79687 271.232566 400.573478 268.279036 398.396132 266.101689 
C 396.218785 263.924342 393.265255 262.70095 390.186022 262.70095 
C 387.106789 262.70095 384.153258 263.924342 381.975912 266.101689 
C 379.798565 268.279036 378.575173 271.232566 378.575173 274.311799 
C 378.575173 277.391032 379.798565 280.344562 381.975912 282.521909 
C 384.153258 284.699255 387.106789 285.922648 390.186022 285.922648 
z
" clip-path="url(#p6f13165502)" style="fill: #ffffff; opacity: 0.22"/>
   </g>
   <g id="patch_58">
    <path d="M 377.704319 199.1105 
C 380.783552 199.1105 383.737082 197.887108 385.914429 195.709761 
C 388.091776 193.532415 389.315168 190.578884 389.315168 187.499651 
C 389.315168 184.420418 388.091776 181.466888 385.914429 179.289541 
C 383.737082 177.112195 380.783552 175.888802 377.704319 175.888802 
C 374.625086 175.888802 371.671556 177.112195 369.494209 179.289541 
C 367.316863 181.466888 366.09347 184.420418 366.09347 187.499651 
C 366.09347 190.578884 367.316863 193.532415 369.494209 195.709761 
C 371.671556 197.887108 374.625086 199.1105 377.704319 199.1105 
z
" clip-path="url(#p6f13165502)" style="fill: #ffffff; opacity: 0.22"/>
   </g>
   <g id="patch_59">
    <path d="M 320.269852 132.827592 
C 323.349085 132.827592 326.302616 131.6042 328.479962 129.426853 
C 330.657309 127.249506 331.880701 124.295976 331.880701 121.216743 
C 331.880701 118.13751 330.657309 115.18398 328.479962 113.006633 
C 326.302616 110.829287 323.349085 109.605894 320.269852 109.605894 
C 317.190619 109.605894 314.237089 110.829287 312.059742 113.006633 
C 309.882396 115.18398 308.659004 118.13751 308.659004 121.216743 
C 308.659004 124.295976 309.882396 127.249506 312.059742 129.426853 
C 314.237089 131.6042 317.190619 132.827592 320.269852 132.827592 
z
" clip-path="url(#p6f13165502)" style="fill: #ffffff; opacity: 0.22"/>
   </g>
   <g id="patch_60">
    <path d="M 243.858224 133.292873 
L 249.319866 146.669259 
L 240.941947 147.443936 
z
" clip-path="url(#p6f13165502)" style="fill: #999999; opacity: 0.45"/>
   </g>
   <g id="patch_61">
    <path d="M 76.513452 181.819166 
L 90.501582 185.437099 
L 86.114366 192.616374 
z
" clip-path="url(#p6f13165502)" style="fill: #999999; opacity: 0.45"/>
   </g>
   <g id="patch_62">
    <path d="M 180.159606 430.45526 
L 189.291174 419.258309 
L 193.980663 426.243891 
z
" clip-path="url(#p6f13165502)" style="fill: #999999; opacity: 0.45"/>
   </g>
   <g id="patch_63">
    <path d="M 99.875609 374.053581 
L 111.862749 365.987249 
L 114.324027 374.032854 
z
" clip-path="url(#p6f13165502)" style="fill: #999999; opacity: 0.45"/>
   </g>
   <g id="patch_64">
    <path d="M 406.302706 215.452991 
L 393.454637 208.843577 
L 399.31509 202.80663 
z
" clip-path="url(#p6f13165502)" style="fill: #999999; opacity: 0.45"/>
   </g>
   <g id="patch_65">
    <path d="M 80.057604 309.418185 
L 80.705852 294.984301 
L 88.636964 297.792703 
z
" clip-path="url(#p6f13165502)" style="fill: #999999; opacity: 0.45"/>
   </g>
   <g id="patch_66">
    <path d="M 381.224598 383.144792 
L 368.492967 376.313776 
L 374.457132 370.379267 
z
" clip-path="url(#p6f13165502)" style="fill: #999999; opacity: 0.45"/>
   </g>
   <g id="patch_67">
    <path d="M 422.863877 296.943185 
L 408.723446 293.975788 
L 412.774076 286.601369 
z
" clip-path="url(#p6f13165502)" style="fill: #999999; opacity: 0.45"/>
   </g>
   <g id="patch_68">
    <path d="M 300.07585 444.479764 
L 290.933046 433.291986 
L 298.715848 430.09548 
z
" clip-path="url(#p6f13165502)" style="fill: #999999; opacity: 0.45"/>
   </g>
   <g id="patch_69">
    <path d="M 145.292896 103.740916 
L 155.260437 114.200617 
L 147.743408 117.980025 
z
" clip-path="url(#p6f13165502)" style="fill: #999999; opacity: 0.45"/>
   </g>
   <g id="patch_70">
    <path d="M 333.087139 100.359549 
L 334.295547 114.757361 
L 326.069735 112.989406 
z
" clip-path="url(#p6f13165502)" style="fill: #999999; opacity: 0.45"/>
   </g>
   <g id="patch_71">
    <path d="M 313.223716 436.510677 
L 299.682825 431.470686 
L 304.786431 424.781676 
z
" clip-path="url(#p6f13165502)" style="fill: #999999; opacity: 0.45"/>
   </g>
   <g id="patch_72">
    <path d="M 307.710741 440.77845 
L 295.842891 432.537614 
L 302.446003 427.323348 
z
" clip-path="url(#p6f13165502)" style="fill: #999999; opacity: 0.45"/>
   </g>
   <g id="patch_73">
    <path d="M 216.807386 93.671744 
L 231.213682 94.774414 
L 228.156802 102.613109 
z
" clip-path="url(#p6f13165502)" style="fill: #999999; opacity: 0.45"/>
   </g>
   <g id="patch_74">
    <path d="M 269.560455 90.720236 
L 259.274274 100.866749 
L 255.365743 93.416042 
z
" clip-path="url(#p6f13165502)" style="fill: #999999; opacity: 0.45"/>
   </g>
   <g id="patch_75">
    <path d="M 279.715938 372.77593 
L 266.949023 366.011086 
L 272.882305 360.045702 
z
" clip-path="url(#p6f13165502)" style="fill: #999999; opacity: 0.45"/>
   </g>
   <g id="patch_76">
    <path d="M 74.687381 186.145285 
L 89.110618 186.998198 
L 86.190003 194.888677 
z
" clip-path="url(#p6f13165502)" style="fill: #999999; opacity: 0.45"/>
   </g>
   <g id="patch_77">
    <path d="M 213.804025 383.690286 
L 221.954308 371.760067 
L 227.218673 378.323307 
z
" clip-path="url(#p6f13165502)" style="fill: #999999; opacity: 0.45"/>
   </g>
   <g id="patch_78">
    <path d="M 73.242396 194.285056 
L 87.321684 191.039925 
L 86.742379 199.433616 
z
" clip-path="url(#p6f13165502)" style="fill: #999999; opacity: 0.45"/>
   </g>
   <g id="patch_79">
    <path d="M 210.112749 382.018673 
L 221.404302 373.004348 
L 224.511639 380.823178 
z
" clip-path="url(#p6f13165502)" style="fill: #999999; opacity: 0.45"/>
   </g>
   <g id="patch_80">
    <path d="M 193.280774 437.503935 
L 191.620402 423.151221 
L 199.897721 424.659744 
z
" clip-path="url(#p6f13165502)" style="fill: #999999; opacity: 0.45"/>
   </g>
   <g id="patch_81">
    <path d="M 349.847944 109.80718 
L 340.967951 121.204678 
L 336.124084 114.325245 
z
" clip-path="url(#p6f13165502)" style="fill: #999999; opacity: 0.45"/>
   </g>
   <g id="patch_82">
    <path d="M 181.717596 431.812613 
L 186.667183 418.238416 
L 193.390076 423.297306 
z
" clip-path="url(#p6f13165502)" style="fill: #999999; opacity: 0.45"/>
   </g>
   <g id="patch_83">
    <path d="M 137.868505 109.80718 
L 151.592365 114.325245 
L 146.748498 121.204678 
z
" clip-path="url(#p6f13165502)" style="fill: #999999; opacity: 0.45"/>
   </g>
   <g id="text_3">
    <!-- about -->
    <g transform="translate(224.253224 69.299687) scale(0.12 -0.12)">
     <defs>
      <path id="DejaVuSans-Bold-6f" d="M 2203 2784 
Q 1831 2784 1636 2517 
Q 1441 2250 1441 1747 
Q 1441 1244 1636 976 
Q 1831 709 2203 709 
Q 2569 709 2762 976 
Q 2956 1244 2956 1747 
Q 2956 2250 2762 2517 
Q 2569 2784 2203 2784 
z
M 2203 3584 
Q 3106 3584 3614 3096 
Q 4122 2609 4122 1747 
Q 4122 884 3614 396 
Q 3106 -91 2203 -91 
Q 1297 -91 786 396 
Q 275 884 275 1747 
Q 275 2609 786 3096 
Q 1297 3584 2203 3584 
z
" transform="scale(0.015625)"/>
      <path id="DejaVuSans-Bold-75" d="M 500 1363 
L 500 3500 
L 1625 3500 
L 1625 3150 
Q 1625 2866 1622 2436 
Q 1619 2006 1619 1863 
Q 1619 1441 1641 1255 
Q 1663 1069 1716 984 
Q 1784 875 1895 815 
Q 2006 756 2150 756 
Q 2500 756 2700 1025 
Q 2900 1294 2900 1772 
L 2900 3500 
L 4019 3500 
L 4019 0 
L 2900 0 
L 2900 506 
Q 2647 200 2364 54 
Q 2081 -91 1741 -91 
Q 1134 -91 817 281 
Q 500 653 500 1363 
z
" transform="scale(0.015625)"/>
      <path id="DejaVuSans-Bold-74" d="M 1759 4494 
L 1759 3500 
L 2913 3500 
L 2913 2700 
L 1759 2700 
L 1759 1216 
Q 1759 972 1856 886 
Q 1953 800 2241 800 
L 2816 800 
L 2816 0 
L 1856 0 
Q 1194 0 917 276 
Q 641 553 641 1216 
L 641 2700 
L 84 2700 
L 84 3500 
L 641 3500 
L 641 4494 
L 1759 4494 
z
" transform="scale(0.015625)"/>
     </defs>
     <use xlink:href="#DejaVuSans-Bold-61"/>
     <use xlink:href="#DejaVuSans-Bold-62" transform="translate(67.480469 0)"/>
     <use xlink:href="#DejaVuSans-Bold-6f" transform="translate(139.0625 0)"/>
     <use xlink:href="#DejaVuSans-Bold-75" transform="translate(207.763672 0)"/>
     <use xlink:href="#DejaVuSans-Bold-74" transform="translate(278.955078 0)"/>
    </g>
   </g>
   <g id="text_4">
    <!-- api -->
    <g transform="translate(121.359536 99.16075) scale(0.12 -0.12)">
     <use xlink:href="#DejaVuSans-Bold-61"/>
     <use xlink:href="#DejaVuSans-Bold-70" transform="translate(67.480469 0)"/>
     <use xlink:href="#DejaVuSans-Bold-69" transform="translate(139.0625 0)"/>
    </g>
   </g>
   <g id="text_5">
    <!-- blog -->
    <g transform="translate(43.21469 179.16951) scale(0.12 -0.12)">
     <defs>
      <path id="DejaVuSans-Bold-6c" d="M 538 4863 
L 1656 4863 
L 1656 0 
L 538 0 
L 538 4863 
z
" transform="scale(0.015625)"/>
      <path id="DejaVuSans-Bold-67" d="M 2919 594 
Q 2688 288 2409 144 
Q 2131 0 1766 0 
Q 1125 0 706 504 
Q 288 1009 288 1791 
Q 288 2575 706 3076 
Q 1125 3578 1766 3578 
Q 2131 3578 2409 3434 
Q 2688 3291 2919 2981 
L 2919 3500 
L 4044 3500 
L 4044 353 
Q 4044 -491 3511 -936 
Q 2978 -1381 1966 -1381 
Q 1638 -1381 1331 -1331 
Q 1025 -1281 716 -1178 
L 716 -306 
Q 1009 -475 1290 -558 
Q 1572 -641 1856 -641 
Q 2406 -641 2662 -400 
Q 2919 -159 2919 353 
L 2919 594 
z
M 2181 2772 
Q 1834 2772 1640 2515 
Q 1447 2259 1447 1791 
Q 1447 1309 1634 1061 
Q 1822 813 2181 813 
Q 2531 813 2725 1069 
Q 2919 1325 2919 1791 
Q 2919 2259 2725 2515 
Q 2531 2772 2181 2772 
z
" transform="scale(0.015625)"/>
     </defs>
     <use xlink:href="#DejaVuSans-Bold-62"/>
     <use xlink:href="#DejaVuSans-Bold-6c" transform="translate(71.582031 0)"/>
     <use xlink:href="#DejaVuSans-Bold-6f" transform="translate(105.859375 0)"/>
     <use xlink:href="#DejaVuSans-Bold-67" transform="translate(174.560547 0)"/>
    </g>
   </g>
   <g id="text_6">
    <!-- careers -->
    <g transform="translate(7.2 289.982113) scale(0.12 -0.12)">
     <defs>
      <path id="DejaVuSans-Bold-63" d="M 3366 3391 
L 3366 2478 
Q 3138 2634 2908 2709 
Q 2678 2784 2431 2784 
Q 1963 2784 1702 2511 
Q 1441 2238 1441 1747 
Q 1441 1256 1702 982 
Q 1963 709 2431 709 
Q 2694 709 2930 787 
Q 3166 866 3366 1019 
L 3366 103 
Q 3103 6 2833 -42 
Q 2563 -91 2291 -91 
Q 1344 -91 809 395 
Q 275 881 275 1747 
Q 275 2613 809 3098 
Q 1344 3584 2291 3584 
Q 2566 3584 2833 3536 
Q 3100 3488 3366 3391 
z
" transform="scale(0.015625)"/>
      <path id="DejaVuSans-Bold-73" d="M 3272 3391 
L 3272 2541 
Q 2913 2691 2578 2766 
Q 2244 2841 1947 2841 
Q 1628 2841 1473 2761 
Q 1319 2681 1319 2516 
Q 1319 2381 1436 2309 
Q 1553 2238 1856 2203 
L 2053 2175 
Q 2913 2066 3209 1816 
Q 3506 1566 3506 1031 
Q 3506 472 3093 190 
Q 2681 -91 1863 -91 
Q 1516 -91 1145 -36 
Q 775 19 384 128 
L 384 978 
Q 719 816 1070 734 
Q 1422 653 1784 653 
Q 2113 653 2278 743 
Q 2444 834 2444 1013 
Q 2444 1163 2330 1236 
Q 2216 1309 1875 1350 
L 1678 1375 
Q 931 1469 631 1722 
Q 331 1975 331 2491 
Q 331 3047 712 3315 
Q 1094 3584 1881 3584 
Q 2191 3584 2531 3537 
Q 2872 3491 3272 3391 
z
" transform="scale(0.015625)"/>
     </defs>
     <use xlink:href="#DejaVuSans-Bold-63"/>
     <use xlink:href="#DejaVuSans-Bold-61" transform="translate(59.277344 0)"/>
     <use xlink:href="#DejaVuSans-Bold-72" transform="translate(126.757812 0)"/>
     <use xlink:href="#DejaVuSans-Bold-65" transform="translate(176.074219 0)"/>
     <use xlink:href="#DejaVuSans-Bold-65" transform="translate(243.896484 0)"/>
     <use xlink:href="#DejaVuSans-Bold-72" transform="translate(311.71875 0)"/>
     <use xlink:href="#DejaVuSans-Bold-73" transform="translate(361.035156 0)"/>
    </g>
   </g>
   <g id="text_7">
    <!-- contact -->
    <g transform="translate(51.113924 392.201621) scale(0.12 -0.12)">
     <use xlink:href="#DejaVuSans-Bold-63"/>
     <use xlink:href="#DejaVuSans-Bold-6f" transform="translate(59.277344 0)"/>
     <use xlink:href="#DejaVuSans-Bold-6e" transform="translate(127.978516 0)"/>
     <use xlink:href="#DejaVuSans-Bold-74" transform="translate(199.169922 0)"/>
     <use xlink:href="#DejaVuSans-Bold-61" transform="translate(246.972656 0)"/>
     <use xlink:href="#DejaVuSans-Bold-63" transform="translate(314.453125 0)"/>
     <use xlink:href="#DejaVuSans-Bold-74" transform="translate(373.730469 0)"/>
    </g>
   </g>
   <g id="text_8">
    <!-- docs -->
    <g transform="translate(175.318131 449.50458) scale(0.12 -0.12)">
     <defs>
      <path id="DejaVuSans-Bold-64" d="M 2919 2988 
L 2919 4863 
L 4044 4863 
L 4044 0 
L 2919 0 
L 2919 506 
Q 2688 197 2409 53 
Q 2131 -91 1766 -91 
Q 1119 -91 703 423 
Q 288 938 288 1747 
Q 288 2556 703 3070 
Q 1119 3584 1766 3584 
Q 2128 3584 2408 3439 
Q 2688 3294 2919 2988 
z
M 2181 722 
Q 2541 722 2730 984 
Q 2919 1247 2919 1747 
Q 2919 2247 2730 2509 
Q 2541 2772 2181 2772 
Q 1825 2772 1636 2509 
Q 1447 2247 1447 1747 
Q 1447 1247 1636 984 
Q 1825 722 2181 722 
z
" transform="scale(0.015625)"/>
     </defs>
     <use xlink:href="#DejaVuSans-Bold-64"/>
     <use xlink:href="#DejaVuSans-Bold-6f" transform="translate(71.582031 0)"/>
     <use xlink:href="#DejaVuSans-Bold-63" transform="translate(140.283203 0)"/>
     <use xlink:href="#DejaVuSans-Bold-73" transform="translate(199.560547 0)"/>
    </g>
   </g>
   <g id="text_9">
    <!-- home -->
    <g transform="translate(268.99534 412.559584) scale(0.12 -0.12)">
     <defs>
      <path id="DejaVuSans-Bold-6d" d="M 3781 2919 
Q 3994 3244 4286 3414 
Q 4578 3584 4928 3584 
Q 5531 3584 5847 3212 
Q 6163 2841 6163 2131 
L 6163 0 
L 5038 0 
L 5038 1825 
Q 5041 1866 5042 1909 
Q 5044 1953 5044 2034 
Q 5044 2406 4934 2573 
Q 4825 2741 4581 2741 
Q 4263 2741 4089 2478 
Q 3916 2216 3909 1719 
L 3909 0 
L 2784 0 
L 2784 1825 
Q 2784 2406 2684 2573 
Q 2584 2741 2328 2741 
Q 2006 2741 1831 2477 
Q 1656 2213 1656 1722 
L 1656 0 
L 531 0 
L 531 3500 
L 1656 3500 
L 1656 2988 
Q 1863 3284 2130 3434 
Q 2397 3584 2719 3584 
Q 3081 3584 3359 3409 
Q 3638 3234 3781 2919 
z
" transform="scale(0.015625)"/>
     </defs>
     <use xlink:href="#DejaVuSans-Bold-68"/>
     <use xlink:href="#DejaVuSans-Bold-6f" transform="translate(71.191406 0)"/>
     <use xlink:href="#DejaVuSans-Bold-6d" transform="translate(139.892578 0)"/>
     <use xlink:href="#DejaVuSans-Bold-65" transform="translate(244.091797 0)"/>
    </g>
   </g>
   <g id="text_10">
    <!-- post-1 -->
    <g transform="translate(386.018775 392.201621) scale(0.12 -0.12)">
     <defs>
      <path id="DejaVuSans-Bold-2d" d="M 347 2297 
L 2309 2297 
L 2309 1388 
L 347 1388 
L 347 2297 
z
" transform="scale(0.015625)"/>
      <path id="DejaVuSans-Bold-31" d="M 750 831 
L 1813 831 
L 1813 3847 
L 722 3622 
L 722 4441 
L 1806 4666 
L 2950 4666 
L 2950 831 
L 4013 831 
L 4013 0 
L 750 0 
L 750 831 
z
" transform="scale(0.015625)"/>
     </defs>
     <use xlink:href="#DejaVuSans-Bold-70"/>
     <use xlink:href="#DejaVuSans-Bold-6f" transform="translate(71.582031 0)"/>
     <use xlink:href="#DejaVuSans-Bold-73" transform="translate(140.283203 0)"/>
     <use xlink:href="#DejaVuSans-Bold-74" transform="translate(199.804688 0)"/>
     <use xlink:href="#DejaVuSans-Bold-2d" transform="translate(247.607422 0)"/>
     <use xlink:href="#DejaVuSans-Bold-31" transform="translate(289.111328 0)"/>
    </g>
   </g>
   <g id="text_11">
    <!-- post-2 -->
    <g transform="translate(430.048949 289.982113) scale(0.12 -0.12)">
     <defs>
      <path id="DejaVuSans-Bold-32" d="M 1844 884 
L 3897 884 
L 3897 0 
L 506 0 
L 506 884 
L 2209 2388 
Q 2438 2594 2547 2791 
Q 2656 2988 2656 3200 
Q 2656 3528 2436 3728 
Q 2216 3928 1850 3928 
Q 1569 3928 1234 3808 
Q 900 3688 519 3450 
L 519 4475 
Q 925 4609 1322 4679 
Q 1719 4750 2100 4750 
Q 2938 4750 3402 4381 
Q 3866 4013 3866 3353 
Q 3866 2972 3669 2642 
Q 3472 2313 2841 1759 
L 1844 884 
z
" transform="scale(0.015625)"/>
     </defs>
     <use xlink:href="#DejaVuSans-Bold-70"/>
     <use xlink:href="#DejaVuSans-Bold-6f" transform="translate(71.582031 0)"/>
     <use xlink:href="#DejaVuSans-Bold-73" transform="translate(140.283203 0)"/>
     <use xlink:href="#DejaVuSans-Bold-74" transform="translate(199.804688 0)"/>
     <use xlink:href="#DejaVuSans-Bold-2d" transform="translate(247.607422 0)"/>
     <use xlink:href="#DejaVuSans-Bold-32" transform="translate(289.111328 0)"/>
    </g>
   </g>
   <g id="text_12">
    <!-- team -->
    <g transform="translate(414.964884 179.26326) scale(0.12 -0.12)">
     <use xlink:href="#DejaVuSans-Bold-74"/>
     <use xlink:href="#DejaVuSans-Bold-65" transform="translate(47.802734 0)"/>
     <use xlink:href="#DejaVuSans-Bold-61" transform="translate(115.625 0)"/>
     <use xlink:href="#DejaVuSans-Bold-6d" transform="translate(183.105469 0)"/>
    </g>
   </g>
   <g id="text_13">
    <!-- tutorials -->
    <g transform="translate(345.555663 99.16075) scale(0.12 -0.12)">
     <use xlink:href="#DejaVuSans-Bold-74"/>
     <use xlink:href="#DejaVuSans-Bold-75" transform="translate(47.802734 0)"/>
     <use xlink:href="#DejaVuSans-Bold-74" transform="translate(118.994141 0)"/>
     <use xlink:href="#DejaVuSans-Bold-6f" transform="translate(166.796875 0)"/>
     <use xlink:href="#DejaVuSans-Bold-72" transform="translate(235.498047 0)"/>
     <use xlink:href="#DejaVuSans-Bold-69" transform="translate(284.814453 0)"/>
     <use xlink:href="#DejaVuSans-Bold-61" transform="translate(319.091797 0)"/>
     <use xlink:href="#DejaVuSans-Bold-6c" transform="translate(386.572266 0)"/>
     <use xlink:href="#DejaVuSans-Bold-73" transform="translate(420.849609 0)"/>
    </g>
   </g>
  </g>
 </g>
 <defs>
  <clipPath id="p6f13165502">
   <rect x="22.098224" y="38.140678" width="443.52" height="443.52"/>
  </clipPath>
 </defs>
</svg>
