<?xml version="1.0" encoding="utf-8" standalone="no"?>
<!DOCTYPE svg PUBLIC "-//W3C//DTD SVG 1.1//EN"
  "http://www.w3.org/Graphics/SVG/1.1/DTD/svg11.dtd">
<svg xmlns:xlink="http://www.w3.org/1999/xlink" width="457.92pt" height="488.860678pt" viewBox="0 0 457.92 488.860678" xmlns="http://www.w3.org/2000/svg" version="1.1">
 <metadata>
  <rdf:RDF xmlns:dc="http://purl.org/dc/elements/1.1/" xmlns:cc="http://creativecommons.org/ns#" xmlns:rdf="http://www.w3.org/1999/02/22-rdf-syntax-ns#">
   <cc:Work>
    <dc:type rdf:resource="http://purl.org/dc/dcmitype/StillImage"/>
    <dc:date>2026-04-29T15:44:10.271032</dc:date>
    <dc:format>image/svg+xml</dc:format>
    <dc:creator>
     <cc:Agent>
      <dc:title>Matplotlib v3.10.7+dfsg1, https://matplotlib.org/</dc:title>
     </cc:Agent>
    </dc:creator>
   </cc:Work>
  </rdf:RDF>
 </metadata>
 <defs>
  <style type="text/css">*{stroke-linejoin: round; stroke-linecap: butt}</style>
 </defs>
 <g id="figure_1">
  <g id="patch_1">
   <path d="M 0 488.860678 
L 457.92 488.860678 
L 457.92 0 
L 0 0 
z
" style="fill: #ffffff"/>
  </g>
  <g id="axes_1">
   <g id="patch_2">
    <path d="M 228.96 407.770727 
C 268.175595 407.770727 305.790301 392.190206 333.519914 364.460593 
C 361.249528 336.730979 376.830049 299.116274 376.830049 259.900678 
C 376.830049 220.685083 361.249528 183.070378 333.519914 155.340764 
C 305.790301 127.611151 268.175595 112.03063 228.96 112.03063 
C 189.744405 112.03063 152.129699 127.611151 124.400086 155.340764 
C 96.670472 183.070378 81.089951 220.685083 81.089951 259.900678 
C 81.089951 299.116274 96.670472 336.730979 124.400086 364.460593 
C 152.129699 392.190206 189.744405 407.770727 228.96 407.770727 
z
" clip-path="url(#pfe5a580e65)" style="fill: #f0f4fa; stroke: #f0f4fa; stroke-linejoin: miter"/>
   </g>
   <g id="patch_3">
    <path d="M 202.668159 112.790733 
Q 187.447806 129.874034 178.598092 127.94439 
" clip-path="url(#pfe5a580e65)" style="fill: none; opacity: 0.88; stroke: #7b2d8b; stroke-width: 3.6; stroke-linejoin: miter"/>
   </g>
   <g id="patch_4">
    <path d="M 107.217343 316.54274 
Q 209.361348 317.953879 281.533277 368.881607 
" clip-path="url(#pfe5a580e65)" style="fill: none; opacity: 0.88; stroke: #7b2d8b; stroke-width: 3.6; stroke-linejoin: miter"/>
   </g>
   <g id="patch_5">
    <path d="M 163.76149 125.432276 
Q 182.649193 119.469697 188.227182 117.60524 
" clip-path="url(#pfe5a580e65)" style="fill: none; opacity: 0.88; stroke: #7b2d8b; stroke-width: 3.6; stroke-linejoin: miter"/>
   </g>
   <g id="patch_6">
    <path d="M 376.994498 280.355125 
Q 365.450661 260.600678 370.020574 252.780393 
" clip-path="url(#pfe5a580e65)" style="fill: none; opacity: 0.88; stroke: #7b2d8b; stroke-width: 3.6; stroke-linejoin: miter"/>
   </g>
   <g id="patch_7">
    <path d="M 80.925502 239.446232 
Q 92.469339 259.200678 87.899426 267.020964 
" clip-path="url(#pfe5a580e65)" style="fill: none; opacity: 0.74; stroke: #1a6fa8; stroke-width: 2.56; stroke-linejoin: miter"/>
   </g>
   <g id="patch_8">
    <path d="M 294.15851 377.283607 
Q 192.014505 375.872467 119.842576 324.944739 
" clip-path="url(#pfe5a580e65)" style="fill: none; opacity: 0.74; stroke: #1a6fa8; stroke-width: 2.56; stroke-linejoin: miter"/>
   </g>
   <g id="patch_9">
    <path d="M 206.594824 120.497247 
Q 168.415466 175.377365 117.653991 190.728117 
" clip-path="url(#pfe5a580e65)" style="fill: none; opacity: 0.74; stroke: #1a6fa8; stroke-width: 2.56; stroke-linejoin: miter"/>
   </g>
   <g id="patch_10">
    <path d="M 137.469648 358.181466 
Q 167.691808 260.600678 141.559013 176.223561 
" clip-path="url(#pfe5a580e65)" style="fill: none; opacity: 0.74; stroke: #1a6fa8; stroke-width: 2.56; stroke-linejoin: miter"/>
   </g>
   <g id="patch_11">
    <path d="M 376.994498 239.446232 
Q 376.828626 259.252044 376.878137 265.133175 
" clip-path="url(#pfe5a580e65)" style="fill: none; opacity: 0.74; stroke: #1a6fa8; stroke-width: 2.56; stroke-linejoin: miter"/>
   </g>
   <g id="patch_12">
    <path d="M 137.469648 161.619891 
Q 107.247489 259.200678 133.380284 343.577795 
" clip-path="url(#pfe5a580e65)" style="fill: none; opacity: 0.6; stroke: #49a62d; stroke-width: 1.68; stroke-linejoin: miter"/>
   </g>
   <g id="patch_13">
    <path d="M 255.251841 407.010624 
Q 270.472194 389.927322 279.321908 391.856967 
" clip-path="url(#pfe5a580e65)" style="fill: none; opacity: 0.6; stroke: #49a62d; stroke-width: 1.68; stroke-linejoin: miter"/>
   </g>
   <g id="patch_14">
    <path d="M 80.925502 280.355125 
Q 81.091374 260.549313 81.041863 254.668181 
" clip-path="url(#pfe5a580e65)" style="fill: none; opacity: 0.6; stroke: #49a62d; stroke-width: 1.68; stroke-linejoin: miter"/>
   </g>
   <g id="patch_15">
    <path d="M 336.699603 363.461168 
Q 338.971814 340.694188 347.2656 337.053571 
" clip-path="url(#pfe5a580e65)" style="fill: none; opacity: 0.6; stroke: #49a62d; stroke-width: 1.68; stroke-linejoin: miter"/>
   </g>
   <g id="patch_16">
    <path d="M 336.699603 156.340189 
Q 348.206974 172.460924 351.703871 177.189758 
" clip-path="url(#pfe5a580e65)" style="fill: none; opacity: 0.6; stroke: #49a62d; stroke-width: 1.68; stroke-linejoin: miter"/>
   </g>
   <g id="patch_17">
    <path d="M 103.290678 195.552102 
Q 141.478885 140.684044 192.232356 125.324024 
" clip-path="url(#pfe5a580e65)" style="fill: none; opacity: 0.6; stroke: #49a62d; stroke-width: 1.68; stroke-linejoin: miter"/>
   </g>
   <g id="patch_18">
    <path d="M 163.76149 394.369081 
Q 186.116327 389.494699 192.141679 396.257545 
" clip-path="url(#pfe5a580e65)" style="fill: none; opacity: 0.6; stroke: #49a62d; stroke-width: 1.68; stroke-linejoin: miter"/>
   </g>
   <g id="patch_19">
    <path d="M 360.745247 189.436178 
Q 339.794714 180.239793 338.895203 171.226922 
" clip-path="url(#pfe5a580e65)" style="fill: none; opacity: 0.6; stroke: #49a62d; stroke-width: 1.68; stroke-linejoin: miter"/>
   </g>
   <g id="patch_20">
    <path d="M 97.174753 234.16653 
Q 178.981542 295.346906 207.435292 378.969899 
" clip-path="url(#pfe5a580e65)" style="fill: none; opacity: 0.45; stroke: #999999; stroke-width: 0.96; stroke-linejoin: miter"/>
   </g>
   <g id="patch_21">
    <path d="M 360.745247 330.365179 
Q 348.969489 346.29092 345.552702 351.077957 
" clip-path="url(#pfe5a580e65)" style="fill: none; opacity: 0.45; stroke: #999999; stroke-width: 0.96; stroke-linejoin: miter"/>
   </g>
   <g id="patch_22">
    <path d="M 212.710748 126.613172 
Q 130.90396 187.793547 102.45021 271.41654 
" clip-path="url(#pfe5a580e65)" style="fill: none; opacity: 0.45; stroke: #999999; stroke-width: 0.96; stroke-linejoin: miter"/>
   </g>
   <g id="patch_23">
    <path d="M 212.710748 393.188185 
Q 130.90396 332.007809 102.45021 248.384816 
" clip-path="url(#pfe5a580e65)" style="fill: none; opacity: 0.45; stroke: #999999; stroke-width: 0.96; stroke-linejoin: miter"/>
   </g>
   <g id="patch_24">
    <path d="M 294.15851 125.432276 
Q 271.803673 130.306658 265.778321 123.543811 
" clip-path="url(#pfe5a580e65)" style="fill: none; opacity: 0.45; stroke: #999999; stroke-width: 0.96; stroke-linejoin: miter"/>
   </g>
   <g id="patch_25">
    <path d="M 360.745247 285.634826 
Q 278.938458 224.454451 250.484708 140.831458 
" clip-path="url(#pfe5a580e65)" style="fill: none; opacity: 0.45; stroke: #999999; stroke-width: 0.96; stroke-linejoin: miter"/>
   </g>
   <g id="patch_26">
    <path d="M 230.041756 132.97463 
C 237.373263 132.97463 244.405478 130.061791 249.589637 124.877632 
C 254.773795 119.693474 257.686634 112.661259 257.686634 105.329752 
C 257.686634 97.998244 254.773795 90.966029 249.589637 85.781871 
C 244.405478 80.597712 237.373263 77.684873 230.041756 77.684873 
C 222.710249 77.684873 215.678034 80.597712 210.493875 85.781871 
C 205.309717 90.966029 202.396878 97.998244 202.396878 105.329752 
C 202.396878 112.661259 205.309717 119.693474 210.493875 124.877632 
C 215.678034 130.061791 222.710249 132.97463 230.041756 132.97463 
z
" clip-path="url(#pfe5a580e65)" style="fill-opacity: 0.133333"/>
   </g>
   <g id="patch_27">
    <path d="M 138.551405 162.701647 
C 145.882912 162.701647 152.915127 159.788808 158.099285 154.604649 
C 163.283444 149.420491 166.196283 142.388276 166.196283 135.056769 
C 166.196283 127.725261 163.283444 120.693047 158.099285 115.508888 
C 152.915127 110.324729 145.882912 107.411891 138.551405 107.411891 
C 131.219897 107.411891 124.187682 110.324729 119.003524 115.508888 
C 113.819365 120.693047 110.906527 127.725261 110.906527 135.056769 
C 110.906527 142.388276 113.819365 149.420491 119.003524 154.604649 
C 124.187682 159.788808 131.219897 162.701647 138.551405 162.701647 
z
" clip-path="url(#pfe5a580e65)" style="fill-opacity: 0.133333"/>
   </g>
   <g id="patch_28">
    <path d="M 82.007258 240.527988 
C 89.338765 240.527988 96.37098 237.61515 101.555138 232.430991 
C 106.739297 227.246832 109.652136 220.214618 109.652136 212.88311 
C 109.652136 205.551603 106.739297 198.519388 101.555138 193.335229 
C 96.37098 188.151071 89.338765 185.238232 82.007258 185.238232 
C 74.67575 185.238232 67.643536 188.151071 62.459377 193.335229 
C 57.275218 198.519388 54.36238 205.551603 54.36238 212.88311 
C 54.36238 220.214618 57.275218 227.246832 62.459377 232.430991 
C 67.643536 237.61515 74.67575 240.527988 82.007258 240.527988 
z
" clip-path="url(#pfe5a580e65)" style="fill-opacity: 0.133333"/>
   </g>
   <g id="patch_29">
    <path d="M 82.007258 336.726637 
C 89.338765 336.726637 96.37098 333.813798 101.555138 328.629639 
C 106.739297 323.445481 109.652136 316.413266 109.652136 309.081759 
C 109.652136 301.750251 106.739297 294.718037 101.555138 289.533878 
C 96.37098 284.349719 89.338765 281.436881 82.007258 281.436881 
C 74.67575 281.436881 67.643536 284.349719 62.459377 289.533878 
C 57.275218 294.718037 54.36238 301.750251 54.36238 309.081759 
C 54.36238 316.413266 57.275218 323.445481 62.459377 328.629639 
C 67.643536 333.813798 74.67575 336.726637 82.007258 336.726637 
z
" clip-path="url(#pfe5a580e65)" style="fill-opacity: 0.133333"/>
   </g>
   <g id="patch_30">
    <path d="M 138.551405 414.552978 
C 145.882912 414.552978 152.915127 411.640139 158.099285 406.455981 
C 163.283444 401.271822 166.196283 394.239608 166.196283 386.9081 
C 166.196283 379.576593 163.283444 372.544378 158.099285 367.360219 
C 152.915127 362.176061 145.882912 359.263222 138.551405 359.263222 
C 131.219897 359.263222 124.187682 362.176061 119.003524 367.360219 
C 113.819365 372.544378 110.906527 379.576593 110.906527 386.9081 
C 110.906527 394.239608 113.819365 401.271822 119.003524 406.455981 
C 124.187682 411.640139 131.219897 414.552978 138.551405 414.552978 
z
" clip-path="url(#pfe5a580e65)" style="fill-opacity: 0.133333"/>
   </g>
   <g id="patch_31">
    <path d="M 230.041756 444.279995 
C 237.373263 444.279995 244.405478 441.367157 249.589637 436.182998 
C 254.773795 430.99884 257.686634 423.966625 257.686634 416.635117 
C 257.686634 409.30361 254.773795 402.271395 249.589637 397.087237 
C 244.405478 391.903078 237.373263 388.990239 230.041756 388.990239 
C 222.710249 388.990239 215.678034 391.903078 210.493875 397.087237 
C 205.309717 402.271395 202.396878 409.30361 202.396878 416.635117 
C 202.396878 423.966625 205.309717 430.99884 210.493875 436.182998 
C 215.678034 441.367157 222.710249 444.279995 230.041756 444.279995 
z
" clip-path="url(#pfe5a580e65)" style="fill-opacity: 0.133333"/>
   </g>
   <g id="patch_32">
    <path d="M 321.532108 414.552978 
C 328.863615 414.552978 335.89583 411.640139 341.079988 406.455981 
C 346.264147 401.271822 349.176986 394.239608 349.176986 386.9081 
C 349.176986 379.576593 346.264147 372.544378 341.079988 367.360219 
C 335.89583 362.176061 328.863615 359.263222 321.532108 359.263222 
C 314.2006 359.263222 307.168385 362.176061 301.984227 367.360219 
C 296.800068 372.544378 293.88723 379.576593 293.88723 386.9081 
C 293.88723 394.239608 296.800068 401.271822 301.984227 406.455981 
C 307.168385 411.640139 314.2006 414.552978 321.532108 414.552978 
z
" clip-path="url(#pfe5a580e65)" style="fill-opacity: 0.133333"/>
   </g>
   <g id="patch_33">
    <path d="M 378.076254 336.726637 
C 385.407762 336.726637 392.439977 333.813798 397.624135 328.629639 
C 402.808294 323.445481 405.721133 316.413266 405.721133 309.081759 
C 405.721133 301.750251 402.808294 294.718037 397.624135 289.533878 
C 392.439977 284.349719 385.407762 281.436881 378.076254 281.436881 
C 370.744747 281.436881 363.712532 284.349719 358.528374 289.533878 
C 353.344215 294.718037 350.431376 301.750251 350.431376 309.081759 
C 350.431376 316.413266 353.344215 323.445481 358.528374 328.629639 
C 363.712532 333.813798 370.744747 336.726637 378.076254 336.726637 
z
" clip-path="url(#pfe5a580e65)" style="fill-opacity: 0.133333"/>
   </g>
   <g id="patch_34">
    <path d="M 378.076254 240.527988 
C 385.407762 240.527988 392.439977 237.61515 397.624135 232.430991 
C 402.808294 227.246832 405.721133 220.214618 405.721133 212.88311 
C 405.721133 205.551603 402.808294 198.519388 397.624135 193.335229 
C 392.439977 188.151071 385.407762 185.238232 378.076254 185.238232 
C 370.744747 185.238232 363.712532 188.151071 358.528374 193.335229 
C 353.344215 198.519388 350.431376 205.551603 350.431376 212.88311 
C 350.431376 220.214618 353.344215 227.246832 358.528374 232.430991 
C 363.712532 237.61515 370.744747 240.527988 378.076254 240.527988 
z
" clip-path="url(#pfe5a580e65)" style="fill-opacity: 0.133333"/>
   </g>
   <g id="patch_35">
    <path d="M 321.532108 162.701647 
C 328.863615 162.701647 335.89583 159.788808 341.079988 154.604649 
C 346.264147 149.420491 349.176986 142.388276 349.176986 135.056769 
C 349.176986 127.725261 346.264147 120.693047 341.079988 115.508888 
C 335.89583 110.324729 328.863615 107.411891 321.532108 107.411891 
C 314.2006 107.411891 307.168385 110.324729 301.984227 115.508888 
C 296.800068 120.693047 293.88723 127.725261 293.88723 135.056769 
C 293.88723 142.388276 296.800068 149.420491 301.984227 154.604649 
C 307.168385 159.788808 314.2006 162.701647 321.532108 162.701647 
z
" clip-path="url(#pfe5a580e65)" style="fill-opacity: 0.133333"/>
   </g>
   <g id="patch_36">
    <path d="M 228.96 131.892873 
C 236.291507 131.892873 243.323722 128.980035 248.507881 123.795876 
C 253.692039 118.611718 256.604878 111.579503 256.604878 104.247995 
C 256.604878 96.916488 253.692039 89.884273 248.507881 84.700115 
C 243.323722 79.515956 236.291507 76.603117 228.96 76.603117 
C 221.628493 76.603117 214.596278 79.515956 209.412119 84.700115 
C 204.227961 89.884273 201.315122 96.916488 201.315122 104.247995 
C 201.315122 111.579503 204.227961 118.611718 209.412119 123.795876 
C 214.596278 128.980035 221.628493 131.892873 228.96 131.892873 
z
" clip-path="url(#pfe5a580e65)" style="fill: #e41a1c; stroke: #ffffff; stroke-width: 2.8; stroke-linejoin: miter"/>
   </g>
   <g id="patch_37">
    <path d="M 137.469648 161.619891 
C 144.801156 161.619891 151.833371 158.707052 157.017529 153.522893 
C 162.201688 148.338735 165.114527 141.30652 165.114527 133.975013 
C 165.114527 126.643505 162.201688 119.61129 157.017529 114.427132 
C 151.833371 109.242973 144.801156 106.330135 137.469648 106.330135 
C 130.138141 106.330135 123.105926 109.242973 117.921768 114.427132 
C 112.737609 119.61129 109.82477 126.643505 109.82477 133.975013 
C 109.82477 141.30652 112.737609 148.338735 117.921768 153.522893 
C 123.105926 158.707052 130.138141 161.619891 137.469648 161.619891 
z
" clip-path="url(#pfe5a580e65)" style="fill: #e41a1c; stroke: #ffffff; stroke-width: 2.8; stroke-linejoin: miter"/>
   </g>
   <g id="patch_38">
    <path d="M 80.925502 239.446232 
C 88.257009 239.446232 95.289224 236.533393 100.473382 231.349235 
C 105.657541 226.165076 108.57038 219.132861 108.57038 211.801354 
C 108.57038 204.469847 105.657541 197.437632 100.473382 192.253473 
C 95.289224 187.069315 88.257009 184.156476 80.925502 184.156476 
C 73.593994 184.156476 66.561779 187.069315 61.377621 192.253473 
C 56.193462 197.437632 53.280624 204.469847 53.280624 211.801354 
C 53.280624 219.132861 56.193462 226.165076 61.377621 231.349235 
C 66.561779 236.533393 73.593994 239.446232 80.925502 239.446232 
z
" clip-path="url(#pfe5a580e65)" style="fill: #e41a1c; stroke: #ffffff; stroke-width: 2.8; stroke-linejoin: miter"/>
   </g>
   <g id="patch_39">
    <path d="M 80.925502 335.644881 
C 88.257009 335.644881 95.289224 332.732042 100.473382 327.547883 
C 105.657541 322.363725 108.57038 315.33151 108.57038 308.000003 
C 108.57038 300.668495 105.657541 293.63628 100.473382 288.452122 
C 95.289224 283.267963 88.257009 280.355125 80.925502 280.355125 
C 73.593994 280.355125 66.561779 283.267963 61.377621 288.452122 
C 56.193462 293.63628 53.280624 300.668495 53.280624 308.000003 
C 53.280624 315.33151 56.193462 322.363725 61.377621 327.547883 
C 66.561779 332.732042 73.593994 335.644881 80.925502 335.644881 
z
" clip-path="url(#pfe5a580e65)" style="fill: #e41a1c; stroke: #ffffff; stroke-width: 2.8; stroke-linejoin: miter"/>
   </g>
   <g id="patch_40">
    <path d="M 137.469648 413.471222 
C 144.801156 413.471222 151.833371 410.558383 157.017529 405.374225 
C 162.201688 400.190066 165.114527 393.157851 165.114527 385.826344 
C 165.114527 378.494837 162.201688 371.462622 157.017529 366.278463 
C 151.833371 361.094305 144.801156 358.181466 137.469648 358.181466 
C 130.138141 358.181466 123.105926 361.094305 117.921768 366.278463 
C 112.737609 371.462622 109.82477 378.494837 109.82477 385.826344 
C 109.82477 393.157851 112.737609 400.190066 117.921768 405.374225 
C 123.105926 410.558383 130.138141 413.471222 137.469648 413.471222 
z
" clip-path="url(#pfe5a580e65)" style="fill: #e41a1c; stroke: #ffffff; stroke-width: 2.8; stroke-linejoin: miter"/>
   </g>
   <g id="patch_41">
    <path d="M 228.96 443.198239 
C 236.291507 443.198239 243.323722 440.285401 248.507881 435.101242 
C 253.692039 429.917083 256.604878 422.884869 256.604878 415.553361 
C 256.604878 408.221854 253.692039 401.189639 248.507881 396.005481 
C 243.323722 390.821322 236.291507 387.908483 228.96 387.908483 
C 221.628493 387.908483 214.596278 390.821322 209.412119 396.005481 
C 204.227961 401.189639 201.315122 408.221854 201.315122 415.553361 
C 201.315122 422.884869 204.227961 429.917083 209.412119 435.101242 
C 214.596278 440.285401 221.628493 443.198239 228.96 443.198239 
z
" clip-path="url(#pfe5a580e65)" style="fill: #e41a1c; stroke: #ffffff; stroke-width: 2.8; stroke-linejoin: miter"/>
   </g>
   <g id="patch_42">
    <path d="M 320.450352 413.471222 
C 327.781859 413.471222 334.814074 410.558383 339.998232 405.374225 
C 345.182391 400.190066 348.09523 393.157851 348.09523 385.826344 
C 348.09523 378.494837 345.182391 371.462622 339.998232 366.278463 
C 334.814074 361.094305 327.781859 358.181466 320.450352 358.181466 
C 313.118844 358.181466 306.086629 361.094305 300.902471 366.278463 
C 295.718312 371.462622 292.805473 378.494837 292.805473 385.826344 
C 292.805473 393.157851 295.718312 400.190066 300.902471 405.374225 
C 306.086629 410.558383 313.118844 413.471222 320.450352 413.471222 
z
" clip-path="url(#pfe5a580e65)" style="fill: #e41a1c; stroke: #ffffff; stroke-width: 2.8; stroke-linejoin: miter"/>
   </g>
   <g id="patch_43">
    <path d="M 376.994498 335.644881 
C 384.326006 335.644881 391.358221 332.732042 396.542379 327.547883 
C 401.726538 322.363725 404.639376 315.33151 404.639376 308.000003 
C 404.639376 300.668495 401.726538 293.63628 396.542379 288.452122 
C 391.358221 283.267963 384.326006 280.355125 376.994498 280.355125 
C 369.662991 280.355125 362.630776 283.267963 357.446618 288.452122 
C 352.262459 293.63628 349.34962 300.668495 349.34962 308.000003 
C 349.34962 315.33151 352.262459 322.363725 357.446618 327.547883 
C 362.630776 332.732042 369.662991 335.644881 376.994498 335.644881 
z
" clip-path="url(#pfe5a580e65)" style="fill: #e41a1c; stroke: #ffffff; stroke-width: 2.8; stroke-linejoin: miter"/>
   </g>
   <g id="patch_44">
    <path d="M 376.994498 239.446232 
C 384.326006 239.446232 391.358221 236.533393 396.542379 231.349235 
C 401.726538 226.165076 404.639376 219.132861 404.639376 211.801354 
C 404.639376 204.469847 401.726538 197.437632 396.542379 192.253473 
C 391.358221 187.069315 384.326006 184.156476 376.994498 184.156476 
C 369.662991 184.156476 362.630776 187.069315 357.446618 192.253473 
C 352.262459 197.437632 349.34962 204.469847 349.34962 211.801354 
C 349.34962 219.132861 352.262459 226.165076 357.446618 231.349235 
C 362.630776 236.533393 369.662991 239.446232 376.994498 239.446232 
z
" clip-path="url(#pfe5a580e65)" style="fill: #e41a1c; stroke: #ffffff; stroke-width: 2.8; stroke-linejoin: miter"/>
   </g>
   <g id="patch_45">
    <path d="M 320.450352 161.619891 
C 327.781859 161.619891 334.814074 158.707052 339.998232 153.522893 
C 345.182391 148.338735 348.09523 141.30652 348.09523 133.975013 
C 348.09523 126.643505 345.182391 119.61129 339.998232 114.427132 
C 334.814074 109.242973 327.781859 106.330135 320.450352 106.330135 
C 313.118844 106.330135 306.086629 109.242973 300.902471 114.427132 
C 295.718312 119.61129 292.805473 126.643505 292.805473 133.975013 
C 292.805473 141.30652 295.718312 148.338735 300.902471 153.522893 
C 306.086629 158.707052 313.118844 161.619891 320.450352 161.619891 
z
" clip-path="url(#pfe5a580e65)" style="fill: #e41a1c; stroke: #ffffff; stroke-width: 2.8; stroke-linejoin: miter"/>
   </g>
   <g id="text_1">
    <!-- 10 users, color by community -->
    <g transform="translate(135.885781 46.795703) scale(0.125 -0.125)">
     <defs>
      <path id="DejaVuSans-31" d="M 794 531 
L 1825 531 
L 1825 4091 
L 703 3866 
L 703 4441 
L 1819 4666 
L 2450 4666 
L 2450 531 
L 3481 531 
L 3481 0 
L 794 0 
L 794 531 
z
" transform="scale(0.015625)"/>
      <path id="DejaVuSans-30" d="M 2034 4250 
Q 1547 4250 1301 3770 
Q 1056 3291 1056 2328 
Q 1056 1369 1301 889 
Q 1547 409 2034 409 
Q 2525 409 2770 889 
Q 3016 1369 3016 2328 
Q 3016 3291 2770 3770 
Q 2525 4250 2034 4250 
z
M 2034 4750 
Q 2819 4750 3233 4129 
Q 3647 3509 3647 2328 
Q 3647 1150 3233 529 
Q 2819 -91 2034 -91 
Q 1250 -91 836 529 
Q 422 1150 422 2328 
Q 422 3509 836 4129 
Q 1250 4750 2034 4750 
z
" transform="scale(0.015625)"/>
      <path id="DejaVuSans-20" transform="scale(0.015625)"/>
      <path id="DejaVuSans-75" d="M 544 1381 
L 544 3500 
L 1119 3500 
L 1119 1403 
Q 1119 906 1312 657 
Q 1506 409 1894 409 
Q 2359 409 2629 706 
Q 2900 1003 2900 1516 
L 2900 3500 
L 3475 3500 
L 3475 0 
L 2900 0 
L 2900 538 
Q 2691 219 2414 64 
Q 2138 -91 1772 -91 
Q 1169 -91 856 284 
Q 544 659 544 1381 
z
M 1991 3584 
L 1991 3584 
z
" transform="scale(0.015625)"/>
      <path id="DejaVuSans-73" d="M 2834 3397 
L 2834 2853 
Q 2591 2978 2328 3040 
Q 2066 3103 1784 3103 
Q 1356 3103 1142 2972 
Q 928 2841 928 2578 
Q 928 2378 1081 2264 
Q 1234 2150 1697 2047 
L 1894 2003 
Q 2506 1872 2764 1633 
Q 3022 1394 3022 966 
Q 3022 478 2636 193 
Q 2250 -91 1575 -91 
Q 1294 -91 989 -36 
Q 684 19 347 128 
L 347 722 
Q 666 556 975 473 
Q 1284 391 1588 391 
Q 1994 391 2212 530 
Q 2431 669 2431 922 
Q 2431 1156 2273 1281 
Q 2116 1406 1581 1522 
L 1381 1569 
Q 847 1681 609 1914 
Q 372 2147 372 2553 
Q 372 3047 722 3315 
Q 1072 3584 1716 3584 
Q 2034 3584 2315 3537 
Q 2597 3491 2834 3397 
z
" transform="scale(0.015625)"/>
      <path id="DejaVuSans-65" d="M 3597 1894 
L 3597 1613 
L 953 1613 
Q 991 1019 1311 708 
Q 1631 397 2203 397 
Q 2534 397 2845 478 
Q 3156 559 3463 722 
L 3463 178 
Q 3153 47 2828 -22 
Q 2503 -91 2169 -91 
Q 1331 -91 842 396 
Q 353 884 353 1716 
Q 353 2575 817 3079 
Q 1281 3584 2069 3584 
Q 2775 3584 3186 3129 
Q 3597 2675 3597 1894 
z
M 3022 2063 
Q 3016 2534 2758 2815 
Q 2500 3097 2075 3097 
Q 1594 3097 1305 2825 
Q 1016 2553 972 2059 
L 3022 2063 
z
" transform="scale(0.015625)"/>
      <path id="DejaVuSans-72" d="M 2631 2963 
Q 2534 3019 2420 3045 
Q 2306 3072 2169 3072 
Q 1681 3072 1420 2755 
Q 1159 2438 1159 1844 
L 1159 0 
L 581 0 
L 581 3500 
L 1159 3500 
L 1159 2956 
Q 1341 3275 1631 3429 
Q 1922 3584 2338 3584 
Q 2397 3584 2469 3576 
Q 2541 3569 2628 3553 
L 2631 2963 
z
" transform="scale(0.015625)"/>
      <path id="DejaVuSans-2c" d="M 750 794 
L 1409 794 
L 1409 256 
L 897 -744 
L 494 -744 
L 750 256 
L 750 794 
z
" transform="scale(0.015625)"/>
      <path id="DejaVuSans-63" d="M 3122 3366 
L 3122 2828 
Q 2878 2963 2633 3030 
Q 2388 3097 2138 3097 
Q 1578 3097 1268 2742 
Q 959 2388 959 1747 
Q 959 1106 1268 751 
Q 1578 397 2138 397 
Q 2388 397 2633 464 
Q 2878 531 3122 666 
L 3122 134 
Q 2881 22 2623 -34 
Q 2366 -91 2075 -91 
Q 1284 -91 818 406 
Q 353 903 353 1747 
Q 353 2603 823 3093 
Q 1294 3584 2113 3584 
Q 2378 3584 2631 3529 
Q 2884 3475 3122 3366 
z
" transform="scale(0.015625)"/>
      <path id="DejaVuSans-6f" d="M 1959 3097 
Q 1497 3097 1228 2736 
Q 959 2375 959 1747 
Q 959 1119 1226 758 
Q 1494 397 1959 397 
Q 2419 397 2687 759 
Q 2956 1122 2956 1747 
Q 2956 2369 2687 2733 
Q 2419 3097 1959 3097 
z
M 1959 3584 
Q 2709 3584 3137 3096 
Q 3566 2609 3566 1747 
Q 3566 888 3137 398 
Q 2709 -91 1959 -91 
Q 1206 -91 779 398 
Q 353 888 353 1747 
Q 353 2609 779 3096 
Q 1206 3584 1959 3584 
z
" transform="scale(0.015625)"/>
      <path id="DejaVuSans-6c" d="M 603 4863 
L 1178 4863 
L 1178 0 
L 603 0 
L 603 4863 
z
" transform="scale(0.015625)"/>
      <path id="DejaVuSans-62" d="M 3116 1747 
Q 3116 2381 2855 2742 
Q 2594 3103 2138 3103 
Q 1681 3103 1420 2742 
Q 1159 2381 1159 1747 
Q 1159 1113 1420 752 
Q 1681 391 2138 391 
Q 2594 391 2855 752 
Q 3116 1113 3116 1747 
z
M 1159 2969 
Q 1341 3281 1617 3432 
Q 1894 3584 2278 3584 
Q 2916 3584 3314 3078 
Q 3713 2572 3713 1747 
Q 3713 922 3314 415 
Q 2916 -91 2278 -91 
Q 1894 -91 1617 61 
Q 1341 213 1159 525 
L 1159 0 
L 581 0 
L 581 4863 
L 1159 4863 
L 1159 2969 
z
" transform="scale(0.015625)"/>
      <path id="DejaVuSans-79" d="M 2059 -325 
Q 1816 -950 1584 -1140 
Q 1353 -1331 966 -1331 
L 506 -1331 
L 506 -850 
L 844 -850 
Q 1081 -850 1212 -737 
Q 1344 -625 1503 -206 
L 1606 56 
L 191 3500 
L 800 3500 
L 1894 763 
L 2988 3500 
L 3597 3500 
L 2059 -325 
z
" transform="scale(0.015625)"/>
      <path id="DejaVuSans-6d" d="M 3328 2828 
Q 3544 3216 3844 3400 
Q 4144 3584 4550 3584 
Q 5097 3584 5394 3201 
Q 5691 2819 5691 2113 
L 5691 0 
L 5113 0 
L 5113 2094 
Q 5113 2597 4934 2840 
Q 4756 3084 4391 3084 
Q 3944 3084 3684 2787 
Q 3425 2491 3425 1978 
L 3425 0 
L 2847 0 
L 2847 2094 
Q 2847 2600 2669 2842 
Q 2491 3084 2119 3084 
Q 1678 3084 1418 2786 
Q 1159 2488 1159 1978 
L 1159 0 
L 581 0 
L 581 3500 
L 1159 3500 
L 1159 2956 
Q 1356 3278 1631 3431 
Q 1906 3584 2284 3584 
Q 2666 3584 2933 3390 
Q 3200 3197 3328 2828 
z
" transform="scale(0.015625)"/>
      <path id="DejaVuSans-6e" d="M 3513 2113 
L 3513 0 
L 2938 0 
L 2938 2094 
Q 2938 2591 2744 2837 
Q 2550 3084 2163 3084 
Q 1697 3084 1428 2787 
Q 1159 2491 1159 1978 
L 1159 0 
L 581 0 
L 581 3500 
L 1159 3500 
L 1159 2956 
Q 1366 3272 1645 3428 
Q 1925 3584 2291 3584 
Q 2894 3584 3203 3211 
Q 3513 2838 3513 2113 
z
" transform="scale(0.015625)"/>
      <path id="DejaVuSans-69" d="M 603 3500 
L 1178 3500 
L 1178 0 
L 603 0 
L 603 3500 
z
M 603 4863 
L 1178 4863 
L 1178 4134 
L 603 4134 
L 603 4863 
z
" transform="scale(0.015625)"/>
      <path id="DejaVuSans-74" d="M 1172 4494 
L 1172 3500 
L 2356 3500 
L 2356 3053 
L 1172 3053 
L 1172 1153 
Q 1172 725 1289 603 
Q 1406 481 1766 481 
L 2356 481 
L 2356 0 
L 1766 0 
Q 1100 0 847 248 
Q 594 497 594 1153 
L 594 3053 
L 172 3053 
L 172 3500 
L 594 3500 
L 594 4494 
L 1172 4494 
z
" transform="scale(0.015625)"/>
     </defs>
     <use xlink:href="#DejaVuSans-31"/>
     <use xlink:href="#DejaVuSans-30" transform="translate(63.623047 0)"/>
     <use xlink:href="#DejaVuSans-20" transform="translate(127.246094 0)"/>
     <use xlink:href="#DejaVuSans-75" transform="translate(159.033203 0)"/>
     <use xlink:href="#DejaVuSans-73" transform="translate(222.412109 0)"/>
     <use xlink:href="#DejaVuSans-65" transform="translate(274.511719 0)"/>
     <use xlink:href="#DejaVuSans-72" transform="translate(336.035156 0)"/>
     <use xlink:href="#DejaVuSans-73" transform="translate(377.148438 0)"/>
     <use xlink:href="#DejaVuSans-2c" transform="translate(429.248047 0)"/>
     <use xlink:href="#DejaVuSans-20" transform="translate(461.035156 0)"/>
     <use xlink:href="#DejaVuSans-63" transform="translate(492.822266 0)"/>
     <use xlink:href="#DejaVuSans-6f" transform="translate(547.802734 0)"/>
     <use xlink:href="#DejaVuSans-6c" transform="translate(608.984375 0)"/>
     <use xlink:href="#DejaVuSans-6f" transform="translate(636.767578 0)"/>
     <use xlink:href="#DejaVuSans-72" transform="translate(697.949219 0)"/>
     <use xlink:href="#DejaVuSans-20" transform="translate(739.0625 0)"/>
     <use xlink:href="#DejaVuSans-62" transform="translate(770.849609 0)"/>
     <use xlink:href="#DejaVuSans-79" transform="translate(834.326172 0)"/>
     <use xlink:href="#DejaVuSans-20" transform="translate(893.505859 0)"/>
     <use xlink:href="#DejaVuSans-63" transform="translate(925.292969 0)"/>
     <use xlink:href="#DejaVuSans-6f" transform="translate(980.273438 0)"/>
     <use xlink:href="#DejaVuSans-6d" transform="translate(1041.455078 0)"/>
     <use xlink:href="#DejaVuSans-6d" transform="translate(1138.867188 0)"/>
     <use xlink:href="#DejaVuSans-75" transform="translate(1236.279297 0)"/>
     <use xlink:href="#DejaVuSans-6e" transform="translate(1299.658203 0)"/>
     <use xlink:href="#DejaVuSans-69" transform="translate(1363.037109 0)"/>
     <use xlink:href="#DejaVuSans-74" transform="translate(1390.820312 0)"/>
     <use xlink:href="#DejaVuSans-79" transform="translate(1430.029297 0)"/>
    </g>
   </g>
   <g id="text_2">
    <!-- Social Network -->
    <g transform="translate(123.075234 26.196094) scale(0.25 -0.25)">
     <defs>
      <path id="DejaVuSans-Bold-53" d="M 3834 4519 
L 3834 3531 
Q 3450 3703 3084 3790 
Q 2719 3878 2394 3878 
Q 1963 3878 1756 3759 
Q 1550 3641 1550 3391 
Q 1550 3203 1689 3098 
Q 1828 2994 2194 2919 
L 2706 2816 
Q 3484 2659 3812 2340 
Q 4141 2022 4141 1434 
Q 4141 663 3683 286 
Q 3225 -91 2284 -91 
Q 1841 -91 1394 -6 
Q 947 78 500 244 
L 500 1259 
Q 947 1022 1364 901 
Q 1781 781 2169 781 
Q 2563 781 2772 912 
Q 2981 1044 2981 1288 
Q 2981 1506 2839 1625 
Q 2697 1744 2272 1838 
L 1806 1941 
Q 1106 2091 782 2419 
Q 459 2747 459 3303 
Q 459 4000 909 4375 
Q 1359 4750 2203 4750 
Q 2588 4750 2994 4692 
Q 3400 4634 3834 4519 
z
" transform="scale(0.015625)"/>
      <path id="DejaVuSans-Bold-6f" d="M 2203 2784 
Q 1831 2784 1636 2517 
Q 1441 2250 1441 1747 
Q 1441 1244 1636 976 
Q 1831 709 2203 709 
Q 2569 709 2762 976 
Q 2956 1244 2956 1747 
Q 2956 2250 2762 2517 
Q 2569 2784 2203 2784 
z
M 2203 3584 
Q 3106 3584 3614 3096 
Q 4122 2609 4122 1747 
Q 4122 884 3614 396 
Q 3106 -91 2203 -91 
Q 1297 -91 786 396 
Q 275 884 275 1747 
Q 275 2609 786 3096 
Q 1297 3584 2203 3584 
z
" transform="scale(0.015625)"/>
      <path id="DejaVuSans-Bold-63" d="M 3366 3391 
L 3366 2478 
Q 3138 2634 2908 2709 
Q 2678 2784 2431 2784 
Q 1963 2784 1702 2511 
Q 1441 2238 1441 1747 
Q 1441 1256 1702 982 
Q 1963 709 2431 709 
Q 2694 709 2930 787 
Q 3166 866 3366 1019 
L 3366 103 
Q 3103 6 2833 -42 
Q 2563 -91 2291 -91 
Q 1344 -91 809 395 
Q 275 881 275 1747 
Q 275 2613 809 3098 
Q 1344 3584 2291 3584 
Q 2566 3584 2833 3536 
Q 3100 3488 3366 3391 
z
" transform="scale(0.015625)"/>
      <path id="DejaVuSans-Bold-69" d="M 538 3500 
L 1656 3500 
L 1656 0 
L 538 0 
L 538 3500 
z
M 538 4863 
L 1656 4863 
L 1656 3950 
L 538 3950 
L 538 4863 
z
" transform="scale(0.015625)"/>
      <path id="DejaVuSans-Bold-61" d="M 2106 1575 
Q 1756 1575 1579 1456 
Q 1403 1338 1403 1106 
Q 1403 894 1545 773 
Q 1688 653 1941 653 
Q 2256 653 2472 879 
Q 2688 1106 2688 1447 
L 2688 1575 
L 2106 1575 
z
M 3816 1997 
L 3816 0 
L 2688 0 
L 2688 519 
Q 2463 200 2181 54 
Q 1900 -91 1497 -91 
Q 953 -91 614 226 
Q 275 544 275 1050 
Q 275 1666 698 1953 
Q 1122 2241 2028 2241 
L 2688 2241 
L 2688 2328 
Q 2688 2594 2478 2717 
Q 2269 2841 1825 2841 
Q 1466 2841 1156 2769 
Q 847 2697 581 2553 
L 581 3406 
Q 941 3494 1303 3539 
Q 1666 3584 2028 3584 
Q 2975 3584 3395 3211 
Q 3816 2838 3816 1997 
z
" transform="scale(0.015625)"/>
      <path id="DejaVuSans-Bold-6c" d="M 538 4863 
L 1656 4863 
L 1656 0 
L 538 0 
L 538 4863 
z
" transform="scale(0.015625)"/>
      <path id="DejaVuSans-Bold-20" transform="scale(0.015625)"/>
      <path id="DejaVuSans-Bold-4e" d="M 588 4666 
L 1931 4666 
L 3628 1466 
L 3628 4666 
L 4769 4666 
L 4769 0 
L 3425 0 
L 1728 3200 
L 1728 0 
L 588 0 
L 588 4666 
z
" transform="scale(0.015625)"/>
      <path id="DejaVuSans-Bold-65" d="M 4031 1759 
L 4031 1441 
L 1416 1441 
Q 1456 1047 1700 850 
Q 1944 653 2381 653 
Q 2734 653 3104 758 
Q 3475 863 3866 1075 
L 3866 213 
Q 3469 63 3072 -14 
Q 2675 -91 2278 -91 
Q 1328 -91 801 392 
Q 275 875 275 1747 
Q 275 2603 792 3093 
Q 1309 3584 2216 3584 
Q 3041 3584 3536 3087 
Q 4031 2591 4031 1759 
z
M 2881 2131 
Q 2881 2450 2695 2645 
Q 2509 2841 2209 2841 
Q 1884 2841 1681 2658 
Q 1478 2475 1428 2131 
L 2881 2131 
z
" transform="scale(0.015625)"/>
      <path id="DejaVuSans-Bold-74" d="M 1759 4494 
L 1759 3500 
L 2913 3500 
L 2913 2700 
L 1759 2700 
L 1759 1216 
Q 1759 972 1856 886 
Q 1953 800 2241 800 
L 2816 800 
L 2816 0 
L 1856 0 
Q 1194 0 917 276 
Q 641 553 641 1216 
L 641 2700 
L 84 2700 
L 84 3500 
L 641 3500 
L 641 4494 
L 1759 4494 
z
" transform="scale(0.015625)"/>
      <path id="DejaVuSans-Bold-77" d="M 225 3500 
L 1313 3500 
L 1900 1088 
L 2491 3500 
L 3425 3500 
L 4013 1113 
L 4603 3500 
L 5691 3500 
L 4769 0 
L 3547 0 
L 2956 2406 
L 2369 0 
L 1147 0 
L 225 3500 
z
" transform="scale(0.015625)"/>
      <path id="DejaVuSans-Bold-72" d="M 3138 2547 
Q 2991 2616 2845 2648 
Q 2700 2681 2553 2681 
Q 2122 2681 1889 2404 
Q 1656 2128 1656 1613 
L 1656 0 
L 538 0 
L 538 3500 
L 1656 3500 
L 1656 2925 
Q 1872 3269 2151 3426 
Q 2431 3584 2822 3584 
Q 2878 3584 2943 3579 
Q 3009 3575 3134 3559 
L 3138 2547 
z
" transform="scale(0.015625)"/>
      <path id="DejaVuSans-Bold-6b" d="M 538 4863 
L 1656 4863 
L 1656 2216 
L 2944 3500 
L 4244 3500 
L 2534 1894 
L 4378 0 
L 3022 0 
L 1656 1459 
L 1656 0 
L 538 0 
L 538 4863 
z
" transform="scale(0.015625)"/>
     </defs>
     <use xlink:href="#DejaVuSans-Bold-53"/>
     <use xlink:href="#DejaVuSans-Bold-6f" transform="translate(72.021484 0)"/>
     <use xlink:href="#DejaVuSans-Bold-63" transform="translate(140.722656 0)"/>
     <use xlink:href="#DejaVuSans-Bold-69" transform="translate(200 0)"/>
     <use xlink:href="#DejaVuSans-Bold-61" transform="translate(234.277344 0)"/>
     <use xlink:href="#DejaVuSans-Bold-6c" transform="translate(301.757812 0)"/>
     <use xlink:href="#DejaVuSans-Bold-20" transform="translate(336.035156 0)"/>
     <use xlink:href="#DejaVuSans-Bold-4e" transform="translate(370.849609 0)"/>
     <use xlink:href="#DejaVuSans-Bold-65" transform="translate(454.541016 0)"/>
     <use xlink:href="#DejaVuSans-Bold-74" transform="translate(522.363281 0)"/>
     <use xlink:href="#DejaVuSans-Bold-77" transform="translate(570.166016 0)"/>
     <use xlink:href="#DejaVuSans-Bold-6f" transform="translate(662.548828 0)"/>
     <use xlink:href="#DejaVuSans-Bold-72" transform="translate(731.25 0)"/>
     <use xlink:href="#DejaVuSans-Bold-6b" transform="translate(780.566406 0)"/>
    </g>
   </g>
   <g id="patch_46">
    <path d="M 221.219434 108.118278 
C 224.298667 108.118278 227.252197 106.894886 229.429544 104.717539 
C 231.606891 102.540193 232.830283 99.586663 232.830283 96.50743 
C 232.830283 93.428196 231.606891 90.474666 229.429544 88.29732 
C 227.252197 86.119973 224.298667 84.896581 221.219434 84.896581 
C 218.140201 84.896581 215.186671 86.119973 213.009324 88.29732 
C 210.831978 90.474666 209.608585 93.428196 209.608585 96.50743 
C 209.608585 99.586663 210.831978 102.540193 213.009324 104.717539 
C 215.186671 106.894886 218.140201 108.118278 221.219434 108.118278 
z
" clip-path="url(#pfe5a580e65)" style="fill: #ffffff; opacity: 0.22"/>
   </g>
   <g id="patch_47">
    <path d="M 129.729083 137.845296 
C 132.808316 137.845296 135.761846 136.621903 137.939193 134.444557 
C 140.116539 132.26721 141.339931 129.31368 141.339931 126.234447 
C 141.339931 123.155214 140.116539 120.201683 137.939193 118.024337 
C 135.761846 115.84699 132.808316 114.623598 129.729083 114.623598 
C 126.64985 114.623598 123.696319 115.84699 121.518973 118.024337 
C 119.341626 120.201683 118.118234 123.155214 118.118234 126.234447 
C 118.118234 129.31368 119.341626 132.26721 121.518973 134.444557 
C 123.696319 136.621903 126.64985 137.845296 129.729083 137.845296 
z
" clip-path="url(#pfe5a580e65)" style="fill: #ffffff; opacity: 0.22"/>
   </g>
   <g id="patch_48">
    <path d="M 73.184936 215.671637 
C 76.264169 215.671637 79.217699 214.448245 81.395046 212.270898 
C 83.572392 210.093552 84.795785 207.140021 84.795785 204.060788 
C 84.795785 200.981555 83.572392 198.028025 81.395046 195.850678 
C 79.217699 193.673332 76.264169 192.449939 73.184936 192.449939 
C 70.105703 192.449939 67.152172 193.673332 64.974826 195.850678 
C 62.797479 198.028025 61.574087 200.981555 61.574087 204.060788 
C 61.574087 207.140021 62.797479 210.093552 64.974826 212.270898 
C 67.152172 214.448245 70.105703 215.671637 73.184936 215.671637 
z
" clip-path="url(#pfe5a580e65)" style="fill: #ffffff; opacity: 0.22"/>
   </g>
   <g id="patch_49">
    <path d="M 73.184936 311.870286 
C 76.264169 311.870286 79.217699 310.646893 81.395046 308.469547 
C 83.572392 306.2922 84.795785 303.33867 84.795785 300.259437 
C 84.795785 297.180204 83.572392 294.226673 81.395046 292.049327 
C 79.217699 289.87198 76.264169 288.648588 73.184936 288.648588 
C 70.105703 288.648588 67.152172 289.87198 64.974826 292.049327 
C 62.797479 294.226673 61.574087 297.180204 61.574087 300.259437 
C 61.574087 303.33867 62.797479 306.2922 64.974826 308.469547 
C 67.152172 310.646893 70.105703 311.870286 73.184936 311.870286 
z
" clip-path="url(#pfe5a580e65)" style="fill: #ffffff; opacity: 0.22"/>
   </g>
   <g id="patch_50">
    <path d="M 129.729083 389.696627 
C 132.808316 389.696627 135.761846 388.473235 137.939193 386.295888 
C 140.116539 384.118542 141.339931 381.165011 141.339931 378.085778 
C 141.339931 375.006545 140.116539 372.053015 137.939193 369.875668 
C 135.761846 367.698322 132.808316 366.474929 129.729083 366.474929 
C 126.64985 366.474929 123.696319 367.698322 121.518973 369.875668 
C 119.341626 372.053015 118.118234 375.006545 118.118234 378.085778 
C 118.118234 381.165011 119.341626 384.118542 121.518973 386.295888 
C 123.696319 388.473235 126.64985 389.696627 129.729083 389.696627 
z
" clip-path="url(#pfe5a580e65)" style="fill: #ffffff; opacity: 0.22"/>
   </g>
   <g id="patch_51">
    <path d="M 221.219434 419.423644 
C 224.298667 419.423644 227.252197 418.200252 229.429544 416.022905 
C 231.606891 413.845559 232.830283 410.892029 232.830283 407.812795 
C 232.830283 404.733562 231.606891 401.780032 229.429544 399.602686 
C 227.252197 397.425339 224.298667 396.201947 221.219434 396.201947 
C 218.140201 396.201947 215.186671 397.425339 213.009324 399.602686 
C 210.831978 401.780032 209.608585 404.733562 209.608585 407.812795 
C 209.608585 410.892029 210.831978 413.845559 213.009324 416.022905 
C 215.186671 418.200252 218.140201 419.423644 221.219434 419.423644 
z
" clip-path="url(#pfe5a580e65)" style="fill: #ffffff; opacity: 0.22"/>
   </g>
   <g id="patch_52">
    <path d="M 312.709786 389.696627 
C 315.789019 389.696627 318.742549 388.473235 320.919896 386.295888 
C 323.097242 384.118542 324.320634 381.165011 324.320634 378.085778 
C 324.320634 375.006545 323.097242 372.053015 320.919896 369.875668 
C 318.742549 367.698322 315.789019 366.474929 312.709786 366.474929 
C 309.630553 366.474929 306.677022 367.698322 304.499676 369.875668 
C 302.322329 372.053015 301.098937 375.006545 301.098937 378.085778 
C 301.098937 381.165011 302.322329 384.118542 304.499676 386.295888 
C 306.677022 388.473235 309.630553 389.696627 312.709786 389.696627 
z
" clip-path="url(#pfe5a580e65)" style="fill: #ffffff; opacity: 0.22"/>
   </g>
   <g id="patch_53">
    <path d="M 369.253933 311.870286 
C 372.333166 311.870286 375.286696 310.646893 377.464042 308.469547 
C 379.641389 306.2922 380.864781 303.33867 380.864781 300.259437 
C 380.864781 297.180204 379.641389 294.226673 377.464042 292.049327 
C 375.286696 289.87198 372.333166 288.648588 369.253933 288.648588 
C 366.174699 288.648588 363.221169 289.87198 361.043823 292.049327 
C 358.866476 294.226673 357.643084 297.180204 357.643084 300.259437 
C 357.643084 303.33867 358.866476 306.2922 361.043823 308.469547 
C 363.221169 310.646893 366.174699 311.870286 369.253933 311.870286 
z
" clip-path="url(#pfe5a580e65)" style="fill: #ffffff; opacity: 0.22"/>
   </g>
   <g id="patch_54">
    <path d="M 369.253933 215.671637 
C 372.333166 215.671637 375.286696 214.448245 377.464042 212.270898 
C 379.641389 210.093552 380.864781 207.140021 380.864781 204.060788 
C 380.864781 200.981555 379.641389 198.028025 377.464042 195.850678 
C 375.286696 193.673332 372.333166 192.449939 369.253933 192.449939 
C 366.174699 192.449939 363.221169 193.673332 361.043823 195.850678 
C 358.866476 198.028025 357.643084 200.981555 357.643084 204.060788 
C 357.643084 207.140021 358.866476 210.093552 361.043823 212.270898 
C 363.221169 214.448245 366.174699 215.671637 369.253933 215.671637 
z
" clip-path="url(#pfe5a580e65)" style="fill: #ffffff; opacity: 0.22"/>
   </g>
   <g id="patch_55">
    <path d="M 312.709786 137.845296 
C 315.789019 137.845296 318.742549 136.621903 320.919896 134.444557 
C 323.097242 132.26721 324.320634 129.31368 324.320634 126.234447 
C 324.320634 123.155214 323.097242 120.201683 320.919896 118.024337 
C 318.742549 115.84699 315.789019 114.623598 312.709786 114.623598 
C 309.630553 114.623598 306.677022 115.84699 304.499676 118.024337 
C 302.322329 120.201683 301.098937 123.155214 301.098937 126.234447 
C 301.098937 129.31368 302.322329 132.26721 304.499676 134.444557 
C 306.677022 136.621903 309.630553 137.845296 312.709786 137.845296 
z
" clip-path="url(#pfe5a580e65)" style="fill: #ffffff; opacity: 0.22"/>
   </g>
   <g id="patch_56">
    <path d="M 165.092969 124.999652 
L 179.494316 123.834135 
L 177.701867 132.054644 
z
" clip-path="url(#pfe5a580e65)" style="fill: #7b2d8b; opacity: 0.88"/>
   </g>
   <g id="patch_57">
    <path d="M 292.827031 376.850983 
L 279.107815 372.318837 
L 283.958739 365.444378 
z
" clip-path="url(#pfe5a580e65)" style="fill: #7b2d8b; opacity: 0.88"/>
   </g>
   <g id="patch_58">
    <path d="M 201.336679 113.223356 
L 189.560799 121.595087 
L 186.893566 113.615393 
z
" clip-path="url(#pfe5a580e65)" style="fill: #7b2d8b; opacity: 0.88"/>
   </g>
   <g id="patch_59">
    <path d="M 376.994498 240.846232 
L 373.65271 254.902892 
L 366.388438 250.657894 
z
" clip-path="url(#pfe5a580e65)" style="fill: #7b2d8b; opacity: 0.88"/>
   </g>
   <g id="patch_60">
    <path d="M 80.925502 278.955125 
L 84.26729 264.898465 
L 91.531562 269.143462 
z
" clip-path="url(#pfe5a580e65)" style="fill: #1a6fa8; opacity: 0.74"/>
   </g>
   <g id="patch_61">
    <path d="M 108.548822 316.975364 
L 122.268038 321.50751 
L 117.417114 328.381969 
z
" clip-path="url(#pfe5a580e65)" style="fill: #1a6fa8; opacity: 0.74"/>
   </g>
   <g id="patch_62">
    <path d="M 104.423302 194.729203 
L 116.436269 186.701386 
L 118.871712 194.754849 
z
" clip-path="url(#pfe5a580e65)" style="fill: #1a6fa8; opacity: 0.74"/>
   </g>
   <g id="patch_63">
    <path d="M 137.469648 163.019891 
L 145.577522 174.978972 
L 137.540505 177.468151 
z
" clip-path="url(#pfe5a580e65)" style="fill: #1a6fa8; opacity: 0.74"/>
   </g>
   <g id="patch_64">
    <path d="M 376.994498 278.955125 
L 372.671457 265.16859 
L 381.084817 265.097761 
z
" clip-path="url(#pfe5a580e65)" style="fill: #1a6fa8; opacity: 0.74"/>
   </g>
   <g id="patch_65">
    <path d="M 137.469648 356.781466 
L 129.361775 344.822385 
L 137.398792 342.333206 
z
" clip-path="url(#pfe5a580e65)" style="fill: #49a62d; opacity: 0.6"/>
   </g>
   <g id="patch_66">
    <path d="M 292.827031 394.801705 
L 278.425684 395.967222 
L 280.218133 387.746712 
z
" clip-path="url(#pfe5a580e65)" style="fill: #49a62d; opacity: 0.6"/>
   </g>
   <g id="patch_67">
    <path d="M 80.925502 240.846232 
L 85.248543 254.632767 
L 76.835183 254.703596 
z
" clip-path="url(#pfe5a580e65)" style="fill: #49a62d; opacity: 0.6"/>
   </g>
   <g id="patch_68">
    <path d="M 359.922347 331.497803 
L 348.956486 340.905625 
L 345.574714 333.201518 
z
" clip-path="url(#pfe5a580e65)" style="fill: #49a62d; opacity: 0.6"/>
   </g>
   <g id="patch_69">
    <path d="M 359.922347 188.303554 
L 348.321411 179.691033 
L 355.086331 174.688483 
z
" clip-path="url(#pfe5a580e65)" style="fill: #49a62d; opacity: 0.6"/>
   </g>
   <g id="patch_70">
    <path d="M 205.4622 121.320146 
L 193.450927 129.350498 
L 191.013784 121.29755 
z
" clip-path="url(#pfe5a580e65)" style="fill: #49a62d; opacity: 0.6"/>
   </g>
   <g id="patch_71">
    <path d="M 201.336679 406.578 
L 189.000671 399.056024 
L 195.282687 393.459067 
z
" clip-path="url(#pfe5a580e65)" style="fill: #49a62d; opacity: 0.6"/>
   </g>
   <g id="patch_72">
    <path d="M 337.522502 157.472813 
L 343.081236 170.809143 
L 334.70917 171.6447 
z
" clip-path="url(#pfe5a580e65)" style="fill: #49a62d; opacity: 0.6"/>
   </g>
   <g id="patch_73">
    <path d="M 211.887849 392.055561 
L 203.452699 380.325025 
L 211.417885 377.614773 
z
" clip-path="url(#pfe5a580e65)" style="fill: #999999; opacity: 0.45"/>
   </g>
   <g id="patch_74">
    <path d="M 337.522502 362.328544 
L 342.12861 348.633983 
L 348.976794 353.521931 
z
" clip-path="url(#pfe5a580e65)" style="fill: #999999; opacity: 0.45"/>
   </g>
   <g id="patch_75">
    <path d="M 97.997653 284.502203 
L 98.467617 270.061414 
L 106.432803 272.771667 
z
" clip-path="url(#pfe5a580e65)" style="fill: #999999; opacity: 0.45"/>
   </g>
   <g id="patch_76">
    <path d="M 97.997653 235.299154 
L 106.432803 247.02969 
L 98.467617 249.739942 
z
" clip-path="url(#pfe5a580e65)" style="fill: #999999; opacity: 0.45"/>
   </g>
   <g id="patch_77">
    <path d="M 256.583321 113.223356 
L 268.919329 120.745333 
L 262.637313 126.34229 
z
" clip-path="url(#pfe5a580e65)" style="fill: #999999; opacity: 0.45"/>
   </g>
   <g id="patch_78">
    <path d="M 246.032151 127.745795 
L 254.467301 139.476331 
L 246.502115 142.186584 
z
" clip-path="url(#pfe5a580e65)" style="fill: #999999; opacity: 0.45"/>
   </g>
   <g id="text_3">
    <!-- Alice -->
    <g transform="translate(212.57625 69.299687) scale(0.12 -0.12)">
     <defs>
      <path id="DejaVuSans-Bold-41" d="M 3419 850 
L 1538 850 
L 1241 0 
L 31 0 
L 1759 4666 
L 3194 4666 
L 4922 0 
L 3713 0 
L 3419 850 
z
M 1838 1716 
L 3116 1716 
L 2478 3572 
L 1838 1716 
z
" transform="scale(0.015625)"/>
     </defs>
     <use xlink:href="#DejaVuSans-Bold-41"/>
     <use xlink:href="#DejaVuSans-Bold-6c" transform="translate(77.392578 0)"/>
     <use xlink:href="#DejaVuSans-Bold-69" transform="translate(111.669922 0)"/>
     <use xlink:href="#DejaVuSans-Bold-63" transform="translate(145.947266 0)"/>
     <use xlink:href="#DejaVuSans-Bold-65" transform="translate(205.224609 0)"/>
    </g>
   </g>
   <g id="text_4">
    <!-- Bob -->
    <g transform="translate(92.41444 105.224616) scale(0.12 -0.12)">
     <defs>
      <path id="DejaVuSans-Bold-42" d="M 2456 2859 
Q 2741 2859 2887 2984 
Q 3034 3109 3034 3353 
Q 3034 3594 2887 3720 
Q 2741 3847 2456 3847 
L 1791 3847 
L 1791 2859 
L 2456 2859 
z
M 2497 819 
Q 2859 819 3042 972 
Q 3225 1125 3225 1434 
Q 3225 1738 3044 1889 
Q 2863 2041 2497 2041 
L 1791 2041 
L 1791 819 
L 2497 819 
z
M 3616 2497 
Q 4003 2384 4215 2081 
Q 4428 1778 4428 1338 
Q 4428 663 3972 331 
Q 3516 0 2584 0 
L 588 0 
L 588 4666 
L 2394 4666 
Q 3366 4666 3802 4372 
Q 4238 4078 4238 3431 
Q 4238 3091 4078 2852 
Q 3919 2613 3616 2497 
z
" transform="scale(0.015625)"/>
      <path id="DejaVuSans-Bold-62" d="M 2400 722 
Q 2759 722 2948 984 
Q 3138 1247 3138 1747 
Q 3138 2247 2948 2509 
Q 2759 2772 2400 2772 
Q 2041 2772 1848 2508 
Q 1656 2244 1656 1747 
Q 1656 1250 1848 986 
Q 2041 722 2400 722 
z
M 1656 2988 
Q 1888 3294 2169 3439 
Q 2450 3584 2816 3584 
Q 3463 3584 3878 3070 
Q 4294 2556 4294 1747 
Q 4294 938 3878 423 
Q 3463 -91 2816 -91 
Q 2450 -91 2169 54 
Q 1888 200 1656 506 
L 1656 0 
L 538 0 
L 538 4863 
L 1656 4863 
L 1656 2988 
z
" transform="scale(0.015625)"/>
     </defs>
     <use xlink:href="#DejaVuSans-Bold-42"/>
     <use xlink:href="#DejaVuSans-Bold-6f" transform="translate(76.220703 0)"/>
     <use xlink:href="#DejaVuSans-Bold-62" transform="translate(144.921875 0)"/>
    </g>
   </g>
   <g id="text_5">
    <!-- Carol -->
    <g transform="translate(14.880541 205.084174) scale(0.12 -0.12)">
     <defs>
      <path id="DejaVuSans-Bold-43" d="M 4288 256 
Q 3956 84 3597 -3 
Q 3238 -91 2847 -91 
Q 1681 -91 1000 561 
Q 319 1213 319 2328 
Q 319 3447 1000 4098 
Q 1681 4750 2847 4750 
Q 3238 4750 3597 4662 
Q 3956 4575 4288 4403 
L 4288 3438 
Q 3953 3666 3628 3772 
Q 3303 3878 2944 3878 
Q 2300 3878 1931 3465 
Q 1563 3053 1563 2328 
Q 1563 1606 1931 1193 
Q 2300 781 2944 781 
Q 3303 781 3628 887 
Q 3953 994 4288 1222 
L 4288 256 
z
" transform="scale(0.015625)"/>
     </defs>
     <use xlink:href="#DejaVuSans-Bold-43"/>
     <use xlink:href="#DejaVuSans-Bold-61" transform="translate(73.388672 0)"/>
     <use xlink:href="#DejaVuSans-Bold-72" transform="translate(140.869141 0)"/>
     <use xlink:href="#DejaVuSans-Bold-6f" transform="translate(190.185547 0)"/>
     <use xlink:href="#DejaVuSans-Bold-6c" transform="translate(258.886719 0)"/>
    </g>
   </g>
   <g id="text_6">
    <!-- Dave -->
    <g transform="translate(16.039291 321.339683) scale(0.12 -0.12)">
     <defs>
      <path id="DejaVuSans-Bold-44" d="M 1791 3756 
L 1791 909 
L 2222 909 
Q 2959 909 3348 1275 
Q 3738 1641 3738 2338 
Q 3738 3031 3350 3393 
Q 2963 3756 2222 3756 
L 1791 3756 
z
M 588 4666 
L 1856 4666 
Q 2919 4666 3439 4514 
Q 3959 4363 4331 4000 
Q 4659 3684 4818 3271 
Q 4978 2859 4978 2338 
Q 4978 1809 4818 1395 
Q 4659 981 4331 666 
Q 3956 303 3431 151 
Q 2906 0 1856 0 
L 588 0 
L 588 4666 
z
" transform="scale(0.015625)"/>
      <path id="DejaVuSans-Bold-76" d="M 97 3500 
L 1216 3500 
L 2088 1081 
L 2956 3500 
L 4078 3500 
L 2700 0 
L 1472 0 
L 97 3500 
z
" transform="scale(0.015625)"/>
     </defs>
     <use xlink:href="#DejaVuSans-Bold-44"/>
     <use xlink:href="#DejaVuSans-Bold-61" transform="translate(83.007812 0)"/>
     <use xlink:href="#DejaVuSans-Bold-76" transform="translate(150.488281 0)"/>
     <use xlink:href="#DejaVuSans-Bold-65" transform="translate(215.673828 0)"/>
    </g>
   </g>
   <g id="text_7">
    <!-- Eve -->
    <g transform="translate(94.235065 421.199241) scale(0.12 -0.12)">
     <defs>
      <path id="DejaVuSans-Bold-45" d="M 588 4666 
L 3834 4666 
L 3834 3756 
L 1791 3756 
L 1791 2888 
L 3713 2888 
L 3713 1978 
L 1791 1978 
L 1791 909 
L 3903 909 
L 3903 0 
L 588 0 
L 588 4666 
z
" transform="scale(0.015625)"/>
     </defs>
     <use xlink:href="#DejaVuSans-Bold-45"/>
     <use xlink:href="#DejaVuSans-Bold-76" transform="translate(68.310547 0)"/>
     <use xlink:href="#DejaVuSans-Bold-65" transform="translate(133.496094 0)"/>
    </g>
   </g>
   <g id="text_8">
    <!-- Frank -->
    <g transform="translate(209.974687 457.124169) scale(0.12 -0.12)">
     <defs>
      <path id="DejaVuSans-Bold-46" d="M 588 4666 
L 3834 4666 
L 3834 3756 
L 1791 3756 
L 1791 2888 
L 3713 2888 
L 3713 1978 
L 1791 1978 
L 1791 0 
L 588 0 
L 588 4666 
z
" transform="scale(0.015625)"/>
      <path id="DejaVuSans-Bold-6e" d="M 4056 2131 
L 4056 0 
L 2931 0 
L 2931 347 
L 2931 1631 
Q 2931 2084 2911 2256 
Q 2891 2428 2841 2509 
Q 2775 2619 2662 2680 
Q 2550 2741 2406 2741 
Q 2056 2741 1856 2470 
Q 1656 2200 1656 1722 
L 1656 0 
L 538 0 
L 538 3500 
L 1656 3500 
L 1656 2988 
Q 1909 3294 2193 3439 
Q 2478 3584 2822 3584 
Q 3428 3584 3742 3212 
Q 4056 2841 4056 2131 
z
" transform="scale(0.015625)"/>
     </defs>
     <use xlink:href="#DejaVuSans-Bold-46"/>
     <use xlink:href="#DejaVuSans-Bold-72" transform="translate(61.935547 0)"/>
     <use xlink:href="#DejaVuSans-Bold-61" transform="translate(111.251953 0)"/>
     <use xlink:href="#DejaVuSans-Bold-6e" transform="translate(178.732422 0)"/>
     <use xlink:href="#DejaVuSans-Bold-6b" transform="translate(249.923828 0)"/>
    </g>
   </g>
   <g id="text_9">
    <!-- Grace -->
    <g transform="translate(339.52556 421.199241) scale(0.12 -0.12)">
     <defs>
      <path id="DejaVuSans-Bold-47" d="M 4781 347 
Q 4331 128 3847 18 
Q 3363 -91 2847 -91 
Q 1681 -91 1000 561 
Q 319 1213 319 2328 
Q 319 3456 1012 4103 
Q 1706 4750 2913 4750 
Q 3378 4750 3804 4662 
Q 4231 4575 4609 4403 
L 4609 3438 
Q 4219 3659 3833 3768 
Q 3447 3878 3059 3878 
Q 2341 3878 1952 3476 
Q 1563 3075 1563 2328 
Q 1563 1588 1938 1184 
Q 2313 781 3003 781 
Q 3191 781 3352 804 
Q 3513 828 3641 878 
L 3641 1784 
L 2906 1784 
L 2906 2591 
L 4781 2591 
L 4781 347 
z
" transform="scale(0.015625)"/>
     </defs>
     <use xlink:href="#DejaVuSans-Bold-47"/>
     <use xlink:href="#DejaVuSans-Bold-72" transform="translate(82.080078 0)"/>
     <use xlink:href="#DejaVuSans-Bold-61" transform="translate(131.396484 0)"/>
     <use xlink:href="#DejaVuSans-Bold-63" transform="translate(198.876953 0)"/>
     <use xlink:href="#DejaVuSans-Bold-65" transform="translate(258.154297 0)"/>
    </g>
   </g>
   <g id="text_10">
    <!-- Heidi -->
    <g transform="translate(407.858834 321.339683) scale(0.12 -0.12)">
     <defs>
      <path id="DejaVuSans-Bold-48" d="M 588 4666 
L 1791 4666 
L 1791 2888 
L 3566 2888 
L 3566 4666 
L 4769 4666 
L 4769 0 
L 3566 0 
L 3566 1978 
L 1791 1978 
L 1791 0 
L 588 0 
L 588 4666 
z
" transform="scale(0.015625)"/>
      <path id="DejaVuSans-Bold-64" d="M 2919 2988 
L 2919 4863 
L 4044 4863 
L 4044 0 
L 2919 0 
L 2919 506 
Q 2688 197 2409 53 
Q 2131 -91 1766 -91 
Q 1119 -91 703 423 
Q 288 938 288 1747 
Q 288 2556 703 3070 
Q 1119 3584 1766 3584 
Q 2128 3584 2408 3439 
Q 2688 3294 2919 2988 
z
M 2181 722 
Q 2541 722 2730 984 
Q 2919 1247 2919 1747 
Q 2919 2247 2730 2509 
Q 2541 2772 2181 2772 
Q 1825 2772 1636 2509 
Q 1447 2247 1447 1747 
Q 1447 1247 1636 984 
Q 1825 722 2181 722 
z
" transform="scale(0.015625)"/>
     </defs>
     <use xlink:href="#DejaVuSans-Bold-48"/>
     <use xlink:href="#DejaVuSans-Bold-65" transform="translate(83.691406 0)"/>
     <use xlink:href="#DejaVuSans-Bold-69" transform="translate(151.513672 0)"/>
     <use xlink:href="#DejaVuSans-Bold-64" transform="translate(185.791016 0)"/>
     <use xlink:href="#DejaVuSans-Bold-69" transform="translate(257.373047 0)"/>
    </g>
   </g>
   <g id="text_11">
    <!-- Ivan -->
    <g transform="translate(407.858834 205.084174) scale(0.12 -0.12)">
     <defs>
      <path id="DejaVuSans-Bold-49" d="M 588 4666 
L 1791 4666 
L 1791 0 
L 588 0 
L 588 4666 
z
" transform="scale(0.015625)"/>
     </defs>
     <use xlink:href="#DejaVuSans-Bold-49"/>
     <use xlink:href="#DejaVuSans-Bold-76" transform="translate(37.207031 0)"/>
     <use xlink:href="#DejaVuSans-Bold-61" transform="translate(102.392578 0)"/>
     <use xlink:href="#DejaVuSans-Bold-6e" transform="translate(169.873047 0)"/>
    </g>
   </g>
   <g id="text_12">
    <!-- Judy -->
    <g transform="translate(339.52556 105.130866) scale(0.12 -0.12)">
     <defs>
      <path id="DejaVuSans-Bold-4a" d="M 588 4666 
L 1791 4666 
L 1791 453 
Q 1791 -419 1317 -850 
Q 844 -1281 -116 -1281 
L -359 -1281 
L -359 -372 
L -172 -372 
Q 203 -372 395 -162 
Q 588 47 588 453 
L 588 4666 
z
" transform="scale(0.015625)"/>
      <path id="DejaVuSans-Bold-75" d="M 500 1363 
L 500 3500 
L 1625 3500 
L 1625 3150 
Q 1625 2866 1622 2436 
Q 1619 2006 1619 1863 
Q 1619 1441 1641 1255 
Q 1663 1069 1716 984 
Q 1784 875 1895 815 
Q 2006 756 2150 756 
Q 2500 756 2700 1025 
Q 2900 1294 2900 1772 
L 2900 3500 
L 4019 3500 
L 4019 0 
L 2900 0 
L 2900 506 
Q 2647 200 2364 54 
Q 2081 -91 1741 -91 
Q 1134 -91 817 281 
Q 500 653 500 1363 
z
" transform="scale(0.015625)"/>
      <path id="DejaVuSans-Bold-79" d="M 78 3500 
L 1197 3500 
L 2138 1125 
L 2938 3500 
L 4056 3500 
L 2584 -331 
Q 2363 -916 2067 -1148 
Q 1772 -1381 1288 -1381 
L 641 -1381 
L 641 -647 
L 991 -647 
Q 1275 -647 1404 -556 
Q 1534 -466 1606 -231 
L 1638 -134 
L 78 3500 
z
" transform="scale(0.015625)"/>
     </defs>
     <use xlink:href="#DejaVuSans-Bold-4a"/>
     <use xlink:href="#DejaVuSans-Bold-75" transform="translate(37.207031 0)"/>
     <use xlink:href="#DejaVuSans-Bold-64" transform="translate(108.398438 0)"/>
     <use xlink:href="#DejaVuSans-Bold-79" transform="translate(179.980469 0)"/>
    </g>
   </g>
  </g>
 </g>
 <defs>
  <clipPath id="pfe5a580e65">
   <rect x="7.2" y="38.140678" width="443.52" height="443.52"/>
  </clipPath>
 </defs>
</svg>
