<?xml version="1.0" encoding="utf-8" standalone="no"?>
<!DOCTYPE svg PUBLIC "-//W3C//DTD SVG 1.1//EN"
  "http://www.w3.org/Graphics/SVG/1.1/DTD/svg11.dtd">
<svg xmlns:xlink="http://www.w3.org/1999/xlink" width="607.403906pt" height="538.960678pt" viewBox="0 0 607.403906 538.960678" xmlns="http://www.w3.org/2000/svg" version="1.1">
 <metadata>
  <rdf:RDF xmlns:dc="http://purl.org/dc/elements/1.1/" xmlns:cc="http://creativecommons.org/ns#" xmlns:rdf="http://www.w3.org/1999/02/22-rdf-syntax-ns#">
   <cc:Work>
    <dc:type rdf:resource="http://purl.org/dc/dcmitype/StillImage"/>
    <dc:date>2026-04-30T21:47:46.899463</dc:date>
    <dc:format>image/svg+xml</dc:format>
    <dc:creator>
     <cc:Agent>
      <dc:title>Matplotlib v3.10.7+dfsg1, https://matplotlib.org/</dc:title>
     </cc:Agent>
    </dc:creator>
   </cc:Work>
  </rdf:RDF>
 </metadata>
 <defs>
  <style type="text/css">*{stroke-linejoin: round; stroke-linecap: butt}</style>
 </defs>
 <g id="figure_1">
  <g id="patch_1">
   <path d="M 0 538.960678 
L 607.403906 538.960678 
L 607.403906 0 
L 0 0 
z
" style="fill: #ffffff"/>
  </g>
  <g id="axes_1">
   <g id="patch_2">
    <path d="M 310.901953 407.770727 
C 350.117548 407.770727 387.732254 392.190206 415.461867 364.460593 
C 443.191481 336.730979 458.772002 299.116274 458.772002 259.900678 
C 458.772002 220.685083 443.191481 183.070378 415.461867 155.340764 
C 387.732254 127.611151 350.117548 112.03063 310.901953 112.03063 
C 271.686358 112.03063 234.071652 127.611151 206.342039 155.340764 
C 178.612426 183.070378 163.031904 220.685083 163.031904 259.900678 
C 163.031904 299.116274 178.612426 336.730979 206.342039 364.460593 
C 234.071652 392.190206 271.686358 407.770727 310.901953 407.770727 
z
" clip-path="url(#p2e6cc61939)" style="fill: #f0f4fa; stroke: #f0f4fa; stroke-linejoin: miter"/>
   </g>
   <g id="patch_3">
    <path d="M 307.05453 131.623835 
Q 356.662674 210.934185 425.624187 250.938749 
" clip-path="url(#p2e6cc61939)" style="fill: none; opacity: 0.45; stroke: #999999; stroke-width: 0.96; stroke-linejoin: miter"/>
   </g>
   <g id="patch_4">
    <path d="M 182.894148 259.900678 
Q 217.558787 297.186487 219.260007 334.235408 
" clip-path="url(#p2e6cc61939)" style="fill: none; opacity: 0.45; stroke: #999999; stroke-width: 0.96; stroke-linejoin: miter"/>
   </g>
   <g id="patch_5">
    <path d="M 400.101166 351.827074 
Q 311.54414 329.377701 236.192419 347.650981 
" clip-path="url(#p2e6cc61939)" style="fill: none; opacity: 0.6; stroke: #49a62d; stroke-width: 1.68; stroke-linejoin: miter"/>
   </g>
   <g id="patch_6">
    <path d="M 310.901953 131.892873 
Q 366.185949 122.753928 389.776257 156.039849 
" clip-path="url(#p2e6cc61939)" style="fill: none; opacity: 0.6; stroke: #49a62d; stroke-width: 1.68; stroke-linejoin: miter"/>
   </g>
   <g id="patch_7">
    <path d="M 307.05453 388.177521 
Q 252.535315 284.373336 223.742062 185.034073 
" clip-path="url(#p2e6cc61939)" style="fill: none; opacity: 0.6; stroke: #49a62d; stroke-width: 1.68; stroke-linejoin: miter"/>
   </g>
   <g id="patch_8">
    <path d="M 221.70274 167.974283 
Q 311.247457 155.591513 386.790858 168.114854 
" clip-path="url(#p2e6cc61939)" style="fill: none; opacity: 0.74; stroke: #1a6fa8; stroke-width: 2.56; stroke-linejoin: miter"/>
   </g>
   <g id="patch_9">
    <path d="M 407.562518 174.016366 
Q 383.157725 260.328932 399.020116 334.526303 
" clip-path="url(#p2e6cc61939)" style="fill: none; opacity: 0.74; stroke: #1a6fa8; stroke-width: 2.56; stroke-linejoin: miter"/>
   </g>
   <g id="patch_10">
    <path d="M 438.9771 261.829088 
Q 386.457895 333.736734 326.045299 378.555501 
" clip-path="url(#p2e6cc61939)" style="fill: none; opacity: 0.74; stroke: #1a6fa8; stroke-width: 2.56; stroke-linejoin: miter"/>
   </g>
   <g id="patch_11">
    <path d="M 310.901953 387.908483 
Q 343.312211 274.490054 396.434243 184.922588 
" clip-path="url(#p2e6cc61939)" style="fill: none; opacity: 0.88; stroke: #7b2d8b; stroke-width: 3.6; stroke-linejoin: miter"/>
   </g>
   <g id="patch_12">
    <path d="M 396.786266 163.240114 
Q 365.035195 122.295651 328.460895 130.118967 
" clip-path="url(#p2e6cc61939)" style="fill: none; opacity: 0.88; stroke: #7b2d8b; stroke-width: 3.6; stroke-linejoin: miter"/>
   </g>
   <g id="patch_13">
    <path d="M 422.046777 178.564245 
C 429.378284 178.564245 436.410499 175.651406 441.594658 170.467248 
C 446.778816 165.283089 449.691655 158.250874 449.691655 150.919367 
C 449.691655 143.587859 446.778816 136.555645 441.594658 131.371486 
C 436.410499 126.187328 429.378284 123.274489 422.046777 123.274489 
C 414.715269 123.274489 407.683055 126.187328 402.498896 131.371486 
C 397.314738 136.555645 394.401899 143.587859 394.401899 150.919367 
C 394.401899 158.250874 397.314738 165.283089 402.498896 170.467248 
C 407.683055 175.651406 414.715269 178.564245 422.046777 178.564245 
z
" clip-path="url(#p2e6cc61939)" style="fill-opacity: 0.133333"/>
   </g>
   <g id="patch_14">
    <path d="M 311.983709 132.97463 
C 319.315217 132.97463 326.347431 130.061791 331.53159 124.877632 
C 336.715749 119.693474 339.628587 112.661259 339.628587 105.329752 
C 339.628587 97.998244 336.715749 90.966029 331.53159 85.781871 
C 326.347431 80.597712 319.315217 77.684873 311.983709 77.684873 
C 304.652202 77.684873 297.619987 80.597712 292.435828 85.781871 
C 287.25167 90.966029 284.338831 97.998244 284.338831 105.329752 
C 284.338831 112.661259 287.25167 119.693474 292.435828 124.877632 
C 297.619987 130.061791 304.652202 132.97463 311.983709 132.97463 
z
" clip-path="url(#p2e6cc61939)" style="fill-opacity: 0.133333"/>
   </g>
   <g id="patch_15">
    <path d="M 422.046777 398.69038 
C 429.378284 398.69038 436.410499 395.777541 441.594658 390.593383 
C 446.778816 385.409224 449.691655 378.377009 449.691655 371.045502 
C 449.691655 363.713995 446.778816 356.68178 441.594658 351.497621 
C 436.410499 346.313463 429.378284 343.400624 422.046777 343.400624 
C 414.715269 343.400624 407.683055 346.313463 402.498896 351.497621 
C 397.314738 356.68178 394.401899 363.713995 394.401899 371.045502 
C 394.401899 378.377009 397.314738 385.409224 402.498896 390.593383 
C 407.683055 395.777541 414.715269 398.69038 422.046777 398.69038 
z
" clip-path="url(#p2e6cc61939)" style="fill-opacity: 0.133333"/>
   </g>
   <g id="patch_16">
    <path d="M 311.983709 444.279995 
C 319.315217 444.279995 326.347431 441.367157 331.53159 436.182998 
C 336.715749 430.99884 339.628587 423.966625 339.628587 416.635117 
C 339.628587 409.30361 336.715749 402.271395 331.53159 397.087237 
C 326.347431 391.903078 319.315217 388.990239 311.983709 388.990239 
C 304.652202 388.990239 297.619987 391.903078 292.435828 397.087237 
C 287.25167 402.271395 284.338831 409.30361 284.338831 416.635117 
C 284.338831 423.966625 287.25167 430.99884 292.435828 436.182998 
C 297.619987 441.367157 304.652202 444.279995 311.983709 444.279995 
z
" clip-path="url(#p2e6cc61939)" style="fill-opacity: 0.133333"/>
   </g>
   <g id="patch_17">
    <path d="M 201.920642 178.564245 
C 209.252149 178.564245 216.284364 175.651406 221.468522 170.467248 
C 226.652681 165.283089 229.56552 158.250874 229.56552 150.919367 
C 229.56552 143.587859 226.652681 136.555645 221.468522 131.371486 
C 216.284364 126.187328 209.252149 123.274489 201.920642 123.274489 
C 194.589134 123.274489 187.556919 126.187328 182.372761 131.371486 
C 177.188602 136.555645 174.275764 143.587859 174.275764 150.919367 
C 174.275764 158.250874 177.188602 165.283089 182.372761 170.467248 
C 187.556919 175.651406 194.589134 178.564245 201.920642 178.564245 
z
" clip-path="url(#p2e6cc61939)" style="fill-opacity: 0.133333"/>
   </g>
   <g id="patch_18">
    <path d="M 201.920642 398.69038 
C 209.252149 398.69038 216.284364 395.777541 221.468522 390.593383 
C 226.652681 385.409224 229.56552 378.377009 229.56552 371.045502 
C 229.56552 363.713995 226.652681 356.68178 221.468522 351.497621 
C 216.284364 346.313463 209.252149 343.400624 201.920642 343.400624 
C 194.589134 343.400624 187.556919 346.313463 182.372761 351.497621 
C 177.188602 356.68178 174.275764 363.713995 174.275764 371.045502 
C 174.275764 378.377009 177.188602 385.409224 182.372761 390.593383 
C 187.556919 395.777541 194.589134 398.69038 201.920642 398.69038 
z
" clip-path="url(#p2e6cc61939)" style="fill-opacity: 0.133333"/>
   </g>
   <g id="patch_19">
    <path d="M 467.636392 288.627313 
C 474.9679 288.627313 482.000114 285.714474 487.184273 280.530315 
C 492.368431 275.346157 495.28127 268.313942 495.28127 260.982434 
C 495.28127 253.650927 492.368431 246.618712 487.184273 241.434554 
C 482.000114 236.250395 474.9679 233.337556 467.636392 233.337556 
C 460.304885 233.337556 453.27267 236.250395 448.088511 241.434554 
C 442.904353 246.618712 439.991514 253.650927 439.991514 260.982434 
C 439.991514 268.313942 442.904353 275.346157 448.088511 280.530315 
C 453.27267 285.714474 460.304885 288.627313 467.636392 288.627313 
z
" clip-path="url(#p2e6cc61939)" style="fill-opacity: 0.133333"/>
   </g>
   <g id="patch_20">
    <path d="M 156.331026 288.627312 
C 163.662534 288.627312 170.694748 285.714474 175.878907 280.530315 
C 181.063066 275.346157 183.975904 268.313942 183.975904 260.982434 
C 183.975904 253.650927 181.063066 246.618712 175.878907 241.434554 
C 170.694748 236.250395 163.662534 233.337556 156.331026 233.337556 
C 148.999519 233.337556 141.967304 236.250395 136.783146 241.434554 
C 131.598987 246.618712 128.686148 253.650927 128.686148 260.982434 
C 128.686148 268.313942 131.598987 275.346157 136.783146 280.530315 
C 141.967304 285.714474 148.999519 288.627312 156.331026 288.627312 
z
" clip-path="url(#p2e6cc61939)" style="fill-opacity: 0.133333"/>
   </g>
   <g id="patch_21">
    <path d="M 420.965021 177.482489 
C 428.296528 177.482489 435.328743 174.56965 440.512901 169.385491 
C 445.69706 164.201333 448.609899 157.169118 448.609899 149.837611 
C 448.609899 142.506103 445.69706 135.473889 440.512901 130.28973 
C 435.328743 125.105571 428.296528 122.192733 420.965021 122.192733 
C 413.633513 122.192733 406.601299 125.105571 401.41714 130.28973 
C 396.232981 135.473889 393.320143 142.506103 393.320143 149.837611 
C 393.320143 157.169118 396.232981 164.201333 401.41714 169.385491 
C 406.601299 174.56965 413.633513 177.482489 420.965021 177.482489 
z
" clip-path="url(#p2e6cc61939)" style="fill: #ff6b6b; stroke: #ffffff; stroke-width: 2.8; stroke-linejoin: miter"/>
   </g>
   <g id="patch_22">
    <path d="M 310.901953 131.892873 
C 318.23346 131.892873 325.265675 128.980035 330.449834 123.795876 
C 335.633992 118.611718 338.546831 111.579503 338.546831 104.247995 
C 338.546831 96.916488 335.633992 89.884273 330.449834 84.700115 
C 325.265675 79.515956 318.23346 76.603117 310.901953 76.603117 
C 303.570446 76.603117 296.538231 79.515956 291.354072 84.700115 
C 286.169914 89.884273 283.257075 96.916488 283.257075 104.247995 
C 283.257075 111.579503 286.169914 118.611718 291.354072 123.795876 
C 296.538231 128.980035 303.570446 131.892873 310.901953 131.892873 
z
" clip-path="url(#p2e6cc61939)" style="fill: #4ecdc4; stroke: #ffffff; stroke-width: 2.8; stroke-linejoin: miter"/>
   </g>
   <g id="patch_23">
    <path d="M 420.965021 397.608624 
C 428.296528 397.608624 435.328743 394.695785 440.512901 389.511627 
C 445.69706 384.327468 448.609899 377.295253 448.609899 369.963746 
C 448.609899 362.632239 445.69706 355.600024 440.512901 350.415865 
C 435.328743 345.231707 428.296528 342.318868 420.965021 342.318868 
C 413.633513 342.318868 406.601299 345.231707 401.41714 350.415865 
C 396.232981 355.600024 393.320143 362.632239 393.320143 369.963746 
C 393.320143 377.295253 396.232981 384.327468 401.41714 389.511627 
C 406.601299 394.695785 413.633513 397.608624 420.965021 397.608624 
z
" clip-path="url(#p2e6cc61939)" style="fill: #45b7d1; stroke: #ffffff; stroke-width: 2.8; stroke-linejoin: miter"/>
   </g>
   <g id="patch_24">
    <path d="M 310.901953 443.198239 
C 318.23346 443.198239 325.265675 440.285401 330.449834 435.101242 
C 335.633992 429.917083 338.546831 422.884869 338.546831 415.553361 
C 338.546831 408.221854 335.633992 401.189639 330.449834 396.005481 
C 325.265675 390.821322 318.23346 387.908483 310.901953 387.908483 
C 303.570446 387.908483 296.538231 390.821322 291.354072 396.005481 
C 286.169914 401.189639 283.257075 408.221854 283.257075 415.553361 
C 283.257075 422.884869 286.169914 429.917083 291.354072 435.101242 
C 296.538231 440.285401 303.570446 443.198239 310.901953 443.198239 
z
" clip-path="url(#p2e6cc61939)" style="fill: #911eb4; stroke: #ffffff; stroke-width: 2.8; stroke-linejoin: miter"/>
   </g>
   <g id="patch_25">
    <path d="M 200.838886 177.482489 
C 208.170393 177.482489 215.202608 174.56965 220.386766 169.385491 
C 225.570925 164.201333 228.483764 157.169118 228.483764 149.837611 
C 228.483764 142.506103 225.570925 135.473889 220.386766 130.28973 
C 215.202608 125.105571 208.170393 122.192733 200.838886 122.192733 
C 193.507378 122.192733 186.475163 125.105571 181.291005 130.28973 
C 176.106846 135.473889 173.194007 142.506103 173.194007 149.837611 
C 173.194007 157.169118 176.106846 164.201333 181.291005 169.385491 
C 186.475163 174.56965 193.507378 177.482489 200.838886 177.482489 
z
" clip-path="url(#p2e6cc61939)" style="fill: #ffa07a; stroke: #ffffff; stroke-width: 2.8; stroke-linejoin: miter"/>
   </g>
   <g id="patch_26">
    <path d="M 200.838886 397.608624 
C 208.170393 397.608624 215.202608 394.695785 220.386766 389.511627 
C 225.570925 384.327468 228.483764 377.295253 228.483764 369.963746 
C 228.483764 362.632239 225.570925 355.600024 220.386766 350.415865 
C 215.202608 345.231707 208.170393 342.318868 200.838886 342.318868 
C 193.507378 342.318868 186.475163 345.231707 181.291005 350.415865 
C 176.106846 355.600024 173.194007 362.632239 173.194007 369.963746 
C 173.194007 377.295253 176.106846 384.327468 181.291005 389.511627 
C 186.475163 394.695785 193.507378 397.608624 200.838886 397.608624 
z
" clip-path="url(#p2e6cc61939)" style="fill: #7fc97f; stroke: #ffffff; stroke-width: 2.8; stroke-linejoin: miter"/>
   </g>
   <g id="patch_27">
    <path d="M 466.554636 287.545556 
C 473.886143 287.545556 480.918358 284.632718 486.102517 279.448559 
C 491.286675 274.264401 494.199514 267.232186 494.199514 259.900678 
C 494.199514 252.569171 491.286675 245.536956 486.102517 240.352798 
C 480.918358 235.168639 473.886143 232.2558 466.554636 232.2558 
C 459.223129 232.2558 452.190914 235.168639 447.006755 240.352798 
C 441.822597 245.536956 438.909758 252.569171 438.909758 259.900678 
C 438.909758 267.232186 441.822597 274.264401 447.006755 279.448559 
C 452.190914 284.632718 459.223129 287.545556 466.554636 287.545556 
z
" clip-path="url(#p2e6cc61939)" style="fill: #fdc086; stroke: #ffffff; stroke-width: 2.8; stroke-linejoin: miter"/>
   </g>
   <g id="patch_28">
    <path d="M 155.24927 287.545556 
C 162.580778 287.545556 169.612992 284.632718 174.797151 279.448559 
C 179.98131 274.264401 182.894148 267.232186 182.894148 259.900678 
C 182.894148 252.569171 179.98131 245.536956 174.797151 240.352798 
C 169.612992 235.168639 162.580778 232.2558 155.24927 232.2558 
C 147.917763 232.2558 140.885548 235.168639 135.701389 240.352798 
C 130.517231 245.536956 127.604392 252.569171 127.604392 259.900678 
C 127.604392 267.232186 130.517231 274.264401 135.701389 279.448559 
C 140.885548 284.632718 147.917763 287.545556 155.24927 287.545556 
z
" clip-path="url(#p2e6cc61939)" style="fill: #beaed4; stroke: #ffffff; stroke-width: 2.8; stroke-linejoin: miter"/>
   </g>
   <g id="text_1">
    <!-- 8 cell types, circular layout -->
    <g transform="translate(226.384375 46.795703) scale(0.125 -0.125)">
     <defs>
      <path id="DejaVuSans-38" d="M 2034 2216 
Q 1584 2216 1326 1975 
Q 1069 1734 1069 1313 
Q 1069 891 1326 650 
Q 1584 409 2034 409 
Q 2484 409 2743 651 
Q 3003 894 3003 1313 
Q 3003 1734 2745 1975 
Q 2488 2216 2034 2216 
z
M 1403 2484 
Q 997 2584 770 2862 
Q 544 3141 544 3541 
Q 544 4100 942 4425 
Q 1341 4750 2034 4750 
Q 2731 4750 3128 4425 
Q 3525 4100 3525 3541 
Q 3525 3141 3298 2862 
Q 3072 2584 2669 2484 
Q 3125 2378 3379 2068 
Q 3634 1759 3634 1313 
Q 3634 634 3220 271 
Q 2806 -91 2034 -91 
Q 1263 -91 848 271 
Q 434 634 434 1313 
Q 434 1759 690 2068 
Q 947 2378 1403 2484 
z
M 1172 3481 
Q 1172 3119 1398 2916 
Q 1625 2713 2034 2713 
Q 2441 2713 2670 2916 
Q 2900 3119 2900 3481 
Q 2900 3844 2670 4047 
Q 2441 4250 2034 4250 
Q 1625 4250 1398 4047 
Q 1172 3844 1172 3481 
z
" transform="scale(0.015625)"/>
      <path id="DejaVuSans-20" transform="scale(0.015625)"/>
      <path id="DejaVuSans-63" d="M 3122 3366 
L 3122 2828 
Q 2878 2963 2633 3030 
Q 2388 3097 2138 3097 
Q 1578 3097 1268 2742 
Q 959 2388 959 1747 
Q 959 1106 1268 751 
Q 1578 397 2138 397 
Q 2388 397 2633 464 
Q 2878 531 3122 666 
L 3122 134 
Q 2881 22 2623 -34 
Q 2366 -91 2075 -91 
Q 1284 -91 818 406 
Q 353 903 353 1747 
Q 353 2603 823 3093 
Q 1294 3584 2113 3584 
Q 2378 3584 2631 3529 
Q 2884 3475 3122 3366 
z
" transform="scale(0.015625)"/>
      <path id="DejaVuSans-65" d="M 3597 1894 
L 3597 1613 
L 953 1613 
Q 991 1019 1311 708 
Q 1631 397 2203 397 
Q 2534 397 2845 478 
Q 3156 559 3463 722 
L 3463 178 
Q 3153 47 2828 -22 
Q 2503 -91 2169 -91 
Q 1331 -91 842 396 
Q 353 884 353 1716 
Q 353 2575 817 3079 
Q 1281 3584 2069 3584 
Q 2775 3584 3186 3129 
Q 3597 2675 3597 1894 
z
M 3022 2063 
Q 3016 2534 2758 2815 
Q 2500 3097 2075 3097 
Q 1594 3097 1305 2825 
Q 1016 2553 972 2059 
L 3022 2063 
z
" transform="scale(0.015625)"/>
      <path id="DejaVuSans-6c" d="M 603 4863 
L 1178 4863 
L 1178 0 
L 603 0 
L 603 4863 
z
" transform="scale(0.015625)"/>
      <path id="DejaVuSans-74" d="M 1172 4494 
L 1172 3500 
L 2356 3500 
L 2356 3053 
L 1172 3053 
L 1172 1153 
Q 1172 725 1289 603 
Q 1406 481 1766 481 
L 2356 481 
L 2356 0 
L 1766 0 
Q 1100 0 847 248 
Q 594 497 594 1153 
L 594 3053 
L 172 3053 
L 172 3500 
L 594 3500 
L 594 4494 
L 1172 4494 
z
" transform="scale(0.015625)"/>
      <path id="DejaVuSans-79" d="M 2059 -325 
Q 1816 -950 1584 -1140 
Q 1353 -1331 966 -1331 
L 506 -1331 
L 506 -850 
L 844 -850 
Q 1081 -850 1212 -737 
Q 1344 -625 1503 -206 
L 1606 56 
L 191 3500 
L 800 3500 
L 1894 763 
L 2988 3500 
L 3597 3500 
L 2059 -325 
z
" transform="scale(0.015625)"/>
      <path id="DejaVuSans-70" d="M 1159 525 
L 1159 -1331 
L 581 -1331 
L 581 3500 
L 1159 3500 
L 1159 2969 
Q 1341 3281 1617 3432 
Q 1894 3584 2278 3584 
Q 2916 3584 3314 3078 
Q 3713 2572 3713 1747 
Q 3713 922 3314 415 
Q 2916 -91 2278 -91 
Q 1894 -91 1617 61 
Q 1341 213 1159 525 
z
M 3116 1747 
Q 3116 2381 2855 2742 
Q 2594 3103 2138 3103 
Q 1681 3103 1420 2742 
Q 1159 2381 1159 1747 
Q 1159 1113 1420 752 
Q 1681 391 2138 391 
Q 2594 391 2855 752 
Q 3116 1113 3116 1747 
z
" transform="scale(0.015625)"/>
      <path id="DejaVuSans-73" d="M 2834 3397 
L 2834 2853 
Q 2591 2978 2328 3040 
Q 2066 3103 1784 3103 
Q 1356 3103 1142 2972 
Q 928 2841 928 2578 
Q 928 2378 1081 2264 
Q 1234 2150 1697 2047 
L 1894 2003 
Q 2506 1872 2764 1633 
Q 3022 1394 3022 966 
Q 3022 478 2636 193 
Q 2250 -91 1575 -91 
Q 1294 -91 989 -36 
Q 684 19 347 128 
L 347 722 
Q 666 556 975 473 
Q 1284 391 1588 391 
Q 1994 391 2212 530 
Q 2431 669 2431 922 
Q 2431 1156 2273 1281 
Q 2116 1406 1581 1522 
L 1381 1569 
Q 847 1681 609 1914 
Q 372 2147 372 2553 
Q 372 3047 722 3315 
Q 1072 3584 1716 3584 
Q 2034 3584 2315 3537 
Q 2597 3491 2834 3397 
z
" transform="scale(0.015625)"/>
      <path id="DejaVuSans-2c" d="M 750 794 
L 1409 794 
L 1409 256 
L 897 -744 
L 494 -744 
L 750 256 
L 750 794 
z
" transform="scale(0.015625)"/>
      <path id="DejaVuSans-69" d="M 603 3500 
L 1178 3500 
L 1178 0 
L 603 0 
L 603 3500 
z
M 603 4863 
L 1178 4863 
L 1178 4134 
L 603 4134 
L 603 4863 
z
" transform="scale(0.015625)"/>
      <path id="DejaVuSans-72" d="M 2631 2963 
Q 2534 3019 2420 3045 
Q 2306 3072 2169 3072 
Q 1681 3072 1420 2755 
Q 1159 2438 1159 1844 
L 1159 0 
L 581 0 
L 581 3500 
L 1159 3500 
L 1159 2956 
Q 1341 3275 1631 3429 
Q 1922 3584 2338 3584 
Q 2397 3584 2469 3576 
Q 2541 3569 2628 3553 
L 2631 2963 
z
" transform="scale(0.015625)"/>
      <path id="DejaVuSans-75" d="M 544 1381 
L 544 3500 
L 1119 3500 
L 1119 1403 
Q 1119 906 1312 657 
Q 1506 409 1894 409 
Q 2359 409 2629 706 
Q 2900 1003 2900 1516 
L 2900 3500 
L 3475 3500 
L 3475 0 
L 2900 0 
L 2900 538 
Q 2691 219 2414 64 
Q 2138 -91 1772 -91 
Q 1169 -91 856 284 
Q 544 659 544 1381 
z
M 1991 3584 
L 1991 3584 
z
" transform="scale(0.015625)"/>
      <path id="DejaVuSans-61" d="M 2194 1759 
Q 1497 1759 1228 1600 
Q 959 1441 959 1056 
Q 959 750 1161 570 
Q 1363 391 1709 391 
Q 2188 391 2477 730 
Q 2766 1069 2766 1631 
L 2766 1759 
L 2194 1759 
z
M 3341 1997 
L 3341 0 
L 2766 0 
L 2766 531 
Q 2569 213 2275 61 
Q 1981 -91 1556 -91 
Q 1019 -91 701 211 
Q 384 513 384 1019 
Q 384 1609 779 1909 
Q 1175 2209 1959 2209 
L 2766 2209 
L 2766 2266 
Q 2766 2663 2505 2880 
Q 2244 3097 1772 3097 
Q 1472 3097 1187 3025 
Q 903 2953 641 2809 
L 641 3341 
Q 956 3463 1253 3523 
Q 1550 3584 1831 3584 
Q 2591 3584 2966 3190 
Q 3341 2797 3341 1997 
z
" transform="scale(0.015625)"/>
      <path id="DejaVuSans-6f" d="M 1959 3097 
Q 1497 3097 1228 2736 
Q 959 2375 959 1747 
Q 959 1119 1226 758 
Q 1494 397 1959 397 
Q 2419 397 2687 759 
Q 2956 1122 2956 1747 
Q 2956 2369 2687 2733 
Q 2419 3097 1959 3097 
z
M 1959 3584 
Q 2709 3584 3137 3096 
Q 3566 2609 3566 1747 
Q 3566 888 3137 398 
Q 2709 -91 1959 -91 
Q 1206 -91 779 398 
Q 353 888 353 1747 
Q 353 2609 779 3096 
Q 1206 3584 1959 3584 
z
" transform="scale(0.015625)"/>
     </defs>
     <use xlink:href="#DejaVuSans-38"/>
     <use xlink:href="#DejaVuSans-20" transform="translate(63.623047 0)"/>
     <use xlink:href="#DejaVuSans-63" transform="translate(95.410156 0)"/>
     <use xlink:href="#DejaVuSans-65" transform="translate(150.390625 0)"/>
     <use xlink:href="#DejaVuSans-6c" transform="translate(211.914062 0)"/>
     <use xlink:href="#DejaVuSans-6c" transform="translate(239.697266 0)"/>
     <use xlink:href="#DejaVuSans-20" transform="translate(267.480469 0)"/>
     <use xlink:href="#DejaVuSans-74" transform="translate(299.267578 0)"/>
     <use xlink:href="#DejaVuSans-79" transform="translate(338.476562 0)"/>
     <use xlink:href="#DejaVuSans-70" transform="translate(397.65625 0)"/>
     <use xlink:href="#DejaVuSans-65" transform="translate(461.132812 0)"/>
     <use xlink:href="#DejaVuSans-73" transform="translate(522.65625 0)"/>
     <use xlink:href="#DejaVuSans-2c" transform="translate(574.755859 0)"/>
     <use xlink:href="#DejaVuSans-20" transform="translate(606.542969 0)"/>
     <use xlink:href="#DejaVuSans-63" transform="translate(638.330078 0)"/>
     <use xlink:href="#DejaVuSans-69" transform="translate(693.310547 0)"/>
     <use xlink:href="#DejaVuSans-72" transform="translate(721.09375 0)"/>
     <use xlink:href="#DejaVuSans-63" transform="translate(759.957031 0)"/>
     <use xlink:href="#DejaVuSans-75" transform="translate(814.9375 0)"/>
     <use xlink:href="#DejaVuSans-6c" transform="translate(878.316406 0)"/>
     <use xlink:href="#DejaVuSans-61" transform="translate(906.099609 0)"/>
     <use xlink:href="#DejaVuSans-72" transform="translate(967.378906 0)"/>
     <use xlink:href="#DejaVuSans-20" transform="translate(1008.492188 0)"/>
     <use xlink:href="#DejaVuSans-6c" transform="translate(1040.279297 0)"/>
     <use xlink:href="#DejaVuSans-61" transform="translate(1068.0625 0)"/>
     <use xlink:href="#DejaVuSans-79" transform="translate(1129.341797 0)"/>
     <use xlink:href="#DejaVuSans-6f" transform="translate(1188.521484 0)"/>
     <use xlink:href="#DejaVuSans-75" transform="translate(1249.703125 0)"/>
     <use xlink:href="#DejaVuSans-74" transform="translate(1313.082031 0)"/>
    </g>
   </g>
   <g id="text_2">
    <!-- Cell Communication -->
    <g transform="translate(170.841406 26.196094) scale(0.25 -0.25)">
     <defs>
      <path id="DejaVuSans-Bold-43" d="M 4288 256 
Q 3956 84 3597 -3 
Q 3238 -91 2847 -91 
Q 1681 -91 1000 561 
Q 319 1213 319 2328 
Q 319 3447 1000 4098 
Q 1681 4750 2847 4750 
Q 3238 4750 3597 4662 
Q 3956 4575 4288 4403 
L 4288 3438 
Q 3953 3666 3628 3772 
Q 3303 3878 2944 3878 
Q 2300 3878 1931 3465 
Q 1563 3053 1563 2328 
Q 1563 1606 1931 1193 
Q 2300 781 2944 781 
Q 3303 781 3628 887 
Q 3953 994 4288 1222 
L 4288 256 
z
" transform="scale(0.015625)"/>
      <path id="DejaVuSans-Bold-65" d="M 4031 1759 
L 4031 1441 
L 1416 1441 
Q 1456 1047 1700 850 
Q 1944 653 2381 653 
Q 2734 653 3104 758 
Q 3475 863 3866 1075 
L 3866 213 
Q 3469 63 3072 -14 
Q 2675 -91 2278 -91 
Q 1328 -91 801 392 
Q 275 875 275 1747 
Q 275 2603 792 3093 
Q 1309 3584 2216 3584 
Q 3041 3584 3536 3087 
Q 4031 2591 4031 1759 
z
M 2881 2131 
Q 2881 2450 2695 2645 
Q 2509 2841 2209 2841 
Q 1884 2841 1681 2658 
Q 1478 2475 1428 2131 
L 2881 2131 
z
" transform="scale(0.015625)"/>
      <path id="DejaVuSans-Bold-6c" d="M 538 4863 
L 1656 4863 
L 1656 0 
L 538 0 
L 538 4863 
z
" transform="scale(0.015625)"/>
      <path id="DejaVuSans-Bold-20" transform="scale(0.015625)"/>
      <path id="DejaVuSans-Bold-6f" d="M 2203 2784 
Q 1831 2784 1636 2517 
Q 1441 2250 1441 1747 
Q 1441 1244 1636 976 
Q 1831 709 2203 709 
Q 2569 709 2762 976 
Q 2956 1244 2956 1747 
Q 2956 2250 2762 2517 
Q 2569 2784 2203 2784 
z
M 2203 3584 
Q 3106 3584 3614 3096 
Q 4122 2609 4122 1747 
Q 4122 884 3614 396 
Q 3106 -91 2203 -91 
Q 1297 -91 786 396 
Q 275 884 275 1747 
Q 275 2609 786 3096 
Q 1297 3584 2203 3584 
z
" transform="scale(0.015625)"/>
      <path id="DejaVuSans-Bold-6d" d="M 3781 2919 
Q 3994 3244 4286 3414 
Q 4578 3584 4928 3584 
Q 5531 3584 5847 3212 
Q 6163 2841 6163 2131 
L 6163 0 
L 5038 0 
L 5038 1825 
Q 5041 1866 5042 1909 
Q 5044 1953 5044 2034 
Q 5044 2406 4934 2573 
Q 4825 2741 4581 2741 
Q 4263 2741 4089 2478 
Q 3916 2216 3909 1719 
L 3909 0 
L 2784 0 
L 2784 1825 
Q 2784 2406 2684 2573 
Q 2584 2741 2328 2741 
Q 2006 2741 1831 2477 
Q 1656 2213 1656 1722 
L 1656 0 
L 531 0 
L 531 3500 
L 1656 3500 
L 1656 2988 
Q 1863 3284 2130 3434 
Q 2397 3584 2719 3584 
Q 3081 3584 3359 3409 
Q 3638 3234 3781 2919 
z
" transform="scale(0.015625)"/>
      <path id="DejaVuSans-Bold-75" d="M 500 1363 
L 500 3500 
L 1625 3500 
L 1625 3150 
Q 1625 2866 1622 2436 
Q 1619 2006 1619 1863 
Q 1619 1441 1641 1255 
Q 1663 1069 1716 984 
Q 1784 875 1895 815 
Q 2006 756 2150 756 
Q 2500 756 2700 1025 
Q 2900 1294 2900 1772 
L 2900 3500 
L 4019 3500 
L 4019 0 
L 2900 0 
L 2900 506 
Q 2647 200 2364 54 
Q 2081 -91 1741 -91 
Q 1134 -91 817 281 
Q 500 653 500 1363 
z
" transform="scale(0.015625)"/>
      <path id="DejaVuSans-Bold-6e" d="M 4056 2131 
L 4056 0 
L 2931 0 
L 2931 347 
L 2931 1631 
Q 2931 2084 2911 2256 
Q 2891 2428 2841 2509 
Q 2775 2619 2662 2680 
Q 2550 2741 2406 2741 
Q 2056 2741 1856 2470 
Q 1656 2200 1656 1722 
L 1656 0 
L 538 0 
L 538 3500 
L 1656 3500 
L 1656 2988 
Q 1909 3294 2193 3439 
Q 2478 3584 2822 3584 
Q 3428 3584 3742 3212 
Q 4056 2841 4056 2131 
z
" transform="scale(0.015625)"/>
      <path id="DejaVuSans-Bold-69" d="M 538 3500 
L 1656 3500 
L 1656 0 
L 538 0 
L 538 3500 
z
M 538 4863 
L 1656 4863 
L 1656 3950 
L 538 3950 
L 538 4863 
z
" transform="scale(0.015625)"/>
      <path id="DejaVuSans-Bold-63" d="M 3366 3391 
L 3366 2478 
Q 3138 2634 2908 2709 
Q 2678 2784 2431 2784 
Q 1963 2784 1702 2511 
Q 1441 2238 1441 1747 
Q 1441 1256 1702 982 
Q 1963 709 2431 709 
Q 2694 709 2930 787 
Q 3166 866 3366 1019 
L 3366 103 
Q 3103 6 2833 -42 
Q 2563 -91 2291 -91 
Q 1344 -91 809 395 
Q 275 881 275 1747 
Q 275 2613 809 3098 
Q 1344 3584 2291 3584 
Q 2566 3584 2833 3536 
Q 3100 3488 3366 3391 
z
" transform="scale(0.015625)"/>
      <path id="DejaVuSans-Bold-61" d="M 2106 1575 
Q 1756 1575 1579 1456 
Q 1403 1338 1403 1106 
Q 1403 894 1545 773 
Q 1688 653 1941 653 
Q 2256 653 2472 879 
Q 2688 1106 2688 1447 
L 2688 1575 
L 2106 1575 
z
M 3816 1997 
L 3816 0 
L 2688 0 
L 2688 519 
Q 2463 200 2181 54 
Q 1900 -91 1497 -91 
Q 953 -91 614 226 
Q 275 544 275 1050 
Q 275 1666 698 1953 
Q 1122 2241 2028 2241 
L 2688 2241 
L 2688 2328 
Q 2688 2594 2478 2717 
Q 2269 2841 1825 2841 
Q 1466 2841 1156 2769 
Q 847 2697 581 2553 
L 581 3406 
Q 941 3494 1303 3539 
Q 1666 3584 2028 3584 
Q 2975 3584 3395 3211 
Q 3816 2838 3816 1997 
z
" transform="scale(0.015625)"/>
      <path id="DejaVuSans-Bold-74" d="M 1759 4494 
L 1759 3500 
L 2913 3500 
L 2913 2700 
L 1759 2700 
L 1759 1216 
Q 1759 972 1856 886 
Q 1953 800 2241 800 
L 2816 800 
L 2816 0 
L 1856 0 
Q 1194 0 917 276 
Q 641 553 641 1216 
L 641 2700 
L 84 2700 
L 84 3500 
L 641 3500 
L 641 4494 
L 1759 4494 
z
" transform="scale(0.015625)"/>
     </defs>
     <use xlink:href="#DejaVuSans-Bold-43"/>
     <use xlink:href="#DejaVuSans-Bold-65" transform="translate(73.388672 0)"/>
     <use xlink:href="#DejaVuSans-Bold-6c" transform="translate(141.210938 0)"/>
     <use xlink:href="#DejaVuSans-Bold-6c" transform="translate(175.488281 0)"/>
     <use xlink:href="#DejaVuSans-Bold-20" transform="translate(209.765625 0)"/>
     <use xlink:href="#DejaVuSans-Bold-43" transform="translate(244.580078 0)"/>
     <use xlink:href="#DejaVuSans-Bold-6f" transform="translate(317.96875 0)"/>
     <use xlink:href="#DejaVuSans-Bold-6d" transform="translate(386.669922 0)"/>
     <use xlink:href="#DejaVuSans-Bold-6d" transform="translate(490.869141 0)"/>
     <use xlink:href="#DejaVuSans-Bold-75" transform="translate(595.068359 0)"/>
     <use xlink:href="#DejaVuSans-Bold-6e" transform="translate(666.259766 0)"/>
     <use xlink:href="#DejaVuSans-Bold-69" transform="translate(737.451172 0)"/>
     <use xlink:href="#DejaVuSans-Bold-63" transform="translate(771.728516 0)"/>
     <use xlink:href="#DejaVuSans-Bold-61" transform="translate(831.005859 0)"/>
     <use xlink:href="#DejaVuSans-Bold-74" transform="translate(898.486328 0)"/>
     <use xlink:href="#DejaVuSans-Bold-69" transform="translate(946.289062 0)"/>
     <use xlink:href="#DejaVuSans-Bold-6f" transform="translate(980.566406 0)"/>
     <use xlink:href="#DejaVuSans-Bold-6e" transform="translate(1049.267578 0)"/>
    </g>
   </g>
   <g id="patch_29">
    <path d="M 302.60849 445.420466 
C 299.95686 446.951385 297.780197 449.187029 296.320703 451.878632 
C 294.861208 454.570235 294.175102 457.614119 294.338729 460.671581 
C 294.502355 463.729044 295.509411 466.682314 297.24784 469.202774 
C 298.986268 471.723233 301.389106 473.713796 304.188982 474.952966 
C 306.988859 476.192137 310.077924 476.632183 313.112451 476.224139 
C 316.146978 475.816096 319.010077 474.575681 321.383164 472.640918 
C 323.756252 470.706155 325.547917 468.151571 326.558798 465.26142 
C 327.569678 462.371269 327.760835 459.256879 327.110998 456.264796 
" clip-path="url(#p2e6cc61939)" style="fill: none; opacity: 0.45; stroke: #999999; stroke-width: 0.96; stroke-linejoin: miter"/>
   </g>
   <g id="patch_30">
    <path d="M 413.224455 153.707894 
C 416.303688 153.707894 419.257218 152.484501 421.434565 150.307155 
C 423.611911 148.129808 424.835304 145.176278 424.835304 142.097045 
C 424.835304 139.017812 423.611911 136.064282 421.434565 133.886935 
C 419.257218 131.709588 416.303688 130.486196 413.224455 130.486196 
C 410.145222 130.486196 407.191692 131.709588 405.014345 133.886935 
C 402.836998 136.064282 401.613606 139.017812 401.613606 142.097045 
C 401.613606 145.176278 402.836998 148.129808 405.014345 150.307155 
C 407.191692 152.484501 410.145222 153.707894 413.224455 153.707894 
z
" clip-path="url(#p2e6cc61939)" style="fill: #ffffff; opacity: 0.22"/>
   </g>
   <g id="patch_31">
    <path d="M 303.161387 108.118278 
C 306.24062 108.118278 309.194151 106.894886 311.371497 104.717539 
C 313.548844 102.540193 314.772236 99.586663 314.772236 96.50743 
C 314.772236 93.428196 313.548844 90.474666 311.371497 88.29732 
C 309.194151 86.119973 306.24062 84.896581 303.161387 84.896581 
C 300.082154 84.896581 297.128624 86.119973 294.951277 88.29732 
C 292.773931 90.474666 291.550538 93.428196 291.550538 96.50743 
C 291.550538 99.586663 292.773931 102.540193 294.951277 104.717539 
C 297.128624 106.894886 300.082154 108.118278 303.161387 108.118278 
z
" clip-path="url(#p2e6cc61939)" style="fill: #ffffff; opacity: 0.22"/>
   </g>
   <g id="patch_32">
    <path d="M 413.224455 373.834029 
C 416.303688 373.834029 419.257218 372.610637 421.434565 370.43329 
C 423.611911 368.255943 424.835304 365.302413 424.835304 362.22318 
C 424.835304 359.143947 423.611911 356.190417 421.434565 354.01307 
C 419.257218 351.835724 416.303688 350.612331 413.224455 350.612331 
C 410.145222 350.612331 407.191692 351.835724 405.014345 354.01307 
C 402.836998 356.190417 401.613606 359.143947 401.613606 362.22318 
C 401.613606 365.302413 402.836998 368.255943 405.014345 370.43329 
C 407.191692 372.610637 410.145222 373.834029 413.224455 373.834029 
z
" clip-path="url(#p2e6cc61939)" style="fill: #ffffff; opacity: 0.22"/>
   </g>
   <g id="patch_33">
    <path d="M 303.161387 419.423644 
C 306.24062 419.423644 309.194151 418.200252 311.371497 416.022905 
C 313.548844 413.845559 314.772236 410.892029 314.772236 407.812795 
C 314.772236 404.733562 313.548844 401.780032 311.371497 399.602686 
C 309.194151 397.425339 306.24062 396.201947 303.161387 396.201947 
C 300.082154 396.201947 297.128624 397.425339 294.951277 399.602686 
C 292.773931 401.780032 291.550538 404.733562 291.550538 407.812795 
C 291.550538 410.892029 292.773931 413.845559 294.951277 416.022905 
C 297.128624 418.200252 300.082154 419.423644 303.161387 419.423644 
z
" clip-path="url(#p2e6cc61939)" style="fill: #ffffff; opacity: 0.22"/>
   </g>
   <g id="patch_34">
    <path d="M 193.09832 153.707894 
C 196.177553 153.707894 199.131083 152.484501 201.30843 150.307155 
C 203.485776 148.129808 204.709168 145.176278 204.709168 142.097045 
C 204.709168 139.017812 203.485776 136.064282 201.30843 133.886935 
C 199.131083 131.709588 196.177553 130.486196 193.09832 130.486196 
C 190.019087 130.486196 187.065556 131.709588 184.88821 133.886935 
C 182.710863 136.064282 181.487471 139.017812 181.487471 142.097045 
C 181.487471 145.176278 182.710863 148.129808 184.88821 150.307155 
C 187.065556 152.484501 190.019087 153.707894 193.09832 153.707894 
z
" clip-path="url(#p2e6cc61939)" style="fill: #ffffff; opacity: 0.22"/>
   </g>
   <g id="patch_35">
    <path d="M 193.09832 373.834029 
C 196.177553 373.834029 199.131083 372.610637 201.30843 370.43329 
C 203.485776 368.255943 204.709168 365.302413 204.709168 362.22318 
C 204.709168 359.143947 203.485776 356.190417 201.30843 354.01307 
C 199.131083 351.835724 196.177553 350.612331 193.09832 350.612331 
C 190.019087 350.612331 187.065556 351.835724 184.88821 354.01307 
C 182.710863 356.190417 181.487471 359.143947 181.487471 362.22318 
C 181.487471 365.302413 182.710863 368.255943 184.88821 370.43329 
C 187.065556 372.610637 190.019087 373.834029 193.09832 373.834029 
z
" clip-path="url(#p2e6cc61939)" style="fill: #ffffff; opacity: 0.22"/>
   </g>
   <g id="patch_36">
    <path d="M 458.81407 263.770961 
C 461.893303 263.770961 464.846834 262.547569 467.02418 260.370222 
C 469.201527 258.192876 470.424919 255.239346 470.424919 252.160113 
C 470.424919 249.080879 469.201527 246.127349 467.02418 243.950003 
C 464.846834 241.772656 461.893303 240.549264 458.81407 240.549264 
C 455.734837 240.549264 452.781307 241.772656 450.60396 243.950003 
C 448.426614 246.127349 447.203221 249.080879 447.203221 252.160113 
C 447.203221 255.239346 448.426614 258.192876 450.60396 260.370222 
C 452.781307 262.547569 455.734837 263.770961 458.81407 263.770961 
z
" clip-path="url(#p2e6cc61939)" style="fill: #ffffff; opacity: 0.22"/>
   </g>
   <g id="patch_37">
    <path d="M 147.508704 263.770961 
C 150.587937 263.770961 153.541468 262.547569 155.718814 260.370222 
C 157.896161 258.192876 159.119553 255.239346 159.119553 252.160112 
C 159.119553 249.080879 157.896161 246.127349 155.718814 243.950003 
C 153.541468 241.772656 150.587937 240.549264 147.508704 240.549264 
C 144.429471 240.549264 141.475941 241.772656 139.298594 243.950003 
C 137.121248 246.127349 135.897856 249.080879 135.897856 252.160112 
C 135.897856 255.239346 137.121248 258.192876 139.298594 260.370222 
C 141.475941 262.547569 144.429471 263.770961 147.508704 263.770961 
z
" clip-path="url(#p2e6cc61939)" style="fill: #ffffff; opacity: 0.22"/>
   </g>
   <g id="patch_38">
    <path d="M 437.58051 257.87461 
L 423.513273 254.57763 
L 427.735101 247.299868 
z
" clip-path="url(#p2e6cc61939)" style="fill: #999999; opacity: 0.45"/>
   </g>
   <g id="patch_39">
    <path d="M 219.89404 348.043298 
L 215.057605 334.428375 
L 223.462408 334.042442 
z
" clip-path="url(#p2e6cc61939)" style="fill: #999999; opacity: 0.45"/>
   </g>
   <g id="patch_40">
    <path d="M 324.177356 442.757258 
L 331.221988 455.371948 
L 323.000008 457.157643 
z
" clip-path="url(#p2e6cc61939)" style="fill: #999999; opacity: 0.45"/>
   </g>
   <g id="patch_41">
    <path d="M 222.759333 350.908591 
L 235.200972 343.562651 
L 237.183866 351.739312 
z
" clip-path="url(#p2e6cc61939)" style="fill: #49a62d; opacity: 0.6"/>
   </g>
   <g id="patch_42">
    <path d="M 397.76875 167.317255 
L 386.344003 158.472347 
L 393.208511 153.607351 
z
" clip-path="url(#p2e6cc61939)" style="fill: #49a62d; opacity: 0.6"/>
   </g>
   <g id="patch_43">
    <path d="M 219.89404 171.758058 
L 227.782588 183.862935 
L 219.701536 186.20521 
z
" clip-path="url(#p2e6cc61939)" style="fill: #49a62d; opacity: 0.6"/>
   </g>
   <g id="patch_44">
    <path d="M 400.427191 170.375441 
L 386.102853 172.265042 
L 387.478863 163.964666 
z
" clip-path="url(#p2e6cc61939)" style="fill: #1a6fa8; opacity: 0.74"/>
   </g>
   <g id="patch_45">
    <path d="M 401.909866 348.043298 
L 394.906248 335.405792 
L 403.133984 333.646814 
z
" clip-path="url(#p2e6cc61939)" style="fill: #1a6fa8; opacity: 0.74"/>
   </g>
   <g id="patch_46">
    <path d="M 314.944219 386.791146 
L 323.538798 375.176911 
L 328.551799 381.93409 
z
" clip-path="url(#p2e6cc61939)" style="fill: #1a6fa8; opacity: 0.74"/>
   </g>
   <g id="patch_47">
    <path d="M 403.485377 173.033882 
L 400.052545 187.068585 
L 392.815941 182.77659 
z
" clip-path="url(#p2e6cc61939)" style="fill: #7b2d8b; opacity: 0.88"/>
   </g>
   <g id="patch_48">
    <path d="M 314.944219 133.010211 
L 327.580951 126.005196 
L 329.340839 134.232738 
z
" clip-path="url(#p2e6cc61939)" style="fill: #7b2d8b; opacity: 0.88"/>
   </g>
   <g id="text_3">
    <!-- T cell -->
    <g transform="translate(443.912533 124.394474) scale(0.12 -0.12)">
     <defs>
      <path id="DejaVuSans-Bold-54" d="M 31 4666 
L 4331 4666 
L 4331 3756 
L 2784 3756 
L 2784 0 
L 1581 0 
L 1581 3756 
L 31 3756 
L 31 4666 
z
" transform="scale(0.015625)"/>
     </defs>
     <use xlink:href="#DejaVuSans-Bold-54"/>
     <use xlink:href="#DejaVuSans-Bold-20" transform="translate(68.212891 0)"/>
     <use xlink:href="#DejaVuSans-Bold-63" transform="translate(103.027344 0)"/>
     <use xlink:href="#DejaVuSans-Bold-65" transform="translate(162.304688 0)"/>
     <use xlink:href="#DejaVuSans-Bold-6c" transform="translate(230.126953 0)"/>
     <use xlink:href="#DejaVuSans-Bold-6c" transform="translate(264.404297 0)"/>
    </g>
   </g>
   <g id="text_4">
    <!-- B cell -->
    <g transform="translate(292.499766 69.299687) scale(0.12 -0.12)">
     <defs>
      <path id="DejaVuSans-Bold-42" d="M 2456 2859 
Q 2741 2859 2887 2984 
Q 3034 3109 3034 3353 
Q 3034 3594 2887 3720 
Q 2741 3847 2456 3847 
L 1791 3847 
L 1791 2859 
L 2456 2859 
z
M 2497 819 
Q 2859 819 3042 972 
Q 3225 1125 3225 1434 
Q 3225 1738 3044 1889 
Q 2863 2041 2497 2041 
L 1791 2041 
L 1791 819 
L 2497 819 
z
M 3616 2497 
Q 4003 2384 4215 2081 
Q 4428 1778 4428 1338 
Q 4428 663 3972 331 
Q 3516 0 2584 0 
L 588 0 
L 588 4666 
L 2394 4666 
Q 3366 4666 3802 4372 
Q 4238 4078 4238 3431 
Q 4238 3091 4078 2852 
Q 3919 2613 3616 2497 
z
" transform="scale(0.015625)"/>
     </defs>
     <use xlink:href="#DejaVuSans-Bold-42"/>
     <use xlink:href="#DejaVuSans-Bold-20" transform="translate(76.220703 0)"/>
     <use xlink:href="#DejaVuSans-Bold-63" transform="translate(111.035156 0)"/>
     <use xlink:href="#DejaVuSans-Bold-65" transform="translate(170.3125 0)"/>
     <use xlink:href="#DejaVuSans-Bold-6c" transform="translate(238.134766 0)"/>
     <use xlink:href="#DejaVuSans-Bold-6c" transform="translate(272.412109 0)"/>
    </g>
   </g>
   <g id="text_5">
    <!-- NK cell -->
    <g transform="translate(443.912533 402.029383) scale(0.12 -0.12)">
     <defs>
      <path id="DejaVuSans-Bold-4e" d="M 588 4666 
L 1931 4666 
L 3628 1466 
L 3628 4666 
L 4769 4666 
L 4769 0 
L 3425 0 
L 1728 3200 
L 1728 0 
L 588 0 
L 588 4666 
z
" transform="scale(0.015625)"/>
      <path id="DejaVuSans-Bold-4b" d="M 588 4666 
L 1791 4666 
L 1791 2963 
L 3525 4666 
L 4922 4666 
L 2675 2456 
L 5153 0 
L 3647 0 
L 1791 1838 
L 1791 0 
L 588 0 
L 588 4666 
z
" transform="scale(0.015625)"/>
     </defs>
     <use xlink:href="#DejaVuSans-Bold-4e"/>
     <use xlink:href="#DejaVuSans-Bold-4b" transform="translate(83.691406 0)"/>
     <use xlink:href="#DejaVuSans-Bold-20" transform="translate(161.181641 0)"/>
     <use xlink:href="#DejaVuSans-Bold-63" transform="translate(195.996094 0)"/>
     <use xlink:href="#DejaVuSans-Bold-65" transform="translate(255.273438 0)"/>
     <use xlink:href="#DejaVuSans-Bold-6c" transform="translate(323.095703 0)"/>
     <use xlink:href="#DejaVuSans-Bold-6c" transform="translate(357.373047 0)"/>
    </g>
   </g>
   <g id="text_6">
    <!-- Macrophage -->
    <g transform="translate(269.264766 457.124169) scale(0.12 -0.12)">
     <defs>
      <path id="DejaVuSans-Bold-4d" d="M 588 4666 
L 2119 4666 
L 3181 2169 
L 4250 4666 
L 5778 4666 
L 5778 0 
L 4641 0 
L 4641 3413 
L 3566 897 
L 2803 897 
L 1728 3413 
L 1728 0 
L 588 0 
L 588 4666 
z
" transform="scale(0.015625)"/>
      <path id="DejaVuSans-Bold-72" d="M 3138 2547 
Q 2991 2616 2845 2648 
Q 2700 2681 2553 2681 
Q 2122 2681 1889 2404 
Q 1656 2128 1656 1613 
L 1656 0 
L 538 0 
L 538 3500 
L 1656 3500 
L 1656 2925 
Q 1872 3269 2151 3426 
Q 2431 3584 2822 3584 
Q 2878 3584 2943 3579 
Q 3009 3575 3134 3559 
L 3138 2547 
z
" transform="scale(0.015625)"/>
      <path id="DejaVuSans-Bold-70" d="M 1656 506 
L 1656 -1331 
L 538 -1331 
L 538 3500 
L 1656 3500 
L 1656 2988 
Q 1888 3294 2169 3439 
Q 2450 3584 2816 3584 
Q 3463 3584 3878 3070 
Q 4294 2556 4294 1747 
Q 4294 938 3878 423 
Q 3463 -91 2816 -91 
Q 2450 -91 2169 54 
Q 1888 200 1656 506 
z
M 2400 2772 
Q 2041 2772 1848 2508 
Q 1656 2244 1656 1747 
Q 1656 1250 1848 986 
Q 2041 722 2400 722 
Q 2759 722 2948 984 
Q 3138 1247 3138 1747 
Q 3138 2247 2948 2509 
Q 2759 2772 2400 2772 
z
" transform="scale(0.015625)"/>
      <path id="DejaVuSans-Bold-68" d="M 4056 2131 
L 4056 0 
L 2931 0 
L 2931 347 
L 2931 1625 
Q 2931 2084 2911 2256 
Q 2891 2428 2841 2509 
Q 2775 2619 2662 2680 
Q 2550 2741 2406 2741 
Q 2056 2741 1856 2470 
Q 1656 2200 1656 1722 
L 1656 0 
L 538 0 
L 538 4863 
L 1656 4863 
L 1656 2988 
Q 1909 3294 2193 3439 
Q 2478 3584 2822 3584 
Q 3428 3584 3742 3212 
Q 4056 2841 4056 2131 
z
" transform="scale(0.015625)"/>
      <path id="DejaVuSans-Bold-67" d="M 2919 594 
Q 2688 288 2409 144 
Q 2131 0 1766 0 
Q 1125 0 706 504 
Q 288 1009 288 1791 
Q 288 2575 706 3076 
Q 1125 3578 1766 3578 
Q 2131 3578 2409 3434 
Q 2688 3291 2919 2981 
L 2919 3500 
L 4044 3500 
L 4044 353 
Q 4044 -491 3511 -936 
Q 2978 -1381 1966 -1381 
Q 1638 -1381 1331 -1331 
Q 1025 -1281 716 -1178 
L 716 -306 
Q 1009 -475 1290 -558 
Q 1572 -641 1856 -641 
Q 2406 -641 2662 -400 
Q 2919 -159 2919 353 
L 2919 594 
z
M 2181 2772 
Q 1834 2772 1640 2515 
Q 1447 2259 1447 1791 
Q 1447 1309 1634 1061 
Q 1822 813 2181 813 
Q 2531 813 2725 1069 
Q 2919 1325 2919 1791 
Q 2919 2259 2725 2515 
Q 2531 2772 2181 2772 
z
" transform="scale(0.015625)"/>
     </defs>
     <use xlink:href="#DejaVuSans-Bold-4d"/>
     <use xlink:href="#DejaVuSans-Bold-61" transform="translate(99.511719 0)"/>
     <use xlink:href="#DejaVuSans-Bold-63" transform="translate(166.992188 0)"/>
     <use xlink:href="#DejaVuSans-Bold-72" transform="translate(226.269531 0)"/>
     <use xlink:href="#DejaVuSans-Bold-6f" transform="translate(275.585938 0)"/>
     <use xlink:href="#DejaVuSans-Bold-70" transform="translate(344.287109 0)"/>
     <use xlink:href="#DejaVuSans-Bold-68" transform="translate(415.869141 0)"/>
     <use xlink:href="#DejaVuSans-Bold-61" transform="translate(487.060547 0)"/>
     <use xlink:href="#DejaVuSans-Bold-67" transform="translate(554.541016 0)"/>
     <use xlink:href="#DejaVuSans-Bold-65" transform="translate(626.123047 0)"/>
    </g>
   </g>
   <g id="text_7">
    <!-- Dendritic -->
    <g transform="translate(115.663873 124.394474) scale(0.12 -0.12)">
     <defs>
      <path id="DejaVuSans-Bold-44" d="M 1791 3756 
L 1791 909 
L 2222 909 
Q 2959 909 3348 1275 
Q 3738 1641 3738 2338 
Q 3738 3031 3350 3393 
Q 2963 3756 2222 3756 
L 1791 3756 
z
M 588 4666 
L 1856 4666 
Q 2919 4666 3439 4514 
Q 3959 4363 4331 4000 
Q 4659 3684 4818 3271 
Q 4978 2859 4978 2338 
Q 4978 1809 4818 1395 
Q 4659 981 4331 666 
Q 3956 303 3431 151 
Q 2906 0 1856 0 
L 588 0 
L 588 4666 
z
" transform="scale(0.015625)"/>
      <path id="DejaVuSans-Bold-64" d="M 2919 2988 
L 2919 4863 
L 4044 4863 
L 4044 0 
L 2919 0 
L 2919 506 
Q 2688 197 2409 53 
Q 2131 -91 1766 -91 
Q 1119 -91 703 423 
Q 288 938 288 1747 
Q 288 2556 703 3070 
Q 1119 3584 1766 3584 
Q 2128 3584 2408 3439 
Q 2688 3294 2919 2988 
z
M 2181 722 
Q 2541 722 2730 984 
Q 2919 1247 2919 1747 
Q 2919 2247 2730 2509 
Q 2541 2772 2181 2772 
Q 1825 2772 1636 2509 
Q 1447 2247 1447 1747 
Q 1447 1247 1636 984 
Q 1825 722 2181 722 
z
" transform="scale(0.015625)"/>
     </defs>
     <use xlink:href="#DejaVuSans-Bold-44"/>
     <use xlink:href="#DejaVuSans-Bold-65" transform="translate(83.007812 0)"/>
     <use xlink:href="#DejaVuSans-Bold-6e" transform="translate(150.830078 0)"/>
     <use xlink:href="#DejaVuSans-Bold-64" transform="translate(222.021484 0)"/>
     <use xlink:href="#DejaVuSans-Bold-72" transform="translate(293.603516 0)"/>
     <use xlink:href="#DejaVuSans-Bold-69" transform="translate(342.919922 0)"/>
     <use xlink:href="#DejaVuSans-Bold-74" transform="translate(377.197266 0)"/>
     <use xlink:href="#DejaVuSans-Bold-69" transform="translate(425 0)"/>
     <use xlink:href="#DejaVuSans-Bold-63" transform="translate(459.277344 0)"/>
    </g>
   </g>
   <g id="text_8">
    <!-- Fibroblast -->
    <g transform="translate(109.150123 402.029383) scale(0.12 -0.12)">
     <defs>
      <path id="DejaVuSans-Bold-46" d="M 588 4666 
L 3834 4666 
L 3834 3756 
L 1791 3756 
L 1791 2888 
L 3713 2888 
L 3713 1978 
L 1791 1978 
L 1791 0 
L 588 0 
L 588 4666 
z
" transform="scale(0.015625)"/>
      <path id="DejaVuSans-Bold-62" d="M 2400 722 
Q 2759 722 2948 984 
Q 3138 1247 3138 1747 
Q 3138 2247 2948 2509 
Q 2759 2772 2400 2772 
Q 2041 2772 1848 2508 
Q 1656 2244 1656 1747 
Q 1656 1250 1848 986 
Q 2041 722 2400 722 
z
M 1656 2988 
Q 1888 3294 2169 3439 
Q 2450 3584 2816 3584 
Q 3463 3584 3878 3070 
Q 4294 2556 4294 1747 
Q 4294 938 3878 423 
Q 3463 -91 2816 -91 
Q 2450 -91 2169 54 
Q 1888 200 1656 506 
L 1656 0 
L 538 0 
L 538 4863 
L 1656 4863 
L 1656 2988 
z
" transform="scale(0.015625)"/>
      <path id="DejaVuSans-Bold-73" d="M 3272 3391 
L 3272 2541 
Q 2913 2691 2578 2766 
Q 2244 2841 1947 2841 
Q 1628 2841 1473 2761 
Q 1319 2681 1319 2516 
Q 1319 2381 1436 2309 
Q 1553 2238 1856 2203 
L 2053 2175 
Q 2913 2066 3209 1816 
Q 3506 1566 3506 1031 
Q 3506 472 3093 190 
Q 2681 -91 1863 -91 
Q 1516 -91 1145 -36 
Q 775 19 384 128 
L 384 978 
Q 719 816 1070 734 
Q 1422 653 1784 653 
Q 2113 653 2278 743 
Q 2444 834 2444 1013 
Q 2444 1163 2330 1236 
Q 2216 1309 1875 1350 
L 1678 1375 
Q 931 1469 631 1722 
Q 331 1975 331 2491 
Q 331 3047 712 3315 
Q 1094 3584 1881 3584 
Q 2191 3584 2531 3537 
Q 2872 3491 3272 3391 
z
" transform="scale(0.015625)"/>
     </defs>
     <use xlink:href="#DejaVuSans-Bold-46"/>
     <use xlink:href="#DejaVuSans-Bold-69" transform="translate(68.310547 0)"/>
     <use xlink:href="#DejaVuSans-Bold-62" transform="translate(102.587891 0)"/>
     <use xlink:href="#DejaVuSans-Bold-72" transform="translate(174.169922 0)"/>
     <use xlink:href="#DejaVuSans-Bold-6f" transform="translate(223.486328 0)"/>
     <use xlink:href="#DejaVuSans-Bold-62" transform="translate(292.1875 0)"/>
     <use xlink:href="#DejaVuSans-Bold-6c" transform="translate(363.769531 0)"/>
     <use xlink:href="#DejaVuSans-Bold-61" transform="translate(398.046875 0)"/>
     <use xlink:href="#DejaVuSans-Bold-73" transform="translate(465.527344 0)"/>
     <use xlink:href="#DejaVuSans-Bold-74" transform="translate(525.048828 0)"/>
    </g>
   </g>
   <g id="text_9">
    <!-- Neutrophil -->
    <g transform="translate(499.007319 263.211928) scale(0.12 -0.12)">
     <use xlink:href="#DejaVuSans-Bold-4e"/>
     <use xlink:href="#DejaVuSans-Bold-65" transform="translate(83.691406 0)"/>
     <use xlink:href="#DejaVuSans-Bold-75" transform="translate(151.513672 0)"/>
     <use xlink:href="#DejaVuSans-Bold-74" transform="translate(222.705078 0)"/>
     <use xlink:href="#DejaVuSans-Bold-72" transform="translate(270.507812 0)"/>
     <use xlink:href="#DejaVuSans-Bold-6f" transform="translate(319.824219 0)"/>
     <use xlink:href="#DejaVuSans-Bold-70" transform="translate(388.525391 0)"/>
     <use xlink:href="#DejaVuSans-Bold-68" transform="translate(460.107422 0)"/>
     <use xlink:href="#DejaVuSans-Bold-69" transform="translate(531.298828 0)"/>
     <use xlink:href="#DejaVuSans-Bold-6c" transform="translate(565.576172 0)"/>
    </g>
   </g>
   <g id="text_10">
    <!-- Endothelial -->
    <g transform="translate(46.365962 263.211928) scale(0.12 -0.12)">
     <defs>
      <path id="DejaVuSans-Bold-45" d="M 588 4666 
L 3834 4666 
L 3834 3756 
L 1791 3756 
L 1791 2888 
L 3713 2888 
L 3713 1978 
L 1791 1978 
L 1791 909 
L 3903 909 
L 3903 0 
L 588 0 
L 588 4666 
z
" transform="scale(0.015625)"/>
     </defs>
     <use xlink:href="#DejaVuSans-Bold-45"/>
     <use xlink:href="#DejaVuSans-Bold-6e" transform="translate(68.310547 0)"/>
     <use xlink:href="#DejaVuSans-Bold-64" transform="translate(139.501953 0)"/>
     <use xlink:href="#DejaVuSans-Bold-6f" transform="translate(211.083984 0)"/>
     <use xlink:href="#DejaVuSans-Bold-74" transform="translate(279.785156 0)"/>
     <use xlink:href="#DejaVuSans-Bold-68" transform="translate(327.587891 0)"/>
     <use xlink:href="#DejaVuSans-Bold-65" transform="translate(398.779297 0)"/>
     <use xlink:href="#DejaVuSans-Bold-6c" transform="translate(466.601562 0)"/>
     <use xlink:href="#DejaVuSans-Bold-69" transform="translate(500.878906 0)"/>
     <use xlink:href="#DejaVuSans-Bold-61" transform="translate(535.15625 0)"/>
     <use xlink:href="#DejaVuSans-Bold-6c" transform="translate(602.636719 0)"/>
    </g>
   </g>
  </g>
  <g id="legend_1">
   <g id="patch_49">
    <path d="M 13.2 500.62396 
L 43.2 500.62396 
L 43.2 490.12396 
L 13.2 490.12396 
z
" style="fill: #4ecdc4; stroke: #4ecdc4; stroke-linejoin: miter"/>
   </g>
   <g id="text_11">
    <!-- B cell -->
    <g transform="translate(55.2 500.62396) scale(0.15 -0.15)">
     <defs>
      <path id="DejaVuSans-42" d="M 1259 2228 
L 1259 519 
L 2272 519 
Q 2781 519 3026 730 
Q 3272 941 3272 1375 
Q 3272 1813 3026 2020 
Q 2781 2228 2272 2228 
L 1259 2228 
z
M 1259 4147 
L 1259 2741 
L 2194 2741 
Q 2656 2741 2882 2914 
Q 3109 3088 3109 3444 
Q 3109 3797 2882 3972 
Q 2656 4147 2194 4147 
L 1259 4147 
z
M 628 4666 
L 2241 4666 
Q 2963 4666 3353 4366 
Q 3744 4066 3744 3513 
Q 3744 3084 3544 2831 
Q 3344 2578 2956 2516 
Q 3422 2416 3680 2098 
Q 3938 1781 3938 1306 
Q 3938 681 3513 340 
Q 3088 0 2303 0 
L 628 0 
L 628 4666 
z
" transform="scale(0.015625)"/>
     </defs>
     <use xlink:href="#DejaVuSans-42"/>
     <use xlink:href="#DejaVuSans-20" transform="translate(68.603516 0)"/>
     <use xlink:href="#DejaVuSans-63" transform="translate(100.390625 0)"/>
     <use xlink:href="#DejaVuSans-65" transform="translate(155.371094 0)"/>
     <use xlink:href="#DejaVuSans-6c" transform="translate(216.894531 0)"/>
     <use xlink:href="#DejaVuSans-6c" transform="translate(244.677734 0)"/>
    </g>
   </g>
   <g id="patch_50">
    <path d="M 13.2 522.641147 
L 43.2 522.641147 
L 43.2 512.141147 
L 13.2 512.141147 
z
" style="fill: #ffa07a; stroke: #ffa07a; stroke-linejoin: miter"/>
   </g>
   <g id="text_12">
    <!-- Dendritic -->
    <g transform="translate(55.2 522.641147) scale(0.15 -0.15)">
     <defs>
      <path id="DejaVuSans-44" d="M 1259 4147 
L 1259 519 
L 2022 519 
Q 2988 519 3436 956 
Q 3884 1394 3884 2338 
Q 3884 3275 3436 3711 
Q 2988 4147 2022 4147 
L 1259 4147 
z
M 628 4666 
L 1925 4666 
Q 3281 4666 3915 4102 
Q 4550 3538 4550 2338 
Q 4550 1131 3912 565 
Q 3275 0 1925 0 
L 628 0 
L 628 4666 
z
" transform="scale(0.015625)"/>
      <path id="DejaVuSans-6e" d="M 3513 2113 
L 3513 0 
L 2938 0 
L 2938 2094 
Q 2938 2591 2744 2837 
Q 2550 3084 2163 3084 
Q 1697 3084 1428 2787 
Q 1159 2491 1159 1978 
L 1159 0 
L 581 0 
L 581 3500 
L 1159 3500 
L 1159 2956 
Q 1366 3272 1645 3428 
Q 1925 3584 2291 3584 
Q 2894 3584 3203 3211 
Q 3513 2838 3513 2113 
z
" transform="scale(0.015625)"/>
      <path id="DejaVuSans-64" d="M 2906 2969 
L 2906 4863 
L 3481 4863 
L 3481 0 
L 2906 0 
L 2906 525 
Q 2725 213 2448 61 
Q 2172 -91 1784 -91 
Q 1150 -91 751 415 
Q 353 922 353 1747 
Q 353 2572 751 3078 
Q 1150 3584 1784 3584 
Q 2172 3584 2448 3432 
Q 2725 3281 2906 2969 
z
M 947 1747 
Q 947 1113 1208 752 
Q 1469 391 1925 391 
Q 2381 391 2643 752 
Q 2906 1113 2906 1747 
Q 2906 2381 2643 2742 
Q 2381 3103 1925 3103 
Q 1469 3103 1208 2742 
Q 947 2381 947 1747 
z
" transform="scale(0.015625)"/>
     </defs>
     <use xlink:href="#DejaVuSans-44"/>
     <use xlink:href="#DejaVuSans-65" transform="translate(77.001953 0)"/>
     <use xlink:href="#DejaVuSans-6e" transform="translate(138.525391 0)"/>
     <use xlink:href="#DejaVuSans-64" transform="translate(201.904297 0)"/>
     <use xlink:href="#DejaVuSans-72" transform="translate(265.380859 0)"/>
     <use xlink:href="#DejaVuSans-69" transform="translate(306.494141 0)"/>
     <use xlink:href="#DejaVuSans-74" transform="translate(334.277344 0)"/>
     <use xlink:href="#DejaVuSans-69" transform="translate(373.486328 0)"/>
     <use xlink:href="#DejaVuSans-63" transform="translate(401.269531 0)"/>
    </g>
   </g>
   <g id="patch_51">
    <path d="M 153.6375 500.62396 
L 183.6375 500.62396 
L 183.6375 490.12396 
L 153.6375 490.12396 
z
" style="fill: #beaed4; stroke: #beaed4; stroke-linejoin: miter"/>
   </g>
   <g id="text_13">
    <!-- Endothelial -->
    <g transform="translate(195.6375 500.62396) scale(0.15 -0.15)">
     <defs>
      <path id="DejaVuSans-45" d="M 628 4666 
L 3578 4666 
L 3578 4134 
L 1259 4134 
L 1259 2753 
L 3481 2753 
L 3481 2222 
L 1259 2222 
L 1259 531 
L 3634 531 
L 3634 0 
L 628 0 
L 628 4666 
z
" transform="scale(0.015625)"/>
      <path id="DejaVuSans-68" d="M 3513 2113 
L 3513 0 
L 2938 0 
L 2938 2094 
Q 2938 2591 2744 2837 
Q 2550 3084 2163 3084 
Q 1697 3084 1428 2787 
Q 1159 2491 1159 1978 
L 1159 0 
L 581 0 
L 581 4863 
L 1159 4863 
L 1159 2956 
Q 1366 3272 1645 3428 
Q 1925 3584 2291 3584 
Q 2894 3584 3203 3211 
Q 3513 2838 3513 2113 
z
" transform="scale(0.015625)"/>
     </defs>
     <use xlink:href="#DejaVuSans-45"/>
     <use xlink:href="#DejaVuSans-6e" transform="translate(63.183594 0)"/>
     <use xlink:href="#DejaVuSans-64" transform="translate(126.5625 0)"/>
     <use xlink:href="#DejaVuSans-6f" transform="translate(190.039062 0)"/>
     <use xlink:href="#DejaVuSans-74" transform="translate(251.220703 0)"/>
     <use xlink:href="#DejaVuSans-68" transform="translate(290.429688 0)"/>
     <use xlink:href="#DejaVuSans-65" transform="translate(353.808594 0)"/>
     <use xlink:href="#DejaVuSans-6c" transform="translate(415.332031 0)"/>
     <use xlink:href="#DejaVuSans-69" transform="translate(443.115234 0)"/>
     <use xlink:href="#DejaVuSans-61" transform="translate(470.898438 0)"/>
     <use xlink:href="#DejaVuSans-6c" transform="translate(532.177734 0)"/>
    </g>
   </g>
   <g id="patch_52">
    <path d="M 153.6375 522.641147 
L 183.6375 522.641147 
L 183.6375 512.141147 
L 153.6375 512.141147 
z
" style="fill: #7fc97f; stroke: #7fc97f; stroke-linejoin: miter"/>
   </g>
   <g id="text_14">
    <!-- Fibroblast -->
    <g transform="translate(195.6375 522.641147) scale(0.15 -0.15)">
     <defs>
      <path id="DejaVuSans-46" d="M 628 4666 
L 3309 4666 
L 3309 4134 
L 1259 4134 
L 1259 2759 
L 3109 2759 
L 3109 2228 
L 1259 2228 
L 1259 0 
L 628 0 
L 628 4666 
z
" transform="scale(0.015625)"/>
      <path id="DejaVuSans-62" d="M 3116 1747 
Q 3116 2381 2855 2742 
Q 2594 3103 2138 3103 
Q 1681 3103 1420 2742 
Q 1159 2381 1159 1747 
Q 1159 1113 1420 752 
Q 1681 391 2138 391 
Q 2594 391 2855 752 
Q 3116 1113 3116 1747 
z
M 1159 2969 
Q 1341 3281 1617 3432 
Q 1894 3584 2278 3584 
Q 2916 3584 3314 3078 
Q 3713 2572 3713 1747 
Q 3713 922 3314 415 
Q 2916 -91 2278 -91 
Q 1894 -91 1617 61 
Q 1341 213 1159 525 
L 1159 0 
L 581 0 
L 581 4863 
L 1159 4863 
L 1159 2969 
z
" transform="scale(0.015625)"/>
     </defs>
     <use xlink:href="#DejaVuSans-46"/>
     <use xlink:href="#DejaVuSans-69" transform="translate(50.269531 0)"/>
     <use xlink:href="#DejaVuSans-62" transform="translate(78.052734 0)"/>
     <use xlink:href="#DejaVuSans-72" transform="translate(141.529297 0)"/>
     <use xlink:href="#DejaVuSans-6f" transform="translate(180.392578 0)"/>
     <use xlink:href="#DejaVuSans-62" transform="translate(241.574219 0)"/>
     <use xlink:href="#DejaVuSans-6c" transform="translate(305.050781 0)"/>
     <use xlink:href="#DejaVuSans-61" transform="translate(332.833984 0)"/>
     <use xlink:href="#DejaVuSans-73" transform="translate(394.113281 0)"/>
     <use xlink:href="#DejaVuSans-74" transform="translate(446.212891 0)"/>
    </g>
   </g>
   <g id="patch_53">
    <path d="M 309.632812 500.62396 
L 339.632812 500.62396 
L 339.632812 490.12396 
L 309.632812 490.12396 
z
" style="fill: #911eb4; stroke: #911eb4; stroke-linejoin: miter"/>
   </g>
   <g id="text_15">
    <!-- Macrophage -->
    <g transform="translate(351.632812 500.62396) scale(0.15 -0.15)">
     <defs>
      <path id="DejaVuSans-4d" d="M 628 4666 
L 1569 4666 
L 2759 1491 
L 3956 4666 
L 4897 4666 
L 4897 0 
L 4281 0 
L 4281 4097 
L 3078 897 
L 2444 897 
L 1241 4097 
L 1241 0 
L 628 0 
L 628 4666 
z
" transform="scale(0.015625)"/>
      <path id="DejaVuSans-67" d="M 2906 1791 
Q 2906 2416 2648 2759 
Q 2391 3103 1925 3103 
Q 1463 3103 1205 2759 
Q 947 2416 947 1791 
Q 947 1169 1205 825 
Q 1463 481 1925 481 
Q 2391 481 2648 825 
Q 2906 1169 2906 1791 
z
M 3481 434 
Q 3481 -459 3084 -895 
Q 2688 -1331 1869 -1331 
Q 1566 -1331 1297 -1286 
Q 1028 -1241 775 -1147 
L 775 -588 
Q 1028 -725 1275 -790 
Q 1522 -856 1778 -856 
Q 2344 -856 2625 -561 
Q 2906 -266 2906 331 
L 2906 616 
Q 2728 306 2450 153 
Q 2172 0 1784 0 
Q 1141 0 747 490 
Q 353 981 353 1791 
Q 353 2603 747 3093 
Q 1141 3584 1784 3584 
Q 2172 3584 2450 3431 
Q 2728 3278 2906 2969 
L 2906 3500 
L 3481 3500 
L 3481 434 
z
" transform="scale(0.015625)"/>
     </defs>
     <use xlink:href="#DejaVuSans-4d"/>
     <use xlink:href="#DejaVuSans-61" transform="translate(86.279297 0)"/>
     <use xlink:href="#DejaVuSans-63" transform="translate(147.558594 0)"/>
     <use xlink:href="#DejaVuSans-72" transform="translate(202.539062 0)"/>
     <use xlink:href="#DejaVuSans-6f" transform="translate(241.402344 0)"/>
     <use xlink:href="#DejaVuSans-70" transform="translate(302.583984 0)"/>
     <use xlink:href="#DejaVuSans-68" transform="translate(366.060547 0)"/>
     <use xlink:href="#DejaVuSans-61" transform="translate(429.439453 0)"/>
     <use xlink:href="#DejaVuSans-67" transform="translate(490.71875 0)"/>
     <use xlink:href="#DejaVuSans-65" transform="translate(554.195312 0)"/>
    </g>
   </g>
   <g id="patch_54">
    <path d="M 309.632812 522.641147 
L 339.632812 522.641147 
L 339.632812 512.141147 
L 309.632812 512.141147 
z
" style="fill: #45b7d1; stroke: #45b7d1; stroke-linejoin: miter"/>
   </g>
   <g id="text_16">
    <!-- NK cell -->
    <g transform="translate(351.632812 522.641147) scale(0.15 -0.15)">
     <defs>
      <path id="DejaVuSans-4e" d="M 628 4666 
L 1478 4666 
L 3547 763 
L 3547 4666 
L 4159 4666 
L 4159 0 
L 3309 0 
L 1241 3903 
L 1241 0 
L 628 0 
L 628 4666 
z
" transform="scale(0.015625)"/>
      <path id="DejaVuSans-4b" d="M 628 4666 
L 1259 4666 
L 1259 2694 
L 3353 4666 
L 4166 4666 
L 1850 2491 
L 4331 0 
L 3500 0 
L 1259 2247 
L 1259 0 
L 628 0 
L 628 4666 
z
" transform="scale(0.015625)"/>
     </defs>
     <use xlink:href="#DejaVuSans-4e"/>
     <use xlink:href="#DejaVuSans-4b" transform="translate(74.804688 0)"/>
     <use xlink:href="#DejaVuSans-20" transform="translate(140.380859 0)"/>
     <use xlink:href="#DejaVuSans-63" transform="translate(172.167969 0)"/>
     <use xlink:href="#DejaVuSans-65" transform="translate(227.148438 0)"/>
     <use xlink:href="#DejaVuSans-6c" transform="translate(288.671875 0)"/>
     <use xlink:href="#DejaVuSans-6c" transform="translate(316.455078 0)"/>
    </g>
   </g>
   <g id="patch_55">
    <path d="M 473.995313 500.62396 
L 503.995313 500.62396 
L 503.995313 490.12396 
L 473.995313 490.12396 
z
" style="fill: #fdc086; stroke: #fdc086; stroke-linejoin: miter"/>
   </g>
   <g id="text_17">
    <!-- Neutrophil -->
    <g transform="translate(515.995312 500.62396) scale(0.15 -0.15)">
     <use xlink:href="#DejaVuSans-4e"/>
     <use xlink:href="#DejaVuSans-65" transform="translate(74.804688 0)"/>
     <use xlink:href="#DejaVuSans-75" transform="translate(136.328125 0)"/>
     <use xlink:href="#DejaVuSans-74" transform="translate(199.707031 0)"/>
     <use xlink:href="#DejaVuSans-72" transform="translate(238.916016 0)"/>
     <use xlink:href="#DejaVuSans-6f" transform="translate(277.779297 0)"/>
     <use xlink:href="#DejaVuSans-70" transform="translate(338.960938 0)"/>
     <use xlink:href="#DejaVuSans-68" transform="translate(402.4375 0)"/>
     <use xlink:href="#DejaVuSans-69" transform="translate(465.816406 0)"/>
     <use xlink:href="#DejaVuSans-6c" transform="translate(493.599609 0)"/>
    </g>
   </g>
   <g id="patch_56">
    <path d="M 473.995313 522.641147 
L 503.995313 522.641147 
L 503.995313 512.141147 
L 473.995313 512.141147 
z
" style="fill: #ff6b6b; stroke: #ff6b6b; stroke-linejoin: miter"/>
   </g>
   <g id="text_18">
    <!-- T cell -->
    <g transform="translate(515.995312 522.641147) scale(0.15 -0.15)">
     <defs>
      <path id="DejaVuSans-54" d="M -19 4666 
L 3928 4666 
L 3928 4134 
L 2272 4134 
L 2272 0 
L 1638 0 
L 1638 4134 
L -19 4134 
L -19 4666 
z
" transform="scale(0.015625)"/>
     </defs>
     <use xlink:href="#DejaVuSans-54"/>
     <use xlink:href="#DejaVuSans-20" transform="translate(61.083984 0)"/>
     <use xlink:href="#DejaVuSans-63" transform="translate(92.871094 0)"/>
     <use xlink:href="#DejaVuSans-65" transform="translate(147.851562 0)"/>
     <use xlink:href="#DejaVuSans-6c" transform="translate(209.375 0)"/>
     <use xlink:href="#DejaVuSans-6c" transform="translate(237.158203 0)"/>
    </g>
   </g>
  </g>
 </g>
 <defs>
  <clipPath id="p2e6cc61939">
   <rect x="89.141953" y="38.140678" width="443.52" height="443.52"/>
  </clipPath>
 </defs>
</svg>
