<?xml version="1.0" encoding="utf-8" standalone="no"?>
<!DOCTYPE svg PUBLIC "-//W3C//DTD SVG 1.1//EN"
  "http://www.w3.org/Graphics/SVG/1.1/DTD/svg11.dtd">
<svg xmlns:xlink="http://www.w3.org/1999/xlink" width="589.282031pt" height="539.155991pt" viewBox="0 0 589.282031 539.155991" xmlns="http://www.w3.org/2000/svg" version="1.1">
 <metadata>
  <rdf:RDF xmlns:dc="http://purl.org/dc/elements/1.1/" xmlns:cc="http://creativecommons.org/ns#" xmlns:rdf="http://www.w3.org/1999/02/22-rdf-syntax-ns#">
   <cc:Work>
    <dc:type rdf:resource="http://purl.org/dc/dcmitype/StillImage"/>
    <dc:date>2026-04-30T21:00:31.462238</dc:date>
    <dc:format>image/svg+xml</dc:format>
    <dc:creator>
     <cc:Agent>
      <dc:title>Matplotlib v3.10.7+dfsg1, https://matplotlib.org/</dc:title>
     </cc:Agent>
    </dc:creator>
   </cc:Work>
  </rdf:RDF>
 </metadata>
 <defs>
  <style type="text/css">*{stroke-linejoin: round; stroke-linecap: butt}</style>
 </defs>
 <g id="figure_1">
  <g id="patch_1">
   <path d="M 0 539.155991 
L 589.282031 539.155991 
L 589.282031 0 
L 0 0 
z
" style="fill: #ffffff"/>
  </g>
  <g id="axes_1">
   <g id="patch_2">
    <path d="M 301.841016 407.96604 
C 341.056611 407.96604 378.671316 392.385518 406.40093 364.655905 
C 434.130543 336.926292 449.711064 299.311586 449.711064 260.095991 
C 449.711064 220.880396 434.130543 183.26569 406.40093 155.536077 
C 378.671316 127.806463 341.056611 112.225942 301.841016 112.225942 
C 262.62542 112.225942 225.010715 127.806463 197.281101 155.536077 
C 169.551488 183.26569 153.970967 220.880396 153.970967 260.095991 
C 153.970967 299.311586 169.551488 336.926292 197.281101 364.655905 
C 225.010715 392.385518 262.62542 407.96604 301.841016 407.96604 
z
" clip-path="url(#p8120902092)" style="fill: #f0f4fa; stroke: #f0f4fa; stroke-linejoin: miter"/>
   </g>
   <g id="patch_3">
    <path d="M 257.609211 260.095991 
Q 265.26564 199.957284 295.177293 145.59829 
" clip-path="url(#p8120902092)" style="fill: none; opacity: 0.88; stroke: #7b2d8b; stroke-width: 3.6; stroke-linejoin: miter"/>
   </g>
   <g id="patch_4">
    <path d="M 190.983005 324.099893 
Q 196.74602 245.592226 242.780459 256.820562 
" clip-path="url(#p8120902092)" style="fill: none; opacity: 0.88; stroke: #7b2d8b; stroke-width: 3.6; stroke-linejoin: miter"/>
   </g>
   <g id="patch_5">
    <path d="M 257.609211 260.095991 
Q 340.695191 276.685427 399.949665 315.786802 
" clip-path="url(#p8120902092)" style="fill: none; opacity: 0.74; stroke: #1a6fa8; stroke-width: 2.56; stroke-linejoin: miter"/>
   </g>
   <g id="patch_6">
    <path d="M 301.841016 388.103796 
Q 264.60064 320.899698 258.098914 273.788647 
" clip-path="url(#p8120902092)" style="fill: none; opacity: 0.74; stroke: #1a6fa8; stroke-width: 2.56; stroke-linejoin: miter"/>
   </g>
   <g id="patch_7">
    <path d="M 301.841016 132.088186 
Q 364.040088 151.699037 401.467321 187.269796 
" clip-path="url(#p8120902092)" style="fill: none; opacity: 0.6; stroke: #49a62d; stroke-width: 1.68; stroke-linejoin: miter"/>
   </g>
   <g id="patch_8">
    <path d="M 257.609211 260.095991 
Q 220.966626 243.506555 199.444098 208.561404 
" clip-path="url(#p8120902092)" style="fill: none; opacity: 0.6; stroke: #49a62d; stroke-width: 1.68; stroke-linejoin: miter"/>
   </g>
   <g id="patch_9">
    <path d="M 412.699027 196.092088 
Q 340.606098 243.174055 269.761911 257.378617 
" clip-path="url(#p8120902092)" style="fill: none; opacity: 0.45; stroke: #999999; stroke-width: 0.96; stroke-linejoin: miter"/>
   </g>
   <g id="patch_10">
    <path d="M 257.609211 260.095991 
Q 198.052238 245.242226 193.228338 309.616101 
" clip-path="url(#p8120902092)" style="fill: none; opacity: 0.45; stroke: #999999; stroke-width: 0.96; stroke-linejoin: miter"/>
   </g>
   <g id="patch_11">
    <path d="M 302.922772 305.409552 
C 314.653183 305.409552 325.904727 300.74901 334.199381 292.454356 
C 342.494035 284.159702 347.154577 272.908159 347.154577 261.177747 
C 347.154577 249.447335 342.494035 238.195791 334.199381 229.901138 
C 325.904727 221.606484 314.653183 216.945942 302.922772 216.945942 
C 291.19236 216.945942 279.940816 221.606484 271.646163 229.901138 
C 263.351509 238.195791 258.690967 249.447335 258.690967 261.177747 
C 258.690967 272.908159 263.351509 284.159702 271.646163 292.454356 
C 279.940816 300.74901 291.19236 305.409552 302.922772 305.409552 
z
" clip-path="url(#p8120902092)" style="fill-opacity: 0.133333"/>
   </g>
   <g id="patch_12">
    <path d="M 168.123594 366.648966 
C 175.455101 366.648966 182.487316 363.736128 187.671475 358.551969 
C 192.855633 353.367811 195.768472 346.335596 195.768472 339.004088 
C 195.768472 331.672581 192.855633 324.640366 187.671475 319.456208 
C 182.487316 314.272049 175.455101 311.35921 168.123594 311.35921 
C 160.792087 311.35921 153.759872 314.272049 148.575713 319.456208 
C 143.391555 324.640366 140.478716 331.672581 140.478716 339.004088 
C 140.478716 346.335596 143.391555 353.367811 148.575713 358.551969 
C 153.759872 363.736128 160.792087 366.648966 168.123594 366.648966 
z
" clip-path="url(#p8120902092)" style="fill-opacity: 0.133333"/>
   </g>
   <g id="patch_13">
    <path d="M 302.922772 444.475308 
C 310.254279 444.475308 317.286494 441.562469 322.470652 436.378311 
C 327.654811 431.194152 330.56765 424.161937 330.56765 416.83043 
C 330.56765 409.498923 327.654811 402.466708 322.470652 397.282549 
C 317.286494 392.098391 310.254279 389.185552 302.922772 389.185552 
C 295.591264 389.185552 288.55905 392.098391 283.374891 397.282549 
C 278.190732 402.466708 275.277894 409.498923 275.277894 416.83043 
C 275.277894 424.161937 278.190732 431.194152 283.374891 436.378311 
C 288.55905 441.562469 295.591264 444.475308 302.922772 444.475308 
z
" clip-path="url(#p8120902092)" style="fill-opacity: 0.133333"/>
   </g>
   <g id="patch_14">
    <path d="M 437.721949 366.648966 
C 445.053457 366.648966 452.085671 363.736128 457.26983 358.551969 
C 462.453989 353.367811 465.366827 346.335596 465.366827 339.004088 
C 465.366827 331.672581 462.453989 324.640366 457.26983 319.456208 
C 452.085671 314.272049 445.053457 311.35921 437.721949 311.35921 
C 430.390442 311.35921 423.358227 314.272049 418.174069 319.456208 
C 412.98991 324.640366 410.077071 331.672581 410.077071 339.004088 
C 410.077071 346.335596 412.98991 353.367811 418.174069 358.551969 
C 423.358227 363.736128 430.390442 366.648966 437.721949 366.648966 
z
" clip-path="url(#p8120902092)" style="fill-opacity: 0.133333"/>
   </g>
   <g id="patch_15">
    <path d="M 302.922772 133.169942 
C 310.254279 133.169942 317.286494 130.257103 322.470652 125.072945 
C 327.654811 119.888786 330.56765 112.856571 330.56765 105.525064 
C 330.56765 98.193557 327.654811 91.161342 322.470652 85.977183 
C 317.286494 80.793025 310.254279 77.880186 302.922772 77.880186 
C 295.591264 77.880186 288.55905 80.793025 283.374891 85.977183 
C 278.190732 91.161342 275.277894 98.193557 275.277894 105.525064 
C 275.277894 112.856571 278.190732 119.888786 283.374891 125.072945 
C 288.55905 130.257103 295.591264 133.169942 302.922772 133.169942 
z
" clip-path="url(#p8120902092)" style="fill-opacity: 0.133333"/>
   </g>
   <g id="patch_16">
    <path d="M 168.123594 210.996284 
C 175.455101 210.996284 182.487316 208.083445 187.671475 202.899286 
C 192.855633 197.715128 195.768472 190.682913 195.768472 183.351405 
C 195.768472 176.019898 192.855633 168.987683 187.671475 163.803525 
C 182.487316 158.619366 175.455101 155.706527 168.123594 155.706527 
C 160.792087 155.706527 153.759872 158.619366 148.575713 163.803525 
C 143.391555 168.987683 140.478716 176.019898 140.478716 183.351405 
C 140.478716 190.682913 143.391555 197.715128 148.575713 202.899286 
C 153.759872 208.083445 160.792087 210.996284 168.123594 210.996284 
z
" clip-path="url(#p8120902092)" style="fill-opacity: 0.133333"/>
   </g>
   <g id="patch_17">
    <path d="M 437.721949 210.996284 
C 445.053457 210.996284 452.085671 208.083445 457.26983 202.899286 
C 462.453989 197.715128 465.366827 190.682913 465.366827 183.351405 
C 465.366827 176.019898 462.453989 168.987683 457.26983 163.803525 
C 452.085671 158.619366 445.053457 155.706527 437.721949 155.706527 
C 430.390442 155.706527 423.358227 158.619366 418.174069 163.803525 
C 412.98991 168.987683 410.077071 176.019898 410.077071 183.351405 
C 410.077071 190.682913 412.98991 197.715128 418.174069 202.899286 
C 423.358227 208.083445 430.390442 210.996284 437.721949 210.996284 
z
" clip-path="url(#p8120902092)" style="fill-opacity: 0.133333"/>
   </g>
   <g id="patch_18">
    <path d="M 301.841016 304.327796 
C 313.571427 304.327796 324.822971 299.667254 333.117625 291.3726 
C 341.412279 283.077946 346.072821 271.826403 346.072821 260.095991 
C 346.072821 248.365579 341.412279 237.114035 333.117625 228.819382 
C 324.822971 220.524728 313.571427 215.864186 301.841016 215.864186 
C 290.110604 215.864186 278.85906 220.524728 270.564406 228.819382 
C 262.269753 237.114035 257.609211 248.365579 257.609211 260.095991 
C 257.609211 271.826403 262.269753 283.077946 270.564406 291.3726 
C 278.85906 299.667254 290.110604 304.327796 301.841016 304.327796 
z
" clip-path="url(#p8120902092)" style="fill: #2c3e50; stroke: #ffffff; stroke-width: 2.8; stroke-linejoin: miter"/>
   </g>
   <g id="patch_19">
    <path d="M 167.041838 365.56721 
C 174.373345 365.56721 181.40556 362.654372 186.589719 357.470213 
C 191.773877 352.286054 194.686716 345.25384 194.686716 337.922332 
C 194.686716 330.590825 191.773877 323.55861 186.589719 318.374452 
C 181.40556 313.190293 174.373345 310.277454 167.041838 310.277454 
C 159.710331 310.277454 152.678116 313.190293 147.493957 318.374452 
C 142.309799 323.55861 139.39696 330.590825 139.39696 337.922332 
C 139.39696 345.25384 142.309799 352.286054 147.493957 357.470213 
C 152.678116 362.654372 159.710331 365.56721 167.041838 365.56721 
z
" clip-path="url(#p8120902092)" style="fill: #e74c3c; stroke: #ffffff; stroke-width: 2.8; stroke-linejoin: miter"/>
   </g>
   <g id="patch_20">
    <path d="M 301.841016 443.393552 
C 309.172523 443.393552 316.204738 440.480713 321.388896 435.296555 
C 326.573055 430.112396 329.485894 423.080181 329.485894 415.748674 
C 329.485894 408.417166 326.573055 401.384952 321.388896 396.200793 
C 316.204738 391.016634 309.172523 388.103796 301.841016 388.103796 
C 294.509508 388.103796 287.477293 391.016634 282.293135 396.200793 
C 277.108976 401.384952 274.196138 408.417166 274.196138 415.748674 
C 274.196138 423.080181 277.108976 430.112396 282.293135 435.296555 
C 287.477293 440.480713 294.509508 443.393552 301.841016 443.393552 
z
" clip-path="url(#p8120902092)" style="fill: #c0392b; stroke: #ffffff; stroke-width: 2.8; stroke-linejoin: miter"/>
   </g>
   <g id="patch_21">
    <path d="M 436.640193 365.56721 
C 443.971701 365.56721 451.003915 362.654372 456.188074 357.470213 
C 461.372233 352.286054 464.285071 345.25384 464.285071 337.922332 
C 464.285071 330.590825 461.372233 323.55861 456.188074 318.374452 
C 451.003915 313.190293 443.971701 310.277454 436.640193 310.277454 
C 429.308686 310.277454 422.276471 313.190293 417.092312 318.374452 
C 411.908154 323.55861 408.995315 330.590825 408.995315 337.922332 
C 408.995315 345.25384 411.908154 352.286054 417.092312 357.470213 
C 422.276471 362.654372 429.308686 365.56721 436.640193 365.56721 
z
" clip-path="url(#p8120902092)" style="fill: #2980b9; stroke: #ffffff; stroke-width: 2.8; stroke-linejoin: miter"/>
   </g>
   <g id="patch_22">
    <path d="M 301.841016 132.088186 
C 309.172523 132.088186 316.204738 129.175347 321.388896 123.991189 
C 326.573055 118.80703 329.485894 111.774815 329.485894 104.443308 
C 329.485894 97.111801 326.573055 90.079586 321.388896 84.895427 
C 316.204738 79.711269 309.172523 76.79843 301.841016 76.79843 
C 294.509508 76.79843 287.477293 79.711269 282.293135 84.895427 
C 277.108976 90.079586 274.196138 97.111801 274.196138 104.443308 
C 274.196138 111.774815 277.108976 118.80703 282.293135 123.991189 
C 287.477293 129.175347 294.509508 132.088186 301.841016 132.088186 
z
" clip-path="url(#p8120902092)" style="fill: #1abc9c; stroke: #ffffff; stroke-width: 2.8; stroke-linejoin: miter"/>
   </g>
   <g id="patch_23">
    <path d="M 167.041838 209.914527 
C 174.373345 209.914527 181.40556 207.001689 186.589719 201.81753 
C 191.773877 196.633372 194.686716 189.601157 194.686716 182.269649 
C 194.686716 174.938142 191.773877 167.905927 186.589719 162.721769 
C 181.40556 157.53761 174.373345 154.624771 167.041838 154.624771 
C 159.710331 154.624771 152.678116 157.53761 147.493957 162.721769 
C 142.309799 167.905927 139.39696 174.938142 139.39696 182.269649 
C 139.39696 189.601157 142.309799 196.633372 147.493957 201.81753 
C 152.678116 207.001689 159.710331 209.914527 167.041838 209.914527 
z
" clip-path="url(#p8120902092)" style="fill: #8e44ad; stroke: #ffffff; stroke-width: 2.8; stroke-linejoin: miter"/>
   </g>
   <g id="patch_24">
    <path d="M 436.640193 209.914527 
C 443.971701 209.914527 451.003915 207.001689 456.188074 201.81753 
C 461.372233 196.633372 464.285071 189.601157 464.285071 182.269649 
C 464.285071 174.938142 461.372233 167.905927 456.188074 162.721769 
C 451.003915 157.53761 443.971701 154.624771 436.640193 154.624771 
C 429.308686 154.624771 422.276471 157.53761 417.092312 162.721769 
C 411.908154 167.905927 408.995315 174.938142 408.995315 182.269649 
C 408.995315 189.601157 411.908154 196.633372 417.092312 201.81753 
C 422.276471 207.001689 429.308686 209.914527 436.640193 209.914527 
z
" clip-path="url(#p8120902092)" style="fill: #f39c12; stroke: #ffffff; stroke-width: 2.8; stroke-linejoin: miter"/>
   </g>
   <g id="text_1">
    <!-- Central warehouse: inbound vs outbound flows -->
    <g transform="translate(154.604688 46.991016) scale(0.125 -0.125)">
     <defs>
      <path id="DejaVuSans-43" d="M 4122 4306 
L 4122 3641 
Q 3803 3938 3442 4084 
Q 3081 4231 2675 4231 
Q 1875 4231 1450 3742 
Q 1025 3253 1025 2328 
Q 1025 1406 1450 917 
Q 1875 428 2675 428 
Q 3081 428 3442 575 
Q 3803 722 4122 1019 
L 4122 359 
Q 3791 134 3420 21 
Q 3050 -91 2638 -91 
Q 1578 -91 968 557 
Q 359 1206 359 2328 
Q 359 3453 968 4101 
Q 1578 4750 2638 4750 
Q 3056 4750 3426 4639 
Q 3797 4528 4122 4306 
z
" transform="scale(0.015625)"/>
      <path id="DejaVuSans-65" d="M 3597 1894 
L 3597 1613 
L 953 1613 
Q 991 1019 1311 708 
Q 1631 397 2203 397 
Q 2534 397 2845 478 
Q 3156 559 3463 722 
L 3463 178 
Q 3153 47 2828 -22 
Q 2503 -91 2169 -91 
Q 1331 -91 842 396 
Q 353 884 353 1716 
Q 353 2575 817 3079 
Q 1281 3584 2069 3584 
Q 2775 3584 3186 3129 
Q 3597 2675 3597 1894 
z
M 3022 2063 
Q 3016 2534 2758 2815 
Q 2500 3097 2075 3097 
Q 1594 3097 1305 2825 
Q 1016 2553 972 2059 
L 3022 2063 
z
" transform="scale(0.015625)"/>
      <path id="DejaVuSans-6e" d="M 3513 2113 
L 3513 0 
L 2938 0 
L 2938 2094 
Q 2938 2591 2744 2837 
Q 2550 3084 2163 3084 
Q 1697 3084 1428 2787 
Q 1159 2491 1159 1978 
L 1159 0 
L 581 0 
L 581 3500 
L 1159 3500 
L 1159 2956 
Q 1366 3272 1645 3428 
Q 1925 3584 2291 3584 
Q 2894 3584 3203 3211 
Q 3513 2838 3513 2113 
z
" transform="scale(0.015625)"/>
      <path id="DejaVuSans-74" d="M 1172 4494 
L 1172 3500 
L 2356 3500 
L 2356 3053 
L 1172 3053 
L 1172 1153 
Q 1172 725 1289 603 
Q 1406 481 1766 481 
L 2356 481 
L 2356 0 
L 1766 0 
Q 1100 0 847 248 
Q 594 497 594 1153 
L 594 3053 
L 172 3053 
L 172 3500 
L 594 3500 
L 594 4494 
L 1172 4494 
z
" transform="scale(0.015625)"/>
      <path id="DejaVuSans-72" d="M 2631 2963 
Q 2534 3019 2420 3045 
Q 2306 3072 2169 3072 
Q 1681 3072 1420 2755 
Q 1159 2438 1159 1844 
L 1159 0 
L 581 0 
L 581 3500 
L 1159 3500 
L 1159 2956 
Q 1341 3275 1631 3429 
Q 1922 3584 2338 3584 
Q 2397 3584 2469 3576 
Q 2541 3569 2628 3553 
L 2631 2963 
z
" transform="scale(0.015625)"/>
      <path id="DejaVuSans-61" d="M 2194 1759 
Q 1497 1759 1228 1600 
Q 959 1441 959 1056 
Q 959 750 1161 570 
Q 1363 391 1709 391 
Q 2188 391 2477 730 
Q 2766 1069 2766 1631 
L 2766 1759 
L 2194 1759 
z
M 3341 1997 
L 3341 0 
L 2766 0 
L 2766 531 
Q 2569 213 2275 61 
Q 1981 -91 1556 -91 
Q 1019 -91 701 211 
Q 384 513 384 1019 
Q 384 1609 779 1909 
Q 1175 2209 1959 2209 
L 2766 2209 
L 2766 2266 
Q 2766 2663 2505 2880 
Q 2244 3097 1772 3097 
Q 1472 3097 1187 3025 
Q 903 2953 641 2809 
L 641 3341 
Q 956 3463 1253 3523 
Q 1550 3584 1831 3584 
Q 2591 3584 2966 3190 
Q 3341 2797 3341 1997 
z
" transform="scale(0.015625)"/>
      <path id="DejaVuSans-6c" d="M 603 4863 
L 1178 4863 
L 1178 0 
L 603 0 
L 603 4863 
z
" transform="scale(0.015625)"/>
      <path id="DejaVuSans-20" transform="scale(0.015625)"/>
      <path id="DejaVuSans-77" d="M 269 3500 
L 844 3500 
L 1563 769 
L 2278 3500 
L 2956 3500 
L 3675 769 
L 4391 3500 
L 4966 3500 
L 4050 0 
L 3372 0 
L 2619 2869 
L 1863 0 
L 1184 0 
L 269 3500 
z
" transform="scale(0.015625)"/>
      <path id="DejaVuSans-68" d="M 3513 2113 
L 3513 0 
L 2938 0 
L 2938 2094 
Q 2938 2591 2744 2837 
Q 2550 3084 2163 3084 
Q 1697 3084 1428 2787 
Q 1159 2491 1159 1978 
L 1159 0 
L 581 0 
L 581 4863 
L 1159 4863 
L 1159 2956 
Q 1366 3272 1645 3428 
Q 1925 3584 2291 3584 
Q 2894 3584 3203 3211 
Q 3513 2838 3513 2113 
z
" transform="scale(0.015625)"/>
      <path id="DejaVuSans-6f" d="M 1959 3097 
Q 1497 3097 1228 2736 
Q 959 2375 959 1747 
Q 959 1119 1226 758 
Q 1494 397 1959 397 
Q 2419 397 2687 759 
Q 2956 1122 2956 1747 
Q 2956 2369 2687 2733 
Q 2419 3097 1959 3097 
z
M 1959 3584 
Q 2709 3584 3137 3096 
Q 3566 2609 3566 1747 
Q 3566 888 3137 398 
Q 2709 -91 1959 -91 
Q 1206 -91 779 398 
Q 353 888 353 1747 
Q 353 2609 779 3096 
Q 1206 3584 1959 3584 
z
" transform="scale(0.015625)"/>
      <path id="DejaVuSans-75" d="M 544 1381 
L 544 3500 
L 1119 3500 
L 1119 1403 
Q 1119 906 1312 657 
Q 1506 409 1894 409 
Q 2359 409 2629 706 
Q 2900 1003 2900 1516 
L 2900 3500 
L 3475 3500 
L 3475 0 
L 2900 0 
L 2900 538 
Q 2691 219 2414 64 
Q 2138 -91 1772 -91 
Q 1169 -91 856 284 
Q 544 659 544 1381 
z
M 1991 3584 
L 1991 3584 
z
" transform="scale(0.015625)"/>
      <path id="DejaVuSans-73" d="M 2834 3397 
L 2834 2853 
Q 2591 2978 2328 3040 
Q 2066 3103 1784 3103 
Q 1356 3103 1142 2972 
Q 928 2841 928 2578 
Q 928 2378 1081 2264 
Q 1234 2150 1697 2047 
L 1894 2003 
Q 2506 1872 2764 1633 
Q 3022 1394 3022 966 
Q 3022 478 2636 193 
Q 2250 -91 1575 -91 
Q 1294 -91 989 -36 
Q 684 19 347 128 
L 347 722 
Q 666 556 975 473 
Q 1284 391 1588 391 
Q 1994 391 2212 530 
Q 2431 669 2431 922 
Q 2431 1156 2273 1281 
Q 2116 1406 1581 1522 
L 1381 1569 
Q 847 1681 609 1914 
Q 372 2147 372 2553 
Q 372 3047 722 3315 
Q 1072 3584 1716 3584 
Q 2034 3584 2315 3537 
Q 2597 3491 2834 3397 
z
" transform="scale(0.015625)"/>
      <path id="DejaVuSans-3a" d="M 750 794 
L 1409 794 
L 1409 0 
L 750 0 
L 750 794 
z
M 750 3309 
L 1409 3309 
L 1409 2516 
L 750 2516 
L 750 3309 
z
" transform="scale(0.015625)"/>
      <path id="DejaVuSans-69" d="M 603 3500 
L 1178 3500 
L 1178 0 
L 603 0 
L 603 3500 
z
M 603 4863 
L 1178 4863 
L 1178 4134 
L 603 4134 
L 603 4863 
z
" transform="scale(0.015625)"/>
      <path id="DejaVuSans-62" d="M 3116 1747 
Q 3116 2381 2855 2742 
Q 2594 3103 2138 3103 
Q 1681 3103 1420 2742 
Q 1159 2381 1159 1747 
Q 1159 1113 1420 752 
Q 1681 391 2138 391 
Q 2594 391 2855 752 
Q 3116 1113 3116 1747 
z
M 1159 2969 
Q 1341 3281 1617 3432 
Q 1894 3584 2278 3584 
Q 2916 3584 3314 3078 
Q 3713 2572 3713 1747 
Q 3713 922 3314 415 
Q 2916 -91 2278 -91 
Q 1894 -91 1617 61 
Q 1341 213 1159 525 
L 1159 0 
L 581 0 
L 581 4863 
L 1159 4863 
L 1159 2969 
z
" transform="scale(0.015625)"/>
      <path id="DejaVuSans-64" d="M 2906 2969 
L 2906 4863 
L 3481 4863 
L 3481 0 
L 2906 0 
L 2906 525 
Q 2725 213 2448 61 
Q 2172 -91 1784 -91 
Q 1150 -91 751 415 
Q 353 922 353 1747 
Q 353 2572 751 3078 
Q 1150 3584 1784 3584 
Q 2172 3584 2448 3432 
Q 2725 3281 2906 2969 
z
M 947 1747 
Q 947 1113 1208 752 
Q 1469 391 1925 391 
Q 2381 391 2643 752 
Q 2906 1113 2906 1747 
Q 2906 2381 2643 2742 
Q 2381 3103 1925 3103 
Q 1469 3103 1208 2742 
Q 947 2381 947 1747 
z
" transform="scale(0.015625)"/>
      <path id="DejaVuSans-76" d="M 191 3500 
L 800 3500 
L 1894 563 
L 2988 3500 
L 3597 3500 
L 2284 0 
L 1503 0 
L 191 3500 
z
" transform="scale(0.015625)"/>
      <path id="DejaVuSans-66" d="M 2375 4863 
L 2375 4384 
L 1825 4384 
Q 1516 4384 1395 4259 
Q 1275 4134 1275 3809 
L 1275 3500 
L 2222 3500 
L 2222 3053 
L 1275 3053 
L 1275 0 
L 697 0 
L 697 3053 
L 147 3053 
L 147 3500 
L 697 3500 
L 697 3744 
Q 697 4328 969 4595 
Q 1241 4863 1831 4863 
L 2375 4863 
z
" transform="scale(0.015625)"/>
     </defs>
     <use xlink:href="#DejaVuSans-43"/>
     <use xlink:href="#DejaVuSans-65" transform="translate(69.824219 0)"/>
     <use xlink:href="#DejaVuSans-6e" transform="translate(131.347656 0)"/>
     <use xlink:href="#DejaVuSans-74" transform="translate(194.726562 0)"/>
     <use xlink:href="#DejaVuSans-72" transform="translate(233.935547 0)"/>
     <use xlink:href="#DejaVuSans-61" transform="translate(275.048828 0)"/>
     <use xlink:href="#DejaVuSans-6c" transform="translate(336.328125 0)"/>
     <use xlink:href="#DejaVuSans-20" transform="translate(364.111328 0)"/>
     <use xlink:href="#DejaVuSans-77" transform="translate(395.898438 0)"/>
     <use xlink:href="#DejaVuSans-61" transform="translate(477.685547 0)"/>
     <use xlink:href="#DejaVuSans-72" transform="translate(538.964844 0)"/>
     <use xlink:href="#DejaVuSans-65" transform="translate(577.828125 0)"/>
     <use xlink:href="#DejaVuSans-68" transform="translate(639.351562 0)"/>
     <use xlink:href="#DejaVuSans-6f" transform="translate(702.730469 0)"/>
     <use xlink:href="#DejaVuSans-75" transform="translate(763.912109 0)"/>
     <use xlink:href="#DejaVuSans-73" transform="translate(827.291016 0)"/>
     <use xlink:href="#DejaVuSans-65" transform="translate(879.390625 0)"/>
     <use xlink:href="#DejaVuSans-3a" transform="translate(940.914062 0)"/>
     <use xlink:href="#DejaVuSans-20" transform="translate(974.605469 0)"/>
     <use xlink:href="#DejaVuSans-69" transform="translate(1006.392578 0)"/>
     <use xlink:href="#DejaVuSans-6e" transform="translate(1034.175781 0)"/>
     <use xlink:href="#DejaVuSans-62" transform="translate(1097.554688 0)"/>
     <use xlink:href="#DejaVuSans-6f" transform="translate(1161.03125 0)"/>
     <use xlink:href="#DejaVuSans-75" transform="translate(1222.212891 0)"/>
     <use xlink:href="#DejaVuSans-6e" transform="translate(1285.591797 0)"/>
     <use xlink:href="#DejaVuSans-64" transform="translate(1348.970703 0)"/>
     <use xlink:href="#DejaVuSans-20" transform="translate(1412.447266 0)"/>
     <use xlink:href="#DejaVuSans-76" transform="translate(1444.234375 0)"/>
     <use xlink:href="#DejaVuSans-73" transform="translate(1503.414062 0)"/>
     <use xlink:href="#DejaVuSans-20" transform="translate(1555.513672 0)"/>
     <use xlink:href="#DejaVuSans-6f" transform="translate(1587.300781 0)"/>
     <use xlink:href="#DejaVuSans-75" transform="translate(1648.482422 0)"/>
     <use xlink:href="#DejaVuSans-74" transform="translate(1711.861328 0)"/>
     <use xlink:href="#DejaVuSans-62" transform="translate(1751.070312 0)"/>
     <use xlink:href="#DejaVuSans-6f" transform="translate(1814.546875 0)"/>
     <use xlink:href="#DejaVuSans-75" transform="translate(1875.728516 0)"/>
     <use xlink:href="#DejaVuSans-6e" transform="translate(1939.107422 0)"/>
     <use xlink:href="#DejaVuSans-64" transform="translate(2002.486328 0)"/>
     <use xlink:href="#DejaVuSans-20" transform="translate(2065.962891 0)"/>
     <use xlink:href="#DejaVuSans-66" transform="translate(2097.75 0)"/>
     <use xlink:href="#DejaVuSans-6c" transform="translate(2132.955078 0)"/>
     <use xlink:href="#DejaVuSans-6f" transform="translate(2160.738281 0)"/>
     <use xlink:href="#DejaVuSans-77" transform="translate(2221.919922 0)"/>
     <use xlink:href="#DejaVuSans-73" transform="translate(2303.707031 0)"/>
    </g>
   </g>
   <g id="text_2">
    <!-- Supply Chain Hub -->
    <g transform="translate(176.911328 26.196094) scale(0.25 -0.25)">
     <defs>
      <path id="DejaVuSans-Bold-53" d="M 3834 4519 
L 3834 3531 
Q 3450 3703 3084 3790 
Q 2719 3878 2394 3878 
Q 1963 3878 1756 3759 
Q 1550 3641 1550 3391 
Q 1550 3203 1689 3098 
Q 1828 2994 2194 2919 
L 2706 2816 
Q 3484 2659 3812 2340 
Q 4141 2022 4141 1434 
Q 4141 663 3683 286 
Q 3225 -91 2284 -91 
Q 1841 -91 1394 -6 
Q 947 78 500 244 
L 500 1259 
Q 947 1022 1364 901 
Q 1781 781 2169 781 
Q 2563 781 2772 912 
Q 2981 1044 2981 1288 
Q 2981 1506 2839 1625 
Q 2697 1744 2272 1838 
L 1806 1941 
Q 1106 2091 782 2419 
Q 459 2747 459 3303 
Q 459 4000 909 4375 
Q 1359 4750 2203 4750 
Q 2588 4750 2994 4692 
Q 3400 4634 3834 4519 
z
" transform="scale(0.015625)"/>
      <path id="DejaVuSans-Bold-75" d="M 500 1363 
L 500 3500 
L 1625 3500 
L 1625 3150 
Q 1625 2866 1622 2436 
Q 1619 2006 1619 1863 
Q 1619 1441 1641 1255 
Q 1663 1069 1716 984 
Q 1784 875 1895 815 
Q 2006 756 2150 756 
Q 2500 756 2700 1025 
Q 2900 1294 2900 1772 
L 2900 3500 
L 4019 3500 
L 4019 0 
L 2900 0 
L 2900 506 
Q 2647 200 2364 54 
Q 2081 -91 1741 -91 
Q 1134 -91 817 281 
Q 500 653 500 1363 
z
" transform="scale(0.015625)"/>
      <path id="DejaVuSans-Bold-70" d="M 1656 506 
L 1656 -1331 
L 538 -1331 
L 538 3500 
L 1656 3500 
L 1656 2988 
Q 1888 3294 2169 3439 
Q 2450 3584 2816 3584 
Q 3463 3584 3878 3070 
Q 4294 2556 4294 1747 
Q 4294 938 3878 423 
Q 3463 -91 2816 -91 
Q 2450 -91 2169 54 
Q 1888 200 1656 506 
z
M 2400 2772 
Q 2041 2772 1848 2508 
Q 1656 2244 1656 1747 
Q 1656 1250 1848 986 
Q 2041 722 2400 722 
Q 2759 722 2948 984 
Q 3138 1247 3138 1747 
Q 3138 2247 2948 2509 
Q 2759 2772 2400 2772 
z
" transform="scale(0.015625)"/>
      <path id="DejaVuSans-Bold-6c" d="M 538 4863 
L 1656 4863 
L 1656 0 
L 538 0 
L 538 4863 
z
" transform="scale(0.015625)"/>
      <path id="DejaVuSans-Bold-79" d="M 78 3500 
L 1197 3500 
L 2138 1125 
L 2938 3500 
L 4056 3500 
L 2584 -331 
Q 2363 -916 2067 -1148 
Q 1772 -1381 1288 -1381 
L 641 -1381 
L 641 -647 
L 991 -647 
Q 1275 -647 1404 -556 
Q 1534 -466 1606 -231 
L 1638 -134 
L 78 3500 
z
" transform="scale(0.015625)"/>
      <path id="DejaVuSans-Bold-20" transform="scale(0.015625)"/>
      <path id="DejaVuSans-Bold-43" d="M 4288 256 
Q 3956 84 3597 -3 
Q 3238 -91 2847 -91 
Q 1681 -91 1000 561 
Q 319 1213 319 2328 
Q 319 3447 1000 4098 
Q 1681 4750 2847 4750 
Q 3238 4750 3597 4662 
Q 3956 4575 4288 4403 
L 4288 3438 
Q 3953 3666 3628 3772 
Q 3303 3878 2944 3878 
Q 2300 3878 1931 3465 
Q 1563 3053 1563 2328 
Q 1563 1606 1931 1193 
Q 2300 781 2944 781 
Q 3303 781 3628 887 
Q 3953 994 4288 1222 
L 4288 256 
z
" transform="scale(0.015625)"/>
      <path id="DejaVuSans-Bold-68" d="M 4056 2131 
L 4056 0 
L 2931 0 
L 2931 347 
L 2931 1625 
Q 2931 2084 2911 2256 
Q 2891 2428 2841 2509 
Q 2775 2619 2662 2680 
Q 2550 2741 2406 2741 
Q 2056 2741 1856 2470 
Q 1656 2200 1656 1722 
L 1656 0 
L 538 0 
L 538 4863 
L 1656 4863 
L 1656 2988 
Q 1909 3294 2193 3439 
Q 2478 3584 2822 3584 
Q 3428 3584 3742 3212 
Q 4056 2841 4056 2131 
z
" transform="scale(0.015625)"/>
      <path id="DejaVuSans-Bold-61" d="M 2106 1575 
Q 1756 1575 1579 1456 
Q 1403 1338 1403 1106 
Q 1403 894 1545 773 
Q 1688 653 1941 653 
Q 2256 653 2472 879 
Q 2688 1106 2688 1447 
L 2688 1575 
L 2106 1575 
z
M 3816 1997 
L 3816 0 
L 2688 0 
L 2688 519 
Q 2463 200 2181 54 
Q 1900 -91 1497 -91 
Q 953 -91 614 226 
Q 275 544 275 1050 
Q 275 1666 698 1953 
Q 1122 2241 2028 2241 
L 2688 2241 
L 2688 2328 
Q 2688 2594 2478 2717 
Q 2269 2841 1825 2841 
Q 1466 2841 1156 2769 
Q 847 2697 581 2553 
L 581 3406 
Q 941 3494 1303 3539 
Q 1666 3584 2028 3584 
Q 2975 3584 3395 3211 
Q 3816 2838 3816 1997 
z
" transform="scale(0.015625)"/>
      <path id="DejaVuSans-Bold-69" d="M 538 3500 
L 1656 3500 
L 1656 0 
L 538 0 
L 538 3500 
z
M 538 4863 
L 1656 4863 
L 1656 3950 
L 538 3950 
L 538 4863 
z
" transform="scale(0.015625)"/>
      <path id="DejaVuSans-Bold-6e" d="M 4056 2131 
L 4056 0 
L 2931 0 
L 2931 347 
L 2931 1631 
Q 2931 2084 2911 2256 
Q 2891 2428 2841 2509 
Q 2775 2619 2662 2680 
Q 2550 2741 2406 2741 
Q 2056 2741 1856 2470 
Q 1656 2200 1656 1722 
L 1656 0 
L 538 0 
L 538 3500 
L 1656 3500 
L 1656 2988 
Q 1909 3294 2193 3439 
Q 2478 3584 2822 3584 
Q 3428 3584 3742 3212 
Q 4056 2841 4056 2131 
z
" transform="scale(0.015625)"/>
      <path id="DejaVuSans-Bold-48" d="M 588 4666 
L 1791 4666 
L 1791 2888 
L 3566 2888 
L 3566 4666 
L 4769 4666 
L 4769 0 
L 3566 0 
L 3566 1978 
L 1791 1978 
L 1791 0 
L 588 0 
L 588 4666 
z
" transform="scale(0.015625)"/>
      <path id="DejaVuSans-Bold-62" d="M 2400 722 
Q 2759 722 2948 984 
Q 3138 1247 3138 1747 
Q 3138 2247 2948 2509 
Q 2759 2772 2400 2772 
Q 2041 2772 1848 2508 
Q 1656 2244 1656 1747 
Q 1656 1250 1848 986 
Q 2041 722 2400 722 
z
M 1656 2988 
Q 1888 3294 2169 3439 
Q 2450 3584 2816 3584 
Q 3463 3584 3878 3070 
Q 4294 2556 4294 1747 
Q 4294 938 3878 423 
Q 3463 -91 2816 -91 
Q 2450 -91 2169 54 
Q 1888 200 1656 506 
L 1656 0 
L 538 0 
L 538 4863 
L 1656 4863 
L 1656 2988 
z
" transform="scale(0.015625)"/>
     </defs>
     <use xlink:href="#DejaVuSans-Bold-53"/>
     <use xlink:href="#DejaVuSans-Bold-75" transform="translate(72.021484 0)"/>
     <use xlink:href="#DejaVuSans-Bold-70" transform="translate(143.212891 0)"/>
     <use xlink:href="#DejaVuSans-Bold-70" transform="translate(214.794922 0)"/>
     <use xlink:href="#DejaVuSans-Bold-6c" transform="translate(286.376953 0)"/>
     <use xlink:href="#DejaVuSans-Bold-79" transform="translate(320.654297 0)"/>
     <use xlink:href="#DejaVuSans-Bold-20" transform="translate(385.839844 0)"/>
     <use xlink:href="#DejaVuSans-Bold-43" transform="translate(420.654297 0)"/>
     <use xlink:href="#DejaVuSans-Bold-68" transform="translate(494.042969 0)"/>
     <use xlink:href="#DejaVuSans-Bold-61" transform="translate(565.234375 0)"/>
     <use xlink:href="#DejaVuSans-Bold-69" transform="translate(632.714844 0)"/>
     <use xlink:href="#DejaVuSans-Bold-6e" transform="translate(666.992188 0)"/>
     <use xlink:href="#DejaVuSans-Bold-20" transform="translate(738.183594 0)"/>
     <use xlink:href="#DejaVuSans-Bold-48" transform="translate(772.998047 0)"/>
     <use xlink:href="#DejaVuSans-Bold-75" transform="translate(856.689453 0)"/>
     <use xlink:href="#DejaVuSans-Bold-62" transform="translate(927.880859 0)"/>
    </g>
   </g>
   <g id="patch_25">
    <path d="M 289.45611 266.288444 
C 294.382883 266.288444 299.108532 264.331016 302.592286 260.847261 
C 306.076041 257.363507 308.033468 252.637858 308.033468 247.711085 
C 308.033468 242.784313 306.076041 238.058664 302.592286 234.57491 
C 299.108532 231.091155 294.382883 229.133727 289.45611 229.133727 
C 284.529337 229.133727 279.803689 231.091155 276.319934 234.57491 
C 272.83618 238.058664 270.878752 242.784313 270.878752 247.711085 
C 270.878752 252.637858 272.83618 257.363507 276.319934 260.847261 
C 279.803689 264.331016 284.529337 266.288444 289.45611 266.288444 
z
" clip-path="url(#p8120902092)" style="fill: #ffffff; opacity: 0.22"/>
   </g>
   <g id="patch_26">
    <path d="M 159.301272 341.792615 
C 162.380505 341.792615 165.334035 340.569223 167.511382 338.391876 
C 169.688729 336.21453 170.912121 333.261 170.912121 330.181766 
C 170.912121 327.102533 169.688729 324.149003 167.511382 321.971657 
C 165.334035 319.79431 162.380505 318.570918 159.301272 318.570918 
C 156.222039 318.570918 153.268509 319.79431 151.091162 321.971657 
C 148.913816 324.149003 147.690423 327.102533 147.690423 330.181766 
C 147.690423 333.261 148.913816 336.21453 151.091162 338.391876 
C 153.268509 340.569223 156.222039 341.792615 159.301272 341.792615 
z
" clip-path="url(#p8120902092)" style="fill: #ffffff; opacity: 0.22"/>
   </g>
   <g id="patch_27">
    <path d="M 294.10045 419.618957 
C 297.179683 419.618957 300.133213 418.395564 302.31056 416.218218 
C 304.487906 414.040871 305.711299 411.087341 305.711299 408.008108 
C 305.711299 404.928875 304.487906 401.975345 302.31056 399.797998 
C 300.133213 397.620651 297.179683 396.397259 294.10045 396.397259 
C 291.021217 396.397259 288.067686 397.620651 285.89034 399.797998 
C 283.712993 401.975345 282.489601 404.928875 282.489601 408.008108 
C 282.489601 411.087341 283.712993 414.040871 285.89034 416.218218 
C 288.067686 418.395564 291.021217 419.618957 294.10045 419.618957 
z
" clip-path="url(#p8120902092)" style="fill: #ffffff; opacity: 0.22"/>
   </g>
   <g id="patch_28">
    <path d="M 428.899627 341.792615 
C 431.97886 341.792615 434.932391 340.569223 437.109737 338.391876 
C 439.287084 336.21453 440.510476 333.261 440.510476 330.181766 
C 440.510476 327.102533 439.287084 324.149003 437.109737 321.971657 
C 434.932391 319.79431 431.97886 318.570918 428.899627 318.570918 
C 425.820394 318.570918 422.866864 319.79431 420.689517 321.971657 
C 418.512171 324.149003 417.288779 327.102533 417.288779 330.181766 
C 417.288779 333.261 418.512171 336.21453 420.689517 338.391876 
C 422.866864 340.569223 425.820394 341.792615 428.899627 341.792615 
z
" clip-path="url(#p8120902092)" style="fill: #ffffff; opacity: 0.22"/>
   </g>
   <g id="patch_29">
    <path d="M 294.10045 108.313591 
C 297.179683 108.313591 300.133213 107.090199 302.31056 104.912852 
C 304.487906 102.735505 305.711299 99.781975 305.711299 96.702742 
C 305.711299 93.623509 304.487906 90.669979 302.31056 88.492632 
C 300.133213 86.315286 297.179683 85.091893 294.10045 85.091893 
C 291.021217 85.091893 288.067686 86.315286 285.89034 88.492632 
C 283.712993 90.669979 282.489601 93.623509 282.489601 96.702742 
C 282.489601 99.781975 283.712993 102.735505 285.89034 104.912852 
C 288.067686 107.090199 291.021217 108.313591 294.10045 108.313591 
z
" clip-path="url(#p8120902092)" style="fill: #ffffff; opacity: 0.22"/>
   </g>
   <g id="patch_30">
    <path d="M 159.301272 186.139932 
C 162.380505 186.139932 165.334035 184.91654 167.511382 182.739193 
C 169.688729 180.561847 170.912121 177.608317 170.912121 174.529084 
C 170.912121 171.44985 169.688729 168.49632 167.511382 166.318974 
C 165.334035 164.141627 162.380505 162.918235 159.301272 162.918235 
C 156.222039 162.918235 153.268509 164.141627 151.091162 166.318974 
C 148.913816 168.49632 147.690423 171.44985 147.690423 174.529084 
C 147.690423 177.608317 148.913816 180.561847 151.091162 182.739193 
C 153.268509 184.91654 156.222039 186.139932 159.301272 186.139932 
z
" clip-path="url(#p8120902092)" style="fill: #ffffff; opacity: 0.22"/>
   </g>
   <g id="patch_31">
    <path d="M 428.899627 186.139932 
C 431.97886 186.139932 434.932391 184.91654 437.109737 182.739193 
C 439.287084 180.561847 440.510476 177.608317 440.510476 174.529084 
C 440.510476 171.44985 439.287084 168.49632 437.109737 166.318974 
C 434.932391 164.141627 431.97886 162.918235 428.899627 162.918235 
C 425.820394 162.918235 422.866864 164.141627 420.689517 166.318974 
C 418.512171 168.49632 417.288779 171.44985 417.288779 174.529084 
C 417.288779 177.608317 418.512171 180.561847 420.689517 182.739193 
C 422.866864 184.91654 425.820394 186.139932 428.899627 186.139932 
z
" clip-path="url(#p8120902092)" style="fill: #ffffff; opacity: 0.22"/>
   </g>
   <g id="patch_32">
    <path d="M 301.841016 133.488186 
L 298.862977 147.62638 
L 291.491609 143.570201 
z
" clip-path="url(#p8120902092)" style="fill: #7b2d8b; opacity: 0.88"/>
   </g>
   <g id="patch_33">
    <path d="M 256.209211 260.095991 
L 241.783589 260.907573 
L 243.777328 252.73355 
z
" clip-path="url(#p8120902092)" style="fill: #7b2d8b; opacity: 0.88"/>
   </g>
   <g id="patch_34">
    <path d="M 411.486591 323.399893 
L 397.632637 319.298041 
L 402.266692 312.275564 
z
" clip-path="url(#p8120902092)" style="fill: #1a6fa8; opacity: 0.74"/>
   </g>
   <g id="patch_35">
    <path d="M 256.209211 260.095991 
L 262.266244 273.21352 
L 253.931584 274.363774 
z
" clip-path="url(#p8120902092)" style="fill: #1a6fa8; opacity: 0.74"/>
   </g>
   <g id="patch_36">
    <path d="M 411.486591 196.792088 
L 398.569232 190.319139 
L 404.36541 184.220453 
z
" clip-path="url(#p8120902092)" style="fill: #49a62d; opacity: 0.6"/>
   </g>
   <g id="patch_37">
    <path d="M 192.19544 196.792088 
L 203.026063 206.355291 
L 195.862132 210.767517 
z
" clip-path="url(#p8120902092)" style="fill: #49a62d; opacity: 0.6"/>
   </g>
   <g id="patch_38">
    <path d="M 256.209211 260.095991 
L 268.934885 253.253882 
L 270.588938 261.503352 
z
" clip-path="url(#p8120902092)" style="fill: #999999; opacity: 0.45"/>
   </g>
   <g id="patch_39">
    <path d="M 192.19544 323.399893 
L 189.033271 309.30174 
L 197.423405 309.930461 
z
" clip-path="url(#p8120902092)" style="fill: #999999; opacity: 0.45"/>
   </g>
   <g id="text_3">
    <!-- WH -->
    <g transform="translate(290.201953 263.407241) scale(0.12 -0.12)">
     <defs>
      <path id="DejaVuSans-Bold-57" d="M 191 4666 
L 1344 4666 
L 2150 1275 
L 2950 4666 
L 4109 4666 
L 4909 1275 
L 5716 4666 
L 6859 4666 
L 5759 0 
L 4372 0 
L 3525 3547 
L 2688 0 
L 1300 0 
L 191 4666 
z
" transform="scale(0.015625)"/>
     </defs>
     <use xlink:href="#DejaVuSans-Bold-57"/>
     <use xlink:href="#DejaVuSans-Bold-48" transform="translate(110.302734 0)"/>
    </g>
   </g>
   <g id="text_4">
    <!-- Factory A -->
    <g transform="translate(75.04824 363.173049) scale(0.12 -0.12)">
     <defs>
      <path id="DejaVuSans-Bold-46" d="M 588 4666 
L 3834 4666 
L 3834 3756 
L 1791 3756 
L 1791 2888 
L 3713 2888 
L 3713 1978 
L 1791 1978 
L 1791 0 
L 588 0 
L 588 4666 
z
" transform="scale(0.015625)"/>
      <path id="DejaVuSans-Bold-63" d="M 3366 3391 
L 3366 2478 
Q 3138 2634 2908 2709 
Q 2678 2784 2431 2784 
Q 1963 2784 1702 2511 
Q 1441 2238 1441 1747 
Q 1441 1256 1702 982 
Q 1963 709 2431 709 
Q 2694 709 2930 787 
Q 3166 866 3366 1019 
L 3366 103 
Q 3103 6 2833 -42 
Q 2563 -91 2291 -91 
Q 1344 -91 809 395 
Q 275 881 275 1747 
Q 275 2613 809 3098 
Q 1344 3584 2291 3584 
Q 2566 3584 2833 3536 
Q 3100 3488 3366 3391 
z
" transform="scale(0.015625)"/>
      <path id="DejaVuSans-Bold-74" d="M 1759 4494 
L 1759 3500 
L 2913 3500 
L 2913 2700 
L 1759 2700 
L 1759 1216 
Q 1759 972 1856 886 
Q 1953 800 2241 800 
L 2816 800 
L 2816 0 
L 1856 0 
Q 1194 0 917 276 
Q 641 553 641 1216 
L 641 2700 
L 84 2700 
L 84 3500 
L 641 3500 
L 641 4494 
L 1759 4494 
z
" transform="scale(0.015625)"/>
      <path id="DejaVuSans-Bold-6f" d="M 2203 2784 
Q 1831 2784 1636 2517 
Q 1441 2250 1441 1747 
Q 1441 1244 1636 976 
Q 1831 709 2203 709 
Q 2569 709 2762 976 
Q 2956 1244 2956 1747 
Q 2956 2250 2762 2517 
Q 2569 2784 2203 2784 
z
M 2203 3584 
Q 3106 3584 3614 3096 
Q 4122 2609 4122 1747 
Q 4122 884 3614 396 
Q 3106 -91 2203 -91 
Q 1297 -91 786 396 
Q 275 884 275 1747 
Q 275 2609 786 3096 
Q 1297 3584 2203 3584 
z
" transform="scale(0.015625)"/>
      <path id="DejaVuSans-Bold-72" d="M 3138 2547 
Q 2991 2616 2845 2648 
Q 2700 2681 2553 2681 
Q 2122 2681 1889 2404 
Q 1656 2128 1656 1613 
L 1656 0 
L 538 0 
L 538 3500 
L 1656 3500 
L 1656 2925 
Q 1872 3269 2151 3426 
Q 2431 3584 2822 3584 
Q 2878 3584 2943 3579 
Q 3009 3575 3134 3559 
L 3138 2547 
z
" transform="scale(0.015625)"/>
      <path id="DejaVuSans-Bold-41" d="M 3419 850 
L 1538 850 
L 1241 0 
L 31 0 
L 1759 4666 
L 3194 4666 
L 4922 0 
L 3713 0 
L 3419 850 
z
M 1838 1716 
L 3116 1716 
L 2478 3572 
L 1838 1716 
z
" transform="scale(0.015625)"/>
     </defs>
     <use xlink:href="#DejaVuSans-Bold-46"/>
     <use xlink:href="#DejaVuSans-Bold-61" transform="translate(62.435547 0)"/>
     <use xlink:href="#DejaVuSans-Bold-63" transform="translate(129.916016 0)"/>
     <use xlink:href="#DejaVuSans-Bold-74" transform="translate(189.193359 0)"/>
     <use xlink:href="#DejaVuSans-Bold-6f" transform="translate(236.996094 0)"/>
     <use xlink:href="#DejaVuSans-Bold-72" transform="translate(305.697266 0)"/>
     <use xlink:href="#DejaVuSans-Bold-79" transform="translate(355.013672 0)"/>
     <use xlink:href="#DejaVuSans-Bold-20" transform="translate(420.199219 0)"/>
     <use xlink:href="#DejaVuSans-Bold-41" transform="translate(455.013672 0)"/>
    </g>
   </g>
   <g id="text_5">
    <!-- Factory B -->
    <g transform="translate(269.966953 457.225732) scale(0.12 -0.12)">
     <defs>
      <path id="DejaVuSans-Bold-42" d="M 2456 2859 
Q 2741 2859 2887 2984 
Q 3034 3109 3034 3353 
Q 3034 3594 2887 3720 
Q 2741 3847 2456 3847 
L 1791 3847 
L 1791 2859 
L 2456 2859 
z
M 2497 819 
Q 2859 819 3042 972 
Q 3225 1125 3225 1434 
Q 3225 1738 3044 1889 
Q 2863 2041 2497 2041 
L 1791 2041 
L 1791 819 
L 2497 819 
z
M 3616 2497 
Q 4003 2384 4215 2081 
Q 4428 1778 4428 1338 
Q 4428 663 3972 331 
Q 3516 0 2584 0 
L 588 0 
L 588 4666 
L 2394 4666 
Q 3366 4666 3802 4372 
Q 4238 4078 4238 3431 
Q 4238 3091 4078 2852 
Q 3919 2613 3616 2497 
z
" transform="scale(0.015625)"/>
     </defs>
     <use xlink:href="#DejaVuSans-Bold-46"/>
     <use xlink:href="#DejaVuSans-Bold-61" transform="translate(62.435547 0)"/>
     <use xlink:href="#DejaVuSans-Bold-63" transform="translate(129.916016 0)"/>
     <use xlink:href="#DejaVuSans-Bold-74" transform="translate(189.193359 0)"/>
     <use xlink:href="#DejaVuSans-Bold-6f" transform="translate(236.996094 0)"/>
     <use xlink:href="#DejaVuSans-Bold-72" transform="translate(305.697266 0)"/>
     <use xlink:href="#DejaVuSans-Bold-79" transform="translate(355.013672 0)"/>
     <use xlink:href="#DejaVuSans-Bold-20" transform="translate(420.199219 0)"/>
     <use xlink:href="#DejaVuSans-Bold-42" transform="translate(455.013672 0)"/>
    </g>
   </g>
   <g id="text_6">
    <!-- Retail -->
    <g transform="translate(464.745041 363.266799) scale(0.12 -0.12)">
     <defs>
      <path id="DejaVuSans-Bold-52" d="M 2297 2597 
Q 2675 2597 2839 2737 
Q 3003 2878 3003 3200 
Q 3003 3519 2839 3656 
Q 2675 3794 2297 3794 
L 1791 3794 
L 1791 2597 
L 2297 2597 
z
M 1791 1766 
L 1791 0 
L 588 0 
L 588 4666 
L 2425 4666 
Q 3347 4666 3776 4356 
Q 4206 4047 4206 3378 
Q 4206 2916 3982 2619 
Q 3759 2322 3309 2181 
Q 3556 2125 3751 1926 
Q 3947 1728 4147 1325 
L 4800 0 
L 3519 0 
L 2950 1159 
Q 2778 1509 2601 1637 
Q 2425 1766 2131 1766 
L 1791 1766 
z
" transform="scale(0.015625)"/>
      <path id="DejaVuSans-Bold-65" d="M 4031 1759 
L 4031 1441 
L 1416 1441 
Q 1456 1047 1700 850 
Q 1944 653 2381 653 
Q 2734 653 3104 758 
Q 3475 863 3866 1075 
L 3866 213 
Q 3469 63 3072 -14 
Q 2675 -91 2278 -91 
Q 1328 -91 801 392 
Q 275 875 275 1747 
Q 275 2603 792 3093 
Q 1309 3584 2216 3584 
Q 3041 3584 3536 3087 
Q 4031 2591 4031 1759 
z
M 2881 2131 
Q 2881 2450 2695 2645 
Q 2509 2841 2209 2841 
Q 1884 2841 1681 2658 
Q 1478 2475 1428 2131 
L 2881 2131 
z
" transform="scale(0.015625)"/>
     </defs>
     <use xlink:href="#DejaVuSans-Bold-52"/>
     <use xlink:href="#DejaVuSans-Bold-65" transform="translate(77.001953 0)"/>
     <use xlink:href="#DejaVuSans-Bold-74" transform="translate(144.824219 0)"/>
     <use xlink:href="#DejaVuSans-Bold-61" transform="translate(192.626953 0)"/>
     <use xlink:href="#DejaVuSans-Bold-69" transform="translate(260.107422 0)"/>
     <use xlink:href="#DejaVuSans-Bold-6c" transform="translate(294.384766 0)"/>
    </g>
   </g>
   <g id="text_7">
    <!-- E-commerce -->
    <g transform="translate(260.413828 69.495) scale(0.12 -0.12)">
     <defs>
      <path id="DejaVuSans-Bold-45" d="M 588 4666 
L 3834 4666 
L 3834 3756 
L 1791 3756 
L 1791 2888 
L 3713 2888 
L 3713 1978 
L 1791 1978 
L 1791 909 
L 3903 909 
L 3903 0 
L 588 0 
L 588 4666 
z
" transform="scale(0.015625)"/>
      <path id="DejaVuSans-Bold-2d" d="M 347 2297 
L 2309 2297 
L 2309 1388 
L 347 1388 
L 347 2297 
z
" transform="scale(0.015625)"/>
      <path id="DejaVuSans-Bold-6d" d="M 3781 2919 
Q 3994 3244 4286 3414 
Q 4578 3584 4928 3584 
Q 5531 3584 5847 3212 
Q 6163 2841 6163 2131 
L 6163 0 
L 5038 0 
L 5038 1825 
Q 5041 1866 5042 1909 
Q 5044 1953 5044 2034 
Q 5044 2406 4934 2573 
Q 4825 2741 4581 2741 
Q 4263 2741 4089 2478 
Q 3916 2216 3909 1719 
L 3909 0 
L 2784 0 
L 2784 1825 
Q 2784 2406 2684 2573 
Q 2584 2741 2328 2741 
Q 2006 2741 1831 2477 
Q 1656 2213 1656 1722 
L 1656 0 
L 531 0 
L 531 3500 
L 1656 3500 
L 1656 2988 
Q 1863 3284 2130 3434 
Q 2397 3584 2719 3584 
Q 3081 3584 3359 3409 
Q 3638 3234 3781 2919 
z
" transform="scale(0.015625)"/>
     </defs>
     <use xlink:href="#DejaVuSans-Bold-45"/>
     <use xlink:href="#DejaVuSans-Bold-2d" transform="translate(68.310547 0)"/>
     <use xlink:href="#DejaVuSans-Bold-63" transform="translate(109.814453 0)"/>
     <use xlink:href="#DejaVuSans-Bold-6f" transform="translate(169.091797 0)"/>
     <use xlink:href="#DejaVuSans-Bold-6d" transform="translate(237.792969 0)"/>
     <use xlink:href="#DejaVuSans-Bold-6d" transform="translate(341.992188 0)"/>
     <use xlink:href="#DejaVuSans-Bold-65" transform="translate(446.191406 0)"/>
     <use xlink:href="#DejaVuSans-Bold-72" transform="translate(514.013672 0)"/>
     <use xlink:href="#DejaVuSans-Bold-63" transform="translate(563.330078 0)"/>
     <use xlink:href="#DejaVuSans-Bold-65" transform="translate(622.607422 0)"/>
    </g>
   </g>
   <g id="text_8">
    <!-- Export -->
    <g transform="translate(94.512615 163.547683) scale(0.12 -0.12)">
     <defs>
      <path id="DejaVuSans-Bold-78" d="M 1422 1791 
L 159 3500 
L 1344 3500 
L 2059 2463 
L 2784 3500 
L 3969 3500 
L 2706 1797 
L 4031 0 
L 2847 0 
L 2059 1106 
L 1281 0 
L 97 0 
L 1422 1791 
z
" transform="scale(0.015625)"/>
     </defs>
     <use xlink:href="#DejaVuSans-Bold-45"/>
     <use xlink:href="#DejaVuSans-Bold-78" transform="translate(68.310547 0)"/>
     <use xlink:href="#DejaVuSans-Bold-70" transform="translate(132.8125 0)"/>
     <use xlink:href="#DejaVuSans-Bold-6f" transform="translate(204.394531 0)"/>
     <use xlink:href="#DejaVuSans-Bold-72" transform="translate(273.095703 0)"/>
     <use xlink:href="#DejaVuSans-Bold-74" transform="translate(322.412109 0)"/>
    </g>
   </g>
   <g id="text_9">
    <!-- Returns -->
    <g transform="translate(464.745041 163.547683) scale(0.12 -0.12)">
     <defs>
      <path id="DejaVuSans-Bold-73" d="M 3272 3391 
L 3272 2541 
Q 2913 2691 2578 2766 
Q 2244 2841 1947 2841 
Q 1628 2841 1473 2761 
Q 1319 2681 1319 2516 
Q 1319 2381 1436 2309 
Q 1553 2238 1856 2203 
L 2053 2175 
Q 2913 2066 3209 1816 
Q 3506 1566 3506 1031 
Q 3506 472 3093 190 
Q 2681 -91 1863 -91 
Q 1516 -91 1145 -36 
Q 775 19 384 128 
L 384 978 
Q 719 816 1070 734 
Q 1422 653 1784 653 
Q 2113 653 2278 743 
Q 2444 834 2444 1013 
Q 2444 1163 2330 1236 
Q 2216 1309 1875 1350 
L 1678 1375 
Q 931 1469 631 1722 
Q 331 1975 331 2491 
Q 331 3047 712 3315 
Q 1094 3584 1881 3584 
Q 2191 3584 2531 3537 
Q 2872 3491 3272 3391 
z
" transform="scale(0.015625)"/>
     </defs>
     <use xlink:href="#DejaVuSans-Bold-52"/>
     <use xlink:href="#DejaVuSans-Bold-65" transform="translate(77.001953 0)"/>
     <use xlink:href="#DejaVuSans-Bold-74" transform="translate(144.824219 0)"/>
     <use xlink:href="#DejaVuSans-Bold-75" transform="translate(192.626953 0)"/>
     <use xlink:href="#DejaVuSans-Bold-72" transform="translate(263.818359 0)"/>
     <use xlink:href="#DejaVuSans-Bold-6e" transform="translate(313.134766 0)"/>
     <use xlink:href="#DejaVuSans-Bold-73" transform="translate(384.326172 0)"/>
    </g>
   </g>
  </g>
  <g id="legend_1">
   <g id="patch_40">
    <path d="M 13.2 500.819272 
L 43.2 500.819272 
L 43.2 490.319272 
L 13.2 490.319272 
z
" style="fill: #2c3e50; stroke: #2c3e50; stroke-linejoin: miter"/>
   </g>
   <g id="text_10">
    <!-- Warehouse -->
    <g transform="translate(55.2 500.819272) scale(0.15 -0.15)">
     <defs>
      <path id="DejaVuSans-57" d="M 213 4666 
L 850 4666 
L 1831 722 
L 2809 4666 
L 3519 4666 
L 4500 722 
L 5478 4666 
L 6119 4666 
L 4947 0 
L 4153 0 
L 3169 4050 
L 2175 0 
L 1381 0 
L 213 4666 
z
" transform="scale(0.015625)"/>
     </defs>
     <use xlink:href="#DejaVuSans-57"/>
     <use xlink:href="#DejaVuSans-61" transform="translate(92.501953 0)"/>
     <use xlink:href="#DejaVuSans-72" transform="translate(153.78125 0)"/>
     <use xlink:href="#DejaVuSans-65" transform="translate(192.644531 0)"/>
     <use xlink:href="#DejaVuSans-68" transform="translate(254.167969 0)"/>
     <use xlink:href="#DejaVuSans-6f" transform="translate(317.546875 0)"/>
     <use xlink:href="#DejaVuSans-75" transform="translate(378.728516 0)"/>
     <use xlink:href="#DejaVuSans-73" transform="translate(442.107422 0)"/>
     <use xlink:href="#DejaVuSans-65" transform="translate(494.207031 0)"/>
    </g>
   </g>
   <g id="patch_41">
    <path d="M 13.2 522.83646 
L 43.2 522.83646 
L 43.2 512.33646 
L 13.2 512.33646 
z
" style="fill: #e74c3c; stroke: #e74c3c; stroke-linejoin: miter"/>
   </g>
   <g id="text_11">
    <!-- Factory A -->
    <g transform="translate(55.2 522.83646) scale(0.15 -0.15)">
     <defs>
      <path id="DejaVuSans-46" d="M 628 4666 
L 3309 4666 
L 3309 4134 
L 1259 4134 
L 1259 2759 
L 3109 2759 
L 3109 2228 
L 1259 2228 
L 1259 0 
L 628 0 
L 628 4666 
z
" transform="scale(0.015625)"/>
      <path id="DejaVuSans-63" d="M 3122 3366 
L 3122 2828 
Q 2878 2963 2633 3030 
Q 2388 3097 2138 3097 
Q 1578 3097 1268 2742 
Q 959 2388 959 1747 
Q 959 1106 1268 751 
Q 1578 397 2138 397 
Q 2388 397 2633 464 
Q 2878 531 3122 666 
L 3122 134 
Q 2881 22 2623 -34 
Q 2366 -91 2075 -91 
Q 1284 -91 818 406 
Q 353 903 353 1747 
Q 353 2603 823 3093 
Q 1294 3584 2113 3584 
Q 2378 3584 2631 3529 
Q 2884 3475 3122 3366 
z
" transform="scale(0.015625)"/>
      <path id="DejaVuSans-79" d="M 2059 -325 
Q 1816 -950 1584 -1140 
Q 1353 -1331 966 -1331 
L 506 -1331 
L 506 -850 
L 844 -850 
Q 1081 -850 1212 -737 
Q 1344 -625 1503 -206 
L 1606 56 
L 191 3500 
L 800 3500 
L 1894 763 
L 2988 3500 
L 3597 3500 
L 2059 -325 
z
" transform="scale(0.015625)"/>
      <path id="DejaVuSans-41" d="M 2188 4044 
L 1331 1722 
L 3047 1722 
L 2188 4044 
z
M 1831 4666 
L 2547 4666 
L 4325 0 
L 3669 0 
L 3244 1197 
L 1141 1197 
L 716 0 
L 50 0 
L 1831 4666 
z
" transform="scale(0.015625)"/>
     </defs>
     <use xlink:href="#DejaVuSans-46"/>
     <use xlink:href="#DejaVuSans-61" transform="translate(48.394531 0)"/>
     <use xlink:href="#DejaVuSans-63" transform="translate(109.673828 0)"/>
     <use xlink:href="#DejaVuSans-74" transform="translate(164.654297 0)"/>
     <use xlink:href="#DejaVuSans-6f" transform="translate(203.863281 0)"/>
     <use xlink:href="#DejaVuSans-72" transform="translate(265.044922 0)"/>
     <use xlink:href="#DejaVuSans-79" transform="translate(306.158203 0)"/>
     <use xlink:href="#DejaVuSans-20" transform="translate(365.337891 0)"/>
     <use xlink:href="#DejaVuSans-41" transform="translate(397.125 0)"/>
    </g>
   </g>
   <g id="patch_42">
    <path d="M 168.560156 500.819272 
L 198.560156 500.819272 
L 198.560156 490.319272 
L 168.560156 490.319272 
z
" style="fill: #c0392b; stroke: #c0392b; stroke-linejoin: miter"/>
   </g>
   <g id="text_12">
    <!-- Factory B -->
    <g transform="translate(210.560156 500.819272) scale(0.15 -0.15)">
     <defs>
      <path id="DejaVuSans-42" d="M 1259 2228 
L 1259 519 
L 2272 519 
Q 2781 519 3026 730 
Q 3272 941 3272 1375 
Q 3272 1813 3026 2020 
Q 2781 2228 2272 2228 
L 1259 2228 
z
M 1259 4147 
L 1259 2741 
L 2194 2741 
Q 2656 2741 2882 2914 
Q 3109 3088 3109 3444 
Q 3109 3797 2882 3972 
Q 2656 4147 2194 4147 
L 1259 4147 
z
M 628 4666 
L 2241 4666 
Q 2963 4666 3353 4366 
Q 3744 4066 3744 3513 
Q 3744 3084 3544 2831 
Q 3344 2578 2956 2516 
Q 3422 2416 3680 2098 
Q 3938 1781 3938 1306 
Q 3938 681 3513 340 
Q 3088 0 2303 0 
L 628 0 
L 628 4666 
z
" transform="scale(0.015625)"/>
     </defs>
     <use xlink:href="#DejaVuSans-46"/>
     <use xlink:href="#DejaVuSans-61" transform="translate(48.394531 0)"/>
     <use xlink:href="#DejaVuSans-63" transform="translate(109.673828 0)"/>
     <use xlink:href="#DejaVuSans-74" transform="translate(164.654297 0)"/>
     <use xlink:href="#DejaVuSans-6f" transform="translate(203.863281 0)"/>
     <use xlink:href="#DejaVuSans-72" transform="translate(265.044922 0)"/>
     <use xlink:href="#DejaVuSans-79" transform="translate(306.158203 0)"/>
     <use xlink:href="#DejaVuSans-20" transform="translate(365.337891 0)"/>
     <use xlink:href="#DejaVuSans-42" transform="translate(397.125 0)"/>
    </g>
   </g>
   <g id="patch_43">
    <path d="M 168.560156 522.83646 
L 198.560156 522.83646 
L 198.560156 512.33646 
L 168.560156 512.33646 
z
" style="fill: #2980b9; stroke: #2980b9; stroke-linejoin: miter"/>
   </g>
   <g id="text_13">
    <!-- Retail -->
    <g transform="translate(210.560156 522.83646) scale(0.15 -0.15)">
     <defs>
      <path id="DejaVuSans-52" d="M 2841 2188 
Q 3044 2119 3236 1894 
Q 3428 1669 3622 1275 
L 4263 0 
L 3584 0 
L 2988 1197 
Q 2756 1666 2539 1819 
Q 2322 1972 1947 1972 
L 1259 1972 
L 1259 0 
L 628 0 
L 628 4666 
L 2053 4666 
Q 2853 4666 3247 4331 
Q 3641 3997 3641 3322 
Q 3641 2881 3436 2590 
Q 3231 2300 2841 2188 
z
M 1259 4147 
L 1259 2491 
L 2053 2491 
Q 2509 2491 2742 2702 
Q 2975 2913 2975 3322 
Q 2975 3731 2742 3939 
Q 2509 4147 2053 4147 
L 1259 4147 
z
" transform="scale(0.015625)"/>
     </defs>
     <use xlink:href="#DejaVuSans-52"/>
     <use xlink:href="#DejaVuSans-65" transform="translate(64.982422 0)"/>
     <use xlink:href="#DejaVuSans-74" transform="translate(126.505859 0)"/>
     <use xlink:href="#DejaVuSans-61" transform="translate(165.714844 0)"/>
     <use xlink:href="#DejaVuSans-69" transform="translate(226.994141 0)"/>
     <use xlink:href="#DejaVuSans-6c" transform="translate(254.777344 0)"/>
    </g>
   </g>
   <g id="patch_44">
    <path d="M 310.420312 500.819272 
L 340.420312 500.819272 
L 340.420312 490.319272 
L 310.420312 490.319272 
z
" style="fill: #1abc9c; stroke: #1abc9c; stroke-linejoin: miter"/>
   </g>
   <g id="text_14">
    <!-- E-commerce -->
    <g transform="translate(352.420312 500.819272) scale(0.15 -0.15)">
     <defs>
      <path id="DejaVuSans-45" d="M 628 4666 
L 3578 4666 
L 3578 4134 
L 1259 4134 
L 1259 2753 
L 3481 2753 
L 3481 2222 
L 1259 2222 
L 1259 531 
L 3634 531 
L 3634 0 
L 628 0 
L 628 4666 
z
" transform="scale(0.015625)"/>
      <path id="DejaVuSans-2d" d="M 313 2009 
L 1997 2009 
L 1997 1497 
L 313 1497 
L 313 2009 
z
" transform="scale(0.015625)"/>
      <path id="DejaVuSans-6d" d="M 3328 2828 
Q 3544 3216 3844 3400 
Q 4144 3584 4550 3584 
Q 5097 3584 5394 3201 
Q 5691 2819 5691 2113 
L 5691 0 
L 5113 0 
L 5113 2094 
Q 5113 2597 4934 2840 
Q 4756 3084 4391 3084 
Q 3944 3084 3684 2787 
Q 3425 2491 3425 1978 
L 3425 0 
L 2847 0 
L 2847 2094 
Q 2847 2600 2669 2842 
Q 2491 3084 2119 3084 
Q 1678 3084 1418 2786 
Q 1159 2488 1159 1978 
L 1159 0 
L 581 0 
L 581 3500 
L 1159 3500 
L 1159 2956 
Q 1356 3278 1631 3431 
Q 1906 3584 2284 3584 
Q 2666 3584 2933 3390 
Q 3200 3197 3328 2828 
z
" transform="scale(0.015625)"/>
     </defs>
     <use xlink:href="#DejaVuSans-45"/>
     <use xlink:href="#DejaVuSans-2d" transform="translate(63.183594 0)"/>
     <use xlink:href="#DejaVuSans-63" transform="translate(99.267578 0)"/>
     <use xlink:href="#DejaVuSans-6f" transform="translate(154.248047 0)"/>
     <use xlink:href="#DejaVuSans-6d" transform="translate(215.429688 0)"/>
     <use xlink:href="#DejaVuSans-6d" transform="translate(312.841797 0)"/>
     <use xlink:href="#DejaVuSans-65" transform="translate(410.253906 0)"/>
     <use xlink:href="#DejaVuSans-72" transform="translate(471.777344 0)"/>
     <use xlink:href="#DejaVuSans-63" transform="translate(510.640625 0)"/>
     <use xlink:href="#DejaVuSans-65" transform="translate(565.621094 0)"/>
    </g>
   </g>
   <g id="patch_45">
    <path d="M 310.420312 522.83646 
L 340.420312 522.83646 
L 340.420312 512.33646 
L 310.420312 512.33646 
z
" style="fill: #8e44ad; stroke: #8e44ad; stroke-linejoin: miter"/>
   </g>
   <g id="text_15">
    <!-- Export -->
    <g transform="translate(352.420312 522.83646) scale(0.15 -0.15)">
     <defs>
      <path id="DejaVuSans-78" d="M 3513 3500 
L 2247 1797 
L 3578 0 
L 2900 0 
L 1881 1375 
L 863 0 
L 184 0 
L 1544 1831 
L 300 3500 
L 978 3500 
L 1906 2253 
L 2834 3500 
L 3513 3500 
z
" transform="scale(0.015625)"/>
      <path id="DejaVuSans-70" d="M 1159 525 
L 1159 -1331 
L 581 -1331 
L 581 3500 
L 1159 3500 
L 1159 2969 
Q 1341 3281 1617 3432 
Q 1894 3584 2278 3584 
Q 2916 3584 3314 3078 
Q 3713 2572 3713 1747 
Q 3713 922 3314 415 
Q 2916 -91 2278 -91 
Q 1894 -91 1617 61 
Q 1341 213 1159 525 
z
M 3116 1747 
Q 3116 2381 2855 2742 
Q 2594 3103 2138 3103 
Q 1681 3103 1420 2742 
Q 1159 2381 1159 1747 
Q 1159 1113 1420 752 
Q 1681 391 2138 391 
Q 2594 391 2855 752 
Q 3116 1113 3116 1747 
z
" transform="scale(0.015625)"/>
     </defs>
     <use xlink:href="#DejaVuSans-45"/>
     <use xlink:href="#DejaVuSans-78" transform="translate(63.183594 0)"/>
     <use xlink:href="#DejaVuSans-70" transform="translate(122.363281 0)"/>
     <use xlink:href="#DejaVuSans-6f" transform="translate(185.839844 0)"/>
     <use xlink:href="#DejaVuSans-72" transform="translate(247.021484 0)"/>
     <use xlink:href="#DejaVuSans-74" transform="translate(288.134766 0)"/>
    </g>
   </g>
   <g id="patch_46">
    <path d="M 476.49375 500.819272 
L 506.49375 500.819272 
L 506.49375 490.319272 
L 476.49375 490.319272 
z
" style="fill: #f39c12; stroke: #f39c12; stroke-linejoin: miter"/>
   </g>
   <g id="text_16">
    <!-- Returns -->
    <g transform="translate(518.49375 500.819272) scale(0.15 -0.15)">
     <use xlink:href="#DejaVuSans-52"/>
     <use xlink:href="#DejaVuSans-65" transform="translate(64.982422 0)"/>
     <use xlink:href="#DejaVuSans-74" transform="translate(126.505859 0)"/>
     <use xlink:href="#DejaVuSans-75" transform="translate(165.714844 0)"/>
     <use xlink:href="#DejaVuSans-72" transform="translate(229.09375 0)"/>
     <use xlink:href="#DejaVuSans-6e" transform="translate(268.457031 0)"/>
     <use xlink:href="#DejaVuSans-73" transform="translate(331.835938 0)"/>
    </g>
   </g>
  </g>
 </g>
 <defs>
  <clipPath id="p8120902092">
   <rect x="80.081016" y="38.335991" width="443.52" height="443.52"/>
  </clipPath>
 </defs>
</svg>
