<?xml version="1.0" encoding="utf-8" standalone="no"?>
<!DOCTYPE svg PUBLIC "-//W3C//DTD SVG 1.1//EN"
  "http://www.w3.org/Graphics/SVG/1.1/DTD/svg11.dtd">
<svg xmlns:xlink="http://www.w3.org/1999/xlink" width="798.210937pt" height="508.02pt" viewBox="0 0 798.210937 508.02" xmlns="http://www.w3.org/2000/svg" version="1.1">
 <metadata>
  <rdf:RDF xmlns:dc="http://purl.org/dc/elements/1.1/" xmlns:cc="http://creativecommons.org/ns#" xmlns:rdf="http://www.w3.org/1999/02/22-rdf-syntax-ns#">
   <cc:Work>
    <dc:type rdf:resource="http://purl.org/dc/dcmitype/StillImage"/>
    <dc:date>2026-05-01T11:04:14.115163</dc:date>
    <dc:format>image/svg+xml</dc:format>
    <dc:creator>
     <cc:Agent>
      <dc:title>Matplotlib v3.10.7+dfsg1, https://matplotlib.org/</dc:title>
     </cc:Agent>
    </dc:creator>
   </cc:Work>
  </rdf:RDF>
 </metadata>
 <defs>
  <style type="text/css">*{stroke-linejoin: round; stroke-linecap: butt}</style>
 </defs>
 <g id="figure_1">
  <g id="patch_1">
   <path d="M 0 508.02 
L 798.210937 508.02 
L 798.210937 0 
L 0 0 
z
" style="fill: #ffffff"/>
  </g>
  <g id="axes_1">
   <g id="patch_2">
    <path d="M 406.305469 386.750769 
C 448.15207 386.750769 488.290376 370.124938 517.880392 340.534923 
C 547.470407 310.944907 564.096238 270.806601 564.096238 228.96 
C 564.096238 187.113399 547.470407 146.975093 517.880392 117.385077 
C 488.290376 87.795062 448.15207 71.169231 406.305469 71.169231 
C 364.458868 71.169231 324.320561 87.795062 294.730546 117.385077 
C 265.14053 146.975093 248.5147 187.113399 248.5147 228.96 
C 248.5147 270.806601 265.14053 310.944907 294.730546 340.534923 
C 324.320561 370.124938 364.458868 386.750769 406.305469 386.750769 
z
" clip-path="url(#pcc53628e19)" style="fill: #e8eef4; stroke: #e8eef4; stroke-linejoin: miter"/>
   </g>
   <g id="patch_3">
    <path d="M 406.305469 307.428923 
C 427.11567 307.428923 447.076342 299.160942 461.791376 284.445908 
C 476.506411 269.730873 484.774392 249.770202 484.774392 228.96 
C 484.774392 208.149798 476.506411 188.189127 461.791376 173.474092 
C 447.076342 158.759058 427.11567 150.491077 406.305469 150.491077 
C 385.495267 150.491077 365.534596 158.759058 350.819561 173.474092 
C 336.104526 188.189127 327.836546 208.149798 327.836546 228.96 
C 327.836546 249.770202 336.104526 269.730873 350.819561 284.445908 
C 365.534596 299.160942 385.495267 307.428923 406.305469 307.428923 
z
" clip-path="url(#pcc53628e19)" style="fill: #d5e8d4; stroke: #d5e8d4; stroke-linejoin: miter"/>
   </g>
   <g id="patch_4">
    <path d="M 365.063859 191.419162 
Q 332.763622 219.990559 299.592957 223.086314 
" clip-path="url(#pcc53628e19)" style="fill: none; opacity: 0.88; stroke: #7b2d8b; stroke-width: 3.6; stroke-linejoin: miter"/>
   </g>
   <g id="patch_5">
    <path d="M 397.107016 268.548017 
Q 454.35813 232.062644 512.437371 232.371404 
" clip-path="url(#pcc53628e19)" style="fill: none; opacity: 0.88; stroke: #7b2d8b; stroke-width: 3.6; stroke-linejoin: miter"/>
   </g>
   <g id="patch_6">
    <path d="M 451.1455 244.798384 
Q 415.691832 288.909968 411.766384 335.529617 
" clip-path="url(#pcc53628e19)" style="fill: none; opacity: 0.74; stroke: #1a6fa8; stroke-width: 2.56; stroke-linejoin: miter"/>
   </g>
   <g id="patch_7">
    <path d="M 365.063859 266.500838 
Q 322.127018 262.493625 297.173614 240.420919 
" clip-path="url(#pcc53628e19)" style="fill: none; opacity: 0.6; stroke: #49a62d; stroke-width: 1.68; stroke-linejoin: miter"/>
   </g>
   <g id="patch_8">
    <path d="M 451.1455 213.121616 
Q 415.691832 169.010032 411.766384 122.390383 
" clip-path="url(#pcc53628e19)" style="fill: none; opacity: 0.6; stroke: #49a62d; stroke-width: 1.68; stroke-linejoin: miter"/>
   </g>
   <g id="patch_9">
    <path d="M 397.107016 189.371983 
Q 454.35813 225.857356 512.437371 225.548596 
" clip-path="url(#pcc53628e19)" style="fill: none; opacity: 0.45; stroke: #999999; stroke-width: 0.96; stroke-linejoin: miter"/>
   </g>
   <g id="patch_10">
    <path d="M 523.590924 232.035258 
Q 466.339811 268.520631 408.260569 268.211871 
" clip-path="url(#pcc53628e19)" style="fill: none; opacity: 0.45; stroke: #999999; stroke-width: 0.96; stroke-linejoin: miter"/>
   </g>
   <g id="patch_11">
    <path d="M 288.542054 224.554076 
Q 320.84229 195.982678 354.012955 192.886924 
" clip-path="url(#pcc53628e19)" style="fill: none; opacity: 0.45; stroke: #999999; stroke-width: 0.96; stroke-linejoin: miter"/>
   </g>
   <g id="patch_12">
    <path d="M 382.253038 291.872906 
C 386.776995 291.872906 391.116271 290.075519 394.315192 286.876598 
C 397.514112 283.677678 399.3115 279.338402 399.3115 274.814445 
C 399.3115 270.290488 397.514112 265.951211 394.315192 262.752291 
C 391.116271 259.55337 386.776995 257.755983 382.253038 257.755983 
C 377.729081 257.755983 373.389805 259.55337 370.190884 262.752291 
C 366.991964 265.951211 365.194576 270.290488 365.194576 274.814445 
C 365.194576 279.338402 366.991964 283.677678 370.190884 286.876598 
C 373.389805 290.075519 377.729081 291.872906 382.253038 291.872906 
z
" clip-path="url(#pcc53628e19)" style="fill-opacity: 0.133333"/>
   </g>
   <g id="patch_13">
    <path d="M 459.016115 247.553723 
C 463.540072 247.553723 467.879348 245.756336 471.078269 242.557415 
C 474.277189 239.358495 476.074576 235.019218 476.074576 230.495262 
C 476.074576 225.971305 474.277189 221.632028 471.078269 218.433108 
C 467.879348 215.234187 463.540072 213.4368 459.016115 213.4368 
C 454.492158 213.4368 450.152882 215.234187 446.953961 218.433108 
C 443.75504 221.632028 441.957653 225.971305 441.957653 230.495262 
C 441.957653 235.019218 443.75504 239.358495 446.953961 242.557415 
C 450.152882 245.756336 454.492158 247.553723 459.016115 247.553723 
z
" clip-path="url(#pcc53628e19)" style="fill-opacity: 0.133333"/>
   </g>
   <g id="patch_14">
    <path d="M 382.253038 203.23454 
C 386.776995 203.23454 391.116271 201.437153 394.315192 198.238232 
C 397.514112 195.039312 399.3115 190.700035 399.3115 186.176078 
C 399.3115 181.652122 397.514112 177.312845 394.315192 174.113925 
C 391.116271 170.915004 386.776995 169.117617 382.253038 169.117617 
C 377.729081 169.117617 373.389805 170.915004 370.190884 174.113925 
C 366.991964 177.312845 365.194576 181.652122 365.194576 186.176078 
C 365.194576 190.700035 366.991964 195.039312 370.190884 198.238232 
C 373.389805 201.437153 377.729081 203.23454 382.253038 203.23454 
z
" clip-path="url(#pcc53628e19)" style="fill-opacity: 0.133333"/>
   </g>
   <g id="patch_15">
    <path d="M 279.902269 241.583262 
C 282.842841 241.583262 285.66337 240.41496 287.742669 238.335662 
C 289.821967 236.256363 290.990269 233.435834 290.990269 230.495262 
C 290.990269 227.55469 289.821967 224.73416 287.742669 222.654862 
C 285.66337 220.575563 282.842841 219.407262 279.902269 219.407262 
C 276.961697 219.407262 274.141167 220.575563 272.061869 222.654862 
C 269.98257 224.73416 268.814269 227.55469 268.814269 230.495262 
C 268.814269 233.435834 269.98257 236.256363 272.061869 238.335662 
C 274.141167 240.41496 276.961697 241.583262 279.902269 241.583262 
z
" clip-path="url(#pcc53628e19)" style="fill-opacity: 0.133333"/>
   </g>
   <g id="patch_16">
    <path d="M 535.779192 241.583262 
C 538.719764 241.583262 541.540293 240.41496 543.619592 238.335662 
C 545.69889 236.256363 546.867192 233.435834 546.867192 230.495262 
C 546.867192 227.55469 545.69889 224.73416 543.619592 222.654862 
C 541.540293 220.575563 538.719764 219.407262 535.779192 219.407262 
C 532.83862 219.407262 530.01809 220.575563 527.938792 222.654862 
C 525.859493 224.73416 524.691192 227.55469 524.691192 230.495262 
C 524.691192 233.435834 525.859493 236.256363 527.938792 238.335662 
C 530.01809 240.41496 532.83862 241.583262 535.779192 241.583262 
z
" clip-path="url(#pcc53628e19)" style="fill-opacity: 0.133333"/>
   </g>
   <g id="patch_17">
    <path d="M 407.84073 113.6448 
C 410.781302 113.6448 413.601832 112.476498 415.68113 110.3972 
C 417.760429 108.317902 418.92873 105.497372 418.92873 102.5568 
C 418.92873 99.616228 417.760429 96.795698 415.68113 94.7164 
C 413.601832 92.637102 410.781302 91.4688 407.84073 91.4688 
C 404.900158 91.4688 402.079629 92.637102 400.00033 94.7164 
C 397.921032 96.795698 396.75273 99.616228 396.75273 102.5568 
C 396.75273 105.497372 397.921032 108.317902 400.00033 110.3972 
C 402.079629 112.476498 404.900158 113.6448 407.84073 113.6448 
z
" clip-path="url(#pcc53628e19)" style="fill-opacity: 0.133333"/>
   </g>
   <g id="patch_18">
    <path d="M 407.84073 369.521723 
C 410.781302 369.521723 413.601832 368.353421 415.68113 366.274123 
C 417.760429 364.194825 418.92873 361.374295 418.92873 358.433723 
C 418.92873 355.493151 417.760429 352.672621 415.68113 350.593323 
C 413.601832 348.514025 410.781302 347.345723 407.84073 347.345723 
C 404.900158 347.345723 402.079629 348.514025 400.00033 350.593323 
C 397.921032 352.672621 396.75273 355.493151 396.75273 358.433723 
C 396.75273 361.374295 397.921032 364.194825 400.00033 366.274123 
C 402.079629 368.353421 404.900158 369.521723 407.84073 369.521723 
z
" clip-path="url(#pcc53628e19)" style="fill-opacity: 0.133333"/>
   </g>
   <g id="patch_19">
    <path d="M 380.717776 290.337645 
C 385.241733 290.337645 389.58101 288.540258 392.77993 285.341337 
C 395.978851 282.142416 397.776238 277.80314 397.776238 273.279183 
C 397.776238 268.755226 395.978851 264.41595 392.77993 261.217029 
C 389.58101 258.018109 385.241733 256.220722 380.717776 256.220722 
C 376.19382 256.220722 371.854543 258.018109 368.655623 261.217029 
C 365.456702 264.41595 363.659315 268.755226 363.659315 273.279183 
C 363.659315 277.80314 365.456702 282.142416 368.655623 285.341337 
C 371.854543 288.540258 376.19382 290.337645 380.717776 290.337645 
z
" clip-path="url(#pcc53628e19)" style="fill: #2c3e50; stroke: #ffffff; stroke-width: 2.8; stroke-linejoin: miter"/>
   </g>
   <g id="patch_20">
    <path d="M 457.480853 246.018462 
C 462.00481 246.018462 466.344087 244.221074 469.543007 241.022154 
C 472.741928 237.823233 474.539315 233.483957 474.539315 228.96 
C 474.539315 224.436043 472.741928 220.096767 469.543007 216.897846 
C 466.344087 213.698926 462.00481 211.901538 457.480853 211.901538 
C 452.956896 211.901538 448.61762 213.698926 445.4187 216.897846 
C 442.219779 220.096767 440.422392 224.436043 440.422392 228.96 
C 440.422392 233.483957 442.219779 237.823233 445.4187 241.022154 
C 448.61762 244.221074 452.956896 246.018462 457.480853 246.018462 
z
" clip-path="url(#pcc53628e19)" style="fill: #8b4513; stroke: #ffffff; stroke-width: 2.8; stroke-linejoin: miter"/>
   </g>
   <g id="patch_21">
    <path d="M 380.717776 201.699278 
C 385.241733 201.699278 389.58101 199.901891 392.77993 196.702971 
C 395.978851 193.50405 397.776238 189.164774 397.776238 184.640817 
C 397.776238 180.11686 395.978851 175.777584 392.77993 172.578663 
C 389.58101 169.379742 385.241733 167.582355 380.717776 167.582355 
C 376.19382 167.582355 371.854543 169.379742 368.655623 172.578663 
C 365.456702 175.777584 363.659315 180.11686 363.659315 184.640817 
C 363.659315 189.164774 365.456702 193.50405 368.655623 196.702971 
C 371.854543 199.901891 376.19382 201.699278 380.717776 201.699278 
z
" clip-path="url(#pcc53628e19)" style="fill: #c0392b; stroke: #ffffff; stroke-width: 2.8; stroke-linejoin: miter"/>
   </g>
   <g id="patch_22">
    <path d="M 278.367007 240.048 
C 281.307579 240.048 284.128109 238.879698 286.207407 236.8004 
C 288.286706 234.721102 289.455007 231.900572 289.455007 228.96 
C 289.455007 226.019428 288.286706 223.198898 286.207407 221.1196 
C 284.128109 219.040302 281.307579 217.872 278.367007 217.872 
C 275.426435 217.872 272.605906 219.040302 270.526607 221.1196 
C 268.447309 223.198898 267.279007 226.019428 267.279007 228.96 
C 267.279007 231.900572 268.447309 234.721102 270.526607 236.8004 
C 272.605906 238.879698 275.426435 240.048 278.367007 240.048 
z
" clip-path="url(#pcc53628e19)" style="fill: #7fb3d3; stroke: #ffffff; stroke-width: 2.8; stroke-linejoin: miter"/>
   </g>
   <g id="patch_23">
    <path d="M 534.24393 240.048 
C 537.184502 240.048 540.005032 238.879698 542.08433 236.8004 
C 544.163629 234.721102 545.33193 231.900572 545.33193 228.96 
C 545.33193 226.019428 544.163629 223.198898 542.08433 221.1196 
C 540.005032 219.040302 537.184502 217.872 534.24393 217.872 
C 531.303358 217.872 528.482829 219.040302 526.40353 221.1196 
C 524.324232 223.198898 523.15593 226.019428 523.15593 228.96 
C 523.15593 231.900572 524.324232 234.721102 526.40353 236.8004 
C 528.482829 238.879698 531.303358 240.048 534.24393 240.048 
z
" clip-path="url(#pcc53628e19)" style="fill: #82e0aa; stroke: #ffffff; stroke-width: 2.8; stroke-linejoin: miter"/>
   </g>
   <g id="patch_24">
    <path d="M 406.305469 112.109538 
C 409.246041 112.109538 412.06657 110.941237 414.145869 108.861938 
C 416.225167 106.78264 417.393469 103.96211 417.393469 101.021538 
C 417.393469 98.080966 416.225167 95.260437 414.145869 93.181138 
C 412.06657 91.10184 409.246041 89.933538 406.305469 89.933538 
C 403.364897 89.933538 400.544367 91.10184 398.465069 93.181138 
C 396.38577 95.260437 395.217469 98.080966 395.217469 101.021538 
C 395.217469 103.96211 396.38577 106.78264 398.465069 108.861938 
C 400.544367 110.941237 403.364897 112.109538 406.305469 112.109538 
z
" clip-path="url(#pcc53628e19)" style="fill: #f8c471; stroke: #ffffff; stroke-width: 2.8; stroke-linejoin: miter"/>
   </g>
   <g id="patch_25">
    <path d="M 406.305469 367.986462 
C 409.246041 367.986462 412.06657 366.81816 414.145869 364.738862 
C 416.225167 362.659563 417.393469 359.839034 417.393469 356.898462 
C 417.393469 353.95789 416.225167 351.13736 414.145869 349.058062 
C 412.06657 346.978763 409.246041 345.810462 406.305469 345.810462 
C 403.364897 345.810462 400.544367 346.978763 398.465069 349.058062 
C 396.38577 351.13736 395.217469 353.95789 395.217469 356.898462 
C 395.217469 359.839034 396.38577 362.659563 398.465069 364.738862 
C 400.544367 366.81816 403.364897 367.986462 406.305469 367.986462 
z
" clip-path="url(#pcc53628e19)" style="fill: #ec7063; stroke: #ffffff; stroke-width: 2.8; stroke-linejoin: miter"/>
   </g>
   <g id="text_1">
    <!-- Inner ring: predators  |  Outer ring: prey -->
    <g transform="translate(296.583906 56.31656) scale(0.11 -0.11)">
     <defs>
      <path id="DejaVuSans-49" d="M 628 4666 
L 1259 4666 
L 1259 0 
L 628 0 
L 628 4666 
z
" transform="scale(0.015625)"/>
      <path id="DejaVuSans-6e" d="M 3513 2113 
L 3513 0 
L 2938 0 
L 2938 2094 
Q 2938 2591 2744 2837 
Q 2550 3084 2163 3084 
Q 1697 3084 1428 2787 
Q 1159 2491 1159 1978 
L 1159 0 
L 581 0 
L 581 3500 
L 1159 3500 
L 1159 2956 
Q 1366 3272 1645 3428 
Q 1925 3584 2291 3584 
Q 2894 3584 3203 3211 
Q 3513 2838 3513 2113 
z
" transform="scale(0.015625)"/>
      <path id="DejaVuSans-65" d="M 3597 1894 
L 3597 1613 
L 953 1613 
Q 991 1019 1311 708 
Q 1631 397 2203 397 
Q 2534 397 2845 478 
Q 3156 559 3463 722 
L 3463 178 
Q 3153 47 2828 -22 
Q 2503 -91 2169 -91 
Q 1331 -91 842 396 
Q 353 884 353 1716 
Q 353 2575 817 3079 
Q 1281 3584 2069 3584 
Q 2775 3584 3186 3129 
Q 3597 2675 3597 1894 
z
M 3022 2063 
Q 3016 2534 2758 2815 
Q 2500 3097 2075 3097 
Q 1594 3097 1305 2825 
Q 1016 2553 972 2059 
L 3022 2063 
z
" transform="scale(0.015625)"/>
      <path id="DejaVuSans-72" d="M 2631 2963 
Q 2534 3019 2420 3045 
Q 2306 3072 2169 3072 
Q 1681 3072 1420 2755 
Q 1159 2438 1159 1844 
L 1159 0 
L 581 0 
L 581 3500 
L 1159 3500 
L 1159 2956 
Q 1341 3275 1631 3429 
Q 1922 3584 2338 3584 
Q 2397 3584 2469 3576 
Q 2541 3569 2628 3553 
L 2631 2963 
z
" transform="scale(0.015625)"/>
      <path id="DejaVuSans-20" transform="scale(0.015625)"/>
      <path id="DejaVuSans-69" d="M 603 3500 
L 1178 3500 
L 1178 0 
L 603 0 
L 603 3500 
z
M 603 4863 
L 1178 4863 
L 1178 4134 
L 603 4134 
L 603 4863 
z
" transform="scale(0.015625)"/>
      <path id="DejaVuSans-67" d="M 2906 1791 
Q 2906 2416 2648 2759 
Q 2391 3103 1925 3103 
Q 1463 3103 1205 2759 
Q 947 2416 947 1791 
Q 947 1169 1205 825 
Q 1463 481 1925 481 
Q 2391 481 2648 825 
Q 2906 1169 2906 1791 
z
M 3481 434 
Q 3481 -459 3084 -895 
Q 2688 -1331 1869 -1331 
Q 1566 -1331 1297 -1286 
Q 1028 -1241 775 -1147 
L 775 -588 
Q 1028 -725 1275 -790 
Q 1522 -856 1778 -856 
Q 2344 -856 2625 -561 
Q 2906 -266 2906 331 
L 2906 616 
Q 2728 306 2450 153 
Q 2172 0 1784 0 
Q 1141 0 747 490 
Q 353 981 353 1791 
Q 353 2603 747 3093 
Q 1141 3584 1784 3584 
Q 2172 3584 2450 3431 
Q 2728 3278 2906 2969 
L 2906 3500 
L 3481 3500 
L 3481 434 
z
" transform="scale(0.015625)"/>
      <path id="DejaVuSans-3a" d="M 750 794 
L 1409 794 
L 1409 0 
L 750 0 
L 750 794 
z
M 750 3309 
L 1409 3309 
L 1409 2516 
L 750 2516 
L 750 3309 
z
" transform="scale(0.015625)"/>
      <path id="DejaVuSans-70" d="M 1159 525 
L 1159 -1331 
L 581 -1331 
L 581 3500 
L 1159 3500 
L 1159 2969 
Q 1341 3281 1617 3432 
Q 1894 3584 2278 3584 
Q 2916 3584 3314 3078 
Q 3713 2572 3713 1747 
Q 3713 922 3314 415 
Q 2916 -91 2278 -91 
Q 1894 -91 1617 61 
Q 1341 213 1159 525 
z
M 3116 1747 
Q 3116 2381 2855 2742 
Q 2594 3103 2138 3103 
Q 1681 3103 1420 2742 
Q 1159 2381 1159 1747 
Q 1159 1113 1420 752 
Q 1681 391 2138 391 
Q 2594 391 2855 752 
Q 3116 1113 3116 1747 
z
" transform="scale(0.015625)"/>
      <path id="DejaVuSans-64" d="M 2906 2969 
L 2906 4863 
L 3481 4863 
L 3481 0 
L 2906 0 
L 2906 525 
Q 2725 213 2448 61 
Q 2172 -91 1784 -91 
Q 1150 -91 751 415 
Q 353 922 353 1747 
Q 353 2572 751 3078 
Q 1150 3584 1784 3584 
Q 2172 3584 2448 3432 
Q 2725 3281 2906 2969 
z
M 947 1747 
Q 947 1113 1208 752 
Q 1469 391 1925 391 
Q 2381 391 2643 752 
Q 2906 1113 2906 1747 
Q 2906 2381 2643 2742 
Q 2381 3103 1925 3103 
Q 1469 3103 1208 2742 
Q 947 2381 947 1747 
z
" transform="scale(0.015625)"/>
      <path id="DejaVuSans-61" d="M 2194 1759 
Q 1497 1759 1228 1600 
Q 959 1441 959 1056 
Q 959 750 1161 570 
Q 1363 391 1709 391 
Q 2188 391 2477 730 
Q 2766 1069 2766 1631 
L 2766 1759 
L 2194 1759 
z
M 3341 1997 
L 3341 0 
L 2766 0 
L 2766 531 
Q 2569 213 2275 61 
Q 1981 -91 1556 -91 
Q 1019 -91 701 211 
Q 384 513 384 1019 
Q 384 1609 779 1909 
Q 1175 2209 1959 2209 
L 2766 2209 
L 2766 2266 
Q 2766 2663 2505 2880 
Q 2244 3097 1772 3097 
Q 1472 3097 1187 3025 
Q 903 2953 641 2809 
L 641 3341 
Q 956 3463 1253 3523 
Q 1550 3584 1831 3584 
Q 2591 3584 2966 3190 
Q 3341 2797 3341 1997 
z
" transform="scale(0.015625)"/>
      <path id="DejaVuSans-74" d="M 1172 4494 
L 1172 3500 
L 2356 3500 
L 2356 3053 
L 1172 3053 
L 1172 1153 
Q 1172 725 1289 603 
Q 1406 481 1766 481 
L 2356 481 
L 2356 0 
L 1766 0 
Q 1100 0 847 248 
Q 594 497 594 1153 
L 594 3053 
L 172 3053 
L 172 3500 
L 594 3500 
L 594 4494 
L 1172 4494 
z
" transform="scale(0.015625)"/>
      <path id="DejaVuSans-6f" d="M 1959 3097 
Q 1497 3097 1228 2736 
Q 959 2375 959 1747 
Q 959 1119 1226 758 
Q 1494 397 1959 397 
Q 2419 397 2687 759 
Q 2956 1122 2956 1747 
Q 2956 2369 2687 2733 
Q 2419 3097 1959 3097 
z
M 1959 3584 
Q 2709 3584 3137 3096 
Q 3566 2609 3566 1747 
Q 3566 888 3137 398 
Q 2709 -91 1959 -91 
Q 1206 -91 779 398 
Q 353 888 353 1747 
Q 353 2609 779 3096 
Q 1206 3584 1959 3584 
z
" transform="scale(0.015625)"/>
      <path id="DejaVuSans-73" d="M 2834 3397 
L 2834 2853 
Q 2591 2978 2328 3040 
Q 2066 3103 1784 3103 
Q 1356 3103 1142 2972 
Q 928 2841 928 2578 
Q 928 2378 1081 2264 
Q 1234 2150 1697 2047 
L 1894 2003 
Q 2506 1872 2764 1633 
Q 3022 1394 3022 966 
Q 3022 478 2636 193 
Q 2250 -91 1575 -91 
Q 1294 -91 989 -36 
Q 684 19 347 128 
L 347 722 
Q 666 556 975 473 
Q 1284 391 1588 391 
Q 1994 391 2212 530 
Q 2431 669 2431 922 
Q 2431 1156 2273 1281 
Q 2116 1406 1581 1522 
L 1381 1569 
Q 847 1681 609 1914 
Q 372 2147 372 2553 
Q 372 3047 722 3315 
Q 1072 3584 1716 3584 
Q 2034 3584 2315 3537 
Q 2597 3491 2834 3397 
z
" transform="scale(0.015625)"/>
      <path id="DejaVuSans-7c" d="M 1344 4891 
L 1344 -1509 
L 813 -1509 
L 813 4891 
L 1344 4891 
z
" transform="scale(0.015625)"/>
      <path id="DejaVuSans-4f" d="M 2522 4238 
Q 1834 4238 1429 3725 
Q 1025 3213 1025 2328 
Q 1025 1447 1429 934 
Q 1834 422 2522 422 
Q 3209 422 3611 934 
Q 4013 1447 4013 2328 
Q 4013 3213 3611 3725 
Q 3209 4238 2522 4238 
z
M 2522 4750 
Q 3503 4750 4090 4092 
Q 4678 3434 4678 2328 
Q 4678 1225 4090 567 
Q 3503 -91 2522 -91 
Q 1538 -91 948 565 
Q 359 1222 359 2328 
Q 359 3434 948 4092 
Q 1538 4750 2522 4750 
z
" transform="scale(0.015625)"/>
      <path id="DejaVuSans-75" d="M 544 1381 
L 544 3500 
L 1119 3500 
L 1119 1403 
Q 1119 906 1312 657 
Q 1506 409 1894 409 
Q 2359 409 2629 706 
Q 2900 1003 2900 1516 
L 2900 3500 
L 3475 3500 
L 3475 0 
L 2900 0 
L 2900 538 
Q 2691 219 2414 64 
Q 2138 -91 1772 -91 
Q 1169 -91 856 284 
Q 544 659 544 1381 
z
M 1991 3584 
L 1991 3584 
z
" transform="scale(0.015625)"/>
      <path id="DejaVuSans-79" d="M 2059 -325 
Q 1816 -950 1584 -1140 
Q 1353 -1331 966 -1331 
L 506 -1331 
L 506 -850 
L 844 -850 
Q 1081 -850 1212 -737 
Q 1344 -625 1503 -206 
L 1606 56 
L 191 3500 
L 800 3500 
L 1894 763 
L 2988 3500 
L 3597 3500 
L 2059 -325 
z
" transform="scale(0.015625)"/>
     </defs>
     <use xlink:href="#DejaVuSans-49"/>
     <use xlink:href="#DejaVuSans-6e" transform="translate(29.492188 0)"/>
     <use xlink:href="#DejaVuSans-6e" transform="translate(92.871094 0)"/>
     <use xlink:href="#DejaVuSans-65" transform="translate(156.25 0)"/>
     <use xlink:href="#DejaVuSans-72" transform="translate(217.773438 0)"/>
     <use xlink:href="#DejaVuSans-20" transform="translate(258.886719 0)"/>
     <use xlink:href="#DejaVuSans-72" transform="translate(290.673828 0)"/>
     <use xlink:href="#DejaVuSans-69" transform="translate(331.787109 0)"/>
     <use xlink:href="#DejaVuSans-6e" transform="translate(359.570312 0)"/>
     <use xlink:href="#DejaVuSans-67" transform="translate(422.949219 0)"/>
     <use xlink:href="#DejaVuSans-3a" transform="translate(486.425781 0)"/>
     <use xlink:href="#DejaVuSans-20" transform="translate(520.117188 0)"/>
     <use xlink:href="#DejaVuSans-70" transform="translate(551.904297 0)"/>
     <use xlink:href="#DejaVuSans-72" transform="translate(615.380859 0)"/>
     <use xlink:href="#DejaVuSans-65" transform="translate(654.244141 0)"/>
     <use xlink:href="#DejaVuSans-64" transform="translate(715.767578 0)"/>
     <use xlink:href="#DejaVuSans-61" transform="translate(779.244141 0)"/>
     <use xlink:href="#DejaVuSans-74" transform="translate(840.523438 0)"/>
     <use xlink:href="#DejaVuSans-6f" transform="translate(879.732422 0)"/>
     <use xlink:href="#DejaVuSans-72" transform="translate(940.914062 0)"/>
     <use xlink:href="#DejaVuSans-73" transform="translate(982.027344 0)"/>
     <use xlink:href="#DejaVuSans-20" transform="translate(1034.126953 0)"/>
     <use xlink:href="#DejaVuSans-20" transform="translate(1065.914062 0)"/>
     <use xlink:href="#DejaVuSans-7c" transform="translate(1097.701172 0)"/>
     <use xlink:href="#DejaVuSans-20" transform="translate(1131.392578 0)"/>
     <use xlink:href="#DejaVuSans-20" transform="translate(1163.179688 0)"/>
     <use xlink:href="#DejaVuSans-4f" transform="translate(1194.966797 0)"/>
     <use xlink:href="#DejaVuSans-75" transform="translate(1273.677734 0)"/>
     <use xlink:href="#DejaVuSans-74" transform="translate(1337.056641 0)"/>
     <use xlink:href="#DejaVuSans-65" transform="translate(1376.265625 0)"/>
     <use xlink:href="#DejaVuSans-72" transform="translate(1437.789062 0)"/>
     <use xlink:href="#DejaVuSans-20" transform="translate(1478.902344 0)"/>
     <use xlink:href="#DejaVuSans-72" transform="translate(1510.689453 0)"/>
     <use xlink:href="#DejaVuSans-69" transform="translate(1551.802734 0)"/>
     <use xlink:href="#DejaVuSans-6e" transform="translate(1579.585938 0)"/>
     <use xlink:href="#DejaVuSans-67" transform="translate(1642.964844 0)"/>
     <use xlink:href="#DejaVuSans-3a" transform="translate(1706.441406 0)"/>
     <use xlink:href="#DejaVuSans-20" transform="translate(1740.132812 0)"/>
     <use xlink:href="#DejaVuSans-70" transform="translate(1771.919922 0)"/>
     <use xlink:href="#DejaVuSans-72" transform="translate(1835.396484 0)"/>
     <use xlink:href="#DejaVuSans-65" transform="translate(1874.259766 0)"/>
     <use xlink:href="#DejaVuSans-79" transform="translate(1935.783203 0)"/>
    </g>
   </g>
   <g id="text_2">
    <!-- Predator-Prey Food Web -->
    <g transform="translate(254.347344 37.962966) scale(0.22 -0.22)">
     <defs>
      <path id="DejaVuSans-Bold-50" d="M 588 4666 
L 2584 4666 
Q 3475 4666 3951 4270 
Q 4428 3875 4428 3144 
Q 4428 2409 3951 2014 
Q 3475 1619 2584 1619 
L 1791 1619 
L 1791 0 
L 588 0 
L 588 4666 
z
M 1791 3794 
L 1791 2491 
L 2456 2491 
Q 2806 2491 2997 2661 
Q 3188 2831 3188 3144 
Q 3188 3456 2997 3625 
Q 2806 3794 2456 3794 
L 1791 3794 
z
" transform="scale(0.015625)"/>
      <path id="DejaVuSans-Bold-72" d="M 3138 2547 
Q 2991 2616 2845 2648 
Q 2700 2681 2553 2681 
Q 2122 2681 1889 2404 
Q 1656 2128 1656 1613 
L 1656 0 
L 538 0 
L 538 3500 
L 1656 3500 
L 1656 2925 
Q 1872 3269 2151 3426 
Q 2431 3584 2822 3584 
Q 2878 3584 2943 3579 
Q 3009 3575 3134 3559 
L 3138 2547 
z
" transform="scale(0.015625)"/>
      <path id="DejaVuSans-Bold-65" d="M 4031 1759 
L 4031 1441 
L 1416 1441 
Q 1456 1047 1700 850 
Q 1944 653 2381 653 
Q 2734 653 3104 758 
Q 3475 863 3866 1075 
L 3866 213 
Q 3469 63 3072 -14 
Q 2675 -91 2278 -91 
Q 1328 -91 801 392 
Q 275 875 275 1747 
Q 275 2603 792 3093 
Q 1309 3584 2216 3584 
Q 3041 3584 3536 3087 
Q 4031 2591 4031 1759 
z
M 2881 2131 
Q 2881 2450 2695 2645 
Q 2509 2841 2209 2841 
Q 1884 2841 1681 2658 
Q 1478 2475 1428 2131 
L 2881 2131 
z
" transform="scale(0.015625)"/>
      <path id="DejaVuSans-Bold-64" d="M 2919 2988 
L 2919 4863 
L 4044 4863 
L 4044 0 
L 2919 0 
L 2919 506 
Q 2688 197 2409 53 
Q 2131 -91 1766 -91 
Q 1119 -91 703 423 
Q 288 938 288 1747 
Q 288 2556 703 3070 
Q 1119 3584 1766 3584 
Q 2128 3584 2408 3439 
Q 2688 3294 2919 2988 
z
M 2181 722 
Q 2541 722 2730 984 
Q 2919 1247 2919 1747 
Q 2919 2247 2730 2509 
Q 2541 2772 2181 2772 
Q 1825 2772 1636 2509 
Q 1447 2247 1447 1747 
Q 1447 1247 1636 984 
Q 1825 722 2181 722 
z
" transform="scale(0.015625)"/>
      <path id="DejaVuSans-Bold-61" d="M 2106 1575 
Q 1756 1575 1579 1456 
Q 1403 1338 1403 1106 
Q 1403 894 1545 773 
Q 1688 653 1941 653 
Q 2256 653 2472 879 
Q 2688 1106 2688 1447 
L 2688 1575 
L 2106 1575 
z
M 3816 1997 
L 3816 0 
L 2688 0 
L 2688 519 
Q 2463 200 2181 54 
Q 1900 -91 1497 -91 
Q 953 -91 614 226 
Q 275 544 275 1050 
Q 275 1666 698 1953 
Q 1122 2241 2028 2241 
L 2688 2241 
L 2688 2328 
Q 2688 2594 2478 2717 
Q 2269 2841 1825 2841 
Q 1466 2841 1156 2769 
Q 847 2697 581 2553 
L 581 3406 
Q 941 3494 1303 3539 
Q 1666 3584 2028 3584 
Q 2975 3584 3395 3211 
Q 3816 2838 3816 1997 
z
" transform="scale(0.015625)"/>
      <path id="DejaVuSans-Bold-74" d="M 1759 4494 
L 1759 3500 
L 2913 3500 
L 2913 2700 
L 1759 2700 
L 1759 1216 
Q 1759 972 1856 886 
Q 1953 800 2241 800 
L 2816 800 
L 2816 0 
L 1856 0 
Q 1194 0 917 276 
Q 641 553 641 1216 
L 641 2700 
L 84 2700 
L 84 3500 
L 641 3500 
L 641 4494 
L 1759 4494 
z
" transform="scale(0.015625)"/>
      <path id="DejaVuSans-Bold-6f" d="M 2203 2784 
Q 1831 2784 1636 2517 
Q 1441 2250 1441 1747 
Q 1441 1244 1636 976 
Q 1831 709 2203 709 
Q 2569 709 2762 976 
Q 2956 1244 2956 1747 
Q 2956 2250 2762 2517 
Q 2569 2784 2203 2784 
z
M 2203 3584 
Q 3106 3584 3614 3096 
Q 4122 2609 4122 1747 
Q 4122 884 3614 396 
Q 3106 -91 2203 -91 
Q 1297 -91 786 396 
Q 275 884 275 1747 
Q 275 2609 786 3096 
Q 1297 3584 2203 3584 
z
" transform="scale(0.015625)"/>
      <path id="DejaVuSans-Bold-2d" d="M 347 2297 
L 2309 2297 
L 2309 1388 
L 347 1388 
L 347 2297 
z
" transform="scale(0.015625)"/>
      <path id="DejaVuSans-Bold-79" d="M 78 3500 
L 1197 3500 
L 2138 1125 
L 2938 3500 
L 4056 3500 
L 2584 -331 
Q 2363 -916 2067 -1148 
Q 1772 -1381 1288 -1381 
L 641 -1381 
L 641 -647 
L 991 -647 
Q 1275 -647 1404 -556 
Q 1534 -466 1606 -231 
L 1638 -134 
L 78 3500 
z
" transform="scale(0.015625)"/>
      <path id="DejaVuSans-Bold-20" transform="scale(0.015625)"/>
      <path id="DejaVuSans-Bold-46" d="M 588 4666 
L 3834 4666 
L 3834 3756 
L 1791 3756 
L 1791 2888 
L 3713 2888 
L 3713 1978 
L 1791 1978 
L 1791 0 
L 588 0 
L 588 4666 
z
" transform="scale(0.015625)"/>
      <path id="DejaVuSans-Bold-57" d="M 191 4666 
L 1344 4666 
L 2150 1275 
L 2950 4666 
L 4109 4666 
L 4909 1275 
L 5716 4666 
L 6859 4666 
L 5759 0 
L 4372 0 
L 3525 3547 
L 2688 0 
L 1300 0 
L 191 4666 
z
" transform="scale(0.015625)"/>
      <path id="DejaVuSans-Bold-62" d="M 2400 722 
Q 2759 722 2948 984 
Q 3138 1247 3138 1747 
Q 3138 2247 2948 2509 
Q 2759 2772 2400 2772 
Q 2041 2772 1848 2508 
Q 1656 2244 1656 1747 
Q 1656 1250 1848 986 
Q 2041 722 2400 722 
z
M 1656 2988 
Q 1888 3294 2169 3439 
Q 2450 3584 2816 3584 
Q 3463 3584 3878 3070 
Q 4294 2556 4294 1747 
Q 4294 938 3878 423 
Q 3463 -91 2816 -91 
Q 2450 -91 2169 54 
Q 1888 200 1656 506 
L 1656 0 
L 538 0 
L 538 4863 
L 1656 4863 
L 1656 2988 
z
" transform="scale(0.015625)"/>
     </defs>
     <use xlink:href="#DejaVuSans-Bold-50"/>
     <use xlink:href="#DejaVuSans-Bold-72" transform="translate(73.291016 0)"/>
     <use xlink:href="#DejaVuSans-Bold-65" transform="translate(122.607422 0)"/>
     <use xlink:href="#DejaVuSans-Bold-64" transform="translate(190.429688 0)"/>
     <use xlink:href="#DejaVuSans-Bold-61" transform="translate(262.011719 0)"/>
     <use xlink:href="#DejaVuSans-Bold-74" transform="translate(329.492188 0)"/>
     <use xlink:href="#DejaVuSans-Bold-6f" transform="translate(377.294922 0)"/>
     <use xlink:href="#DejaVuSans-Bold-72" transform="translate(445.996094 0)"/>
     <use xlink:href="#DejaVuSans-Bold-2d" transform="translate(495.3125 0)"/>
     <use xlink:href="#DejaVuSans-Bold-50" transform="translate(536.816406 0)"/>
     <use xlink:href="#DejaVuSans-Bold-72" transform="translate(610.107422 0)"/>
     <use xlink:href="#DejaVuSans-Bold-65" transform="translate(659.423828 0)"/>
     <use xlink:href="#DejaVuSans-Bold-79" transform="translate(727.246094 0)"/>
     <use xlink:href="#DejaVuSans-Bold-20" transform="translate(792.431641 0)"/>
     <use xlink:href="#DejaVuSans-Bold-46" transform="translate(827.246094 0)"/>
     <use xlink:href="#DejaVuSans-Bold-6f" transform="translate(891.556641 0)"/>
     <use xlink:href="#DejaVuSans-Bold-6f" transform="translate(960.257812 0)"/>
     <use xlink:href="#DejaVuSans-Bold-64" transform="translate(1028.958984 0)"/>
     <use xlink:href="#DejaVuSans-Bold-20" transform="translate(1100.541016 0)"/>
     <use xlink:href="#DejaVuSans-Bold-57" transform="translate(1135.355469 0)"/>
     <use xlink:href="#DejaVuSans-Bold-65" transform="translate(1242.033203 0)"/>
     <use xlink:href="#DejaVuSans-Bold-62" transform="translate(1309.855469 0)"/>
    </g>
   </g>
   <g id="patch_26">
    <path d="M 375.941407 275.667368 
C 377.841469 275.667368 379.663965 274.912465 381.007512 273.568919 
C 382.351058 272.225372 383.105961 270.402876 383.105961 268.502814 
C 383.105961 266.602752 382.351058 264.780256 381.007512 263.436709 
C 379.663965 262.093163 377.841469 261.33826 375.941407 261.33826 
C 374.041345 261.33826 372.218849 262.093163 370.875303 263.436709 
C 369.531756 264.780256 368.776853 266.602752 368.776853 268.502814 
C 368.776853 270.402876 369.531756 272.225372 370.875303 273.568919 
C 372.218849 274.912465 374.041345 275.667368 375.941407 275.667368 
z
" clip-path="url(#pcc53628e19)" style="fill: #ffffff; opacity: 0.22"/>
   </g>
   <g id="patch_27">
    <path d="M 452.704484 231.348185 
C 454.604546 231.348185 456.427042 230.593282 457.770589 229.249735 
C 459.114135 227.906189 459.869038 226.083693 459.869038 224.183631 
C 459.869038 222.283569 459.114135 220.461073 457.770589 219.117526 
C 456.427042 217.77398 454.604546 217.019077 452.704484 217.019077 
C 450.804422 217.019077 448.981926 217.77398 447.63838 219.117526 
C 446.294833 220.461073 445.53993 222.283569 445.53993 224.183631 
C 445.53993 226.083693 446.294833 227.906189 447.63838 229.249735 
C 448.981926 230.593282 450.804422 231.348185 452.704484 231.348185 
z
" clip-path="url(#pcc53628e19)" style="fill: #ffffff; opacity: 0.22"/>
   </g>
   <g id="patch_28">
    <path d="M 375.941407 187.029001 
C 377.841469 187.029001 379.663965 186.274099 381.007512 184.930552 
C 382.351058 183.587006 383.105961 181.76451 383.105961 179.864448 
C 383.105961 177.964386 382.351058 176.14189 381.007512 174.798343 
C 379.663965 173.454796 377.841469 172.699894 375.941407 172.699894 
C 374.041345 172.699894 372.218849 173.454796 370.875303 174.798343 
C 369.531756 176.14189 368.776853 177.964386 368.776853 179.864448 
C 368.776853 181.76451 369.531756 183.587006 370.875303 184.930552 
C 372.218849 186.274099 374.041345 187.029001 375.941407 187.029001 
z
" clip-path="url(#pcc53628e19)" style="fill: #ffffff; opacity: 0.22"/>
   </g>
   <g id="patch_29">
    <path d="M 275.262367 230.51232 
C 276.497407 230.51232 277.68203 230.021633 278.555335 229.148328 
C 279.428641 228.275023 279.919327 227.0904 279.919327 225.85536 
C 279.919327 224.62032 279.428641 223.435697 278.555335 222.562392 
C 277.68203 221.689087 276.497407 221.1984 275.262367 221.1984 
C 274.027327 221.1984 272.842705 221.689087 271.969399 222.562392 
C 271.096094 223.435697 270.605407 224.62032 270.605407 225.85536 
C 270.605407 227.0904 271.096094 228.275023 271.969399 229.148328 
C 272.842705 230.021633 274.027327 230.51232 275.262367 230.51232 
z
" clip-path="url(#pcc53628e19)" style="fill: #ffffff; opacity: 0.22"/>
   </g>
   <g id="patch_30">
    <path d="M 531.13929 230.51232 
C 532.374331 230.51232 533.558953 230.021633 534.432258 229.148328 
C 535.305564 228.275023 535.79625 227.0904 535.79625 225.85536 
C 535.79625 224.62032 535.305564 223.435697 534.432258 222.562392 
C 533.558953 221.689087 532.374331 221.1984 531.13929 221.1984 
C 529.90425 221.1984 528.719628 221.689087 527.846322 222.562392 
C 526.973017 223.435697 526.48233 224.62032 526.48233 225.85536 
C 526.48233 227.0904 526.973017 228.275023 527.846322 229.148328 
C 528.719628 230.021633 529.90425 230.51232 531.13929 230.51232 
z
" clip-path="url(#pcc53628e19)" style="fill: #ffffff; opacity: 0.22"/>
   </g>
   <g id="patch_31">
    <path d="M 403.200829 102.573858 
C 404.435869 102.573858 405.620491 102.083172 406.493797 101.209866 
C 407.367102 100.336561 407.857789 99.151939 407.857789 97.916898 
C 407.857789 96.681858 407.367102 95.497236 406.493797 94.62393 
C 405.620491 93.750625 404.435869 93.259938 403.200829 93.259938 
C 401.965789 93.259938 400.781166 93.750625 399.907861 94.62393 
C 399.034555 95.497236 398.543869 96.681858 398.543869 97.916898 
C 398.543869 99.151939 399.034555 100.336561 399.907861 101.209866 
C 400.781166 102.083172 401.965789 102.573858 403.200829 102.573858 
z
" clip-path="url(#pcc53628e19)" style="fill: #ffffff; opacity: 0.22"/>
   </g>
   <g id="patch_32">
    <path d="M 403.200829 358.450782 
C 404.435869 358.450782 405.620491 357.960095 406.493797 357.08679 
C 407.367102 356.213484 407.857789 355.028862 407.857789 353.793822 
C 407.857789 352.558781 407.367102 351.374159 406.493797 350.500854 
C 405.620491 349.627548 404.435869 349.136862 403.200829 349.136862 
C 401.965789 349.136862 400.781166 349.627548 399.907861 350.500854 
C 399.034555 351.374159 398.543869 352.558781 398.543869 353.793822 
C 398.543869 355.028862 399.034555 356.213484 399.907861 357.08679 
C 400.781166 357.960095 401.965789 358.450782 403.200829 358.450782 
z
" clip-path="url(#pcc53628e19)" style="fill: #ffffff; opacity: 0.22"/>
   </g>
   <g id="patch_33">
    <path d="M 289.826782 223.997772 
L 299.315557 220.113999 
L 299.870358 226.058628 
z
" clip-path="url(#pcc53628e19)" style="fill: #7b2d8b; opacity: 0.88"/>
   </g>
   <g id="patch_34">
    <path d="M 522.245848 232.423548 
L 512.421501 235.356593 
L 512.453241 229.386216 
z
" clip-path="url(#pcc53628e19)" style="fill: #7b2d8b; opacity: 0.88"/>
   </g>
   <g id="patch_35">
    <path d="M 410.943396 345.303645 
L 408.79168 335.279142 
L 414.741088 335.780091 
z
" clip-path="url(#pcc53628e19)" style="fill: #1a6fa8; opacity: 0.74"/>
   </g>
   <g id="patch_36">
    <path d="M 289.826782 233.922228 
L 299.151477 238.184927 
L 295.195752 242.656912 
z
" clip-path="url(#pcc53628e19)" style="fill: #49a62d; opacity: 0.6"/>
   </g>
   <g id="patch_37">
    <path d="M 410.943396 112.616355 
L 414.741088 122.139909 
L 408.79168 122.640858 
z
" clip-path="url(#pcc53628e19)" style="fill: #49a62d; opacity: 0.6"/>
   </g>
   <g id="patch_38">
    <path d="M 522.245848 225.496452 
L 512.453241 228.533784 
L 512.421501 222.563407 
z
" clip-path="url(#pcc53628e19)" style="fill: #999999; opacity: 0.45"/>
   </g>
   <g id="patch_39">
    <path d="M 398.452093 268.159727 
L 408.276439 265.226682 
L 408.2447 271.197059 
z
" clip-path="url(#pcc53628e19)" style="fill: #999999; opacity: 0.45"/>
   </g>
   <g id="patch_40">
    <path d="M 363.77913 191.975466 
L 354.290356 195.859238 
L 353.735555 189.91461 
z
" clip-path="url(#pcc53628e19)" style="fill: #999999; opacity: 0.45"/>
   </g>
   <g id="text_3">
    <!-- Wolf -->
    <g transform="translate(338.398103 303.079594) scale(0.12 -0.12)">
     <defs>
      <path id="DejaVuSans-Bold-6c" d="M 538 4863 
L 1656 4863 
L 1656 0 
L 538 0 
L 538 4863 
z
" transform="scale(0.015625)"/>
      <path id="DejaVuSans-Bold-66" d="M 2841 4863 
L 2841 4128 
L 2222 4128 
Q 1984 4128 1890 4042 
Q 1797 3956 1797 3744 
L 1797 3500 
L 2753 3500 
L 2753 2700 
L 1797 2700 
L 1797 0 
L 678 0 
L 678 2700 
L 122 2700 
L 122 3500 
L 678 3500 
L 678 3744 
Q 678 4316 997 4589 
Q 1316 4863 1984 4863 
L 2841 4863 
z
" transform="scale(0.015625)"/>
     </defs>
     <use xlink:href="#DejaVuSans-Bold-57"/>
     <use xlink:href="#DejaVuSans-Bold-6f" transform="translate(106.677734 0)"/>
     <use xlink:href="#DejaVuSans-Bold-6c" transform="translate(175.378906 0)"/>
     <use xlink:href="#DejaVuSans-Bold-66" transform="translate(209.65625 0)"/>
    </g>
   </g>
   <g id="text_4">
    <!-- Eagle -->
    <g transform="translate(481.068674 228.488431) scale(0.12 -0.12)">
     <defs>
      <path id="DejaVuSans-Bold-45" d="M 588 4666 
L 3834 4666 
L 3834 3756 
L 1791 3756 
L 1791 2888 
L 3713 2888 
L 3713 1978 
L 1791 1978 
L 1791 909 
L 3903 909 
L 3903 0 
L 588 0 
L 588 4666 
z
" transform="scale(0.015625)"/>
      <path id="DejaVuSans-Bold-67" d="M 2919 594 
Q 2688 288 2409 144 
Q 2131 0 1766 0 
Q 1125 0 706 504 
Q 288 1009 288 1791 
Q 288 2575 706 3076 
Q 1125 3578 1766 3578 
Q 2131 3578 2409 3434 
Q 2688 3291 2919 2981 
L 2919 3500 
L 4044 3500 
L 4044 353 
Q 4044 -491 3511 -936 
Q 2978 -1381 1966 -1381 
Q 1638 -1381 1331 -1331 
Q 1025 -1281 716 -1178 
L 716 -306 
Q 1009 -475 1290 -558 
Q 1572 -641 1856 -641 
Q 2406 -641 2662 -400 
Q 2919 -159 2919 353 
L 2919 594 
z
M 2181 2772 
Q 1834 2772 1640 2515 
Q 1447 2259 1447 1791 
Q 1447 1309 1634 1061 
Q 1822 813 2181 813 
Q 2531 813 2725 1069 
Q 2919 1325 2919 1791 
Q 2919 2259 2725 2515 
Q 2531 2772 2181 2772 
z
" transform="scale(0.015625)"/>
     </defs>
     <use xlink:href="#DejaVuSans-Bold-45"/>
     <use xlink:href="#DejaVuSans-Bold-61" transform="translate(68.310547 0)"/>
     <use xlink:href="#DejaVuSans-Bold-67" transform="translate(135.791016 0)"/>
     <use xlink:href="#DejaVuSans-Bold-6c" transform="translate(207.373047 0)"/>
     <use xlink:href="#DejaVuSans-Bold-65" transform="translate(241.650391 0)"/>
    </g>
   </g>
   <g id="text_5">
    <!-- Lynx -->
    <g transform="translate(337.835603 161.369156) scale(0.12 -0.12)">
     <defs>
      <path id="DejaVuSans-Bold-4c" d="M 588 4666 
L 1791 4666 
L 1791 909 
L 3903 909 
L 3903 0 
L 588 0 
L 588 4666 
z
" transform="scale(0.015625)"/>
      <path id="DejaVuSans-Bold-6e" d="M 4056 2131 
L 4056 0 
L 2931 0 
L 2931 347 
L 2931 1631 
Q 2931 2084 2911 2256 
Q 2891 2428 2841 2509 
Q 2775 2619 2662 2680 
Q 2550 2741 2406 2741 
Q 2056 2741 1856 2470 
Q 1656 2200 1656 1722 
L 1656 0 
L 538 0 
L 538 3500 
L 1656 3500 
L 1656 2988 
Q 1909 3294 2193 3439 
Q 2478 3584 2822 3584 
Q 3428 3584 3742 3212 
Q 4056 2841 4056 2131 
z
" transform="scale(0.015625)"/>
      <path id="DejaVuSans-Bold-78" d="M 1422 1791 
L 159 3500 
L 1344 3500 
L 2059 2463 
L 2784 3500 
L 3969 3500 
L 2706 1797 
L 4031 0 
L 2847 0 
L 2059 1106 
L 1281 0 
L 97 0 
L 1422 1791 
z
" transform="scale(0.015625)"/>
     </defs>
     <use xlink:href="#DejaVuSans-Bold-4c"/>
     <use xlink:href="#DejaVuSans-Bold-79" transform="translate(56.970703 0)"/>
     <use xlink:href="#DejaVuSans-Bold-6e" transform="translate(122.15625 0)"/>
     <use xlink:href="#DejaVuSans-Bold-78" transform="translate(193.347656 0)"/>
    </g>
   </g>
   <g id="text_6">
    <!-- Rabbit -->
    <g transform="translate(216.089373 232.27125) scale(0.12 -0.12)">
     <defs>
      <path id="DejaVuSans-Bold-52" d="M 2297 2597 
Q 2675 2597 2839 2737 
Q 3003 2878 3003 3200 
Q 3003 3519 2839 3656 
Q 2675 3794 2297 3794 
L 1791 3794 
L 1791 2597 
L 2297 2597 
z
M 1791 1766 
L 1791 0 
L 588 0 
L 588 4666 
L 2425 4666 
Q 3347 4666 3776 4356 
Q 4206 4047 4206 3378 
Q 4206 2916 3982 2619 
Q 3759 2322 3309 2181 
Q 3556 2125 3751 1926 
Q 3947 1728 4147 1325 
L 4800 0 
L 3519 0 
L 2950 1159 
Q 2778 1509 2601 1637 
Q 2425 1766 2131 1766 
L 1791 1766 
z
" transform="scale(0.015625)"/>
      <path id="DejaVuSans-Bold-69" d="M 538 3500 
L 1656 3500 
L 1656 0 
L 538 0 
L 538 3500 
z
M 538 4863 
L 1656 4863 
L 1656 3950 
L 538 3950 
L 538 4863 
z
" transform="scale(0.015625)"/>
     </defs>
     <use xlink:href="#DejaVuSans-Bold-52"/>
     <use xlink:href="#DejaVuSans-Bold-61" transform="translate(77.001953 0)"/>
     <use xlink:href="#DejaVuSans-Bold-62" transform="translate(144.482422 0)"/>
     <use xlink:href="#DejaVuSans-Bold-62" transform="translate(216.064453 0)"/>
     <use xlink:href="#DejaVuSans-Bold-69" transform="translate(287.646484 0)"/>
     <use xlink:href="#DejaVuSans-Bold-74" transform="translate(321.923828 0)"/>
    </g>
   </g>
   <g id="text_7">
    <!-- Deer -->
    <g transform="translate(551.934796 235.073208) scale(0.12 -0.12)">
     <defs>
      <path id="DejaVuSans-Bold-44" d="M 1791 3756 
L 1791 909 
L 2222 909 
Q 2959 909 3348 1275 
Q 3738 1641 3738 2338 
Q 3738 3031 3350 3393 
Q 2963 3756 2222 3756 
L 1791 3756 
z
M 588 4666 
L 1856 4666 
Q 2919 4666 3439 4514 
Q 3959 4363 4331 4000 
Q 4659 3684 4818 3271 
Q 4978 2859 4978 2338 
Q 4978 1809 4818 1395 
Q 4659 981 4331 666 
Q 3956 303 3431 151 
Q 2906 0 1856 0 
L 588 0 
L 588 4666 
z
" transform="scale(0.015625)"/>
     </defs>
     <use xlink:href="#DejaVuSans-Bold-44"/>
     <use xlink:href="#DejaVuSans-Bold-65" transform="translate(83.007812 0)"/>
     <use xlink:href="#DejaVuSans-Bold-65" transform="translate(150.830078 0)"/>
     <use xlink:href="#DejaVuSans-Bold-72" transform="translate(218.652344 0)"/>
    </g>
   </g>
   <g id="text_8">
    <!-- Mouse -->
    <g transform="translate(384.300469 80.614529) scale(0.12 -0.12)">
     <defs>
      <path id="DejaVuSans-Bold-4d" d="M 588 4666 
L 2119 4666 
L 3181 2169 
L 4250 4666 
L 5778 4666 
L 5778 0 
L 4641 0 
L 4641 3413 
L 3566 897 
L 2803 897 
L 1728 3413 
L 1728 0 
L 588 0 
L 588 4666 
z
" transform="scale(0.015625)"/>
      <path id="DejaVuSans-Bold-75" d="M 500 1363 
L 500 3500 
L 1625 3500 
L 1625 3150 
Q 1625 2866 1622 2436 
Q 1619 2006 1619 1863 
Q 1619 1441 1641 1255 
Q 1663 1069 1716 984 
Q 1784 875 1895 815 
Q 2006 756 2150 756 
Q 2500 756 2700 1025 
Q 2900 1294 2900 1772 
L 2900 3500 
L 4019 3500 
L 4019 0 
L 2900 0 
L 2900 506 
Q 2647 200 2364 54 
Q 2081 -91 1741 -91 
Q 1134 -91 817 281 
Q 500 653 500 1363 
z
" transform="scale(0.015625)"/>
      <path id="DejaVuSans-Bold-73" d="M 3272 3391 
L 3272 2541 
Q 2913 2691 2578 2766 
Q 2244 2841 1947 2841 
Q 1628 2841 1473 2761 
Q 1319 2681 1319 2516 
Q 1319 2381 1436 2309 
Q 1553 2238 1856 2203 
L 2053 2175 
Q 2913 2066 3209 1816 
Q 3506 1566 3506 1031 
Q 3506 472 3093 190 
Q 2681 -91 1863 -91 
Q 1516 -91 1145 -36 
Q 775 19 384 128 
L 384 978 
Q 719 816 1070 734 
Q 1422 653 1784 653 
Q 2113 653 2278 743 
Q 2444 834 2444 1013 
Q 2444 1163 2330 1236 
Q 2216 1309 1875 1350 
L 1678 1375 
Q 931 1469 631 1722 
Q 331 1975 331 2491 
Q 331 3047 712 3315 
Q 1094 3584 1881 3584 
Q 2191 3584 2531 3537 
Q 2872 3491 3272 3391 
z
" transform="scale(0.015625)"/>
     </defs>
     <use xlink:href="#DejaVuSans-Bold-4d"/>
     <use xlink:href="#DejaVuSans-Bold-6f" transform="translate(99.511719 0)"/>
     <use xlink:href="#DejaVuSans-Bold-75" transform="translate(168.212891 0)"/>
     <use xlink:href="#DejaVuSans-Bold-73" transform="translate(239.404297 0)"/>
     <use xlink:href="#DejaVuSans-Bold-65" transform="translate(298.925781 0)"/>
    </g>
   </g>
   <g id="text_9">
    <!-- Salmon -->
    <g transform="translate(381.232969 383.927971) scale(0.12 -0.12)">
     <defs>
      <path id="DejaVuSans-Bold-53" d="M 3834 4519 
L 3834 3531 
Q 3450 3703 3084 3790 
Q 2719 3878 2394 3878 
Q 1963 3878 1756 3759 
Q 1550 3641 1550 3391 
Q 1550 3203 1689 3098 
Q 1828 2994 2194 2919 
L 2706 2816 
Q 3484 2659 3812 2340 
Q 4141 2022 4141 1434 
Q 4141 663 3683 286 
Q 3225 -91 2284 -91 
Q 1841 -91 1394 -6 
Q 947 78 500 244 
L 500 1259 
Q 947 1022 1364 901 
Q 1781 781 2169 781 
Q 2563 781 2772 912 
Q 2981 1044 2981 1288 
Q 2981 1506 2839 1625 
Q 2697 1744 2272 1838 
L 1806 1941 
Q 1106 2091 782 2419 
Q 459 2747 459 3303 
Q 459 4000 909 4375 
Q 1359 4750 2203 4750 
Q 2588 4750 2994 4692 
Q 3400 4634 3834 4519 
z
" transform="scale(0.015625)"/>
      <path id="DejaVuSans-Bold-6d" d="M 3781 2919 
Q 3994 3244 4286 3414 
Q 4578 3584 4928 3584 
Q 5531 3584 5847 3212 
Q 6163 2841 6163 2131 
L 6163 0 
L 5038 0 
L 5038 1825 
Q 5041 1866 5042 1909 
Q 5044 1953 5044 2034 
Q 5044 2406 4934 2573 
Q 4825 2741 4581 2741 
Q 4263 2741 4089 2478 
Q 3916 2216 3909 1719 
L 3909 0 
L 2784 0 
L 2784 1825 
Q 2784 2406 2684 2573 
Q 2584 2741 2328 2741 
Q 2006 2741 1831 2477 
Q 1656 2213 1656 1722 
L 1656 0 
L 531 0 
L 531 3500 
L 1656 3500 
L 1656 2988 
Q 1863 3284 2130 3434 
Q 2397 3584 2719 3584 
Q 3081 3584 3359 3409 
Q 3638 3234 3781 2919 
z
" transform="scale(0.015625)"/>
     </defs>
     <use xlink:href="#DejaVuSans-Bold-53"/>
     <use xlink:href="#DejaVuSans-Bold-61" transform="translate(72.021484 0)"/>
     <use xlink:href="#DejaVuSans-Bold-6c" transform="translate(139.501953 0)"/>
     <use xlink:href="#DejaVuSans-Bold-6d" transform="translate(173.779297 0)"/>
     <use xlink:href="#DejaVuSans-Bold-6f" transform="translate(277.978516 0)"/>
     <use xlink:href="#DejaVuSans-Bold-6e" transform="translate(346.679688 0)"/>
    </g>
   </g>
  </g>
  <g id="legend_1">
   <g id="patch_41">
    <path d="M 13.2 491.700469 
L 43.2 491.700469 
L 43.2 481.200469 
L 13.2 481.200469 
z
" style="fill: #2c3e50; stroke: #2c3e50; stroke-linejoin: miter"/>
   </g>
   <g id="text_10">
    <!-- Wolf -->
    <g transform="translate(55.2 491.700469) scale(0.15 -0.15)">
     <defs>
      <path id="DejaVuSans-57" d="M 213 4666 
L 850 4666 
L 1831 722 
L 2809 4666 
L 3519 4666 
L 4500 722 
L 5478 4666 
L 6119 4666 
L 4947 0 
L 4153 0 
L 3169 4050 
L 2175 0 
L 1381 0 
L 213 4666 
z
" transform="scale(0.015625)"/>
      <path id="DejaVuSans-6c" d="M 603 4863 
L 1178 4863 
L 1178 0 
L 603 0 
L 603 4863 
z
" transform="scale(0.015625)"/>
      <path id="DejaVuSans-66" d="M 2375 4863 
L 2375 4384 
L 1825 4384 
Q 1516 4384 1395 4259 
Q 1275 4134 1275 3809 
L 1275 3500 
L 2222 3500 
L 2222 3053 
L 1275 3053 
L 1275 0 
L 697 0 
L 697 3053 
L 147 3053 
L 147 3500 
L 697 3500 
L 697 3744 
Q 697 4328 969 4595 
Q 1241 4863 1831 4863 
L 2375 4863 
z
" transform="scale(0.015625)"/>
     </defs>
     <use xlink:href="#DejaVuSans-57"/>
     <use xlink:href="#DejaVuSans-6f" transform="translate(93.001953 0)"/>
     <use xlink:href="#DejaVuSans-6c" transform="translate(154.183594 0)"/>
     <use xlink:href="#DejaVuSans-66" transform="translate(181.966797 0)"/>
    </g>
   </g>
   <g id="patch_42">
    <path d="M 117.775781 491.700469 
L 147.775781 491.700469 
L 147.775781 481.200469 
L 117.775781 481.200469 
z
" style="fill: #8b4513; stroke: #8b4513; stroke-linejoin: miter"/>
   </g>
   <g id="text_11">
    <!-- Eagle -->
    <g transform="translate(159.775781 491.700469) scale(0.15 -0.15)">
     <defs>
      <path id="DejaVuSans-45" d="M 628 4666 
L 3578 4666 
L 3578 4134 
L 1259 4134 
L 1259 2753 
L 3481 2753 
L 3481 2222 
L 1259 2222 
L 1259 531 
L 3634 531 
L 3634 0 
L 628 0 
L 628 4666 
z
" transform="scale(0.015625)"/>
     </defs>
     <use xlink:href="#DejaVuSans-45"/>
     <use xlink:href="#DejaVuSans-61" transform="translate(63.183594 0)"/>
     <use xlink:href="#DejaVuSans-67" transform="translate(124.462891 0)"/>
     <use xlink:href="#DejaVuSans-6c" transform="translate(187.939453 0)"/>
     <use xlink:href="#DejaVuSans-65" transform="translate(215.722656 0)"/>
    </g>
   </g>
   <g id="patch_43">
    <path d="M 231.365625 491.700469 
L 261.365625 491.700469 
L 261.365625 481.200469 
L 231.365625 481.200469 
z
" style="fill: #c0392b; stroke: #c0392b; stroke-linejoin: miter"/>
   </g>
   <g id="text_12">
    <!-- Lynx -->
    <g transform="translate(273.365625 491.700469) scale(0.15 -0.15)">
     <defs>
      <path id="DejaVuSans-4c" d="M 628 4666 
L 1259 4666 
L 1259 531 
L 3531 531 
L 3531 0 
L 628 0 
L 628 4666 
z
" transform="scale(0.015625)"/>
      <path id="DejaVuSans-78" d="M 3513 3500 
L 2247 1797 
L 3578 0 
L 2900 0 
L 1881 1375 
L 863 0 
L 184 0 
L 1544 1831 
L 300 3500 
L 978 3500 
L 1906 2253 
L 2834 3500 
L 3513 3500 
z
" transform="scale(0.015625)"/>
     </defs>
     <use xlink:href="#DejaVuSans-4c"/>
     <use xlink:href="#DejaVuSans-79" transform="translate(46.587891 0)"/>
     <use xlink:href="#DejaVuSans-6e" transform="translate(105.767578 0)"/>
     <use xlink:href="#DejaVuSans-78" transform="translate(169.146484 0)"/>
    </g>
   </g>
   <g id="patch_44">
    <path d="M 337.617188 491.700469 
L 367.617188 491.700469 
L 367.617188 481.200469 
L 337.617188 481.200469 
z
" style="fill: #7fb3d3; stroke: #7fb3d3; stroke-linejoin: miter"/>
   </g>
   <g id="text_13">
    <!-- Rabbit -->
    <g transform="translate(379.617188 491.700469) scale(0.15 -0.15)">
     <defs>
      <path id="DejaVuSans-52" d="M 2841 2188 
Q 3044 2119 3236 1894 
Q 3428 1669 3622 1275 
L 4263 0 
L 3584 0 
L 2988 1197 
Q 2756 1666 2539 1819 
Q 2322 1972 1947 1972 
L 1259 1972 
L 1259 0 
L 628 0 
L 628 4666 
L 2053 4666 
Q 2853 4666 3247 4331 
Q 3641 3997 3641 3322 
Q 3641 2881 3436 2590 
Q 3231 2300 2841 2188 
z
M 1259 4147 
L 1259 2491 
L 2053 2491 
Q 2509 2491 2742 2702 
Q 2975 2913 2975 3322 
Q 2975 3731 2742 3939 
Q 2509 4147 2053 4147 
L 1259 4147 
z
" transform="scale(0.015625)"/>
      <path id="DejaVuSans-62" d="M 3116 1747 
Q 3116 2381 2855 2742 
Q 2594 3103 2138 3103 
Q 1681 3103 1420 2742 
Q 1159 2381 1159 1747 
Q 1159 1113 1420 752 
Q 1681 391 2138 391 
Q 2594 391 2855 752 
Q 3116 1113 3116 1747 
z
M 1159 2969 
Q 1341 3281 1617 3432 
Q 1894 3584 2278 3584 
Q 2916 3584 3314 3078 
Q 3713 2572 3713 1747 
Q 3713 922 3314 415 
Q 2916 -91 2278 -91 
Q 1894 -91 1617 61 
Q 1341 213 1159 525 
L 1159 0 
L 581 0 
L 581 4863 
L 1159 4863 
L 1159 2969 
z
" transform="scale(0.015625)"/>
     </defs>
     <use xlink:href="#DejaVuSans-52"/>
     <use xlink:href="#DejaVuSans-61" transform="translate(67.232422 0)"/>
     <use xlink:href="#DejaVuSans-62" transform="translate(128.511719 0)"/>
     <use xlink:href="#DejaVuSans-62" transform="translate(191.988281 0)"/>
     <use xlink:href="#DejaVuSans-69" transform="translate(255.464844 0)"/>
     <use xlink:href="#DejaVuSans-74" transform="translate(283.248047 0)"/>
    </g>
   </g>
   <g id="patch_45">
    <path d="M 457.9875 491.700469 
L 487.9875 491.700469 
L 487.9875 481.200469 
L 457.9875 481.200469 
z
" style="fill: #82e0aa; stroke: #82e0aa; stroke-linejoin: miter"/>
   </g>
   <g id="text_14">
    <!-- Deer -->
    <g transform="translate(499.9875 491.700469) scale(0.15 -0.15)">
     <defs>
      <path id="DejaVuSans-44" d="M 1259 4147 
L 1259 519 
L 2022 519 
Q 2988 519 3436 956 
Q 3884 1394 3884 2338 
Q 3884 3275 3436 3711 
Q 2988 4147 2022 4147 
L 1259 4147 
z
M 628 4666 
L 1925 4666 
Q 3281 4666 3915 4102 
Q 4550 3538 4550 2338 
Q 4550 1131 3912 565 
Q 3275 0 1925 0 
L 628 0 
L 628 4666 
z
" transform="scale(0.015625)"/>
     </defs>
     <use xlink:href="#DejaVuSans-44"/>
     <use xlink:href="#DejaVuSans-65" transform="translate(77.001953 0)"/>
     <use xlink:href="#DejaVuSans-65" transform="translate(138.525391 0)"/>
     <use xlink:href="#DejaVuSans-72" transform="translate(200.048828 0)"/>
    </g>
   </g>
   <g id="patch_46">
    <path d="M 566.163281 491.700469 
L 596.163281 491.700469 
L 596.163281 481.200469 
L 566.163281 481.200469 
z
" style="fill: #f8c471; stroke: #f8c471; stroke-linejoin: miter"/>
   </g>
   <g id="text_15">
    <!-- Mouse -->
    <g transform="translate(608.163281 491.700469) scale(0.15 -0.15)">
     <defs>
      <path id="DejaVuSans-4d" d="M 628 4666 
L 1569 4666 
L 2759 1491 
L 3956 4666 
L 4897 4666 
L 4897 0 
L 4281 0 
L 4281 4097 
L 3078 897 
L 2444 897 
L 1241 4097 
L 1241 0 
L 628 0 
L 628 4666 
z
" transform="scale(0.015625)"/>
     </defs>
     <use xlink:href="#DejaVuSans-4d"/>
     <use xlink:href="#DejaVuSans-6f" transform="translate(86.279297 0)"/>
     <use xlink:href="#DejaVuSans-75" transform="translate(147.460938 0)"/>
     <use xlink:href="#DejaVuSans-73" transform="translate(210.839844 0)"/>
     <use xlink:href="#DejaVuSans-65" transform="translate(262.939453 0)"/>
    </g>
   </g>
   <g id="patch_47">
    <path d="M 686.833594 491.700469 
L 716.833594 491.700469 
L 716.833594 481.200469 
L 686.833594 481.200469 
z
" style="fill: #ec7063; stroke: #ec7063; stroke-linejoin: miter"/>
   </g>
   <g id="text_16">
    <!-- Salmon -->
    <g transform="translate(728.833594 491.700469) scale(0.15 -0.15)">
     <defs>
      <path id="DejaVuSans-53" d="M 3425 4513 
L 3425 3897 
Q 3066 4069 2747 4153 
Q 2428 4238 2131 4238 
Q 1616 4238 1336 4038 
Q 1056 3838 1056 3469 
Q 1056 3159 1242 3001 
Q 1428 2844 1947 2747 
L 2328 2669 
Q 3034 2534 3370 2195 
Q 3706 1856 3706 1288 
Q 3706 609 3251 259 
Q 2797 -91 1919 -91 
Q 1588 -91 1214 -16 
Q 841 59 441 206 
L 441 856 
Q 825 641 1194 531 
Q 1563 422 1919 422 
Q 2459 422 2753 634 
Q 3047 847 3047 1241 
Q 3047 1584 2836 1778 
Q 2625 1972 2144 2069 
L 1759 2144 
Q 1053 2284 737 2584 
Q 422 2884 422 3419 
Q 422 4038 858 4394 
Q 1294 4750 2059 4750 
Q 2388 4750 2728 4690 
Q 3069 4631 3425 4513 
z
" transform="scale(0.015625)"/>
      <path id="DejaVuSans-6d" d="M 3328 2828 
Q 3544 3216 3844 3400 
Q 4144 3584 4550 3584 
Q 5097 3584 5394 3201 
Q 5691 2819 5691 2113 
L 5691 0 
L 5113 0 
L 5113 2094 
Q 5113 2597 4934 2840 
Q 4756 3084 4391 3084 
Q 3944 3084 3684 2787 
Q 3425 2491 3425 1978 
L 3425 0 
L 2847 0 
L 2847 2094 
Q 2847 2600 2669 2842 
Q 2491 3084 2119 3084 
Q 1678 3084 1418 2786 
Q 1159 2488 1159 1978 
L 1159 0 
L 581 0 
L 581 3500 
L 1159 3500 
L 1159 2956 
Q 1356 3278 1631 3431 
Q 1906 3584 2284 3584 
Q 2666 3584 2933 3390 
Q 3200 3197 3328 2828 
z
" transform="scale(0.015625)"/>
     </defs>
     <use xlink:href="#DejaVuSans-53"/>
     <use xlink:href="#DejaVuSans-61" transform="translate(63.476562 0)"/>
     <use xlink:href="#DejaVuSans-6c" transform="translate(124.755859 0)"/>
     <use xlink:href="#DejaVuSans-6d" transform="translate(152.539062 0)"/>
     <use xlink:href="#DejaVuSans-6f" transform="translate(249.951172 0)"/>
     <use xlink:href="#DejaVuSans-6e" transform="translate(311.132812 0)"/>
    </g>
   </g>
  </g>
 </g>
 <defs>
  <clipPath id="pcc53628e19">
   <rect x="184.545469" y="7.2" width="443.52" height="443.52"/>
  </clipPath>
 </defs>
</svg>
