<?xml version="1.0" encoding="utf-8" standalone="no"?>
<!DOCTYPE svg PUBLIC "-//W3C//DTD SVG 1.1//EN"
  "http://www.w3.org/Graphics/SVG/1.1/DTD/svg11.dtd">
<svg xmlns:xlink="http://www.w3.org/1999/xlink" width="457.92pt" height="488.860678pt" viewBox="0 0 457.92 488.860678" xmlns="http://www.w3.org/2000/svg" version="1.1">
 <metadata>
  <rdf:RDF xmlns:dc="http://purl.org/dc/elements/1.1/" xmlns:cc="http://creativecommons.org/ns#" xmlns:rdf="http://www.w3.org/1999/02/22-rdf-syntax-ns#">
   <cc:Work>
    <dc:type rdf:resource="http://purl.org/dc/dcmitype/StillImage"/>
    <dc:date>2026-04-29T22:10:01.800893</dc:date>
    <dc:format>image/svg+xml</dc:format>
    <dc:creator>
     <cc:Agent>
      <dc:title>Matplotlib v3.10.7+dfsg1, https://matplotlib.org/</dc:title>
     </cc:Agent>
    </dc:creator>
   </cc:Work>
  </rdf:RDF>
 </metadata>
 <defs>
  <style type="text/css">*{stroke-linejoin: round; stroke-linecap: butt}</style>
 </defs>
 <g id="figure_1">
  <g id="patch_1">
   <path d="M 0 488.860678 
L 457.92 488.860678 
L 457.92 0 
L 0 0 
z
" style="fill: #ffffff"/>
  </g>
  <g id="axes_1">
   <g id="patch_2">
    <path d="M 228.96 407.770727 
C 268.175595 407.770727 305.790301 392.190206 333.519914 364.460593 
C 361.249528 336.730979 376.830049 299.116274 376.830049 259.900678 
C 376.830049 220.685083 361.249528 183.070378 333.519914 155.340764 
C 305.790301 127.611151 268.175595 112.03063 228.96 112.03063 
C 189.744405 112.03063 152.129699 127.611151 124.400086 155.340764 
C 96.670472 183.070378 81.089951 220.685083 81.089951 259.900678 
C 81.089951 299.116274 96.670472 336.730979 124.400086 364.460593 
C 152.129699 392.190206 189.744405 407.770727 228.96 407.770727 
z
" clip-path="url(#p97685fcaa9)" style="fill: #f0f4fa; stroke: #f0f4fa; stroke-linejoin: miter"/>
   </g>
   <g id="patch_3">
    <path d="M 107.983261 313.785853 
Q 133.192928 205.417824 204.344246 138.845369 
" clip-path="url(#p97685fcaa9)" style="fill: none; opacity: 0.88; stroke: #7b2d8b; stroke-width: 3.6; stroke-linejoin: miter"/>
   </g>
   <g id="patch_4">
    <path d="M 336.1143 337.72702 
Q 229.66 370.078822 136.430904 341.746201 
" clip-path="url(#p97685fcaa9)" style="fill: none; opacity: 0.88; stroke: #7b2d8b; stroke-width: 3.6; stroke-linejoin: miter"/>
   </g>
   <g id="patch_5">
    <path d="M 242.782439 128.189162 
Q 324.027072 204.205389 346.10485 299.110465 
" clip-path="url(#p97685fcaa9)" style="fill: none; opacity: 0.74; stroke: #1a6fa8; stroke-width: 2.56; stroke-linejoin: miter"/>
   </g>
   <g id="patch_6">
    <path d="M 121.8057 337.72702 
Q 228.26 305.375217 321.489096 333.707838 
" clip-path="url(#p97685fcaa9)" style="fill: none; opacity: 0.74; stroke: #1a6fa8; stroke-width: 2.56; stroke-linejoin: miter"/>
   </g>
   <g id="patch_7">
    <path d="M 349.936739 313.785853 
Q 268.692106 237.769627 246.614327 142.86455 
" clip-path="url(#p97685fcaa9)" style="fill: none; opacity: 0.6; stroke: #49a62d; stroke-width: 1.68; stroke-linejoin: miter"/>
   </g>
   <g id="patch_8">
    <path d="M 215.137561 128.189162 
Q 189.927894 236.557191 118.776576 303.129646 
" clip-path="url(#p97685fcaa9)" style="fill: none; opacity: 0.6; stroke: #49a62d; stroke-width: 1.68; stroke-linejoin: miter"/>
   </g>
   <g id="patch_9">
    <path d="M 230.041756 132.97463 
C 237.373263 132.97463 244.405478 130.061791 249.589637 124.877632 
C 254.773795 119.693474 257.686634 112.661259 257.686634 105.329752 
C 257.686634 97.998244 254.773795 90.966029 249.589637 85.781871 
C 244.405478 80.597712 237.373263 77.684873 230.041756 77.684873 
C 222.710249 77.684873 215.678034 80.597712 210.493875 85.781871 
C 205.309717 90.966029 202.396878 97.998244 202.396878 105.329752 
C 202.396878 112.661259 205.309717 119.693474 210.493875 124.877632 
C 215.678034 130.061791 222.710249 132.97463 230.041756 132.97463 
z
" clip-path="url(#p97685fcaa9)" style="fill-opacity: 0.133333"/>
   </g>
   <g id="patch_10">
    <path d="M 364.840934 366.453654 
C 372.172441 366.453654 379.204656 363.540815 384.388814 358.356657 
C 389.572973 353.172498 392.485812 346.140283 392.485812 338.808776 
C 392.485812 331.477269 389.572973 324.445054 384.388814 319.260895 
C 379.204656 314.076737 372.172441 311.163898 364.840934 311.163898 
C 357.509426 311.163898 350.477212 314.076737 345.293053 319.260895 
C 340.108894 324.445054 337.196056 331.477269 337.196056 338.808776 
C 337.196056 346.140283 340.108894 353.172498 345.293053 358.356657 
C 350.477212 363.540815 357.509426 366.453654 364.840934 366.453654 
z
" clip-path="url(#p97685fcaa9)" style="fill-opacity: 0.133333"/>
   </g>
   <g id="patch_11">
    <path d="M 95.242579 366.453654 
C 102.574086 366.453654 109.606301 363.540815 114.790459 358.356657 
C 119.974618 353.172498 122.887457 346.140283 122.887457 338.808776 
C 122.887457 331.477269 119.974618 324.445054 114.790459 319.260895 
C 109.606301 314.076737 102.574086 311.163898 95.242579 311.163898 
C 87.911071 311.163898 80.878856 314.076737 75.694698 319.260895 
C 70.510539 324.445054 67.5977 331.477269 67.5977 338.808776 
C 67.5977 346.140283 70.510539 353.172498 75.694698 358.356657 
C 80.878856 363.540815 87.911071 366.453654 95.242579 366.453654 
z
" clip-path="url(#p97685fcaa9)" style="fill-opacity: 0.133333"/>
   </g>
   <g id="patch_12">
    <path d="M 228.96 131.892873 
C 236.291507 131.892873 243.323722 128.980035 248.507881 123.795876 
C 253.692039 118.611718 256.604878 111.579503 256.604878 104.247995 
C 256.604878 96.916488 253.692039 89.884273 248.507881 84.700115 
C 243.323722 79.515956 236.291507 76.603117 228.96 76.603117 
C 221.628493 76.603117 214.596278 79.515956 209.412119 84.700115 
C 204.227961 89.884273 201.315122 96.916488 201.315122 104.247995 
C 201.315122 111.579503 204.227961 118.611718 209.412119 123.795876 
C 214.596278 128.980035 221.628493 131.892873 228.96 131.892873 
z
" clip-path="url(#p97685fcaa9)" style="fill: #e41a1c; stroke: #ffffff; stroke-width: 2.8; stroke-linejoin: miter"/>
   </g>
   <g id="patch_13">
    <path d="M 363.759178 365.371898 
C 371.090685 365.371898 378.1229 362.459059 383.307058 357.274901 
C 388.491217 352.090742 391.404056 345.058527 391.404056 337.72702 
C 391.404056 330.395512 388.491217 323.363298 383.307058 318.179139 
C 378.1229 312.994981 371.090685 310.082142 363.759178 310.082142 
C 356.42767 310.082142 349.395455 312.994981 344.211297 318.179139 
C 339.027138 323.363298 336.1143 330.395512 336.1143 337.72702 
C 336.1143 345.058527 339.027138 352.090742 344.211297 357.274901 
C 349.395455 362.459059 356.42767 365.371898 363.759178 365.371898 
z
" clip-path="url(#p97685fcaa9)" style="fill: #377eb8; stroke: #ffffff; stroke-width: 2.8; stroke-linejoin: miter"/>
   </g>
   <g id="patch_14">
    <path d="M 94.160822 365.371898 
C 101.49233 365.371898 108.524545 362.459059 113.708703 357.274901 
C 118.892862 352.090742 121.8057 345.058527 121.8057 337.72702 
C 121.8057 330.395512 118.892862 323.363298 113.708703 318.179139 
C 108.524545 312.994981 101.49233 310.082142 94.160822 310.082142 
C 86.829315 310.082142 79.7971 312.994981 74.612942 318.179139 
C 69.428783 323.363298 66.515944 330.395512 66.515944 337.72702 
C 66.515944 345.058527 69.428783 352.090742 74.612942 357.274901 
C 79.7971 362.459059 86.829315 365.371898 94.160822 365.371898 
z
" clip-path="url(#p97685fcaa9)" style="fill: #4daf4a; stroke: #ffffff; stroke-width: 2.8; stroke-linejoin: miter"/>
   </g>
   <g id="text_1">
    <!-- Inter-regional merchandise trade volumes -->
    <g transform="translate(97.714883 46.795703) scale(0.125 -0.125)">
     <defs>
      <path id="DejaVuSans-49" d="M 628 4666 
L 1259 4666 
L 1259 0 
L 628 0 
L 628 4666 
z
" transform="scale(0.015625)"/>
      <path id="DejaVuSans-6e" d="M 3513 2113 
L 3513 0 
L 2938 0 
L 2938 2094 
Q 2938 2591 2744 2837 
Q 2550 3084 2163 3084 
Q 1697 3084 1428 2787 
Q 1159 2491 1159 1978 
L 1159 0 
L 581 0 
L 581 3500 
L 1159 3500 
L 1159 2956 
Q 1366 3272 1645 3428 
Q 1925 3584 2291 3584 
Q 2894 3584 3203 3211 
Q 3513 2838 3513 2113 
z
" transform="scale(0.015625)"/>
      <path id="DejaVuSans-74" d="M 1172 4494 
L 1172 3500 
L 2356 3500 
L 2356 3053 
L 1172 3053 
L 1172 1153 
Q 1172 725 1289 603 
Q 1406 481 1766 481 
L 2356 481 
L 2356 0 
L 1766 0 
Q 1100 0 847 248 
Q 594 497 594 1153 
L 594 3053 
L 172 3053 
L 172 3500 
L 594 3500 
L 594 4494 
L 1172 4494 
z
" transform="scale(0.015625)"/>
      <path id="DejaVuSans-65" d="M 3597 1894 
L 3597 1613 
L 953 1613 
Q 991 1019 1311 708 
Q 1631 397 2203 397 
Q 2534 397 2845 478 
Q 3156 559 3463 722 
L 3463 178 
Q 3153 47 2828 -22 
Q 2503 -91 2169 -91 
Q 1331 -91 842 396 
Q 353 884 353 1716 
Q 353 2575 817 3079 
Q 1281 3584 2069 3584 
Q 2775 3584 3186 3129 
Q 3597 2675 3597 1894 
z
M 3022 2063 
Q 3016 2534 2758 2815 
Q 2500 3097 2075 3097 
Q 1594 3097 1305 2825 
Q 1016 2553 972 2059 
L 3022 2063 
z
" transform="scale(0.015625)"/>
      <path id="DejaVuSans-72" d="M 2631 2963 
Q 2534 3019 2420 3045 
Q 2306 3072 2169 3072 
Q 1681 3072 1420 2755 
Q 1159 2438 1159 1844 
L 1159 0 
L 581 0 
L 581 3500 
L 1159 3500 
L 1159 2956 
Q 1341 3275 1631 3429 
Q 1922 3584 2338 3584 
Q 2397 3584 2469 3576 
Q 2541 3569 2628 3553 
L 2631 2963 
z
" transform="scale(0.015625)"/>
      <path id="DejaVuSans-2d" d="M 313 2009 
L 1997 2009 
L 1997 1497 
L 313 1497 
L 313 2009 
z
" transform="scale(0.015625)"/>
      <path id="DejaVuSans-67" d="M 2906 1791 
Q 2906 2416 2648 2759 
Q 2391 3103 1925 3103 
Q 1463 3103 1205 2759 
Q 947 2416 947 1791 
Q 947 1169 1205 825 
Q 1463 481 1925 481 
Q 2391 481 2648 825 
Q 2906 1169 2906 1791 
z
M 3481 434 
Q 3481 -459 3084 -895 
Q 2688 -1331 1869 -1331 
Q 1566 -1331 1297 -1286 
Q 1028 -1241 775 -1147 
L 775 -588 
Q 1028 -725 1275 -790 
Q 1522 -856 1778 -856 
Q 2344 -856 2625 -561 
Q 2906 -266 2906 331 
L 2906 616 
Q 2728 306 2450 153 
Q 2172 0 1784 0 
Q 1141 0 747 490 
Q 353 981 353 1791 
Q 353 2603 747 3093 
Q 1141 3584 1784 3584 
Q 2172 3584 2450 3431 
Q 2728 3278 2906 2969 
L 2906 3500 
L 3481 3500 
L 3481 434 
z
" transform="scale(0.015625)"/>
      <path id="DejaVuSans-69" d="M 603 3500 
L 1178 3500 
L 1178 0 
L 603 0 
L 603 3500 
z
M 603 4863 
L 1178 4863 
L 1178 4134 
L 603 4134 
L 603 4863 
z
" transform="scale(0.015625)"/>
      <path id="DejaVuSans-6f" d="M 1959 3097 
Q 1497 3097 1228 2736 
Q 959 2375 959 1747 
Q 959 1119 1226 758 
Q 1494 397 1959 397 
Q 2419 397 2687 759 
Q 2956 1122 2956 1747 
Q 2956 2369 2687 2733 
Q 2419 3097 1959 3097 
z
M 1959 3584 
Q 2709 3584 3137 3096 
Q 3566 2609 3566 1747 
Q 3566 888 3137 398 
Q 2709 -91 1959 -91 
Q 1206 -91 779 398 
Q 353 888 353 1747 
Q 353 2609 779 3096 
Q 1206 3584 1959 3584 
z
" transform="scale(0.015625)"/>
      <path id="DejaVuSans-61" d="M 2194 1759 
Q 1497 1759 1228 1600 
Q 959 1441 959 1056 
Q 959 750 1161 570 
Q 1363 391 1709 391 
Q 2188 391 2477 730 
Q 2766 1069 2766 1631 
L 2766 1759 
L 2194 1759 
z
M 3341 1997 
L 3341 0 
L 2766 0 
L 2766 531 
Q 2569 213 2275 61 
Q 1981 -91 1556 -91 
Q 1019 -91 701 211 
Q 384 513 384 1019 
Q 384 1609 779 1909 
Q 1175 2209 1959 2209 
L 2766 2209 
L 2766 2266 
Q 2766 2663 2505 2880 
Q 2244 3097 1772 3097 
Q 1472 3097 1187 3025 
Q 903 2953 641 2809 
L 641 3341 
Q 956 3463 1253 3523 
Q 1550 3584 1831 3584 
Q 2591 3584 2966 3190 
Q 3341 2797 3341 1997 
z
" transform="scale(0.015625)"/>
      <path id="DejaVuSans-6c" d="M 603 4863 
L 1178 4863 
L 1178 0 
L 603 0 
L 603 4863 
z
" transform="scale(0.015625)"/>
      <path id="DejaVuSans-20" transform="scale(0.015625)"/>
      <path id="DejaVuSans-6d" d="M 3328 2828 
Q 3544 3216 3844 3400 
Q 4144 3584 4550 3584 
Q 5097 3584 5394 3201 
Q 5691 2819 5691 2113 
L 5691 0 
L 5113 0 
L 5113 2094 
Q 5113 2597 4934 2840 
Q 4756 3084 4391 3084 
Q 3944 3084 3684 2787 
Q 3425 2491 3425 1978 
L 3425 0 
L 2847 0 
L 2847 2094 
Q 2847 2600 2669 2842 
Q 2491 3084 2119 3084 
Q 1678 3084 1418 2786 
Q 1159 2488 1159 1978 
L 1159 0 
L 581 0 
L 581 3500 
L 1159 3500 
L 1159 2956 
Q 1356 3278 1631 3431 
Q 1906 3584 2284 3584 
Q 2666 3584 2933 3390 
Q 3200 3197 3328 2828 
z
" transform="scale(0.015625)"/>
      <path id="DejaVuSans-63" d="M 3122 3366 
L 3122 2828 
Q 2878 2963 2633 3030 
Q 2388 3097 2138 3097 
Q 1578 3097 1268 2742 
Q 959 2388 959 1747 
Q 959 1106 1268 751 
Q 1578 397 2138 397 
Q 2388 397 2633 464 
Q 2878 531 3122 666 
L 3122 134 
Q 2881 22 2623 -34 
Q 2366 -91 2075 -91 
Q 1284 -91 818 406 
Q 353 903 353 1747 
Q 353 2603 823 3093 
Q 1294 3584 2113 3584 
Q 2378 3584 2631 3529 
Q 2884 3475 3122 3366 
z
" transform="scale(0.015625)"/>
      <path id="DejaVuSans-68" d="M 3513 2113 
L 3513 0 
L 2938 0 
L 2938 2094 
Q 2938 2591 2744 2837 
Q 2550 3084 2163 3084 
Q 1697 3084 1428 2787 
Q 1159 2491 1159 1978 
L 1159 0 
L 581 0 
L 581 4863 
L 1159 4863 
L 1159 2956 
Q 1366 3272 1645 3428 
Q 1925 3584 2291 3584 
Q 2894 3584 3203 3211 
Q 3513 2838 3513 2113 
z
" transform="scale(0.015625)"/>
      <path id="DejaVuSans-64" d="M 2906 2969 
L 2906 4863 
L 3481 4863 
L 3481 0 
L 2906 0 
L 2906 525 
Q 2725 213 2448 61 
Q 2172 -91 1784 -91 
Q 1150 -91 751 415 
Q 353 922 353 1747 
Q 353 2572 751 3078 
Q 1150 3584 1784 3584 
Q 2172 3584 2448 3432 
Q 2725 3281 2906 2969 
z
M 947 1747 
Q 947 1113 1208 752 
Q 1469 391 1925 391 
Q 2381 391 2643 752 
Q 2906 1113 2906 1747 
Q 2906 2381 2643 2742 
Q 2381 3103 1925 3103 
Q 1469 3103 1208 2742 
Q 947 2381 947 1747 
z
" transform="scale(0.015625)"/>
      <path id="DejaVuSans-73" d="M 2834 3397 
L 2834 2853 
Q 2591 2978 2328 3040 
Q 2066 3103 1784 3103 
Q 1356 3103 1142 2972 
Q 928 2841 928 2578 
Q 928 2378 1081 2264 
Q 1234 2150 1697 2047 
L 1894 2003 
Q 2506 1872 2764 1633 
Q 3022 1394 3022 966 
Q 3022 478 2636 193 
Q 2250 -91 1575 -91 
Q 1294 -91 989 -36 
Q 684 19 347 128 
L 347 722 
Q 666 556 975 473 
Q 1284 391 1588 391 
Q 1994 391 2212 530 
Q 2431 669 2431 922 
Q 2431 1156 2273 1281 
Q 2116 1406 1581 1522 
L 1381 1569 
Q 847 1681 609 1914 
Q 372 2147 372 2553 
Q 372 3047 722 3315 
Q 1072 3584 1716 3584 
Q 2034 3584 2315 3537 
Q 2597 3491 2834 3397 
z
" transform="scale(0.015625)"/>
      <path id="DejaVuSans-76" d="M 191 3500 
L 800 3500 
L 1894 563 
L 2988 3500 
L 3597 3500 
L 2284 0 
L 1503 0 
L 191 3500 
z
" transform="scale(0.015625)"/>
      <path id="DejaVuSans-75" d="M 544 1381 
L 544 3500 
L 1119 3500 
L 1119 1403 
Q 1119 906 1312 657 
Q 1506 409 1894 409 
Q 2359 409 2629 706 
Q 2900 1003 2900 1516 
L 2900 3500 
L 3475 3500 
L 3475 0 
L 2900 0 
L 2900 538 
Q 2691 219 2414 64 
Q 2138 -91 1772 -91 
Q 1169 -91 856 284 
Q 544 659 544 1381 
z
M 1991 3584 
L 1991 3584 
z
" transform="scale(0.015625)"/>
     </defs>
     <use xlink:href="#DejaVuSans-49"/>
     <use xlink:href="#DejaVuSans-6e" transform="translate(29.492188 0)"/>
     <use xlink:href="#DejaVuSans-74" transform="translate(92.871094 0)"/>
     <use xlink:href="#DejaVuSans-65" transform="translate(132.080078 0)"/>
     <use xlink:href="#DejaVuSans-72" transform="translate(193.603516 0)"/>
     <use xlink:href="#DejaVuSans-2d" transform="translate(228.341797 0)"/>
     <use xlink:href="#DejaVuSans-72" transform="translate(264.425781 0)"/>
     <use xlink:href="#DejaVuSans-65" transform="translate(303.289062 0)"/>
     <use xlink:href="#DejaVuSans-67" transform="translate(364.8125 0)"/>
     <use xlink:href="#DejaVuSans-69" transform="translate(428.289062 0)"/>
     <use xlink:href="#DejaVuSans-6f" transform="translate(456.072266 0)"/>
     <use xlink:href="#DejaVuSans-6e" transform="translate(517.253906 0)"/>
     <use xlink:href="#DejaVuSans-61" transform="translate(580.632812 0)"/>
     <use xlink:href="#DejaVuSans-6c" transform="translate(641.912109 0)"/>
     <use xlink:href="#DejaVuSans-20" transform="translate(669.695312 0)"/>
     <use xlink:href="#DejaVuSans-6d" transform="translate(701.482422 0)"/>
     <use xlink:href="#DejaVuSans-65" transform="translate(798.894531 0)"/>
     <use xlink:href="#DejaVuSans-72" transform="translate(860.417969 0)"/>
     <use xlink:href="#DejaVuSans-63" transform="translate(899.28125 0)"/>
     <use xlink:href="#DejaVuSans-68" transform="translate(954.261719 0)"/>
     <use xlink:href="#DejaVuSans-61" transform="translate(1017.640625 0)"/>
     <use xlink:href="#DejaVuSans-6e" transform="translate(1078.919922 0)"/>
     <use xlink:href="#DejaVuSans-64" transform="translate(1142.298828 0)"/>
     <use xlink:href="#DejaVuSans-69" transform="translate(1205.775391 0)"/>
     <use xlink:href="#DejaVuSans-73" transform="translate(1233.558594 0)"/>
     <use xlink:href="#DejaVuSans-65" transform="translate(1285.658203 0)"/>
     <use xlink:href="#DejaVuSans-20" transform="translate(1347.181641 0)"/>
     <use xlink:href="#DejaVuSans-74" transform="translate(1378.96875 0)"/>
     <use xlink:href="#DejaVuSans-72" transform="translate(1418.177734 0)"/>
     <use xlink:href="#DejaVuSans-61" transform="translate(1459.291016 0)"/>
     <use xlink:href="#DejaVuSans-64" transform="translate(1520.570312 0)"/>
     <use xlink:href="#DejaVuSans-65" transform="translate(1584.046875 0)"/>
     <use xlink:href="#DejaVuSans-20" transform="translate(1645.570312 0)"/>
     <use xlink:href="#DejaVuSans-76" transform="translate(1677.357422 0)"/>
     <use xlink:href="#DejaVuSans-6f" transform="translate(1736.537109 0)"/>
     <use xlink:href="#DejaVuSans-6c" transform="translate(1797.71875 0)"/>
     <use xlink:href="#DejaVuSans-75" transform="translate(1825.501953 0)"/>
     <use xlink:href="#DejaVuSans-6d" transform="translate(1888.880859 0)"/>
     <use xlink:href="#DejaVuSans-65" transform="translate(1986.292969 0)"/>
     <use xlink:href="#DejaVuSans-73" transform="translate(2047.816406 0)"/>
    </g>
   </g>
   <g id="text_2">
    <!-- Global Trade Flows -->
    <g transform="translate(95.877969 26.196094) scale(0.25 -0.25)">
     <defs>
      <path id="DejaVuSans-Bold-47" d="M 4781 347 
Q 4331 128 3847 18 
Q 3363 -91 2847 -91 
Q 1681 -91 1000 561 
Q 319 1213 319 2328 
Q 319 3456 1012 4103 
Q 1706 4750 2913 4750 
Q 3378 4750 3804 4662 
Q 4231 4575 4609 4403 
L 4609 3438 
Q 4219 3659 3833 3768 
Q 3447 3878 3059 3878 
Q 2341 3878 1952 3476 
Q 1563 3075 1563 2328 
Q 1563 1588 1938 1184 
Q 2313 781 3003 781 
Q 3191 781 3352 804 
Q 3513 828 3641 878 
L 3641 1784 
L 2906 1784 
L 2906 2591 
L 4781 2591 
L 4781 347 
z
" transform="scale(0.015625)"/>
      <path id="DejaVuSans-Bold-6c" d="M 538 4863 
L 1656 4863 
L 1656 0 
L 538 0 
L 538 4863 
z
" transform="scale(0.015625)"/>
      <path id="DejaVuSans-Bold-6f" d="M 2203 2784 
Q 1831 2784 1636 2517 
Q 1441 2250 1441 1747 
Q 1441 1244 1636 976 
Q 1831 709 2203 709 
Q 2569 709 2762 976 
Q 2956 1244 2956 1747 
Q 2956 2250 2762 2517 
Q 2569 2784 2203 2784 
z
M 2203 3584 
Q 3106 3584 3614 3096 
Q 4122 2609 4122 1747 
Q 4122 884 3614 396 
Q 3106 -91 2203 -91 
Q 1297 -91 786 396 
Q 275 884 275 1747 
Q 275 2609 786 3096 
Q 1297 3584 2203 3584 
z
" transform="scale(0.015625)"/>
      <path id="DejaVuSans-Bold-62" d="M 2400 722 
Q 2759 722 2948 984 
Q 3138 1247 3138 1747 
Q 3138 2247 2948 2509 
Q 2759 2772 2400 2772 
Q 2041 2772 1848 2508 
Q 1656 2244 1656 1747 
Q 1656 1250 1848 986 
Q 2041 722 2400 722 
z
M 1656 2988 
Q 1888 3294 2169 3439 
Q 2450 3584 2816 3584 
Q 3463 3584 3878 3070 
Q 4294 2556 4294 1747 
Q 4294 938 3878 423 
Q 3463 -91 2816 -91 
Q 2450 -91 2169 54 
Q 1888 200 1656 506 
L 1656 0 
L 538 0 
L 538 4863 
L 1656 4863 
L 1656 2988 
z
" transform="scale(0.015625)"/>
      <path id="DejaVuSans-Bold-61" d="M 2106 1575 
Q 1756 1575 1579 1456 
Q 1403 1338 1403 1106 
Q 1403 894 1545 773 
Q 1688 653 1941 653 
Q 2256 653 2472 879 
Q 2688 1106 2688 1447 
L 2688 1575 
L 2106 1575 
z
M 3816 1997 
L 3816 0 
L 2688 0 
L 2688 519 
Q 2463 200 2181 54 
Q 1900 -91 1497 -91 
Q 953 -91 614 226 
Q 275 544 275 1050 
Q 275 1666 698 1953 
Q 1122 2241 2028 2241 
L 2688 2241 
L 2688 2328 
Q 2688 2594 2478 2717 
Q 2269 2841 1825 2841 
Q 1466 2841 1156 2769 
Q 847 2697 581 2553 
L 581 3406 
Q 941 3494 1303 3539 
Q 1666 3584 2028 3584 
Q 2975 3584 3395 3211 
Q 3816 2838 3816 1997 
z
" transform="scale(0.015625)"/>
      <path id="DejaVuSans-Bold-20" transform="scale(0.015625)"/>
      <path id="DejaVuSans-Bold-54" d="M 31 4666 
L 4331 4666 
L 4331 3756 
L 2784 3756 
L 2784 0 
L 1581 0 
L 1581 3756 
L 31 3756 
L 31 4666 
z
" transform="scale(0.015625)"/>
      <path id="DejaVuSans-Bold-72" d="M 3138 2547 
Q 2991 2616 2845 2648 
Q 2700 2681 2553 2681 
Q 2122 2681 1889 2404 
Q 1656 2128 1656 1613 
L 1656 0 
L 538 0 
L 538 3500 
L 1656 3500 
L 1656 2925 
Q 1872 3269 2151 3426 
Q 2431 3584 2822 3584 
Q 2878 3584 2943 3579 
Q 3009 3575 3134 3559 
L 3138 2547 
z
" transform="scale(0.015625)"/>
      <path id="DejaVuSans-Bold-64" d="M 2919 2988 
L 2919 4863 
L 4044 4863 
L 4044 0 
L 2919 0 
L 2919 506 
Q 2688 197 2409 53 
Q 2131 -91 1766 -91 
Q 1119 -91 703 423 
Q 288 938 288 1747 
Q 288 2556 703 3070 
Q 1119 3584 1766 3584 
Q 2128 3584 2408 3439 
Q 2688 3294 2919 2988 
z
M 2181 722 
Q 2541 722 2730 984 
Q 2919 1247 2919 1747 
Q 2919 2247 2730 2509 
Q 2541 2772 2181 2772 
Q 1825 2772 1636 2509 
Q 1447 2247 1447 1747 
Q 1447 1247 1636 984 
Q 1825 722 2181 722 
z
" transform="scale(0.015625)"/>
      <path id="DejaVuSans-Bold-65" d="M 4031 1759 
L 4031 1441 
L 1416 1441 
Q 1456 1047 1700 850 
Q 1944 653 2381 653 
Q 2734 653 3104 758 
Q 3475 863 3866 1075 
L 3866 213 
Q 3469 63 3072 -14 
Q 2675 -91 2278 -91 
Q 1328 -91 801 392 
Q 275 875 275 1747 
Q 275 2603 792 3093 
Q 1309 3584 2216 3584 
Q 3041 3584 3536 3087 
Q 4031 2591 4031 1759 
z
M 2881 2131 
Q 2881 2450 2695 2645 
Q 2509 2841 2209 2841 
Q 1884 2841 1681 2658 
Q 1478 2475 1428 2131 
L 2881 2131 
z
" transform="scale(0.015625)"/>
      <path id="DejaVuSans-Bold-46" d="M 588 4666 
L 3834 4666 
L 3834 3756 
L 1791 3756 
L 1791 2888 
L 3713 2888 
L 3713 1978 
L 1791 1978 
L 1791 0 
L 588 0 
L 588 4666 
z
" transform="scale(0.015625)"/>
      <path id="DejaVuSans-Bold-77" d="M 225 3500 
L 1313 3500 
L 1900 1088 
L 2491 3500 
L 3425 3500 
L 4013 1113 
L 4603 3500 
L 5691 3500 
L 4769 0 
L 3547 0 
L 2956 2406 
L 2369 0 
L 1147 0 
L 225 3500 
z
" transform="scale(0.015625)"/>
      <path id="DejaVuSans-Bold-73" d="M 3272 3391 
L 3272 2541 
Q 2913 2691 2578 2766 
Q 2244 2841 1947 2841 
Q 1628 2841 1473 2761 
Q 1319 2681 1319 2516 
Q 1319 2381 1436 2309 
Q 1553 2238 1856 2203 
L 2053 2175 
Q 2913 2066 3209 1816 
Q 3506 1566 3506 1031 
Q 3506 472 3093 190 
Q 2681 -91 1863 -91 
Q 1516 -91 1145 -36 
Q 775 19 384 128 
L 384 978 
Q 719 816 1070 734 
Q 1422 653 1784 653 
Q 2113 653 2278 743 
Q 2444 834 2444 1013 
Q 2444 1163 2330 1236 
Q 2216 1309 1875 1350 
L 1678 1375 
Q 931 1469 631 1722 
Q 331 1975 331 2491 
Q 331 3047 712 3315 
Q 1094 3584 1881 3584 
Q 2191 3584 2531 3537 
Q 2872 3491 3272 3391 
z
" transform="scale(0.015625)"/>
     </defs>
     <use xlink:href="#DejaVuSans-Bold-47"/>
     <use xlink:href="#DejaVuSans-Bold-6c" transform="translate(82.080078 0)"/>
     <use xlink:href="#DejaVuSans-Bold-6f" transform="translate(116.357422 0)"/>
     <use xlink:href="#DejaVuSans-Bold-62" transform="translate(185.058594 0)"/>
     <use xlink:href="#DejaVuSans-Bold-61" transform="translate(256.640625 0)"/>
     <use xlink:href="#DejaVuSans-Bold-6c" transform="translate(324.121094 0)"/>
     <use xlink:href="#DejaVuSans-Bold-20" transform="translate(358.398438 0)"/>
     <use xlink:href="#DejaVuSans-Bold-54" transform="translate(393.212891 0)"/>
     <use xlink:href="#DejaVuSans-Bold-72" transform="translate(450.425781 0)"/>
     <use xlink:href="#DejaVuSans-Bold-61" transform="translate(499.742188 0)"/>
     <use xlink:href="#DejaVuSans-Bold-64" transform="translate(567.222656 0)"/>
     <use xlink:href="#DejaVuSans-Bold-65" transform="translate(638.804688 0)"/>
     <use xlink:href="#DejaVuSans-Bold-20" transform="translate(706.626953 0)"/>
     <use xlink:href="#DejaVuSans-Bold-46" transform="translate(741.441406 0)"/>
     <use xlink:href="#DejaVuSans-Bold-6c" transform="translate(809.751953 0)"/>
     <use xlink:href="#DejaVuSans-Bold-6f" transform="translate(844.029297 0)"/>
     <use xlink:href="#DejaVuSans-Bold-77" transform="translate(912.730469 0)"/>
     <use xlink:href="#DejaVuSans-Bold-73" transform="translate(1005.113281 0)"/>
    </g>
   </g>
   <g id="patch_15">
    <path d="M 64.148419 345.478222 
C 61.49679 343.947303 58.472334 343.18008 55.41159 343.261922 
C 52.350846 343.343764 49.371713 344.271521 46.805685 345.941956 
C 44.239658 347.612392 42.18558 349.961164 40.872012 352.726917 
C 39.558444 355.49267 39.035985 358.56887 39.36277 361.613219 
C 39.689555 364.657568 40.852997 367.552801 42.723636 369.976756 
C 44.594276 372.400712 47.100056 374.260021 49.962154 375.347793 
C 52.824251 376.435566 55.932419 376.709902 58.940803 376.140274 
C 61.949188 375.570647 64.741907 374.178999 67.008208 372.120182 
" clip-path="url(#p97685fcaa9)" style="fill: none; opacity: 0.45; stroke: #999999; stroke-width: 0.96; stroke-linejoin: miter"/>
   </g>
   <g id="patch_16">
    <path d="M 221.219434 108.118278 
C 224.298667 108.118278 227.252197 106.894886 229.429544 104.717539 
C 231.606891 102.540193 232.830283 99.586663 232.830283 96.50743 
C 232.830283 93.428196 231.606891 90.474666 229.429544 88.29732 
C 227.252197 86.119973 224.298667 84.896581 221.219434 84.896581 
C 218.140201 84.896581 215.186671 86.119973 213.009324 88.29732 
C 210.831978 90.474666 209.608585 93.428196 209.608585 96.50743 
C 209.608585 99.586663 210.831978 102.540193 213.009324 104.717539 
C 215.186671 106.894886 218.140201 108.118278 221.219434 108.118278 
z
" clip-path="url(#p97685fcaa9)" style="fill: #ffffff; opacity: 0.22"/>
   </g>
   <g id="patch_17">
    <path d="M 356.018612 341.597303 
C 359.097845 341.597303 362.051375 340.37391 364.228722 338.196564 
C 366.406068 336.019217 367.629461 333.065687 367.629461 329.986454 
C 367.629461 326.907221 366.406068 323.953691 364.228722 321.776344 
C 362.051375 319.598997 359.097845 318.375605 356.018612 318.375605 
C 352.939379 318.375605 349.985848 319.598997 347.808502 321.776344 
C 345.631155 323.953691 344.407763 326.907221 344.407763 329.986454 
C 344.407763 333.065687 345.631155 336.019217 347.808502 338.196564 
C 349.985848 340.37391 352.939379 341.597303 356.018612 341.597303 
z
" clip-path="url(#p97685fcaa9)" style="fill: #ffffff; opacity: 0.22"/>
   </g>
   <g id="patch_18">
    <path d="M 86.420257 341.597303 
C 89.49949 341.597303 92.45302 340.37391 94.630366 338.196564 
C 96.807713 336.019217 98.031105 333.065687 98.031105 329.986454 
C 98.031105 326.907221 96.807713 323.953691 94.630366 321.776344 
C 92.45302 319.598997 89.49949 318.375605 86.420257 318.375605 
C 83.341023 318.375605 80.387493 319.598997 78.210147 321.776344 
C 76.0328 323.953691 74.809408 326.907221 74.809408 329.986454 
C 74.809408 333.065687 76.0328 336.019217 78.210147 338.196564 
C 80.387493 340.37391 83.341023 341.597303 86.420257 341.597303 
z
" clip-path="url(#p97685fcaa9)" style="fill: #ffffff; opacity: 0.22"/>
   </g>
   <g id="patch_19">
    <path d="M 214.437561 129.401598 
L 207.218437 141.917247 
L 201.470055 135.77349 
z
" clip-path="url(#p97685fcaa9)" style="fill: #7b2d8b; opacity: 0.88"/>
   </g>
   <g id="patch_20">
    <path d="M 123.2057 337.72702 
L 137.654133 337.72114 
L 135.207674 345.771263 
z
" clip-path="url(#p97685fcaa9)" style="fill: #7b2d8b; opacity: 0.88"/>
   </g>
   <g id="patch_21">
    <path d="M 349.236739 312.573418 
L 342.00743 300.063648 
L 350.202271 298.157281 
z
" clip-path="url(#p97685fcaa9)" style="fill: #1a6fa8; opacity: 0.74"/>
   </g>
   <g id="patch_22">
    <path d="M 334.7143 337.72702 
L 320.265867 337.7329 
L 322.712326 329.682776 
z
" clip-path="url(#p97685fcaa9)" style="fill: #1a6fa8; opacity: 0.74"/>
   </g>
   <g id="patch_23">
    <path d="M 243.482439 129.401598 
L 250.711748 141.911367 
L 242.516907 143.817734 
z
" clip-path="url(#p97685fcaa9)" style="fill: #49a62d; opacity: 0.6"/>
   </g>
   <g id="patch_24">
    <path d="M 108.683261 312.573418 
L 115.902385 300.057768 
L 121.650768 306.201525 
z
" clip-path="url(#p97685fcaa9)" style="fill: #49a62d; opacity: 0.6"/>
   </g>
   <g id="patch_25">
    <path d="M 77.239258 362.825804 
L 69.836932 375.233979 
L 64.179485 369.006384 
z
" clip-path="url(#p97685fcaa9)" style="fill: #999999; opacity: 0.45"/>
   </g>
   <g id="text_3">
    <!-- Americas -->
    <g transform="translate(197.802188 69.299687) scale(0.12 -0.12)">
     <defs>
      <path id="DejaVuSans-Bold-41" d="M 3419 850 
L 1538 850 
L 1241 0 
L 31 0 
L 1759 4666 
L 3194 4666 
L 4922 0 
L 3713 0 
L 3419 850 
z
M 1838 1716 
L 3116 1716 
L 2478 3572 
L 1838 1716 
z
" transform="scale(0.015625)"/>
      <path id="DejaVuSans-Bold-6d" d="M 3781 2919 
Q 3994 3244 4286 3414 
Q 4578 3584 4928 3584 
Q 5531 3584 5847 3212 
Q 6163 2841 6163 2131 
L 6163 0 
L 5038 0 
L 5038 1825 
Q 5041 1866 5042 1909 
Q 5044 1953 5044 2034 
Q 5044 2406 4934 2573 
Q 4825 2741 4581 2741 
Q 4263 2741 4089 2478 
Q 3916 2216 3909 1719 
L 3909 0 
L 2784 0 
L 2784 1825 
Q 2784 2406 2684 2573 
Q 2584 2741 2328 2741 
Q 2006 2741 1831 2477 
Q 1656 2213 1656 1722 
L 1656 0 
L 531 0 
L 531 3500 
L 1656 3500 
L 1656 2988 
Q 1863 3284 2130 3434 
Q 2397 3584 2719 3584 
Q 3081 3584 3359 3409 
Q 3638 3234 3781 2919 
z
" transform="scale(0.015625)"/>
      <path id="DejaVuSans-Bold-69" d="M 538 3500 
L 1656 3500 
L 1656 0 
L 538 0 
L 538 3500 
z
M 538 4863 
L 1656 4863 
L 1656 3950 
L 538 3950 
L 538 4863 
z
" transform="scale(0.015625)"/>
      <path id="DejaVuSans-Bold-63" d="M 3366 3391 
L 3366 2478 
Q 3138 2634 2908 2709 
Q 2678 2784 2431 2784 
Q 1963 2784 1702 2511 
Q 1441 2238 1441 1747 
Q 1441 1256 1702 982 
Q 1963 709 2431 709 
Q 2694 709 2930 787 
Q 3166 866 3366 1019 
L 3366 103 
Q 3103 6 2833 -42 
Q 2563 -91 2291 -91 
Q 1344 -91 809 395 
Q 275 881 275 1747 
Q 275 2613 809 3098 
Q 1344 3584 2291 3584 
Q 2566 3584 2833 3536 
Q 3100 3488 3366 3391 
z
" transform="scale(0.015625)"/>
     </defs>
     <use xlink:href="#DejaVuSans-Bold-41"/>
     <use xlink:href="#DejaVuSans-Bold-6d" transform="translate(77.392578 0)"/>
     <use xlink:href="#DejaVuSans-Bold-65" transform="translate(181.591797 0)"/>
     <use xlink:href="#DejaVuSans-Bold-72" transform="translate(249.414062 0)"/>
     <use xlink:href="#DejaVuSans-Bold-69" transform="translate(298.730469 0)"/>
     <use xlink:href="#DejaVuSans-Bold-63" transform="translate(333.007812 0)"/>
     <use xlink:href="#DejaVuSans-Bold-61" transform="translate(392.285156 0)"/>
     <use xlink:href="#DejaVuSans-Bold-73" transform="translate(459.765625 0)"/>
    </g>
   </g>
   <g id="text_4">
    <!-- Europe -->
    <g transform="translate(391.864025 363.071486) scale(0.12 -0.12)">
     <defs>
      <path id="DejaVuSans-Bold-45" d="M 588 4666 
L 3834 4666 
L 3834 3756 
L 1791 3756 
L 1791 2888 
L 3713 2888 
L 3713 1978 
L 1791 1978 
L 1791 909 
L 3903 909 
L 3903 0 
L 588 0 
L 588 4666 
z
" transform="scale(0.015625)"/>
      <path id="DejaVuSans-Bold-75" d="M 500 1363 
L 500 3500 
L 1625 3500 
L 1625 3150 
Q 1625 2866 1622 2436 
Q 1619 2006 1619 1863 
Q 1619 1441 1641 1255 
Q 1663 1069 1716 984 
Q 1784 875 1895 815 
Q 2006 756 2150 756 
Q 2500 756 2700 1025 
Q 2900 1294 2900 1772 
L 2900 3500 
L 4019 3500 
L 4019 0 
L 2900 0 
L 2900 506 
Q 2647 200 2364 54 
Q 2081 -91 1741 -91 
Q 1134 -91 817 281 
Q 500 653 500 1363 
z
" transform="scale(0.015625)"/>
      <path id="DejaVuSans-Bold-70" d="M 1656 506 
L 1656 -1331 
L 538 -1331 
L 538 3500 
L 1656 3500 
L 1656 2988 
Q 1888 3294 2169 3439 
Q 2450 3584 2816 3584 
Q 3463 3584 3878 3070 
Q 4294 2556 4294 1747 
Q 4294 938 3878 423 
Q 3463 -91 2816 -91 
Q 2450 -91 2169 54 
Q 1888 200 1656 506 
z
M 2400 2772 
Q 2041 2772 1848 2508 
Q 1656 2244 1656 1747 
Q 1656 1250 1848 986 
Q 2041 722 2400 722 
Q 2759 722 2948 984 
Q 3138 1247 3138 1747 
Q 3138 2247 2948 2509 
Q 2759 2772 2400 2772 
z
" transform="scale(0.015625)"/>
     </defs>
     <use xlink:href="#DejaVuSans-Bold-45"/>
     <use xlink:href="#DejaVuSans-Bold-75" transform="translate(68.310547 0)"/>
     <use xlink:href="#DejaVuSans-Bold-72" transform="translate(139.501953 0)"/>
     <use xlink:href="#DejaVuSans-Bold-6f" transform="translate(188.818359 0)"/>
     <use xlink:href="#DejaVuSans-Bold-70" transform="translate(257.519531 0)"/>
     <use xlink:href="#DejaVuSans-Bold-65" transform="translate(329.101562 0)"/>
    </g>
   </g>
   <g id="text_5">
    <!-- Asia -->
    <g transform="translate(37.41535 363.071486) scale(0.12 -0.12)">
     <use xlink:href="#DejaVuSans-Bold-41"/>
     <use xlink:href="#DejaVuSans-Bold-73" transform="translate(77.392578 0)"/>
     <use xlink:href="#DejaVuSans-Bold-69" transform="translate(136.914062 0)"/>
     <use xlink:href="#DejaVuSans-Bold-61" transform="translate(171.191406 0)"/>
    </g>
   </g>
  </g>
 </g>
 <defs>
  <clipPath id="p97685fcaa9">
   <rect x="7.2" y="38.140678" width="443.52" height="443.52"/>
  </clipPath>
 </defs>
</svg>
