<?xml version="1.0" encoding="utf-8" standalone="no"?>
<!DOCTYPE svg PUBLIC "-//W3C//DTD SVG 1.1//EN"
  "http://www.w3.org/Graphics/SVG/1.1/DTD/svg11.dtd">
<svg xmlns:xlink="http://www.w3.org/1999/xlink" width="457.92pt" height="489.055991pt" viewBox="0 0 457.92 489.055991" xmlns="http://www.w3.org/2000/svg" version="1.1">
 <metadata>
  <rdf:RDF xmlns:dc="http://purl.org/dc/elements/1.1/" xmlns:cc="http://creativecommons.org/ns#" xmlns:rdf="http://www.w3.org/1999/02/22-rdf-syntax-ns#">
   <cc:Work>
    <dc:type rdf:resource="http://purl.org/dc/dcmitype/StillImage"/>
    <dc:date>2026-05-01T11:04:14.246184</dc:date>
    <dc:format>image/svg+xml</dc:format>
    <dc:creator>
     <cc:Agent>
      <dc:title>Matplotlib v3.10.7+dfsg1, https://matplotlib.org/</dc:title>
     </cc:Agent>
    </dc:creator>
   </cc:Work>
  </rdf:RDF>
 </metadata>
 <defs>
  <style type="text/css">*{stroke-linejoin: round; stroke-linecap: butt}</style>
 </defs>
 <g id="figure_1">
  <g id="patch_1">
   <path d="M 0 489.055991 
L 457.92 489.055991 
L 457.92 0 
L 0 0 
z
" style="fill: #ffffff"/>
  </g>
  <g id="axes_1">
   <g id="patch_2">
    <path d="M 228.96 407.96604 
C 268.175595 407.96604 305.790301 392.385518 333.519914 364.655905 
C 361.249528 336.926292 376.830049 299.311586 376.830049 260.095991 
C 376.830049 220.880396 361.249528 183.26569 333.519914 155.536077 
C 305.790301 127.806463 268.175595 112.225942 228.96 112.225942 
C 189.744405 112.225942 152.129699 127.806463 124.400086 155.536077 
C 96.670472 183.26569 81.089951 220.880396 81.089951 260.095991 
C 81.089951 299.311586 96.670472 336.926292 124.400086 364.655905 
C 152.129699 392.385518 189.744405 407.96604 228.96 407.96604 
z
" clip-path="url(#pba8ba841c2)" style="fill: #f0f4fa; stroke: #f0f4fa; stroke-linejoin: miter"/>
   </g>
   <g id="patch_3">
    <path d="M 209.412119 396.200793 
Q 132.950311 357.095629 100.139042 292.94019 
" clip-path="url(#pba8ba841c2)" style="fill: none; opacity: 0.88; stroke: #7b2d8b; stroke-width: 3.6; stroke-linejoin: miter"/>
   </g>
   <g id="patch_4">
    <path d="M 365.064802 240.54811 
Q 288.602994 201.442946 255.791725 137.287507 
" clip-path="url(#pba8ba841c2)" style="fill: none; opacity: 0.88; stroke: #7b2d8b; stroke-width: 3.6; stroke-linejoin: miter"/>
   </g>
   <g id="patch_5">
    <path d="M 92.855198 279.643872 
Q 169.317006 318.749036 202.128275 382.904475 
" clip-path="url(#pba8ba841c2)" style="fill: none; opacity: 0.88; stroke: #7b2d8b; stroke-width: 3.6; stroke-linejoin: miter"/>
   </g>
   <g id="patch_6">
    <path d="M 248.507881 123.991189 
Q 324.969689 163.096353 357.780958 227.251792 
" clip-path="url(#pba8ba841c2)" style="fill: none; opacity: 0.88; stroke: #7b2d8b; stroke-width: 3.6; stroke-linejoin: miter"/>
   </g>
   <g id="patch_7">
    <path d="M 228.96 388.103796 
Q 191.603356 260.795991 225.0681 146.751403 
" clip-path="url(#pba8ba841c2)" style="fill: none; opacity: 0.74; stroke: #1a6fa8; stroke-width: 2.56; stroke-linejoin: miter"/>
   </g>
   <g id="patch_8">
    <path d="M 228.96 132.088186 
Q 266.316644 259.395991 232.8519 373.440578 
" clip-path="url(#pba8ba841c2)" style="fill: none; opacity: 0.74; stroke: #1a6fa8; stroke-width: 2.56; stroke-linejoin: miter"/>
   </g>
   <g id="patch_9">
    <path d="M 92.855198 240.54811 
Q 131.960362 164.086302 196.115801 131.275033 
" clip-path="url(#pba8ba841c2)" style="fill: none; opacity: 0.6; stroke: #49a62d; stroke-width: 1.68; stroke-linejoin: miter"/>
   </g>
   <g id="patch_10">
    <path d="M 209.412119 123.991189 
Q 170.306955 200.452997 106.151516 233.264266 
" clip-path="url(#pba8ba841c2)" style="fill: none; opacity: 0.6; stroke: #49a62d; stroke-width: 1.68; stroke-linejoin: miter"/>
   </g>
   <g id="patch_11">
    <path d="M 248.507881 396.200793 
Q 287.613045 319.738985 351.768484 286.927716 
" clip-path="url(#pba8ba841c2)" style="fill: none; opacity: 0.6; stroke: #49a62d; stroke-width: 1.68; stroke-linejoin: miter"/>
   </g>
   <g id="patch_12">
    <path d="M 100.952195 260.095991 
Q 228.26 297.452635 342.304588 263.987891 
" clip-path="url(#pba8ba841c2)" style="fill: none; opacity: 0.45; stroke: #999999; stroke-width: 0.96; stroke-linejoin: miter"/>
   </g>
   <g id="patch_13">
    <path d="M 365.064802 279.643872 
Q 325.959638 356.10568 261.804199 388.916949 
" clip-path="url(#pba8ba841c2)" style="fill: none; opacity: 0.45; stroke: #999999; stroke-width: 0.96; stroke-linejoin: miter"/>
   </g>
   <g id="patch_14">
    <path d="M 356.967805 260.095991 
Q 229.66 222.739347 115.615412 256.204091 
" clip-path="url(#pba8ba841c2)" style="fill: none; opacity: 0.45; stroke: #999999; stroke-width: 0.96; stroke-linejoin: miter"/>
   </g>
   <g id="patch_15">
    <path d="M 230.041756 444.475308 
C 237.373263 444.475308 244.405478 441.562469 249.589637 436.378311 
C 254.773795 431.194152 257.686634 424.161937 257.686634 416.83043 
C 257.686634 409.498923 254.773795 402.466708 249.589637 397.282549 
C 244.405478 392.098391 237.373263 389.185552 230.041756 389.185552 
C 222.710249 389.185552 215.678034 392.098391 210.493875 397.282549 
C 205.309717 402.466708 202.396878 409.498923 202.396878 416.83043 
C 202.396878 424.161937 205.309717 431.194152 210.493875 436.378311 
C 215.678034 441.562469 222.710249 444.475308 230.041756 444.475308 
z
" clip-path="url(#pba8ba841c2)" style="fill-opacity: 0.133333"/>
   </g>
   <g id="patch_16">
    <path d="M 74.389073 288.822625 
C 81.720581 288.822625 88.752795 285.909786 93.936954 280.725628 
C 99.121112 275.541469 102.033951 268.509254 102.033951 261.177747 
C 102.033951 253.84624 99.121112 246.814025 93.936954 241.629866 
C 88.752795 236.445708 81.720581 233.532869 74.389073 233.532869 
C 67.057566 233.532869 60.025351 236.445708 54.841192 241.629866 
C 49.657034 246.814025 46.744195 253.84624 46.744195 261.177747 
C 46.744195 268.509254 49.657034 275.541469 54.841192 280.725628 
C 60.025351 285.909786 67.057566 288.822625 74.389073 288.822625 
z
" clip-path="url(#pba8ba841c2)" style="fill-opacity: 0.133333"/>
   </g>
   <g id="patch_17">
    <path d="M 230.041756 133.169942 
C 237.373263 133.169942 244.405478 130.257103 249.589637 125.072945 
C 254.773795 119.888786 257.686634 112.856571 257.686634 105.525064 
C 257.686634 98.193557 254.773795 91.161342 249.589637 85.977183 
C 244.405478 80.793025 237.373263 77.880186 230.041756 77.880186 
C 222.710249 77.880186 215.678034 80.793025 210.493875 85.977183 
C 205.309717 91.161342 202.396878 98.193557 202.396878 105.525064 
C 202.396878 112.856571 205.309717 119.888786 210.493875 125.072945 
C 215.678034 130.257103 222.710249 133.169942 230.041756 133.169942 
z
" clip-path="url(#pba8ba841c2)" style="fill-opacity: 0.133333"/>
   </g>
   <g id="patch_18">
    <path d="M 385.694439 288.822625 
C 393.025946 288.822625 400.058161 285.909786 405.24232 280.725628 
C 410.426478 275.541469 413.339317 268.509254 413.339317 261.177747 
C 413.339317 253.84624 410.426478 246.814025 405.24232 241.629866 
C 400.058161 236.445708 393.025946 233.532869 385.694439 233.532869 
C 378.362932 233.532869 371.330717 236.445708 366.146558 241.629866 
C 360.9624 246.814025 358.049561 253.84624 358.049561 261.177747 
C 358.049561 268.509254 360.9624 275.541469 366.146558 280.725628 
C 371.330717 285.909786 378.362932 288.822625 385.694439 288.822625 
z
" clip-path="url(#pba8ba841c2)" style="fill-opacity: 0.133333"/>
   </g>
   <g id="patch_19">
    <path d="M 228.96 443.393552 
C 236.291507 443.393552 243.323722 440.480713 248.507881 435.296555 
C 253.692039 430.112396 256.604878 423.080181 256.604878 415.748674 
C 256.604878 408.417166 253.692039 401.384952 248.507881 396.200793 
C 243.323722 391.016634 236.291507 388.103796 228.96 388.103796 
C 221.628493 388.103796 214.596278 391.016634 209.412119 396.200793 
C 204.227961 401.384952 201.315122 408.417166 201.315122 415.748674 
C 201.315122 423.080181 204.227961 430.112396 209.412119 435.296555 
C 214.596278 440.480713 221.628493 443.393552 228.96 443.393552 
z
" clip-path="url(#pba8ba841c2)" style="fill: #003087; stroke: #ffffff; stroke-width: 2.8; stroke-linejoin: miter"/>
   </g>
   <g id="patch_20">
    <path d="M 73.307317 287.740869 
C 80.638824 287.740869 87.671039 284.82803 92.855198 279.643872 
C 98.039356 274.459713 100.952195 267.427498 100.952195 260.095991 
C 100.952195 252.764483 98.039356 245.732269 92.855198 240.54811 
C 87.671039 235.363952 80.638824 232.451113 73.307317 232.451113 
C 65.97581 232.451113 58.943595 235.363952 53.759436 240.54811 
C 48.575278 245.732269 45.662439 252.764483 45.662439 260.095991 
C 45.662439 267.427498 48.575278 274.459713 53.759436 279.643872 
C 58.943595 284.82803 65.97581 287.740869 73.307317 287.740869 
z
" clip-path="url(#pba8ba841c2)" style="fill: #bf0a30; stroke: #ffffff; stroke-width: 2.8; stroke-linejoin: miter"/>
   </g>
   <g id="patch_21">
    <path d="M 228.96 132.088186 
C 236.291507 132.088186 243.323722 129.175347 248.507881 123.991189 
C 253.692039 118.80703 256.604878 111.774815 256.604878 104.443308 
C 256.604878 97.111801 253.692039 90.079586 248.507881 84.895427 
C 243.323722 79.711269 236.291507 76.79843 228.96 76.79843 
C 221.628493 76.79843 214.596278 79.711269 209.412119 84.895427 
C 204.227961 90.079586 201.315122 97.111801 201.315122 104.443308 
C 201.315122 111.774815 204.227961 118.80703 209.412119 123.991189 
C 214.596278 129.175347 221.628493 132.088186 228.96 132.088186 
z
" clip-path="url(#pba8ba841c2)" style="fill: #009639; stroke: #ffffff; stroke-width: 2.8; stroke-linejoin: miter"/>
   </g>
   <g id="patch_22">
    <path d="M 384.612683 287.740869 
C 391.94419 287.740869 398.976405 284.82803 404.160564 279.643872 
C 409.344722 274.459713 412.257561 267.427498 412.257561 260.095991 
C 412.257561 252.764483 409.344722 245.732269 404.160564 240.54811 
C 398.976405 235.363952 391.94419 232.451113 384.612683 232.451113 
C 377.281176 232.451113 370.248961 235.363952 365.064802 240.54811 
C 359.880644 245.732269 356.967805 252.764483 356.967805 260.095991 
C 356.967805 267.427498 359.880644 274.459713 365.064802 279.643872 
C 370.248961 284.82803 377.281176 287.740869 384.612683 287.740869 
z
" clip-path="url(#pba8ba841c2)" style="fill: #ef3340; stroke: #ffffff; stroke-width: 2.8; stroke-linejoin: miter"/>
   </g>
   <g id="text_1">
    <!-- London · New York · Dubai · Singapore -->
    <g transform="translate(109.713906 46.991016) scale(0.125 -0.125)">
     <defs>
      <path id="DejaVuSans-4c" d="M 628 4666 
L 1259 4666 
L 1259 531 
L 3531 531 
L 3531 0 
L 628 0 
L 628 4666 
z
" transform="scale(0.015625)"/>
      <path id="DejaVuSans-6f" d="M 1959 3097 
Q 1497 3097 1228 2736 
Q 959 2375 959 1747 
Q 959 1119 1226 758 
Q 1494 397 1959 397 
Q 2419 397 2687 759 
Q 2956 1122 2956 1747 
Q 2956 2369 2687 2733 
Q 2419 3097 1959 3097 
z
M 1959 3584 
Q 2709 3584 3137 3096 
Q 3566 2609 3566 1747 
Q 3566 888 3137 398 
Q 2709 -91 1959 -91 
Q 1206 -91 779 398 
Q 353 888 353 1747 
Q 353 2609 779 3096 
Q 1206 3584 1959 3584 
z
" transform="scale(0.015625)"/>
      <path id="DejaVuSans-6e" d="M 3513 2113 
L 3513 0 
L 2938 0 
L 2938 2094 
Q 2938 2591 2744 2837 
Q 2550 3084 2163 3084 
Q 1697 3084 1428 2787 
Q 1159 2491 1159 1978 
L 1159 0 
L 581 0 
L 581 3500 
L 1159 3500 
L 1159 2956 
Q 1366 3272 1645 3428 
Q 1925 3584 2291 3584 
Q 2894 3584 3203 3211 
Q 3513 2838 3513 2113 
z
" transform="scale(0.015625)"/>
      <path id="DejaVuSans-64" d="M 2906 2969 
L 2906 4863 
L 3481 4863 
L 3481 0 
L 2906 0 
L 2906 525 
Q 2725 213 2448 61 
Q 2172 -91 1784 -91 
Q 1150 -91 751 415 
Q 353 922 353 1747 
Q 353 2572 751 3078 
Q 1150 3584 1784 3584 
Q 2172 3584 2448 3432 
Q 2725 3281 2906 2969 
z
M 947 1747 
Q 947 1113 1208 752 
Q 1469 391 1925 391 
Q 2381 391 2643 752 
Q 2906 1113 2906 1747 
Q 2906 2381 2643 2742 
Q 2381 3103 1925 3103 
Q 1469 3103 1208 2742 
Q 947 2381 947 1747 
z
" transform="scale(0.015625)"/>
      <path id="DejaVuSans-20" transform="scale(0.015625)"/>
      <path id="DejaVuSans-b7" d="M 684 2619 
L 1344 2619 
L 1344 1825 
L 684 1825 
L 684 2619 
z
" transform="scale(0.015625)"/>
      <path id="DejaVuSans-4e" d="M 628 4666 
L 1478 4666 
L 3547 763 
L 3547 4666 
L 4159 4666 
L 4159 0 
L 3309 0 
L 1241 3903 
L 1241 0 
L 628 0 
L 628 4666 
z
" transform="scale(0.015625)"/>
      <path id="DejaVuSans-65" d="M 3597 1894 
L 3597 1613 
L 953 1613 
Q 991 1019 1311 708 
Q 1631 397 2203 397 
Q 2534 397 2845 478 
Q 3156 559 3463 722 
L 3463 178 
Q 3153 47 2828 -22 
Q 2503 -91 2169 -91 
Q 1331 -91 842 396 
Q 353 884 353 1716 
Q 353 2575 817 3079 
Q 1281 3584 2069 3584 
Q 2775 3584 3186 3129 
Q 3597 2675 3597 1894 
z
M 3022 2063 
Q 3016 2534 2758 2815 
Q 2500 3097 2075 3097 
Q 1594 3097 1305 2825 
Q 1016 2553 972 2059 
L 3022 2063 
z
" transform="scale(0.015625)"/>
      <path id="DejaVuSans-77" d="M 269 3500 
L 844 3500 
L 1563 769 
L 2278 3500 
L 2956 3500 
L 3675 769 
L 4391 3500 
L 4966 3500 
L 4050 0 
L 3372 0 
L 2619 2869 
L 1863 0 
L 1184 0 
L 269 3500 
z
" transform="scale(0.015625)"/>
      <path id="DejaVuSans-59" d="M -13 4666 
L 666 4666 
L 1959 2747 
L 3244 4666 
L 3922 4666 
L 2272 2222 
L 2272 0 
L 1638 0 
L 1638 2222 
L -13 4666 
z
" transform="scale(0.015625)"/>
      <path id="DejaVuSans-72" d="M 2631 2963 
Q 2534 3019 2420 3045 
Q 2306 3072 2169 3072 
Q 1681 3072 1420 2755 
Q 1159 2438 1159 1844 
L 1159 0 
L 581 0 
L 581 3500 
L 1159 3500 
L 1159 2956 
Q 1341 3275 1631 3429 
Q 1922 3584 2338 3584 
Q 2397 3584 2469 3576 
Q 2541 3569 2628 3553 
L 2631 2963 
z
" transform="scale(0.015625)"/>
      <path id="DejaVuSans-6b" d="M 581 4863 
L 1159 4863 
L 1159 1991 
L 2875 3500 
L 3609 3500 
L 1753 1863 
L 3688 0 
L 2938 0 
L 1159 1709 
L 1159 0 
L 581 0 
L 581 4863 
z
" transform="scale(0.015625)"/>
      <path id="DejaVuSans-44" d="M 1259 4147 
L 1259 519 
L 2022 519 
Q 2988 519 3436 956 
Q 3884 1394 3884 2338 
Q 3884 3275 3436 3711 
Q 2988 4147 2022 4147 
L 1259 4147 
z
M 628 4666 
L 1925 4666 
Q 3281 4666 3915 4102 
Q 4550 3538 4550 2338 
Q 4550 1131 3912 565 
Q 3275 0 1925 0 
L 628 0 
L 628 4666 
z
" transform="scale(0.015625)"/>
      <path id="DejaVuSans-75" d="M 544 1381 
L 544 3500 
L 1119 3500 
L 1119 1403 
Q 1119 906 1312 657 
Q 1506 409 1894 409 
Q 2359 409 2629 706 
Q 2900 1003 2900 1516 
L 2900 3500 
L 3475 3500 
L 3475 0 
L 2900 0 
L 2900 538 
Q 2691 219 2414 64 
Q 2138 -91 1772 -91 
Q 1169 -91 856 284 
Q 544 659 544 1381 
z
M 1991 3584 
L 1991 3584 
z
" transform="scale(0.015625)"/>
      <path id="DejaVuSans-62" d="M 3116 1747 
Q 3116 2381 2855 2742 
Q 2594 3103 2138 3103 
Q 1681 3103 1420 2742 
Q 1159 2381 1159 1747 
Q 1159 1113 1420 752 
Q 1681 391 2138 391 
Q 2594 391 2855 752 
Q 3116 1113 3116 1747 
z
M 1159 2969 
Q 1341 3281 1617 3432 
Q 1894 3584 2278 3584 
Q 2916 3584 3314 3078 
Q 3713 2572 3713 1747 
Q 3713 922 3314 415 
Q 2916 -91 2278 -91 
Q 1894 -91 1617 61 
Q 1341 213 1159 525 
L 1159 0 
L 581 0 
L 581 4863 
L 1159 4863 
L 1159 2969 
z
" transform="scale(0.015625)"/>
      <path id="DejaVuSans-61" d="M 2194 1759 
Q 1497 1759 1228 1600 
Q 959 1441 959 1056 
Q 959 750 1161 570 
Q 1363 391 1709 391 
Q 2188 391 2477 730 
Q 2766 1069 2766 1631 
L 2766 1759 
L 2194 1759 
z
M 3341 1997 
L 3341 0 
L 2766 0 
L 2766 531 
Q 2569 213 2275 61 
Q 1981 -91 1556 -91 
Q 1019 -91 701 211 
Q 384 513 384 1019 
Q 384 1609 779 1909 
Q 1175 2209 1959 2209 
L 2766 2209 
L 2766 2266 
Q 2766 2663 2505 2880 
Q 2244 3097 1772 3097 
Q 1472 3097 1187 3025 
Q 903 2953 641 2809 
L 641 3341 
Q 956 3463 1253 3523 
Q 1550 3584 1831 3584 
Q 2591 3584 2966 3190 
Q 3341 2797 3341 1997 
z
" transform="scale(0.015625)"/>
      <path id="DejaVuSans-69" d="M 603 3500 
L 1178 3500 
L 1178 0 
L 603 0 
L 603 3500 
z
M 603 4863 
L 1178 4863 
L 1178 4134 
L 603 4134 
L 603 4863 
z
" transform="scale(0.015625)"/>
      <path id="DejaVuSans-53" d="M 3425 4513 
L 3425 3897 
Q 3066 4069 2747 4153 
Q 2428 4238 2131 4238 
Q 1616 4238 1336 4038 
Q 1056 3838 1056 3469 
Q 1056 3159 1242 3001 
Q 1428 2844 1947 2747 
L 2328 2669 
Q 3034 2534 3370 2195 
Q 3706 1856 3706 1288 
Q 3706 609 3251 259 
Q 2797 -91 1919 -91 
Q 1588 -91 1214 -16 
Q 841 59 441 206 
L 441 856 
Q 825 641 1194 531 
Q 1563 422 1919 422 
Q 2459 422 2753 634 
Q 3047 847 3047 1241 
Q 3047 1584 2836 1778 
Q 2625 1972 2144 2069 
L 1759 2144 
Q 1053 2284 737 2584 
Q 422 2884 422 3419 
Q 422 4038 858 4394 
Q 1294 4750 2059 4750 
Q 2388 4750 2728 4690 
Q 3069 4631 3425 4513 
z
" transform="scale(0.015625)"/>
      <path id="DejaVuSans-67" d="M 2906 1791 
Q 2906 2416 2648 2759 
Q 2391 3103 1925 3103 
Q 1463 3103 1205 2759 
Q 947 2416 947 1791 
Q 947 1169 1205 825 
Q 1463 481 1925 481 
Q 2391 481 2648 825 
Q 2906 1169 2906 1791 
z
M 3481 434 
Q 3481 -459 3084 -895 
Q 2688 -1331 1869 -1331 
Q 1566 -1331 1297 -1286 
Q 1028 -1241 775 -1147 
L 775 -588 
Q 1028 -725 1275 -790 
Q 1522 -856 1778 -856 
Q 2344 -856 2625 -561 
Q 2906 -266 2906 331 
L 2906 616 
Q 2728 306 2450 153 
Q 2172 0 1784 0 
Q 1141 0 747 490 
Q 353 981 353 1791 
Q 353 2603 747 3093 
Q 1141 3584 1784 3584 
Q 2172 3584 2450 3431 
Q 2728 3278 2906 2969 
L 2906 3500 
L 3481 3500 
L 3481 434 
z
" transform="scale(0.015625)"/>
      <path id="DejaVuSans-70" d="M 1159 525 
L 1159 -1331 
L 581 -1331 
L 581 3500 
L 1159 3500 
L 1159 2969 
Q 1341 3281 1617 3432 
Q 1894 3584 2278 3584 
Q 2916 3584 3314 3078 
Q 3713 2572 3713 1747 
Q 3713 922 3314 415 
Q 2916 -91 2278 -91 
Q 1894 -91 1617 61 
Q 1341 213 1159 525 
z
M 3116 1747 
Q 3116 2381 2855 2742 
Q 2594 3103 2138 3103 
Q 1681 3103 1420 2742 
Q 1159 2381 1159 1747 
Q 1159 1113 1420 752 
Q 1681 391 2138 391 
Q 2594 391 2855 752 
Q 3116 1113 3116 1747 
z
" transform="scale(0.015625)"/>
     </defs>
     <use xlink:href="#DejaVuSans-4c"/>
     <use xlink:href="#DejaVuSans-6f" transform="translate(53.962891 0)"/>
     <use xlink:href="#DejaVuSans-6e" transform="translate(115.144531 0)"/>
     <use xlink:href="#DejaVuSans-64" transform="translate(178.523438 0)"/>
     <use xlink:href="#DejaVuSans-6f" transform="translate(242 0)"/>
     <use xlink:href="#DejaVuSans-6e" transform="translate(303.181641 0)"/>
     <use xlink:href="#DejaVuSans-20" transform="translate(366.560547 0)"/>
     <use xlink:href="#DejaVuSans-b7" transform="translate(398.347656 0)"/>
     <use xlink:href="#DejaVuSans-20" transform="translate(430.134766 0)"/>
     <use xlink:href="#DejaVuSans-4e" transform="translate(461.921875 0)"/>
     <use xlink:href="#DejaVuSans-65" transform="translate(536.726562 0)"/>
     <use xlink:href="#DejaVuSans-77" transform="translate(598.25 0)"/>
     <use xlink:href="#DejaVuSans-20" transform="translate(680.037109 0)"/>
     <use xlink:href="#DejaVuSans-59" transform="translate(711.824219 0)"/>
     <use xlink:href="#DejaVuSans-6f" transform="translate(759.658203 0)"/>
     <use xlink:href="#DejaVuSans-72" transform="translate(820.839844 0)"/>
     <use xlink:href="#DejaVuSans-6b" transform="translate(861.953125 0)"/>
     <use xlink:href="#DejaVuSans-20" transform="translate(919.863281 0)"/>
     <use xlink:href="#DejaVuSans-b7" transform="translate(951.650391 0)"/>
     <use xlink:href="#DejaVuSans-20" transform="translate(983.4375 0)"/>
     <use xlink:href="#DejaVuSans-44" transform="translate(1015.224609 0)"/>
     <use xlink:href="#DejaVuSans-75" transform="translate(1092.226562 0)"/>
     <use xlink:href="#DejaVuSans-62" transform="translate(1155.605469 0)"/>
     <use xlink:href="#DejaVuSans-61" transform="translate(1219.082031 0)"/>
     <use xlink:href="#DejaVuSans-69" transform="translate(1280.361328 0)"/>
     <use xlink:href="#DejaVuSans-20" transform="translate(1308.144531 0)"/>
     <use xlink:href="#DejaVuSans-b7" transform="translate(1339.931641 0)"/>
     <use xlink:href="#DejaVuSans-20" transform="translate(1371.71875 0)"/>
     <use xlink:href="#DejaVuSans-53" transform="translate(1403.505859 0)"/>
     <use xlink:href="#DejaVuSans-69" transform="translate(1466.982422 0)"/>
     <use xlink:href="#DejaVuSans-6e" transform="translate(1494.765625 0)"/>
     <use xlink:href="#DejaVuSans-67" transform="translate(1558.144531 0)"/>
     <use xlink:href="#DejaVuSans-61" transform="translate(1621.621094 0)"/>
     <use xlink:href="#DejaVuSans-70" transform="translate(1682.900391 0)"/>
     <use xlink:href="#DejaVuSans-6f" transform="translate(1746.376953 0)"/>
     <use xlink:href="#DejaVuSans-72" transform="translate(1807.558594 0)"/>
     <use xlink:href="#DejaVuSans-65" transform="translate(1846.421875 0)"/>
    </g>
   </g>
   <g id="text_2">
    <!-- Flight Hub Connectivity -->
    <g transform="translate(62.756875 26.196094) scale(0.25 -0.25)">
     <defs>
      <path id="DejaVuSans-Bold-46" d="M 588 4666 
L 3834 4666 
L 3834 3756 
L 1791 3756 
L 1791 2888 
L 3713 2888 
L 3713 1978 
L 1791 1978 
L 1791 0 
L 588 0 
L 588 4666 
z
" transform="scale(0.015625)"/>
      <path id="DejaVuSans-Bold-6c" d="M 538 4863 
L 1656 4863 
L 1656 0 
L 538 0 
L 538 4863 
z
" transform="scale(0.015625)"/>
      <path id="DejaVuSans-Bold-69" d="M 538 3500 
L 1656 3500 
L 1656 0 
L 538 0 
L 538 3500 
z
M 538 4863 
L 1656 4863 
L 1656 3950 
L 538 3950 
L 538 4863 
z
" transform="scale(0.015625)"/>
      <path id="DejaVuSans-Bold-67" d="M 2919 594 
Q 2688 288 2409 144 
Q 2131 0 1766 0 
Q 1125 0 706 504 
Q 288 1009 288 1791 
Q 288 2575 706 3076 
Q 1125 3578 1766 3578 
Q 2131 3578 2409 3434 
Q 2688 3291 2919 2981 
L 2919 3500 
L 4044 3500 
L 4044 353 
Q 4044 -491 3511 -936 
Q 2978 -1381 1966 -1381 
Q 1638 -1381 1331 -1331 
Q 1025 -1281 716 -1178 
L 716 -306 
Q 1009 -475 1290 -558 
Q 1572 -641 1856 -641 
Q 2406 -641 2662 -400 
Q 2919 -159 2919 353 
L 2919 594 
z
M 2181 2772 
Q 1834 2772 1640 2515 
Q 1447 2259 1447 1791 
Q 1447 1309 1634 1061 
Q 1822 813 2181 813 
Q 2531 813 2725 1069 
Q 2919 1325 2919 1791 
Q 2919 2259 2725 2515 
Q 2531 2772 2181 2772 
z
" transform="scale(0.015625)"/>
      <path id="DejaVuSans-Bold-68" d="M 4056 2131 
L 4056 0 
L 2931 0 
L 2931 347 
L 2931 1625 
Q 2931 2084 2911 2256 
Q 2891 2428 2841 2509 
Q 2775 2619 2662 2680 
Q 2550 2741 2406 2741 
Q 2056 2741 1856 2470 
Q 1656 2200 1656 1722 
L 1656 0 
L 538 0 
L 538 4863 
L 1656 4863 
L 1656 2988 
Q 1909 3294 2193 3439 
Q 2478 3584 2822 3584 
Q 3428 3584 3742 3212 
Q 4056 2841 4056 2131 
z
" transform="scale(0.015625)"/>
      <path id="DejaVuSans-Bold-74" d="M 1759 4494 
L 1759 3500 
L 2913 3500 
L 2913 2700 
L 1759 2700 
L 1759 1216 
Q 1759 972 1856 886 
Q 1953 800 2241 800 
L 2816 800 
L 2816 0 
L 1856 0 
Q 1194 0 917 276 
Q 641 553 641 1216 
L 641 2700 
L 84 2700 
L 84 3500 
L 641 3500 
L 641 4494 
L 1759 4494 
z
" transform="scale(0.015625)"/>
      <path id="DejaVuSans-Bold-20" transform="scale(0.015625)"/>
      <path id="DejaVuSans-Bold-48" d="M 588 4666 
L 1791 4666 
L 1791 2888 
L 3566 2888 
L 3566 4666 
L 4769 4666 
L 4769 0 
L 3566 0 
L 3566 1978 
L 1791 1978 
L 1791 0 
L 588 0 
L 588 4666 
z
" transform="scale(0.015625)"/>
      <path id="DejaVuSans-Bold-75" d="M 500 1363 
L 500 3500 
L 1625 3500 
L 1625 3150 
Q 1625 2866 1622 2436 
Q 1619 2006 1619 1863 
Q 1619 1441 1641 1255 
Q 1663 1069 1716 984 
Q 1784 875 1895 815 
Q 2006 756 2150 756 
Q 2500 756 2700 1025 
Q 2900 1294 2900 1772 
L 2900 3500 
L 4019 3500 
L 4019 0 
L 2900 0 
L 2900 506 
Q 2647 200 2364 54 
Q 2081 -91 1741 -91 
Q 1134 -91 817 281 
Q 500 653 500 1363 
z
" transform="scale(0.015625)"/>
      <path id="DejaVuSans-Bold-62" d="M 2400 722 
Q 2759 722 2948 984 
Q 3138 1247 3138 1747 
Q 3138 2247 2948 2509 
Q 2759 2772 2400 2772 
Q 2041 2772 1848 2508 
Q 1656 2244 1656 1747 
Q 1656 1250 1848 986 
Q 2041 722 2400 722 
z
M 1656 2988 
Q 1888 3294 2169 3439 
Q 2450 3584 2816 3584 
Q 3463 3584 3878 3070 
Q 4294 2556 4294 1747 
Q 4294 938 3878 423 
Q 3463 -91 2816 -91 
Q 2450 -91 2169 54 
Q 1888 200 1656 506 
L 1656 0 
L 538 0 
L 538 4863 
L 1656 4863 
L 1656 2988 
z
" transform="scale(0.015625)"/>
      <path id="DejaVuSans-Bold-43" d="M 4288 256 
Q 3956 84 3597 -3 
Q 3238 -91 2847 -91 
Q 1681 -91 1000 561 
Q 319 1213 319 2328 
Q 319 3447 1000 4098 
Q 1681 4750 2847 4750 
Q 3238 4750 3597 4662 
Q 3956 4575 4288 4403 
L 4288 3438 
Q 3953 3666 3628 3772 
Q 3303 3878 2944 3878 
Q 2300 3878 1931 3465 
Q 1563 3053 1563 2328 
Q 1563 1606 1931 1193 
Q 2300 781 2944 781 
Q 3303 781 3628 887 
Q 3953 994 4288 1222 
L 4288 256 
z
" transform="scale(0.015625)"/>
      <path id="DejaVuSans-Bold-6f" d="M 2203 2784 
Q 1831 2784 1636 2517 
Q 1441 2250 1441 1747 
Q 1441 1244 1636 976 
Q 1831 709 2203 709 
Q 2569 709 2762 976 
Q 2956 1244 2956 1747 
Q 2956 2250 2762 2517 
Q 2569 2784 2203 2784 
z
M 2203 3584 
Q 3106 3584 3614 3096 
Q 4122 2609 4122 1747 
Q 4122 884 3614 396 
Q 3106 -91 2203 -91 
Q 1297 -91 786 396 
Q 275 884 275 1747 
Q 275 2609 786 3096 
Q 1297 3584 2203 3584 
z
" transform="scale(0.015625)"/>
      <path id="DejaVuSans-Bold-6e" d="M 4056 2131 
L 4056 0 
L 2931 0 
L 2931 347 
L 2931 1631 
Q 2931 2084 2911 2256 
Q 2891 2428 2841 2509 
Q 2775 2619 2662 2680 
Q 2550 2741 2406 2741 
Q 2056 2741 1856 2470 
Q 1656 2200 1656 1722 
L 1656 0 
L 538 0 
L 538 3500 
L 1656 3500 
L 1656 2988 
Q 1909 3294 2193 3439 
Q 2478 3584 2822 3584 
Q 3428 3584 3742 3212 
Q 4056 2841 4056 2131 
z
" transform="scale(0.015625)"/>
      <path id="DejaVuSans-Bold-65" d="M 4031 1759 
L 4031 1441 
L 1416 1441 
Q 1456 1047 1700 850 
Q 1944 653 2381 653 
Q 2734 653 3104 758 
Q 3475 863 3866 1075 
L 3866 213 
Q 3469 63 3072 -14 
Q 2675 -91 2278 -91 
Q 1328 -91 801 392 
Q 275 875 275 1747 
Q 275 2603 792 3093 
Q 1309 3584 2216 3584 
Q 3041 3584 3536 3087 
Q 4031 2591 4031 1759 
z
M 2881 2131 
Q 2881 2450 2695 2645 
Q 2509 2841 2209 2841 
Q 1884 2841 1681 2658 
Q 1478 2475 1428 2131 
L 2881 2131 
z
" transform="scale(0.015625)"/>
      <path id="DejaVuSans-Bold-63" d="M 3366 3391 
L 3366 2478 
Q 3138 2634 2908 2709 
Q 2678 2784 2431 2784 
Q 1963 2784 1702 2511 
Q 1441 2238 1441 1747 
Q 1441 1256 1702 982 
Q 1963 709 2431 709 
Q 2694 709 2930 787 
Q 3166 866 3366 1019 
L 3366 103 
Q 3103 6 2833 -42 
Q 2563 -91 2291 -91 
Q 1344 -91 809 395 
Q 275 881 275 1747 
Q 275 2613 809 3098 
Q 1344 3584 2291 3584 
Q 2566 3584 2833 3536 
Q 3100 3488 3366 3391 
z
" transform="scale(0.015625)"/>
      <path id="DejaVuSans-Bold-76" d="M 97 3500 
L 1216 3500 
L 2088 1081 
L 2956 3500 
L 4078 3500 
L 2700 0 
L 1472 0 
L 97 3500 
z
" transform="scale(0.015625)"/>
      <path id="DejaVuSans-Bold-79" d="M 78 3500 
L 1197 3500 
L 2138 1125 
L 2938 3500 
L 4056 3500 
L 2584 -331 
Q 2363 -916 2067 -1148 
Q 1772 -1381 1288 -1381 
L 641 -1381 
L 641 -647 
L 991 -647 
Q 1275 -647 1404 -556 
Q 1534 -466 1606 -231 
L 1638 -134 
L 78 3500 
z
" transform="scale(0.015625)"/>
     </defs>
     <use xlink:href="#DejaVuSans-Bold-46"/>
     <use xlink:href="#DejaVuSans-Bold-6c" transform="translate(68.310547 0)"/>
     <use xlink:href="#DejaVuSans-Bold-69" transform="translate(102.587891 0)"/>
     <use xlink:href="#DejaVuSans-Bold-67" transform="translate(136.865234 0)"/>
     <use xlink:href="#DejaVuSans-Bold-68" transform="translate(208.447266 0)"/>
     <use xlink:href="#DejaVuSans-Bold-74" transform="translate(279.638672 0)"/>
     <use xlink:href="#DejaVuSans-Bold-20" transform="translate(327.441406 0)"/>
     <use xlink:href="#DejaVuSans-Bold-48" transform="translate(362.255859 0)"/>
     <use xlink:href="#DejaVuSans-Bold-75" transform="translate(445.947266 0)"/>
     <use xlink:href="#DejaVuSans-Bold-62" transform="translate(517.138672 0)"/>
     <use xlink:href="#DejaVuSans-Bold-20" transform="translate(588.720703 0)"/>
     <use xlink:href="#DejaVuSans-Bold-43" transform="translate(623.535156 0)"/>
     <use xlink:href="#DejaVuSans-Bold-6f" transform="translate(696.923828 0)"/>
     <use xlink:href="#DejaVuSans-Bold-6e" transform="translate(765.625 0)"/>
     <use xlink:href="#DejaVuSans-Bold-6e" transform="translate(836.816406 0)"/>
     <use xlink:href="#DejaVuSans-Bold-65" transform="translate(908.007812 0)"/>
     <use xlink:href="#DejaVuSans-Bold-63" transform="translate(975.830078 0)"/>
     <use xlink:href="#DejaVuSans-Bold-74" transform="translate(1035.107422 0)"/>
     <use xlink:href="#DejaVuSans-Bold-69" transform="translate(1082.910156 0)"/>
     <use xlink:href="#DejaVuSans-Bold-76" transform="translate(1117.1875 0)"/>
     <use xlink:href="#DejaVuSans-Bold-69" transform="translate(1182.373047 0)"/>
     <use xlink:href="#DejaVuSans-Bold-74" transform="translate(1216.650391 0)"/>
     <use xlink:href="#DejaVuSans-Bold-79" transform="translate(1264.453125 0)"/>
    </g>
   </g>
   <g id="patch_23">
    <path d="M 221.219434 419.618957 
C 224.298667 419.618957 227.252197 418.395564 229.429544 416.218218 
C 231.606891 414.040871 232.830283 411.087341 232.830283 408.008108 
C 232.830283 404.928875 231.606891 401.975345 229.429544 399.797998 
C 227.252197 397.620651 224.298667 396.397259 221.219434 396.397259 
C 218.140201 396.397259 215.186671 397.620651 213.009324 399.797998 
C 210.831978 401.975345 209.608585 404.928875 209.608585 408.008108 
C 209.608585 411.087341 210.831978 414.040871 213.009324 416.218218 
C 215.186671 418.395564 218.140201 419.618957 221.219434 419.618957 
z
" clip-path="url(#pba8ba841c2)" style="fill: #ffffff; opacity: 0.22"/>
   </g>
   <g id="patch_24">
    <path d="M 65.566751 263.966274 
C 68.645984 263.966274 71.599515 262.742882 73.776861 260.565535 
C 75.954208 258.388188 77.1776 255.434658 77.1776 252.355425 
C 77.1776 249.276192 75.954208 246.322662 73.776861 244.145315 
C 71.599515 241.967968 68.645984 240.744576 65.566751 240.744576 
C 62.487518 240.744576 59.533988 241.967968 57.356641 244.145315 
C 55.179295 246.322662 53.955902 249.276192 53.955902 252.355425 
C 53.955902 255.434658 55.179295 258.388188 57.356641 260.565535 
C 59.533988 262.742882 62.487518 263.966274 65.566751 263.966274 
z
" clip-path="url(#pba8ba841c2)" style="fill: #ffffff; opacity: 0.22"/>
   </g>
   <g id="patch_25">
    <path d="M 221.219434 108.313591 
C 224.298667 108.313591 227.252197 107.090199 229.429544 104.912852 
C 231.606891 102.735505 232.830283 99.781975 232.830283 96.702742 
C 232.830283 93.623509 231.606891 90.669979 229.429544 88.492632 
C 227.252197 86.315286 224.298667 85.091893 221.219434 85.091893 
C 218.140201 85.091893 215.186671 86.315286 213.009324 88.492632 
C 210.831978 90.669979 209.608585 93.623509 209.608585 96.702742 
C 209.608585 99.781975 210.831978 102.735505 213.009324 104.912852 
C 215.186671 107.090199 218.140201 108.313591 221.219434 108.313591 
z
" clip-path="url(#pba8ba841c2)" style="fill: #ffffff; opacity: 0.22"/>
   </g>
   <g id="patch_26">
    <path d="M 376.872117 263.966274 
C 379.95135 263.966274 382.90488 262.742882 385.082227 260.565535 
C 387.259574 258.388188 388.482966 255.434658 388.482966 252.355425 
C 388.482966 249.276192 387.259574 246.322662 385.082227 244.145315 
C 382.90488 241.967968 379.95135 240.744576 376.872117 240.744576 
C 373.792884 240.744576 370.839354 241.967968 368.662007 244.145315 
C 366.484661 246.322662 365.261268 249.276192 365.261268 252.355425 
C 365.261268 255.434658 366.484661 258.388188 368.662007 260.565535 
C 370.839354 262.742882 373.792884 263.966274 376.872117 263.966274 
z
" clip-path="url(#pba8ba841c2)" style="fill: #ffffff; opacity: 0.22"/>
   </g>
   <g id="patch_27">
    <path d="M 93.845147 280.633821 
L 103.884459 291.024657 
L 96.393625 294.855723 
z
" clip-path="url(#pba8ba841c2)" style="fill: #7b2d8b; opacity: 0.88"/>
   </g>
   <g id="patch_28">
    <path d="M 249.49783 124.981138 
L 259.537141 135.371974 
L 252.046308 139.20304 
z
" clip-path="url(#pba8ba841c2)" style="fill: #7b2d8b; opacity: 0.88"/>
   </g>
   <g id="patch_29">
    <path d="M 208.42217 395.210844 
L 198.382859 384.820008 
L 205.873692 380.988942 
z
" clip-path="url(#pba8ba841c2)" style="fill: #7b2d8b; opacity: 0.88"/>
   </g>
   <g id="patch_30">
    <path d="M 364.074853 239.558161 
L 354.035541 229.167325 
L 361.526375 225.336259 
z
" clip-path="url(#pba8ba841c2)" style="fill: #7b2d8b; opacity: 0.88"/>
   </g>
   <g id="patch_31">
    <path d="M 228.96 133.488186 
L 229.104731 147.935895 
L 221.031468 145.566912 
z
" clip-path="url(#pba8ba841c2)" style="fill: #1a6fa8; opacity: 0.74"/>
   </g>
   <g id="patch_32">
    <path d="M 228.96 386.703796 
L 228.815269 372.256087 
L 236.888532 374.62507 
z
" clip-path="url(#pba8ba841c2)" style="fill: #1a6fa8; opacity: 0.74"/>
   </g>
   <g id="patch_33">
    <path d="M 208.42217 124.981138 
L 198.031334 135.020449 
L 194.200268 127.529616 
z
" clip-path="url(#pba8ba841c2)" style="fill: #49a62d; opacity: 0.6"/>
   </g>
   <g id="patch_34">
    <path d="M 93.845147 239.558161 
L 104.235983 229.518849 
L 108.067049 237.009683 
z
" clip-path="url(#pba8ba841c2)" style="fill: #49a62d; opacity: 0.6"/>
   </g>
   <g id="patch_35">
    <path d="M 364.074853 280.633821 
L 353.684017 290.673132 
L 349.852951 283.182299 
z
" clip-path="url(#pba8ba841c2)" style="fill: #49a62d; opacity: 0.6"/>
   </g>
   <g id="patch_36">
    <path d="M 355.567805 260.095991 
L 343.489079 268.024523 
L 341.120096 259.95126 
z
" clip-path="url(#pba8ba841c2)" style="fill: #999999; opacity: 0.45"/>
   </g>
   <g id="patch_37">
    <path d="M 249.49783 395.210844 
L 259.888666 385.171532 
L 263.719732 392.662365 
z
" clip-path="url(#pba8ba841c2)" style="fill: #999999; opacity: 0.45"/>
   </g>
   <g id="patch_38">
    <path d="M 102.352195 260.095991 
L 114.430921 252.167459 
L 116.799904 260.240722 
z
" clip-path="url(#pba8ba841c2)" style="fill: #999999; opacity: 0.45"/>
   </g>
   <g id="text_3">
    <!-- LHR -->
    <g transform="translate(215.495625 457.319482) scale(0.12 -0.12)">
     <defs>
      <path id="DejaVuSans-Bold-4c" d="M 588 4666 
L 1791 4666 
L 1791 909 
L 3903 909 
L 3903 0 
L 588 0 
L 588 4666 
z
" transform="scale(0.015625)"/>
      <path id="DejaVuSans-Bold-52" d="M 2297 2597 
Q 2675 2597 2839 2737 
Q 3003 2878 3003 3200 
Q 3003 3519 2839 3656 
Q 2675 3794 2297 3794 
L 1791 3794 
L 1791 2597 
L 2297 2597 
z
M 1791 1766 
L 1791 0 
L 588 0 
L 588 4666 
L 2425 4666 
Q 3347 4666 3776 4356 
Q 4206 4047 4206 3378 
Q 4206 2916 3982 2619 
Q 3759 2322 3309 2181 
Q 3556 2125 3751 1926 
Q 3947 1728 4147 1325 
L 4800 0 
L 3519 0 
L 2950 1159 
Q 2778 1509 2601 1637 
Q 2425 1766 2131 1766 
L 1791 1766 
z
" transform="scale(0.015625)"/>
     </defs>
     <use xlink:href="#DejaVuSans-Bold-4c"/>
     <use xlink:href="#DejaVuSans-Bold-48" transform="translate(63.720703 0)"/>
     <use xlink:href="#DejaVuSans-Bold-52" transform="translate(147.412109 0)"/>
    </g>
   </g>
   <g id="text_4">
    <!-- JFK -->
    <g transform="translate(18.894634 263.407241) scale(0.12 -0.12)">
     <defs>
      <path id="DejaVuSans-Bold-4a" d="M 588 4666 
L 1791 4666 
L 1791 453 
Q 1791 -419 1317 -850 
Q 844 -1281 -116 -1281 
L -359 -1281 
L -359 -372 
L -172 -372 
Q 203 -372 395 -162 
Q 588 47 588 453 
L 588 4666 
z
" transform="scale(0.015625)"/>
      <path id="DejaVuSans-Bold-4b" d="M 588 4666 
L 1791 4666 
L 1791 2963 
L 3525 4666 
L 4922 4666 
L 2675 2456 
L 5153 0 
L 3647 0 
L 1791 1838 
L 1791 0 
L 588 0 
L 588 4666 
z
" transform="scale(0.015625)"/>
     </defs>
     <use xlink:href="#DejaVuSans-Bold-4a"/>
     <use xlink:href="#DejaVuSans-Bold-46" transform="translate(37.207031 0)"/>
     <use xlink:href="#DejaVuSans-Bold-4b" transform="translate(105.517578 0)"/>
    </g>
   </g>
   <g id="text_5">
    <!-- DXB -->
    <g transform="translate(214.780313 69.495) scale(0.12 -0.12)">
     <defs>
      <path id="DejaVuSans-Bold-44" d="M 1791 3756 
L 1791 909 
L 2222 909 
Q 2959 909 3348 1275 
Q 3738 1641 3738 2338 
Q 3738 3031 3350 3393 
Q 2963 3756 2222 3756 
L 1791 3756 
z
M 588 4666 
L 1856 4666 
Q 2919 4666 3439 4514 
Q 3959 4363 4331 4000 
Q 4659 3684 4818 3271 
Q 4978 2859 4978 2338 
Q 4978 1809 4818 1395 
Q 4659 981 4331 666 
Q 3956 303 3431 151 
Q 2906 0 1856 0 
L 588 0 
L 588 4666 
z
" transform="scale(0.015625)"/>
      <path id="DejaVuSans-Bold-58" d="M 3188 2381 
L 4806 0 
L 3553 0 
L 2463 1594 
L 1381 0 
L 122 0 
L 1741 2381 
L 184 4666 
L 1441 4666 
L 2463 3163 
L 3481 4666 
L 4744 4666 
L 3188 2381 
z
" transform="scale(0.015625)"/>
      <path id="DejaVuSans-Bold-42" d="M 2456 2859 
Q 2741 2859 2887 2984 
Q 3034 3109 3034 3353 
Q 3034 3594 2887 3720 
Q 2741 3847 2456 3847 
L 1791 3847 
L 1791 2859 
L 2456 2859 
z
M 2497 819 
Q 2859 819 3042 972 
Q 3225 1125 3225 1434 
Q 3225 1738 3044 1889 
Q 2863 2041 2497 2041 
L 1791 2041 
L 1791 819 
L 2497 819 
z
M 3616 2497 
Q 4003 2384 4215 2081 
Q 4428 1778 4428 1338 
Q 4428 663 3972 331 
Q 3516 0 2584 0 
L 588 0 
L 588 4666 
L 2394 4666 
Q 3366 4666 3802 4372 
Q 4238 4078 4238 3431 
Q 4238 3091 4078 2852 
Q 3919 2613 3616 2497 
z
" transform="scale(0.015625)"/>
     </defs>
     <use xlink:href="#DejaVuSans-Bold-44"/>
     <use xlink:href="#DejaVuSans-Bold-58" transform="translate(83.007812 0)"/>
     <use xlink:href="#DejaVuSans-Bold-42" transform="translate(160.107422 0)"/>
    </g>
   </g>
   <g id="text_6">
    <!-- SIN -->
    <g transform="translate(417.065366 263.407241) scale(0.12 -0.12)">
     <defs>
      <path id="DejaVuSans-Bold-53" d="M 3834 4519 
L 3834 3531 
Q 3450 3703 3084 3790 
Q 2719 3878 2394 3878 
Q 1963 3878 1756 3759 
Q 1550 3641 1550 3391 
Q 1550 3203 1689 3098 
Q 1828 2994 2194 2919 
L 2706 2816 
Q 3484 2659 3812 2340 
Q 4141 2022 4141 1434 
Q 4141 663 3683 286 
Q 3225 -91 2284 -91 
Q 1841 -91 1394 -6 
Q 947 78 500 244 
L 500 1259 
Q 947 1022 1364 901 
Q 1781 781 2169 781 
Q 2563 781 2772 912 
Q 2981 1044 2981 1288 
Q 2981 1506 2839 1625 
Q 2697 1744 2272 1838 
L 1806 1941 
Q 1106 2091 782 2419 
Q 459 2747 459 3303 
Q 459 4000 909 4375 
Q 1359 4750 2203 4750 
Q 2588 4750 2994 4692 
Q 3400 4634 3834 4519 
z
" transform="scale(0.015625)"/>
      <path id="DejaVuSans-Bold-49" d="M 588 4666 
L 1791 4666 
L 1791 0 
L 588 0 
L 588 4666 
z
" transform="scale(0.015625)"/>
      <path id="DejaVuSans-Bold-4e" d="M 588 4666 
L 1931 4666 
L 3628 1466 
L 3628 4666 
L 4769 4666 
L 4769 0 
L 3425 0 
L 1728 3200 
L 1728 0 
L 588 0 
L 588 4666 
z
" transform="scale(0.015625)"/>
     </defs>
     <use xlink:href="#DejaVuSans-Bold-53"/>
     <use xlink:href="#DejaVuSans-Bold-49" transform="translate(72.021484 0)"/>
     <use xlink:href="#DejaVuSans-Bold-4e" transform="translate(109.228516 0)"/>
    </g>
   </g>
  </g>
 </g>
 <defs>
  <clipPath id="pba8ba841c2">
   <rect x="7.2" y="38.335991" width="443.52" height="443.52"/>
  </clipPath>
 </defs>
</svg>
