<?xml version="1.0" encoding="utf-8" standalone="no"?>
<!DOCTYPE svg PUBLIC "-//W3C//DTD SVG 1.1//EN"
  "http://www.w3.org/Graphics/SVG/1.1/DTD/svg11.dtd">
<svg xmlns:xlink="http://www.w3.org/1999/xlink" width="490.6334pt" height="489.055991pt" viewBox="0 0 490.6334 489.055991" xmlns="http://www.w3.org/2000/svg" version="1.1">
 <metadata>
  <rdf:RDF xmlns:dc="http://purl.org/dc/elements/1.1/" xmlns:cc="http://creativecommons.org/ns#" xmlns:rdf="http://www.w3.org/1999/02/22-rdf-syntax-ns#">
   <cc:Work>
    <dc:type rdf:resource="http://purl.org/dc/dcmitype/StillImage"/>
    <dc:date>2026-05-01T11:04:14.305078</dc:date>
    <dc:format>image/svg+xml</dc:format>
    <dc:creator>
     <cc:Agent>
      <dc:title>Matplotlib v3.10.7+dfsg1, https://matplotlib.org/</dc:title>
     </cc:Agent>
    </dc:creator>
   </cc:Work>
  </rdf:RDF>
 </metadata>
 <defs>
  <style type="text/css">*{stroke-linejoin: round; stroke-linecap: butt}</style>
 </defs>
 <g id="figure_1">
  <g id="patch_1">
   <path d="M 0 489.055991 
L 490.6334 489.055991 
L 490.6334 0 
L 0 0 
z
" style="fill: #ffffff"/>
  </g>
  <g id="axes_1">
   <g id="patch_2">
    <path d="M 228.96 407.96604 
C 268.175595 407.96604 305.790301 392.385518 333.519914 364.655905 
C 361.249528 336.926292 376.830049 299.311586 376.830049 260.095991 
C 376.830049 220.880396 361.249528 183.26569 333.519914 155.536077 
C 305.790301 127.806463 268.175595 112.225942 228.96 112.225942 
C 189.744405 112.225942 152.129699 127.806463 124.400086 155.536077 
C 96.670472 183.26569 81.089951 220.880396 81.089951 260.095991 
C 81.089951 299.311586 96.670472 336.926292 124.400086 364.655905 
C 152.129699 392.385518 189.744405 407.96604 228.96 407.96604 
z
" clip-path="url(#p21d6003e0c)" style="fill: #f4f6f9; stroke: #f4f6f9; stroke-linejoin: miter"/>
   </g>
   <g id="patch_3">
    <path d="M 121.8057 337.922332 
Q 228.26 270.522744 319.481441 328.277927 
" clip-path="url(#p21d6003e0c)" style="fill: none; opacity: 0.95; stroke: #7b2d8b; stroke-width: 4.5; stroke-linejoin: miter"/>
   </g>
   <g id="patch_4">
    <path d="M 107.983261 313.981166 
Q 102.840655 188.089244 198.468832 137.96675 
" clip-path="url(#p21d6003e0c)" style="fill: none; opacity: 0.8; stroke: #c0392b; stroke-width: 3.2; stroke-linejoin: miter"/>
   </g>
   <g id="patch_5">
    <path d="M 336.1143 337.922332 
Q 229.66 405.321921 138.438559 347.566737 
" clip-path="url(#p21d6003e0c)" style="fill: none; opacity: 0.8; stroke: #c0392b; stroke-width: 3.2; stroke-linejoin: miter"/>
   </g>
   <g id="patch_6">
    <path d="M 349.936739 313.981166 
Q 238.339833 255.488832 242.746568 147.611155 
" clip-path="url(#p21d6003e0c)" style="fill: none; opacity: 0.6; stroke: #2471a3; stroke-width: 2; stroke-linejoin: miter"/>
   </g>
   <g id="patch_7">
    <path d="M 215.137561 128.384475 
Q 220.280167 254.276397 124.65199 304.39889 
" clip-path="url(#p21d6003e0c)" style="fill: none; opacity: 0.6; stroke: #2471a3; stroke-width: 2; stroke-linejoin: miter"/>
   </g>
   <g id="patch_8">
    <path d="M 242.782439 128.384475 
Q 354.379345 186.876808 349.972609 294.754485 
" clip-path="url(#p21d6003e0c)" style="fill: none; opacity: 0.4; stroke: #aaaaaa; stroke-width: 1.2; stroke-linejoin: miter"/>
   </g>
   <g id="patch_9">
    <path d="M 95.242579 366.648966 
C 102.574086 366.648966 109.606301 363.736128 114.790459 358.551969 
C 119.974618 353.367811 122.887457 346.335596 122.887457 339.004088 
C 122.887457 331.672581 119.974618 324.640366 114.790459 319.456208 
C 109.606301 314.272049 102.574086 311.35921 95.242579 311.35921 
C 87.911071 311.35921 80.878856 314.272049 75.694698 319.456208 
C 70.510539 324.640366 67.5977 331.672581 67.5977 339.004088 
C 67.5977 346.335596 70.510539 353.367811 75.694698 358.551969 
C 80.878856 363.736128 87.911071 366.648966 95.242579 366.648966 
z
" clip-path="url(#p21d6003e0c)" style="fill-opacity: 0.133333"/>
   </g>
   <g id="patch_10">
    <path d="M 364.840934 366.648966 
C 372.172441 366.648966 379.204656 363.736128 384.388814 358.551969 
C 389.572973 353.367811 392.485812 346.335596 392.485812 339.004088 
C 392.485812 331.672581 389.572973 324.640366 384.388814 319.456208 
C 379.204656 314.272049 372.172441 311.35921 364.840934 311.35921 
C 357.509426 311.35921 350.477212 314.272049 345.293053 319.456208 
C 340.108894 324.640366 337.196056 331.672581 337.196056 339.004088 
C 337.196056 346.335596 340.108894 353.367811 345.293053 358.551969 
C 350.477212 363.736128 357.509426 366.648966 364.840934 366.648966 
z
" clip-path="url(#p21d6003e0c)" style="fill-opacity: 0.133333"/>
   </g>
   <g id="patch_11">
    <path d="M 230.041756 133.169942 
C 237.373263 133.169942 244.405478 130.257103 249.589637 125.072945 
C 254.773795 119.888786 257.686634 112.856571 257.686634 105.525064 
C 257.686634 98.193557 254.773795 91.161342 249.589637 85.977183 
C 244.405478 80.793025 237.373263 77.880186 230.041756 77.880186 
C 222.710249 77.880186 215.678034 80.793025 210.493875 85.977183 
C 205.309717 91.161342 202.396878 98.193557 202.396878 105.525064 
C 202.396878 112.856571 205.309717 119.888786 210.493875 125.072945 
C 215.678034 130.257103 222.710249 133.169942 230.041756 133.169942 
z
" clip-path="url(#p21d6003e0c)" style="fill-opacity: 0.133333"/>
   </g>
   <g id="patch_12">
    <path d="M 94.160822 365.56721 
C 101.49233 365.56721 108.524545 362.654372 113.708703 357.470213 
C 118.892862 352.286054 121.8057 345.25384 121.8057 337.922332 
C 121.8057 330.590825 118.892862 323.55861 113.708703 318.374452 
C 108.524545 313.190293 101.49233 310.277454 94.160822 310.277454 
C 86.829315 310.277454 79.7971 313.190293 74.612942 318.374452 
C 69.428783 323.55861 66.515944 330.590825 66.515944 337.922332 
C 66.515944 345.25384 69.428783 352.286054 74.612942 357.470213 
C 79.7971 362.654372 86.829315 365.56721 94.160822 365.56721 
z
" clip-path="url(#p21d6003e0c)" style="fill: #e41a1c; stroke: #ffffff; stroke-width: 2.8; stroke-linejoin: miter"/>
   </g>
   <g id="patch_13">
    <path d="M 363.759178 365.56721 
C 371.090685 365.56721 378.1229 362.654372 383.307058 357.470213 
C 388.491217 352.286054 391.404056 345.25384 391.404056 337.922332 
C 391.404056 330.590825 388.491217 323.55861 383.307058 318.374452 
C 378.1229 313.190293 371.090685 310.277454 363.759178 310.277454 
C 356.42767 310.277454 349.395455 313.190293 344.211297 318.374452 
C 339.027138 323.55861 336.1143 330.590825 336.1143 337.922332 
C 336.1143 345.25384 339.027138 352.286054 344.211297 357.470213 
C 349.395455 362.654372 356.42767 365.56721 363.759178 365.56721 
z
" clip-path="url(#p21d6003e0c)" style="fill: #377eb8; stroke: #ffffff; stroke-width: 2.8; stroke-linejoin: miter"/>
   </g>
   <g id="patch_14">
    <path d="M 228.96 132.088186 
C 236.291507 132.088186 243.323722 129.175347 248.507881 123.991189 
C 253.692039 118.80703 256.604878 111.774815 256.604878 104.443308 
C 256.604878 97.111801 253.692039 90.079586 248.507881 84.895427 
C 243.323722 79.711269 236.291507 76.79843 228.96 76.79843 
C 221.628493 76.79843 214.596278 79.711269 209.412119 84.895427 
C 204.227961 90.079586 201.315122 97.111801 201.315122 104.443308 
C 201.315122 111.774815 204.227961 118.80703 209.412119 123.991189 
C 214.596278 129.175347 221.628493 132.088186 228.96 132.088186 
z
" clip-path="url(#p21d6003e0c)" style="fill: #4daf4a; stroke: #ffffff; stroke-width: 2.8; stroke-linejoin: miter"/>
   </g>
   <g id="text_1">
    <!-- Signal flow with custom edge tiers -->
    <g transform="translate(121.198281 46.991016) scale(0.125 -0.125)">
     <defs>
      <path id="DejaVuSans-53" d="M 3425 4513 
L 3425 3897 
Q 3066 4069 2747 4153 
Q 2428 4238 2131 4238 
Q 1616 4238 1336 4038 
Q 1056 3838 1056 3469 
Q 1056 3159 1242 3001 
Q 1428 2844 1947 2747 
L 2328 2669 
Q 3034 2534 3370 2195 
Q 3706 1856 3706 1288 
Q 3706 609 3251 259 
Q 2797 -91 1919 -91 
Q 1588 -91 1214 -16 
Q 841 59 441 206 
L 441 856 
Q 825 641 1194 531 
Q 1563 422 1919 422 
Q 2459 422 2753 634 
Q 3047 847 3047 1241 
Q 3047 1584 2836 1778 
Q 2625 1972 2144 2069 
L 1759 2144 
Q 1053 2284 737 2584 
Q 422 2884 422 3419 
Q 422 4038 858 4394 
Q 1294 4750 2059 4750 
Q 2388 4750 2728 4690 
Q 3069 4631 3425 4513 
z
" transform="scale(0.015625)"/>
      <path id="DejaVuSans-69" d="M 603 3500 
L 1178 3500 
L 1178 0 
L 603 0 
L 603 3500 
z
M 603 4863 
L 1178 4863 
L 1178 4134 
L 603 4134 
L 603 4863 
z
" transform="scale(0.015625)"/>
      <path id="DejaVuSans-67" d="M 2906 1791 
Q 2906 2416 2648 2759 
Q 2391 3103 1925 3103 
Q 1463 3103 1205 2759 
Q 947 2416 947 1791 
Q 947 1169 1205 825 
Q 1463 481 1925 481 
Q 2391 481 2648 825 
Q 2906 1169 2906 1791 
z
M 3481 434 
Q 3481 -459 3084 -895 
Q 2688 -1331 1869 -1331 
Q 1566 -1331 1297 -1286 
Q 1028 -1241 775 -1147 
L 775 -588 
Q 1028 -725 1275 -790 
Q 1522 -856 1778 -856 
Q 2344 -856 2625 -561 
Q 2906 -266 2906 331 
L 2906 616 
Q 2728 306 2450 153 
Q 2172 0 1784 0 
Q 1141 0 747 490 
Q 353 981 353 1791 
Q 353 2603 747 3093 
Q 1141 3584 1784 3584 
Q 2172 3584 2450 3431 
Q 2728 3278 2906 2969 
L 2906 3500 
L 3481 3500 
L 3481 434 
z
" transform="scale(0.015625)"/>
      <path id="DejaVuSans-6e" d="M 3513 2113 
L 3513 0 
L 2938 0 
L 2938 2094 
Q 2938 2591 2744 2837 
Q 2550 3084 2163 3084 
Q 1697 3084 1428 2787 
Q 1159 2491 1159 1978 
L 1159 0 
L 581 0 
L 581 3500 
L 1159 3500 
L 1159 2956 
Q 1366 3272 1645 3428 
Q 1925 3584 2291 3584 
Q 2894 3584 3203 3211 
Q 3513 2838 3513 2113 
z
" transform="scale(0.015625)"/>
      <path id="DejaVuSans-61" d="M 2194 1759 
Q 1497 1759 1228 1600 
Q 959 1441 959 1056 
Q 959 750 1161 570 
Q 1363 391 1709 391 
Q 2188 391 2477 730 
Q 2766 1069 2766 1631 
L 2766 1759 
L 2194 1759 
z
M 3341 1997 
L 3341 0 
L 2766 0 
L 2766 531 
Q 2569 213 2275 61 
Q 1981 -91 1556 -91 
Q 1019 -91 701 211 
Q 384 513 384 1019 
Q 384 1609 779 1909 
Q 1175 2209 1959 2209 
L 2766 2209 
L 2766 2266 
Q 2766 2663 2505 2880 
Q 2244 3097 1772 3097 
Q 1472 3097 1187 3025 
Q 903 2953 641 2809 
L 641 3341 
Q 956 3463 1253 3523 
Q 1550 3584 1831 3584 
Q 2591 3584 2966 3190 
Q 3341 2797 3341 1997 
z
" transform="scale(0.015625)"/>
      <path id="DejaVuSans-6c" d="M 603 4863 
L 1178 4863 
L 1178 0 
L 603 0 
L 603 4863 
z
" transform="scale(0.015625)"/>
      <path id="DejaVuSans-20" transform="scale(0.015625)"/>
      <path id="DejaVuSans-66" d="M 2375 4863 
L 2375 4384 
L 1825 4384 
Q 1516 4384 1395 4259 
Q 1275 4134 1275 3809 
L 1275 3500 
L 2222 3500 
L 2222 3053 
L 1275 3053 
L 1275 0 
L 697 0 
L 697 3053 
L 147 3053 
L 147 3500 
L 697 3500 
L 697 3744 
Q 697 4328 969 4595 
Q 1241 4863 1831 4863 
L 2375 4863 
z
" transform="scale(0.015625)"/>
      <path id="DejaVuSans-6f" d="M 1959 3097 
Q 1497 3097 1228 2736 
Q 959 2375 959 1747 
Q 959 1119 1226 758 
Q 1494 397 1959 397 
Q 2419 397 2687 759 
Q 2956 1122 2956 1747 
Q 2956 2369 2687 2733 
Q 2419 3097 1959 3097 
z
M 1959 3584 
Q 2709 3584 3137 3096 
Q 3566 2609 3566 1747 
Q 3566 888 3137 398 
Q 2709 -91 1959 -91 
Q 1206 -91 779 398 
Q 353 888 353 1747 
Q 353 2609 779 3096 
Q 1206 3584 1959 3584 
z
" transform="scale(0.015625)"/>
      <path id="DejaVuSans-77" d="M 269 3500 
L 844 3500 
L 1563 769 
L 2278 3500 
L 2956 3500 
L 3675 769 
L 4391 3500 
L 4966 3500 
L 4050 0 
L 3372 0 
L 2619 2869 
L 1863 0 
L 1184 0 
L 269 3500 
z
" transform="scale(0.015625)"/>
      <path id="DejaVuSans-74" d="M 1172 4494 
L 1172 3500 
L 2356 3500 
L 2356 3053 
L 1172 3053 
L 1172 1153 
Q 1172 725 1289 603 
Q 1406 481 1766 481 
L 2356 481 
L 2356 0 
L 1766 0 
Q 1100 0 847 248 
Q 594 497 594 1153 
L 594 3053 
L 172 3053 
L 172 3500 
L 594 3500 
L 594 4494 
L 1172 4494 
z
" transform="scale(0.015625)"/>
      <path id="DejaVuSans-68" d="M 3513 2113 
L 3513 0 
L 2938 0 
L 2938 2094 
Q 2938 2591 2744 2837 
Q 2550 3084 2163 3084 
Q 1697 3084 1428 2787 
Q 1159 2491 1159 1978 
L 1159 0 
L 581 0 
L 581 4863 
L 1159 4863 
L 1159 2956 
Q 1366 3272 1645 3428 
Q 1925 3584 2291 3584 
Q 2894 3584 3203 3211 
Q 3513 2838 3513 2113 
z
" transform="scale(0.015625)"/>
      <path id="DejaVuSans-63" d="M 3122 3366 
L 3122 2828 
Q 2878 2963 2633 3030 
Q 2388 3097 2138 3097 
Q 1578 3097 1268 2742 
Q 959 2388 959 1747 
Q 959 1106 1268 751 
Q 1578 397 2138 397 
Q 2388 397 2633 464 
Q 2878 531 3122 666 
L 3122 134 
Q 2881 22 2623 -34 
Q 2366 -91 2075 -91 
Q 1284 -91 818 406 
Q 353 903 353 1747 
Q 353 2603 823 3093 
Q 1294 3584 2113 3584 
Q 2378 3584 2631 3529 
Q 2884 3475 3122 3366 
z
" transform="scale(0.015625)"/>
      <path id="DejaVuSans-75" d="M 544 1381 
L 544 3500 
L 1119 3500 
L 1119 1403 
Q 1119 906 1312 657 
Q 1506 409 1894 409 
Q 2359 409 2629 706 
Q 2900 1003 2900 1516 
L 2900 3500 
L 3475 3500 
L 3475 0 
L 2900 0 
L 2900 538 
Q 2691 219 2414 64 
Q 2138 -91 1772 -91 
Q 1169 -91 856 284 
Q 544 659 544 1381 
z
M 1991 3584 
L 1991 3584 
z
" transform="scale(0.015625)"/>
      <path id="DejaVuSans-73" d="M 2834 3397 
L 2834 2853 
Q 2591 2978 2328 3040 
Q 2066 3103 1784 3103 
Q 1356 3103 1142 2972 
Q 928 2841 928 2578 
Q 928 2378 1081 2264 
Q 1234 2150 1697 2047 
L 1894 2003 
Q 2506 1872 2764 1633 
Q 3022 1394 3022 966 
Q 3022 478 2636 193 
Q 2250 -91 1575 -91 
Q 1294 -91 989 -36 
Q 684 19 347 128 
L 347 722 
Q 666 556 975 473 
Q 1284 391 1588 391 
Q 1994 391 2212 530 
Q 2431 669 2431 922 
Q 2431 1156 2273 1281 
Q 2116 1406 1581 1522 
L 1381 1569 
Q 847 1681 609 1914 
Q 372 2147 372 2553 
Q 372 3047 722 3315 
Q 1072 3584 1716 3584 
Q 2034 3584 2315 3537 
Q 2597 3491 2834 3397 
z
" transform="scale(0.015625)"/>
      <path id="DejaVuSans-6d" d="M 3328 2828 
Q 3544 3216 3844 3400 
Q 4144 3584 4550 3584 
Q 5097 3584 5394 3201 
Q 5691 2819 5691 2113 
L 5691 0 
L 5113 0 
L 5113 2094 
Q 5113 2597 4934 2840 
Q 4756 3084 4391 3084 
Q 3944 3084 3684 2787 
Q 3425 2491 3425 1978 
L 3425 0 
L 2847 0 
L 2847 2094 
Q 2847 2600 2669 2842 
Q 2491 3084 2119 3084 
Q 1678 3084 1418 2786 
Q 1159 2488 1159 1978 
L 1159 0 
L 581 0 
L 581 3500 
L 1159 3500 
L 1159 2956 
Q 1356 3278 1631 3431 
Q 1906 3584 2284 3584 
Q 2666 3584 2933 3390 
Q 3200 3197 3328 2828 
z
" transform="scale(0.015625)"/>
      <path id="DejaVuSans-65" d="M 3597 1894 
L 3597 1613 
L 953 1613 
Q 991 1019 1311 708 
Q 1631 397 2203 397 
Q 2534 397 2845 478 
Q 3156 559 3463 722 
L 3463 178 
Q 3153 47 2828 -22 
Q 2503 -91 2169 -91 
Q 1331 -91 842 396 
Q 353 884 353 1716 
Q 353 2575 817 3079 
Q 1281 3584 2069 3584 
Q 2775 3584 3186 3129 
Q 3597 2675 3597 1894 
z
M 3022 2063 
Q 3016 2534 2758 2815 
Q 2500 3097 2075 3097 
Q 1594 3097 1305 2825 
Q 1016 2553 972 2059 
L 3022 2063 
z
" transform="scale(0.015625)"/>
      <path id="DejaVuSans-64" d="M 2906 2969 
L 2906 4863 
L 3481 4863 
L 3481 0 
L 2906 0 
L 2906 525 
Q 2725 213 2448 61 
Q 2172 -91 1784 -91 
Q 1150 -91 751 415 
Q 353 922 353 1747 
Q 353 2572 751 3078 
Q 1150 3584 1784 3584 
Q 2172 3584 2448 3432 
Q 2725 3281 2906 2969 
z
M 947 1747 
Q 947 1113 1208 752 
Q 1469 391 1925 391 
Q 2381 391 2643 752 
Q 2906 1113 2906 1747 
Q 2906 2381 2643 2742 
Q 2381 3103 1925 3103 
Q 1469 3103 1208 2742 
Q 947 2381 947 1747 
z
" transform="scale(0.015625)"/>
      <path id="DejaVuSans-72" d="M 2631 2963 
Q 2534 3019 2420 3045 
Q 2306 3072 2169 3072 
Q 1681 3072 1420 2755 
Q 1159 2438 1159 1844 
L 1159 0 
L 581 0 
L 581 3500 
L 1159 3500 
L 1159 2956 
Q 1341 3275 1631 3429 
Q 1922 3584 2338 3584 
Q 2397 3584 2469 3576 
Q 2541 3569 2628 3553 
L 2631 2963 
z
" transform="scale(0.015625)"/>
     </defs>
     <use xlink:href="#DejaVuSans-53"/>
     <use xlink:href="#DejaVuSans-69" transform="translate(63.476562 0)"/>
     <use xlink:href="#DejaVuSans-67" transform="translate(91.259766 0)"/>
     <use xlink:href="#DejaVuSans-6e" transform="translate(154.736328 0)"/>
     <use xlink:href="#DejaVuSans-61" transform="translate(218.115234 0)"/>
     <use xlink:href="#DejaVuSans-6c" transform="translate(279.394531 0)"/>
     <use xlink:href="#DejaVuSans-20" transform="translate(307.177734 0)"/>
     <use xlink:href="#DejaVuSans-66" transform="translate(338.964844 0)"/>
     <use xlink:href="#DejaVuSans-6c" transform="translate(374.169922 0)"/>
     <use xlink:href="#DejaVuSans-6f" transform="translate(401.953125 0)"/>
     <use xlink:href="#DejaVuSans-77" transform="translate(463.134766 0)"/>
     <use xlink:href="#DejaVuSans-20" transform="translate(544.921875 0)"/>
     <use xlink:href="#DejaVuSans-77" transform="translate(576.708984 0)"/>
     <use xlink:href="#DejaVuSans-69" transform="translate(658.496094 0)"/>
     <use xlink:href="#DejaVuSans-74" transform="translate(686.279297 0)"/>
     <use xlink:href="#DejaVuSans-68" transform="translate(725.488281 0)"/>
     <use xlink:href="#DejaVuSans-20" transform="translate(788.867188 0)"/>
     <use xlink:href="#DejaVuSans-63" transform="translate(820.654297 0)"/>
     <use xlink:href="#DejaVuSans-75" transform="translate(875.634766 0)"/>
     <use xlink:href="#DejaVuSans-73" transform="translate(939.013672 0)"/>
     <use xlink:href="#DejaVuSans-74" transform="translate(991.113281 0)"/>
     <use xlink:href="#DejaVuSans-6f" transform="translate(1030.322266 0)"/>
     <use xlink:href="#DejaVuSans-6d" transform="translate(1091.503906 0)"/>
     <use xlink:href="#DejaVuSans-20" transform="translate(1188.916016 0)"/>
     <use xlink:href="#DejaVuSans-65" transform="translate(1220.703125 0)"/>
     <use xlink:href="#DejaVuSans-64" transform="translate(1282.226562 0)"/>
     <use xlink:href="#DejaVuSans-67" transform="translate(1345.703125 0)"/>
     <use xlink:href="#DejaVuSans-65" transform="translate(1409.179688 0)"/>
     <use xlink:href="#DejaVuSans-20" transform="translate(1470.703125 0)"/>
     <use xlink:href="#DejaVuSans-74" transform="translate(1502.490234 0)"/>
     <use xlink:href="#DejaVuSans-69" transform="translate(1541.699219 0)"/>
     <use xlink:href="#DejaVuSans-65" transform="translate(1569.482422 0)"/>
     <use xlink:href="#DejaVuSans-72" transform="translate(1631.005859 0)"/>
     <use xlink:href="#DejaVuSans-73" transform="translate(1672.119141 0)"/>
    </g>
   </g>
   <g id="text_2">
    <!-- Brain Region Connectivity -->
    <g transform="translate(45.860391 26.196094) scale(0.25 -0.25)">
     <defs>
      <path id="DejaVuSans-Bold-42" d="M 2456 2859 
Q 2741 2859 2887 2984 
Q 3034 3109 3034 3353 
Q 3034 3594 2887 3720 
Q 2741 3847 2456 3847 
L 1791 3847 
L 1791 2859 
L 2456 2859 
z
M 2497 819 
Q 2859 819 3042 972 
Q 3225 1125 3225 1434 
Q 3225 1738 3044 1889 
Q 2863 2041 2497 2041 
L 1791 2041 
L 1791 819 
L 2497 819 
z
M 3616 2497 
Q 4003 2384 4215 2081 
Q 4428 1778 4428 1338 
Q 4428 663 3972 331 
Q 3516 0 2584 0 
L 588 0 
L 588 4666 
L 2394 4666 
Q 3366 4666 3802 4372 
Q 4238 4078 4238 3431 
Q 4238 3091 4078 2852 
Q 3919 2613 3616 2497 
z
" transform="scale(0.015625)"/>
      <path id="DejaVuSans-Bold-72" d="M 3138 2547 
Q 2991 2616 2845 2648 
Q 2700 2681 2553 2681 
Q 2122 2681 1889 2404 
Q 1656 2128 1656 1613 
L 1656 0 
L 538 0 
L 538 3500 
L 1656 3500 
L 1656 2925 
Q 1872 3269 2151 3426 
Q 2431 3584 2822 3584 
Q 2878 3584 2943 3579 
Q 3009 3575 3134 3559 
L 3138 2547 
z
" transform="scale(0.015625)"/>
      <path id="DejaVuSans-Bold-61" d="M 2106 1575 
Q 1756 1575 1579 1456 
Q 1403 1338 1403 1106 
Q 1403 894 1545 773 
Q 1688 653 1941 653 
Q 2256 653 2472 879 
Q 2688 1106 2688 1447 
L 2688 1575 
L 2106 1575 
z
M 3816 1997 
L 3816 0 
L 2688 0 
L 2688 519 
Q 2463 200 2181 54 
Q 1900 -91 1497 -91 
Q 953 -91 614 226 
Q 275 544 275 1050 
Q 275 1666 698 1953 
Q 1122 2241 2028 2241 
L 2688 2241 
L 2688 2328 
Q 2688 2594 2478 2717 
Q 2269 2841 1825 2841 
Q 1466 2841 1156 2769 
Q 847 2697 581 2553 
L 581 3406 
Q 941 3494 1303 3539 
Q 1666 3584 2028 3584 
Q 2975 3584 3395 3211 
Q 3816 2838 3816 1997 
z
" transform="scale(0.015625)"/>
      <path id="DejaVuSans-Bold-69" d="M 538 3500 
L 1656 3500 
L 1656 0 
L 538 0 
L 538 3500 
z
M 538 4863 
L 1656 4863 
L 1656 3950 
L 538 3950 
L 538 4863 
z
" transform="scale(0.015625)"/>
      <path id="DejaVuSans-Bold-6e" d="M 4056 2131 
L 4056 0 
L 2931 0 
L 2931 347 
L 2931 1631 
Q 2931 2084 2911 2256 
Q 2891 2428 2841 2509 
Q 2775 2619 2662 2680 
Q 2550 2741 2406 2741 
Q 2056 2741 1856 2470 
Q 1656 2200 1656 1722 
L 1656 0 
L 538 0 
L 538 3500 
L 1656 3500 
L 1656 2988 
Q 1909 3294 2193 3439 
Q 2478 3584 2822 3584 
Q 3428 3584 3742 3212 
Q 4056 2841 4056 2131 
z
" transform="scale(0.015625)"/>
      <path id="DejaVuSans-Bold-20" transform="scale(0.015625)"/>
      <path id="DejaVuSans-Bold-52" d="M 2297 2597 
Q 2675 2597 2839 2737 
Q 3003 2878 3003 3200 
Q 3003 3519 2839 3656 
Q 2675 3794 2297 3794 
L 1791 3794 
L 1791 2597 
L 2297 2597 
z
M 1791 1766 
L 1791 0 
L 588 0 
L 588 4666 
L 2425 4666 
Q 3347 4666 3776 4356 
Q 4206 4047 4206 3378 
Q 4206 2916 3982 2619 
Q 3759 2322 3309 2181 
Q 3556 2125 3751 1926 
Q 3947 1728 4147 1325 
L 4800 0 
L 3519 0 
L 2950 1159 
Q 2778 1509 2601 1637 
Q 2425 1766 2131 1766 
L 1791 1766 
z
" transform="scale(0.015625)"/>
      <path id="DejaVuSans-Bold-65" d="M 4031 1759 
L 4031 1441 
L 1416 1441 
Q 1456 1047 1700 850 
Q 1944 653 2381 653 
Q 2734 653 3104 758 
Q 3475 863 3866 1075 
L 3866 213 
Q 3469 63 3072 -14 
Q 2675 -91 2278 -91 
Q 1328 -91 801 392 
Q 275 875 275 1747 
Q 275 2603 792 3093 
Q 1309 3584 2216 3584 
Q 3041 3584 3536 3087 
Q 4031 2591 4031 1759 
z
M 2881 2131 
Q 2881 2450 2695 2645 
Q 2509 2841 2209 2841 
Q 1884 2841 1681 2658 
Q 1478 2475 1428 2131 
L 2881 2131 
z
" transform="scale(0.015625)"/>
      <path id="DejaVuSans-Bold-67" d="M 2919 594 
Q 2688 288 2409 144 
Q 2131 0 1766 0 
Q 1125 0 706 504 
Q 288 1009 288 1791 
Q 288 2575 706 3076 
Q 1125 3578 1766 3578 
Q 2131 3578 2409 3434 
Q 2688 3291 2919 2981 
L 2919 3500 
L 4044 3500 
L 4044 353 
Q 4044 -491 3511 -936 
Q 2978 -1381 1966 -1381 
Q 1638 -1381 1331 -1331 
Q 1025 -1281 716 -1178 
L 716 -306 
Q 1009 -475 1290 -558 
Q 1572 -641 1856 -641 
Q 2406 -641 2662 -400 
Q 2919 -159 2919 353 
L 2919 594 
z
M 2181 2772 
Q 1834 2772 1640 2515 
Q 1447 2259 1447 1791 
Q 1447 1309 1634 1061 
Q 1822 813 2181 813 
Q 2531 813 2725 1069 
Q 2919 1325 2919 1791 
Q 2919 2259 2725 2515 
Q 2531 2772 2181 2772 
z
" transform="scale(0.015625)"/>
      <path id="DejaVuSans-Bold-6f" d="M 2203 2784 
Q 1831 2784 1636 2517 
Q 1441 2250 1441 1747 
Q 1441 1244 1636 976 
Q 1831 709 2203 709 
Q 2569 709 2762 976 
Q 2956 1244 2956 1747 
Q 2956 2250 2762 2517 
Q 2569 2784 2203 2784 
z
M 2203 3584 
Q 3106 3584 3614 3096 
Q 4122 2609 4122 1747 
Q 4122 884 3614 396 
Q 3106 -91 2203 -91 
Q 1297 -91 786 396 
Q 275 884 275 1747 
Q 275 2609 786 3096 
Q 1297 3584 2203 3584 
z
" transform="scale(0.015625)"/>
      <path id="DejaVuSans-Bold-43" d="M 4288 256 
Q 3956 84 3597 -3 
Q 3238 -91 2847 -91 
Q 1681 -91 1000 561 
Q 319 1213 319 2328 
Q 319 3447 1000 4098 
Q 1681 4750 2847 4750 
Q 3238 4750 3597 4662 
Q 3956 4575 4288 4403 
L 4288 3438 
Q 3953 3666 3628 3772 
Q 3303 3878 2944 3878 
Q 2300 3878 1931 3465 
Q 1563 3053 1563 2328 
Q 1563 1606 1931 1193 
Q 2300 781 2944 781 
Q 3303 781 3628 887 
Q 3953 994 4288 1222 
L 4288 256 
z
" transform="scale(0.015625)"/>
      <path id="DejaVuSans-Bold-63" d="M 3366 3391 
L 3366 2478 
Q 3138 2634 2908 2709 
Q 2678 2784 2431 2784 
Q 1963 2784 1702 2511 
Q 1441 2238 1441 1747 
Q 1441 1256 1702 982 
Q 1963 709 2431 709 
Q 2694 709 2930 787 
Q 3166 866 3366 1019 
L 3366 103 
Q 3103 6 2833 -42 
Q 2563 -91 2291 -91 
Q 1344 -91 809 395 
Q 275 881 275 1747 
Q 275 2613 809 3098 
Q 1344 3584 2291 3584 
Q 2566 3584 2833 3536 
Q 3100 3488 3366 3391 
z
" transform="scale(0.015625)"/>
      <path id="DejaVuSans-Bold-74" d="M 1759 4494 
L 1759 3500 
L 2913 3500 
L 2913 2700 
L 1759 2700 
L 1759 1216 
Q 1759 972 1856 886 
Q 1953 800 2241 800 
L 2816 800 
L 2816 0 
L 1856 0 
Q 1194 0 917 276 
Q 641 553 641 1216 
L 641 2700 
L 84 2700 
L 84 3500 
L 641 3500 
L 641 4494 
L 1759 4494 
z
" transform="scale(0.015625)"/>
      <path id="DejaVuSans-Bold-76" d="M 97 3500 
L 1216 3500 
L 2088 1081 
L 2956 3500 
L 4078 3500 
L 2700 0 
L 1472 0 
L 97 3500 
z
" transform="scale(0.015625)"/>
      <path id="DejaVuSans-Bold-79" d="M 78 3500 
L 1197 3500 
L 2138 1125 
L 2938 3500 
L 4056 3500 
L 2584 -331 
Q 2363 -916 2067 -1148 
Q 1772 -1381 1288 -1381 
L 641 -1381 
L 641 -647 
L 991 -647 
Q 1275 -647 1404 -556 
Q 1534 -466 1606 -231 
L 1638 -134 
L 78 3500 
z
" transform="scale(0.015625)"/>
     </defs>
     <use xlink:href="#DejaVuSans-Bold-42"/>
     <use xlink:href="#DejaVuSans-Bold-72" transform="translate(76.220703 0)"/>
     <use xlink:href="#DejaVuSans-Bold-61" transform="translate(125.537109 0)"/>
     <use xlink:href="#DejaVuSans-Bold-69" transform="translate(193.017578 0)"/>
     <use xlink:href="#DejaVuSans-Bold-6e" transform="translate(227.294922 0)"/>
     <use xlink:href="#DejaVuSans-Bold-20" transform="translate(298.486328 0)"/>
     <use xlink:href="#DejaVuSans-Bold-52" transform="translate(333.300781 0)"/>
     <use xlink:href="#DejaVuSans-Bold-65" transform="translate(410.302734 0)"/>
     <use xlink:href="#DejaVuSans-Bold-67" transform="translate(478.125 0)"/>
     <use xlink:href="#DejaVuSans-Bold-69" transform="translate(549.707031 0)"/>
     <use xlink:href="#DejaVuSans-Bold-6f" transform="translate(583.984375 0)"/>
     <use xlink:href="#DejaVuSans-Bold-6e" transform="translate(652.685547 0)"/>
     <use xlink:href="#DejaVuSans-Bold-20" transform="translate(723.876953 0)"/>
     <use xlink:href="#DejaVuSans-Bold-43" transform="translate(758.691406 0)"/>
     <use xlink:href="#DejaVuSans-Bold-6f" transform="translate(832.080078 0)"/>
     <use xlink:href="#DejaVuSans-Bold-6e" transform="translate(900.78125 0)"/>
     <use xlink:href="#DejaVuSans-Bold-6e" transform="translate(971.972656 0)"/>
     <use xlink:href="#DejaVuSans-Bold-65" transform="translate(1043.164062 0)"/>
     <use xlink:href="#DejaVuSans-Bold-63" transform="translate(1110.986328 0)"/>
     <use xlink:href="#DejaVuSans-Bold-74" transform="translate(1170.263672 0)"/>
     <use xlink:href="#DejaVuSans-Bold-69" transform="translate(1218.066406 0)"/>
     <use xlink:href="#DejaVuSans-Bold-76" transform="translate(1252.34375 0)"/>
     <use xlink:href="#DejaVuSans-Bold-69" transform="translate(1317.529297 0)"/>
     <use xlink:href="#DejaVuSans-Bold-74" transform="translate(1351.806641 0)"/>
     <use xlink:href="#DejaVuSans-Bold-79" transform="translate(1399.609375 0)"/>
    </g>
   </g>
   <g id="patch_15">
    <path d="M 64.148419 345.673535 
C 61.651272 344.231806 58.820812 343.465843 55.93739 343.451513 
C 53.053969 343.437182 50.216035 344.174974 47.704681 345.591811 
C 45.193327 347.008648 43.094299 349.056154 41.6155 351.531529 
C 40.136702 354.006904 39.328624 356.825629 39.271306 359.708517 
C 39.213988 362.591404 39.909387 365.440022 41.288625 367.972221 
C 42.667862 370.504419 44.683846 372.633741 47.136898 374.149281 
C 49.589951 375.66482 52.396315 376.514833 55.278028 376.615125 
C 58.15974 376.715418 61.018409 376.062567 63.57089 374.721235 
" clip-path="url(#p21d6003e0c)" style="fill: none; opacity: 0.4; stroke: #aaaaaa; stroke-width: 1.2; stroke-linejoin: miter"/>
   </g>
   <g id="patch_16">
    <path d="M 86.420257 341.792615 
C 89.49949 341.792615 92.45302 340.569223 94.630366 338.391876 
C 96.807713 336.21453 98.031105 333.261 98.031105 330.181766 
C 98.031105 327.102533 96.807713 324.149003 94.630366 321.971657 
C 92.45302 319.79431 89.49949 318.570918 86.420257 318.570918 
C 83.341023 318.570918 80.387493 319.79431 78.210147 321.971657 
C 76.0328 324.149003 74.809408 327.102533 74.809408 330.181766 
C 74.809408 333.261 76.0328 336.21453 78.210147 338.391876 
C 80.387493 340.569223 83.341023 341.792615 86.420257 341.792615 
z
" clip-path="url(#p21d6003e0c)" style="fill: #ffffff; opacity: 0.22"/>
   </g>
   <g id="patch_17">
    <path d="M 356.018612 341.792615 
C 359.097845 341.792615 362.051375 340.569223 364.228722 338.391876 
C 366.406068 336.21453 367.629461 333.261 367.629461 330.181766 
C 367.629461 327.102533 366.406068 324.149003 364.228722 321.971657 
C 362.051375 319.79431 359.097845 318.570918 356.018612 318.570918 
C 352.939379 318.570918 349.985848 319.79431 347.808502 321.971657 
C 345.631155 324.149003 344.407763 327.102533 344.407763 330.181766 
C 344.407763 333.261 345.631155 336.21453 347.808502 338.391876 
C 349.985848 340.569223 352.939379 341.792615 356.018612 341.792615 
z
" clip-path="url(#p21d6003e0c)" style="fill: #ffffff; opacity: 0.22"/>
   </g>
   <g id="patch_18">
    <path d="M 221.219434 108.313591 
C 224.298667 108.313591 227.252197 107.090199 229.429544 104.912852 
C 231.606891 102.735505 232.830283 99.781975 232.830283 96.702742 
C 232.830283 93.623509 231.606891 90.669979 229.429544 88.492632 
C 227.252197 86.315286 224.298667 85.091893 221.219434 85.091893 
C 218.140201 85.091893 215.186671 86.315286 213.009324 88.492632 
C 210.831978 90.669979 209.608585 93.623509 209.608585 96.702742 
C 209.608585 99.781975 210.831978 102.735505 213.009324 104.912852 
C 215.186671 107.090199 218.140201 108.313591 221.219434 108.313591 
z
" clip-path="url(#p21d6003e0c)" style="fill: #ffffff; opacity: 0.22"/>
   </g>
   <g id="patch_19">
    <path d="M 334.7143 337.922332 
L 316.58812 332.847785 
L 322.374763 323.70807 
z
" clip-path="url(#p21d6003e0c)" style="fill: #7b2d8b; opacity: 0.95"/>
   </g>
   <g id="patch_20">
    <path d="M 214.437561 129.59691 
L 200.979784 142.757368 
L 195.95788 133.176131 
z
" clip-path="url(#p21d6003e0c)" style="fill: #c0392b; opacity: 0.8"/>
   </g>
   <g id="patch_21">
    <path d="M 123.2057 337.922332 
L 141.33188 342.99688 
L 135.545237 352.136595 
z
" clip-path="url(#p21d6003e0c)" style="fill: #c0392b; opacity: 0.8"/>
   </g>
   <g id="patch_22">
    <path d="M 243.482439 129.59691 
L 248.150842 147.831916 
L 237.342295 147.390394 
z
" clip-path="url(#p21d6003e0c)" style="fill: #2471a3; opacity: 0.6"/>
   </g>
   <g id="patch_23">
    <path d="M 108.683261 312.76873 
L 122.141038 299.608272 
L 127.162942 309.189509 
z
" clip-path="url(#p21d6003e0c)" style="fill: #2471a3; opacity: 0.6"/>
   </g>
   <g id="patch_24">
    <path d="M 349.236739 312.76873 
L 344.568336 294.533724 
L 355.376883 294.975247 
z
" clip-path="url(#p21d6003e0c)" style="fill: #aaaaaa; opacity: 0.4"/>
   </g>
   <g id="patch_25">
    <path d="M 79.530673 366.33435 
L 66.086955 379.50917 
L 61.054824 369.9333 
z
" clip-path="url(#p21d6003e0c)" style="fill: #aaaaaa; opacity: 0.4"/>
   </g>
   <g id="text_3">
    <!-- Cortex -->
    <g transform="translate(21.472225 363.266799) scale(0.12 -0.12)">
     <defs>
      <path id="DejaVuSans-Bold-78" d="M 1422 1791 
L 159 3500 
L 1344 3500 
L 2059 2463 
L 2784 3500 
L 3969 3500 
L 2706 1797 
L 4031 0 
L 2847 0 
L 2059 1106 
L 1281 0 
L 97 0 
L 1422 1791 
z
" transform="scale(0.015625)"/>
     </defs>
     <use xlink:href="#DejaVuSans-Bold-43"/>
     <use xlink:href="#DejaVuSans-Bold-6f" transform="translate(73.388672 0)"/>
     <use xlink:href="#DejaVuSans-Bold-72" transform="translate(142.089844 0)"/>
     <use xlink:href="#DejaVuSans-Bold-74" transform="translate(191.40625 0)"/>
     <use xlink:href="#DejaVuSans-Bold-65" transform="translate(239.208984 0)"/>
     <use xlink:href="#DejaVuSans-Bold-78" transform="translate(307.03125 0)"/>
    </g>
   </g>
   <g id="text_4">
    <!-- Hippocampus -->
    <g transform="translate(391.864025 363.266799) scale(0.12 -0.12)">
     <defs>
      <path id="DejaVuSans-Bold-48" d="M 588 4666 
L 1791 4666 
L 1791 2888 
L 3566 2888 
L 3566 4666 
L 4769 4666 
L 4769 0 
L 3566 0 
L 3566 1978 
L 1791 1978 
L 1791 0 
L 588 0 
L 588 4666 
z
" transform="scale(0.015625)"/>
      <path id="DejaVuSans-Bold-70" d="M 1656 506 
L 1656 -1331 
L 538 -1331 
L 538 3500 
L 1656 3500 
L 1656 2988 
Q 1888 3294 2169 3439 
Q 2450 3584 2816 3584 
Q 3463 3584 3878 3070 
Q 4294 2556 4294 1747 
Q 4294 938 3878 423 
Q 3463 -91 2816 -91 
Q 2450 -91 2169 54 
Q 1888 200 1656 506 
z
M 2400 2772 
Q 2041 2772 1848 2508 
Q 1656 2244 1656 1747 
Q 1656 1250 1848 986 
Q 2041 722 2400 722 
Q 2759 722 2948 984 
Q 3138 1247 3138 1747 
Q 3138 2247 2948 2509 
Q 2759 2772 2400 2772 
z
" transform="scale(0.015625)"/>
      <path id="DejaVuSans-Bold-6d" d="M 3781 2919 
Q 3994 3244 4286 3414 
Q 4578 3584 4928 3584 
Q 5531 3584 5847 3212 
Q 6163 2841 6163 2131 
L 6163 0 
L 5038 0 
L 5038 1825 
Q 5041 1866 5042 1909 
Q 5044 1953 5044 2034 
Q 5044 2406 4934 2573 
Q 4825 2741 4581 2741 
Q 4263 2741 4089 2478 
Q 3916 2216 3909 1719 
L 3909 0 
L 2784 0 
L 2784 1825 
Q 2784 2406 2684 2573 
Q 2584 2741 2328 2741 
Q 2006 2741 1831 2477 
Q 1656 2213 1656 1722 
L 1656 0 
L 531 0 
L 531 3500 
L 1656 3500 
L 1656 2988 
Q 1863 3284 2130 3434 
Q 2397 3584 2719 3584 
Q 3081 3584 3359 3409 
Q 3638 3234 3781 2919 
z
" transform="scale(0.015625)"/>
      <path id="DejaVuSans-Bold-75" d="M 500 1363 
L 500 3500 
L 1625 3500 
L 1625 3150 
Q 1625 2866 1622 2436 
Q 1619 2006 1619 1863 
Q 1619 1441 1641 1255 
Q 1663 1069 1716 984 
Q 1784 875 1895 815 
Q 2006 756 2150 756 
Q 2500 756 2700 1025 
Q 2900 1294 2900 1772 
L 2900 3500 
L 4019 3500 
L 4019 0 
L 2900 0 
L 2900 506 
Q 2647 200 2364 54 
Q 2081 -91 1741 -91 
Q 1134 -91 817 281 
Q 500 653 500 1363 
z
" transform="scale(0.015625)"/>
      <path id="DejaVuSans-Bold-73" d="M 3272 3391 
L 3272 2541 
Q 2913 2691 2578 2766 
Q 2244 2841 1947 2841 
Q 1628 2841 1473 2761 
Q 1319 2681 1319 2516 
Q 1319 2381 1436 2309 
Q 1553 2238 1856 2203 
L 2053 2175 
Q 2913 2066 3209 1816 
Q 3506 1566 3506 1031 
Q 3506 472 3093 190 
Q 2681 -91 1863 -91 
Q 1516 -91 1145 -36 
Q 775 19 384 128 
L 384 978 
Q 719 816 1070 734 
Q 1422 653 1784 653 
Q 2113 653 2278 743 
Q 2444 834 2444 1013 
Q 2444 1163 2330 1236 
Q 2216 1309 1875 1350 
L 1678 1375 
Q 931 1469 631 1722 
Q 331 1975 331 2491 
Q 331 3047 712 3315 
Q 1094 3584 1881 3584 
Q 2191 3584 2531 3537 
Q 2872 3491 3272 3391 
z
" transform="scale(0.015625)"/>
     </defs>
     <use xlink:href="#DejaVuSans-Bold-48"/>
     <use xlink:href="#DejaVuSans-Bold-69" transform="translate(83.691406 0)"/>
     <use xlink:href="#DejaVuSans-Bold-70" transform="translate(117.96875 0)"/>
     <use xlink:href="#DejaVuSans-Bold-70" transform="translate(189.550781 0)"/>
     <use xlink:href="#DejaVuSans-Bold-6f" transform="translate(261.132812 0)"/>
     <use xlink:href="#DejaVuSans-Bold-63" transform="translate(329.833984 0)"/>
     <use xlink:href="#DejaVuSans-Bold-61" transform="translate(389.111328 0)"/>
     <use xlink:href="#DejaVuSans-Bold-6d" transform="translate(456.591797 0)"/>
     <use xlink:href="#DejaVuSans-Bold-70" transform="translate(560.791016 0)"/>
     <use xlink:href="#DejaVuSans-Bold-75" transform="translate(632.373047 0)"/>
     <use xlink:href="#DejaVuSans-Bold-73" transform="translate(703.564453 0)"/>
    </g>
   </g>
   <g id="text_5">
    <!-- Amygdala -->
    <g transform="translate(195.40875 69.40125) scale(0.12 -0.12)">
     <defs>
      <path id="DejaVuSans-Bold-41" d="M 3419 850 
L 1538 850 
L 1241 0 
L 31 0 
L 1759 4666 
L 3194 4666 
L 4922 0 
L 3713 0 
L 3419 850 
z
M 1838 1716 
L 3116 1716 
L 2478 3572 
L 1838 1716 
z
" transform="scale(0.015625)"/>
      <path id="DejaVuSans-Bold-64" d="M 2919 2988 
L 2919 4863 
L 4044 4863 
L 4044 0 
L 2919 0 
L 2919 506 
Q 2688 197 2409 53 
Q 2131 -91 1766 -91 
Q 1119 -91 703 423 
Q 288 938 288 1747 
Q 288 2556 703 3070 
Q 1119 3584 1766 3584 
Q 2128 3584 2408 3439 
Q 2688 3294 2919 2988 
z
M 2181 722 
Q 2541 722 2730 984 
Q 2919 1247 2919 1747 
Q 2919 2247 2730 2509 
Q 2541 2772 2181 2772 
Q 1825 2772 1636 2509 
Q 1447 2247 1447 1747 
Q 1447 1247 1636 984 
Q 1825 722 2181 722 
z
" transform="scale(0.015625)"/>
      <path id="DejaVuSans-Bold-6c" d="M 538 4863 
L 1656 4863 
L 1656 0 
L 538 0 
L 538 4863 
z
" transform="scale(0.015625)"/>
     </defs>
     <use xlink:href="#DejaVuSans-Bold-41"/>
     <use xlink:href="#DejaVuSans-Bold-6d" transform="translate(77.392578 0)"/>
     <use xlink:href="#DejaVuSans-Bold-79" transform="translate(181.591797 0)"/>
     <use xlink:href="#DejaVuSans-Bold-67" transform="translate(246.777344 0)"/>
     <use xlink:href="#DejaVuSans-Bold-64" transform="translate(318.359375 0)"/>
     <use xlink:href="#DejaVuSans-Bold-61" transform="translate(389.941406 0)"/>
     <use xlink:href="#DejaVuSans-Bold-6c" transform="translate(457.421875 0)"/>
     <use xlink:href="#DejaVuSans-Bold-61" transform="translate(491.699219 0)"/>
    </g>
   </g>
  </g>
 </g>
 <defs>
  <clipPath id="p21d6003e0c">
   <rect x="7.2" y="38.335991" width="443.52" height="443.52"/>
  </clipPath>
 </defs>
</svg>
