<?xml version="1.0" encoding="utf-8" standalone="no"?>
<!DOCTYPE svg PUBLIC "-//W3C//DTD SVG 1.1//EN"
  "http://www.w3.org/Graphics/SVG/1.1/DTD/svg11.dtd">
<svg xmlns:xlink="http://www.w3.org/1999/xlink" width="607.403906pt" height="552.926727pt" viewBox="0 0 607.403906 552.926727" xmlns="http://www.w3.org/2000/svg" version="1.1">
 <metadata>
  <rdf:RDF xmlns:dc="http://purl.org/dc/elements/1.1/" xmlns:cc="http://creativecommons.org/ns#" xmlns:rdf="http://www.w3.org/1999/02/22-rdf-syntax-ns#">
   <cc:Work>
    <dc:type rdf:resource="http://purl.org/dc/dcmitype/StillImage"/>
    <dc:date>2026-05-01T09:01:52.615292</dc:date>
    <dc:format>image/svg+xml</dc:format>
    <dc:creator>
     <cc:Agent>
      <dc:title>Matplotlib v3.8.2, https://matplotlib.org/</dc:title>
     </cc:Agent>
    </dc:creator>
   </cc:Work>
  </rdf:RDF>
 </metadata>
 <defs>
  <style type="text/css">*{stroke-linejoin: round; stroke-linecap: butt}</style>
 </defs>
 <g id="figure_1">
  <g id="patch_1">
   <path d="M 0 552.926727 
L 607.403906 552.926727 
L 607.403906 0 
L 0 0 
z
" style="fill: #ffffff"/>
  </g>
  <g id="axes_1">
   <g id="patch_2">
    <path d="M 310.901953 421.736776 
C 350.117548 421.736776 387.732254 406.156255 415.461867 378.426641 
C 443.191481 350.697028 458.772002 313.082322 458.772002 273.866727 
C 458.772002 234.651132 443.191481 197.036426 415.461867 169.306813 
C 387.732254 141.5772 350.117548 125.996678 310.901953 125.996678 
C 271.686358 125.996678 234.071652 141.5772 206.342039 169.306813 
C 178.612426 197.036426 163.031904 234.651132 163.031904 273.866727 
C 163.031904 313.082322 178.612426 350.697028 206.342039 378.426641 
C 234.071652 406.156255 271.686358 421.736776 310.901953 421.736776 
z
" clip-path="url(#p1ce1554b39)" style="fill: #f0f4fa; stroke: #f0f4fa; stroke-linejoin: miter"/>
   </g>
   <g id="patch_3">
    <path d="M 414.746276 190.740001 
Q 458.570636 281.58109 412.957656 348.167264 
" clip-path="url(#p1ce1554b39)" style="fill: none; opacity: 0.45; stroke: #999999; stroke-width: 0.96; stroke-linejoin: miter"/>
   </g>
   <g id="patch_4">
    <path d="M 407.562518 187.982415 
Q 445.08099 336.007997 319.376801 394.893605 
" clip-path="url(#p1ce1554b39)" style="fill: none; opacity: 0.45; stroke: #999999; stroke-width: 0.96; stroke-linejoin: miter"/>
   </g>
   <g id="patch_5">
    <path d="M 396.786266 177.206162 
Q 259.748949 153.102321 191.535338 258.229141 
" clip-path="url(#p1ce1554b39)" style="fill: none; opacity: 0.45; stroke: #999999; stroke-width: 0.96; stroke-linejoin: miter"/>
   </g>
   <g id="patch_6">
    <path d="M 394.028679 170.022404 
Q 307.429417 126.037458 238.89214 168.765895 
" clip-path="url(#p1ce1554b39)" style="fill: none; opacity: 0.45; stroke: #999999; stroke-width: 0.96; stroke-linejoin: miter"/>
   </g>
   <g id="patch_7">
    <path d="M 393.358029 162.356838 
Q 348.644771 130.894593 333.071882 139.077665 
" clip-path="url(#p1ce1554b39)" style="fill: none; opacity: 0.45; stroke: #999999; stroke-width: 0.96; stroke-linejoin: miter"/>
   </g>
   <g id="patch_8">
    <path d="M 439.980674 281.486688 
Q 386.52749 350.62522 326.266242 392.828032 
" clip-path="url(#p1ce1554b39)" style="fill: none; opacity: 0.45; stroke: #999999; stroke-width: 0.96; stroke-linejoin: miter"/>
   </g>
   <g id="patch_9">
    <path d="M 439.980674 266.246766 
Q 358.933213 152.752041 236.255846 179.874861 
" clip-path="url(#p1ce1554b39)" style="fill: none; opacity: 0.45; stroke: #999999; stroke-width: 0.96; stroke-linejoin: miter"/>
   </g>
   <g id="patch_10">
    <path d="M 409.28179 358.875026 
Q 455.062705 278.965616 423.837909 205.460167 
" clip-path="url(#p1ce1554b39)" style="fill: none; opacity: 0.45; stroke: #999999; stroke-width: 0.96; stroke-linejoin: miter"/>
   </g>
   <g id="patch_11">
    <path d="M 397.780075 368.873315 
Q 311.826428 292.124089 235.589301 358.995994 
" clip-path="url(#p1ce1554b39)" style="fill: none; opacity: 0.45; stroke: #999999; stroke-width: 0.96; stroke-linejoin: miter"/>
   </g>
   <g id="patch_12">
    <path d="M 400.101166 365.793123 
Q 273.733156 370.108813 193.069354 291.51845 
" clip-path="url(#p1ce1554b39)" style="fill: none; opacity: 0.45; stroke: #999999; stroke-width: 0.96; stroke-linejoin: miter"/>
   </g>
   <g id="patch_13">
    <path d="M 225.893654 372.246564 
Q 310.063413 313.732752 383.236993 363.844724 
" clip-path="url(#p1ce1554b39)" style="fill: none; opacity: 0.45; stroke: #999999; stroke-width: 0.96; stroke-linejoin: miter"/>
   </g>
   <g id="patch_14">
    <path d="M 208.921466 357.492866 
Q 188.065123 324.340463 184.000071 299.323833 
" clip-path="url(#p1ce1554b39)" style="fill: none; opacity: 0.45; stroke: #999999; stroke-width: 0.96; stroke-linejoin: miter"/>
   </g>
   <g id="patch_15">
    <path d="M 181.823233 266.246766 
Q 256.367292 220.65096 293.912979 157.39369 
" clip-path="url(#p1ce1554b39)" style="fill: none; opacity: 0.45; stroke: #999999; stroke-width: 0.96; stroke-linejoin: miter"/>
   </g>
   <g id="patch_16">
    <path d="M 218.975557 184.667514 
Q 344.214749 186.56772 427.465599 260.636612 
" clip-path="url(#p1ce1554b39)" style="fill: none; opacity: 0.45; stroke: #999999; stroke-width: 0.96; stroke-linejoin: miter"/>
   </g>
   <g id="patch_17">
    <path d="M 401.41714 183.35154 
Q 276.277242 237.113207 222.708434 347.142904 
" clip-path="url(#p1ce1554b39)" style="fill: none; opacity: 0.6; stroke: #49a62d; stroke-width: 1.68; stroke-linejoin: miter"/>
   </g>
   <g id="patch_18">
    <path d="M 443.11045 259.217174 
Q 420.625912 229.79333 421.79114 206.61374 
" clip-path="url(#p1ce1554b39)" style="fill: none; opacity: 0.6; stroke: #49a62d; stroke-width: 1.68; stroke-linejoin: miter"/>
   </g>
   <g id="patch_19">
    <path d="M 441.299783 262.622542 
Q 343.111422 242.718689 317.092382 160.36838 
" clip-path="url(#p1ce1554b39)" style="fill: none; opacity: 0.6; stroke: #49a62d; stroke-width: 1.68; stroke-linejoin: miter"/>
   </g>
   <g id="patch_20">
    <path d="M 394.528092 375.847215 
Q 338.311548 334.674361 322.756852 388.323964 
" clip-path="url(#p1ce1554b39)" style="fill: none; opacity: 0.6; stroke: #49a62d; stroke-width: 1.68; stroke-linejoin: miter"/>
   </g>
   <g id="patch_21">
    <path d="M 310.901953 401.874532 
Q 399.945877 314.922795 409.377852 204.691504 
" clip-path="url(#p1ce1554b39)" style="fill: none; opacity: 0.6; stroke: #49a62d; stroke-width: 1.68; stroke-linejoin: miter"/>
   </g>
   <g id="patch_22">
    <path d="M 322.146138 404.264557 
Q 344.670767 356.472097 379.822896 373.39144 
" clip-path="url(#p1ce1554b39)" style="fill: none; opacity: 0.6; stroke: #49a62d; stroke-width: 1.68; stroke-linejoin: miter"/>
   </g>
   <g id="patch_23">
    <path d="M 299.657768 404.264557 
Q 261.211568 397.058973 240.133547 383.078222 
" clip-path="url(#p1ce1554b39)" style="fill: none; opacity: 0.6; stroke: #49a62d; stroke-width: 1.68; stroke-linejoin: miter"/>
   </g>
   <g id="patch_24">
    <path d="M 182.894148 273.866727 
Q 259.802847 156.72193 384.160275 178.860655 
" clip-path="url(#p1ce1554b39)" style="fill: none; opacity: 0.6; stroke: #49a62d; stroke-width: 1.68; stroke-linejoin: miter"/>
   </g>
   <g id="patch_25">
    <path d="M 182.62511 277.714151 
Q 309.532574 240.356952 424.138108 270.36547 
" clip-path="url(#p1ce1554b39)" style="fill: none; opacity: 0.6; stroke: #49a62d; stroke-width: 1.68; stroke-linejoin: miter"/>
   </g>
   <g id="patch_26">
    <path d="M 224.023831 178.860139 
Q 307.518242 126.035398 381.779108 167.476651 
" clip-path="url(#p1ce1554b39)" style="fill: none; opacity: 0.6; stroke: #49a62d; stroke-width: 1.68; stroke-linejoin: miter"/>
   </g>
   <g id="patch_27">
    <path d="M 316.649646 145.254815 
Q 359.303846 134.142685 382.176601 156.641935 
" clip-path="url(#p1ce1554b39)" style="fill: none; opacity: 0.6; stroke: #49a62d; stroke-width: 1.68; stroke-linejoin: miter"/>
   </g>
   <g id="patch_28">
    <path d="M 441.299783 285.110912 
Q 375.481086 299.774087 404.890397 344.597131 
" clip-path="url(#p1ce1554b39)" style="fill: none; opacity: 0.74; stroke: #1a6fa8; stroke-width: 2.56; stroke-linejoin: miter"/>
   </g>
   <g id="patch_29">
    <path d="M 439.178796 277.714151 
Q 335.374611 332.233365 236.035347 361.026619 
" clip-path="url(#p1ce1554b39)" style="fill: none; opacity: 0.74; stroke: #1a6fa8; stroke-width: 2.56; stroke-linejoin: miter"/>
   </g>
   <g id="patch_30">
    <path d="M 416.640409 356.625271 
Q 395.322105 310.196698 429.31497 294.923218 
" clip-path="url(#p1ce1554b39)" style="fill: none; opacity: 0.74; stroke: #1a6fa8; stroke-width: 2.56; stroke-linejoin: miter"/>
   </g>
   <g id="patch_31">
    <path d="M 303.281992 402.945448 
Q 314.325437 274.848082 305.880441 160.409178 
" clip-path="url(#p1ce1554b39)" style="fill: none; opacity: 0.74; stroke: #1a6fa8; stroke-width: 2.56; stroke-linejoin: miter"/>
   </g>
   <g id="patch_32">
    <path d="M 212.522116 188.858428 
Q 210.57625 231.0932 191.196421 251.931403 
" clip-path="url(#p1ce1554b39)" style="fill: none; opacity: 0.74; stroke: #1a6fa8; stroke-width: 2.56; stroke-linejoin: miter"/>
   </g>
   <g id="patch_33">
    <path d="M 308.973544 145.791581 
Q 341.473564 259.904354 394.869221 350.114426 
" clip-path="url(#p1ce1554b39)" style="fill: none; opacity: 0.74; stroke: #1a6fa8; stroke-width: 2.56; stroke-linejoin: miter"/>
   </g>
   <g id="patch_34">
    <path d="M 218.975557 363.06594 
Q 290.102546 252.891757 391.534477 193.945132 
" clip-path="url(#p1ce1554b39)" style="fill: none; opacity: 0.88; stroke: #7b2d8b; stroke-width: 3.6; stroke-linejoin: miter"/>
   </g>
   <g id="patch_35">
    <path d="M 215.895365 186.988605 
Q 235.661155 272.642317 216.659206 344.246189 
" clip-path="url(#p1ce1554b39)" style="fill: none; opacity: 0.88; stroke: #7b2d8b; stroke-width: 3.6; stroke-linejoin: miter"/>
   </g>
   <g id="patch_36">
    <path d="M 422.046777 412.656429 
C 429.378284 412.656429 436.410499 409.74359 441.594658 404.559432 
C 446.778816 399.375273 449.691655 392.343058 449.691655 385.011551 
C 449.691655 377.680043 446.778816 370.647829 441.594658 365.46367 
C 436.410499 360.279512 429.378284 357.366673 422.046777 357.366673 
C 414.715269 357.366673 407.683055 360.279512 402.498896 365.46367 
C 397.314738 370.647829 394.401899 377.680043 394.401899 385.011551 
C 394.401899 392.343058 397.314738 399.375273 402.498896 404.559432 
C 407.683055 409.74359 414.715269 412.656429 422.046777 412.656429 
z
" clip-path="url(#p1ce1554b39)" style="fill-opacity: 0.133333"/>
   </g>
   <g id="patch_37">
    <path d="M 156.331026 302.593361 
C 163.662534 302.593361 170.694748 299.680523 175.878907 294.496364 
C 181.063066 289.312205 183.975904 282.279991 183.975904 274.948483 
C 183.975904 267.616976 181.063066 260.584761 175.878907 255.400602 
C 170.694748 250.216444 163.662534 247.303605 156.331026 247.303605 
C 148.999519 247.303605 141.967304 250.216444 136.783146 255.400602 
C 131.598987 260.584761 128.686148 267.616976 128.686148 274.948483 
C 128.686148 282.279991 131.598987 289.312205 136.783146 294.496364 
C 141.967304 299.680523 148.999519 302.593361 156.331026 302.593361 
z
" clip-path="url(#p1ce1554b39)" style="fill-opacity: 0.133333"/>
   </g>
   <g id="patch_38">
    <path d="M 201.920642 412.656429 
C 209.252149 412.656429 216.284364 409.74359 221.468522 404.559432 
C 226.652681 399.375273 229.56552 392.343058 229.56552 385.011551 
C 229.56552 377.680043 226.652681 370.647829 221.468522 365.46367 
C 216.284364 360.279512 209.252149 357.366673 201.920642 357.366673 
C 194.589134 357.366673 187.556919 360.279512 182.372761 365.46367 
C 177.188602 370.647829 174.275764 377.680043 174.275764 385.011551 
C 174.275764 392.343058 177.188602 399.375273 182.372761 404.559432 
C 187.556919 409.74359 194.589134 412.656429 201.920642 412.656429 
z
" clip-path="url(#p1ce1554b39)" style="fill-opacity: 0.133333"/>
   </g>
   <g id="patch_39">
    <path d="M 311.983709 458.246044 
C 319.315217 458.246044 326.347431 455.333205 331.53159 450.149047 
C 336.715749 444.964888 339.628587 437.932674 339.628587 430.601166 
C 339.628587 423.269659 336.715749 416.237444 331.53159 411.053285 
C 326.347431 405.869127 319.315217 402.956288 311.983709 402.956288 
C 304.652202 402.956288 297.619987 405.869127 292.435828 411.053285 
C 287.25167 416.237444 284.338831 423.269659 284.338831 430.601166 
C 284.338831 437.932674 287.25167 444.964888 292.435828 450.149047 
C 297.619987 455.333205 304.652202 458.246044 311.983709 458.246044 
z
" clip-path="url(#p1ce1554b39)" style="fill-opacity: 0.133333"/>
   </g>
   <g id="patch_40">
    <path d="M 311.983709 146.940678 
C 319.315217 146.940678 326.347431 144.02784 331.53159 138.843681 
C 336.715749 133.659522 339.628587 126.627308 339.628587 119.2958 
C 339.628587 111.964293 336.715749 104.932078 331.53159 99.74792 
C 326.347431 94.563761 319.315217 91.650922 311.983709 91.650922 
C 304.652202 91.650922 297.619987 94.563761 292.435828 99.74792 
C 287.25167 104.932078 284.338831 111.964293 284.338831 119.2958 
C 284.338831 126.627308 287.25167 133.659522 292.435828 138.843681 
C 297.619987 144.02784 304.652202 146.940678 311.983709 146.940678 
z
" clip-path="url(#p1ce1554b39)" style="fill-opacity: 0.133333"/>
   </g>
   <g id="patch_41">
    <path d="M 467.636392 302.593361 
C 474.9679 302.593361 482.000114 299.680523 487.184273 294.496364 
C 492.368431 289.312205 495.28127 282.279991 495.28127 274.948483 
C 495.28127 267.616976 492.368431 260.584761 487.184273 255.400602 
C 482.000114 250.216444 474.9679 247.303605 467.636392 247.303605 
C 460.304885 247.303605 453.27267 250.216444 448.088511 255.400602 
C 442.904353 260.584761 439.991514 267.616976 439.991514 274.948483 
C 439.991514 282.279991 442.904353 289.312205 448.088511 294.496364 
C 453.27267 299.680523 460.304885 302.593361 467.636392 302.593361 
z
" clip-path="url(#p1ce1554b39)" style="fill-opacity: 0.133333"/>
   </g>
   <g id="patch_42">
    <path d="M 422.046777 192.530294 
C 429.378284 192.530294 436.410499 189.617455 441.594658 184.433296 
C 446.778816 179.249138 449.691655 172.216923 449.691655 164.885416 
C 449.691655 157.553908 446.778816 150.521693 441.594658 145.337535 
C 436.410499 140.153376 429.378284 137.240538 422.046777 137.240538 
C 414.715269 137.240538 407.683055 140.153376 402.498896 145.337535 
C 397.314738 150.521693 394.401899 157.553908 394.401899 164.885416 
C 394.401899 172.216923 397.314738 179.249138 402.498896 184.433296 
C 407.683055 189.617455 414.715269 192.530294 422.046777 192.530294 
z
" clip-path="url(#p1ce1554b39)" style="fill-opacity: 0.133333"/>
   </g>
   <g id="patch_43">
    <path d="M 201.920642 192.530294 
C 209.252149 192.530294 216.284364 189.617455 221.468522 184.433296 
C 226.652681 179.249138 229.56552 172.216923 229.56552 164.885416 
C 229.56552 157.553908 226.652681 150.521693 221.468522 145.337535 
C 216.284364 140.153376 209.252149 137.240538 201.920642 137.240538 
C 194.589134 137.240538 187.556919 140.153376 182.372761 145.337535 
C 177.188602 150.521693 174.275764 157.553908 174.275764 164.885416 
C 174.275764 172.216923 177.188602 179.249138 182.372761 184.433296 
C 187.556919 189.617455 194.589134 192.530294 201.920642 192.530294 
z
" clip-path="url(#p1ce1554b39)" style="fill-opacity: 0.133333"/>
   </g>
   <g id="patch_44">
    <path d="M 420.965021 411.574673 
C 428.296528 411.574673 435.328743 408.661834 440.512901 403.477675 
C 445.69706 398.293517 448.609899 391.261302 448.609899 383.929795 
C 448.609899 376.598287 445.69706 369.566073 440.512901 364.381914 
C 435.328743 359.197755 428.296528 356.284917 420.965021 356.284917 
C 413.633513 356.284917 406.601299 359.197755 401.41714 364.381914 
C 396.232981 369.566073 393.320143 376.598287 393.320143 383.929795 
C 393.320143 391.261302 396.232981 398.293517 401.41714 403.477675 
C 406.601299 408.661834 413.633513 411.574673 420.965021 411.574673 
z
" clip-path="url(#p1ce1554b39)" style="fill: #45b7d1; stroke: #ffffff; stroke-width: 2.8; stroke-linejoin: miter"/>
   </g>
   <g id="patch_45">
    <path d="M 155.24927 301.511605 
C 162.580778 301.511605 169.612992 298.598766 174.797151 293.414608 
C 179.98131 288.230449 182.894148 281.198234 182.894148 273.866727 
C 182.894148 266.53522 179.98131 259.503005 174.797151 254.318846 
C 169.612992 249.134688 162.580778 246.221849 155.24927 246.221849 
C 147.917763 246.221849 140.885548 249.134688 135.701389 254.318846 
C 130.517231 259.503005 127.604392 266.53522 127.604392 273.866727 
C 127.604392 281.198234 130.517231 288.230449 135.701389 293.414608 
C 140.885548 298.598766 147.917763 301.511605 155.24927 301.511605 
z
" clip-path="url(#p1ce1554b39)" style="fill: #beaed4; stroke: #ffffff; stroke-width: 2.8; stroke-linejoin: miter"/>
   </g>
   <g id="patch_46">
    <path d="M 200.838886 411.574673 
C 208.170393 411.574673 215.202608 408.661834 220.386766 403.477675 
C 225.570925 398.293517 228.483764 391.261302 228.483764 383.929795 
C 228.483764 376.598287 225.570925 369.566073 220.386766 364.381914 
C 215.202608 359.197755 208.170393 356.284917 200.838886 356.284917 
C 193.507378 356.284917 186.475163 359.197755 181.291005 364.381914 
C 176.106846 369.566073 173.194007 376.598287 173.194007 383.929795 
C 173.194007 391.261302 176.106846 398.293517 181.291005 403.477675 
C 186.475163 408.661834 193.507378 411.574673 200.838886 411.574673 
z
" clip-path="url(#p1ce1554b39)" style="fill: #7fc97f; stroke: #ffffff; stroke-width: 2.8; stroke-linejoin: miter"/>
   </g>
   <g id="patch_47">
    <path d="M 310.901953 457.164288 
C 318.23346 457.164288 325.265675 454.251449 330.449834 449.067291 
C 335.633992 443.883132 338.546831 436.850917 338.546831 429.51941 
C 338.546831 422.187903 335.633992 415.155688 330.449834 409.971529 
C 325.265675 404.787371 318.23346 401.874532 310.901953 401.874532 
C 303.570446 401.874532 296.538231 404.787371 291.354072 409.971529 
C 286.169914 415.155688 283.257075 422.187903 283.257075 429.51941 
C 283.257075 436.850917 286.169914 443.883132 291.354072 449.067291 
C 296.538231 454.251449 303.570446 457.164288 310.901953 457.164288 
z
" clip-path="url(#p1ce1554b39)" style="fill: #911eb4; stroke: #ffffff; stroke-width: 2.8; stroke-linejoin: miter"/>
   </g>
   <g id="patch_48">
    <path d="M 310.901953 145.858922 
C 318.23346 145.858922 325.265675 142.946084 330.449834 137.761925 
C 335.633992 132.577766 338.546831 125.545552 338.546831 118.214044 
C 338.546831 110.882537 335.633992 103.850322 330.449834 98.666163 
C 325.265675 93.482005 318.23346 90.569166 310.901953 90.569166 
C 303.570446 90.569166 296.538231 93.482005 291.354072 98.666163 
C 286.169914 103.850322 283.257075 110.882537 283.257075 118.214044 
C 283.257075 125.545552 286.169914 132.577766 291.354072 137.761925 
C 296.538231 142.946084 303.570446 145.858922 310.901953 145.858922 
z
" clip-path="url(#p1ce1554b39)" style="fill: #4ecdc4; stroke: #ffffff; stroke-width: 2.8; stroke-linejoin: miter"/>
   </g>
   <g id="patch_49">
    <path d="M 466.554636 301.511605 
C 473.886143 301.511605 480.918358 298.598766 486.102517 293.414608 
C 491.286675 288.230449 494.199514 281.198234 494.199514 273.866727 
C 494.199514 266.53522 491.286675 259.503005 486.102517 254.318846 
C 480.918358 249.134688 473.886143 246.221849 466.554636 246.221849 
C 459.223129 246.221849 452.190914 249.134688 447.006755 254.318846 
C 441.822597 259.503005 438.909758 266.53522 438.909758 273.866727 
C 438.909758 281.198234 441.822597 288.230449 447.006755 293.414608 
C 452.190914 298.598766 459.223129 301.511605 466.554636 301.511605 
z
" clip-path="url(#p1ce1554b39)" style="fill: #fdc086; stroke: #ffffff; stroke-width: 2.8; stroke-linejoin: miter"/>
   </g>
   <g id="patch_50">
    <path d="M 420.965021 191.448538 
C 428.296528 191.448538 435.328743 188.535699 440.512901 183.35154 
C 445.69706 178.167382 448.609899 171.135167 448.609899 163.80366 
C 448.609899 156.472152 445.69706 149.439937 440.512901 144.255779 
C 435.328743 139.07162 428.296528 136.158781 420.965021 136.158781 
C 413.633513 136.158781 406.601299 139.07162 401.41714 144.255779 
C 396.232981 149.439937 393.320143 156.472152 393.320143 163.80366 
C 393.320143 171.135167 396.232981 178.167382 401.41714 183.35154 
C 406.601299 188.535699 413.633513 191.448538 420.965021 191.448538 
z
" clip-path="url(#p1ce1554b39)" style="fill: #ff6b6b; stroke: #ffffff; stroke-width: 2.8; stroke-linejoin: miter"/>
   </g>
   <g id="patch_51">
    <path d="M 200.838886 191.448538 
C 208.170393 191.448538 215.202608 188.535699 220.386766 183.35154 
C 225.570925 178.167382 228.483764 171.135167 228.483764 163.80366 
C 228.483764 156.472152 225.570925 149.439937 220.386766 144.255779 
C 215.202608 139.07162 208.170393 136.158781 200.838886 136.158781 
C 193.507378 136.158781 186.475163 139.07162 181.291005 144.255779 
C 176.106846 149.439937 173.194007 156.472152 173.194007 163.80366 
C 173.194007 171.135167 176.106846 178.167382 181.291005 183.35154 
C 186.475163 188.535699 193.507378 191.448538 200.838886 191.448538 
z
" clip-path="url(#p1ce1554b39)" style="fill: #ffa07a; stroke: #ffffff; stroke-width: 2.8; stroke-linejoin: miter"/>
   </g>
   <g id="text_1">
    <!-- 200 random interactions -->
    <g transform="translate(233.702734 46.795703) scale(0.125 -0.125)">
     <defs>
      <path id="DejaVuSans-32" d="M 1228 531 
L 3431 531 
L 3431 0 
L 469 0 
L 469 531 
Q 828 903 1448 1529 
Q 2069 2156 2228 2338 
Q 2531 2678 2651 2914 
Q 2772 3150 2772 3378 
Q 2772 3750 2511 3984 
Q 2250 4219 1831 4219 
Q 1534 4219 1204 4116 
Q 875 4013 500 3803 
L 500 4441 
Q 881 4594 1212 4672 
Q 1544 4750 1819 4750 
Q 2544 4750 2975 4387 
Q 3406 4025 3406 3419 
Q 3406 3131 3298 2873 
Q 3191 2616 2906 2266 
Q 2828 2175 2409 1742 
Q 1991 1309 1228 531 
z
" transform="scale(0.015625)"/>
      <path id="DejaVuSans-30" d="M 2034 4250 
Q 1547 4250 1301 3770 
Q 1056 3291 1056 2328 
Q 1056 1369 1301 889 
Q 1547 409 2034 409 
Q 2525 409 2770 889 
Q 3016 1369 3016 2328 
Q 3016 3291 2770 3770 
Q 2525 4250 2034 4250 
z
M 2034 4750 
Q 2819 4750 3233 4129 
Q 3647 3509 3647 2328 
Q 3647 1150 3233 529 
Q 2819 -91 2034 -91 
Q 1250 -91 836 529 
Q 422 1150 422 2328 
Q 422 3509 836 4129 
Q 1250 4750 2034 4750 
z
" transform="scale(0.015625)"/>
      <path id="DejaVuSans-20" transform="scale(0.015625)"/>
      <path id="DejaVuSans-72" d="M 2631 2963 
Q 2534 3019 2420 3045 
Q 2306 3072 2169 3072 
Q 1681 3072 1420 2755 
Q 1159 2438 1159 1844 
L 1159 0 
L 581 0 
L 581 3500 
L 1159 3500 
L 1159 2956 
Q 1341 3275 1631 3429 
Q 1922 3584 2338 3584 
Q 2397 3584 2469 3576 
Q 2541 3569 2628 3553 
L 2631 2963 
z
" transform="scale(0.015625)"/>
      <path id="DejaVuSans-61" d="M 2194 1759 
Q 1497 1759 1228 1600 
Q 959 1441 959 1056 
Q 959 750 1161 570 
Q 1363 391 1709 391 
Q 2188 391 2477 730 
Q 2766 1069 2766 1631 
L 2766 1759 
L 2194 1759 
z
M 3341 1997 
L 3341 0 
L 2766 0 
L 2766 531 
Q 2569 213 2275 61 
Q 1981 -91 1556 -91 
Q 1019 -91 701 211 
Q 384 513 384 1019 
Q 384 1609 779 1909 
Q 1175 2209 1959 2209 
L 2766 2209 
L 2766 2266 
Q 2766 2663 2505 2880 
Q 2244 3097 1772 3097 
Q 1472 3097 1187 3025 
Q 903 2953 641 2809 
L 641 3341 
Q 956 3463 1253 3523 
Q 1550 3584 1831 3584 
Q 2591 3584 2966 3190 
Q 3341 2797 3341 1997 
z
" transform="scale(0.015625)"/>
      <path id="DejaVuSans-6e" d="M 3513 2113 
L 3513 0 
L 2938 0 
L 2938 2094 
Q 2938 2591 2744 2837 
Q 2550 3084 2163 3084 
Q 1697 3084 1428 2787 
Q 1159 2491 1159 1978 
L 1159 0 
L 581 0 
L 581 3500 
L 1159 3500 
L 1159 2956 
Q 1366 3272 1645 3428 
Q 1925 3584 2291 3584 
Q 2894 3584 3203 3211 
Q 3513 2838 3513 2113 
z
" transform="scale(0.015625)"/>
      <path id="DejaVuSans-64" d="M 2906 2969 
L 2906 4863 
L 3481 4863 
L 3481 0 
L 2906 0 
L 2906 525 
Q 2725 213 2448 61 
Q 2172 -91 1784 -91 
Q 1150 -91 751 415 
Q 353 922 353 1747 
Q 353 2572 751 3078 
Q 1150 3584 1784 3584 
Q 2172 3584 2448 3432 
Q 2725 3281 2906 2969 
z
M 947 1747 
Q 947 1113 1208 752 
Q 1469 391 1925 391 
Q 2381 391 2643 752 
Q 2906 1113 2906 1747 
Q 2906 2381 2643 2742 
Q 2381 3103 1925 3103 
Q 1469 3103 1208 2742 
Q 947 2381 947 1747 
z
" transform="scale(0.015625)"/>
      <path id="DejaVuSans-6f" d="M 1959 3097 
Q 1497 3097 1228 2736 
Q 959 2375 959 1747 
Q 959 1119 1226 758 
Q 1494 397 1959 397 
Q 2419 397 2687 759 
Q 2956 1122 2956 1747 
Q 2956 2369 2687 2733 
Q 2419 3097 1959 3097 
z
M 1959 3584 
Q 2709 3584 3137 3096 
Q 3566 2609 3566 1747 
Q 3566 888 3137 398 
Q 2709 -91 1959 -91 
Q 1206 -91 779 398 
Q 353 888 353 1747 
Q 353 2609 779 3096 
Q 1206 3584 1959 3584 
z
" transform="scale(0.015625)"/>
      <path id="DejaVuSans-6d" d="M 3328 2828 
Q 3544 3216 3844 3400 
Q 4144 3584 4550 3584 
Q 5097 3584 5394 3201 
Q 5691 2819 5691 2113 
L 5691 0 
L 5113 0 
L 5113 2094 
Q 5113 2597 4934 2840 
Q 4756 3084 4391 3084 
Q 3944 3084 3684 2787 
Q 3425 2491 3425 1978 
L 3425 0 
L 2847 0 
L 2847 2094 
Q 2847 2600 2669 2842 
Q 2491 3084 2119 3084 
Q 1678 3084 1418 2786 
Q 1159 2488 1159 1978 
L 1159 0 
L 581 0 
L 581 3500 
L 1159 3500 
L 1159 2956 
Q 1356 3278 1631 3431 
Q 1906 3584 2284 3584 
Q 2666 3584 2933 3390 
Q 3200 3197 3328 2828 
z
" transform="scale(0.015625)"/>
      <path id="DejaVuSans-69" d="M 603 3500 
L 1178 3500 
L 1178 0 
L 603 0 
L 603 3500 
z
M 603 4863 
L 1178 4863 
L 1178 4134 
L 603 4134 
L 603 4863 
z
" transform="scale(0.015625)"/>
      <path id="DejaVuSans-74" d="M 1172 4494 
L 1172 3500 
L 2356 3500 
L 2356 3053 
L 1172 3053 
L 1172 1153 
Q 1172 725 1289 603 
Q 1406 481 1766 481 
L 2356 481 
L 2356 0 
L 1766 0 
Q 1100 0 847 248 
Q 594 497 594 1153 
L 594 3053 
L 172 3053 
L 172 3500 
L 594 3500 
L 594 4494 
L 1172 4494 
z
" transform="scale(0.015625)"/>
      <path id="DejaVuSans-65" d="M 3597 1894 
L 3597 1613 
L 953 1613 
Q 991 1019 1311 708 
Q 1631 397 2203 397 
Q 2534 397 2845 478 
Q 3156 559 3463 722 
L 3463 178 
Q 3153 47 2828 -22 
Q 2503 -91 2169 -91 
Q 1331 -91 842 396 
Q 353 884 353 1716 
Q 353 2575 817 3079 
Q 1281 3584 2069 3584 
Q 2775 3584 3186 3129 
Q 3597 2675 3597 1894 
z
M 3022 2063 
Q 3016 2534 2758 2815 
Q 2500 3097 2075 3097 
Q 1594 3097 1305 2825 
Q 1016 2553 972 2059 
L 3022 2063 
z
" transform="scale(0.015625)"/>
      <path id="DejaVuSans-63" d="M 3122 3366 
L 3122 2828 
Q 2878 2963 2633 3030 
Q 2388 3097 2138 3097 
Q 1578 3097 1268 2742 
Q 959 2388 959 1747 
Q 959 1106 1268 751 
Q 1578 397 2138 397 
Q 2388 397 2633 464 
Q 2878 531 3122 666 
L 3122 134 
Q 2881 22 2623 -34 
Q 2366 -91 2075 -91 
Q 1284 -91 818 406 
Q 353 903 353 1747 
Q 353 2603 823 3093 
Q 1294 3584 2113 3584 
Q 2378 3584 2631 3529 
Q 2884 3475 3122 3366 
z
" transform="scale(0.015625)"/>
      <path id="DejaVuSans-73" d="M 2834 3397 
L 2834 2853 
Q 2591 2978 2328 3040 
Q 2066 3103 1784 3103 
Q 1356 3103 1142 2972 
Q 928 2841 928 2578 
Q 928 2378 1081 2264 
Q 1234 2150 1697 2047 
L 1894 2003 
Q 2506 1872 2764 1633 
Q 3022 1394 3022 966 
Q 3022 478 2636 193 
Q 2250 -91 1575 -91 
Q 1294 -91 989 -36 
Q 684 19 347 128 
L 347 722 
Q 666 556 975 473 
Q 1284 391 1588 391 
Q 1994 391 2212 530 
Q 2431 669 2431 922 
Q 2431 1156 2273 1281 
Q 2116 1406 1581 1522 
L 1381 1569 
Q 847 1681 609 1914 
Q 372 2147 372 2553 
Q 372 3047 722 3315 
Q 1072 3584 1716 3584 
Q 2034 3584 2315 3537 
Q 2597 3491 2834 3397 
z
" transform="scale(0.015625)"/>
     </defs>
     <use xlink:href="#DejaVuSans-32"/>
     <use xlink:href="#DejaVuSans-30" x="63.623047"/>
     <use xlink:href="#DejaVuSans-30" x="127.246094"/>
     <use xlink:href="#DejaVuSans-20" x="190.869141"/>
     <use xlink:href="#DejaVuSans-72" x="222.65625"/>
     <use xlink:href="#DejaVuSans-61" x="263.769531"/>
     <use xlink:href="#DejaVuSans-6e" x="325.048828"/>
     <use xlink:href="#DejaVuSans-64" x="388.427734"/>
     <use xlink:href="#DejaVuSans-6f" x="451.904297"/>
     <use xlink:href="#DejaVuSans-6d" x="513.085938"/>
     <use xlink:href="#DejaVuSans-20" x="610.498047"/>
     <use xlink:href="#DejaVuSans-69" x="642.285156"/>
     <use xlink:href="#DejaVuSans-6e" x="670.068359"/>
     <use xlink:href="#DejaVuSans-74" x="733.447266"/>
     <use xlink:href="#DejaVuSans-65" x="772.65625"/>
     <use xlink:href="#DejaVuSans-72" x="834.179688"/>
     <use xlink:href="#DejaVuSans-61" x="875.292969"/>
     <use xlink:href="#DejaVuSans-63" x="936.572266"/>
     <use xlink:href="#DejaVuSans-74" x="991.552734"/>
     <use xlink:href="#DejaVuSans-69" x="1030.761719"/>
     <use xlink:href="#DejaVuSans-6f" x="1058.544922"/>
     <use xlink:href="#DejaVuSans-6e" x="1119.726562"/>
     <use xlink:href="#DejaVuSans-73" x="1183.105469"/>
    </g>
   </g>
   <g id="text_2">
    <!-- LIANA Simulation -->
    <g transform="translate(188.448828 26.196094) scale(0.25 -0.25)">
     <defs>
      <path id="DejaVuSans-Bold-4c" d="M 588 4666 
L 1791 4666 
L 1791 909 
L 3903 909 
L 3903 0 
L 588 0 
L 588 4666 
z
" transform="scale(0.015625)"/>
      <path id="DejaVuSans-Bold-49" d="M 588 4666 
L 1791 4666 
L 1791 0 
L 588 0 
L 588 4666 
z
" transform="scale(0.015625)"/>
      <path id="DejaVuSans-Bold-41" d="M 3419 850 
L 1538 850 
L 1241 0 
L 31 0 
L 1759 4666 
L 3194 4666 
L 4922 0 
L 3713 0 
L 3419 850 
z
M 1838 1716 
L 3116 1716 
L 2478 3572 
L 1838 1716 
z
" transform="scale(0.015625)"/>
      <path id="DejaVuSans-Bold-4e" d="M 588 4666 
L 1931 4666 
L 3628 1466 
L 3628 4666 
L 4769 4666 
L 4769 0 
L 3425 0 
L 1728 3200 
L 1728 0 
L 588 0 
L 588 4666 
z
" transform="scale(0.015625)"/>
      <path id="DejaVuSans-Bold-20" transform="scale(0.015625)"/>
      <path id="DejaVuSans-Bold-53" d="M 3834 4519 
L 3834 3531 
Q 3450 3703 3084 3790 
Q 2719 3878 2394 3878 
Q 1963 3878 1756 3759 
Q 1550 3641 1550 3391 
Q 1550 3203 1689 3098 
Q 1828 2994 2194 2919 
L 2706 2816 
Q 3484 2659 3812 2340 
Q 4141 2022 4141 1434 
Q 4141 663 3683 286 
Q 3225 -91 2284 -91 
Q 1841 -91 1394 -6 
Q 947 78 500 244 
L 500 1259 
Q 947 1022 1364 901 
Q 1781 781 2169 781 
Q 2563 781 2772 912 
Q 2981 1044 2981 1288 
Q 2981 1506 2839 1625 
Q 2697 1744 2272 1838 
L 1806 1941 
Q 1106 2091 782 2419 
Q 459 2747 459 3303 
Q 459 4000 909 4375 
Q 1359 4750 2203 4750 
Q 2588 4750 2994 4692 
Q 3400 4634 3834 4519 
z
" transform="scale(0.015625)"/>
      <path id="DejaVuSans-Bold-69" d="M 538 3500 
L 1656 3500 
L 1656 0 
L 538 0 
L 538 3500 
z
M 538 4863 
L 1656 4863 
L 1656 3950 
L 538 3950 
L 538 4863 
z
" transform="scale(0.015625)"/>
      <path id="DejaVuSans-Bold-6d" d="M 3781 2919 
Q 3994 3244 4286 3414 
Q 4578 3584 4928 3584 
Q 5531 3584 5847 3212 
Q 6163 2841 6163 2131 
L 6163 0 
L 5038 0 
L 5038 1825 
Q 5041 1866 5042 1909 
Q 5044 1953 5044 2034 
Q 5044 2406 4934 2573 
Q 4825 2741 4581 2741 
Q 4263 2741 4089 2478 
Q 3916 2216 3909 1719 
L 3909 0 
L 2784 0 
L 2784 1825 
Q 2784 2406 2684 2573 
Q 2584 2741 2328 2741 
Q 2006 2741 1831 2477 
Q 1656 2213 1656 1722 
L 1656 0 
L 531 0 
L 531 3500 
L 1656 3500 
L 1656 2988 
Q 1863 3284 2130 3434 
Q 2397 3584 2719 3584 
Q 3081 3584 3359 3409 
Q 3638 3234 3781 2919 
z
" transform="scale(0.015625)"/>
      <path id="DejaVuSans-Bold-75" d="M 500 1363 
L 500 3500 
L 1625 3500 
L 1625 3150 
Q 1625 2866 1622 2436 
Q 1619 2006 1619 1863 
Q 1619 1441 1641 1255 
Q 1663 1069 1716 984 
Q 1784 875 1895 815 
Q 2006 756 2150 756 
Q 2500 756 2700 1025 
Q 2900 1294 2900 1772 
L 2900 3500 
L 4019 3500 
L 4019 0 
L 2900 0 
L 2900 506 
Q 2647 200 2364 54 
Q 2081 -91 1741 -91 
Q 1134 -91 817 281 
Q 500 653 500 1363 
z
" transform="scale(0.015625)"/>
      <path id="DejaVuSans-Bold-6c" d="M 538 4863 
L 1656 4863 
L 1656 0 
L 538 0 
L 538 4863 
z
" transform="scale(0.015625)"/>
      <path id="DejaVuSans-Bold-61" d="M 2106 1575 
Q 1756 1575 1579 1456 
Q 1403 1338 1403 1106 
Q 1403 894 1545 773 
Q 1688 653 1941 653 
Q 2256 653 2472 879 
Q 2688 1106 2688 1447 
L 2688 1575 
L 2106 1575 
z
M 3816 1997 
L 3816 0 
L 2688 0 
L 2688 519 
Q 2463 200 2181 54 
Q 1900 -91 1497 -91 
Q 953 -91 614 226 
Q 275 544 275 1050 
Q 275 1666 698 1953 
Q 1122 2241 2028 2241 
L 2688 2241 
L 2688 2328 
Q 2688 2594 2478 2717 
Q 2269 2841 1825 2841 
Q 1466 2841 1156 2769 
Q 847 2697 581 2553 
L 581 3406 
Q 941 3494 1303 3539 
Q 1666 3584 2028 3584 
Q 2975 3584 3395 3211 
Q 3816 2838 3816 1997 
z
" transform="scale(0.015625)"/>
      <path id="DejaVuSans-Bold-74" d="M 1759 4494 
L 1759 3500 
L 2913 3500 
L 2913 2700 
L 1759 2700 
L 1759 1216 
Q 1759 972 1856 886 
Q 1953 800 2241 800 
L 2816 800 
L 2816 0 
L 1856 0 
Q 1194 0 917 276 
Q 641 553 641 1216 
L 641 2700 
L 84 2700 
L 84 3500 
L 641 3500 
L 641 4494 
L 1759 4494 
z
" transform="scale(0.015625)"/>
      <path id="DejaVuSans-Bold-6f" d="M 2203 2784 
Q 1831 2784 1636 2517 
Q 1441 2250 1441 1747 
Q 1441 1244 1636 976 
Q 1831 709 2203 709 
Q 2569 709 2762 976 
Q 2956 1244 2956 1747 
Q 2956 2250 2762 2517 
Q 2569 2784 2203 2784 
z
M 2203 3584 
Q 3106 3584 3614 3096 
Q 4122 2609 4122 1747 
Q 4122 884 3614 396 
Q 3106 -91 2203 -91 
Q 1297 -91 786 396 
Q 275 884 275 1747 
Q 275 2609 786 3096 
Q 1297 3584 2203 3584 
z
" transform="scale(0.015625)"/>
      <path id="DejaVuSans-Bold-6e" d="M 4056 2131 
L 4056 0 
L 2931 0 
L 2931 347 
L 2931 1631 
Q 2931 2084 2911 2256 
Q 2891 2428 2841 2509 
Q 2775 2619 2662 2680 
Q 2550 2741 2406 2741 
Q 2056 2741 1856 2470 
Q 1656 2200 1656 1722 
L 1656 0 
L 538 0 
L 538 3500 
L 1656 3500 
L 1656 2988 
Q 1909 3294 2193 3439 
Q 2478 3584 2822 3584 
Q 3428 3584 3742 3212 
Q 4056 2841 4056 2131 
z
" transform="scale(0.015625)"/>
     </defs>
     <use xlink:href="#DejaVuSans-Bold-4c"/>
     <use xlink:href="#DejaVuSans-Bold-49" x="63.720703"/>
     <use xlink:href="#DejaVuSans-Bold-41" x="100.927734"/>
     <use xlink:href="#DejaVuSans-Bold-4e" x="178.320312"/>
     <use xlink:href="#DejaVuSans-Bold-41" x="262.011719"/>
     <use xlink:href="#DejaVuSans-Bold-20" x="339.404297"/>
     <use xlink:href="#DejaVuSans-Bold-53" x="374.21875"/>
     <use xlink:href="#DejaVuSans-Bold-69" x="446.240234"/>
     <use xlink:href="#DejaVuSans-Bold-6d" x="480.517578"/>
     <use xlink:href="#DejaVuSans-Bold-75" x="584.716797"/>
     <use xlink:href="#DejaVuSans-Bold-6c" x="655.908203"/>
     <use xlink:href="#DejaVuSans-Bold-61" x="690.185547"/>
     <use xlink:href="#DejaVuSans-Bold-74" x="757.666016"/>
     <use xlink:href="#DejaVuSans-Bold-69" x="805.46875"/>
     <use xlink:href="#DejaVuSans-Bold-6f" x="839.746094"/>
     <use xlink:href="#DejaVuSans-Bold-6e" x="908.447266"/>
    </g>
   </g>
   <g id="patch_52">
    <path d="M 185.584017 136.820063 
C 186.376479 133.862555 186.334774 130.742582 185.463541 127.807313 
C 184.592309 124.872044 182.925109 122.234543 180.647455 120.188292 
C 178.369801 118.142041 175.569427 116.76586 172.557938 116.21288 
C 169.546449 115.659901 166.439847 115.951423 163.583809 117.055009 
C 160.727772 118.158595 158.232313 120.031734 156.375109 122.465999 
C 154.517905 124.900264 153.370494 127.801886 153.060552 130.847997 
C 152.750609 133.894107 153.290074 136.967369 154.618919 139.725815 
C 155.947764 142.484261 158.014802 144.821636 160.590029 146.477854 
" clip-path="url(#p1ce1554b39)" style="fill: none; opacity: 0.45; stroke: #999999; stroke-width: 0.96; stroke-linejoin: miter"/>
   </g>
   <g id="patch_53">
    <path d="M 319.195417 88.346939 
C 321.847046 86.81602 324.023709 84.580376 325.483204 81.888773 
C 326.942698 79.19717 327.628804 76.153287 327.465178 73.095824 
C 327.301551 70.038362 326.294495 67.085092 324.556066 64.564632 
C 322.817638 62.044172 320.4148 60.053609 317.614924 58.814439 
C 314.815048 57.575269 311.725982 57.135223 308.691455 57.543266 
C 305.656929 57.951309 302.793829 59.191725 300.420742 61.126488 
C 298.047655 63.06125 296.255989 65.615835 295.245108 68.505986 
C 294.234228 71.396136 294.043071 74.510526 294.692908 77.50261 
" clip-path="url(#p1ce1554b39)" style="fill: none; opacity: 0.45; stroke: #999999; stroke-width: 0.96; stroke-linejoin: miter"/>
   </g>
   <g id="patch_54">
    <path d="M 173.855289 399.184663 
C 170.897781 398.392201 167.777808 398.433907 164.842539 399.305139 
C 161.90727 400.176372 159.269769 401.843572 157.223518 404.121226 
C 155.177267 406.398879 153.801086 409.199253 153.248106 412.210742 
C 152.695127 415.222231 152.986649 418.328834 154.090235 421.184871 
C 155.193821 424.040909 157.06696 426.536367 159.501225 428.393571 
C 161.93549 430.250775 164.837112 431.398186 167.883223 431.708129 
C 170.929333 432.018071 174.002595 431.478606 176.761041 430.149761 
C 179.519487 428.820916 181.856862 426.753878 183.51308 424.178652 
" clip-path="url(#p1ce1554b39)" style="fill: none; opacity: 0.6; stroke: #49a62d; stroke-width: 1.68; stroke-linejoin: miter"/>
   </g>
   <g id="patch_55">
    <path d="M 125.382165 265.573264 
C 123.851246 262.921634 121.615602 260.744971 118.923999 259.285477 
C 116.232396 257.825982 113.188513 257.139876 110.13105 257.303503 
C 107.073588 257.467129 104.120318 258.474185 101.599858 260.212614 
C 99.079398 261.951042 97.088835 264.35388 95.849665 267.153756 
C 94.610495 269.953633 94.170449 273.042698 94.578492 276.077225 
C 94.986535 279.111752 96.226951 281.974851 98.161713 284.347938 
C 100.096476 286.721026 102.651061 288.512691 105.541212 289.523572 
C 108.431362 290.534452 111.545752 290.725609 114.537836 290.075772 
" clip-path="url(#p1ce1554b39)" style="fill: none; opacity: 0.74; stroke: #1a6fa8; stroke-width: 2.56; stroke-linejoin: miter"/>
   </g>
   <g id="patch_56">
    <path d="M 413.224455 387.800078 
C 416.303688 387.800078 419.257218 386.576685 421.434565 384.399339 
C 423.611911 382.221992 424.835304 379.268462 424.835304 376.189229 
C 424.835304 373.109996 423.611911 370.156466 421.434565 367.979119 
C 419.257218 365.801772 416.303688 364.57838 413.224455 364.57838 
C 410.145222 364.57838 407.191692 365.801772 405.014345 367.979119 
C 402.836998 370.156466 401.613606 373.109996 401.613606 376.189229 
C 401.613606 379.268462 402.836998 382.221992 405.014345 384.399339 
C 407.191692 386.576685 410.145222 387.800078 413.224455 387.800078 
z
" clip-path="url(#p1ce1554b39)" style="fill: #ffffff; opacity: 0.22"/>
   </g>
   <g id="patch_57">
    <path d="M 147.508704 277.73701 
C 150.587937 277.73701 153.541468 276.513618 155.718814 274.336271 
C 157.896161 272.158925 159.119553 269.205394 159.119553 266.126161 
C 159.119553 263.046928 157.896161 260.093398 155.718814 257.916051 
C 153.541468 255.738705 150.587937 254.515312 147.508704 254.515312 
C 144.429471 254.515312 141.475941 255.738705 139.298594 257.916051 
C 137.121248 260.093398 135.897856 263.046928 135.897856 266.126161 
C 135.897856 269.205394 137.121248 272.158925 139.298594 274.336271 
C 141.475941 276.513618 144.429471 277.73701 147.508704 277.73701 
z
" clip-path="url(#p1ce1554b39)" style="fill: #ffffff; opacity: 0.22"/>
   </g>
   <g id="patch_58">
    <path d="M 193.09832 387.800078 
C 196.177553 387.800078 199.131083 386.576685 201.30843 384.399339 
C 203.485776 382.221992 204.709168 379.268462 204.709168 376.189229 
C 204.709168 373.109996 203.485776 370.156466 201.30843 367.979119 
C 199.131083 365.801772 196.177553 364.57838 193.09832 364.57838 
C 190.019087 364.57838 187.065556 365.801772 184.88821 367.979119 
C 182.710863 370.156466 181.487471 373.109996 181.487471 376.189229 
C 181.487471 379.268462 182.710863 382.221992 184.88821 384.399339 
C 187.065556 386.576685 190.019087 387.800078 193.09832 387.800078 
z
" clip-path="url(#p1ce1554b39)" style="fill: #ffffff; opacity: 0.22"/>
   </g>
   <g id="patch_59">
    <path d="M 303.161387 433.389693 
C 306.24062 433.389693 309.194151 432.166301 311.371497 429.988954 
C 313.548844 427.811608 314.772236 424.858077 314.772236 421.778844 
C 314.772236 418.699611 313.548844 415.746081 311.371497 413.568734 
C 309.194151 411.391388 306.24062 410.167995 303.161387 410.167995 
C 300.082154 410.167995 297.128624 411.391388 294.951277 413.568734 
C 292.773931 415.746081 291.550538 418.699611 291.550538 421.778844 
C 291.550538 424.858077 292.773931 427.811608 294.951277 429.988954 
C 297.128624 432.166301 300.082154 433.389693 303.161387 433.389693 
z
" clip-path="url(#p1ce1554b39)" style="fill: #ffffff; opacity: 0.22"/>
   </g>
   <g id="patch_60">
    <path d="M 303.161387 122.084327 
C 306.24062 122.084327 309.194151 120.860935 311.371497 118.683588 
C 313.548844 116.506242 314.772236 113.552711 314.772236 110.473478 
C 314.772236 107.394245 313.548844 104.440715 311.371497 102.263368 
C 309.194151 100.086022 306.24062 98.86263 303.161387 98.86263 
C 300.082154 98.86263 297.128624 100.086022 294.951277 102.263368 
C 292.773931 104.440715 291.550538 107.394245 291.550538 110.473478 
C 291.550538 113.552711 292.773931 116.506242 294.951277 118.683588 
C 297.128624 120.860935 300.082154 122.084327 303.161387 122.084327 
z
" clip-path="url(#p1ce1554b39)" style="fill: #ffffff; opacity: 0.22"/>
   </g>
   <g id="patch_61">
    <path d="M 458.81407 277.73701 
C 461.893303 277.73701 464.846834 276.513618 467.02418 274.336271 
C 469.201527 272.158925 470.424919 269.205394 470.424919 266.126161 
C 470.424919 263.046928 469.201527 260.093398 467.02418 257.916051 
C 464.846834 255.738705 461.893303 254.515312 458.81407 254.515312 
C 455.734837 254.515312 452.781307 255.738705 450.60396 257.916051 
C 448.426614 260.093398 447.203221 263.046928 447.203221 266.126161 
C 447.203221 269.205394 448.426614 272.158925 450.60396 274.336271 
C 452.781307 276.513618 455.734837 277.73701 458.81407 277.73701 
z
" clip-path="url(#p1ce1554b39)" style="fill: #ffffff; opacity: 0.22"/>
   </g>
   <g id="patch_62">
    <path d="M 413.224455 167.673942 
C 416.303688 167.673942 419.257218 166.45055 421.434565 164.273204 
C 423.611911 162.095857 424.835304 159.142327 424.835304 156.063094 
C 424.835304 152.983861 423.611911 150.03033 421.434565 147.852984 
C 419.257218 145.675637 416.303688 144.452245 413.224455 144.452245 
C 410.145222 144.452245 407.191692 145.675637 405.014345 147.852984 
C 402.836998 150.03033 401.613606 152.983861 401.613606 156.063094 
C 401.613606 159.142327 402.836998 162.095857 405.014345 164.273204 
C 407.191692 166.45055 410.145222 167.673942 413.224455 167.673942 
z
" clip-path="url(#p1ce1554b39)" style="fill: #ffffff; opacity: 0.22"/>
   </g>
   <g id="patch_63">
    <path d="M 193.09832 167.673942 
C 196.177553 167.673942 199.131083 166.45055 201.30843 164.273204 
C 203.485776 162.095857 204.709168 159.142327 204.709168 156.063094 
C 204.709168 152.983861 203.485776 150.03033 201.30843 147.852984 
C 199.131083 145.675637 196.177553 144.452245 193.09832 144.452245 
C 190.019087 144.452245 187.065556 145.675637 184.88821 147.852984 
C 182.710863 150.03033 181.487471 152.983861 181.487471 156.063094 
C 181.487471 159.142327 182.710863 162.095857 184.88821 164.273204 
C 187.065556 166.45055 190.019087 167.673942 193.09832 167.673942 
z
" clip-path="url(#p1ce1554b39)" style="fill: #ffffff; opacity: 0.22"/>
   </g>
   <g id="patch_64">
    <path d="M 405.146046 359.57071 
L 409.487041 345.789818 
L 416.42827 350.544711 
z
" clip-path="url(#p1ce1554b39)" style="fill: #999999; opacity: 0.45"/>
   </g>
   <g id="patch_65">
    <path d="M 306.859687 400.757195 
L 317.59223 391.084048 
L 321.161372 398.703161 
z
" clip-path="url(#p1ce1554b39)" style="fill: #999999; opacity: 0.45"/>
   </g>
   <g id="patch_66">
    <path d="M 184.011485 269.824461 
L 188.006327 255.939272 
L 195.064349 260.519009 
z
" clip-path="url(#p1ce1554b39)" style="fill: #999999; opacity: 0.45"/>
   </g>
   <g id="patch_67">
    <path d="M 227.162485 176.078555 
L 236.666548 165.196 
L 241.117732 172.33579 
z
" clip-path="url(#p1ce1554b39)" style="fill: #999999; opacity: 0.45"/>
   </g>
   <g id="patch_68">
    <path d="M 320.835886 145.507302 
L 331.115036 135.353666 
L 335.028728 142.801663 
z
" clip-path="url(#p1ce1554b39)" style="fill: #999999; opacity: 0.45"/>
   </g>
   <g id="patch_69">
    <path d="M 314.944219 400.757195 
L 323.853019 389.382199 
L 328.679465 396.273866 
z
" clip-path="url(#p1ce1554b39)" style="fill: #999999; opacity: 0.45"/>
   </g>
   <g id="patch_70">
    <path d="M 222.759333 182.858814 
L 235.347686 175.767227 
L 237.164005 183.982495 
z
" clip-path="url(#p1ce1554b39)" style="fill: #999999; opacity: 0.45"/>
   </g>
   <g id="patch_71">
    <path d="M 418.433593 192.738013 
L 427.709868 203.815375 
L 419.965949 207.104958 
z
" clip-path="url(#p1ce1554b39)" style="fill: #999999; opacity: 0.45"/>
   </g>
   <g id="patch_72">
    <path d="M 225.19797 368.11082 
L 232.815224 355.833415 
L 238.363379 362.158574 
z
" clip-path="url(#p1ce1554b39)" style="fill: #999999; opacity: 0.45"/>
   </g>
   <g id="patch_73">
    <path d="M 183.168999 281.872581 
L 196.005053 288.505298 
L 190.133654 294.531601 
z
" clip-path="url(#p1ce1554b39)" style="fill: #999999; opacity: 0.45"/>
   </g>
   <g id="patch_74">
    <path d="M 394.641422 371.654899 
L 380.859983 367.315638 
L 385.614002 360.373811 
z
" clip-path="url(#p1ce1554b39)" style="fill: #999999; opacity: 0.45"/>
   </g>
   <g id="patch_75">
    <path d="M 181.783087 285.680343 
L 188.152438 298.649098 
L 179.847705 299.998567 
z
" clip-path="url(#p1ce1554b39)" style="fill: #999999; opacity: 0.45"/>
   </g>
   <g id="patch_76">
    <path d="M 300.96802 145.507302 
L 297.530576 159.540876 
L 290.295383 155.246504 
z
" clip-path="url(#p1ce1554b39)" style="fill: #999999; opacity: 0.45"/>
   </g>
   <g id="patch_77">
    <path d="M 437.792421 269.824461 
L 424.669297 263.779558 
L 430.261901 257.493666 
z
" clip-path="url(#p1ce1554b39)" style="fill: #999999; opacity: 0.45"/>
   </g>
   <g id="patch_78">
    <path d="M 172.215698 153.954727 
L 158.314459 150.016101 
L 162.865599 142.939607 
z
" clip-path="url(#p1ce1554b39)" style="fill: #999999; opacity: 0.45"/>
   </g>
   <g id="patch_79">
    <path d="M 297.62655 91.010147 
L 290.581919 78.395457 
L 298.803898 76.609762 
z
" clip-path="url(#p1ce1554b39)" style="fill: #999999; opacity: 0.45"/>
   </g>
   <g id="patch_80">
    <path d="M 216.65786 359.57071 
L 218.926058 345.301425 
L 226.490809 348.984383 
z
" clip-path="url(#p1ce1554b39)" style="fill: #49a62d; opacity: 0.6"/>
   </g>
   <g id="patch_81">
    <path d="M 422.485112 192.808733 
L 425.992664 206.824949 
L 417.589616 206.402531 
z
" clip-path="url(#p1ce1554b39)" style="fill: #49a62d; opacity: 0.6"/>
   </g>
   <g id="patch_82">
    <path d="M 312.928021 147.18817 
L 321.10375 159.100966 
L 313.081014 161.635794 
z
" clip-path="url(#p1ce1554b39)" style="fill: #49a62d; opacity: 0.6"/>
   </g>
   <g id="patch_83">
    <path d="M 318.907807 401.599681 
L 318.716416 387.152515 
L 326.797288 389.495413 
z
" clip-path="url(#p1ce1554b39)" style="fill: #49a62d; opacity: 0.6"/>
   </g>
   <g id="patch_84">
    <path d="M 410.556267 190.919389 
L 413.569365 205.050153 
L 405.186339 204.332856 
z
" clip-path="url(#p1ce1554b39)" style="fill: #49a62d; opacity: 0.6"/>
   </g>
   <g id="patch_85">
    <path d="M 392.277733 379.386175 
L 377.998411 377.182043 
L 381.64738 369.600838 
z
" clip-path="url(#p1ce1554b39)" style="fill: #49a62d; opacity: 0.6"/>
   </g>
   <g id="patch_86">
    <path d="M 228.614641 375.437894 
L 242.458865 379.572467 
L 237.80823 386.583976 
z
" clip-path="url(#p1ce1554b39)" style="fill: #49a62d; opacity: 0.6"/>
   </g>
   <g id="patch_87">
    <path d="M 190.989953 412.552982 
L 187.051327 426.454222 
L 179.974833 421.903081 
z
" clip-path="url(#p1ce1554b39)" style="fill: #49a62d; opacity: 0.6"/>
   </g>
   <g id="patch_88">
    <path d="M 397.76875 181.283303 
L 383.422947 183.002365 
L 384.897602 174.718945 
z
" clip-path="url(#p1ce1554b39)" style="fill: #49a62d; opacity: 0.6"/>
   </g>
   <g id="patch_89">
    <path d="M 437.509758 273.866727 
L 423.072508 274.435103 
L 425.203708 266.295838 
z
" clip-path="url(#p1ce1554b39)" style="fill: #49a62d; opacity: 0.6"/>
   </g>
   <g id="patch_90">
    <path d="M 393.849291 174.212413 
L 379.729093 171.150185 
L 383.829122 163.803117 
z
" clip-path="url(#p1ce1554b39)" style="fill: #49a62d; opacity: 0.6"/>
   </g>
   <g id="patch_91">
    <path d="M 392.030667 166.335087 
L 379.226511 159.640999 
L 385.126691 153.642871 
z
" clip-path="url(#p1ce1554b39)" style="fill: #49a62d; opacity: 0.6"/>
   </g>
   <g id="patch_92">
    <path d="M 412.47312 356.15404 
L 401.373077 346.904916 
L 408.407717 342.289346 
z
" clip-path="url(#p1ce1554b39)" style="fill: #1a6fa8; opacity: 0.74"/>
   </g>
   <g id="patch_93">
    <path d="M 222.759333 364.87464 
L 234.86421 356.986093 
L 237.206484 365.067145 
z
" clip-path="url(#p1ce1554b39)" style="fill: #1a6fa8; opacity: 0.74"/>
   </g>
   <g id="patch_94">
    <path d="M 441.923183 289.258168 
L 431.039116 298.7605 
L 427.590824 291.085936 
z
" clip-path="url(#p1ce1554b39)" style="fill: #1a6fa8; opacity: 0.74"/>
   </g>
   <g id="patch_95">
    <path d="M 304.863183 146.624222 
L 310.075863 160.099578 
L 301.68502 160.718778 
z
" clip-path="url(#p1ce1554b39)" style="fill: #1a6fa8; opacity: 0.74"/>
   </g>
   <g id="patch_96">
    <path d="M 128.045373 287.14213 
L 115.430683 294.186762 
L 113.644988 285.964782 
z
" clip-path="url(#p1ce1554b39)" style="fill: #1a6fa8; opacity: 0.74"/>
   </g>
   <g id="patch_97">
    <path d="M 181.783087 262.053111 
L 188.115901 249.066476 
L 194.27694 254.796331 
z
" clip-path="url(#p1ce1554b39)" style="fill: #1a6fa8; opacity: 0.74"/>
   </g>
   <g id="patch_98">
    <path d="M 401.909866 362.009347 
L 391.249028 352.257231 
L 398.489414 347.971621 
z
" clip-path="url(#p1ce1554b39)" style="fill: #1a6fa8; opacity: 0.74"/>
   </g>
   <g id="patch_99">
    <path d="M 403.485377 186.999931 
L 393.648234 197.582362 
L 389.42072 190.307902 
z
" clip-path="url(#p1ce1554b39)" style="fill: #7b2d8b; opacity: 0.88"/>
   </g>
   <g id="patch_100">
    <path d="M 213.113781 357.606196 
L 212.593117 343.167146 
L 220.725295 345.325231 
z
" clip-path="url(#p1ce1554b39)" style="fill: #7b2d8b; opacity: 0.88"/>
   </g>
   <g id="text_3">
    <!-- NK cell -->
    <g transform="translate(443.912533 415.995432) scale(0.12 -0.12)">
     <defs>
      <path id="DejaVuSans-Bold-4b" d="M 588 4666 
L 1791 4666 
L 1791 2963 
L 3525 4666 
L 4922 4666 
L 2675 2456 
L 5153 0 
L 3647 0 
L 1791 1838 
L 1791 0 
L 588 0 
L 588 4666 
z
" transform="scale(0.015625)"/>
      <path id="DejaVuSans-Bold-63" d="M 3366 3391 
L 3366 2478 
Q 3138 2634 2908 2709 
Q 2678 2784 2431 2784 
Q 1963 2784 1702 2511 
Q 1441 2238 1441 1747 
Q 1441 1256 1702 982 
Q 1963 709 2431 709 
Q 2694 709 2930 787 
Q 3166 866 3366 1019 
L 3366 103 
Q 3103 6 2833 -42 
Q 2563 -91 2291 -91 
Q 1344 -91 809 395 
Q 275 881 275 1747 
Q 275 2613 809 3098 
Q 1344 3584 2291 3584 
Q 2566 3584 2833 3536 
Q 3100 3488 3366 3391 
z
" transform="scale(0.015625)"/>
      <path id="DejaVuSans-Bold-65" d="M 4031 1759 
L 4031 1441 
L 1416 1441 
Q 1456 1047 1700 850 
Q 1944 653 2381 653 
Q 2734 653 3104 758 
Q 3475 863 3866 1075 
L 3866 213 
Q 3469 63 3072 -14 
Q 2675 -91 2278 -91 
Q 1328 -91 801 392 
Q 275 875 275 1747 
Q 275 2603 792 3093 
Q 1309 3584 2216 3584 
Q 3041 3584 3536 3087 
Q 4031 2591 4031 1759 
z
M 2881 2131 
Q 2881 2450 2695 2645 
Q 2509 2841 2209 2841 
Q 1884 2841 1681 2658 
Q 1478 2475 1428 2131 
L 2881 2131 
z
" transform="scale(0.015625)"/>
     </defs>
     <use xlink:href="#DejaVuSans-Bold-4e"/>
     <use xlink:href="#DejaVuSans-Bold-4b" x="83.691406"/>
     <use xlink:href="#DejaVuSans-Bold-20" x="161.181641"/>
     <use xlink:href="#DejaVuSans-Bold-63" x="195.996094"/>
     <use xlink:href="#DejaVuSans-Bold-65" x="255.273438"/>
     <use xlink:href="#DejaVuSans-Bold-6c" x="323.095703"/>
     <use xlink:href="#DejaVuSans-Bold-6c" x="357.373047"/>
    </g>
   </g>
   <g id="text_4">
    <!-- Endothelial -->
    <g transform="translate(46.365962 277.177977) scale(0.12 -0.12)">
     <defs>
      <path id="DejaVuSans-Bold-45" d="M 588 4666 
L 3834 4666 
L 3834 3756 
L 1791 3756 
L 1791 2888 
L 3713 2888 
L 3713 1978 
L 1791 1978 
L 1791 909 
L 3903 909 
L 3903 0 
L 588 0 
L 588 4666 
z
" transform="scale(0.015625)"/>
      <path id="DejaVuSans-Bold-64" d="M 2919 2988 
L 2919 4863 
L 4044 4863 
L 4044 0 
L 2919 0 
L 2919 506 
Q 2688 197 2409 53 
Q 2131 -91 1766 -91 
Q 1119 -91 703 423 
Q 288 938 288 1747 
Q 288 2556 703 3070 
Q 1119 3584 1766 3584 
Q 2128 3584 2408 3439 
Q 2688 3294 2919 2988 
z
M 2181 722 
Q 2541 722 2730 984 
Q 2919 1247 2919 1747 
Q 2919 2247 2730 2509 
Q 2541 2772 2181 2772 
Q 1825 2772 1636 2509 
Q 1447 2247 1447 1747 
Q 1447 1247 1636 984 
Q 1825 722 2181 722 
z
" transform="scale(0.015625)"/>
      <path id="DejaVuSans-Bold-68" d="M 4056 2131 
L 4056 0 
L 2931 0 
L 2931 347 
L 2931 1625 
Q 2931 2084 2911 2256 
Q 2891 2428 2841 2509 
Q 2775 2619 2662 2680 
Q 2550 2741 2406 2741 
Q 2056 2741 1856 2470 
Q 1656 2200 1656 1722 
L 1656 0 
L 538 0 
L 538 4863 
L 1656 4863 
L 1656 2988 
Q 1909 3294 2193 3439 
Q 2478 3584 2822 3584 
Q 3428 3584 3742 3212 
Q 4056 2841 4056 2131 
z
" transform="scale(0.015625)"/>
     </defs>
     <use xlink:href="#DejaVuSans-Bold-45"/>
     <use xlink:href="#DejaVuSans-Bold-6e" x="68.310547"/>
     <use xlink:href="#DejaVuSans-Bold-64" x="139.501953"/>
     <use xlink:href="#DejaVuSans-Bold-6f" x="211.083984"/>
     <use xlink:href="#DejaVuSans-Bold-74" x="279.785156"/>
     <use xlink:href="#DejaVuSans-Bold-68" x="327.587891"/>
     <use xlink:href="#DejaVuSans-Bold-65" x="398.779297"/>
     <use xlink:href="#DejaVuSans-Bold-6c" x="466.601562"/>
     <use xlink:href="#DejaVuSans-Bold-69" x="500.878906"/>
     <use xlink:href="#DejaVuSans-Bold-61" x="535.15625"/>
     <use xlink:href="#DejaVuSans-Bold-6c" x="602.636719"/>
    </g>
   </g>
   <g id="text_5">
    <!-- Fibroblast -->
    <g transform="translate(109.150123 415.995432) scale(0.12 -0.12)">
     <defs>
      <path id="DejaVuSans-Bold-46" d="M 588 4666 
L 3834 4666 
L 3834 3756 
L 1791 3756 
L 1791 2888 
L 3713 2888 
L 3713 1978 
L 1791 1978 
L 1791 0 
L 588 0 
L 588 4666 
z
" transform="scale(0.015625)"/>
      <path id="DejaVuSans-Bold-62" d="M 2400 722 
Q 2759 722 2948 984 
Q 3138 1247 3138 1747 
Q 3138 2247 2948 2509 
Q 2759 2772 2400 2772 
Q 2041 2772 1848 2508 
Q 1656 2244 1656 1747 
Q 1656 1250 1848 986 
Q 2041 722 2400 722 
z
M 1656 2988 
Q 1888 3294 2169 3439 
Q 2450 3584 2816 3584 
Q 3463 3584 3878 3070 
Q 4294 2556 4294 1747 
Q 4294 938 3878 423 
Q 3463 -91 2816 -91 
Q 2450 -91 2169 54 
Q 1888 200 1656 506 
L 1656 0 
L 538 0 
L 538 4863 
L 1656 4863 
L 1656 2988 
z
" transform="scale(0.015625)"/>
      <path id="DejaVuSans-Bold-72" d="M 3138 2547 
Q 2991 2616 2845 2648 
Q 2700 2681 2553 2681 
Q 2122 2681 1889 2404 
Q 1656 2128 1656 1613 
L 1656 0 
L 538 0 
L 538 3500 
L 1656 3500 
L 1656 2925 
Q 1872 3269 2151 3426 
Q 2431 3584 2822 3584 
Q 2878 3584 2943 3579 
Q 3009 3575 3134 3559 
L 3138 2547 
z
" transform="scale(0.015625)"/>
      <path id="DejaVuSans-Bold-73" d="M 3272 3391 
L 3272 2541 
Q 2913 2691 2578 2766 
Q 2244 2841 1947 2841 
Q 1628 2841 1473 2761 
Q 1319 2681 1319 2516 
Q 1319 2381 1436 2309 
Q 1553 2238 1856 2203 
L 2053 2175 
Q 2913 2066 3209 1816 
Q 3506 1566 3506 1031 
Q 3506 472 3093 190 
Q 2681 -91 1863 -91 
Q 1516 -91 1145 -36 
Q 775 19 384 128 
L 384 978 
Q 719 816 1070 734 
Q 1422 653 1784 653 
Q 2113 653 2278 743 
Q 2444 834 2444 1013 
Q 2444 1163 2330 1236 
Q 2216 1309 1875 1350 
L 1678 1375 
Q 931 1469 631 1722 
Q 331 1975 331 2491 
Q 331 3047 712 3315 
Q 1094 3584 1881 3584 
Q 2191 3584 2531 3537 
Q 2872 3491 3272 3391 
z
" transform="scale(0.015625)"/>
     </defs>
     <use xlink:href="#DejaVuSans-Bold-46"/>
     <use xlink:href="#DejaVuSans-Bold-69" x="68.310547"/>
     <use xlink:href="#DejaVuSans-Bold-62" x="102.587891"/>
     <use xlink:href="#DejaVuSans-Bold-72" x="174.169922"/>
     <use xlink:href="#DejaVuSans-Bold-6f" x="223.486328"/>
     <use xlink:href="#DejaVuSans-Bold-62" x="292.1875"/>
     <use xlink:href="#DejaVuSans-Bold-6c" x="363.769531"/>
     <use xlink:href="#DejaVuSans-Bold-61" x="398.046875"/>
     <use xlink:href="#DejaVuSans-Bold-73" x="465.527344"/>
     <use xlink:href="#DejaVuSans-Bold-74" x="525.048828"/>
    </g>
   </g>
   <g id="text_6">
    <!-- Macrophage -->
    <g transform="translate(269.264766 471.090218) scale(0.12 -0.12)">
     <defs>
      <path id="DejaVuSans-Bold-4d" d="M 588 4666 
L 2119 4666 
L 3181 2169 
L 4250 4666 
L 5778 4666 
L 5778 0 
L 4641 0 
L 4641 3413 
L 3566 897 
L 2803 897 
L 1728 3413 
L 1728 0 
L 588 0 
L 588 4666 
z
" transform="scale(0.015625)"/>
      <path id="DejaVuSans-Bold-70" d="M 1656 506 
L 1656 -1331 
L 538 -1331 
L 538 3500 
L 1656 3500 
L 1656 2988 
Q 1888 3294 2169 3439 
Q 2450 3584 2816 3584 
Q 3463 3584 3878 3070 
Q 4294 2556 4294 1747 
Q 4294 938 3878 423 
Q 3463 -91 2816 -91 
Q 2450 -91 2169 54 
Q 1888 200 1656 506 
z
M 2400 2772 
Q 2041 2772 1848 2508 
Q 1656 2244 1656 1747 
Q 1656 1250 1848 986 
Q 2041 722 2400 722 
Q 2759 722 2948 984 
Q 3138 1247 3138 1747 
Q 3138 2247 2948 2509 
Q 2759 2772 2400 2772 
z
" transform="scale(0.015625)"/>
      <path id="DejaVuSans-Bold-67" d="M 2919 594 
Q 2688 288 2409 144 
Q 2131 0 1766 0 
Q 1125 0 706 504 
Q 288 1009 288 1791 
Q 288 2575 706 3076 
Q 1125 3578 1766 3578 
Q 2131 3578 2409 3434 
Q 2688 3291 2919 2981 
L 2919 3500 
L 4044 3500 
L 4044 353 
Q 4044 -491 3511 -936 
Q 2978 -1381 1966 -1381 
Q 1638 -1381 1331 -1331 
Q 1025 -1281 716 -1178 
L 716 -306 
Q 1009 -475 1290 -558 
Q 1572 -641 1856 -641 
Q 2406 -641 2662 -400 
Q 2919 -159 2919 353 
L 2919 594 
z
M 2181 2772 
Q 1834 2772 1640 2515 
Q 1447 2259 1447 1791 
Q 1447 1309 1634 1061 
Q 1822 813 2181 813 
Q 2531 813 2725 1069 
Q 2919 1325 2919 1791 
Q 2919 2259 2725 2515 
Q 2531 2772 2181 2772 
z
" transform="scale(0.015625)"/>
     </defs>
     <use xlink:href="#DejaVuSans-Bold-4d"/>
     <use xlink:href="#DejaVuSans-Bold-61" x="99.511719"/>
     <use xlink:href="#DejaVuSans-Bold-63" x="166.992188"/>
     <use xlink:href="#DejaVuSans-Bold-72" x="226.269531"/>
     <use xlink:href="#DejaVuSans-Bold-6f" x="275.585938"/>
     <use xlink:href="#DejaVuSans-Bold-70" x="344.287109"/>
     <use xlink:href="#DejaVuSans-Bold-68" x="415.869141"/>
     <use xlink:href="#DejaVuSans-Bold-61" x="487.060547"/>
     <use xlink:href="#DejaVuSans-Bold-67" x="554.541016"/>
     <use xlink:href="#DejaVuSans-Bold-65" x="626.123047"/>
    </g>
   </g>
   <g id="text_7">
    <!-- B cell -->
    <g transform="translate(292.499766 83.265736) scale(0.12 -0.12)">
     <defs>
      <path id="DejaVuSans-Bold-42" d="M 2456 2859 
Q 2741 2859 2887 2984 
Q 3034 3109 3034 3353 
Q 3034 3594 2887 3720 
Q 2741 3847 2456 3847 
L 1791 3847 
L 1791 2859 
L 2456 2859 
z
M 2497 819 
Q 2859 819 3042 972 
Q 3225 1125 3225 1434 
Q 3225 1738 3044 1889 
Q 2863 2041 2497 2041 
L 1791 2041 
L 1791 819 
L 2497 819 
z
M 3616 2497 
Q 4003 2384 4215 2081 
Q 4428 1778 4428 1338 
Q 4428 663 3972 331 
Q 3516 0 2584 0 
L 588 0 
L 588 4666 
L 2394 4666 
Q 3366 4666 3802 4372 
Q 4238 4078 4238 3431 
Q 4238 3091 4078 2852 
Q 3919 2613 3616 2497 
z
" transform="scale(0.015625)"/>
     </defs>
     <use xlink:href="#DejaVuSans-Bold-42"/>
     <use xlink:href="#DejaVuSans-Bold-20" x="76.220703"/>
     <use xlink:href="#DejaVuSans-Bold-63" x="111.035156"/>
     <use xlink:href="#DejaVuSans-Bold-65" x="170.3125"/>
     <use xlink:href="#DejaVuSans-Bold-6c" x="238.134766"/>
     <use xlink:href="#DejaVuSans-Bold-6c" x="272.412109"/>
    </g>
   </g>
   <g id="text_8">
    <!-- Neutrophil -->
    <g transform="translate(499.007319 277.177977) scale(0.12 -0.12)">
     <use xlink:href="#DejaVuSans-Bold-4e"/>
     <use xlink:href="#DejaVuSans-Bold-65" x="83.691406"/>
     <use xlink:href="#DejaVuSans-Bold-75" x="151.513672"/>
     <use xlink:href="#DejaVuSans-Bold-74" x="222.705078"/>
     <use xlink:href="#DejaVuSans-Bold-72" x="270.507812"/>
     <use xlink:href="#DejaVuSans-Bold-6f" x="319.824219"/>
     <use xlink:href="#DejaVuSans-Bold-70" x="388.525391"/>
     <use xlink:href="#DejaVuSans-Bold-68" x="460.107422"/>
     <use xlink:href="#DejaVuSans-Bold-69" x="531.298828"/>
     <use xlink:href="#DejaVuSans-Bold-6c" x="565.576172"/>
    </g>
   </g>
   <g id="text_9">
    <!-- T cell -->
    <g transform="translate(443.912533 138.360522) scale(0.12 -0.12)">
     <defs>
      <path id="DejaVuSans-Bold-54" d="M 31 4666 
L 4331 4666 
L 4331 3756 
L 2784 3756 
L 2784 0 
L 1581 0 
L 1581 3756 
L 31 3756 
L 31 4666 
z
" transform="scale(0.015625)"/>
     </defs>
     <use xlink:href="#DejaVuSans-Bold-54"/>
     <use xlink:href="#DejaVuSans-Bold-20" x="68.212891"/>
     <use xlink:href="#DejaVuSans-Bold-63" x="103.027344"/>
     <use xlink:href="#DejaVuSans-Bold-65" x="162.304688"/>
     <use xlink:href="#DejaVuSans-Bold-6c" x="230.126953"/>
     <use xlink:href="#DejaVuSans-Bold-6c" x="264.404297"/>
    </g>
   </g>
   <g id="text_10">
    <!-- Dendritic -->
    <g transform="translate(115.663873 138.360522) scale(0.12 -0.12)">
     <defs>
      <path id="DejaVuSans-Bold-44" d="M 1791 3756 
L 1791 909 
L 2222 909 
Q 2959 909 3348 1275 
Q 3738 1641 3738 2338 
Q 3738 3031 3350 3393 
Q 2963 3756 2222 3756 
L 1791 3756 
z
M 588 4666 
L 1856 4666 
Q 2919 4666 3439 4514 
Q 3959 4363 4331 4000 
Q 4659 3684 4818 3271 
Q 4978 2859 4978 2338 
Q 4978 1809 4818 1395 
Q 4659 981 4331 666 
Q 3956 303 3431 151 
Q 2906 0 1856 0 
L 588 0 
L 588 4666 
z
" transform="scale(0.015625)"/>
     </defs>
     <use xlink:href="#DejaVuSans-Bold-44"/>
     <use xlink:href="#DejaVuSans-Bold-65" x="83.007812"/>
     <use xlink:href="#DejaVuSans-Bold-6e" x="150.830078"/>
     <use xlink:href="#DejaVuSans-Bold-64" x="222.021484"/>
     <use xlink:href="#DejaVuSans-Bold-72" x="293.603516"/>
     <use xlink:href="#DejaVuSans-Bold-69" x="342.919922"/>
     <use xlink:href="#DejaVuSans-Bold-74" x="377.197266"/>
     <use xlink:href="#DejaVuSans-Bold-69" x="425"/>
     <use xlink:href="#DejaVuSans-Bold-63" x="459.277344"/>
    </g>
   </g>
  </g>
  <g id="legend_1">
   <g id="patch_101">
    <path d="M 13.2 514.590008 
L 43.2 514.590008 
L 43.2 504.090008 
L 13.2 504.090008 
z
" style="fill: #4ecdc4; stroke: #4ecdc4; stroke-linejoin: miter"/>
   </g>
   <g id="text_11">
    <!-- B cell -->
    <g transform="translate(55.2 514.590008) scale(0.15 -0.15)">
     <defs>
      <path id="DejaVuSans-42" d="M 1259 2228 
L 1259 519 
L 2272 519 
Q 2781 519 3026 730 
Q 3272 941 3272 1375 
Q 3272 1813 3026 2020 
Q 2781 2228 2272 2228 
L 1259 2228 
z
M 1259 4147 
L 1259 2741 
L 2194 2741 
Q 2656 2741 2882 2914 
Q 3109 3088 3109 3444 
Q 3109 3797 2882 3972 
Q 2656 4147 2194 4147 
L 1259 4147 
z
M 628 4666 
L 2241 4666 
Q 2963 4666 3353 4366 
Q 3744 4066 3744 3513 
Q 3744 3084 3544 2831 
Q 3344 2578 2956 2516 
Q 3422 2416 3680 2098 
Q 3938 1781 3938 1306 
Q 3938 681 3513 340 
Q 3088 0 2303 0 
L 628 0 
L 628 4666 
z
" transform="scale(0.015625)"/>
      <path id="DejaVuSans-6c" d="M 603 4863 
L 1178 4863 
L 1178 0 
L 603 0 
L 603 4863 
z
" transform="scale(0.015625)"/>
     </defs>
     <use xlink:href="#DejaVuSans-42"/>
     <use xlink:href="#DejaVuSans-20" x="68.603516"/>
     <use xlink:href="#DejaVuSans-63" x="100.390625"/>
     <use xlink:href="#DejaVuSans-65" x="155.371094"/>
     <use xlink:href="#DejaVuSans-6c" x="216.894531"/>
     <use xlink:href="#DejaVuSans-6c" x="244.677734"/>
    </g>
   </g>
   <g id="patch_102">
    <path d="M 13.2 536.607196 
L 43.2 536.607196 
L 43.2 526.107196 
L 13.2 526.107196 
z
" style="fill: #ffa07a; stroke: #ffa07a; stroke-linejoin: miter"/>
   </g>
   <g id="text_12">
    <!-- Dendritic -->
    <g transform="translate(55.2 536.607196) scale(0.15 -0.15)">
     <defs>
      <path id="DejaVuSans-44" d="M 1259 4147 
L 1259 519 
L 2022 519 
Q 2988 519 3436 956 
Q 3884 1394 3884 2338 
Q 3884 3275 3436 3711 
Q 2988 4147 2022 4147 
L 1259 4147 
z
M 628 4666 
L 1925 4666 
Q 3281 4666 3915 4102 
Q 4550 3538 4550 2338 
Q 4550 1131 3912 565 
Q 3275 0 1925 0 
L 628 0 
L 628 4666 
z
" transform="scale(0.015625)"/>
     </defs>
     <use xlink:href="#DejaVuSans-44"/>
     <use xlink:href="#DejaVuSans-65" x="77.001953"/>
     <use xlink:href="#DejaVuSans-6e" x="138.525391"/>
     <use xlink:href="#DejaVuSans-64" x="201.904297"/>
     <use xlink:href="#DejaVuSans-72" x="265.380859"/>
     <use xlink:href="#DejaVuSans-69" x="306.494141"/>
     <use xlink:href="#DejaVuSans-74" x="334.277344"/>
     <use xlink:href="#DejaVuSans-69" x="373.486328"/>
     <use xlink:href="#DejaVuSans-63" x="401.269531"/>
    </g>
   </g>
   <g id="patch_103">
    <path d="M 153.6375 514.590008 
L 183.6375 514.590008 
L 183.6375 504.090008 
L 153.6375 504.090008 
z
" style="fill: #beaed4; stroke: #beaed4; stroke-linejoin: miter"/>
   </g>
   <g id="text_13">
    <!-- Endothelial -->
    <g transform="translate(195.6375 514.590008) scale(0.15 -0.15)">
     <defs>
      <path id="DejaVuSans-45" d="M 628 4666 
L 3578 4666 
L 3578 4134 
L 1259 4134 
L 1259 2753 
L 3481 2753 
L 3481 2222 
L 1259 2222 
L 1259 531 
L 3634 531 
L 3634 0 
L 628 0 
L 628 4666 
z
" transform="scale(0.015625)"/>
      <path id="DejaVuSans-68" d="M 3513 2113 
L 3513 0 
L 2938 0 
L 2938 2094 
Q 2938 2591 2744 2837 
Q 2550 3084 2163 3084 
Q 1697 3084 1428 2787 
Q 1159 2491 1159 1978 
L 1159 0 
L 581 0 
L 581 4863 
L 1159 4863 
L 1159 2956 
Q 1366 3272 1645 3428 
Q 1925 3584 2291 3584 
Q 2894 3584 3203 3211 
Q 3513 2838 3513 2113 
z
" transform="scale(0.015625)"/>
     </defs>
     <use xlink:href="#DejaVuSans-45"/>
     <use xlink:href="#DejaVuSans-6e" x="63.183594"/>
     <use xlink:href="#DejaVuSans-64" x="126.5625"/>
     <use xlink:href="#DejaVuSans-6f" x="190.039062"/>
     <use xlink:href="#DejaVuSans-74" x="251.220703"/>
     <use xlink:href="#DejaVuSans-68" x="290.429688"/>
     <use xlink:href="#DejaVuSans-65" x="353.808594"/>
     <use xlink:href="#DejaVuSans-6c" x="415.332031"/>
     <use xlink:href="#DejaVuSans-69" x="443.115234"/>
     <use xlink:href="#DejaVuSans-61" x="470.898438"/>
     <use xlink:href="#DejaVuSans-6c" x="532.177734"/>
    </g>
   </g>
   <g id="patch_104">
    <path d="M 153.6375 536.607196 
L 183.6375 536.607196 
L 183.6375 526.107196 
L 153.6375 526.107196 
z
" style="fill: #7fc97f; stroke: #7fc97f; stroke-linejoin: miter"/>
   </g>
   <g id="text_14">
    <!-- Fibroblast -->
    <g transform="translate(195.6375 536.607196) scale(0.15 -0.15)">
     <defs>
      <path id="DejaVuSans-46" d="M 628 4666 
L 3309 4666 
L 3309 4134 
L 1259 4134 
L 1259 2759 
L 3109 2759 
L 3109 2228 
L 1259 2228 
L 1259 0 
L 628 0 
L 628 4666 
z
" transform="scale(0.015625)"/>
      <path id="DejaVuSans-62" d="M 3116 1747 
Q 3116 2381 2855 2742 
Q 2594 3103 2138 3103 
Q 1681 3103 1420 2742 
Q 1159 2381 1159 1747 
Q 1159 1113 1420 752 
Q 1681 391 2138 391 
Q 2594 391 2855 752 
Q 3116 1113 3116 1747 
z
M 1159 2969 
Q 1341 3281 1617 3432 
Q 1894 3584 2278 3584 
Q 2916 3584 3314 3078 
Q 3713 2572 3713 1747 
Q 3713 922 3314 415 
Q 2916 -91 2278 -91 
Q 1894 -91 1617 61 
Q 1341 213 1159 525 
L 1159 0 
L 581 0 
L 581 4863 
L 1159 4863 
L 1159 2969 
z
" transform="scale(0.015625)"/>
     </defs>
     <use xlink:href="#DejaVuSans-46"/>
     <use xlink:href="#DejaVuSans-69" x="50.269531"/>
     <use xlink:href="#DejaVuSans-62" x="78.052734"/>
     <use xlink:href="#DejaVuSans-72" x="141.529297"/>
     <use xlink:href="#DejaVuSans-6f" x="180.392578"/>
     <use xlink:href="#DejaVuSans-62" x="241.574219"/>
     <use xlink:href="#DejaVuSans-6c" x="305.050781"/>
     <use xlink:href="#DejaVuSans-61" x="332.833984"/>
     <use xlink:href="#DejaVuSans-73" x="394.113281"/>
     <use xlink:href="#DejaVuSans-74" x="446.212891"/>
    </g>
   </g>
   <g id="patch_105">
    <path d="M 309.632812 514.590008 
L 339.632812 514.590008 
L 339.632812 504.090008 
L 309.632812 504.090008 
z
" style="fill: #911eb4; stroke: #911eb4; stroke-linejoin: miter"/>
   </g>
   <g id="text_15">
    <!-- Macrophage -->
    <g transform="translate(351.632812 514.590008) scale(0.15 -0.15)">
     <defs>
      <path id="DejaVuSans-4d" d="M 628 4666 
L 1569 4666 
L 2759 1491 
L 3956 4666 
L 4897 4666 
L 4897 0 
L 4281 0 
L 4281 4097 
L 3078 897 
L 2444 897 
L 1241 4097 
L 1241 0 
L 628 0 
L 628 4666 
z
" transform="scale(0.015625)"/>
      <path id="DejaVuSans-70" d="M 1159 525 
L 1159 -1331 
L 581 -1331 
L 581 3500 
L 1159 3500 
L 1159 2969 
Q 1341 3281 1617 3432 
Q 1894 3584 2278 3584 
Q 2916 3584 3314 3078 
Q 3713 2572 3713 1747 
Q 3713 922 3314 415 
Q 2916 -91 2278 -91 
Q 1894 -91 1617 61 
Q 1341 213 1159 525 
z
M 3116 1747 
Q 3116 2381 2855 2742 
Q 2594 3103 2138 3103 
Q 1681 3103 1420 2742 
Q 1159 2381 1159 1747 
Q 1159 1113 1420 752 
Q 1681 391 2138 391 
Q 2594 391 2855 752 
Q 3116 1113 3116 1747 
z
" transform="scale(0.015625)"/>
      <path id="DejaVuSans-67" d="M 2906 1791 
Q 2906 2416 2648 2759 
Q 2391 3103 1925 3103 
Q 1463 3103 1205 2759 
Q 947 2416 947 1791 
Q 947 1169 1205 825 
Q 1463 481 1925 481 
Q 2391 481 2648 825 
Q 2906 1169 2906 1791 
z
M 3481 434 
Q 3481 -459 3084 -895 
Q 2688 -1331 1869 -1331 
Q 1566 -1331 1297 -1286 
Q 1028 -1241 775 -1147 
L 775 -588 
Q 1028 -725 1275 -790 
Q 1522 -856 1778 -856 
Q 2344 -856 2625 -561 
Q 2906 -266 2906 331 
L 2906 616 
Q 2728 306 2450 153 
Q 2172 0 1784 0 
Q 1141 0 747 490 
Q 353 981 353 1791 
Q 353 2603 747 3093 
Q 1141 3584 1784 3584 
Q 2172 3584 2450 3431 
Q 2728 3278 2906 2969 
L 2906 3500 
L 3481 3500 
L 3481 434 
z
" transform="scale(0.015625)"/>
     </defs>
     <use xlink:href="#DejaVuSans-4d"/>
     <use xlink:href="#DejaVuSans-61" x="86.279297"/>
     <use xlink:href="#DejaVuSans-63" x="147.558594"/>
     <use xlink:href="#DejaVuSans-72" x="202.539062"/>
     <use xlink:href="#DejaVuSans-6f" x="241.402344"/>
     <use xlink:href="#DejaVuSans-70" x="302.583984"/>
     <use xlink:href="#DejaVuSans-68" x="366.060547"/>
     <use xlink:href="#DejaVuSans-61" x="429.439453"/>
     <use xlink:href="#DejaVuSans-67" x="490.71875"/>
     <use xlink:href="#DejaVuSans-65" x="554.195312"/>
    </g>
   </g>
   <g id="patch_106">
    <path d="M 309.632812 536.607196 
L 339.632812 536.607196 
L 339.632812 526.107196 
L 309.632812 526.107196 
z
" style="fill: #45b7d1; stroke: #45b7d1; stroke-linejoin: miter"/>
   </g>
   <g id="text_16">
    <!-- NK cell -->
    <g transform="translate(351.632812 536.607196) scale(0.15 -0.15)">
     <defs>
      <path id="DejaVuSans-4e" d="M 628 4666 
L 1478 4666 
L 3547 763 
L 3547 4666 
L 4159 4666 
L 4159 0 
L 3309 0 
L 1241 3903 
L 1241 0 
L 628 0 
L 628 4666 
z
" transform="scale(0.015625)"/>
      <path id="DejaVuSans-4b" d="M 628 4666 
L 1259 4666 
L 1259 2694 
L 3353 4666 
L 4166 4666 
L 1850 2491 
L 4331 0 
L 3500 0 
L 1259 2247 
L 1259 0 
L 628 0 
L 628 4666 
z
" transform="scale(0.015625)"/>
     </defs>
     <use xlink:href="#DejaVuSans-4e"/>
     <use xlink:href="#DejaVuSans-4b" x="74.804688"/>
     <use xlink:href="#DejaVuSans-20" x="140.380859"/>
     <use xlink:href="#DejaVuSans-63" x="172.167969"/>
     <use xlink:href="#DejaVuSans-65" x="227.148438"/>
     <use xlink:href="#DejaVuSans-6c" x="288.671875"/>
     <use xlink:href="#DejaVuSans-6c" x="316.455078"/>
    </g>
   </g>
   <g id="patch_107">
    <path d="M 473.995313 514.590008 
L 503.995313 514.590008 
L 503.995313 504.090008 
L 473.995313 504.090008 
z
" style="fill: #fdc086; stroke: #fdc086; stroke-linejoin: miter"/>
   </g>
   <g id="text_17">
    <!-- Neutrophil -->
    <g transform="translate(515.995312 514.590008) scale(0.15 -0.15)">
     <defs>
      <path id="DejaVuSans-75" d="M 544 1381 
L 544 3500 
L 1119 3500 
L 1119 1403 
Q 1119 906 1312 657 
Q 1506 409 1894 409 
Q 2359 409 2629 706 
Q 2900 1003 2900 1516 
L 2900 3500 
L 3475 3500 
L 3475 0 
L 2900 0 
L 2900 538 
Q 2691 219 2414 64 
Q 2138 -91 1772 -91 
Q 1169 -91 856 284 
Q 544 659 544 1381 
z
M 1991 3584 
L 1991 3584 
z
" transform="scale(0.015625)"/>
     </defs>
     <use xlink:href="#DejaVuSans-4e"/>
     <use xlink:href="#DejaVuSans-65" x="74.804688"/>
     <use xlink:href="#DejaVuSans-75" x="136.328125"/>
     <use xlink:href="#DejaVuSans-74" x="199.707031"/>
     <use xlink:href="#DejaVuSans-72" x="238.916016"/>
     <use xlink:href="#DejaVuSans-6f" x="277.779297"/>
     <use xlink:href="#DejaVuSans-70" x="338.960938"/>
     <use xlink:href="#DejaVuSans-68" x="402.4375"/>
     <use xlink:href="#DejaVuSans-69" x="465.816406"/>
     <use xlink:href="#DejaVuSans-6c" x="493.599609"/>
    </g>
   </g>
   <g id="patch_108">
    <path d="M 473.995313 536.607196 
L 503.995313 536.607196 
L 503.995313 526.107196 
L 473.995313 526.107196 
z
" style="fill: #ff6b6b; stroke: #ff6b6b; stroke-linejoin: miter"/>
   </g>
   <g id="text_18">
    <!-- T cell -->
    <g transform="translate(515.995312 536.607196) scale(0.15 -0.15)">
     <defs>
      <path id="DejaVuSans-54" d="M -19 4666 
L 3928 4666 
L 3928 4134 
L 2272 4134 
L 2272 0 
L 1638 0 
L 1638 4134 
L -19 4134 
L -19 4666 
z
" transform="scale(0.015625)"/>
     </defs>
     <use xlink:href="#DejaVuSans-54"/>
     <use xlink:href="#DejaVuSans-20" x="61.083984"/>
     <use xlink:href="#DejaVuSans-63" x="92.871094"/>
     <use xlink:href="#DejaVuSans-65" x="147.851562"/>
     <use xlink:href="#DejaVuSans-6c" x="209.375"/>
     <use xlink:href="#DejaVuSans-6c" x="237.158203"/>
    </g>
   </g>
  </g>
 </g>
 <defs>
  <clipPath id="p1ce1554b39">
   <rect x="89.141953" y="52.106727" width="443.52" height="443.52"/>
  </clipPath>
 </defs>
</svg>
