<?xml version="1.0" encoding="utf-8" standalone="no"?>
<!DOCTYPE svg PUBLIC "-//W3C//DTD SVG 1.1//EN"
  "http://www.w3.org/Graphics/SVG/1.1/DTD/svg11.dtd">
<svg xmlns:xlink="http://www.w3.org/1999/xlink" width="457.92pt" height="488.860678pt" viewBox="0 0 457.92 488.860678" xmlns="http://www.w3.org/2000/svg" version="1.1">
 <metadata>
  <rdf:RDF xmlns:dc="http://purl.org/dc/elements/1.1/" xmlns:cc="http://creativecommons.org/ns#" xmlns:rdf="http://www.w3.org/1999/02/22-rdf-syntax-ns#">
   <cc:Work>
    <dc:type rdf:resource="http://purl.org/dc/dcmitype/StillImage"/>
    <dc:date>2026-05-01T11:04:15.277420</dc:date>
    <dc:format>image/svg+xml</dc:format>
    <dc:creator>
     <cc:Agent>
      <dc:title>Matplotlib v3.10.7+dfsg1, https://matplotlib.org/</dc:title>
     </cc:Agent>
    </dc:creator>
   </cc:Work>
  </rdf:RDF>
 </metadata>
 <defs>
  <style type="text/css">*{stroke-linejoin: round; stroke-linecap: butt}</style>
 </defs>
 <g id="figure_1">
  <g id="patch_1">
   <path d="M 0 488.860678 
L 457.92 488.860678 
L 457.92 0 
L 0 0 
z
" style="fill: #ffffff"/>
  </g>
  <g id="axes_1">
   <g id="patch_2">
    <path d="M 228.96 407.770727 
C 268.175595 407.770727 305.790301 392.190206 333.519914 364.460593 
C 361.249528 336.730979 376.830049 299.116274 376.830049 259.900678 
C 376.830049 220.685083 361.249528 183.070378 333.519914 155.340764 
C 305.790301 127.611151 268.175595 112.03063 228.96 112.03063 
C 189.744405 112.03063 152.129699 127.611151 124.400086 155.340764 
C 96.670472 183.070378 81.089951 220.685083 81.089951 259.900678 
C 81.089951 299.116274 96.670472 336.730979 124.400086 364.460593 
C 152.129699 392.190206 189.744405 407.770727 228.96 407.770727 
z
" clip-path="url(#p0a8161f2a9)" style="fill: #f0f4fa; stroke: #f0f4fa; stroke-linejoin: miter"/>
   </g>
   <g id="patch_3">
    <path d="M 118.101989 168.251898 
Q 154.441682 132.18 190.467343 122.393892 
" clip-path="url(#p0a8161f2a9)" style="fill: none; opacity: 0.88; stroke: #7b2d8b; stroke-width: 3.6; stroke-linejoin: miter"/>
   </g>
   <g id="patch_4">
    <path d="M 252.901167 118.070434 
Q 302.310192 131.505583 328.798042 157.811666 
" clip-path="url(#p0a8161f2a9)" style="fill: none; opacity: 0.6; stroke: #49a62d; stroke-width: 1.68; stroke-linejoin: miter"/>
   </g>
   <g id="patch_5">
    <path d="M 118.101989 351.549459 
Q 170.293354 360.114289 195.047904 390.337531 
" clip-path="url(#p0a8161f2a9)" style="fill: none; opacity: 0.45; stroke: #999999; stroke-width: 0.96; stroke-linejoin: miter"/>
   </g>
   <g id="patch_6">
    <path d="M 364.840934 366.453654 
C 372.172441 366.453654 379.204656 363.540815 384.388814 358.356657 
C 389.572973 353.172498 392.485812 346.140283 392.485812 338.808776 
C 392.485812 331.477269 389.572973 324.445054 384.388814 319.260895 
C 379.204656 314.076737 372.172441 311.163898 364.840934 311.163898 
C 357.509426 311.163898 350.477212 314.076737 345.293053 319.260895 
C 340.108894 324.445054 337.196056 331.477269 337.196056 338.808776 
C 337.196056 346.140283 340.108894 353.172498 345.293053 358.356657 
C 350.477212 363.540815 357.509426 366.453654 364.840934 366.453654 
z
" clip-path="url(#p0a8161f2a9)" style="fill-opacity: 0.133333"/>
   </g>
   <g id="patch_7">
    <path d="M 95.242579 210.800971 
C 102.574086 210.800971 109.606301 207.888132 114.790459 202.703974 
C 119.974618 197.519815 122.887457 190.4876 122.887457 183.156093 
C 122.887457 175.824586 119.974618 168.792371 114.790459 163.608212 
C 109.606301 158.424054 102.574086 155.511215 95.242579 155.511215 
C 87.911071 155.511215 80.878856 158.424054 75.694698 163.608212 
C 70.510539 168.792371 67.5977 175.824586 67.5977 183.156093 
C 67.5977 190.4876 70.510539 197.519815 75.694698 202.703974 
C 80.878856 207.888132 87.911071 210.800971 95.242579 210.800971 
z
" clip-path="url(#p0a8161f2a9)" style="fill-opacity: 0.133333"/>
   </g>
   <g id="patch_8">
    <path d="M 230.041756 132.97463 
C 237.373263 132.97463 244.405478 130.061791 249.589637 124.877632 
C 254.773795 119.693474 257.686634 112.661259 257.686634 105.329752 
C 257.686634 97.998244 254.773795 90.966029 249.589637 85.781871 
C 244.405478 80.597712 237.373263 77.684873 230.041756 77.684873 
C 222.710249 77.684873 215.678034 80.597712 210.493875 85.781871 
C 205.309717 90.966029 202.396878 97.998244 202.396878 105.329752 
C 202.396878 112.661259 205.309717 119.693474 210.493875 124.877632 
C 215.678034 130.061791 222.710249 132.97463 230.041756 132.97463 
z
" clip-path="url(#p0a8161f2a9)" style="fill-opacity: 0.133333"/>
   </g>
   <g id="patch_9">
    <path d="M 364.840934 210.800971 
C 372.172441 210.800971 379.204656 207.888132 384.388814 202.703974 
C 389.572973 197.519815 392.485812 190.4876 392.485812 183.156093 
C 392.485812 175.824586 389.572973 168.792371 384.388814 163.608212 
C 379.204656 158.424054 372.172441 155.511215 364.840934 155.511215 
C 357.509426 155.511215 350.477212 158.424054 345.293053 163.608212 
C 340.108894 168.792371 337.196056 175.824586 337.196056 183.156093 
C 337.196056 190.4876 340.108894 197.519815 345.293053 202.703974 
C 350.477212 207.888132 357.509426 210.800971 364.840934 210.800971 
z
" clip-path="url(#p0a8161f2a9)" style="fill-opacity: 0.133333"/>
   </g>
   <g id="patch_10">
    <path d="M 95.242579 366.453654 
C 102.574086 366.453654 109.606301 363.540815 114.790459 358.356657 
C 119.974618 353.172498 122.887457 346.140283 122.887457 338.808776 
C 122.887457 331.477269 119.974618 324.445054 114.790459 319.260895 
C 109.606301 314.076737 102.574086 311.163898 95.242579 311.163898 
C 87.911071 311.163898 80.878856 314.076737 75.694698 319.260895 
C 70.510539 324.445054 67.5977 331.477269 67.5977 338.808776 
C 67.5977 346.140283 70.510539 353.172498 75.694698 358.356657 
C 80.878856 363.540815 87.911071 366.453654 95.242579 366.453654 
z
" clip-path="url(#p0a8161f2a9)" style="fill-opacity: 0.133333"/>
   </g>
   <g id="patch_11">
    <path d="M 230.041756 444.279995 
C 237.373263 444.279995 244.405478 441.367157 249.589637 436.182998 
C 254.773795 430.99884 257.686634 423.966625 257.686634 416.635117 
C 257.686634 409.30361 254.773795 402.271395 249.589637 397.087237 
C 244.405478 391.903078 237.373263 388.990239 230.041756 388.990239 
C 222.710249 388.990239 215.678034 391.903078 210.493875 397.087237 
C 205.309717 402.271395 202.396878 409.30361 202.396878 416.635117 
C 202.396878 423.966625 205.309717 430.99884 210.493875 436.182998 
C 215.678034 441.367157 222.710249 444.279995 230.041756 444.279995 
z
" clip-path="url(#p0a8161f2a9)" style="fill-opacity: 0.133333"/>
   </g>
   <g id="patch_12">
    <path d="M 363.759178 365.371898 
C 371.090685 365.371898 378.1229 362.459059 383.307058 357.274901 
C 388.491217 352.090742 391.404056 345.058527 391.404056 337.72702 
C 391.404056 330.395512 388.491217 323.363298 383.307058 318.179139 
C 378.1229 312.994981 371.090685 310.082142 363.759178 310.082142 
C 356.42767 310.082142 349.395455 312.994981 344.211297 318.179139 
C 339.027138 323.363298 336.1143 330.395512 336.1143 337.72702 
C 336.1143 345.058527 339.027138 352.090742 344.211297 357.274901 
C 349.395455 362.459059 356.42767 365.371898 363.759178 365.371898 
z
" clip-path="url(#p0a8161f2a9)" style="fill: #8e44ad; stroke: #ffffff; stroke-width: 2.8; stroke-linejoin: miter"/>
   </g>
   <g id="patch_13">
    <path d="M 94.160822 209.719215 
C 101.49233 209.719215 108.524545 206.806376 113.708703 201.622218 
C 118.892862 196.438059 121.8057 189.405844 121.8057 182.074337 
C 121.8057 174.74283 118.892862 167.710615 113.708703 162.526456 
C 108.524545 157.342298 101.49233 154.429459 94.160822 154.429459 
C 86.829315 154.429459 79.7971 157.342298 74.612942 162.526456 
C 69.428783 167.710615 66.515944 174.74283 66.515944 182.074337 
C 66.515944 189.405844 69.428783 196.438059 74.612942 201.622218 
C 79.7971 206.806376 86.829315 209.719215 94.160822 209.719215 
z
" clip-path="url(#p0a8161f2a9)" style="fill: #2980b9; stroke: #ffffff; stroke-width: 2.8; stroke-linejoin: miter"/>
   </g>
   <g id="patch_14">
    <path d="M 228.96 131.892873 
C 236.291507 131.892873 243.323722 128.980035 248.507881 123.795876 
C 253.692039 118.611718 256.604878 111.579503 256.604878 104.247995 
C 256.604878 96.916488 253.692039 89.884273 248.507881 84.700115 
C 243.323722 79.515956 236.291507 76.603117 228.96 76.603117 
C 221.628493 76.603117 214.596278 79.515956 209.412119 84.700115 
C 204.227961 89.884273 201.315122 96.916488 201.315122 104.247995 
C 201.315122 111.579503 204.227961 118.611718 209.412119 123.795876 
C 214.596278 128.980035 221.628493 131.892873 228.96 131.892873 
z
" clip-path="url(#p0a8161f2a9)" style="fill: #27ae60; stroke: #ffffff; stroke-width: 2.8; stroke-linejoin: miter"/>
   </g>
   <g id="patch_15">
    <path d="M 363.759178 209.719215 
C 371.090685 209.719215 378.1229 206.806376 383.307058 201.622218 
C 388.491217 196.438059 391.404056 189.405844 391.404056 182.074337 
C 391.404056 174.74283 388.491217 167.710615 383.307058 162.526456 
C 378.1229 157.342298 371.090685 154.429459 363.759178 154.429459 
C 356.42767 154.429459 349.395455 157.342298 344.211297 162.526456 
C 339.027138 167.710615 336.1143 174.74283 336.1143 182.074337 
C 336.1143 189.405844 339.027138 196.438059 344.211297 201.622218 
C 349.395455 206.806376 356.42767 209.719215 363.759178 209.719215 
z
" clip-path="url(#p0a8161f2a9)" style="fill: #f39c12; stroke: #ffffff; stroke-width: 2.8; stroke-linejoin: miter"/>
   </g>
   <g id="patch_16">
    <path d="M 94.160822 365.371898 
C 101.49233 365.371898 108.524545 362.459059 113.708703 357.274901 
C 118.892862 352.090742 121.8057 345.058527 121.8057 337.72702 
C 121.8057 330.395512 118.892862 323.363298 113.708703 318.179139 
C 108.524545 312.994981 101.49233 310.082142 94.160822 310.082142 
C 86.829315 310.082142 79.7971 312.994981 74.612942 318.179139 
C 69.428783 323.363298 66.515944 330.395512 66.515944 337.72702 
C 66.515944 345.058527 69.428783 352.090742 74.612942 357.274901 
C 79.7971 362.459059 86.829315 365.371898 94.160822 365.371898 
z
" clip-path="url(#p0a8161f2a9)" style="fill: #e74c3c; stroke: #ffffff; stroke-width: 2.8; stroke-linejoin: miter"/>
   </g>
   <g id="patch_17">
    <path d="M 228.96 443.198239 
C 236.291507 443.198239 243.323722 440.285401 248.507881 435.101242 
C 253.692039 429.917083 256.604878 422.884869 256.604878 415.553361 
C 256.604878 408.221854 253.692039 401.189639 248.507881 396.005481 
C 243.323722 390.821322 236.291507 387.908483 228.96 387.908483 
C 221.628493 387.908483 214.596278 390.821322 209.412119 396.005481 
C 204.227961 401.189639 201.315122 408.221854 201.315122 415.553361 
C 201.315122 422.884869 204.227961 429.917083 209.412119 435.101242 
C 214.596278 440.285401 221.628493 443.198239 228.96 443.198239 
z
" clip-path="url(#p0a8161f2a9)" style="fill: #16a085; stroke: #ffffff; stroke-width: 2.8; stroke-linejoin: miter"/>
   </g>
   <g id="text_1">
    <!-- High-throughput pipeline paths (weight ≥ 7) -->
    <g transform="translate(90.05082 46.795703) scale(0.125 -0.125)">
     <defs>
      <path id="DejaVuSans-48" d="M 628 4666 
L 1259 4666 
L 1259 2753 
L 3553 2753 
L 3553 4666 
L 4184 4666 
L 4184 0 
L 3553 0 
L 3553 2222 
L 1259 2222 
L 1259 0 
L 628 0 
L 628 4666 
z
" transform="scale(0.015625)"/>
      <path id="DejaVuSans-69" d="M 603 3500 
L 1178 3500 
L 1178 0 
L 603 0 
L 603 3500 
z
M 603 4863 
L 1178 4863 
L 1178 4134 
L 603 4134 
L 603 4863 
z
" transform="scale(0.015625)"/>
      <path id="DejaVuSans-67" d="M 2906 1791 
Q 2906 2416 2648 2759 
Q 2391 3103 1925 3103 
Q 1463 3103 1205 2759 
Q 947 2416 947 1791 
Q 947 1169 1205 825 
Q 1463 481 1925 481 
Q 2391 481 2648 825 
Q 2906 1169 2906 1791 
z
M 3481 434 
Q 3481 -459 3084 -895 
Q 2688 -1331 1869 -1331 
Q 1566 -1331 1297 -1286 
Q 1028 -1241 775 -1147 
L 775 -588 
Q 1028 -725 1275 -790 
Q 1522 -856 1778 -856 
Q 2344 -856 2625 -561 
Q 2906 -266 2906 331 
L 2906 616 
Q 2728 306 2450 153 
Q 2172 0 1784 0 
Q 1141 0 747 490 
Q 353 981 353 1791 
Q 353 2603 747 3093 
Q 1141 3584 1784 3584 
Q 2172 3584 2450 3431 
Q 2728 3278 2906 2969 
L 2906 3500 
L 3481 3500 
L 3481 434 
z
" transform="scale(0.015625)"/>
      <path id="DejaVuSans-68" d="M 3513 2113 
L 3513 0 
L 2938 0 
L 2938 2094 
Q 2938 2591 2744 2837 
Q 2550 3084 2163 3084 
Q 1697 3084 1428 2787 
Q 1159 2491 1159 1978 
L 1159 0 
L 581 0 
L 581 4863 
L 1159 4863 
L 1159 2956 
Q 1366 3272 1645 3428 
Q 1925 3584 2291 3584 
Q 2894 3584 3203 3211 
Q 3513 2838 3513 2113 
z
" transform="scale(0.015625)"/>
      <path id="DejaVuSans-2d" d="M 313 2009 
L 1997 2009 
L 1997 1497 
L 313 1497 
L 313 2009 
z
" transform="scale(0.015625)"/>
      <path id="DejaVuSans-74" d="M 1172 4494 
L 1172 3500 
L 2356 3500 
L 2356 3053 
L 1172 3053 
L 1172 1153 
Q 1172 725 1289 603 
Q 1406 481 1766 481 
L 2356 481 
L 2356 0 
L 1766 0 
Q 1100 0 847 248 
Q 594 497 594 1153 
L 594 3053 
L 172 3053 
L 172 3500 
L 594 3500 
L 594 4494 
L 1172 4494 
z
" transform="scale(0.015625)"/>
      <path id="DejaVuSans-72" d="M 2631 2963 
Q 2534 3019 2420 3045 
Q 2306 3072 2169 3072 
Q 1681 3072 1420 2755 
Q 1159 2438 1159 1844 
L 1159 0 
L 581 0 
L 581 3500 
L 1159 3500 
L 1159 2956 
Q 1341 3275 1631 3429 
Q 1922 3584 2338 3584 
Q 2397 3584 2469 3576 
Q 2541 3569 2628 3553 
L 2631 2963 
z
" transform="scale(0.015625)"/>
      <path id="DejaVuSans-6f" d="M 1959 3097 
Q 1497 3097 1228 2736 
Q 959 2375 959 1747 
Q 959 1119 1226 758 
Q 1494 397 1959 397 
Q 2419 397 2687 759 
Q 2956 1122 2956 1747 
Q 2956 2369 2687 2733 
Q 2419 3097 1959 3097 
z
M 1959 3584 
Q 2709 3584 3137 3096 
Q 3566 2609 3566 1747 
Q 3566 888 3137 398 
Q 2709 -91 1959 -91 
Q 1206 -91 779 398 
Q 353 888 353 1747 
Q 353 2609 779 3096 
Q 1206 3584 1959 3584 
z
" transform="scale(0.015625)"/>
      <path id="DejaVuSans-75" d="M 544 1381 
L 544 3500 
L 1119 3500 
L 1119 1403 
Q 1119 906 1312 657 
Q 1506 409 1894 409 
Q 2359 409 2629 706 
Q 2900 1003 2900 1516 
L 2900 3500 
L 3475 3500 
L 3475 0 
L 2900 0 
L 2900 538 
Q 2691 219 2414 64 
Q 2138 -91 1772 -91 
Q 1169 -91 856 284 
Q 544 659 544 1381 
z
M 1991 3584 
L 1991 3584 
z
" transform="scale(0.015625)"/>
      <path id="DejaVuSans-70" d="M 1159 525 
L 1159 -1331 
L 581 -1331 
L 581 3500 
L 1159 3500 
L 1159 2969 
Q 1341 3281 1617 3432 
Q 1894 3584 2278 3584 
Q 2916 3584 3314 3078 
Q 3713 2572 3713 1747 
Q 3713 922 3314 415 
Q 2916 -91 2278 -91 
Q 1894 -91 1617 61 
Q 1341 213 1159 525 
z
M 3116 1747 
Q 3116 2381 2855 2742 
Q 2594 3103 2138 3103 
Q 1681 3103 1420 2742 
Q 1159 2381 1159 1747 
Q 1159 1113 1420 752 
Q 1681 391 2138 391 
Q 2594 391 2855 752 
Q 3116 1113 3116 1747 
z
" transform="scale(0.015625)"/>
      <path id="DejaVuSans-20" transform="scale(0.015625)"/>
      <path id="DejaVuSans-65" d="M 3597 1894 
L 3597 1613 
L 953 1613 
Q 991 1019 1311 708 
Q 1631 397 2203 397 
Q 2534 397 2845 478 
Q 3156 559 3463 722 
L 3463 178 
Q 3153 47 2828 -22 
Q 2503 -91 2169 -91 
Q 1331 -91 842 396 
Q 353 884 353 1716 
Q 353 2575 817 3079 
Q 1281 3584 2069 3584 
Q 2775 3584 3186 3129 
Q 3597 2675 3597 1894 
z
M 3022 2063 
Q 3016 2534 2758 2815 
Q 2500 3097 2075 3097 
Q 1594 3097 1305 2825 
Q 1016 2553 972 2059 
L 3022 2063 
z
" transform="scale(0.015625)"/>
      <path id="DejaVuSans-6c" d="M 603 4863 
L 1178 4863 
L 1178 0 
L 603 0 
L 603 4863 
z
" transform="scale(0.015625)"/>
      <path id="DejaVuSans-6e" d="M 3513 2113 
L 3513 0 
L 2938 0 
L 2938 2094 
Q 2938 2591 2744 2837 
Q 2550 3084 2163 3084 
Q 1697 3084 1428 2787 
Q 1159 2491 1159 1978 
L 1159 0 
L 581 0 
L 581 3500 
L 1159 3500 
L 1159 2956 
Q 1366 3272 1645 3428 
Q 1925 3584 2291 3584 
Q 2894 3584 3203 3211 
Q 3513 2838 3513 2113 
z
" transform="scale(0.015625)"/>
      <path id="DejaVuSans-61" d="M 2194 1759 
Q 1497 1759 1228 1600 
Q 959 1441 959 1056 
Q 959 750 1161 570 
Q 1363 391 1709 391 
Q 2188 391 2477 730 
Q 2766 1069 2766 1631 
L 2766 1759 
L 2194 1759 
z
M 3341 1997 
L 3341 0 
L 2766 0 
L 2766 531 
Q 2569 213 2275 61 
Q 1981 -91 1556 -91 
Q 1019 -91 701 211 
Q 384 513 384 1019 
Q 384 1609 779 1909 
Q 1175 2209 1959 2209 
L 2766 2209 
L 2766 2266 
Q 2766 2663 2505 2880 
Q 2244 3097 1772 3097 
Q 1472 3097 1187 3025 
Q 903 2953 641 2809 
L 641 3341 
Q 956 3463 1253 3523 
Q 1550 3584 1831 3584 
Q 2591 3584 2966 3190 
Q 3341 2797 3341 1997 
z
" transform="scale(0.015625)"/>
      <path id="DejaVuSans-73" d="M 2834 3397 
L 2834 2853 
Q 2591 2978 2328 3040 
Q 2066 3103 1784 3103 
Q 1356 3103 1142 2972 
Q 928 2841 928 2578 
Q 928 2378 1081 2264 
Q 1234 2150 1697 2047 
L 1894 2003 
Q 2506 1872 2764 1633 
Q 3022 1394 3022 966 
Q 3022 478 2636 193 
Q 2250 -91 1575 -91 
Q 1294 -91 989 -36 
Q 684 19 347 128 
L 347 722 
Q 666 556 975 473 
Q 1284 391 1588 391 
Q 1994 391 2212 530 
Q 2431 669 2431 922 
Q 2431 1156 2273 1281 
Q 2116 1406 1581 1522 
L 1381 1569 
Q 847 1681 609 1914 
Q 372 2147 372 2553 
Q 372 3047 722 3315 
Q 1072 3584 1716 3584 
Q 2034 3584 2315 3537 
Q 2597 3491 2834 3397 
z
" transform="scale(0.015625)"/>
      <path id="DejaVuSans-28" d="M 1984 4856 
Q 1566 4138 1362 3434 
Q 1159 2731 1159 2009 
Q 1159 1288 1364 580 
Q 1569 -128 1984 -844 
L 1484 -844 
Q 1016 -109 783 600 
Q 550 1309 550 2009 
Q 550 2706 781 3412 
Q 1013 4119 1484 4856 
L 1984 4856 
z
" transform="scale(0.015625)"/>
      <path id="DejaVuSans-77" d="M 269 3500 
L 844 3500 
L 1563 769 
L 2278 3500 
L 2956 3500 
L 3675 769 
L 4391 3500 
L 4966 3500 
L 4050 0 
L 3372 0 
L 2619 2869 
L 1863 0 
L 1184 0 
L 269 3500 
z
" transform="scale(0.015625)"/>
      <path id="DejaVuSans-2265" d="M 678 3175 
L 678 3725 
L 4684 2578 
L 4684 2047 
L 678 897 
L 678 1453 
L 3681 2309 
L 678 3175 
z
M 4684 531 
L 4684 0 
L 678 0 
L 678 531 
L 4684 531 
z
" transform="scale(0.015625)"/>
      <path id="DejaVuSans-37" d="M 525 4666 
L 3525 4666 
L 3525 4397 
L 1831 0 
L 1172 0 
L 2766 4134 
L 525 4134 
L 525 4666 
z
" transform="scale(0.015625)"/>
      <path id="DejaVuSans-29" d="M 513 4856 
L 1013 4856 
Q 1481 4119 1714 3412 
Q 1947 2706 1947 2009 
Q 1947 1309 1714 600 
Q 1481 -109 1013 -844 
L 513 -844 
Q 928 -128 1133 580 
Q 1338 1288 1338 2009 
Q 1338 2731 1133 3434 
Q 928 4138 513 4856 
z
" transform="scale(0.015625)"/>
     </defs>
     <use xlink:href="#DejaVuSans-48"/>
     <use xlink:href="#DejaVuSans-69" transform="translate(75.195312 0)"/>
     <use xlink:href="#DejaVuSans-67" transform="translate(102.978516 0)"/>
     <use xlink:href="#DejaVuSans-68" transform="translate(166.455078 0)"/>
     <use xlink:href="#DejaVuSans-2d" transform="translate(229.833984 0)"/>
     <use xlink:href="#DejaVuSans-74" transform="translate(265.917969 0)"/>
     <use xlink:href="#DejaVuSans-68" transform="translate(305.126953 0)"/>
     <use xlink:href="#DejaVuSans-72" transform="translate(368.505859 0)"/>
     <use xlink:href="#DejaVuSans-6f" transform="translate(407.369141 0)"/>
     <use xlink:href="#DejaVuSans-75" transform="translate(468.550781 0)"/>
     <use xlink:href="#DejaVuSans-67" transform="translate(531.929688 0)"/>
     <use xlink:href="#DejaVuSans-68" transform="translate(595.40625 0)"/>
     <use xlink:href="#DejaVuSans-70" transform="translate(658.785156 0)"/>
     <use xlink:href="#DejaVuSans-75" transform="translate(722.261719 0)"/>
     <use xlink:href="#DejaVuSans-74" transform="translate(785.640625 0)"/>
     <use xlink:href="#DejaVuSans-20" transform="translate(824.849609 0)"/>
     <use xlink:href="#DejaVuSans-70" transform="translate(856.636719 0)"/>
     <use xlink:href="#DejaVuSans-69" transform="translate(920.113281 0)"/>
     <use xlink:href="#DejaVuSans-70" transform="translate(947.896484 0)"/>
     <use xlink:href="#DejaVuSans-65" transform="translate(1011.373047 0)"/>
     <use xlink:href="#DejaVuSans-6c" transform="translate(1072.896484 0)"/>
     <use xlink:href="#DejaVuSans-69" transform="translate(1100.679688 0)"/>
     <use xlink:href="#DejaVuSans-6e" transform="translate(1128.462891 0)"/>
     <use xlink:href="#DejaVuSans-65" transform="translate(1191.841797 0)"/>
     <use xlink:href="#DejaVuSans-20" transform="translate(1253.365234 0)"/>
     <use xlink:href="#DejaVuSans-70" transform="translate(1285.152344 0)"/>
     <use xlink:href="#DejaVuSans-61" transform="translate(1348.628906 0)"/>
     <use xlink:href="#DejaVuSans-74" transform="translate(1409.908203 0)"/>
     <use xlink:href="#DejaVuSans-68" transform="translate(1449.117188 0)"/>
     <use xlink:href="#DejaVuSans-73" transform="translate(1512.496094 0)"/>
     <use xlink:href="#DejaVuSans-20" transform="translate(1564.595703 0)"/>
     <use xlink:href="#DejaVuSans-28" transform="translate(1596.382812 0)"/>
     <use xlink:href="#DejaVuSans-77" transform="translate(1635.396484 0)"/>
     <use xlink:href="#DejaVuSans-65" transform="translate(1717.183594 0)"/>
     <use xlink:href="#DejaVuSans-69" transform="translate(1778.707031 0)"/>
     <use xlink:href="#DejaVuSans-67" transform="translate(1806.490234 0)"/>
     <use xlink:href="#DejaVuSans-68" transform="translate(1869.966797 0)"/>
     <use xlink:href="#DejaVuSans-74" transform="translate(1933.345703 0)"/>
     <use xlink:href="#DejaVuSans-20" transform="translate(1972.554688 0)"/>
     <use xlink:href="#DejaVuSans-2265" transform="translate(2004.341797 0)"/>
     <use xlink:href="#DejaVuSans-20" transform="translate(2088.130859 0)"/>
     <use xlink:href="#DejaVuSans-37" transform="translate(2119.917969 0)"/>
     <use xlink:href="#DejaVuSans-29" transform="translate(2183.541016 0)"/>
    </g>
   </g>
   <g id="text_2">
    <!-- Critical Flows -->
    <g transform="translate(134.194375 26.196094) scale(0.25 -0.25)">
     <defs>
      <path id="DejaVuSans-Bold-43" d="M 4288 256 
Q 3956 84 3597 -3 
Q 3238 -91 2847 -91 
Q 1681 -91 1000 561 
Q 319 1213 319 2328 
Q 319 3447 1000 4098 
Q 1681 4750 2847 4750 
Q 3238 4750 3597 4662 
Q 3956 4575 4288 4403 
L 4288 3438 
Q 3953 3666 3628 3772 
Q 3303 3878 2944 3878 
Q 2300 3878 1931 3465 
Q 1563 3053 1563 2328 
Q 1563 1606 1931 1193 
Q 2300 781 2944 781 
Q 3303 781 3628 887 
Q 3953 994 4288 1222 
L 4288 256 
z
" transform="scale(0.015625)"/>
      <path id="DejaVuSans-Bold-72" d="M 3138 2547 
Q 2991 2616 2845 2648 
Q 2700 2681 2553 2681 
Q 2122 2681 1889 2404 
Q 1656 2128 1656 1613 
L 1656 0 
L 538 0 
L 538 3500 
L 1656 3500 
L 1656 2925 
Q 1872 3269 2151 3426 
Q 2431 3584 2822 3584 
Q 2878 3584 2943 3579 
Q 3009 3575 3134 3559 
L 3138 2547 
z
" transform="scale(0.015625)"/>
      <path id="DejaVuSans-Bold-69" d="M 538 3500 
L 1656 3500 
L 1656 0 
L 538 0 
L 538 3500 
z
M 538 4863 
L 1656 4863 
L 1656 3950 
L 538 3950 
L 538 4863 
z
" transform="scale(0.015625)"/>
      <path id="DejaVuSans-Bold-74" d="M 1759 4494 
L 1759 3500 
L 2913 3500 
L 2913 2700 
L 1759 2700 
L 1759 1216 
Q 1759 972 1856 886 
Q 1953 800 2241 800 
L 2816 800 
L 2816 0 
L 1856 0 
Q 1194 0 917 276 
Q 641 553 641 1216 
L 641 2700 
L 84 2700 
L 84 3500 
L 641 3500 
L 641 4494 
L 1759 4494 
z
" transform="scale(0.015625)"/>
      <path id="DejaVuSans-Bold-63" d="M 3366 3391 
L 3366 2478 
Q 3138 2634 2908 2709 
Q 2678 2784 2431 2784 
Q 1963 2784 1702 2511 
Q 1441 2238 1441 1747 
Q 1441 1256 1702 982 
Q 1963 709 2431 709 
Q 2694 709 2930 787 
Q 3166 866 3366 1019 
L 3366 103 
Q 3103 6 2833 -42 
Q 2563 -91 2291 -91 
Q 1344 -91 809 395 
Q 275 881 275 1747 
Q 275 2613 809 3098 
Q 1344 3584 2291 3584 
Q 2566 3584 2833 3536 
Q 3100 3488 3366 3391 
z
" transform="scale(0.015625)"/>
      <path id="DejaVuSans-Bold-61" d="M 2106 1575 
Q 1756 1575 1579 1456 
Q 1403 1338 1403 1106 
Q 1403 894 1545 773 
Q 1688 653 1941 653 
Q 2256 653 2472 879 
Q 2688 1106 2688 1447 
L 2688 1575 
L 2106 1575 
z
M 3816 1997 
L 3816 0 
L 2688 0 
L 2688 519 
Q 2463 200 2181 54 
Q 1900 -91 1497 -91 
Q 953 -91 614 226 
Q 275 544 275 1050 
Q 275 1666 698 1953 
Q 1122 2241 2028 2241 
L 2688 2241 
L 2688 2328 
Q 2688 2594 2478 2717 
Q 2269 2841 1825 2841 
Q 1466 2841 1156 2769 
Q 847 2697 581 2553 
L 581 3406 
Q 941 3494 1303 3539 
Q 1666 3584 2028 3584 
Q 2975 3584 3395 3211 
Q 3816 2838 3816 1997 
z
" transform="scale(0.015625)"/>
      <path id="DejaVuSans-Bold-6c" d="M 538 4863 
L 1656 4863 
L 1656 0 
L 538 0 
L 538 4863 
z
" transform="scale(0.015625)"/>
      <path id="DejaVuSans-Bold-20" transform="scale(0.015625)"/>
      <path id="DejaVuSans-Bold-46" d="M 588 4666 
L 3834 4666 
L 3834 3756 
L 1791 3756 
L 1791 2888 
L 3713 2888 
L 3713 1978 
L 1791 1978 
L 1791 0 
L 588 0 
L 588 4666 
z
" transform="scale(0.015625)"/>
      <path id="DejaVuSans-Bold-6f" d="M 2203 2784 
Q 1831 2784 1636 2517 
Q 1441 2250 1441 1747 
Q 1441 1244 1636 976 
Q 1831 709 2203 709 
Q 2569 709 2762 976 
Q 2956 1244 2956 1747 
Q 2956 2250 2762 2517 
Q 2569 2784 2203 2784 
z
M 2203 3584 
Q 3106 3584 3614 3096 
Q 4122 2609 4122 1747 
Q 4122 884 3614 396 
Q 3106 -91 2203 -91 
Q 1297 -91 786 396 
Q 275 884 275 1747 
Q 275 2609 786 3096 
Q 1297 3584 2203 3584 
z
" transform="scale(0.015625)"/>
      <path id="DejaVuSans-Bold-77" d="M 225 3500 
L 1313 3500 
L 1900 1088 
L 2491 3500 
L 3425 3500 
L 4013 1113 
L 4603 3500 
L 5691 3500 
L 4769 0 
L 3547 0 
L 2956 2406 
L 2369 0 
L 1147 0 
L 225 3500 
z
" transform="scale(0.015625)"/>
      <path id="DejaVuSans-Bold-73" d="M 3272 3391 
L 3272 2541 
Q 2913 2691 2578 2766 
Q 2244 2841 1947 2841 
Q 1628 2841 1473 2761 
Q 1319 2681 1319 2516 
Q 1319 2381 1436 2309 
Q 1553 2238 1856 2203 
L 2053 2175 
Q 2913 2066 3209 1816 
Q 3506 1566 3506 1031 
Q 3506 472 3093 190 
Q 2681 -91 1863 -91 
Q 1516 -91 1145 -36 
Q 775 19 384 128 
L 384 978 
Q 719 816 1070 734 
Q 1422 653 1784 653 
Q 2113 653 2278 743 
Q 2444 834 2444 1013 
Q 2444 1163 2330 1236 
Q 2216 1309 1875 1350 
L 1678 1375 
Q 931 1469 631 1722 
Q 331 1975 331 2491 
Q 331 3047 712 3315 
Q 1094 3584 1881 3584 
Q 2191 3584 2531 3537 
Q 2872 3491 3272 3391 
z
" transform="scale(0.015625)"/>
     </defs>
     <use xlink:href="#DejaVuSans-Bold-43"/>
     <use xlink:href="#DejaVuSans-Bold-72" transform="translate(73.388672 0)"/>
     <use xlink:href="#DejaVuSans-Bold-69" transform="translate(122.705078 0)"/>
     <use xlink:href="#DejaVuSans-Bold-74" transform="translate(156.982422 0)"/>
     <use xlink:href="#DejaVuSans-Bold-69" transform="translate(204.785156 0)"/>
     <use xlink:href="#DejaVuSans-Bold-63" transform="translate(239.0625 0)"/>
     <use xlink:href="#DejaVuSans-Bold-61" transform="translate(298.339844 0)"/>
     <use xlink:href="#DejaVuSans-Bold-6c" transform="translate(365.820312 0)"/>
     <use xlink:href="#DejaVuSans-Bold-20" transform="translate(400.097656 0)"/>
     <use xlink:href="#DejaVuSans-Bold-46" transform="translate(434.912109 0)"/>
     <use xlink:href="#DejaVuSans-Bold-6c" transform="translate(503.222656 0)"/>
     <use xlink:href="#DejaVuSans-Bold-6f" transform="translate(537.5 0)"/>
     <use xlink:href="#DejaVuSans-Bold-77" transform="translate(606.201172 0)"/>
     <use xlink:href="#DejaVuSans-Bold-73" transform="translate(698.583984 0)"/>
    </g>
   </g>
   <g id="patch_18">
    <path d="M 356.018612 341.597303 
C 359.097845 341.597303 362.051375 340.37391 364.228722 338.196564 
C 366.406068 336.019217 367.629461 333.065687 367.629461 329.986454 
C 367.629461 326.907221 366.406068 323.953691 364.228722 321.776344 
C 362.051375 319.598997 359.097845 318.375605 356.018612 318.375605 
C 352.939379 318.375605 349.985848 319.598997 347.808502 321.776344 
C 345.631155 323.953691 344.407763 326.907221 344.407763 329.986454 
C 344.407763 333.065687 345.631155 336.019217 347.808502 338.196564 
C 349.985848 340.37391 352.939379 341.597303 356.018612 341.597303 
z
" clip-path="url(#p0a8161f2a9)" style="fill: #ffffff; opacity: 0.22"/>
   </g>
   <g id="patch_19">
    <path d="M 86.420257 185.94462 
C 89.49949 185.94462 92.45302 184.721228 94.630366 182.543881 
C 96.807713 180.366534 98.031105 177.413004 98.031105 174.333771 
C 98.031105 171.254538 96.807713 168.301008 94.630366 166.123661 
C 92.45302 163.946315 89.49949 162.722922 86.420257 162.722922 
C 83.341023 162.722922 80.387493 163.946315 78.210147 166.123661 
C 76.0328 168.301008 74.809408 171.254538 74.809408 174.333771 
C 74.809408 177.413004 76.0328 180.366534 78.210147 182.543881 
C 80.387493 184.721228 83.341023 185.94462 86.420257 185.94462 
z
" clip-path="url(#p0a8161f2a9)" style="fill: #ffffff; opacity: 0.22"/>
   </g>
   <g id="patch_20">
    <path d="M 221.219434 108.118278 
C 224.298667 108.118278 227.252197 106.894886 229.429544 104.717539 
C 231.606891 102.540193 232.830283 99.586663 232.830283 96.50743 
C 232.830283 93.428196 231.606891 90.474666 229.429544 88.29732 
C 227.252197 86.119973 224.298667 84.896581 221.219434 84.896581 
C 218.140201 84.896581 215.186671 86.119973 213.009324 88.29732 
C 210.831978 90.474666 209.608585 93.428196 209.608585 96.50743 
C 209.608585 99.586663 210.831978 102.540193 213.009324 104.717539 
C 215.186671 106.894886 218.140201 108.118278 221.219434 108.118278 
z
" clip-path="url(#p0a8161f2a9)" style="fill: #ffffff; opacity: 0.22"/>
   </g>
   <g id="patch_21">
    <path d="M 356.018612 185.94462 
C 359.097845 185.94462 362.051375 184.721228 364.228722 182.543881 
C 366.406068 180.366534 367.629461 177.413004 367.629461 174.333771 
C 367.629461 171.254538 366.406068 168.301008 364.228722 166.123661 
C 362.051375 163.946315 359.097845 162.722922 356.018612 162.722922 
C 352.939379 162.722922 349.985848 163.946315 347.808502 166.123661 
C 345.631155 168.301008 344.407763 171.254538 344.407763 174.333771 
C 344.407763 177.413004 345.631155 180.366534 347.808502 182.543881 
C 349.985848 184.721228 352.939379 185.94462 356.018612 185.94462 
z
" clip-path="url(#p0a8161f2a9)" style="fill: #ffffff; opacity: 0.22"/>
   </g>
   <g id="patch_22">
    <path d="M 86.420257 341.597303 
C 89.49949 341.597303 92.45302 340.37391 94.630366 338.196564 
C 96.807713 336.019217 98.031105 333.065687 98.031105 329.986454 
C 98.031105 326.907221 96.807713 323.953691 94.630366 321.776344 
C 92.45302 319.598997 89.49949 318.375605 86.420257 318.375605 
C 83.341023 318.375605 80.387493 319.598997 78.210147 321.776344 
C 76.0328 323.953691 74.809408 326.907221 74.809408 329.986454 
C 74.809408 333.065687 76.0328 336.019217 78.210147 338.196564 
C 80.387493 340.37391 83.341023 341.597303 86.420257 341.597303 
z
" clip-path="url(#p0a8161f2a9)" style="fill: #ffffff; opacity: 0.22"/>
   </g>
   <g id="patch_23">
    <path d="M 221.219434 419.423644 
C 224.298667 419.423644 227.252197 418.200252 229.429544 416.022905 
C 231.606891 413.845559 232.830283 410.892029 232.830283 407.812795 
C 232.830283 404.733562 231.606891 401.780032 229.429544 399.602686 
C 227.252197 397.425339 224.298667 396.201947 221.219434 396.201947 
C 218.140201 396.201947 215.186671 397.425339 213.009324 399.602686 
C 210.831978 401.780032 209.608585 404.733562 209.608585 407.812795 
C 209.608585 410.892029 210.831978 413.845559 213.009324 416.022905 
C 215.186671 418.200252 218.140201 419.423644 221.219434 419.423644 
z
" clip-path="url(#p0a8161f2a9)" style="fill: #ffffff; opacity: 0.22"/>
   </g>
   <g id="patch_24">
    <path d="M 203.806398 118.770434 
L 191.570134 126.453604 
L 189.364552 118.334179 
z
" clip-path="url(#p0a8161f2a9)" style="fill: #7b2d8b; opacity: 0.88"/>
   </g>
   <g id="patch_25">
    <path d="M 338.605575 167.551898 
L 325.833624 160.796568 
L 331.76246 154.826765 
z
" clip-path="url(#p0a8161f2a9)" style="fill: #49a62d; opacity: 0.6"/>
   </g>
   <g id="patch_26">
    <path d="M 203.806398 401.030922 
L 191.793394 393.00316 
L 198.302414 387.671903 
z
" clip-path="url(#p0a8161f2a9)" style="fill: #999999; opacity: 0.45"/>
   </g>
   <g id="text_3">
    <!-- Plan -->
    <g transform="translate(391.864025 363.071486) scale(0.12 -0.12)">
     <defs>
      <path id="DejaVuSans-Bold-50" d="M 588 4666 
L 2584 4666 
Q 3475 4666 3951 4270 
Q 4428 3875 4428 3144 
Q 4428 2409 3951 2014 
Q 3475 1619 2584 1619 
L 1791 1619 
L 1791 0 
L 588 0 
L 588 4666 
z
M 1791 3794 
L 1791 2491 
L 2456 2491 
Q 2806 2491 2997 2661 
Q 3188 2831 3188 3144 
Q 3188 3456 2997 3625 
Q 2806 3794 2456 3794 
L 1791 3794 
z
" transform="scale(0.015625)"/>
      <path id="DejaVuSans-Bold-6e" d="M 4056 2131 
L 4056 0 
L 2931 0 
L 2931 347 
L 2931 1631 
Q 2931 2084 2911 2256 
Q 2891 2428 2841 2509 
Q 2775 2619 2662 2680 
Q 2550 2741 2406 2741 
Q 2056 2741 1856 2470 
Q 1656 2200 1656 1722 
L 1656 0 
L 538 0 
L 538 3500 
L 1656 3500 
L 1656 2988 
Q 1909 3294 2193 3439 
Q 2478 3584 2822 3584 
Q 3428 3584 3742 3212 
Q 4056 2841 4056 2131 
z
" transform="scale(0.015625)"/>
     </defs>
     <use xlink:href="#DejaVuSans-Bold-50"/>
     <use xlink:href="#DejaVuSans-Bold-6c" transform="translate(73.291016 0)"/>
     <use xlink:href="#DejaVuSans-Bold-61" transform="translate(107.568359 0)"/>
     <use xlink:href="#DejaVuSans-Bold-6e" transform="translate(175.048828 0)"/>
    </g>
   </g>
   <g id="text_4">
    <!-- Code -->
    <g transform="translate(32.275975 163.35237) scale(0.12 -0.12)">
     <defs>
      <path id="DejaVuSans-Bold-64" d="M 2919 2988 
L 2919 4863 
L 4044 4863 
L 4044 0 
L 2919 0 
L 2919 506 
Q 2688 197 2409 53 
Q 2131 -91 1766 -91 
Q 1119 -91 703 423 
Q 288 938 288 1747 
Q 288 2556 703 3070 
Q 1119 3584 1766 3584 
Q 2128 3584 2408 3439 
Q 2688 3294 2919 2988 
z
M 2181 722 
Q 2541 722 2730 984 
Q 2919 1247 2919 1747 
Q 2919 2247 2730 2509 
Q 2541 2772 2181 2772 
Q 1825 2772 1636 2509 
Q 1447 2247 1447 1747 
Q 1447 1247 1636 984 
Q 1825 722 2181 722 
z
" transform="scale(0.015625)"/>
      <path id="DejaVuSans-Bold-65" d="M 4031 1759 
L 4031 1441 
L 1416 1441 
Q 1456 1047 1700 850 
Q 1944 653 2381 653 
Q 2734 653 3104 758 
Q 3475 863 3866 1075 
L 3866 213 
Q 3469 63 3072 -14 
Q 2675 -91 2278 -91 
Q 1328 -91 801 392 
Q 275 875 275 1747 
Q 275 2603 792 3093 
Q 1309 3584 2216 3584 
Q 3041 3584 3536 3087 
Q 4031 2591 4031 1759 
z
M 2881 2131 
Q 2881 2450 2695 2645 
Q 2509 2841 2209 2841 
Q 1884 2841 1681 2658 
Q 1478 2475 1428 2131 
L 2881 2131 
z
" transform="scale(0.015625)"/>
     </defs>
     <use xlink:href="#DejaVuSans-Bold-43"/>
     <use xlink:href="#DejaVuSans-Bold-6f" transform="translate(73.388672 0)"/>
     <use xlink:href="#DejaVuSans-Bold-64" transform="translate(142.089844 0)"/>
     <use xlink:href="#DejaVuSans-Bold-65" transform="translate(213.671875 0)"/>
    </g>
   </g>
   <g id="text_5">
    <!-- Build -->
    <g transform="translate(211.707188 69.299687) scale(0.12 -0.12)">
     <defs>
      <path id="DejaVuSans-Bold-42" d="M 2456 2859 
Q 2741 2859 2887 2984 
Q 3034 3109 3034 3353 
Q 3034 3594 2887 3720 
Q 2741 3847 2456 3847 
L 1791 3847 
L 1791 2859 
L 2456 2859 
z
M 2497 819 
Q 2859 819 3042 972 
Q 3225 1125 3225 1434 
Q 3225 1738 3044 1889 
Q 2863 2041 2497 2041 
L 1791 2041 
L 1791 819 
L 2497 819 
z
M 3616 2497 
Q 4003 2384 4215 2081 
Q 4428 1778 4428 1338 
Q 4428 663 3972 331 
Q 3516 0 2584 0 
L 588 0 
L 588 4666 
L 2394 4666 
Q 3366 4666 3802 4372 
Q 4238 4078 4238 3431 
Q 4238 3091 4078 2852 
Q 3919 2613 3616 2497 
z
" transform="scale(0.015625)"/>
      <path id="DejaVuSans-Bold-75" d="M 500 1363 
L 500 3500 
L 1625 3500 
L 1625 3150 
Q 1625 2866 1622 2436 
Q 1619 2006 1619 1863 
Q 1619 1441 1641 1255 
Q 1663 1069 1716 984 
Q 1784 875 1895 815 
Q 2006 756 2150 756 
Q 2500 756 2700 1025 
Q 2900 1294 2900 1772 
L 2900 3500 
L 4019 3500 
L 4019 0 
L 2900 0 
L 2900 506 
Q 2647 200 2364 54 
Q 2081 -91 1741 -91 
Q 1134 -91 817 281 
Q 500 653 500 1363 
z
" transform="scale(0.015625)"/>
     </defs>
     <use xlink:href="#DejaVuSans-Bold-42"/>
     <use xlink:href="#DejaVuSans-Bold-75" transform="translate(76.220703 0)"/>
     <use xlink:href="#DejaVuSans-Bold-69" transform="translate(147.412109 0)"/>
     <use xlink:href="#DejaVuSans-Bold-6c" transform="translate(181.689453 0)"/>
     <use xlink:href="#DejaVuSans-Bold-64" transform="translate(215.966797 0)"/>
    </g>
   </g>
   <g id="text_6">
    <!-- Test -->
    <g transform="translate(391.864025 163.35237) scale(0.12 -0.12)">
     <defs>
      <path id="DejaVuSans-Bold-54" d="M 31 4666 
L 4331 4666 
L 4331 3756 
L 2784 3756 
L 2784 0 
L 1581 0 
L 1581 3756 
L 31 3756 
L 31 4666 
z
" transform="scale(0.015625)"/>
     </defs>
     <use xlink:href="#DejaVuSans-Bold-54"/>
     <use xlink:href="#DejaVuSans-Bold-65" transform="translate(54.962891 0)"/>
     <use xlink:href="#DejaVuSans-Bold-73" transform="translate(122.785156 0)"/>
     <use xlink:href="#DejaVuSans-Bold-74" transform="translate(182.306641 0)"/>
    </g>
   </g>
   <g id="text_7">
    <!-- Deploy -->
    <g transform="translate(19.184725 363.071486) scale(0.12 -0.12)">
     <defs>
      <path id="DejaVuSans-Bold-44" d="M 1791 3756 
L 1791 909 
L 2222 909 
Q 2959 909 3348 1275 
Q 3738 1641 3738 2338 
Q 3738 3031 3350 3393 
Q 2963 3756 2222 3756 
L 1791 3756 
z
M 588 4666 
L 1856 4666 
Q 2919 4666 3439 4514 
Q 3959 4363 4331 4000 
Q 4659 3684 4818 3271 
Q 4978 2859 4978 2338 
Q 4978 1809 4818 1395 
Q 4659 981 4331 666 
Q 3956 303 3431 151 
Q 2906 0 1856 0 
L 588 0 
L 588 4666 
z
" transform="scale(0.015625)"/>
      <path id="DejaVuSans-Bold-70" d="M 1656 506 
L 1656 -1331 
L 538 -1331 
L 538 3500 
L 1656 3500 
L 1656 2988 
Q 1888 3294 2169 3439 
Q 2450 3584 2816 3584 
Q 3463 3584 3878 3070 
Q 4294 2556 4294 1747 
Q 4294 938 3878 423 
Q 3463 -91 2816 -91 
Q 2450 -91 2169 54 
Q 1888 200 1656 506 
z
M 2400 2772 
Q 2041 2772 1848 2508 
Q 1656 2244 1656 1747 
Q 1656 1250 1848 986 
Q 2041 722 2400 722 
Q 2759 722 2948 984 
Q 3138 1247 3138 1747 
Q 3138 2247 2948 2509 
Q 2759 2772 2400 2772 
z
" transform="scale(0.015625)"/>
      <path id="DejaVuSans-Bold-79" d="M 78 3500 
L 1197 3500 
L 2138 1125 
L 2938 3500 
L 4056 3500 
L 2584 -331 
Q 2363 -916 2067 -1148 
Q 1772 -1381 1288 -1381 
L 641 -1381 
L 641 -647 
L 991 -647 
Q 1275 -647 1404 -556 
Q 1534 -466 1606 -231 
L 1638 -134 
L 78 3500 
z
" transform="scale(0.015625)"/>
     </defs>
     <use xlink:href="#DejaVuSans-Bold-44"/>
     <use xlink:href="#DejaVuSans-Bold-65" transform="translate(83.007812 0)"/>
     <use xlink:href="#DejaVuSans-Bold-70" transform="translate(150.830078 0)"/>
     <use xlink:href="#DejaVuSans-Bold-6c" transform="translate(222.412109 0)"/>
     <use xlink:href="#DejaVuSans-Bold-6f" transform="translate(256.689453 0)"/>
     <use xlink:href="#DejaVuSans-Bold-79" transform="translate(325.390625 0)"/>
    </g>
   </g>
   <g id="text_8">
    <!-- Monitor -->
    <g transform="translate(202.59 457.124169) scale(0.12 -0.12)">
     <defs>
      <path id="DejaVuSans-Bold-4d" d="M 588 4666 
L 2119 4666 
L 3181 2169 
L 4250 4666 
L 5778 4666 
L 5778 0 
L 4641 0 
L 4641 3413 
L 3566 897 
L 2803 897 
L 1728 3413 
L 1728 0 
L 588 0 
L 588 4666 
z
" transform="scale(0.015625)"/>
     </defs>
     <use xlink:href="#DejaVuSans-Bold-4d"/>
     <use xlink:href="#DejaVuSans-Bold-6f" transform="translate(99.511719 0)"/>
     <use xlink:href="#DejaVuSans-Bold-6e" transform="translate(168.212891 0)"/>
     <use xlink:href="#DejaVuSans-Bold-69" transform="translate(239.404297 0)"/>
     <use xlink:href="#DejaVuSans-Bold-74" transform="translate(273.681641 0)"/>
     <use xlink:href="#DejaVuSans-Bold-6f" transform="translate(321.484375 0)"/>
     <use xlink:href="#DejaVuSans-Bold-72" transform="translate(390.185547 0)"/>
    </g>
   </g>
  </g>
 </g>
 <defs>
  <clipPath id="p0a8161f2a9">
   <rect x="7.2" y="38.140678" width="443.52" height="443.52"/>
  </clipPath>
 </defs>
</svg>
