<?xml version="1.0" encoding="utf-8" standalone="no"?>
<!DOCTYPE svg PUBLIC "-//W3C//DTD SVG 1.1//EN"
  "http://www.w3.org/Graphics/SVG/1.1/DTD/svg11.dtd">
<svg xmlns:xlink="http://www.w3.org/1999/xlink" width="1480.588551pt" height="514.309945pt" viewBox="0 0 1480.588551 514.309945" xmlns="http://www.w3.org/2000/svg" version="1.1">
 <metadata>
  <rdf:RDF xmlns:dc="http://purl.org/dc/elements/1.1/" xmlns:cc="http://creativecommons.org/ns#" xmlns:rdf="http://www.w3.org/1999/02/22-rdf-syntax-ns#">
   <cc:Work>
    <dc:type rdf:resource="http://purl.org/dc/dcmitype/StillImage"/>
    <dc:date>2026-04-30T21:47:48.370843</dc:date>
    <dc:format>image/svg+xml</dc:format>
    <dc:creator>
     <cc:Agent>
      <dc:title>Matplotlib v3.10.7+dfsg1, https://matplotlib.org/</dc:title>
     </cc:Agent>
    </dc:creator>
   </cc:Work>
  </rdf:RDF>
 </metadata>
 <defs>
  <style type="text/css">*{stroke-linejoin: round; stroke-linecap: butt}</style>
 </defs>
 <g id="figure_1">
  <g id="patch_1">
   <path d="M 0 514.309945 
L 1480.588551 514.309945 
L 1480.588551 0 
L 0 0 
z
" style="fill: #ffffff"/>
  </g>
  <g id="axes_1">
   <g id="patch_2">
    <path d="M 239.894275 429.576717 
C 281.043466 429.576717 320.512832 413.22797 349.609704 384.131099 
C 378.706576 355.034227 395.055323 315.564861 395.055323 274.41567 
C 395.055323 233.266479 378.706576 193.797113 349.609704 164.700241 
C 320.512832 135.603369 281.043466 119.254623 239.894275 119.254623 
C 198.745085 119.254623 159.275719 135.603369 130.178847 164.700241 
C 101.081975 193.797113 84.733228 233.266479 84.733228 274.41567 
C 84.733228 315.564861 101.081975 355.034227 130.178847 384.131099 
C 159.275719 413.22797 198.745085 429.576717 239.894275 429.576717 
z
" clip-path="url(#pad1db6adb8)" style="fill: #f0f4fa; stroke: #f0f4fa; stroke-linejoin: miter"/>
   </g>
   <g id="patch_3">
    <path d="M 123.570211 341.5754 
Q 242.464494 276.944078 238.258567 156.195538 
" clip-path="url(#pad1db6adb8)" style="fill: none; opacity: 0.45; stroke: #999999; stroke-width: 0.96; stroke-linejoin: miter"/>
   </g>
   <g id="patch_4">
    <path d="M 233.863182 139.462317 
Q 224.217577 264.186172 134.408453 328.722806 
" clip-path="url(#pad1db6adb8)" style="fill: none; opacity: 0.45; stroke: #999999; stroke-width: 0.96; stroke-linejoin: miter"/>
   </g>
   <g id="patch_5">
    <path d="M 354.444258 345.212807 
Q 240.636117 358.096118 141.303626 346.294985 
" clip-path="url(#pad1db6adb8)" style="fill: none; opacity: 0.6; stroke: #49a62d; stroke-width: 1.68; stroke-linejoin: miter"/>
   </g>
   <g id="patch_6">
    <path d="M 358.481386 338.220297 
Q 363.552331 204.83924 259.018131 148.030089 
" clip-path="url(#pad1db6adb8)" style="fill: none; opacity: 0.74; stroke: #1a6fa8; stroke-width: 2.56; stroke-linejoin: miter"/>
   </g>
   <g id="patch_7">
    <path d="M 241.917768 140.025548 
Q 345.006243 214.143915 353.64967 326.274874 
" clip-path="url(#pad1db6adb8)" style="fill: none; opacity: 0.88; stroke: #7b2d8b; stroke-width: 3.6; stroke-linejoin: miter"/>
   </g>
   <g id="patch_8">
    <path d="M 241.029369 141.231304 
C 248.72237 141.231304 256.101321 138.174843 261.541094 132.73507 
C 266.980866 127.295297 270.037328 119.916346 270.037328 112.223346 
C 270.037328 104.530345 266.980866 97.151394 261.541094 91.711622 
C 256.101321 86.271849 248.72237 83.215387 241.029369 83.215387 
C 233.336369 83.215387 225.957418 86.271849 220.517645 91.711622 
C 215.077873 97.151394 212.021411 104.530345 212.021411 112.223346 
C 212.021411 119.916346 215.077873 127.295297 220.517645 132.73507 
C 225.957418 138.174843 233.336369 141.231304 241.029369 141.231304 
z
" clip-path="url(#pad1db6adb8)" style="fill-opacity: 0.133333"/>
   </g>
   <g id="patch_9">
    <path d="M 382.475063 386.222432 
C 390.168063 386.222432 397.547014 383.16597 402.986787 377.726197 
C 408.42656 372.286424 411.483021 364.907474 411.483021 357.214473 
C 411.483021 349.521473 408.42656 342.142522 402.986787 336.702749 
C 397.547014 331.262976 390.168063 328.206515 382.475063 328.206515 
C 374.782062 328.206515 367.403112 331.262976 361.963339 336.702749 
C 356.523566 342.142522 353.467104 349.521473 353.467104 357.214473 
C 353.467104 364.907474 356.523566 372.286424 361.963339 377.726197 
C 367.403112 383.16597 374.782062 386.222432 382.475063 386.222432 
z
" clip-path="url(#pad1db6adb8)" style="fill-opacity: 0.133333"/>
   </g>
   <g id="patch_10">
    <path d="M 99.583676 386.222432 
C 107.276677 386.222432 114.655627 383.16597 120.0954 377.726197 
C 125.535173 372.286424 128.591635 364.907474 128.591635 357.214473 
C 128.591635 349.521473 125.535173 342.142522 120.0954 336.702749 
C 114.655627 331.262976 107.276677 328.206515 99.583676 328.206515 
C 91.890676 328.206515 84.511725 331.262976 79.071952 336.702749 
C 73.632179 342.142522 70.575718 349.521473 70.575718 357.214473 
C 70.575718 364.907474 73.632179 372.286424 79.071952 377.726197 
C 84.511725 383.16597 91.890676 386.222432 99.583676 386.222432 
z
" clip-path="url(#pad1db6adb8)" style="fill-opacity: 0.133333"/>
   </g>
   <g id="patch_11">
    <path d="M 239.894275 140.09621 
C 247.587276 140.09621 254.966227 137.039749 260.406 131.599976 
C 265.845772 126.160203 268.902234 118.781252 268.902234 111.088252 
C 268.902234 103.395251 265.845772 96.0163 260.406 90.576527 
C 254.966227 85.136755 247.587276 82.080293 239.894275 82.080293 
C 232.201275 82.080293 224.822324 85.136755 219.382551 90.576527 
C 213.942779 96.0163 210.886317 103.395251 210.886317 111.088252 
C 210.886317 118.781252 213.942779 126.160203 219.382551 131.599976 
C 224.822324 137.039749 232.201275 140.09621 239.894275 140.09621 
z
" clip-path="url(#pad1db6adb8)" style="fill: #e41a1c; stroke: #ffffff; stroke-width: 2.8; stroke-linejoin: miter"/>
   </g>
   <g id="patch_12">
    <path d="M 381.339969 385.087337 
C 389.032969 385.087337 396.41192 382.030876 401.851693 376.591103 
C 407.291466 371.15133 410.347927 363.77238 410.347927 356.079379 
C 410.347927 348.386379 407.291466 341.007428 401.851693 335.567655 
C 396.41192 330.127882 389.032969 327.071421 381.339969 327.071421 
C 373.646968 327.071421 366.268018 330.127882 360.828245 335.567655 
C 355.388472 341.007428 352.33201 348.386379 352.33201 356.079379 
C 352.33201 363.77238 355.388472 371.15133 360.828245 376.591103 
C 366.268018 382.030876 373.646968 385.087337 381.339969 385.087337 
z
" clip-path="url(#pad1db6adb8)" style="fill: #377eb8; stroke: #ffffff; stroke-width: 2.8; stroke-linejoin: miter"/>
   </g>
   <g id="patch_13">
    <path d="M 98.448582 385.087337 
C 106.141583 385.087337 113.520533 382.030876 118.960306 376.591103 
C 124.400079 371.15133 127.456541 363.77238 127.456541 356.079379 
C 127.456541 348.386379 124.400079 341.007428 118.960306 335.567655 
C 113.520533 330.127882 106.141583 327.071421 98.448582 327.071421 
C 90.755582 327.071421 83.376631 330.127882 77.936858 335.567655 
C 72.497085 341.007428 69.440624 348.386379 69.440624 356.079379 
C 69.440624 363.77238 72.497085 371.15133 77.936858 376.591103 
C 83.376631 382.030876 90.755582 385.087337 98.448582 385.087337 
z
" clip-path="url(#pad1db6adb8)" style="fill: #4daf4a; stroke: #ffffff; stroke-width: 2.8; stroke-linejoin: miter"/>
   </g>
   <g id="text_1">
    <!-- 2000s: Broadcast Era -->
    <g transform="translate(89.904041 26.391406) scale(0.25 -0.25)">
     <defs>
      <path id="DejaVuSans-Bold-32" d="M 1844 884 
L 3897 884 
L 3897 0 
L 506 0 
L 506 884 
L 2209 2388 
Q 2438 2594 2547 2791 
Q 2656 2988 2656 3200 
Q 2656 3528 2436 3728 
Q 2216 3928 1850 3928 
Q 1569 3928 1234 3808 
Q 900 3688 519 3450 
L 519 4475 
Q 925 4609 1322 4679 
Q 1719 4750 2100 4750 
Q 2938 4750 3402 4381 
Q 3866 4013 3866 3353 
Q 3866 2972 3669 2642 
Q 3472 2313 2841 1759 
L 1844 884 
z
" transform="scale(0.015625)"/>
      <path id="DejaVuSans-Bold-30" d="M 2944 2338 
Q 2944 3213 2780 3570 
Q 2616 3928 2228 3928 
Q 1841 3928 1675 3570 
Q 1509 3213 1509 2338 
Q 1509 1453 1675 1090 
Q 1841 728 2228 728 
Q 2613 728 2778 1090 
Q 2944 1453 2944 2338 
z
M 4147 2328 
Q 4147 1169 3647 539 
Q 3147 -91 2228 -91 
Q 1306 -91 806 539 
Q 306 1169 306 2328 
Q 306 3491 806 4120 
Q 1306 4750 2228 4750 
Q 3147 4750 3647 4120 
Q 4147 3491 4147 2328 
z
" transform="scale(0.015625)"/>
      <path id="DejaVuSans-Bold-73" d="M 3272 3391 
L 3272 2541 
Q 2913 2691 2578 2766 
Q 2244 2841 1947 2841 
Q 1628 2841 1473 2761 
Q 1319 2681 1319 2516 
Q 1319 2381 1436 2309 
Q 1553 2238 1856 2203 
L 2053 2175 
Q 2913 2066 3209 1816 
Q 3506 1566 3506 1031 
Q 3506 472 3093 190 
Q 2681 -91 1863 -91 
Q 1516 -91 1145 -36 
Q 775 19 384 128 
L 384 978 
Q 719 816 1070 734 
Q 1422 653 1784 653 
Q 2113 653 2278 743 
Q 2444 834 2444 1013 
Q 2444 1163 2330 1236 
Q 2216 1309 1875 1350 
L 1678 1375 
Q 931 1469 631 1722 
Q 331 1975 331 2491 
Q 331 3047 712 3315 
Q 1094 3584 1881 3584 
Q 2191 3584 2531 3537 
Q 2872 3491 3272 3391 
z
" transform="scale(0.015625)"/>
      <path id="DejaVuSans-Bold-3a" d="M 716 3500 
L 1844 3500 
L 1844 2291 
L 716 2291 
L 716 3500 
z
M 716 1209 
L 1844 1209 
L 1844 0 
L 716 0 
L 716 1209 
z
" transform="scale(0.015625)"/>
      <path id="DejaVuSans-Bold-20" transform="scale(0.015625)"/>
      <path id="DejaVuSans-Bold-42" d="M 2456 2859 
Q 2741 2859 2887 2984 
Q 3034 3109 3034 3353 
Q 3034 3594 2887 3720 
Q 2741 3847 2456 3847 
L 1791 3847 
L 1791 2859 
L 2456 2859 
z
M 2497 819 
Q 2859 819 3042 972 
Q 3225 1125 3225 1434 
Q 3225 1738 3044 1889 
Q 2863 2041 2497 2041 
L 1791 2041 
L 1791 819 
L 2497 819 
z
M 3616 2497 
Q 4003 2384 4215 2081 
Q 4428 1778 4428 1338 
Q 4428 663 3972 331 
Q 3516 0 2584 0 
L 588 0 
L 588 4666 
L 2394 4666 
Q 3366 4666 3802 4372 
Q 4238 4078 4238 3431 
Q 4238 3091 4078 2852 
Q 3919 2613 3616 2497 
z
" transform="scale(0.015625)"/>
      <path id="DejaVuSans-Bold-72" d="M 3138 2547 
Q 2991 2616 2845 2648 
Q 2700 2681 2553 2681 
Q 2122 2681 1889 2404 
Q 1656 2128 1656 1613 
L 1656 0 
L 538 0 
L 538 3500 
L 1656 3500 
L 1656 2925 
Q 1872 3269 2151 3426 
Q 2431 3584 2822 3584 
Q 2878 3584 2943 3579 
Q 3009 3575 3134 3559 
L 3138 2547 
z
" transform="scale(0.015625)"/>
      <path id="DejaVuSans-Bold-6f" d="M 2203 2784 
Q 1831 2784 1636 2517 
Q 1441 2250 1441 1747 
Q 1441 1244 1636 976 
Q 1831 709 2203 709 
Q 2569 709 2762 976 
Q 2956 1244 2956 1747 
Q 2956 2250 2762 2517 
Q 2569 2784 2203 2784 
z
M 2203 3584 
Q 3106 3584 3614 3096 
Q 4122 2609 4122 1747 
Q 4122 884 3614 396 
Q 3106 -91 2203 -91 
Q 1297 -91 786 396 
Q 275 884 275 1747 
Q 275 2609 786 3096 
Q 1297 3584 2203 3584 
z
" transform="scale(0.015625)"/>
      <path id="DejaVuSans-Bold-61" d="M 2106 1575 
Q 1756 1575 1579 1456 
Q 1403 1338 1403 1106 
Q 1403 894 1545 773 
Q 1688 653 1941 653 
Q 2256 653 2472 879 
Q 2688 1106 2688 1447 
L 2688 1575 
L 2106 1575 
z
M 3816 1997 
L 3816 0 
L 2688 0 
L 2688 519 
Q 2463 200 2181 54 
Q 1900 -91 1497 -91 
Q 953 -91 614 226 
Q 275 544 275 1050 
Q 275 1666 698 1953 
Q 1122 2241 2028 2241 
L 2688 2241 
L 2688 2328 
Q 2688 2594 2478 2717 
Q 2269 2841 1825 2841 
Q 1466 2841 1156 2769 
Q 847 2697 581 2553 
L 581 3406 
Q 941 3494 1303 3539 
Q 1666 3584 2028 3584 
Q 2975 3584 3395 3211 
Q 3816 2838 3816 1997 
z
" transform="scale(0.015625)"/>
      <path id="DejaVuSans-Bold-64" d="M 2919 2988 
L 2919 4863 
L 4044 4863 
L 4044 0 
L 2919 0 
L 2919 506 
Q 2688 197 2409 53 
Q 2131 -91 1766 -91 
Q 1119 -91 703 423 
Q 288 938 288 1747 
Q 288 2556 703 3070 
Q 1119 3584 1766 3584 
Q 2128 3584 2408 3439 
Q 2688 3294 2919 2988 
z
M 2181 722 
Q 2541 722 2730 984 
Q 2919 1247 2919 1747 
Q 2919 2247 2730 2509 
Q 2541 2772 2181 2772 
Q 1825 2772 1636 2509 
Q 1447 2247 1447 1747 
Q 1447 1247 1636 984 
Q 1825 722 2181 722 
z
" transform="scale(0.015625)"/>
      <path id="DejaVuSans-Bold-63" d="M 3366 3391 
L 3366 2478 
Q 3138 2634 2908 2709 
Q 2678 2784 2431 2784 
Q 1963 2784 1702 2511 
Q 1441 2238 1441 1747 
Q 1441 1256 1702 982 
Q 1963 709 2431 709 
Q 2694 709 2930 787 
Q 3166 866 3366 1019 
L 3366 103 
Q 3103 6 2833 -42 
Q 2563 -91 2291 -91 
Q 1344 -91 809 395 
Q 275 881 275 1747 
Q 275 2613 809 3098 
Q 1344 3584 2291 3584 
Q 2566 3584 2833 3536 
Q 3100 3488 3366 3391 
z
" transform="scale(0.015625)"/>
      <path id="DejaVuSans-Bold-74" d="M 1759 4494 
L 1759 3500 
L 2913 3500 
L 2913 2700 
L 1759 2700 
L 1759 1216 
Q 1759 972 1856 886 
Q 1953 800 2241 800 
L 2816 800 
L 2816 0 
L 1856 0 
Q 1194 0 917 276 
Q 641 553 641 1216 
L 641 2700 
L 84 2700 
L 84 3500 
L 641 3500 
L 641 4494 
L 1759 4494 
z
" transform="scale(0.015625)"/>
      <path id="DejaVuSans-Bold-45" d="M 588 4666 
L 3834 4666 
L 3834 3756 
L 1791 3756 
L 1791 2888 
L 3713 2888 
L 3713 1978 
L 1791 1978 
L 1791 909 
L 3903 909 
L 3903 0 
L 588 0 
L 588 4666 
z
" transform="scale(0.015625)"/>
     </defs>
     <use xlink:href="#DejaVuSans-Bold-32"/>
     <use xlink:href="#DejaVuSans-Bold-30" transform="translate(69.580078 0)"/>
     <use xlink:href="#DejaVuSans-Bold-30" transform="translate(139.160156 0)"/>
     <use xlink:href="#DejaVuSans-Bold-30" transform="translate(208.740234 0)"/>
     <use xlink:href="#DejaVuSans-Bold-73" transform="translate(278.320312 0)"/>
     <use xlink:href="#DejaVuSans-Bold-3a" transform="translate(337.841797 0)"/>
     <use xlink:href="#DejaVuSans-Bold-20" transform="translate(377.832031 0)"/>
     <use xlink:href="#DejaVuSans-Bold-42" transform="translate(412.646484 0)"/>
     <use xlink:href="#DejaVuSans-Bold-72" transform="translate(488.867188 0)"/>
     <use xlink:href="#DejaVuSans-Bold-6f" transform="translate(538.183594 0)"/>
     <use xlink:href="#DejaVuSans-Bold-61" transform="translate(606.884766 0)"/>
     <use xlink:href="#DejaVuSans-Bold-64" transform="translate(674.365234 0)"/>
     <use xlink:href="#DejaVuSans-Bold-63" transform="translate(745.947266 0)"/>
     <use xlink:href="#DejaVuSans-Bold-61" transform="translate(805.224609 0)"/>
     <use xlink:href="#DejaVuSans-Bold-73" transform="translate(872.705078 0)"/>
     <use xlink:href="#DejaVuSans-Bold-74" transform="translate(932.226562 0)"/>
     <use xlink:href="#DejaVuSans-Bold-20" transform="translate(980.029297 0)"/>
     <use xlink:href="#DejaVuSans-Bold-45" transform="translate(1014.84375 0)"/>
     <use xlink:href="#DejaVuSans-Bold-72" transform="translate(1083.154297 0)"/>
     <use xlink:href="#DejaVuSans-Bold-61" transform="translate(1132.470703 0)"/>
    </g>
   </g>
   <g id="patch_14">
    <path d="M 231.772047 115.149366 
C 235.003107 115.149366 238.102267 113.865652 240.386971 111.580947 
C 242.671676 109.296243 243.95539 106.197083 243.95539 102.966023 
C 243.95539 99.734963 242.671676 96.635804 240.386971 94.351099 
C 238.102267 92.066395 235.003107 90.782681 231.772047 90.782681 
C 228.540987 90.782681 225.441828 92.066395 223.157123 94.351099 
C 220.872418 96.635804 219.588705 99.734963 219.588705 102.966023 
C 219.588705 106.197083 220.872418 109.296243 223.157123 111.580947 
C 225.441828 113.865652 228.540987 115.149366 231.772047 115.149366 
z
" clip-path="url(#pad1db6adb8)" style="fill: #ffffff; opacity: 0.22"/>
   </g>
   <g id="patch_15">
    <path d="M 373.21774 360.140493 
C 376.448801 360.140493 379.54796 358.856779 381.832665 356.572075 
C 384.117369 354.28737 385.401083 351.188211 385.401083 347.957151 
C 385.401083 344.72609 384.117369 341.626931 381.832665 339.342227 
C 379.54796 337.057522 376.448801 335.773808 373.21774 335.773808 
C 369.98668 335.773808 366.887521 337.057522 364.602816 339.342227 
C 362.318112 341.626931 361.034398 344.72609 361.034398 347.957151 
C 361.034398 351.188211 362.318112 354.28737 364.602816 356.572075 
C 366.887521 358.856779 369.98668 360.140493 373.21774 360.140493 
z
" clip-path="url(#pad1db6adb8)" style="fill: #ffffff; opacity: 0.22"/>
   </g>
   <g id="patch_16">
    <path d="M 90.326354 360.140493 
C 93.557414 360.140493 96.656573 358.856779 98.941278 356.572075 
C 101.225982 354.28737 102.509696 351.188211 102.509696 347.957151 
C 102.509696 344.72609 101.225982 341.626931 98.941278 339.342227 
C 96.656573 337.057522 93.557414 335.773808 90.326354 335.773808 
C 87.095294 335.773808 83.996134 337.057522 81.71143 339.342227 
C 79.426725 341.626931 78.143011 344.72609 78.143011 347.957151 
C 78.143011 351.188211 79.426725 354.28737 81.71143 356.572075 
C 83.996134 358.856779 87.095294 360.140493 90.326354 360.140493 
z
" clip-path="url(#pad1db6adb8)" style="fill: #ffffff; opacity: 0.22"/>
   </g>
   <g id="patch_17">
    <path d="M 237.753669 141.700349 
L 242.670146 156.041873 
L 233.846988 156.349202 
z
" clip-path="url(#pad1db6adb8)" style="fill: #999999; opacity: 0.45"/>
   </g>
   <g id="patch_18">
    <path d="M 122.630149 337.186668 
L 131.832495 325.138104 
L 136.984411 332.307507 
z
" clip-path="url(#pad1db6adb8)" style="fill: #999999; opacity: 0.45"/>
   </g>
   <g id="patch_19">
    <path d="M 126.900933 344.583883 
L 141.824396 341.911557 
L 140.782855 350.678414 
z
" clip-path="url(#pad1db6adb8)" style="fill: #49a62d; opacity: 0.6"/>
   </g>
   <g id="patch_20">
    <path d="M 246.27443 141.10452 
L 261.125913 144.151571 
L 256.910349 151.908606 
z
" clip-path="url(#pad1db6adb8)" style="fill: #1a6fa8; opacity: 0.74"/>
   </g>
   <g id="patch_21">
    <path d="M 354.764378 340.735954 
L 349.248471 326.614133 
L 358.050868 325.935615 
z
" clip-path="url(#pad1db6adb8)" style="fill: #7b2d8b; opacity: 0.88"/>
   </g>
   <g id="text_2">
    <!-- Broadcast -->
    <g transform="translate(205.851775 74.539806) scale(0.12 -0.12)">
     <use xlink:href="#DejaVuSans-Bold-42"/>
     <use xlink:href="#DejaVuSans-Bold-72" transform="translate(76.220703 0)"/>
     <use xlink:href="#DejaVuSans-Bold-6f" transform="translate(125.537109 0)"/>
     <use xlink:href="#DejaVuSans-Bold-61" transform="translate(194.238281 0)"/>
     <use xlink:href="#DejaVuSans-Bold-64" transform="translate(261.71875 0)"/>
     <use xlink:href="#DejaVuSans-Bold-63" transform="translate(333.300781 0)"/>
     <use xlink:href="#DejaVuSans-Bold-61" transform="translate(392.578125 0)"/>
     <use xlink:href="#DejaVuSans-Bold-73" transform="translate(460.058594 0)"/>
     <use xlink:href="#DejaVuSans-Bold-74" transform="translate(519.580078 0)"/>
    </g>
   </g>
   <g id="text_3">
    <!-- Print -->
    <g transform="translate(410.830577 382.223914) scale(0.12 -0.12)">
     <defs>
      <path id="DejaVuSans-Bold-50" d="M 588 4666 
L 2584 4666 
Q 3475 4666 3951 4270 
Q 4428 3875 4428 3144 
Q 4428 2409 3951 2014 
Q 3475 1619 2584 1619 
L 1791 1619 
L 1791 0 
L 588 0 
L 588 4666 
z
M 1791 3794 
L 1791 2491 
L 2456 2491 
Q 2806 2491 2997 2661 
Q 3188 2831 3188 3144 
Q 3188 3456 2997 3625 
Q 2806 3794 2456 3794 
L 1791 3794 
z
" transform="scale(0.015625)"/>
      <path id="DejaVuSans-Bold-69" d="M 538 3500 
L 1656 3500 
L 1656 0 
L 538 0 
L 538 3500 
z
M 538 4863 
L 1656 4863 
L 1656 3950 
L 538 3950 
L 538 4863 
z
" transform="scale(0.015625)"/>
      <path id="DejaVuSans-Bold-6e" d="M 4056 2131 
L 4056 0 
L 2931 0 
L 2931 347 
L 2931 1631 
Q 2931 2084 2911 2256 
Q 2891 2428 2841 2509 
Q 2775 2619 2662 2680 
Q 2550 2741 2406 2741 
Q 2056 2741 1856 2470 
Q 1656 2200 1656 1722 
L 1656 0 
L 538 0 
L 538 3500 
L 1656 3500 
L 1656 2988 
Q 1909 3294 2193 3439 
Q 2478 3584 2822 3584 
Q 3428 3584 3742 3212 
Q 4056 2841 4056 2131 
z
" transform="scale(0.015625)"/>
     </defs>
     <use xlink:href="#DejaVuSans-Bold-50"/>
     <use xlink:href="#DejaVuSans-Bold-72" transform="translate(73.291016 0)"/>
     <use xlink:href="#DejaVuSans-Bold-69" transform="translate(122.607422 0)"/>
     <use xlink:href="#DejaVuSans-Bold-6e" transform="translate(156.884766 0)"/>
     <use xlink:href="#DejaVuSans-Bold-74" transform="translate(228.076172 0)"/>
    </g>
   </g>
   <g id="text_4">
    <!-- Digital -->
    <g transform="translate(24.231724 382.223914) scale(0.12 -0.12)">
     <defs>
      <path id="DejaVuSans-Bold-44" d="M 1791 3756 
L 1791 909 
L 2222 909 
Q 2959 909 3348 1275 
Q 3738 1641 3738 2338 
Q 3738 3031 3350 3393 
Q 2963 3756 2222 3756 
L 1791 3756 
z
M 588 4666 
L 1856 4666 
Q 2919 4666 3439 4514 
Q 3959 4363 4331 4000 
Q 4659 3684 4818 3271 
Q 4978 2859 4978 2338 
Q 4978 1809 4818 1395 
Q 4659 981 4331 666 
Q 3956 303 3431 151 
Q 2906 0 1856 0 
L 588 0 
L 588 4666 
z
" transform="scale(0.015625)"/>
      <path id="DejaVuSans-Bold-67" d="M 2919 594 
Q 2688 288 2409 144 
Q 2131 0 1766 0 
Q 1125 0 706 504 
Q 288 1009 288 1791 
Q 288 2575 706 3076 
Q 1125 3578 1766 3578 
Q 2131 3578 2409 3434 
Q 2688 3291 2919 2981 
L 2919 3500 
L 4044 3500 
L 4044 353 
Q 4044 -491 3511 -936 
Q 2978 -1381 1966 -1381 
Q 1638 -1381 1331 -1331 
Q 1025 -1281 716 -1178 
L 716 -306 
Q 1009 -475 1290 -558 
Q 1572 -641 1856 -641 
Q 2406 -641 2662 -400 
Q 2919 -159 2919 353 
L 2919 594 
z
M 2181 2772 
Q 1834 2772 1640 2515 
Q 1447 2259 1447 1791 
Q 1447 1309 1634 1061 
Q 1822 813 2181 813 
Q 2531 813 2725 1069 
Q 2919 1325 2919 1791 
Q 2919 2259 2725 2515 
Q 2531 2772 2181 2772 
z
" transform="scale(0.015625)"/>
      <path id="DejaVuSans-Bold-6c" d="M 538 4863 
L 1656 4863 
L 1656 0 
L 538 0 
L 538 4863 
z
" transform="scale(0.015625)"/>
     </defs>
     <use xlink:href="#DejaVuSans-Bold-44"/>
     <use xlink:href="#DejaVuSans-Bold-69" transform="translate(83.007812 0)"/>
     <use xlink:href="#DejaVuSans-Bold-67" transform="translate(117.285156 0)"/>
     <use xlink:href="#DejaVuSans-Bold-69" transform="translate(188.867188 0)"/>
     <use xlink:href="#DejaVuSans-Bold-74" transform="translate(223.144531 0)"/>
     <use xlink:href="#DejaVuSans-Bold-61" transform="translate(270.947266 0)"/>
     <use xlink:href="#DejaVuSans-Bold-6c" transform="translate(338.427734 0)"/>
    </g>
   </g>
  </g>
  <g id="axes_2">
   <g id="patch_22">
    <path d="M 740.294275 429.576717 
C 781.443466 429.576717 820.912832 413.22797 850.009704 384.131099 
C 879.106576 355.034227 895.455323 315.564861 895.455323 274.41567 
C 895.455323 233.266479 879.106576 193.797113 850.009704 164.700241 
C 820.912832 135.603369 781.443466 119.254623 740.294275 119.254623 
C 699.145085 119.254623 659.675719 135.603369 630.578847 164.700241 
C 601.481975 193.797113 585.133228 233.266479 585.133228 274.41567 
C 585.133228 315.564861 601.481975 355.034227 630.578847 384.131099 
C 659.675719 413.22797 699.145085 429.576717 740.294275 429.576717 
z
" clip-path="url(#pb358036adb)" style="fill: #f0f4fa; stroke: #f0f4fa; stroke-linejoin: miter"/>
   </g>
   <g id="patch_23">
    <path d="M 744.331403 139.813907 
Q 812.392748 231.932992 851.838914 323.85802 
" clip-path="url(#pb358036adb)" style="fill: none; opacity: 0.45; stroke: #999999; stroke-width: 0.96; stroke-linejoin: miter"/>
   </g>
   <g id="patch_24">
    <path d="M 626.43679 347.115427 
Q 738.928815 262.20898 841.518925 336.106661 
" clip-path="url(#pb358036adb)" style="fill: none; opacity: 0.45; stroke: #999999; stroke-width: 0.96; stroke-linejoin: miter"/>
   </g>
   <g id="patch_25">
    <path d="M 622.89727 339.858335 
Q 742.839825 277.113926 740.567028 156.276515 
" clip-path="url(#pb358036adb)" style="fill: none; opacity: 0.6; stroke: #49a62d; stroke-width: 1.68; stroke-linejoin: miter"/>
   </g>
   <g id="patch_26">
    <path d="M 736.257148 139.813907 
Q 724.462933 264.32527 633.575985 327.286552 
" clip-path="url(#pb358036adb)" style="fill: none; opacity: 0.88; stroke: #7b2d8b; stroke-width: 3.6; stroke-linejoin: miter"/>
   </g>
   <g id="patch_27">
    <path d="M 856.61834 341.5754 
Q 741.279508 288.582425 639.553309 336.451607 
" clip-path="url(#pb358036adb)" style="fill: none; opacity: 0.88; stroke: #7b2d8b; stroke-width: 3.6; stroke-linejoin: miter"/>
   </g>
   <g id="patch_28">
    <path d="M 741.429369 141.231304 
C 749.12237 141.231304 756.501321 138.174843 761.941094 132.73507 
C 767.380866 127.295297 770.437328 119.916346 770.437328 112.223346 
C 770.437328 104.530345 767.380866 97.151394 761.941094 91.711622 
C 756.501321 86.271849 749.12237 83.215387 741.429369 83.215387 
C 733.736369 83.215387 726.357418 86.271849 720.917645 91.711622 
C 715.477873 97.151394 712.421411 104.530345 712.421411 112.223346 
C 712.421411 119.916346 715.477873 127.295297 720.917645 132.73507 
C 726.357418 138.174843 733.736369 141.231304 741.429369 141.231304 
z
" clip-path="url(#pb358036adb)" style="fill-opacity: 0.133333"/>
   </g>
   <g id="patch_29">
    <path d="M 599.983676 386.222432 
C 607.676677 386.222432 615.055627 383.16597 620.4954 377.726197 
C 625.935173 372.286424 628.991635 364.907474 628.991635 357.214473 
C 628.991635 349.521473 625.935173 342.142522 620.4954 336.702749 
C 615.055627 331.262976 607.676677 328.206515 599.983676 328.206515 
C 592.290676 328.206515 584.911725 331.262976 579.471952 336.702749 
C 574.032179 342.142522 570.975718 349.521473 570.975718 357.214473 
C 570.975718 364.907474 574.032179 372.286424 579.471952 377.726197 
C 584.911725 383.16597 592.290676 386.222432 599.983676 386.222432 
z
" clip-path="url(#pb358036adb)" style="fill-opacity: 0.133333"/>
   </g>
   <g id="patch_30">
    <path d="M 882.875063 386.222432 
C 890.568063 386.222432 897.947014 383.16597 903.386787 377.726197 
C 908.82656 372.286424 911.883021 364.907474 911.883021 357.214473 
C 911.883021 349.521473 908.82656 342.142522 903.386787 336.702749 
C 897.947014 331.262976 890.568063 328.206515 882.875063 328.206515 
C 875.182062 328.206515 867.803112 331.262976 862.363339 336.702749 
C 856.923566 342.142522 853.867104 349.521473 853.867104 357.214473 
C 853.867104 364.907474 856.923566 372.286424 862.363339 377.726197 
C 867.803112 383.16597 875.182062 386.222432 882.875063 386.222432 
z
" clip-path="url(#pb358036adb)" style="fill-opacity: 0.133333"/>
   </g>
   <g id="patch_31">
    <path d="M 740.294275 140.09621 
C 747.987276 140.09621 755.366227 137.039749 760.806 131.599976 
C 766.245772 126.160203 769.302234 118.781252 769.302234 111.088252 
C 769.302234 103.395251 766.245772 96.0163 760.806 90.576527 
C 755.366227 85.136755 747.987276 82.080293 740.294275 82.080293 
C 732.601275 82.080293 725.222324 85.136755 719.782551 90.576527 
C 714.342779 96.0163 711.286317 103.395251 711.286317 111.088252 
C 711.286317 118.781252 714.342779 126.160203 719.782551 131.599976 
C 725.222324 137.039749 732.601275 140.09621 740.294275 140.09621 
z
" clip-path="url(#pb358036adb)" style="fill: #e41a1c; stroke: #ffffff; stroke-width: 2.8; stroke-linejoin: miter"/>
   </g>
   <g id="patch_32">
    <path d="M 598.848582 385.087337 
C 606.541583 385.087337 613.920533 382.030876 619.360306 376.591103 
C 624.800079 371.15133 627.856541 363.77238 627.856541 356.079379 
C 627.856541 348.386379 624.800079 341.007428 619.360306 335.567655 
C 613.920533 330.127882 606.541583 327.071421 598.848582 327.071421 
C 591.155582 327.071421 583.776631 330.127882 578.336858 335.567655 
C 572.897085 341.007428 569.840624 348.386379 569.840624 356.079379 
C 569.840624 363.77238 572.897085 371.15133 578.336858 376.591103 
C 583.776631 382.030876 591.155582 385.087337 598.848582 385.087337 
z
" clip-path="url(#pb358036adb)" style="fill: #4daf4a; stroke: #ffffff; stroke-width: 2.8; stroke-linejoin: miter"/>
   </g>
   <g id="patch_33">
    <path d="M 881.739969 385.087337 
C 889.432969 385.087337 896.81192 382.030876 902.251693 376.591103 
C 907.691466 371.15133 910.747927 363.77238 910.747927 356.079379 
C 910.747927 348.386379 907.691466 341.007428 902.251693 335.567655 
C 896.81192 330.127882 889.432969 327.071421 881.739969 327.071421 
C 874.046968 327.071421 866.668018 330.127882 861.228245 335.567655 
C 855.788472 341.007428 852.73201 348.386379 852.73201 356.079379 
C 852.73201 363.77238 855.788472 371.15133 861.228245 376.591103 
C 866.668018 382.030876 874.046968 385.087337 881.739969 385.087337 
z
" clip-path="url(#pb358036adb)" style="fill: #377eb8; stroke: #ffffff; stroke-width: 2.8; stroke-linejoin: miter"/>
   </g>
   <g id="text_5">
    <!-- 2010s: Convergence -->
    <g transform="translate(597.052088 26.196094) scale(0.25 -0.25)">
     <defs>
      <path id="DejaVuSans-Bold-31" d="M 750 831 
L 1813 831 
L 1813 3847 
L 722 3622 
L 722 4441 
L 1806 4666 
L 2950 4666 
L 2950 831 
L 4013 831 
L 4013 0 
L 750 0 
L 750 831 
z
" transform="scale(0.015625)"/>
      <path id="DejaVuSans-Bold-43" d="M 4288 256 
Q 3956 84 3597 -3 
Q 3238 -91 2847 -91 
Q 1681 -91 1000 561 
Q 319 1213 319 2328 
Q 319 3447 1000 4098 
Q 1681 4750 2847 4750 
Q 3238 4750 3597 4662 
Q 3956 4575 4288 4403 
L 4288 3438 
Q 3953 3666 3628 3772 
Q 3303 3878 2944 3878 
Q 2300 3878 1931 3465 
Q 1563 3053 1563 2328 
Q 1563 1606 1931 1193 
Q 2300 781 2944 781 
Q 3303 781 3628 887 
Q 3953 994 4288 1222 
L 4288 256 
z
" transform="scale(0.015625)"/>
      <path id="DejaVuSans-Bold-76" d="M 97 3500 
L 1216 3500 
L 2088 1081 
L 2956 3500 
L 4078 3500 
L 2700 0 
L 1472 0 
L 97 3500 
z
" transform="scale(0.015625)"/>
      <path id="DejaVuSans-Bold-65" d="M 4031 1759 
L 4031 1441 
L 1416 1441 
Q 1456 1047 1700 850 
Q 1944 653 2381 653 
Q 2734 653 3104 758 
Q 3475 863 3866 1075 
L 3866 213 
Q 3469 63 3072 -14 
Q 2675 -91 2278 -91 
Q 1328 -91 801 392 
Q 275 875 275 1747 
Q 275 2603 792 3093 
Q 1309 3584 2216 3584 
Q 3041 3584 3536 3087 
Q 4031 2591 4031 1759 
z
M 2881 2131 
Q 2881 2450 2695 2645 
Q 2509 2841 2209 2841 
Q 1884 2841 1681 2658 
Q 1478 2475 1428 2131 
L 2881 2131 
z
" transform="scale(0.015625)"/>
     </defs>
     <use xlink:href="#DejaVuSans-Bold-32"/>
     <use xlink:href="#DejaVuSans-Bold-30" transform="translate(69.580078 0)"/>
     <use xlink:href="#DejaVuSans-Bold-31" transform="translate(139.160156 0)"/>
     <use xlink:href="#DejaVuSans-Bold-30" transform="translate(208.740234 0)"/>
     <use xlink:href="#DejaVuSans-Bold-73" transform="translate(278.320312 0)"/>
     <use xlink:href="#DejaVuSans-Bold-3a" transform="translate(337.841797 0)"/>
     <use xlink:href="#DejaVuSans-Bold-20" transform="translate(377.832031 0)"/>
     <use xlink:href="#DejaVuSans-Bold-43" transform="translate(412.646484 0)"/>
     <use xlink:href="#DejaVuSans-Bold-6f" transform="translate(486.035156 0)"/>
     <use xlink:href="#DejaVuSans-Bold-6e" transform="translate(554.736328 0)"/>
     <use xlink:href="#DejaVuSans-Bold-76" transform="translate(625.927734 0)"/>
     <use xlink:href="#DejaVuSans-Bold-65" transform="translate(691.113281 0)"/>
     <use xlink:href="#DejaVuSans-Bold-72" transform="translate(758.935547 0)"/>
     <use xlink:href="#DejaVuSans-Bold-67" transform="translate(808.251953 0)"/>
     <use xlink:href="#DejaVuSans-Bold-65" transform="translate(879.833984 0)"/>
     <use xlink:href="#DejaVuSans-Bold-6e" transform="translate(947.65625 0)"/>
     <use xlink:href="#DejaVuSans-Bold-63" transform="translate(1018.847656 0)"/>
     <use xlink:href="#DejaVuSans-Bold-65" transform="translate(1078.125 0)"/>
    </g>
   </g>
   <g id="patch_34">
    <path d="M 732.172047 115.149366 
C 735.403107 115.149366 738.502267 113.865652 740.786971 111.580947 
C 743.071676 109.296243 744.35539 106.197083 744.35539 102.966023 
C 744.35539 99.734963 743.071676 96.635804 740.786971 94.351099 
C 738.502267 92.066395 735.403107 90.782681 732.172047 90.782681 
C 728.940987 90.782681 725.841828 92.066395 723.557123 94.351099 
C 721.272418 96.635804 719.988705 99.734963 719.988705 102.966023 
C 719.988705 106.197083 721.272418 109.296243 723.557123 111.580947 
C 725.841828 113.865652 728.940987 115.149366 732.172047 115.149366 
z
" clip-path="url(#pb358036adb)" style="fill: #ffffff; opacity: 0.22"/>
   </g>
   <g id="patch_35">
    <path d="M 590.726354 360.140493 
C 593.957414 360.140493 597.056573 358.856779 599.341278 356.572075 
C 601.625982 354.28737 602.909696 351.188211 602.909696 347.957151 
C 602.909696 344.72609 601.625982 341.626931 599.341278 339.342227 
C 597.056573 337.057522 593.957414 335.773808 590.726354 335.773808 
C 587.495294 335.773808 584.396134 337.057522 582.11143 339.342227 
C 579.826725 341.626931 578.543011 344.72609 578.543011 347.957151 
C 578.543011 351.188211 579.826725 354.28737 582.11143 356.572075 
C 584.396134 358.856779 587.495294 360.140493 590.726354 360.140493 
z
" clip-path="url(#pb358036adb)" style="fill: #ffffff; opacity: 0.22"/>
   </g>
   <g id="patch_36">
    <path d="M 873.61774 360.140493 
C 876.848801 360.140493 879.94796 358.856779 882.232665 356.572075 
C 884.517369 354.28737 885.801083 351.188211 885.801083 347.957151 
C 885.801083 344.72609 884.517369 341.626931 882.232665 339.342227 
C 879.94796 337.057522 876.848801 335.773808 873.61774 335.773808 
C 870.38668 335.773808 867.287521 337.057522 865.002816 339.342227 
C 862.718112 341.626931 861.434398 344.72609 861.434398 347.957151 
C 861.434398 351.188211 862.718112 354.28737 865.002816 356.572075 
C 867.287521 358.856779 870.38668 360.140493 873.61774 360.140493 
z
" clip-path="url(#pb358036adb)" style="fill: #ffffff; opacity: 0.22"/>
   </g>
   <g id="patch_37">
    <path d="M 857.558402 337.186668 
L 847.782369 325.598733 
L 855.895459 322.117306 
z
" clip-path="url(#pb358036adb)" style="fill: #999999; opacity: 0.45"/>
   </g>
   <g id="patch_38">
    <path d="M 853.287618 344.583883 
L 838.938901 339.688437 
L 844.098949 332.524885 
z
" clip-path="url(#pb358036adb)" style="fill: #999999; opacity: 0.45"/>
   </g>
   <g id="patch_39">
    <path d="M 740.294275 141.775101 
L 744.980502 156.193504 
L 736.153555 156.359527 
z
" clip-path="url(#pb358036adb)" style="fill: #49a62d; opacity: 0.6"/>
   </g>
   <g id="patch_40">
    <path d="M 621.653355 335.545869 
L 631.06228 323.657926 
L 636.08969 330.915179 
z
" clip-path="url(#pb358036adb)" style="fill: #7b2d8b; opacity: 0.88"/>
   </g>
   <g id="patch_41">
    <path d="M 626.42974 342.62715 
L 637.673796 332.457477 
L 641.432822 340.445736 
z
" clip-path="url(#pb358036adb)" style="fill: #7b2d8b; opacity: 0.88"/>
   </g>
   <g id="text_6">
    <!-- Broadcast -->
    <g transform="translate(706.251775 74.539806) scale(0.12 -0.12)">
     <use xlink:href="#DejaVuSans-Bold-42"/>
     <use xlink:href="#DejaVuSans-Bold-72" transform="translate(76.220703 0)"/>
     <use xlink:href="#DejaVuSans-Bold-6f" transform="translate(125.537109 0)"/>
     <use xlink:href="#DejaVuSans-Bold-61" transform="translate(194.238281 0)"/>
     <use xlink:href="#DejaVuSans-Bold-64" transform="translate(261.71875 0)"/>
     <use xlink:href="#DejaVuSans-Bold-63" transform="translate(333.300781 0)"/>
     <use xlink:href="#DejaVuSans-Bold-61" transform="translate(392.578125 0)"/>
     <use xlink:href="#DejaVuSans-Bold-73" transform="translate(460.058594 0)"/>
     <use xlink:href="#DejaVuSans-Bold-74" transform="translate(519.580078 0)"/>
    </g>
   </g>
   <g id="text_7">
    <!-- Digital -->
    <g transform="translate(524.631724 382.223914) scale(0.12 -0.12)">
     <use xlink:href="#DejaVuSans-Bold-44"/>
     <use xlink:href="#DejaVuSans-Bold-69" transform="translate(83.007812 0)"/>
     <use xlink:href="#DejaVuSans-Bold-67" transform="translate(117.285156 0)"/>
     <use xlink:href="#DejaVuSans-Bold-69" transform="translate(188.867188 0)"/>
     <use xlink:href="#DejaVuSans-Bold-74" transform="translate(223.144531 0)"/>
     <use xlink:href="#DejaVuSans-Bold-61" transform="translate(270.947266 0)"/>
     <use xlink:href="#DejaVuSans-Bold-6c" transform="translate(338.427734 0)"/>
    </g>
   </g>
   <g id="text_8">
    <!-- Print -->
    <g transform="translate(911.230577 382.223914) scale(0.12 -0.12)">
     <use xlink:href="#DejaVuSans-Bold-50"/>
     <use xlink:href="#DejaVuSans-Bold-72" transform="translate(73.291016 0)"/>
     <use xlink:href="#DejaVuSans-Bold-69" transform="translate(122.607422 0)"/>
     <use xlink:href="#DejaVuSans-Bold-6e" transform="translate(156.884766 0)"/>
     <use xlink:href="#DejaVuSans-Bold-74" transform="translate(228.076172 0)"/>
    </g>
   </g>
  </g>
  <g id="axes_3">
   <g id="patch_42">
    <path d="M 1240.694275 429.576717 
C 1281.843466 429.576717 1321.312832 413.22797 1350.409704 384.131099 
C 1379.506576 355.034227 1395.855323 315.564861 1395.855323 274.41567 
C 1395.855323 233.266479 1379.506576 193.797113 1350.409704 164.700241 
C 1321.312832 135.603369 1281.843466 119.254623 1240.694275 119.254623 
C 1199.545085 119.254623 1160.075719 135.603369 1130.978847 164.700241 
C 1101.881975 193.797113 1085.533228 233.266479 1085.533228 274.41567 
C 1085.533228 315.564861 1101.881975 355.034227 1130.978847 384.131099 
C 1160.075719 413.22797 1199.545085 429.576717 1240.694275 429.576717 
z
" clip-path="url(#p134309aa30)" style="fill: #f0f4fa; stroke: #f0f4fa; stroke-linejoin: miter"/>
   </g>
   <g id="patch_43">
    <path d="M 1244.731403 139.813907 
Q 1312.792748 231.932992 1352.238914 323.85802 
" clip-path="url(#p134309aa30)" style="fill: none; opacity: 0.45; stroke: #999999; stroke-width: 0.96; stroke-linejoin: miter"/>
   </g>
   <g id="patch_44">
    <path d="M 1357.01834 341.5754 
Q 1241.598832 270.925591 1139.130492 334.942301 
" clip-path="url(#p134309aa30)" style="fill: none; opacity: 0.6; stroke: #49a62d; stroke-width: 1.68; stroke-linejoin: miter"/>
   </g>
   <g id="patch_45">
    <path d="M 1236.657148 139.813907 
Q 1255.33749 282.168547 1135.517743 330.153682 
" clip-path="url(#p134309aa30)" style="fill: none; opacity: 0.6; stroke: #49a62d; stroke-width: 1.68; stroke-linejoin: miter"/>
   </g>
   <g id="patch_46">
    <path d="M 1126.83679 347.115427 
Q 1239.67362 293.106837 1340.468546 338.615504 
" clip-path="url(#p134309aa30)" style="fill: none; opacity: 0.88; stroke: #7b2d8b; stroke-width: 3.6; stroke-linejoin: miter"/>
   </g>
   <g id="patch_47">
    <path d="M 1123.29727 339.858335 
Q 1228.050124 268.111522 1239.249887 156.206981 
" clip-path="url(#p134309aa30)" style="fill: none; opacity: 0.88; stroke: #7b2d8b; stroke-width: 3.6; stroke-linejoin: miter"/>
   </g>
   <g id="patch_48">
    <path d="M 1100.383676 386.222432 
C 1108.076677 386.222432 1115.455627 383.16597 1120.8954 377.726197 
C 1126.335173 372.286424 1129.391635 364.907474 1129.391635 357.214473 
C 1129.391635 349.521473 1126.335173 342.142522 1120.8954 336.702749 
C 1115.455627 331.262976 1108.076677 328.206515 1100.383676 328.206515 
C 1092.690676 328.206515 1085.311725 331.262976 1079.871952 336.702749 
C 1074.432179 342.142522 1071.375718 349.521473 1071.375718 357.214473 
C 1071.375718 364.907474 1074.432179 372.286424 1079.871952 377.726197 
C 1085.311725 383.16597 1092.690676 386.222432 1100.383676 386.222432 
z
" clip-path="url(#p134309aa30)" style="fill-opacity: 0.133333"/>
   </g>
   <g id="patch_49">
    <path d="M 1241.829369 141.231304 
C 1249.52237 141.231304 1256.901321 138.174843 1262.341094 132.73507 
C 1267.780866 127.295297 1270.837328 119.916346 1270.837328 112.223346 
C 1270.837328 104.530345 1267.780866 97.151394 1262.341094 91.711622 
C 1256.901321 86.271849 1249.52237 83.215387 1241.829369 83.215387 
C 1234.136369 83.215387 1226.757418 86.271849 1221.317645 91.711622 
C 1215.877873 97.151394 1212.821411 104.530345 1212.821411 112.223346 
C 1212.821411 119.916346 1215.877873 127.295297 1221.317645 132.73507 
C 1226.757418 138.174843 1234.136369 141.231304 1241.829369 141.231304 
z
" clip-path="url(#p134309aa30)" style="fill-opacity: 0.133333"/>
   </g>
   <g id="patch_50">
    <path d="M 1383.275063 386.222432 
C 1390.968063 386.222432 1398.347014 383.16597 1403.786787 377.726197 
C 1409.22656 372.286424 1412.283021 364.907474 1412.283021 357.214473 
C 1412.283021 349.521473 1409.22656 342.142522 1403.786787 336.702749 
C 1398.347014 331.262976 1390.968063 328.206515 1383.275063 328.206515 
C 1375.582062 328.206515 1368.203112 331.262976 1362.763339 336.702749 
C 1357.323566 342.142522 1354.267104 349.521473 1354.267104 357.214473 
C 1354.267104 364.907474 1357.323566 372.286424 1362.763339 377.726197 
C 1368.203112 383.16597 1375.582062 386.222432 1383.275063 386.222432 
z
" clip-path="url(#p134309aa30)" style="fill-opacity: 0.133333"/>
   </g>
   <g id="patch_51">
    <path d="M 1099.248582 385.087337 
C 1106.941583 385.087337 1114.320533 382.030876 1119.760306 376.591103 
C 1125.200079 371.15133 1128.256541 363.77238 1128.256541 356.079379 
C 1128.256541 348.386379 1125.200079 341.007428 1119.760306 335.567655 
C 1114.320533 330.127882 1106.941583 327.071421 1099.248582 327.071421 
C 1091.555582 327.071421 1084.176631 330.127882 1078.736858 335.567655 
C 1073.297085 341.007428 1070.240624 348.386379 1070.240624 356.079379 
C 1070.240624 363.77238 1073.297085 371.15133 1078.736858 376.591103 
C 1084.176631 382.030876 1091.555582 385.087337 1099.248582 385.087337 
z
" clip-path="url(#p134309aa30)" style="fill: #4daf4a; stroke: #ffffff; stroke-width: 2.8; stroke-linejoin: miter"/>
   </g>
   <g id="patch_52">
    <path d="M 1240.694275 140.09621 
C 1248.387276 140.09621 1255.766227 137.039749 1261.206 131.599976 
C 1266.645772 126.160203 1269.702234 118.781252 1269.702234 111.088252 
C 1269.702234 103.395251 1266.645772 96.0163 1261.206 90.576527 
C 1255.766227 85.136755 1248.387276 82.080293 1240.694275 82.080293 
C 1233.001275 82.080293 1225.622324 85.136755 1220.182551 90.576527 
C 1214.742779 96.0163 1211.686317 103.395251 1211.686317 111.088252 
C 1211.686317 118.781252 1214.742779 126.160203 1220.182551 131.599976 
C 1225.622324 137.039749 1233.001275 140.09621 1240.694275 140.09621 
z
" clip-path="url(#p134309aa30)" style="fill: #e41a1c; stroke: #ffffff; stroke-width: 2.8; stroke-linejoin: miter"/>
   </g>
   <g id="patch_53">
    <path d="M 1382.139969 385.087337 
C 1389.832969 385.087337 1397.21192 382.030876 1402.651693 376.591103 
C 1408.091466 371.15133 1411.147927 363.77238 1411.147927 356.079379 
C 1411.147927 348.386379 1408.091466 341.007428 1402.651693 335.567655 
C 1397.21192 330.127882 1389.832969 327.071421 1382.139969 327.071421 
C 1374.446968 327.071421 1367.068018 330.127882 1361.628245 335.567655 
C 1356.188472 341.007428 1353.13201 348.386379 1353.13201 356.079379 
C 1353.13201 363.77238 1356.188472 371.15133 1361.628245 376.591103 
C 1367.068018 382.030876 1374.446968 385.087337 1382.139969 385.087337 
z
" clip-path="url(#p134309aa30)" style="fill: #377eb8; stroke: #ffffff; stroke-width: 2.8; stroke-linejoin: miter"/>
   </g>
   <g id="text_9">
    <!-- 2020s: Digital-First -->
    <g transform="translate(1104.936463 26.196094) scale(0.25 -0.25)">
     <defs>
      <path id="DejaVuSans-Bold-2d" d="M 347 2297 
L 2309 2297 
L 2309 1388 
L 347 1388 
L 347 2297 
z
" transform="scale(0.015625)"/>
      <path id="DejaVuSans-Bold-46" d="M 588 4666 
L 3834 4666 
L 3834 3756 
L 1791 3756 
L 1791 2888 
L 3713 2888 
L 3713 1978 
L 1791 1978 
L 1791 0 
L 588 0 
L 588 4666 
z
" transform="scale(0.015625)"/>
     </defs>
     <use xlink:href="#DejaVuSans-Bold-32"/>
     <use xlink:href="#DejaVuSans-Bold-30" transform="translate(69.580078 0)"/>
     <use xlink:href="#DejaVuSans-Bold-32" transform="translate(139.160156 0)"/>
     <use xlink:href="#DejaVuSans-Bold-30" transform="translate(208.740234 0)"/>
     <use xlink:href="#DejaVuSans-Bold-73" transform="translate(278.320312 0)"/>
     <use xlink:href="#DejaVuSans-Bold-3a" transform="translate(337.841797 0)"/>
     <use xlink:href="#DejaVuSans-Bold-20" transform="translate(377.832031 0)"/>
     <use xlink:href="#DejaVuSans-Bold-44" transform="translate(412.646484 0)"/>
     <use xlink:href="#DejaVuSans-Bold-69" transform="translate(495.654297 0)"/>
     <use xlink:href="#DejaVuSans-Bold-67" transform="translate(529.931641 0)"/>
     <use xlink:href="#DejaVuSans-Bold-69" transform="translate(601.513672 0)"/>
     <use xlink:href="#DejaVuSans-Bold-74" transform="translate(635.791016 0)"/>
     <use xlink:href="#DejaVuSans-Bold-61" transform="translate(683.59375 0)"/>
     <use xlink:href="#DejaVuSans-Bold-6c" transform="translate(751.074219 0)"/>
     <use xlink:href="#DejaVuSans-Bold-2d" transform="translate(785.351562 0)"/>
     <use xlink:href="#DejaVuSans-Bold-46" transform="translate(826.855469 0)"/>
     <use xlink:href="#DejaVuSans-Bold-69" transform="translate(895.166016 0)"/>
     <use xlink:href="#DejaVuSans-Bold-72" transform="translate(929.443359 0)"/>
     <use xlink:href="#DejaVuSans-Bold-73" transform="translate(978.759766 0)"/>
     <use xlink:href="#DejaVuSans-Bold-74" transform="translate(1038.28125 0)"/>
    </g>
   </g>
   <g id="patch_54">
    <path d="M 1067.756363 364.212768 
C 1064.973991 362.606365 1061.800408 361.801312 1058.588749 361.88719 
C 1055.37709 361.973067 1052.251065 362.946568 1049.558515 364.699368 
C 1046.865965 366.452168 1044.710607 368.91675 1043.332271 371.818873 
C 1041.953935 374.720997 1041.405715 377.948874 1041.748613 381.14333 
C 1042.091511 384.337787 1043.312318 387.375774 1045.275193 389.919247 
C 1047.238067 392.46272 1049.8674 394.413705 1052.870618 395.555112 
C 1055.873837 396.69652 1059.135258 396.984382 1062.291976 396.386668 
C 1065.448695 395.788955 1068.379114 394.328688 1070.75716 392.168357 
" clip-path="url(#p134309aa30)" style="fill: none; opacity: 0.45; stroke: #999999; stroke-width: 0.96; stroke-linejoin: miter"/>
   </g>
   <g id="patch_55">
    <path d="M 1091.126354 360.140493 
C 1094.357414 360.140493 1097.456573 358.856779 1099.741278 356.572075 
C 1102.025982 354.28737 1103.309696 351.188211 1103.309696 347.957151 
C 1103.309696 344.72609 1102.025982 341.626931 1099.741278 339.342227 
C 1097.456573 337.057522 1094.357414 335.773808 1091.126354 335.773808 
C 1087.895294 335.773808 1084.796134 337.057522 1082.51143 339.342227 
C 1080.226725 341.626931 1078.943011 344.72609 1078.943011 347.957151 
C 1078.943011 351.188211 1080.226725 354.28737 1082.51143 356.572075 
C 1084.796134 358.856779 1087.895294 360.140493 1091.126354 360.140493 
z
" clip-path="url(#p134309aa30)" style="fill: #ffffff; opacity: 0.22"/>
   </g>
   <g id="patch_56">
    <path d="M 1232.572047 115.149366 
C 1235.803107 115.149366 1238.902267 113.865652 1241.186971 111.580947 
C 1243.471676 109.296243 1244.75539 106.197083 1244.75539 102.966023 
C 1244.75539 99.734963 1243.471676 96.635804 1241.186971 94.351099 
C 1238.902267 92.066395 1235.803107 90.782681 1232.572047 90.782681 
C 1229.340987 90.782681 1226.241828 92.066395 1223.957123 94.351099 
C 1221.672418 96.635804 1220.388705 99.734963 1220.388705 102.966023 
C 1220.388705 106.197083 1221.672418 109.296243 1223.957123 111.580947 
C 1226.241828 113.865652 1229.340987 115.149366 1232.572047 115.149366 
z
" clip-path="url(#p134309aa30)" style="fill: #ffffff; opacity: 0.22"/>
   </g>
   <g id="patch_57">
    <path d="M 1374.01774 360.140493 
C 1377.248801 360.140493 1380.34796 358.856779 1382.632665 356.572075 
C 1384.917369 354.28737 1386.201083 351.188211 1386.201083 347.957151 
C 1386.201083 344.72609 1384.917369 341.626931 1382.632665 339.342227 
C 1380.34796 337.057522 1377.248801 335.773808 1374.01774 335.773808 
C 1370.78668 335.773808 1367.687521 337.057522 1365.402816 339.342227 
C 1363.118112 341.626931 1361.834398 344.72609 1361.834398 347.957151 
C 1361.834398 351.188211 1363.118112 354.28737 1365.402816 356.572075 
C 1367.687521 358.856779 1370.78668 360.140493 1374.01774 360.140493 
z
" clip-path="url(#p134309aa30)" style="fill: #ffffff; opacity: 0.22"/>
   </g>
   <g id="patch_58">
    <path d="M 1357.958402 337.186668 
L 1348.182369 325.598733 
L 1356.295459 322.117306 
z
" clip-path="url(#p134309aa30)" style="fill: #999999; opacity: 0.45"/>
   </g>
   <g id="patch_59">
    <path d="M 1081.492669 382.415704 
L 1073.725359 395.435686 
L 1067.788961 388.901028 
z
" clip-path="url(#p134309aa30)" style="fill: #999999; opacity: 0.45"/>
   </g>
   <g id="patch_60">
    <path d="M 1126.82974 342.62715 
L 1136.791625 331.198594 
L 1141.469359 338.686008 
z
" clip-path="url(#p134309aa30)" style="fill: #49a62d; opacity: 0.6"/>
   </g>
   <g id="patch_61">
    <path d="M 1122.053355 335.545869 
L 1133.876643 326.055825 
L 1137.158843 334.251539 
z
" clip-path="url(#p134309aa30)" style="fill: #49a62d; opacity: 0.6"/>
   </g>
   <g id="patch_62">
    <path d="M 1353.687618 344.583883 
L 1338.652082 342.6387 
L 1342.285009 334.592308 
z
" clip-path="url(#p134309aa30)" style="fill: #7b2d8b; opacity: 0.88"/>
   </g>
   <g id="patch_63">
    <path d="M 1240.694275 141.775101 
L 1243.642198 156.646577 
L 1234.857576 155.767384 
z
" clip-path="url(#p134309aa30)" style="fill: #7b2d8b; opacity: 0.88"/>
   </g>
   <g id="text_10">
    <!-- Digital -->
    <g transform="translate(1025.031724 382.223914) scale(0.12 -0.12)">
     <use xlink:href="#DejaVuSans-Bold-44"/>
     <use xlink:href="#DejaVuSans-Bold-69" transform="translate(83.007812 0)"/>
     <use xlink:href="#DejaVuSans-Bold-67" transform="translate(117.285156 0)"/>
     <use xlink:href="#DejaVuSans-Bold-69" transform="translate(188.867188 0)"/>
     <use xlink:href="#DejaVuSans-Bold-74" transform="translate(223.144531 0)"/>
     <use xlink:href="#DejaVuSans-Bold-61" transform="translate(270.947266 0)"/>
     <use xlink:href="#DejaVuSans-Bold-6c" transform="translate(338.427734 0)"/>
    </g>
   </g>
   <g id="text_11">
    <!-- Broadcast -->
    <g transform="translate(1206.651775 74.539806) scale(0.12 -0.12)">
     <use xlink:href="#DejaVuSans-Bold-42"/>
     <use xlink:href="#DejaVuSans-Bold-72" transform="translate(76.220703 0)"/>
     <use xlink:href="#DejaVuSans-Bold-6f" transform="translate(125.537109 0)"/>
     <use xlink:href="#DejaVuSans-Bold-61" transform="translate(194.238281 0)"/>
     <use xlink:href="#DejaVuSans-Bold-64" transform="translate(261.71875 0)"/>
     <use xlink:href="#DejaVuSans-Bold-63" transform="translate(333.300781 0)"/>
     <use xlink:href="#DejaVuSans-Bold-61" transform="translate(392.578125 0)"/>
     <use xlink:href="#DejaVuSans-Bold-73" transform="translate(460.058594 0)"/>
     <use xlink:href="#DejaVuSans-Bold-74" transform="translate(519.580078 0)"/>
    </g>
   </g>
   <g id="text_12">
    <!-- Print -->
    <g transform="translate(1411.630577 382.223914) scale(0.12 -0.12)">
     <use xlink:href="#DejaVuSans-Bold-50"/>
     <use xlink:href="#DejaVuSans-Bold-72" transform="translate(73.291016 0)"/>
     <use xlink:href="#DejaVuSans-Bold-69" transform="translate(122.607422 0)"/>
     <use xlink:href="#DejaVuSans-Bold-6e" transform="translate(156.884766 0)"/>
     <use xlink:href="#DejaVuSans-Bold-74" transform="translate(228.076172 0)"/>
    </g>
   </g>
  </g>
 </g>
 <defs>
  <clipPath id="pad1db6adb8">
   <rect x="7.2" y="41.721394" width="465.388551" height="465.388551"/>
  </clipPath>
  <clipPath id="pb358036adb">
   <rect x="507.6" y="41.721394" width="465.388551" height="465.388551"/>
  </clipPath>
  <clipPath id="p134309aa30">
   <rect x="1008" y="41.721394" width="465.388551" height="465.388551"/>
  </clipPath>
 </defs>
</svg>
